<?xml version="1.0" encoding="utf-8"?>
<!-- Generator: Adobe Illustrator 23.0.1, SVG Export Plug-In . SVG Version: 6.00 Build 0)  -->
<svg version="1.1" id="Layer_1" xmlns="http://www.w3.org/2000/svg" xmlns:xlink="http://www.w3.org/1999/xlink" x="0px" y="0px"
	 viewBox="0 0 353.1 62.6" style="enable-background:new 0 0 353.1 62.6;" xml:space="preserve">
<style type="text/css">
	.st0{fill:#E52033;}
	.st1{fill:#FFFFFF;}
	.st2{fill:none;}
</style>
<g>
	<g>
		<circle class="st0" cx="132.2" cy="31.3" r="31.3"/>
		<g>
			<path class="st1" d="M122.7,23.2c3.6,0,7.3,0,11.1,0c0,11.8,0,14.6,0,26.4c-3.6,0-7.3,0-11.1,0C122.7,37.8,122.7,35.2,122.7,23.2
				z M128.2,25.4c-0.7,0-1.5,0-2.2,0c-0.9,0-1.2,0.4-1.2,1.2c0,1.5,0,2.7,0,4.2c0,0.7,0.4,1.2,1.2,1.2c1.5,0,2.9,0,4.2,0
				c0.7,0,1.2-0.4,1.2-1.2c0-1.5,0-2.9,0-4.2c0-0.7-0.4-1.2-1.2-1.2C129.5,25.4,128.8,25.4,128.2,25.4z M127,34.3
				c-0.7,0-1.5,0-2.2,0c0,0.7,0,1.5,0,2.2c0.7,0,1.5,0,2.2,0C127,35.7,127,35,127,34.3z M131.4,36.5c0-0.7,0-1.5,0-2.2
				c-0.7,0-1.5,0-2.2,0c0,0.7,0,1.5,0,2.2C130,36.5,130.7,36.5,131.4,36.5z M127,41c0-0.7,0-1.5,0-2.2c-0.7,0-1.5,0-2.2,0
				c0,0.7,0,1.5,0,2.2C125.6,41,126.3,41,127,41z M129.2,38.8c0,0.7,0,1.5,0,2.2c0.7,0,1.5,0,2.2,0c0-0.7,0-1.5,0-2.2
				C130.7,38.8,130,38.8,129.2,38.8z"/>
			<path class="st1" d="M120.8,18.6c-0.6-0.4-1-0.8-1.5-1.2c3.8-5.8,13-5.8,17.6-0.1c-0.4,0.4-0.9,0.9-1.3,1.3
				c-2-2.1-4.3-3.7-7.4-3.7C125.1,14.8,122.8,16.4,120.8,18.6z"/>
			<path class="st1" d="M135.9,30.8c0.4,0.1,0.9,0.3,1,0.4c3.8,3.4,3.6,3.4,7.4,6.8c0.7,0.6,0.9,1.5,0.3,2c-0.4,0.4-1.3,0.4-2-0.1
				c-3.4-3.1-3.1-2.7-6.4-5.8c-0.3-0.1-0.4-0.6-0.4-0.9C135.9,32.6,135.9,31.8,135.9,30.8z"/>
			<path class="st1" d="M135.9,28.7c0-0.7,0-1.5,0-2.2c0.1,0,0.4,0,0.6,0c4.5,0,2.3,0,6.8,0c0.1,0,0.3,0,0.4,0c0.6,0.1,1,0.4,0.9,1
				c0,0.4-0.3,0.7-0.6,1.2c-0.1,0.1-0.4,0.1-0.7,0.1c-4.5,0-2.3,0-6.8,0C136.4,28.7,136.2,28.7,135.9,28.7z"/>
			<path class="st1" d="M125.6,20.5c-0.4-0.3-1-0.7-1.5-1c2-2.9,6-2.6,8-0.1c-0.4,0.3-0.9,0.7-1.3,1.2C128.6,18.4,127,19,125.6,20.5
				z"/>
			<path class="st1" d="M127,27.7c0.7,0,1.5,0,2.2,0c0,0.7,0,1.5,0,2.2c-0.7,0-1.5,0-2.2,0C127,29.1,127,28.5,127,27.7z"/>
		</g>
	</g>
	<g>
		<line class="st2" x1="163.5" y1="33.6" x2="353.1" y2="33.6"/>
		<g>
			<rect x="163.5" y="33.1" class="st1" width="183.6" height="1"/>
			<g>
				<path class="st1" d="M353.1,33.6c-2.8,1.1-6.4,2.9-8.5,4.8l1.7-4.8l-1.7-4.8C346.8,30.7,350.3,32.5,353.1,33.6z"/>
			</g>
		</g>
	</g>
	<g>
		<g>
			<line class="st2" x1="0" y1="33.6" x2="101" y2="33.6"/>
			<g>
				<rect y="33.1" class="st1" width="94.9" height="1"/>
				<g>
					<path class="st1" d="M101,33.6c-2.8,1.1-6.4,2.9-8.5,4.8l1.7-4.8l-1.7-4.8C94.6,30.7,98.1,32.5,101,33.6z"/>
				</g>
			</g>
		</g>
		<g>
			<g>
				<path class="st1" d="M1.4,14.1h7.5v1.2H2.8v4h5.7v1.2H2.8v4.2H9v1.2H1.4V14.1z"/>
				<path class="st1" d="M10,17.4v-0.1h1.5l2.2,6.2l0.4,1.3h0.2l0.4-1.3l2.3-6.2h1.4v0.2L15,25.9h-1.8L10,17.4z"/>
				<path class="st1" d="M23.1,26c-1.3,0-2.3-0.4-3-1.1s-1-1.8-1-3.3s0.3-2.6,1-3.4S21.7,17,23,17c2.2,0,3.3,1.3,3.3,3.9
					c0,0.5,0,0.9-0.1,1.1h-5.7c0.1,1,0.3,1.7,0.7,2.2c0.4,0.4,1.1,0.7,2,0.7c0.4,0,0.8,0,1.3-0.1s0.9-0.2,1.4-0.3l0.1,1.1
					c-0.4,0.2-0.9,0.3-1.4,0.4C24.1,26,23.6,26,23.1,26z M23,18.2c-1.5,0-2.4,1-2.5,2.9H25c0-1-0.2-1.8-0.5-2.2
					C24.2,18.4,23.7,18.2,23,18.2z"/>
				<path class="st1" d="M28.3,17.3h1.2l0.1,1h0.1c0.4-0.2,0.8-0.4,1.2-0.5c0.3-0.1,0.7-0.3,1-0.4s0.6-0.2,0.8-0.2
					c0.3,0,0.5-0.1,0.8-0.1c0.7,0,1.3,0.2,1.7,0.6c0.4,0.4,0.6,1,0.6,1.8v6.4h-1.4v-6c0-0.6-0.1-1-0.3-1.3s-0.6-0.4-1.1-0.4
					c-0.4,0-0.9,0.1-1.4,0.3c-0.5,0.2-1.1,0.4-1.7,0.7v6.7h-1.4v-8.6H28.3z"/>
				<path class="st1" d="M41.3,26c-0.8,0-1.4-0.2-1.9-0.6c-0.4-0.4-0.6-1-0.6-1.8v-5.1H37v-1.2h1.9l0.2-2.2l1.1-0.1v2.3h2.6v1.2
					h-2.5v4.8c0,0.5,0.1,0.9,0.4,1.2c0.2,0.3,0.6,0.4,1.1,0.4c0.2,0,0.3,0,0.5,0s0.4-0.1,0.6-0.1v1.1c-0.2,0.1-0.5,0.1-0.8,0.2
					S41.6,26,41.3,26z"/>
				<path class="st1" d="M46.7,15.7L46.7,15.7l-2.8,1.4h-0.1l-0.2-0.8v-0.1l3.5-2.1h1.1v11.8h-1.4L46.7,15.7L46.7,15.7z"/>
			</g>
		</g>
	</g>
	<g>
		<path class="st1" d="M196.9,25.8l4.1-11.7h2.7l4.1,11.7v0.1h-1.8l-1.2-3.3h-5.1l-1.2,3.3h-1.8V25.8z M204.5,21.1l-1.3-3.6
			l-0.7-2.1h-0.2l-0.7,2.1l-1.3,3.6H204.5z"/>
		<path class="st1" d="M214.1,26.1c-3.7,0-5.5-2-5.5-6c0-2.1,0.5-3.6,1.4-4.6s2.3-1.5,4.1-1.5c0.4,0,0.8,0,1.2,0.1s0.9,0.1,1.4,0.2
			v1.5c-0.5-0.1-1-0.1-1.4-0.2c-0.4,0-0.7-0.1-1.1-0.1c-0.7,0-1.2,0.1-1.7,0.3c-0.5,0.2-0.9,0.4-1.2,0.8c-0.3,0.4-0.5,0.8-0.7,1.4
			c-0.1,0.6-0.2,1.3-0.2,2.1c0,1.6,0.3,2.8,0.9,3.5c0.6,0.7,1.5,1.1,2.8,1.1c0.2,0,0.4,0,0.6,0c0.2,0,0.5,0,0.7-0.1
			c0.2,0,0.5-0.1,0.7-0.1s0.4-0.1,0.6-0.1v1.5c-0.4,0.1-0.8,0.2-1.3,0.2C214.9,26,214.5,26.1,214.1,26.1z"/>
		<path class="st1" d="M221.9,26.1c-0.6,0-1.2,0-1.9-0.1s-1.4-0.2-2-0.4v-1.5c0.7,0.2,1.3,0.3,2,0.4c0.7,0.1,1.3,0.1,1.8,0.1
			c1.8,0,2.7-0.6,2.7-1.8c0-0.3-0.1-0.6-0.2-0.8c-0.1-0.2-0.3-0.4-0.5-0.6c-0.2-0.2-0.5-0.3-0.8-0.4s-0.7-0.2-1-0.3
			c-0.6-0.2-1.2-0.3-1.6-0.5c-0.5-0.2-0.8-0.4-1.1-0.7c-0.3-0.3-0.5-0.6-0.7-1c-0.1-0.4-0.2-0.8-0.2-1.3c0-0.5,0.1-1,0.3-1.4
			c0.2-0.4,0.5-0.8,0.8-1s0.8-0.5,1.3-0.7s1.1-0.2,1.8-0.2c0.5,0,1,0,1.5,0.1c0.5,0.1,1.1,0.2,1.8,0.3v1.5c-0.5-0.1-1-0.2-1.6-0.3
			s-1.1-0.1-1.5-0.1c-0.8,0-1.4,0.2-1.9,0.5c-0.4,0.3-0.7,0.8-0.7,1.3c0,0.5,0.2,1,0.6,1.3c0.4,0.3,1.1,0.6,2,0.8
			c0.6,0.1,1.1,0.3,1.5,0.5c0.4,0.2,0.8,0.4,1.2,0.7c0.3,0.3,0.6,0.6,0.7,1c0.2,0.4,0.3,0.8,0.3,1.4c0,1.1-0.4,1.9-1.1,2.5
			C224.4,25.8,223.3,26.1,221.9,26.1z"/>
		<path class="st1" d="M228.8,26c-0.3,0-0.6-0.1-0.8-0.3c-0.2-0.2-0.3-0.4-0.3-0.8c0-0.4,0.1-0.6,0.3-0.8c0.2-0.2,0.5-0.3,0.8-0.3
			c0.3,0,0.6,0.1,0.8,0.3c0.2,0.2,0.3,0.4,0.3,0.8c0,0.3-0.1,0.6-0.3,0.8C229.4,25.9,229.1,26,228.8,26z"/>
		<path class="st1" d="M232.1,14.1h1.8v5h6.2v-5h1.8v11.8h-1.8v-5.3H234v5.3h-1.8V14.1z"/>
		<path class="st1" d="M243.4,25.8l4.1-11.7h2.7l4.1,11.7v0.1h-1.8l-1.2-3.3h-5.1l-1.2,3.3h-1.8V25.8z M251,21.1l-1.3-3.6l-0.7-2.1
			h-0.2l-0.7,2.1l-1.3,3.6H251z"/>
		<path class="st1" d="M255.8,14.1h1.8v10.4h5.3v1.5h-7.1V14.1z"/>
		<path class="st1" d="M264.5,14.1h1.8v10.4h5.3v1.5h-7.1V14.1z"/>
		<path class="st1" d="M274.4,16.1L274.4,16.1l-2.8,1.2h-0.1l-0.2-1.1l0-0.1l3.6-2.1h1.4v11.8h-1.8V16.1z"/>
		<path class="st1" d="M279.7,26c-0.3,0-0.6-0.1-0.8-0.3c-0.2-0.2-0.3-0.4-0.3-0.8c0-0.4,0.1-0.6,0.3-0.8c0.2-0.2,0.5-0.3,0.8-0.3
			c0.3,0,0.6,0.1,0.8,0.3c0.2,0.2,0.3,0.4,0.3,0.8c0,0.3-0.1,0.6-0.3,0.8C280.3,25.9,280.1,26,279.7,26z"/>
		<path class="st1" d="M287.7,26.1c-3.7,0-5.5-2-5.5-6c0-2.1,0.5-3.6,1.4-4.6s2.3-1.5,4.1-1.5c0.4,0,0.8,0,1.2,0.1s0.9,0.1,1.4,0.2
			v1.5c-0.5-0.1-1-0.1-1.4-0.2c-0.4,0-0.7-0.1-1.1-0.1c-0.7,0-1.2,0.1-1.7,0.3c-0.5,0.2-0.9,0.4-1.2,0.8c-0.3,0.4-0.5,0.8-0.7,1.4
			c-0.1,0.6-0.2,1.3-0.2,2.1c0,1.6,0.3,2.8,0.9,3.5c0.6,0.7,1.5,1.1,2.8,1.1c0.2,0,0.4,0,0.6,0c0.2,0,0.5,0,0.7-0.1
			c0.2,0,0.5-0.1,0.7-0.1s0.4-0.1,0.6-0.1v1.5c-0.4,0.1-0.8,0.2-1.3,0.2C288.6,26,288.1,26.1,287.7,26.1z"/>
		<path class="st1" d="M292.3,14.1h7.8v1.5h-6v3.8h5.4v1.5h-5.4v5.1h-1.8V14.1z"/>
		<path class="st1" d="M306,26.1c-1.5,0-2.6-0.5-3.4-1.5s-1.2-2.5-1.2-4.6c0-2,0.4-3.5,1.2-4.6s1.9-1.5,3.4-1.5
			c1.5,0,2.6,0.5,3.4,1.5c0.8,1,1.2,2.5,1.2,4.6c0,2-0.4,3.5-1.2,4.6C308.6,25.6,307.5,26.1,306,26.1z M306,24.6
			c0.9,0,1.6-0.4,2.1-1.1s0.7-1.9,0.7-3.5c0-1.6-0.2-2.8-0.7-3.5c-0.5-0.7-1.2-1.1-2.1-1.1c-1,0-1.7,0.4-2.1,1.1
			c-0.5,0.7-0.7,1.9-0.7,3.5c0,1.6,0.2,2.8,0.7,3.5C304.3,24.2,305,24.6,306,24.6z"/>
		<path class="st1" d="M312.1,24.3c0-0.5,0.1-1,0.2-1.4c0.2-0.4,0.4-0.8,0.7-1.1c0.3-0.3,0.7-0.7,1.1-0.9s0.9-0.6,1.4-0.9
			c0.4-0.2,0.7-0.4,1-0.6c0.3-0.2,0.5-0.4,0.7-0.6c0.2-0.2,0.3-0.4,0.4-0.6c0.1-0.2,0.1-0.5,0.1-0.7c0-1.2-0.8-1.8-2.3-1.8
			c-0.4,0-0.9,0-1.4,0.1s-1,0.2-1.5,0.3l-0.2-1.5c0.7-0.1,1.3-0.3,1.9-0.3c0.5-0.1,1.1-0.1,1.6-0.1c1.3,0,2.2,0.3,2.9,0.8
			s0.9,1.3,0.9,2.4c0,0.4-0.1,0.8-0.2,1.2c-0.1,0.4-0.3,0.7-0.5,1c-0.2,0.3-0.5,0.6-0.9,0.9s-0.8,0.5-1.2,0.8
			c-0.4,0.3-0.8,0.5-1.2,0.7s-0.6,0.5-0.8,0.7c-0.2,0.2-0.4,0.5-0.5,0.7c-0.1,0.2-0.2,0.5-0.2,0.7v0.6h5.6v1.5h-7.6V24.3z"/>
	</g>
</g>
</svg>
