<?xml version="1.0" encoding="utf-8"?>
<!-- Generator: Adobe Illustrator 25.0.1, SVG Export Plug-In . SVG Version: 6.00 Build 0)  -->
<svg version="1.1" id="Layer_1" xmlns="http://www.w3.org/2000/svg" xmlns:xlink="http://www.w3.org/1999/xlink" x="0px" y="0px"
	 viewBox="0 0 60 85.3" style="enable-background:new 0 0 60 85.3;" xml:space="preserve">
<style type="text/css">
	.st0{fill:#B3B3B3;}
</style>
<g id="Layer_2_1_">
	<g id="layer">
		<g id="layer-2">
			<g id="layer-2-2">
				<path class="st0" d="M27.9,34h-7.7c-1.4,0-1.8-0.4-1.8-1.8V10.6c0-1.4,0.4-1.8,1.8-1.8H33c1.5,0,1.8,0.3,1.9,1.9V22
					c0,0.4-0.2,0.5-0.5,0.5h-4.6c-1.2,0-1.8,0.6-1.8,1.8v6.8L27.9,34z M22.8,21.6v-1.4c0-0.4-0.2-0.7-0.6-0.8c0,0,0,0,0,0l0,0
					c0,0-0.1,0-0.1,0c-0.4,0-0.8,0-1.1,0c-0.4,0-0.7,0.2-0.7,0.6c0,0,0,0,0,0l0,0c0,0,0,0.1,0,0.1v2.6c0,0.4,0.3,0.7,0.6,0.8h0.1
					c0.4,0,0.8,0,1.2,0c0.4,0,0.7-0.3,0.7-0.7c0,0,0,0,0,0L22.8,21.6L22.8,21.6z M22.8,14.8v-1.4c0-0.4-0.3-0.7-0.7-0.7c0,0,0,0,0,0
					h-1.3c-0.4,0-0.7,0.3-0.7,0.6l0,0V16c0,0.4,0.2,0.7,0.6,0.8H22c0.4,0,0.7-0.3,0.7-0.6l0,0V16C22.7,15.6,22.7,15.1,22.8,14.8
					L22.8,14.8z"/>
				<path class="st0" d="M41.7,32v6.4c0,1.1-0.5,1.5-1.5,1.5h-9.4c-1.1,0-1.6-0.5-1.6-1.6V25.8c0-1.4,0.4-1.8,1.8-1.8H40
					c1.2,0,1.7,0.4,1.7,1.7L41.7,32z M40.1,38.4V25.7h-4.6v12.7H40.1z M32.7,38.4V25.8h-2v12.7L32.7,38.4z"/>
				<path class="st0" d="M26.8,0c2.7,0,5.3,1.2,7.2,3.1c0.1,0.2,0.3,0.3,0.4,0.5c0.3,0.3,0.3,0.9,0,1.2c-0.4,0.2-1,0.1-1.3-0.2
					c-1.5-1.7-3.6-2.8-5.9-2.9c-2.1-0.2-4.3,0.5-5.9,1.9c-0.5,0.4-1,0.9-1.4,1.4c-0.3,0.3-0.6,0.6-1,0.3c-0.4-0.3-0.5-0.8-0.2-1.2
					c0.2-0.5,0.5-0.9,0.9-1.3C21.5,0.9,24.1-0.1,26.8,0z"/>
				<path class="st0" d="M26.3,3.5c1.8,0,3.5,0.9,4.8,2.2c0.5,0.5,0.5,1,0.1,1.4s-1,0.3-1.4-0.3c-1.3-1.7-3.7-2.1-5.4-0.8L24,6.3
					c-0.2,0.2-0.3,0.4-0.5,0.6s-0.3,0.3-0.4,0.3c-0.4,0.1-0.7,0.1-1.1-0.1c-0.3-0.2-0.2-0.9,0.1-1.3c0.7-0.9,1.6-1.6,2.6-2
					C25.3,3.7,25.8,3.6,26.3,3.5z"/>
			</g>
		</g>
	</g>
</g>
</svg>
