<svg xmlns="http://www.w3.org/2000/svg" viewBox="0 0 60 85.26"><defs><style>.cls-1{fill:#b3b3b3;}.cls-2{fill:none;stroke:#0c6d72;stroke-miterlimit:10;stroke-width:2px;}.cls-3{fill:#0c6d72;}</style></defs><title>alarm-dim</title><g id="Layer_2" data-name="Layer 2"><g id="layer"><path class="cls-1" d="M29.16,40a6.44,6.44,0,0,1-4.68-3.57c-.22-.48-.38-1-.6-1.59H20.24c-2.31,0-4.63,0-6.93,0a1.47,1.47,0,0,1-1.13-.73,1.37,1.37,0,0,1,.43-1.26c2.38-1.32,3.35-3.55,3.87-6a34.31,34.31,0,0,0,.62-5.27c.16-2.44,0-4.94.35-7.34a12,12,0,0,1,6.64-8.8,1.68,1.68,0,0,0,1-1.35A4.74,4.74,0,0,1,28.68.18c.16,0,.32-.12.48-.18h1.6a17.53,17.53,0,0,1,2.53,1.36,4.45,4.45,0,0,1,1.59,3,1.39,1.39,0,0,0,.65.88A12.9,12.9,0,0,1,42.8,17.13c.06,2.6,0,5.22.29,7.8a20.43,20.43,0,0,0,1.41,4.9,5.28,5.28,0,0,0,2.59,2.82A1.13,1.13,0,0,1,47.81,34c-.16.65-.66.84-1.29.84H36a6.38,6.38,0,0,1-3.27,4.43,15.94,15.94,0,0,1-2,.73Zm11.6-13.55c-.07-3.17-.17-6.29-.21-9.42a10.6,10.6,0,0,0-21.18-.76q-.11,5.07-.21,10.18Zm-24.24,6.1H43.4c-.54-1.11-1-2.18-1.59-3.21a1.16,1.16,0,0,0-.79-.58q-11.07,0-22.13,0a1,1,0,0,0-.75.5C17.56,30.32,17.06,31.42,16.52,32.55Zm17.06,2.37H26.32a3.74,3.74,0,0,0,7.26,0ZM32.48,4.07a2.59,2.59,0,0,0-2.59-1.82,2.5,2.5,0,0,0-2.43,1.82Z"/><path class="cls-1" d="M21.16,16.18a8.84,8.84,0,0,1,8.41-8.36c.93,0,1.44.32,1.51,1s-.41,1.09-1.33,1.2c-3.29.39-5.4,2.09-6.15,5a9.4,9.4,0,0,0-.2,1.31c-.09,1-.45,1.4-1.15,1.38S21.14,17.12,21.16,16.18Z"/><line class="cls-2" x1="20.21" y1="80.47" y2="80.47"/><line class="cls-2" x1="60" y1="80.47" x2="39.79" y2="80.47"/><path class="cls-3" d="M25.21,79.58h3.88V75.67h1.78v3.91h3.92v1.77H30.87v3.91H29.09V81.35H25.21Z"/></g></g></svg>