<?xml version="1.0" encoding="utf-8"?>
<!-- Generator: Adobe Illustrator 25.0.1, SVG Export Plug-In . SVG Version: 6.00 Build 0)  -->
<svg version="1.1" id="Layer_1" xmlns="http://www.w3.org/2000/svg" xmlns:xlink="http://www.w3.org/1999/xlink" x="0px" y="0px"
	 viewBox="0 0 60 85.3" style="enable-background:new 0 0 60 85.3;" xml:space="preserve">
<style type="text/css">
	.st0{fill:#B3B3B3;}
</style>
<g id="Layer_2_1_">
	<g id="layer">
		<g id="layer-2">
			<path class="st0" d="M19.8,28.3c-0.1-1.7,0.2-3.4,0.9-4.9c0.4-0.7,0.5-1.5,0.2-2.2c-0.4-1.4-2-2.2-3.4-1.8
				c-0.6,0.2-1.1,0.6-1.5,1.1c-0.6,1.1-1.7,1.8-2.9,1.9c-0.7,0-1.4,0-2.1,0c-0.1-0.6-0.2-1.2-0.4-1.9c0.6,0,1.2,0,1.7,0
				c0.3,0,0.6,0,0.9-0.1c0.7-0.2,1.3-0.8,1.5-1.5c0.1-0.6,0.7-1,1.3-0.9c0,0,0,0,0,0c2.3-0.1,4.2-2,4.3-4.3c0-0.6,0-1.3,0-2
				c1.2,0.2,2.4,0.6,3.4,1.3c0.1,0.1,0.3,0.1,0.5,0.1c2.2-1.1,4.4-2.2,6.7-3.3c-0.5-1.4-0.2-2.9,0.7-4.1c0.6-0.9,1.5-1.5,2.5-1.7
				c2.4-0.6,4.9,0.9,5.4,3.4c0.4,1.8-0.3,3.7-1.9,4.8C35.7,13.5,33,13,31.5,11l-6.3,3.2l0.1,0.3l-1.1,0.2c-1.1,0.1-2.1,1-2.4,2.1
				c-0.4,1.2,0.1,2.4,1,3.1c0.5,0.4,0.8,1,0.8,1.6c0,2.2-0.1,2,1.5,3.6c0.1,0.1,0.3,0.2,0.4,0.4l-0.4,0.5l0.1,0.1l6.3,3.1
				c0.8-1.2,2.2-1.9,3.7-1.9c1.1,0,2.1,0.3,2.9,1c1.9,1.6,2.2,4.5,0.6,6.4c-1.2,1.4-3.2,2-5,1.4c-2.3-0.8-3.3-2.8-2.8-5.7L28.7,29
				c-1.4-0.7-2.9-1.4-4.3-2.1c-0.2-0.1-0.4-0.1-0.6,0C22.6,27.7,21.2,28.2,19.8,28.3z M36.6,8.3c0-0.7-0.6-1.3-1.3-1.3
				S34,7.6,34,8.3s0.6,1.3,1.3,1.3l0,0C36,9.6,36.5,9.1,36.6,8.3L36.6,8.3z M35.3,32.9c0.7,0,1.3-0.6,1.3-1.3c0-0.7-0.6-1.3-1.3-1.3
				c-0.7,0-1.3,0.6-1.3,1.3C34,32.3,34.5,32.9,35.3,32.9C35.3,32.9,35.3,32.9,35.3,32.9L35.3,32.9z"/>
			<path class="st0" d="M47.5,6.6V3.2h1.3V9H43V7.8h3.7C42.1,1.9,31.3-1.7,22,4.6l-0.7-1C29.6-2.1,40.7-0.8,47.5,6.6z"/>
			<path class="st0" d="M17.8,33.4v3.3h-1.3V31h5.8v1.2h-3.7c4.5,5.7,14.9,9.3,24.2,3.5l0.7,1.1C35.3,42.1,24.4,40.7,17.8,33.4
				L17.8,33.4z"/>
			<path class="st0" d="M19.1,11.6c0.1,0.8,0.1,1.7,0,2.6c-0.2,1.5-1.5,2.6-3.1,2.6c-1.1,0-2,0.7-2.3,1.7c-0.1,0.5-0.6,0.9-1.1,0.9
				c0,0,0,0,0,0h-1.6h-0.1C11.1,15,14.7,11.6,19.1,11.6z"/>
			<path class="st0" d="M18.4,28.4c-2.9-0.3-5.4-2-6.7-4.5h0.7c1.9,0.1,3.7-0.9,4.7-2.5c0.4-0.6,1.2-0.9,1.8-0.5
				c0.7,0.3,1,1.1,0.7,1.8c-0.8,1.8-1.3,3.7-1.2,5.6C18.5,28.2,18.5,28.3,18.4,28.4z"/>
			<path class="st0" d="M26.3,24.3c-0.4-0.4-0.8-0.8-1.1-1.2C25,23,25,22.8,25,22.6c0-0.4,0-0.9,0-1.3c0-1-0.4-1.9-1.2-2.4
				c-0.6-0.4-0.9-1.1-0.7-1.8c0.1-0.7,0.7-1.2,1.4-1.2c0.5-0.1,1.1-0.1,1.6-0.2c0.1,0,0.2,0,0.3,0.1C27.9,18.4,27.9,21.7,26.3,24.3z
				"/>
			<path class="st0" d="M45.4,35.4l-0.8-1l1.3-1.2l0.9,0.9L45.4,35.4z"/>
			<path class="st0" d="M48.1,32.7l-1-0.8l1.1-1.4l1.1,0.7L48.1,32.7z"/>
			<path class="st0" d="M17.3,7.1l1,0.8l-1,1.4l-1.1-0.7L17.3,7.1z"/>
			<path class="st0" d="M19.9,4.6l0.8,1l-0.6,0.6l-0.6,0.6l-0.9-0.9L19.9,4.6z"/>
		</g>
	</g>
</g>
</svg>
