<?xml version="1.0" encoding="utf-8"?>
<!-- Generator: Adobe Illustrator 25.0.1, SVG Export Plug-In . SVG Version: 6.00 Build 0)  -->
<svg version="1.1" id="Layer_1" xmlns="http://www.w3.org/2000/svg" xmlns:xlink="http://www.w3.org/1999/xlink" x="0px" y="0px"
	 viewBox="0 0 60 86.1" style="enable-background:new 0 0 60 86.1;" xml:space="preserve">
<style type="text/css">
	.st0{fill:#D26F17;}
</style>
<g id="Layer_2_1_">
	<g id="layer">
		<rect y="79.5" class="st0" width="20.2" height="2"/>
		<rect x="39.8" y="79.5" class="st0" width="20.2" height="2"/>
		<polygon class="st0" points="31.6,80.3 34.6,75.7 34.6,74.8 32.3,74.8 30,78.5 27.6,74.8 25.4,74.8 25.4,75.7 28.4,80.3 
			25.2,85.1 25.2,86.1 27.5,86.1 29.8,82.5 30,82.1 32.5,86.1 34.8,86.1 34.8,85.1 		"/>
		<path class="st0" d="M55,32.4c-0.2,0.6-0.8,1-1.4,0.9c-15.8,0-31.5,0-47.3,0c-0.5,0-1-0.3-1.3-0.7V0.8C5.2,0.2,5.8-0.1,6.4,0h47.2
			c0.6-0.1,1.2,0.3,1.4,0.9V32.4z M52.8,31.2V2.2H7.1v29.1L52.8,31.2z"/>
		<path class="st0" d="M30,35.4h8.5c0.5-0.1,1,0.2,1.1,0.7c0.2,0.5-0.1,1.1-0.6,1.3c-0.2,0.1-0.3,0.1-0.5,0.1H21.3
			c-0.6,0-1-0.4-1.1-1c0-0.6,0.4-1,1-1c0,0,0.1,0,0.1,0L30,35.4L30,35.4z"/>
		<path class="st0" d="M42.5,17.8c-3.4-0.1-6.1-2.9-6.2-6.3c-0.1-3.4,2.6-6.3,6.1-6.4s6.3,2.6,6.4,6.1c0,0.2,0,0.3,0,0.5
			C48.6,15.1,45.8,17.7,42.5,17.8z M43.5,7.6c-2.1-0.6-4.3,0.6-4.9,2.8c0,0.1,0,0.2-0.1,0.3c-0.6,2.1,0.6,4.3,2.8,4.9
			c0.1,0,0.2,0,0.2,0.1c2.2,0.5,4.5-0.7,4.8-2.4c-0.1,0-0.1-0.1-0.2-0.1c-1.1-0.1-2.2-0.3-3.3-0.4c-1.3-0.1-1.6-0.8-1-1.9L43.5,7.6z
			 M44.1,10.8l2.5,0.3c-0.1-1-0.5-1.9-1.3-2.6L44.1,10.8z"/>
		<path class="st0" d="M27.9,16.7V7.6c0-0.7,0.3-1.2,0.9-1.2c0.6-0.1,1.1,0.2,1.3,0.8c0,0.1,0,0.2,0,0.4c0,1.3,0,2.7,0,4V26
			c0.1,0.6-0.3,1.1-0.9,1.2s-1.1-0.3-1.2-0.9c0-0.1,0-0.2,0-0.3L27.9,16.7L27.9,16.7z"/>
		<path class="st0" d="M23.7,19.9c0-2.1,0-4.1,0-6.2c-0.1-0.5,0.3-1,0.9-1.1c0.1,0,0.3,0,0.4,0c0.6,0.1,0.9,0.6,0.8,1.2v12.2
			c0.1,0.6-0.3,1.1-0.9,1.2c0,0-0.1,0-0.1,0c-0.6,0-1-0.5-1-1.2L23.7,19.9L23.7,19.9z"/>
		<path class="st0" d="M15.4,20.9c0-1.7,0-3.4,0-5.1c-0.1-0.5,0.2-1.1,0.8-1.2c0.3-0.1,0.6,0,0.8,0.2c0.4,0.2,0.6,0.7,0.5,1.1v9.9
			c0,0.9-0.4,1.4-1.1,1.4s-1-0.5-1-1.4L15.4,20.9z"/>
		<path class="st0" d="M42.4,23h-5c-0.8,0-1.2-0.4-1.2-1s0.5-1,1.2-1h10.1c0.5,0,0.9,0.3,1.1,0.7c0.1,0.4,0,0.9-0.4,1.2
			c-0.2,0.1-0.5,0.2-0.7,0.2C45.8,23,44.1,23,42.4,23z"/>
		<path class="st0" d="M42.5,27.1h-5.1c-0.4,0-0.8-0.2-1-0.6c-0.2-0.4-0.1-0.8,0.2-1.1c0.2-0.2,0.5-0.3,0.8-0.3c3.4,0,6.9,0,10.3,0
			c0.5-0.1,1,0.3,1.1,0.9c0,0.1,0,0.1,0,0.2c0,0.6-0.4,1-1,1c0,0-0.1,0-0.1,0L42.5,27.1z"/>
		<path class="st0" d="M19.5,21.9v-4c-0.1-0.6,0.3-1.1,0.9-1.2c0,0,0.1,0,0.1,0c0.6,0,1,0.5,1,1.1c0,0,0,0.1,0,0.1c0,2.7,0,5.4,0,8
			c0.1,0.6-0.4,1.1-0.9,1.2c0,0,0,0-0.1,0c-0.6,0-1.1-0.5-1.1-1.1c0,0,0-0.1,0-0.1L19.5,21.9z"/>
		<path class="st0" d="M13.3,24c0,0.7,0,1.3,0,2c0,0.6-0.5,1-1,1s-1-0.5-1-1v-4c-0.1-0.5,0.3-1,0.9-1.1c0,0,0.1,0,0.1,0
			c0.6,0,1,0.4,1,1c0,0,0,0.1,0,0.1c0,0.3,0,0.7,0,1L13.3,24z"/>
	</g>
</g>
</svg>
