<svg xmlns="http://www.w3.org/2000/svg" viewBox="0 0 60 85.26"><defs><style>.cls-1{fill:none;stroke:#0c6d72;stroke-miterlimit:10;stroke-width:2px;}.cls-2{fill:#0c6d72;}.cls-3{fill:#b3b3b3;}</style></defs><title>dashboard-dim</title><g id="Layer_2" data-name="Layer 2"><g id="layer"><line class="cls-1" x1="20.21" y1="80.47" y2="80.47"/><line class="cls-1" x1="60" y1="80.47" x2="39.79" y2="80.47"/><path class="cls-2" d="M25.21,79.58h3.88V75.67h1.78v3.91h3.92v1.77H30.87v3.91H29.09V81.35H25.21Z"/><path class="cls-3" d="M55,32.42a1.26,1.26,0,0,1-1.41.92q-23.64,0-47.3,0A1.35,1.35,0,0,1,5,32.61V.77A1.36,1.36,0,0,1,6.38,0H53.59A1.35,1.35,0,0,1,55,.87Zm-2.16-1.2V2.16H7.09V31.22Z"/><path class="cls-3" d="M30,35.43h8.54a1,1,0,0,1,1.13.73,1,1,0,0,1-1.1,1.34H21.3a1.05,1.05,0,0,1-1.06-1,1,1,0,0,1,1.08-1H30Z"/><path class="cls-3" d="M42.45,17.81a6.42,6.42,0,0,1-6.17-6.28,6.23,6.23,0,1,1,12.45.18A6.41,6.41,0,0,1,42.45,17.81Zm1-10.23a4,4,0,0,0-5,3.06,4,4,0,0,0,3,5c2.21.46,4.45-.67,4.83-2.45a1.87,1.87,0,0,0-.22-.07c-1.1-.14-2.2-.29-3.3-.41-1.27-.14-1.62-.8-1-1.93Zm.66,3.18,2.47.3a4,4,0,0,0-1.26-2.55Z"/><path class="cls-3" d="M27.87,16.74V7.57c0-.71.32-1.15.86-1.24A1.05,1.05,0,0,1,30,7.48c0,1.35,0,2.7,0,4V26a1.06,1.06,0,1,1-2.1,0V16.74Z"/><path class="cls-3" d="M23.73,19.87c0-2.07,0-4.13,0-6.2A1,1,0,0,1,25,12.58a1.07,1.07,0,0,1,.84,1.2V25.93a1.07,1.07,0,0,1-1.05,1.21c-.62,0-1-.47-1-1.22V19.87Z"/><path class="cls-3" d="M15.38,20.89c0-1.69,0-3.38,0-5.07a1,1,0,0,1,1.59-1,1.14,1.14,0,0,1,.51,1.09v9.85c0,.9-.39,1.4-1.06,1.4s-1-.5-1-1.42Z"/><path class="cls-3" d="M42.44,23h-5c-.76,0-1.2-.39-1.2-1s.46-1,1.21-1H47.57a1.06,1.06,0,0,1,1.09.73,1,1,0,0,1-.41,1.16,1.68,1.68,0,0,1-.74.17C45.82,23,44.13,23,42.44,23Z"/><path class="cls-3" d="M42.46,27.14H37.34a1,1,0,0,1-1-.65.93.93,0,0,1,.23-1.12,1.35,1.35,0,0,1,.79-.3c3.43,0,6.86,0,10.28,0a1,1,0,0,1,1.1,1.05,1,1,0,0,1-1.12,1Z"/><path class="cls-3" d="M19.55,21.87V17.92a1.07,1.07,0,0,1,1.06-1.2,1.05,1.05,0,0,1,1,1.19c0,2.68,0,5.37,0,8.05a1.06,1.06,0,0,1-1,1.18,1.08,1.08,0,0,1-1.05-1.22Z"/><path class="cls-3" d="M13.3,24c0,.67,0,1.33,0,2a1,1,0,1,1-2.07,0V22a1,1,0,0,1,1-1.1,1,1,0,0,1,1,1.12c0,.34,0,.69,0,1Z"/></g></g></svg>