<?xml version="1.0" encoding="utf-8"?>
<!-- Generator: Adobe Illustrator 25.0.1, SVG Export Plug-In . SVG Version: 6.00 Build 0)  -->
<svg version="1.1" id="Layer_1" xmlns="http://www.w3.org/2000/svg" xmlns:xlink="http://www.w3.org/1999/xlink" x="0px" y="0px"
	 viewBox="0 0 60 85.3" style="enable-background:new 0 0 60 85.3;" xml:space="preserve">
<style type="text/css">
	.st0{fill:#B3B3B3;}
</style>
<g id="Layer_2_1_">
	<g id="layer">
		<g id="layer-2">
			<path class="st0" d="M21.9,40c-0.2-0.1-0.5-0.3-0.7-0.4C20.4,39,20,38,20.1,37V25c0-3.3,0-6.7,0-10c-0.1-3.1,1.6-6,4.4-7.3
				c1.2-0.6,2.5-0.9,3.9-0.8h0.9V6.3h-1.2c-0.6,0-0.9-0.3-0.9-0.9V0.7c0-0.6,0.1-0.7,0.7-0.7h4.4c0.5,0,0.6,0.1,0.6,0.6
				c0,1.3,0,2.7,0,4c0,0.3,0,0.6,0,0.8c0,0.4-0.2,0.7-0.6,0.8c0,0-0.1,0-0.1,0h-1.3V7h1.2c4.3-0.1,7.9,3.3,8,7.6c0,0.1,0,0.3,0,0.4
				v18c0,1.3,0,2.7,0,4c0.1,1.3-0.6,2.5-1.7,3c0,0-0.1,0.1-0.1,0.1L21.9,40z M21.5,37.3c0,0.8,0.6,1.4,1.4,1.4c0,0,0,0,0,0h13.8
				c0.8,0.1,1.6-0.5,1.7-1.3c0-0.1,0-0.2,0-0.3V31h-0.3H28c-0.6,0-0.9-0.2-0.9-0.9v-11c0-0.6,0.2-0.9,0.9-0.9c0.3,0,0.7,0,1,0h9.4
				v-2.8H21.5v17.6h2c0.5,0,0.7,0.2,0.8,0.6c0.1,0.4-0.1,0.7-0.5,0.8c-0.1,0-0.1,0-0.2,0h-2v1.4h3.3c0.2,0,0.3,0,0.5,0.1
				c0.3,0.1,0.5,0.5,0.4,0.8c-0.1,0.3-0.3,0.6-0.7,0.5L21.5,37.3z M38.5,29.5v-9.8h-9.9v9.8H38.5z M38.5,14
				c-0.3-3.1-2.9-5.5-6.1-5.6c-1.5,0-2.9,0-4.4,0c-2.4-0.1-4.6,1.3-5.7,3.4c-0.4,0.7-0.7,1.5-0.7,2.3L38.5,14z M31.5,1.3h-2.8v3.5
				h2.8V1.3z"/>
		</g>
	</g>
</g>
</svg>
