<?xml version="1.0" encoding="utf-8"?>
<!-- Generator: Adobe Illustrator 25.0.1, SVG Export Plug-In . SVG Version: 6.00 Build 0)  -->
<svg version="1.1" id="Layer_1" xmlns="http://www.w3.org/2000/svg" xmlns:xlink="http://www.w3.org/1999/xlink" x="0px" y="0px"
	 viewBox="0 0 60 85.3" style="enable-background:new 0 0 60 85.3;" xml:space="preserve">
<style type="text/css">
	.st0{fill:#B3B3B3;}
</style>
<g id="Layer_2_1_">
	<g id="layer">
		<path class="st0" d="M39,34.5c0,1.3,0,2.3,0,3.6c0.7,0,1.3,0,1.9,0c0.6,0,1.3,0.1,1.3,0.9c0,0.9-0.6,1-1.3,1c-5.4,0-10.7,0-16.1,0
			c-1.9,0-3.7,0-5.6,0c-0.7,0-1.3-0.1-1.4-0.9c0-0.9,0.6-1,1.3-1c0.6,0,1.2,0,1.8,0c0-1.2,0-2.3,0-3.6c-0.4,0-0.8,0-1.2,0
			c-3.2,0-6.4,0-9.5,0c-2.6,0-4.2-1.6-4.2-4.1c0-8.8,0-17.5,0-26.3C6,1.6,7.6,0,10.2,0c13.2,0,26.4,0,39.6,0c2.5,0,4.1,1.6,4.1,4
			c0,8.8,0,17.6,0,26.4c0,2.5-1.6,4-4.1,4.1c-3.1,0-6.3,0-9.4,0C40,34.5,39.5,34.5,39,34.5z M8,18.2c0,0.4-0.1,0.7-0.1,1
			c0,3.7,0,7.4,0,11.1c0,1.6,0.7,2.3,2.4,2.3c13.1,0,26.3,0,39.4,0c1.6,0,2.3-0.7,2.3-2.3c0-3.7,0-7.3,0-11c0-0.3,0-0.6-0.1-1
			c-3.1,0-6.2,0-9.3,0c-0.3,0-0.6,0.4-0.7,0.6c-0.7,1.6-1,3.6-2.5,4.7c-0.1,0-0.1,0.1-0.2,0.1c-0.1,0-0.1-0.1-0.2-0.1
			c-1-0.9-1.2-2.2-1.6-3.4C37,18.6,36.5,17,36,15.5c-0.3-0.9-0.6-1.7-0.9-2.8c-1.1,1.6-2.1,3-3.1,4.5c-0.5,0.8-1.1,1.1-1.9,1
			c-1.1-0.1-2.2,0-3.3,0c-0.9-0.1-1.4,0.2-1.7,1.1c-0.4,1.2-0.9,2.4-1.4,3.5c-0.2,0.4-0.7,0.9-1,0.9s-0.8-0.5-1-0.9
			c-0.6-1.4-1.1-2.8-1.6-4.2c-0.9-2.3-1.8-4.6-2.7-7.1c-1.1,2-2,3.8-3,5.6c-0.4,0.8-0.9,1.1-1.8,1C11.1,18.2,9.6,18.2,8,18.2z
			 M8,16.3c1.4,0,2.6,0,3.8,0c0.7,0,1.1-0.2,1.5-0.9c1.1-2.1,2.2-4.2,3.3-6.2c0.2-0.4,0.7-0.9,1-0.8c0.4,0.1,0.8,0.6,1,1
			c0.3,0.5,0.5,1.1,0.7,1.7c1.1,3,2.3,6,3.5,9.2c0.4-1,0.8-1.7,1-2.5c0.3-1,0.9-1.4,2-1.4c1.3,0.1,2.5,0.1,3.8,0
			c0.4,0,1-0.3,1.2-0.7c1.3-1.7,2.4-3.5,3.7-5.2c0.3-0.4,0.8-0.7,1.2-0.7c0.3,0,0.7,0.6,0.8,1c0.4,0.9,0.6,1.9,0.9,2.9
			c0.6,2,1.3,4.1,2,6.4c0.4-1,0.8-1.7,1-2.5c0.3-0.9,0.9-1.3,1.8-1.2c2.8,0,5.7,0,8.5,0c0.4,0,0.8,0,1.2-0.1c0-3.9,0-7.7,0-11.6
			c0-2.2-0.5-2.8-2.8-2.7C44.4,2,39.7,2,35,2c-8.2,0-16.4,0-24.6,0C8.5,1.9,8,2.5,8,4.5c0,1.7,0,3.4,0,5.1C8,11.7,8,13.9,8,16.3z"/>
	</g>
</g>
</svg>
