<?xml version="1.0" encoding="utf-8"?>
<!-- Generator: Adobe Illustrator 25.3.1, SVG Export Plug-In . SVG Version: 6.00 Build 0)  -->
<svg version="1.1" id="Layer_1" xmlns="http://www.w3.org/2000/svg" xmlns:xlink="http://www.w3.org/1999/xlink" x="0px" y="0px"
	 viewBox="0 0 60 85.3" style="enable-background:new 0 0 60 85.3;" xml:space="preserve">
<style type="text/css">
	.st0{fill:#B3B3B3;}
</style>
<g id="Layer_2_1_">
	<g id="layer">
		<g id="layer-2">
			<path class="st0" d="M11.9,0c0.2,0.1,0.3,0.2,0.5,0.2c0.5,0.3,0.8,0.8,0.7,1.4c0,0.2,0,0.5,0,0.7v34.1c0,0.5,0,0.5,0.5,0.5h34.6
				c0.6-0.1,1.1,0.2,1.5,0.6c0.1,0.2,0.2,0.4,0.3,0.6v0.6c-0.2,0.6-0.7,1.1-1.3,1.2H11.2c-0.6-0.2-1.1-0.7-1.2-1.3V1.3
				c0.1-0.4,0.3-0.7,0.6-1C10.8,0.2,11,0.1,11.2,0H11.9z"/>
			<path class="st0" d="M50,7.3c-0.2,0.4-0.4,0.8-0.7,1.1c-0.8,0.9-2.3,1-3.2,0.1c-0.8-0.7-1-1.8-0.5-2.8C46,5,46.9,4.6,47.8,4.6
				c1,0,1.8,0.7,2.1,1.6c0,0.1,0.1,0.2,0.1,0.3V7.3z"/>
			<path class="st0" d="M50,19.6c-0.2,0.6-0.5,1.1-1,1.5c-1,0.7-2.5,0.5-3.2-0.5c-0.7-1-0.5-2.3,0.4-3.1c0.9-0.8,2.4-0.7,3.2,0.2
				c0,0,0,0,0,0c0.3,0.3,0.5,0.7,0.6,1.1V19.6z"/>
			<path class="st0" d="M42.3,19.2c0,2.1-1.7,3.8-3.8,3.8c-2.1,0-3.8-1.7-3.8-3.8c0-2.1,1.7-3.8,3.8-3.8
				C40.6,15.4,42.3,17.1,42.3,19.2z"/>
			<path class="st0" d="M27.7,27.7c2.1,0,3.8,1.7,3.8,3.8s-1.7,3.8-3.8,3.8s-3.8-1.7-3.8-3.8c0,0,0,0,0,0
				C23.9,29.4,25.6,27.7,27.7,27.7z"/>
			<path class="st0" d="M27.7,10.8c-2.1,0-3.8-1.7-3.8-3.8s1.7-3.8,3.8-3.8c2.1,0,3.8,1.7,3.8,3.8c0,0,0,0,0,0
				C31.5,9,29.8,10.8,27.7,10.8z"/>
			<path class="st0" d="M43.1,31.5c-0.1-1.7,1.2-3.1,2.9-3.2s3.1,1.2,3.2,2.9c0,0.1,0,0.2,0,0.4c-0.1,1.7-1.5,3-3.2,2.9
				C44.4,34.4,43.2,33.1,43.1,31.5z"/>
			<path class="st0" d="M18.5,9.2c-1.3,0-2.3-1-2.3-2.3s1-2.3,2.3-2.3c1.3,0,2.3,1,2.3,2.3c0,0,0,0,0,0l0,0
				C20.8,8.2,19.8,9.2,18.5,9.2C18.5,9.2,18.5,9.2,18.5,9.2z"/>
			<path class="st0" d="M38.4,9.2c-1.3,0-2.3-1-2.3-2.3c0-1.3,1-2.3,2.3-2.3c1.3,0,2.3,1,2.3,2.3c0,0,0,0,0,0.1
				C40.7,8.2,39.7,9.2,38.4,9.2z"/>
			<path class="st0" d="M39.2,31.6c0,1.3-1.1,2.3-2.4,2.2c-1.3,0-2.3-1.1-2.2-2.4c0-1.3,1.1-2.3,2.4-2.2c0,0,0,0,0,0
				C38.3,29.3,39.2,30.3,39.2,31.6C39.2,31.6,39.2,31.6,39.2,31.6z"/>
			<path class="st0" d="M18.5,29.2c1.3,0,2.3,1,2.3,2.3c0,1.3-1,2.3-2.3,2.3s-2.3-1-2.3-2.3c0,0,0,0,0,0l0,0
				C16.2,30.3,17.2,29.2,18.5,29.2C18.5,29.2,18.5,29.2,18.5,29.2L18.5,29.2z"/>
			<path class="st0" d="M20.8,19.2c0,1.3-1,2.3-2.3,2.3c-1.3,0-2.3-1-2.3-2.3c0-1.3,1-2.3,2.3-2.3C19.7,16.9,20.8,18,20.8,19.2
				C20.8,19.2,20.8,19.2,20.8,19.2z"/>
		</g>
	</g>
</g>
</svg>
