<svg xmlns="http://www.w3.org/2000/svg" viewBox="0 0 60 85.26"><defs><style>.cls-1{fill:#b3b3b3;}.cls-2{fill:none;stroke:#0c6d72;stroke-miterlimit:10;stroke-width:2px;}.cls-3{fill:#0c6d72;}</style></defs><title>maps-dim</title><g id="Layer_2" data-name="Layer 2"><g id="layer"><path class="cls-1" d="M30,19.45a9.8,9.8,0,0,0,4.39-.79,4,4,0,0,0,1.28-.89,1.44,1.44,0,0,0,0-2.09,3.77,3.77,0,0,0-1.6-1c-.52-.19-.55-.26-.28-.72.36-.63.71-1.26,1.06-1.89.21-.38.3-.42.68-.22l7.22,3.73,1.68.88c.15.08.37.11.36.31s-.23.22-.37.29l-5.86,3-8.22,4.26a.65.65,0,0,1-.66,0L19.75,19.2,15.53,17c-.12-.06-.3-.09-.31-.26s.14-.21.26-.27l9-4.67c.29-.16.43-.09.58.17.41.72.82,1.42,1.24,2.13.15.25,0,.38-.18.46a5.67,5.67,0,0,0-1.08.52A2.36,2.36,0,0,0,24,16.28a1.36,1.36,0,0,0,.31,1.4,4.27,4.27,0,0,0,1.83,1.17A9.85,9.85,0,0,0,30,19.45Z"/><path class="cls-1" d="M30,32.25l-.25-.1-5.79-3q-3.19-1.65-6.4-3.29l-2.09-1.1c-.11,0-.26-.09-.25-.24s.15-.19.27-.26c1.41-.73,2.82-1.45,4.22-2.2a.7.7,0,0,1,.71,0c1.74.92,3.49,1.82,5.24,2.72,1.34.7,2.68,1.39,4,2.1a.71.71,0,0,0,.69,0l8.14-4.22c.39-.2.79-.4,1.18-.62a.47.47,0,0,1,.5,0c1.47.77,3,1.53,4.43,2.29.28.15.28.29,0,.44l-2.93,1.52-6.77,3.51-4.64,2.41A1.84,1.84,0,0,1,30,32.25Z"/><path class="cls-1" d="M20.15,29.69l.2.08,9.28,4.83a.79.79,0,0,0,.76,0l9.22-4.8a.57.57,0,0,1,.59,0L44.52,32c.11.06.27.11.27.26s-.17.19-.28.25L36.2,36.85l-5.91,3.07a.56.56,0,0,1-.56,0c-2.15-1.13-4.3-2.24-6.45-3.35l-6.39-3.31-1.48-.77c-.28-.16-.29-.27,0-.43.89-.48,1.79-.94,2.69-1.4l1.72-.89A.59.59,0,0,1,20.15,29.69Z"/><path class="cls-1" d="M35,3.07a5.48,5.48,0,0,0-6-3A5.26,5.26,0,0,0,25,3a4.92,4.92,0,0,0-.57,3.25,13.67,13.67,0,0,0,1.23,3.34,58.14,58.14,0,0,0,2.91,5.09,2.76,2.76,0,0,0,.6.83h0a3.55,3.55,0,0,0,.51.86c.22.33.37.32.59,0,.54-.81,1.07-1.63,1.58-2.47a40.46,40.46,0,0,0,3.26-6.22A5.27,5.27,0,0,0,35,3.07ZM30,8.48a3,3,0,1,1,3-3A3,3,0,0,1,30,8.48Z"/><line class="cls-2" x1="20.21" y1="80.47" y2="80.47"/><line class="cls-2" x1="60" y1="80.47" x2="39.79" y2="80.47"/><path class="cls-3" d="M25.21,79.58h3.88V75.67h1.78v3.91h3.92v1.77H30.87v3.91H29.09V81.35H25.21Z"/></g></g></svg>