<?xml version="1.0" encoding="utf-8"?>
<!-- Generator: Adobe Illustrator 25.0.1, SVG Export Plug-In . SVG Version: 6.00 Build 0)  -->
<svg version="1.1" id="Layer_1" xmlns="http://www.w3.org/2000/svg" xmlns:xlink="http://www.w3.org/1999/xlink" x="0px" y="0px"
	 viewBox="0 0 60 85.3" style="enable-background:new 0 0 60 85.3;" xml:space="preserve">
<style type="text/css">
	.st0{fill:#B3B3B3;}
</style>
<g id="Layer_2_1_">
	<g id="layer">
		<g id="layer-2">
			<path class="st0" d="M35,33.7V25h1.3v0.4c0,3.9,0,7.8,0,11.7c0.1,1.5-1,2.7-2.5,2.8c-0.1,0-0.2,0-0.3,0c-6.1,0-12.3,0-18.4,0
				c-1.4,0.1-2.6-1-2.6-2.4c0-0.1,0-0.2,0-0.2V2.7c-0.1-1.2,0.8-2.4,2-2.6C14.7,0,14.9,0,15.1,0h18.5c1.4-0.1,2.5,0.9,2.6,2.3
				c0,0.1,0,0.2,0,0.3c0,3.7,0,7.3,0,11c0,0.1,0,0.1,0,0.2H35v-0.4c0-2.2,0-4.4,0-6.6c0-0.3-0.1-0.4-0.4-0.4c-6.8,0-13.6,0-20.4,0
				h-0.4v27.4H35z M13.8,5H35V2.7c0.1-0.7-0.4-1.4-1.1-1.5c-0.1,0-0.3,0-0.4,0H15c-0.6,0-1,0.4-1.1,1C13.9,3.2,13.9,4,13.8,5L13.8,5
				z M35,35H13.8v2.2c0,1,0.5,1.5,1.5,1.5h18.3c0.7,0.1,1.3-0.4,1.4-1.1c0,0,0,0,0,0C35,36.7,35,35.9,35,35z"/>
			<path class="st0" d="M32.1,15c0,0.5-0.3,1-0.6,1.3c-0.3,0.3-0.3,0.7,0,1c0.1,0.1,0.3,0.2,0.5,0.2c0.2,0,0.5,0.1,0.7,0.1
				c0.6,0.2,1.1,0.7,1.1,1.4c0,0.7,0,1.3,0,2c0,0.7-0.5,1.3-1.2,1.4c-0.2,0-0.4,0.1-0.6,0.1c-0.6,0.1-0.8,0.5-0.4,1
				c0.1,0.1,0.2,0.3,0.4,0.5c0.4,0.6,0.4,1.3-0.1,1.9c-0.4,0.5-0.9,1-1.4,1.4c-0.5,0.5-1.3,0.6-1.9,0.1l-0.3-0.2
				c-0.5-0.4-0.6-0.4-1.1,0c-0.1,0.1-0.1,0.1-0.1,0.2c-0.1,0.3-0.1,0.6-0.1,0.8c-0.1,0.7-0.7,1.2-1.4,1.2c-0.6,0-1.3,0-1.9,0
				c-0.7,0-1.4-0.5-1.5-1.2c0-0.2-0.1-0.4-0.1-0.6c0-0.3-0.1-0.5-0.4-0.6c0,0,0,0,0,0c-0.1,0-0.3,0-0.4,0.1c-1.4,1-1.7,1-3-0.2
				c-0.3-0.3-0.5-0.5-0.8-0.8c-0.6-0.5-0.7-1.4-0.2-2c0.1-0.1,0.1-0.2,0.2-0.3c0.4-0.3,0.2-0.7,0-1.1c-0.1-0.1-0.2-0.1-0.3-0.2
				c-0.3-0.1-0.5-0.1-0.8-0.1c-0.6-0.1-1.1-0.6-1.2-1.3c-0.1-0.8-0.1-1.6,0-2.4c0.1-0.5,0.4-0.9,0.9-1c0.3-0.1,0.6-0.2,0.9-0.2
				c0.2,0,0.5-0.1,0.5-0.4c0.1-0.2,0.1-0.4-0.1-0.6c-0.2-0.2-0.3-0.4-0.4-0.6c-0.4-0.5-0.3-1.3,0.1-1.8c0.5-0.5,1-1,1.5-1.5
				c0.4-0.5,1.2-0.6,1.8-0.2c0,0,0.1,0,0.1,0.1c0.1,0.1,0.2,0.1,0.3,0.2c0.2,0.3,0.7,0.4,1,0.1c0,0,0,0,0,0c0.1-0.1,0.2-0.2,0.3-0.3
				c0-0.1,0.1-0.3,0.1-0.4c0.2-1.2,0.6-1.6,1.9-1.6h1.4c0.8-0.1,1.5,0.5,1.6,1.3c0,0,0,0.1,0,0.1c0,0.2,0,0.3,0.1,0.5
				c0,0.3,0.2,0.6,0.6,0.6c0.2,0,0.3-0.1,0.4-0.2c0.1-0.1,0.3-0.2,0.4-0.3c0.6-0.5,1.5-0.5,2.1,0.1l1.2,1.2
				C31.9,14.2,32.1,14.6,32.1,15z M29.8,16.5c0.3-0.4,0.6-0.9,0.9-1.3c0.1-0.1,0.2-0.3,0.1-0.4c0,0,0,0-0.1-0.1l-1.2-1.1
				c-0.1-0.1-0.3-0.2-0.5,0c0,0,0,0,0,0c-0.3,0.3-0.7,0.5-1,0.8c-0.2,0.1-0.4,0.1-0.5,0c-0.5-0.2-0.9-0.3-1.4-0.5
				c-0.1-0.1-0.2-0.2-0.3-0.3c-0.1-0.5-0.2-0.9-0.2-1.4c0-0.2-0.1-0.3-0.3-0.3c-0.5,0-1.1,0-1.7,0c-0.2,0-0.3,0.1-0.4,0.3
				c-0.1,0.5-0.1,0.9-0.3,1.4c0,0.1-0.1,0.3-0.3,0.3c-0.5,0.2-1,0.4-1.5,0.6c-0.2,0.1-0.4,0.1-0.5,0c-0.3-0.3-0.7-0.5-1.1-0.8
				c-0.1-0.2-0.4-0.2-0.5,0c0,0,0,0,0,0c-0.3,0.4-0.7,0.7-1.1,1.1c-0.2,0.2-0.2,0.4,0,0.6s0.5,0.7,0.8,1c0.1,0.2,0.2,0.4,0,0.5
				c-0.2,0.4-0.4,0.9-0.5,1.3c-0.1,0.1-0.2,0.3-0.4,0.3c-0.4,0.1-0.9,0.2-1.3,0.2c-0.3,0-0.4,0.1-0.4,0.4c0,0.5,0,1.1,0,1.6
				c0,0.2,0.1,0.4,0.3,0.4c0,0,0.1,0,0.1,0c0.4,0,0.9,0.1,1.3,0.2c0.2,0.1,0.3,0.2,0.4,0.3c0.2,0.5,0.4,1,0.6,1.5
				c0.1,0.2,0.1,0.4,0,0.5c-0.3,0.4-0.5,0.7-0.8,1.1c-0.1,0.1-0.2,0.3-0.1,0.4c0,0,0,0,0.1,0.1c0.4,0.4,0.8,0.7,1.1,1.1
				c0.1,0.1,0.3,0.2,0.5,0.1c0,0,0,0,0.1-0.1c0.3-0.3,0.7-0.5,1-0.8c0.2-0.1,0.4-0.2,0.6,0c0.4,0.2,0.8,0.4,1.3,0.5
				c0.2,0,0.4,0.2,0.4,0.4c0,0.4,0.1,0.8,0.2,1.3c0,0.2,0.1,0.3,0.3,0.4c0,0,0,0,0.1,0h1.6c0.2,0,0.4-0.1,0.4-0.3
				c0.1-0.5,0.1-0.9,0.2-1.3c0-0.2,0.1-0.3,0.3-0.4c0.5-0.2,1-0.4,1.5-0.6c0.1-0.1,0.3-0.1,0.4,0c0.4,0.2,0.7,0.5,1.1,0.8
				c0.1,0.1,0.3,0.2,0.4,0.1c0,0,0,0,0.1-0.1c0.4-0.4,0.7-0.8,1.1-1.1c0.2-0.2,0.2-0.4,0-0.6c-0.3-0.3-0.5-0.7-0.8-1
				c-0.1-0.1-0.1-0.3,0-0.4c0.2-0.5,0.4-0.9,0.5-1.4c0-0.2,0.2-0.3,0.4-0.3l1.3-0.2c0.2,0,0.4-0.1,0.4-0.4c0-0.5,0-1,0-1.5
				c0-0.2-0.1-0.4-0.3-0.4c0,0-0.1,0-0.1,0c-0.5,0-0.9-0.1-1.4-0.2c-0.1,0-0.2-0.1-0.3-0.2C30.3,17.8,30,17.2,29.8,16.5L29.8,16.5z"
				/>
			<path class="st0" d="M41.9,20H37c-0.5,0-0.8-0.2-0.8-0.6s0.3-0.6,0.8-0.6h9.7c0.3,0,0.6,0.1,0.7,0.4c0.1,0.2,0.1,0.4,0,0.6
				C47.2,19.9,47,20,46.8,20C45.2,20,43.5,20,41.9,20z"/>
			<path class="st0" d="M39.4,23.8h-3.5c-0.2,0-0.3,0-0.5-0.1c-0.2-0.1-0.3-0.3-0.4-0.5c0-0.2,0.2-0.4,0.3-0.6
				c0.1-0.1,0.3-0.1,0.4-0.1c2.4,0,4.8,0,7.1,0c0.6,0,1,0.4,0.8,0.9c-0.1,0.3-0.4,0.4-0.7,0.4L39.4,23.8z"/>
			<path class="st0" d="M39.4,15H43c0.5,0,0.8,0.2,0.8,0.6s-0.3,0.6-0.8,0.6h-7.3c-0.3,0-0.6-0.1-0.7-0.4c-0.1-0.2,0-0.4,0.1-0.6
				c0.2-0.1,0.4-0.2,0.6-0.2L39.4,15z"/>
			<path class="st0" d="M24.4,3.8H22c-0.5,0-0.7-0.2-0.7-0.6s0.3-0.6,0.7-0.6h4.8c0.5,0,0.7,0.2,0.7,0.6s-0.3,0.6-0.7,0.6H24.4z"/>
			<path class="st0" d="M24.4,37.5h-2.8c-0.2,0-0.4,0-0.5-0.1c-0.3-0.1-0.4-0.3-0.4-0.6c0,0,0,0,0,0c0.1-0.2,0.2-0.4,0.4-0.5
				c0.1-0.1,0.3-0.1,0.4-0.1h5.9c0.1,0,0.3,0,0.4,0.1c0.2,0.2,0.4,0.4,0.4,0.6c-0.1,0.2-0.2,0.4-0.4,0.6c-0.1,0.1-0.3,0.1-0.5,0.1
				H24.4z"/>
			<path class="st0" d="M24.4,23.9c-2.1,0-3.9-1.7-3.9-3.9c0,0,0,0,0,0l0,0c0-2.1,1.8-3.9,3.9-3.9c2.1,0,3.9,1.7,3.9,3.9
				S26.5,23.9,24.4,23.9L24.4,23.9z M24.4,22.6c1.4,0,2.6-1.2,2.6-2.6s-1.2-2.6-2.6-2.6s-2.6,1.2-2.6,2.6c0,0,0,0,0,0l0,0
				C21.8,21.4,22.9,22.6,24.4,22.6L24.4,22.6z"/>
		</g>
	</g>
</g>
</svg>
