<?xml version="1.0" encoding="utf-8"?>
<!-- Generator: Adobe Illustrator 25.0.1, SVG Export Plug-In . SVG Version: 6.00 Build 0)  -->
<svg version="1.1" id="Layer_1" xmlns="http://www.w3.org/2000/svg" xmlns:xlink="http://www.w3.org/1999/xlink" x="0px" y="0px"
	 viewBox="0 0 60 85.3" style="enable-background:new 0 0 60 85.3;" xml:space="preserve">
<style type="text/css">
	.st0{fill:#B3B3B3;}
</style>
<g id="Layer_2_1_">
	<g id="layer">
		<g id="layer-2">
			<path class="st0" d="M20.1,33.6v1.8h-1.8v1.6h-1.8V0h1.8v1.9h1.9v1.8h-1.9v30L20.1,33.6L20.1,33.6z"/>
			<path class="st0" d="M33.9,27.8h-1.8v-4.2h7.7c0-0.6-0.1-1.2-0.1-1.8h2.2v1.7h1.7v1.8h-9.6L33.9,27.8L33.9,27.8z"/>
			<path class="st0" d="M37.5,38.3c0-0.5,0-1,0-1.5s0-1.3,0-2h-1.8v-3.5h1.8v3.4h1.8v3.5H37.5z"/>
			<path class="st0" d="M32.7,38.2h4.8l0,0V40h-4.8L32.7,38.2L32.7,38.2z"/>
			<path class="st0" d="M31.5,14.4l-1.2,0.1h-0.9v-1.8h-2v-1.9h2v1.8h2.1C31.4,13.3,31.4,13.9,31.5,14.4L31.5,14.4z"/>
			<path class="st0" d="M25.5,28.3v1.8h-1.8v1.8h-1.8v-1.8h1.8v-1.8L25.5,28.3L25.5,28.3z"/>
			<path class="st0" d="M23.7,7.2h-1.8V5.5h-1.8V3.6h1.8v1.9h1.8L23.7,7.2L23.7,7.2z"/>
			<path class="st0" d="M32.8,38.2h-1.8v-2.5c0-0.3,0-0.5,0-0.8h1.9L32.8,38.2L32.8,38.2z"/>
			<path class="st0" d="M33.9,27.8h1.7v3.4h-1.8v-0.7C33.9,29.6,33.9,28.7,33.9,27.8C33.9,26.4,33.9,27.8,33.9,27.8z"/>
			<path class="st0" d="M29.2,31.5l1.2,0c0.2,0,0.3,0,0.5,0c0,0.1,0,0.2,0,0.3v2.9c0,0.1,0,0.2,0,0.2h-1.7L29.2,31.5L29.2,31.5z"/>
			<path class="st0" d="M29.2,31.5l-1.9,0.1v-3.2h1.9V31.5L29.2,31.5z"/>
			<path class="st0" d="M37.6,19.9h2.2l-0.1,1.9l0,0h-1.5h-0.6V19.9L37.6,19.9z"/>
			<path class="st0" d="M35.6,18.2H34h-0.5v-1.9h2L35.6,18.2L35.6,18.2z"/>
			<path class="st0" d="M33.5,16.3h-2.1v-1.9l0,0c0.3,0,0.5,0.1,0.8,0.1c0.4,0,0.8,0,1.2,0L33.5,16.3L33.5,16.3z"/>
			<path class="st0" d="M37.6,19.9h-2.1v-1.8h2.1L37.6,19.9L37.6,19.9z"/>
			<path class="st0" d="M25.6,9.1h-1.9V7.2h1.8L25.6,9.1L25.6,9.1z"/>
			<path class="st0" d="M25.5,28.3v-1.8h1.7v1.8H25.5L25.5,28.3z"/>
			<path class="st0" d="M20.1,33.6v-1.7h1.8v1.8L20.1,33.6L20.1,33.6z"/>
			<path class="st0" d="M27.3,10.9h-0.9h-0.9V9.1h1.7L27.3,10.9L27.3,10.9z"/>
		</g>
	</g>
</g>
</svg>
