<svg xmlns="http://www.w3.org/2000/svg" viewBox="0 0 60 81.1"><defs><style>.cls-1{fill:#b3b3b3;}.cls-2{fill:none;stroke:#0c6d72;stroke-miterlimit:10;stroke-width:2px;}.cls-3{fill:#0c6d72;}</style></defs><title>rack-dim</title><g id="Layer_2" data-name="Layer 2"><g id="layer"><path class="cls-1" d="M13.49,31.69H12V9.16h1.52v1.36h25V9.08H40V31.69H38.49v-1.4h-25Zm0-12.07h24.9V12.09H13.53Zm0,1.56V28.7H38.43V21.18Z"/><path class="cls-1" d="M21.35,4.55V9.49H15.5V4.55Z"/><path class="cls-1" d="M22.89,9.49V5.93h4.24V9.49Z"/><path class="cls-1" d="M21.34,18.64H15.51v-5h5.83Z"/><path class="cls-1" d="M22.92,13.68h5.84v4.94H22.92Z"/><path class="cls-1" d="M34.58,18.64H30.32V15h4.26Z"/><path class="cls-1" d="M21.34,27.73H15.5V22.79h5.84Z"/><path class="cls-1" d="M28.77,22.79v4.93H22.91V22.79Z"/><path class="cls-1" d="M30.33,22.78h5.84v4.95H30.33Z"/><path class="cls-1" d="M47.16,11.63a8.11,8.11,0,0,1-3.41,3.5A1.25,1.25,0,0,1,42,14.68,1.29,1.29,0,0,1,42.43,13a11,11,0,0,0,1.42-1.1,5.26,5.26,0,0,0,1.09-6,5.14,5.14,0,0,0-4.83-3.28,5.21,5.21,0,0,0-5.09,3s0,.09-.1.25l1.66-.48c.58-.17.83,0,1,.55l.12.38c.21.74.09,1-.64,1.19L32.59,8.8c-.71.21-.93.08-1.14-.63-.45-1.51-.9-3-1.34-4.53-.19-.66-.07-.88.58-1.08,1.21-.37,1.26-.35,1.62.85l.31,1.07c.15-.2.25-.32.33-.45a7.74,7.74,0,0,1,7.51-4,7.63,7.63,0,0,1,6.93,5,7.91,7.91,0,0,1-.23,6.59"/><line class="cls-2" x1="20.21" y1="76.31" y2="76.31"/><line class="cls-2" x1="60" y1="76.31" x2="39.79" y2="76.31"/><path class="cls-3" d="M25.21,75.42h3.88V71.51h1.78v3.91h3.92v1.77H30.87V81.1H29.09V77.19H25.21Z"/></g></g></svg>