<?xml version="1.0" encoding="utf-8"?>
<!-- Generator: Adobe Illustrator 25.0.1, SVG Export Plug-In . SVG Version: 6.00 Build 0)  -->
<svg version="1.1" id="Layer_1" xmlns="http://www.w3.org/2000/svg" xmlns:xlink="http://www.w3.org/1999/xlink" x="0px" y="0px"
	 viewBox="0 0 60 85.3" style="enable-background:new 0 0 60 85.3;" xml:space="preserve">
<style type="text/css">
	.st0{fill:#B3B3B3;}
</style>
<g id="Layer_2_1_">
	<g id="layer">
		<g>
			<path class="st0" d="M39.2,40c-0.1-0.3-0.3-0.7-0.4-1c-0.2-0.7-0.3-1.2-1.2-1.3c-0.8-0.1-1,0.4-1.2,0.8c-0.5,0.8-1,0.7-1.7,0.3
				c-0.5-0.3-0.6-0.5-0.5-1.1c0.1-0.4,0.2-0.7,0.3-1.1c0-0.6-1-1.2-1.5-1c-1.6,0.6-1.6,0.6-2.4-1c0.3-0.3,0.5-0.6,0.8-0.9
				c0.4-0.4,0.7-0.7,0.4-1.4c-0.2-0.6-0.5-0.7-1.1-0.8c-0.5-0.1-1.3,0.1-1.3-0.9c-0.1-0.8,0.1-1.3,1-1.4c0.5-0.1,1.2-0.1,1.2-1
				c0-0.6,0-0.9-0.5-1.2c-0.3-0.2-0.6-0.5-1-0.9c0.1-0.2,0.2-0.4,0.3-0.6c0.3-0.8,0.8-1.1,1.6-0.8c0.5,0.2,1,0.3,1.5-0.3
				c0.5-0.5,0.3-0.9,0.1-1.4c-0.4-1.1-0.4-1.1,1-2c0.9,0.1,1,1.6,2.2,1.2c1.3-0.4,0.6-1.6,1.2-2.3c0.2,0,0.4-0.1,0.7-0.1
				c0.8-0.2,1.2,0.1,1.3,1c0.1,0.5,0,1.1,0.8,1.2c0.7,0.1,1.1,0.1,1.5-0.5c0.2-0.3,0.5-0.6,0.8-0.9c0.2,0.1,0.4,0.2,0.6,0.2
				c0.9,0.3,1.2,0.8,0.8,1.7c-0.2,0.5-0.3,1,0.3,1.5c0.5,0.5,0.9,0.3,1.4,0.1c1.1-0.4,1.2-0.4,2,1.1c-0.2,0.3-0.5,0.6-0.7,0.8
				c-0.3,0.4-0.8,0.6-0.5,1.3c0.2,0.7,0.7,0.9,1.3,0.9c0.5,0,1.1,0.1,1.2,0.9c0,0.4,0,0.7,0,1.1c-0.5,0.2-0.9,0.4-1.4,0.5
				s-0.6,0.3-0.8,0.8c-0.3,0.9,0.3,1.2,0.8,1.6c0.5,0.4,0.5,0.7,0.3,1.3c-0.3,0.9-0.9,0.9-1.6,0.6c-0.6-0.2-1-0.2-1.5,0.3
				s-0.3,1-0.1,1.4c0.5,0.8,0.2,1.4-0.6,1.7c-0.2,0.1-0.3,0.2-0.4,0.2c-1-0.2-1.1-1.6-2.4-1.2c-1.3,0.4-0.6,1.6-1.1,2.3
				c-0.2,0.1-0.5,0.1-0.7,0.2C39.8,40,39.5,40,39.2,40z M39.5,24.1c-3.1,0-5.8,2.6-5.8,5.7c0,3.3,2.5,6,5.7,6c3.3,0,5.9-2.5,6-5.7
				C45.4,26.7,42.9,24.1,39.5,24.1z"/>
			<path class="st0" d="M24.6,15.8c-2.9-2-3.8-4.4-3-7c0.8-2.4,3-4,5.4-4c2.5,0,4.8,1.7,5.5,4c0.8,2.7-0.1,5-2.8,6.9
				c1.3,0.8,2.7,1.6,4.3,2.5c-0.7,0.5-1.1,0.8-1.5,1c-0.2,0.1-0.6-0.1-0.8-0.2c-4.5-3.3-10.6-1.2-12,4.2c-0.1,0.3-0.1,0.6-0.2,1
				c1.6,0,3.1,0,4.6,0s3,0,4.7,0c-0.4,0.7-0.7,1.3-1.1,1.8c-0.1,0.2-0.5,0.2-0.7,0.2c-2.7,0-5.5-0.1-8.2-0.1c-1,0-1.2-0.3-1.2-1.2
				c0-3.8,2.6-7.3,6.4-8.7C24.2,16,24.3,15.9,24.6,15.8z"/>
			<path class="st0" d="M42.1,29.9c0,1.4-1.2,2.4-2.6,2.4c-1.3,0-2.4-1.1-2.4-2.5c0-1.3,1.2-2.5,2.5-2.5
				C41,27.4,42.1,28.5,42.1,29.9z"/>
			<path class="st0" d="M25.3,31.6h-9.9c-2.7,0-5-2.2-5-5V5c0-2.7,2.2-5,5-5h22.8c2.7,0,5,2.2,5,5v10l-2-1.8V5c0-1.6-1.3-3-3-3H15.3
				c-1.6,0-3,1.3-3,3v21.7c0,1.6,1.3,3,3,3h8.2L25.3,31.6z"/>
		</g>
	</g>
</g>
</svg>
