<?xml version="1.0" encoding="utf-8"?>
<!-- Generator: Adobe Illustrator 25.0.1, SVG Export Plug-In . SVG Version: 6.00 Build 0)  -->
<svg version="1.1" id="Layer_1" xmlns="http://www.w3.org/2000/svg" xmlns:xlink="http://www.w3.org/1999/xlink" x="0px" y="0px"
	 viewBox="0 0 60 85.3" style="enable-background:new 0 0 60 85.3;" xml:space="preserve">
<style type="text/css">
	.st0{fill:#B3B3B3;}
</style>
<g id="Layer_2_1_">
	<g id="layer">
		<path class="st0" d="M30,0c11,0,20,9,20,20s-9,20-20,20s-20-9-20-20S19,0,30,0z M26.7,26.2h-0.2c-0.6,0.1-1.2-0.4-1.2-1
			c0-0.1,0-0.1,0-0.2v-6.7c0-0.6,0.4-1.2,1.1-1.2c0,0,0.1,0,0.1,0h7.4c0.6,0,1.2,0.4,1.2,1.1c0,0,0,0.1,0,0.1V25
			c0,0.6-0.4,1.2-1.1,1.2c0,0-0.1,0-0.1,0h-0.3c0,0.2,0.1,0.4,0.1,0.6c0,2.4,0,4.8,0,7.2c0,0.3-0.1,0.5-0.2,0.7l-0.1,0.1h8.3
			c0.1,0,0.2,0,0.3-0.1c0.9-0.7,1.7-1.5,2.4-2.3c3.7-4.2,5.3-9.9,4.3-15.5c-0.6-3.6-2.2-6.9-4.6-9.6c-4.5-4.9-11.2-7.1-17.8-5.8
			c-4.1,0.8-7.8,3-10.5,6.2c-3.8,4.3-5.4,10.2-4.3,15.8c0.8,4.4,3.2,8.4,6.7,11.2c0.1,0.1,0.2,0.1,0.3,0.1H27
			c-0.3-0.3-0.4-0.7-0.3-1.1v-6.4C26.6,26.9,26.7,26.6,26.7,26.2z M19.1,35.4c6.5,4.7,15.3,4.7,21.9,0H19.1z"/>
		<path class="st0" d="M19.7,25.7c-0.2,0-0.4,0-0.5,0c-0.5-0.1-0.9-0.5-0.9-1v-6.5c0-0.6,0.4-1,0.9-1c0,0,0,0,0.1,0
			c1.8,0,3.6,0,5.5,0c0,0,0,0,0,0.1c-0.3,0.3-0.4,0.7-0.4,1.1c0,2.3,0,4.7,0,7c0,0.6,0.8,1.5,1.4,1.4h0.1c0,0.1,0,0.1,0,0.2
			c0,2.3,0,4.6,0,6.9c0,0.2-0.1,0.3-0.2,0.3c-0.1,0-0.2,0-0.4,0h-4.4c-0.6,0-1.1-0.4-1.1-1c0,0,0,0,0-0.1c0-2.3,0-4.5,0-6.8
			C19.7,26,19.7,25.9,19.7,25.7z"/>
		<path class="st0" d="M34.5,26.7c0.7,0,1.3-0.5,1.5-1.1c0-0.1,0-0.2,0-0.3V18c0-0.4-0.2-0.7-0.5-0.9h0.2h4.9c0.6,0,1.1,0.5,1.1,1
			c0,0,0,0,0,0.1v6.4c0,0.6-0.5,1.1-1.1,1.1c0,0,0,0,0,0h-0.4c0.1,0.6,0.2,1.1,0.1,1.7c0,1.8,0,3.7,0,5.5c0.1,0.6-0.4,1.1-0.9,1.2
			c-0.1,0-0.2,0-0.2,0h-4.3c-0.4,0-0.4,0-0.4-0.4V26.7z"/>
		<path class="st0" d="M30,16.4c-1.8,0-3.2-1.4-3.2-3.1c0,0,0,0,0-0.1c0-1.8,1.4-3.2,3.2-3.2c1.8,0,3.2,1.4,3.2,3.2
			C33.2,14.9,31.8,16.3,30,16.4C30,16.4,30,16.4,30,16.4z"/>
		<path class="st0" d="M26.3,13.3c0,1.6-1.3,2.8-2.8,2.8c-1.6,0-2.8-1.3-2.8-2.8c0-1.5,1.3-2.8,2.8-2.8
			C25.1,10.5,26.3,11.7,26.3,13.3C26.3,13.3,26.3,13.3,26.3,13.3z"/>
		<path class="st0" d="M39.3,13.3c0,1.6-1.3,2.8-2.8,2.8c-1.6,0-2.8-1.3-2.8-2.8c0-1.6,1.3-2.8,2.8-2.8
			C38.1,10.5,39.3,11.7,39.3,13.3C39.3,13.3,39.3,13.3,39.3,13.3z"/>
		<path class="st0" d="M31.2,6.8h1v0.9h-3.1V6.8h1V4.6L29.3,5c-0.1,0-0.3,0.1-0.4,0.1v-1c0.4-0.1,0.8-0.4,1.2-0.7
			c0,0,0.1-0.1,0.1-0.1h1L31.2,6.8z"/>
		<path class="st0" d="M27.5,6.3h-0.9V5.4h-0.8V4.6h0.8V3.8h0.9v0.8h0.8v0.8h-0.8V6.3z"/>
	</g>
</g>
</svg>
