<?xml version="1.0" encoding="utf-8"?>
<!-- Generator: Adobe Illustrator 25.0.1, SVG Export Plug-In . SVG Version: 6.00 Build 0)  -->
<svg version="1.1" id="Layer_1" xmlns="http://www.w3.org/2000/svg" xmlns:xlink="http://www.w3.org/1999/xlink" x="0px" y="0px"
	 viewBox="0 0 60 85.3" style="enable-background:new 0 0 60 85.3;" xml:space="preserve">
<style type="text/css">
	.st0{fill:#B3B3B3;}
</style>
<g id="Layer_2_1_">
	<g id="layer">
		<g id="FrbVCA_1_">
			<g>
				<path class="st0" d="M22.7,37.1c-0.6,0.9-1.2,1.8-1.8,2.6c-0.1,0.2-0.6,0.1-0.8,0.2c0.1-0.3,0-0.6,0.2-0.8
					c0.2-0.3,0.5-0.6,0.7-0.9c1-1.6,1-2.2-0.3-3.6c-1.8-1.8-2.8-3.8-3-6.3c0-0.3-0.1-0.5-0.1-0.8c-2.3-0.4-3.3-1.3-3.8-3.9
					c-0.3-1.9-0.8-3.9,1-5.3c-0.1-2-0.3-3.9-0.5-5.9c-0.4-4.1,1.6-7.1,4.7-9.3c3.9-2.8,8.4-3.4,13-3.1c3.9,0.3,7.5,1.5,10.5,4.2
					c2.2,2,3.6,4.4,3.3,7.6c-0.2,2.2-0.3,4.3-0.4,6.6c1.9,1.5,1.3,3.6,0.9,5.6c-0.5,2.4-1.6,3.3-3.6,3.5c-0.2,0.9-0.3,1.8-0.5,2.6
					c-0.5,1.8-1.5,3.4-2.9,4.7c-1.1,1.1-1.2,1.3-0.5,2.7c0.3,0.6,0.7,1,1.1,1.6c0.1,0.2,0.1,0.5,0.2,0.8c-0.3,0-0.7,0-0.8-0.2
					c-0.6-0.8-1.2-1.7-1.9-2.8c0,0.1,0,0.3-0.1,0.4c-1.1,1.5-2.5,2.4-4.4,2.5c-1.8,0.1-3.6,0.1-5.3,0C25.3,39.8,23.8,38.6,22.7,37.1
					z M42.6,19.7c-0.5-1.3-1-2.5-1.3-3.7c-0.4-1.6-0.8-3.1-1.2-4.7c-0.2-0.7-0.6-1-1.4-0.9c-3.7,0.6-7.4,0.9-11.2,0.5
					c-1.8-0.2-3.6-0.7-5.3-1.1c-1-0.2-1.7,0-2,1c-0.3,0.8-0.6,1.7-0.8,2.5c-0.7,2.1-0.9,4.4-2.3,6.3c1.2,1.3,2.4,2.5,3.6,3.8
					c0.4,0.5,0.9,0.6,1.5,0.4c0.9-0.4,1.9-0.6,2.9-1c3.1-1.1,6.2-1.3,9.3-0.1c1.1,0.4,2.3,0.8,3.5,1.1c0.3,0.1,0.9,0.1,1.1-0.2
					C40.3,22.2,41.5,20.9,42.6,19.7z M16.1,18.8c0.1,0,0.3,0,0.4,0c0.2-0.5,0.5-0.9,0.7-1.4c0.4-1.1,0.6-2.2,1-3.3
					c0.4-1.3,0.7-2.7,1.3-3.9c0.6-1.4,1.3-1.7,2.8-1.4c0.3,0.1,0.7,0.1,1,0.2c4.9,1.5,9.8,1.3,14.8,0.5c2.1-0.3,2.5-0.1,3.2,1.9
					c0.1,0.3,0.2,0.7,0.3,1.1c0.4,1.6,0.8,3.2,1.2,4.8c0.2,0.5,0.5,1,0.8,1.6c0.1,0,0.2,0,0.3,0c0.2-0.5,0.5-0.9,0.5-1.4
					c0.2-2.4,0.4-4.8,0.4-7.2c0-0.8-0.4-1.8-0.8-2.5c-1.4-2.5-3.5-4.1-6.1-5.2C34.1,1,30.1,0.8,26,1.5c-3.6,0.7-6.7,2.2-9,5.2
					c-0.9,1.2-1.7,2.4-1.7,3.9c0,2,0.1,4,0.2,5.9C15.5,17.2,15.9,18,16.1,18.8z M41.9,25.8c1.5,1,2.4,0.8,3-1
					c0.4-1.4,0.5-2.9,0.6-4.4c0-1.1-0.5-1.3-1.5-0.7c-0.2,0.1-0.3,0.2-0.5,0.4c-1.3,1.3-2.5,2.7-3.8,4c-0.2,0.2-0.4,0.4-0.4,0.7
					c0,1.3,0,2.5,0,3.8c0.1,0,0.2,0.1,0.2,0.1C40.3,27.7,41.1,26.8,41.9,25.8z M20.6,28.9c0.3-2.5,0.4-4.7-1.8-6.3
					c-0.9-0.6-1.5-1.5-2.2-2.3c-0.2-0.2-0.4-0.4-0.7-0.6c-0.9-0.5-1.4-0.3-1.3,0.7c0,1.5,0.1,3,0.5,4.4c0.6,1.9,1.5,2.1,3.2,0.9h0.1
					C18.6,27.1,19.8,27.7,20.6,28.9z M21.2,33.8c-0.2-2.2-0.5-4.3-2.6-5.6C18.7,30.4,19.6,32.2,21.2,33.8z M38.9,33.7
					c1.6-1.6,2.4-3.4,2.6-5.6C39.4,29.5,39,31.5,38.9,33.7z"/>
			</g>
		</g>
	</g>
</g>
</svg>
