<?xml version="1.0" encoding="utf-8"?>
<!-- Generator: Adobe Illustrator 25.0.1, SVG Export Plug-In . SVG Version: 6.00 Build 0)  -->
<svg version="1.1" id="Layer_1" xmlns="http://www.w3.org/2000/svg" xmlns:xlink="http://www.w3.org/1999/xlink" x="0px" y="0px"
	 viewBox="0 0 60 78.8" style="enable-background:new 0 0 60 78.8;" xml:space="preserve">
<style type="text/css">
	.st0{fill:#B3B3B3;}
</style>
<g id="Layer_2_1_">
	<g id="layer">
		<path class="st0" d="M23.3,15.4C18.8,15,10,17.2,10,21.6V27h26.6v-5.4C36.6,17.2,27.7,15.4,23.3,15.4z M23.2,13.4
			c3.7,0,6.6-3,6.6-6.7l0,0C29.9,3,27,0,23.3,0c0,0,0,0,0,0h-0.1c-3.7,0-6.6,3-6.6,6.6c0,0,0,0,0,0l0,0
			C16.6,10.3,19.6,13.3,23.2,13.4C23.2,13.3,23.2,13.3,23.2,13.4L23.2,13.4z M45.6,19.8v-6.4h-3v6.3H38l6,6.3l6-6.3L45.6,19.8z
			 M37.9,14.6V7.4h-4.6l6.1-6l5.9,6h-4.4v7.2L37.9,14.6z"/>
	</g>
</g>
</svg>
