<?xml version="1.0" encoding="utf-8"?>
<!-- Generator: Adobe Illustrator 25.0.1, SVG Export Plug-In . SVG Version: 6.00 Build 0)  -->
<svg version="1.1" id="Layer_1" xmlns="http://www.w3.org/2000/svg" xmlns:xlink="http://www.w3.org/1999/xlink" x="0px" y="0px"
	 viewBox="0 0 60 86.1" style="enable-background:new 0 0 60 86.1;" xml:space="preserve">
<style type="text/css">
	.st0{fill:#D26F17;}
</style>
<g id="Layer_2_1_">
	<g id="layer">
		<rect y="79.5" class="st0" width="20.2" height="2"/>
		<rect x="39.8" y="79.5" class="st0" width="20.2" height="2"/>
		<polygon class="st0" points="31.6,80.3 34.6,75.7 34.6,74.8 32.3,74.8 30,78.5 27.6,74.8 25.4,74.8 25.4,75.7 28.4,80.3 
			25.2,85.1 25.2,86.1 27.5,86.1 29.8,82.5 30,82.1 32.5,86.1 34.8,86.1 34.8,85.1 		"/>
		<g id="Layer_2_2_">
			<g id="Layer_1-2">
				<path class="st0" d="M15.1,0l5.2,2.6c2.2,1.1,4.5,2.2,6.7,3.3c0.2,0.1,0.4,0.3,0.4,0.6c0,4.1,0,8.2,0,12.2v0.5c0.5,0,1,0,1.6,0
					c0.5,0,0.8,0.2,0.8,0.8c0,0.5,0,0.9,0,1.4c0,0.3-0.2,0.7-0.5,0.7c-0.1,0-0.1,0-0.2,0c-0.5,0-1,0-1.6,0c0,0.8,0,1.5,0,2.3
					c0,0.3-0.1,0.6-0.3,0.9c-4,4.8-7.9,9.7-11.8,14.6c-0.3,0-0.4,0.1-0.5,0.1c-1.1,0-2.2,0-3.3,0c0-0.2,0-0.3,0-0.4V0.4
					c0-0.1,0-0.3,0-0.4H15.1z M16.6,2.5v33.2l0.1-0.2c3-3.7,5.9-7.3,8.9-11c0.1-0.2,0.2-0.3,0.2-0.5c0-5.5,0-11,0-16.5
					c0-0.2-0.1-0.5-0.3-0.6c-2.8-1.4-5.7-2.8-8.5-4.2L16.6,2.5"/>
				<path class="st0" d="M48.4,12.6c0,0.9,0,1.8,0,2.7c0.1,1.1-0.8,2.1-1.9,2.2h-0.1c-1.9,0.1-3.8,0-5.7,0c-1.1,0-1.9-0.9-1.9-2
					c0-1.9,0-3.8,0-5.7c0-1.1,0.9-2,2.1-2c1.9,0,3.7,0,5.6,0c1.1,0,2,0.9,2.1,2c0,0.1,0,0.1,0,0.2L48.4,12.6"/>
				<path class="st0" d="M38.7,21.1c0,0.7,0,1.3,0,2c0.1,0.8-0.5,1.6-1.4,1.6h-0.1c-1.4,0.1-2.8,0.1-4.3,0c-0.8,0-1.5-0.7-1.5-1.5
					l0,0c0-1.3,0-2.7,0-4c0-0.9,0.6-1.6,1.5-1.6H33c1.3,0,2.7,0,4,0c0.9,0,1.6,0.6,1.6,1.5c0,0.1,0,0.1,0,0.2
					C38.7,19.8,38.7,20.4,38.7,21.1"/>
				<path class="st0" d="M32,14.8c-0.6,0-1.1,0-1.7,0c-0.7,0-1.3-0.6-1.3-1.3c0,0,0,0,0-0.1c0-1.1,0-2.2,0-3.4
					c0-0.7,0.5-1.3,1.2-1.3l0,0c1.2,0,2.4,0,3.5,0c0.7,0,1.2,0.5,1.2,1.2l0,0c0,1.1,0,2.3,0,3.4c0,0.7-0.6,1.3-1.3,1.3h-0.1
					C33.1,14.8,32.6,14.8,32,14.8L32,14.8z"/>
				<path class="st0" d="M28.2,29.1c0-0.5,0-1.1,0-1.6c0-0.7,0.5-1.3,1.2-1.3h0.1c1.1,0,2.2,0,3.4,0c0.7,0,1.3,0.5,1.3,1.2l0,0
					c0.1,1.2,0.1,2.4,0,3.5c0,0.7-0.5,1.2-1.2,1.2h-0.1c-1.1,0-2.2,0-3.4,0c-0.7,0-1.3-0.5-1.3-1.3v-0.1
					C28.2,30.2,28.2,29.6,28.2,29.1"/>
				<path class="st0" d="M43.5,23.4c-0.3,0-0.6,0-0.9,0c-0.4,0-0.7-0.3-0.7-0.6l0,0c0-0.7,0-1.4,0-2.1c0-0.4,0.3-0.7,0.7-0.7l0,0
					c0.6,0,1.3,0,1.9,0c0.4,0,0.7,0.3,0.7,0.6l0,0c0,0.7,0,1.4,0,2.1c0,0.4-0.3,0.7-0.7,0.7l0,0C44.1,23.4,43.8,23.4,43.5,23.4z"/>
				<path class="st0" d="M40.3,4c0,0.3,0,0.6,0,0.9c0,0.4-0.3,0.8-0.7,0.8h-0.1c-0.6,0-1.2,0-1.8,0C37.3,5.7,37,5.4,37,5V4.9
					c0-0.6,0-1.2,0-1.8c0-0.4,0.3-0.8,0.7-0.8h0.1c0.6,0,1.2,0,1.8,0c0.4,0,0.7,0.3,0.7,0.7v0.1C40.3,3.4,40.3,3.7,40.3,4"/>
				<path class="st0" d="M39.6,26.1c0.2,0,0.5,0,0.7,0c0.3,0,0.6,0.2,0.7,0.6v0.1c0,0.5,0,1,0,1.5c0,0.4-0.2,0.7-0.6,0.7h-0.1h-1.4
					c-0.3,0-0.6-0.2-0.7-0.5v-0.1c0-0.5,0-1,0-1.6c0-0.3,0.2-0.6,0.6-0.6h0.1C39.1,26.1,39.4,26.1,39.6,26.1"/>
				<path class="st0" d="M25.6,15.6c0,0.4,0,0.9,0,1.3c0,0.6-0.4,1.1-1,1.2h-0.1c-0.9,0-1.8,0-2.7,0c-0.6,0-1.1-0.4-1.2-1V17
					c0-0.9,0-1.8,0-2.7c0-0.6,0.4-1.1,1-1.1h0.1c0.9,0,1.8,0,2.7,0c0.6,0,1.1,0.4,1.1,1v0.1C25.6,14.7,25.6,15.1,25.6,15.6z"/>
			</g>
		</g>
	</g>
</g>
</svg>
