<?xml version="1.0" encoding="utf-8"?>
<!-- Generator: Adobe Illustrator 25.0.1, SVG Export Plug-In . SVG Version: 6.00 Build 0)  -->
<svg version="1.1" id="Layer_1" xmlns="http://www.w3.org/2000/svg" xmlns:xlink="http://www.w3.org/1999/xlink" x="0px" y="0px"
	 viewBox="0 0 60 85.3" style="enable-background:new 0 0 60 85.3;" xml:space="preserve">
<style type="text/css">
	.st0{fill:#B3B3B3;}
</style>
<g id="Layer_2_1_">
	<g id="layer">
		<path class="st0" d="M51,0H9C6.3,0,4.2,2.1,4.2,4.8c0,0,0,0,0,0v30.4C4.2,37.8,6.3,40,9,40c0,0,0,0,0,0h42c2.7,0,4.8-2.2,4.8-4.8
			v0V4.8C55.8,2.2,53.7,0,51,0C51,0,51,0,51,0z M53.6,35.2c0,1.3-1.1,2.4-2.4,2.4H8.7c-1.3,0-2.4-1.1-2.4-2.4V11.3
			c0-1.3,1.1-2.4,2.4-2.4c0,0,0,0,0,0h42.5c1.3,0,2.4,1,2.4,2.3c0,0,0,0,0,0L53.6,35.2z"/>
		<path class="st0" d="M30,15.5c4.3,0,7.7,3.5,7.7,7.7c0,4.3-3.5,7.7-7.7,7.7c-4.3,0-7.7-3.5-7.7-7.7c0,0,0,0,0,0
			C22.3,19,25.7,15.5,30,15.5 M30,12.9c-5.7,0-10.3,4.6-10.3,10.3S24.3,33.5,30,33.5s10.3-4.6,10.3-10.3v0
			C40.3,17.5,35.7,12.9,30,12.9z"/>
		<path class="st0" d="M27.2,26.8v-7.2l7.3,3.5L27.2,26.8z"/>
	</g>
</g>
</svg>
