<?xml version="1.0" encoding="utf-8"?>
<!-- Generator: Adobe Illustrator 25.0.1, SVG Export Plug-In . SVG Version: 6.00 Build 0)  -->
<svg version="1.1" id="Layer_1" xmlns="http://www.w3.org/2000/svg" xmlns:xlink="http://www.w3.org/1999/xlink" x="0px" y="0px"
	 viewBox="0 0 353.1 62.5" style="enable-background:new 0 0 353.1 62.5;" xml:space="preserve">
<style type="text/css">
	.st0{fill:#E52033;}
	.st1{fill:#FFFFFF;}
</style>
<g>
	<circle class="st0" cx="132.2" cy="31.2" r="31.3"/>
	<path class="st1" d="M101,31.3c-2.9-1.1-6.4-2.9-8.5-4.8l1.5,4.3H0v1h94L92.5,36C94.6,34.1,98.2,32.3,101,31.3z"/>
	<path class="st1" d="M353.1,31.3c-2.8-1.1-6.3-2.9-8.5-4.8l1.5,4.3H163.5v1h182.6l-1.5,4.3C346.7,34.1,350.3,32.3,353.1,31.3z"/>
	<g>
		<path class="st1" d="M1.4,11.8h7.5V13H2.8v4h5.7v1.2H2.8v4.2H9v1.2H1.4V11.8z"/>
		<path class="st1" d="M10,15.1V15h1.5l2.2,6.2l0.4,1.3h0.2l0.4-1.3L17,15h1.4v0.2L15,23.6h-1.8L10,15.1z"/>
		<path class="st1" d="M23.1,23.7c-1.3,0-2.3-0.4-3-1.1s-1-1.8-1-3.3s0.3-2.6,1-3.4c0.7-0.8,1.6-1.2,2.9-1.2c2.2,0,3.3,1.3,3.3,3.9
			c0,0.5,0,0.9-0.1,1.1h-5.7c0.1,1,0.3,1.7,0.7,2.2c0.4,0.4,1.1,0.7,2,0.7c0.4,0,0.8,0,1.3-0.1s0.9-0.2,1.4-0.3l0.1,1.1
			c-0.4,0.2-0.9,0.3-1.4,0.4C24.1,23.7,23.6,23.7,23.1,23.7z M23,15.9c-1.5,0-2.4,1-2.5,2.9H25c0-1-0.2-1.8-0.5-2.2
			C24.2,16.1,23.7,15.9,23,15.9z"/>
		<path class="st1" d="M28.3,15h1.2l0.1,1h0.1c0.4-0.2,0.8-0.4,1.2-0.5c0.3-0.1,0.7-0.3,1-0.4c0.3-0.1,0.6-0.2,0.8-0.2
			c0.3,0,0.5-0.1,0.8-0.1c0.7,0,1.3,0.2,1.7,0.6s0.6,1,0.6,1.8v6.4h-1.4v-6c0-0.6-0.1-1-0.3-1.3s-0.6-0.4-1.1-0.4
			c-0.4,0-0.9,0.1-1.4,0.3c-0.5,0.2-1.1,0.4-1.7,0.7v6.7h-1.4V15H28.3z"/>
		<path class="st1" d="M41.3,23.7c-0.8,0-1.4-0.2-1.9-0.6c-0.4-0.4-0.6-1-0.6-1.8v-5.1H37V15h1.9l0.2-2.2l1.1-0.1V15h2.6v1.2h-2.5
			V21c0,0.5,0.1,0.9,0.4,1.2c0.2,0.3,0.6,0.4,1.1,0.4c0.2,0,0.3,0,0.5,0s0.4-0.1,0.6-0.1v1.1c-0.2,0.1-0.5,0.1-0.8,0.2
			S41.6,23.7,41.3,23.7z"/>
		<path class="st1" d="M46.7,13.4L46.7,13.4l-2.8,1.4h-0.1l-0.2-0.8v-0.1l3.5-2.1h1.1v11.8h-1.4L46.7,13.4L46.7,13.4z"/>
	</g>
	<g>
		<path class="st1" d="M202.5,11.8h1.5l2.1,8.1l0.5,2.2h0.1l0.6-2.2l2.3-8.1h1.5l2.2,8.1l0.6,2.2h0.1l0.5-2.2l2.1-8.1h1.5l-3.3,11.8
			H213l-2.2-7.8l-0.5-2.1h-0.1l-0.5,2.1l-2.2,7.8h-1.9L202.5,11.8z"/>
		<path class="st1" d="M222.5,13h-3.8v-1.2h9.1V13h-3.8v10.6h-1.4V13z"/>
		<path class="st1" d="M233.9,19.2c-0.2,0-0.4,0-0.7,0c-0.2,0-0.5,0-0.7,0c-0.2,0-0.5,0-0.8,0s-0.6,0-0.9-0.1v4.4h-1.4V11.8
			c1-0.2,2-0.2,3-0.2c1.9,0,3.2,0.3,4.1,0.9c0.9,0.6,1.3,1.6,1.3,2.9c0,0.9-0.2,1.7-0.6,2.3c-0.4,0.6-1.1,1-2,1.2l3,4.7h-1.6
			L233.9,19.2z M232.7,18.1c0.7,0,1.2,0,1.7-0.1c0.5-0.1,0.8-0.3,1.1-0.5c0.3-0.2,0.5-0.5,0.6-0.8c0.1-0.3,0.2-0.7,0.2-1.2
			c0-0.9-0.3-1.6-0.9-2c-0.6-0.4-1.5-0.6-2.8-0.6c-0.3,0-0.6,0-0.9,0c-0.3,0-0.6,0.1-0.9,0.1v5c0.2,0,0.4,0.1,0.8,0.1
			C231.9,18.1,232.3,18.1,232.7,18.1z"/>
		<path class="st1" d="M240.5,23.7c-0.3,0-0.5-0.1-0.7-0.2c-0.2-0.1-0.2-0.4-0.2-0.7c0-0.3,0.1-0.5,0.2-0.7c0.2-0.1,0.4-0.2,0.7-0.2
			c0.3,0,0.5,0.1,0.7,0.2c0.2,0.1,0.2,0.4,0.2,0.6s-0.1,0.5-0.2,0.7C241,23.6,240.8,23.7,240.5,23.7z"/>
		<path class="st1" d="M243.8,11.8c1-0.2,2-0.2,3-0.2c1.9,0,3.2,0.3,4.1,1c0.9,0.7,1.3,1.7,1.3,3.1c0,1.4-0.4,2.5-1.3,3.1
			c-0.9,0.7-2.2,1-4,1c-0.2,0-0.5,0-0.8,0c-0.3,0-0.5,0-0.9,0v3.9h-1.4V11.8z M247.1,18.6c0.7,0,1.2-0.1,1.7-0.2
			c0.5-0.1,0.8-0.3,1.1-0.5c0.3-0.2,0.5-0.5,0.6-0.9c0.1-0.4,0.2-0.8,0.2-1.4c0-0.5-0.1-1-0.2-1.3c-0.1-0.4-0.4-0.7-0.6-0.9
			c-0.3-0.2-0.7-0.4-1.1-0.5c-0.5-0.1-1-0.2-1.7-0.2c-0.3,0-0.6,0-0.9,0s-0.6,0.1-0.9,0.1v5.6c0.1,0,0.2,0,0.3,0.1
			c0.1,0,0.3,0,0.5,0c0.2,0,0.3,0,0.5,0C246.7,18.6,246.9,18.6,247.1,18.6z"/>
		<path class="st1" d="M258.8,23.8c-0.8,0-1.6-0.1-2.2-0.3s-1.1-0.5-1.5-0.9s-0.7-0.9-0.8-1.5c-0.2-0.6-0.3-1.4-0.3-2.2v-7.1h1.4v7
			c0,1.3,0.3,2.3,0.8,2.9c0.6,0.6,1.4,0.9,2.5,0.9s1.9-0.3,2.5-0.9c0.5-0.6,0.8-1.5,0.8-2.9v-7h1.4v7.1c0,0.9-0.1,1.6-0.3,2.2
			c-0.2,0.6-0.5,1.1-0.8,1.5c-0.4,0.4-0.9,0.7-1.5,0.9S259.6,23.8,258.8,23.8z"/>
		<path class="st1" d="M266.2,11.8h2l3,7.2l1,2.6h0.1l1-2.6l3-7.2h2v11.8h-1.3v-10h-0.1l-1.3,3.3l-2.6,6.2h-1.3l-2.6-6.2l-1.3-3.3
			h-0.1v10h-1.3V11.8z"/>
		<path class="st1" d="M281.6,23.7c-0.3,0-0.5-0.1-0.7-0.2c-0.2-0.1-0.2-0.4-0.2-0.7c0-0.3,0.1-0.5,0.2-0.7c0.2-0.1,0.4-0.2,0.7-0.2
			s0.5,0.1,0.7,0.2s0.2,0.4,0.2,0.6s-0.1,0.5-0.2,0.7C282.1,23.6,281.9,23.7,281.6,23.7z"/>
		<path class="st1" d="M284.9,11.8h1.2l6.1,8.3l0.9,1.4h0.1v-9.7h1.3v11.8h-1.2l-6.1-8.3l-0.9-1.4l-0.1,0v9.6h-1.3V11.8z"/>
		<path class="st1" d="M301.3,23.8c-1.5,0-2.6-0.5-3.3-1.5c-0.8-1-1.1-2.5-1.1-4.6c0-2,0.4-3.5,1.1-4.6s1.9-1.5,3.3-1.5
			c1.4,0,2.5,0.5,3.3,1.5s1.1,2.5,1.1,4.6c0,2-0.4,3.5-1.1,4.6C303.8,23.3,302.7,23.8,301.3,23.8z M301.3,22.6c1,0,1.8-0.4,2.2-1.2
			c0.5-0.8,0.7-2,0.7-3.7c0-1.7-0.2-2.9-0.7-3.7c-0.5-0.8-1.2-1.2-2.2-1.2c-1,0-1.8,0.4-2.3,1.2c-0.5,0.8-0.8,2-0.8,3.7
			c0,1.7,0.2,2.9,0.7,3.7C299.5,22.2,300.2,22.6,301.3,22.6z"/>
		<path class="st1" d="M309.9,23.8c-0.4,0-0.8,0-1.3-0.1c-0.4,0-0.8-0.1-1.2-0.2v-1.1h0.1c0.1,0,0.3,0.1,0.5,0.1
			c0.2,0,0.4,0,0.6,0.1c0.2,0,0.4,0,0.6,0s0.4,0,0.5,0c2,0,3-0.8,3-2.3c0-0.7-0.2-1.3-0.7-1.6c-0.5-0.4-1.2-0.5-2.2-0.5h-1.1V17h1
			c0.9,0,1.6-0.2,2-0.5c0.4-0.4,0.6-0.9,0.6-1.6c0-0.7-0.2-1.2-0.6-1.6c-0.4-0.4-1.1-0.5-2-0.5c-0.3,0-0.6,0-1,0.1
			c-0.4,0-0.8,0.1-1.3,0.2h-0.1l0-1.1c0.4-0.1,0.8-0.1,1.2-0.2c0.5,0,0.9-0.1,1.3-0.1c1.3,0,2.2,0.3,2.9,0.8c0.7,0.5,1,1.3,1,2.4
			c0,0.7-0.2,1.3-0.5,1.7c-0.3,0.5-0.8,0.8-1.4,1v0.1c0.7,0.1,1.3,0.5,1.6,1s0.6,1.1,0.6,1.9c0,1.1-0.4,1.9-1.1,2.5
			C312.3,23.5,311.3,23.8,309.9,23.8z"/>
	</g>
	<g>
		<path class="st1" d="M152.2,22.8c-1.7,0-3.5,0-5.2,0c0.1,0.2,0.1,0.3,0.2,0.4c5.5,10.1-0.4,22.6-11.7,24.8c-1,0.2-2.1,0.3-3.2,0.3
			c-6.6,0-13.1,0-19.7,0c-0.1,0-0.2,0-0.4,0c0-2.8,0-5.6,0-8.5c1.7,0,3.5,0,5.3,0c-0.1-0.2-0.1-0.3-0.2-0.4
			c-5.5-10.1,0.4-22.6,11.7-24.8c0.7-0.1,1.4-0.2,2.1-0.3c0.1,0,0.3,0,0.4-0.1c6.9,0,13.8,0,20.7,0
			C152.2,17.1,152.2,19.9,152.2,22.8z M114.2,46.2c0.1,0,0.3,0,0.4,0c5.9,0,11.7,0,17.6,0c0.9,0,1.8-0.1,2.6-0.2
			c8.9-1.5,14.4-10.6,11.7-19.2c-0.6-2-1.7-3.8-3-5.4c-0.1-0.2-0.3-0.3-0.4-0.6c2.4,0,4.7,0,7.1,0c0-1.5,0-3,0-4.5
			c-0.1,0-0.3,0-0.4,0c-5.9,0-11.7,0-17.6,0c-1.2,0-2.3,0.2-3.5,0.4c-5.8,1.3-10.5,6.4-11.4,12.2c-0.7,4.8,0.6,9,3.8,12.6
			c0.1,0.1,0.1,0.2,0.2,0.3c-2.5,0-4.9,0-7.3,0C114.2,43.3,114.2,44.7,114.2,46.2z"/>
		<path class="st1" d="M121.4,30.6c2,0,4,0,5.9,0c0.1-0.9,0.5-1.8,1.1-2.6c-0.1-0.1-0.2-0.2-0.3-0.3c-1.1-1.1-2.2-2.2-3.4-3.4
			c-0.2-0.2-0.2-0.3-0.1-0.6c0.9-1.3,2.1-2.1,3.5-2.6c1.5-0.6,3-0.7,4.5-0.7c0.1,0,0.1,0,0.2,0c0,1.9,0,3.8,0,5.8
			c1,0.1,1.8,0.5,2.6,1.2c1.3-1.3,2.6-2.6,3.9-3.9c0.8,0.5,1.4,1.1,2,1.8c1.1,1.5,1.5,3.3,1.7,5.1c0,0.5,0.1,1,0.1,1.5
			c-2,0-3.9,0-5.8,0c-0.4,0.8-0.7,1.7-1.1,2.5c1.2,1.2,2.5,2.5,3.9,3.9c-0.3,0.3-0.5,0.7-0.8,1c-1.2,1.3-2.8,2-4.6,2.4
			c-0.9,0.2-1.8,0.2-2.7,0.3c-0.1,0-0.3,0-0.4,0c0-0.2,0-0.4,0-0.5c0-1.7,0-3.4,0.1-5c0-0.3-0.1-0.4-0.4-0.4
			c-0.7-0.2-1.4-0.5-2.2-0.8c-1.2,1.2-2.6,2.5-3.9,3.9c-0.4-0.3-0.8-0.5-1.1-0.9c-1.3-1.2-2-2.8-2.3-4.5
			C121.5,32.7,121.5,31.7,121.4,30.6z M135.2,31.2c0-1.6-1.4-3-3-3c-1.7,0-3,1.3-3,3c0,1.6,1.4,3,3,3
			C133.9,34.3,135.2,32.9,135.2,31.2z"/>
		<path class="st1" d="M130.3,31.2c0-1.1,0.9-2,2-2c1,0,1.9,0.9,1.9,2c0,1.1-0.9,2-2,2C131.1,33.2,130.3,32.3,130.3,31.2z"/>
	</g>
</g>
</svg>
