<?xml version="1.0" encoding="utf-8"?>
<!-- Generator: Adobe Illustrator 25.0.1, SVG Export Plug-In . SVG Version: 6.00 Build 0)  -->
<svg version="1.1" id="Layer_1" xmlns="http://www.w3.org/2000/svg" xmlns:xlink="http://www.w3.org/1999/xlink" x="0px" y="0px"
	 viewBox="0 0 353.1 62.5" style="enable-background:new 0 0 353.1 62.5;" xml:space="preserve">
<style type="text/css">
	.st0{fill:#E52033;}
	.st1{fill:#FFFFFF;}
</style>
<g>
	<circle class="st0" cx="132.2" cy="31.2" r="31.3"/>
	<path class="st1" d="M101,31.3c-2.9-1.1-6.4-2.9-8.5-4.8l1.5,4.3H0v1h94L92.5,36C94.6,34.1,98.2,32.3,101,31.3z"/>
	<path class="st1" d="M353.1,31.3c-2.8-1.1-6.3-2.9-8.5-4.8l1.5,4.3H163.5v1h182.6l-1.5,4.3C346.7,34.1,350.3,32.3,353.1,31.3z"/>
	<g>
		<path class="st1" d="M1.4,11.8h7.5V13H2.8v4h5.7v1.2H2.8v4.2H9v1.2H1.4V11.8z"/>
		<path class="st1" d="M10,15.1V15h1.5l2.2,6.2l0.4,1.3h0.2l0.4-1.3L17,15h1.4v0.2L15,23.6h-1.8L10,15.1z"/>
		<path class="st1" d="M23.1,23.7c-1.3,0-2.3-0.4-3-1.1s-1-1.8-1-3.3s0.3-2.6,1-3.4c0.7-0.8,1.6-1.2,2.9-1.2c2.2,0,3.3,1.3,3.3,3.9
			c0,0.5,0,0.9-0.1,1.1h-5.7c0.1,1,0.3,1.7,0.7,2.2c0.4,0.4,1.1,0.7,2,0.7c0.4,0,0.8,0,1.3-0.1s0.9-0.2,1.4-0.3l0.1,1.1
			c-0.4,0.2-0.9,0.3-1.4,0.4C24.1,23.7,23.6,23.7,23.1,23.7z M23,15.9c-1.5,0-2.4,1-2.5,2.9H25c0-1-0.2-1.8-0.5-2.2
			C24.2,16.1,23.7,15.9,23,15.9z"/>
		<path class="st1" d="M28.3,15h1.2l0.1,1h0.1c0.4-0.2,0.8-0.4,1.2-0.5c0.3-0.1,0.7-0.3,1-0.4c0.3-0.1,0.6-0.2,0.8-0.2
			c0.3,0,0.5-0.1,0.8-0.1c0.7,0,1.3,0.2,1.7,0.6s0.6,1,0.6,1.8v6.4h-1.4v-6c0-0.6-0.1-1-0.3-1.3s-0.6-0.4-1.1-0.4
			c-0.4,0-0.9,0.1-1.4,0.3c-0.5,0.2-1.1,0.4-1.7,0.7v6.7h-1.4V15H28.3z"/>
		<path class="st1" d="M41.3,23.7c-0.8,0-1.4-0.2-1.9-0.6c-0.4-0.4-0.6-1-0.6-1.8v-5.1H37V15h1.9l0.2-2.2l1.1-0.1V15h2.6v1.2h-2.5
			V21c0,0.5,0.1,0.9,0.4,1.2c0.2,0.3,0.6,0.4,1.1,0.4c0.2,0,0.3,0,0.5,0s0.4-0.1,0.6-0.1v1.1c-0.2,0.1-0.5,0.1-0.8,0.2
			S41.6,23.7,41.3,23.7z"/>
		<path class="st1" d="M46.7,13.4L46.7,13.4l-2.8,1.4h-0.1l-0.2-0.8v-0.1l3.5-2.1h1.1v11.8h-1.4L46.7,13.4L46.7,13.4z"/>
	</g>
	<g>
		<path class="st1" d="M204.6,11.8c1-0.2,2-0.2,3-0.2c1.9,0,3.2,0.3,4.1,1c0.9,0.7,1.3,1.7,1.3,3.1c0,1.4-0.4,2.5-1.3,3.1
			c-0.9,0.7-2.2,1-4,1c-0.2,0-0.5,0-0.8,0c-0.3,0-0.5,0-0.9,0v3.9h-1.4V11.8z M207.8,18.6c0.7,0,1.2-0.1,1.7-0.2
			c0.5-0.1,0.8-0.3,1.1-0.5c0.3-0.2,0.5-0.5,0.6-0.9c0.1-0.4,0.2-0.8,0.2-1.4c0-0.5-0.1-1-0.2-1.3c-0.1-0.4-0.4-0.7-0.6-0.9
			c-0.3-0.2-0.7-0.4-1.1-0.5c-0.5-0.1-1-0.2-1.7-0.2c-0.3,0-0.6,0-0.9,0c-0.3,0-0.6,0.1-0.9,0.1v5.6c0.1,0,0.2,0,0.3,0.1
			c0.1,0,0.3,0,0.5,0c0.2,0,0.3,0,0.5,0C207.5,18.6,207.7,18.6,207.8,18.6z"/>
		<path class="st1" d="M219.6,23.8c-0.8,0-1.6-0.1-2.2-0.3c-0.6-0.2-1.1-0.5-1.5-0.9s-0.7-0.9-0.8-1.5c-0.2-0.6-0.3-1.4-0.3-2.2
			v-7.1h1.4v7c0,1.3,0.3,2.3,0.8,2.9c0.6,0.6,1.4,0.9,2.5,0.9s1.9-0.3,2.5-0.9c0.5-0.6,0.8-1.5,0.8-2.9v-7h1.4v7.1
			c0,0.9-0.1,1.6-0.3,2.2c-0.2,0.6-0.5,1.1-0.8,1.5c-0.4,0.4-0.9,0.7-1.5,0.9S220.4,23.8,219.6,23.8z"/>
		<path class="st1" d="M227,11.8h2l3,7.2l1,2.6h0.1l1-2.6l3-7.2h2v11.8h-1.3v-10h-0.1l-1.3,3.3l-2.6,6.2h-1.3l-2.6-6.2l-1.3-3.3
			h-0.1v10H227V11.8z"/>
		<path class="st1" d="M242.4,23.7c-0.3,0-0.5-0.1-0.7-0.2c-0.2-0.1-0.2-0.4-0.2-0.7c0-0.3,0.1-0.5,0.2-0.7c0.2-0.1,0.4-0.2,0.7-0.2
			s0.5,0.1,0.7,0.2s0.2,0.4,0.2,0.6s-0.1,0.5-0.2,0.7C242.9,23.6,242.6,23.7,242.4,23.7z"/>
		<path class="st1" d="M248.7,23.8c-0.3,0-0.6,0-0.9,0c-0.3,0-0.6-0.1-1-0.1c-0.3,0-0.7-0.1-1-0.2c-0.3-0.1-0.6-0.1-0.9-0.2v-1.2
			c0.6,0.2,1.3,0.3,1.9,0.4c0.7,0.1,1.2,0.1,1.7,0.1c0.9,0,1.6-0.2,2.1-0.5c0.5-0.3,0.7-0.8,0.7-1.5c0-0.4-0.1-0.7-0.2-0.9
			c-0.1-0.3-0.3-0.5-0.6-0.6c-0.2-0.2-0.5-0.3-0.9-0.4c-0.3-0.1-0.7-0.2-1.1-0.3c-0.6-0.2-1.2-0.4-1.6-0.6c-0.4-0.2-0.8-0.4-1.1-0.7
			s-0.5-0.6-0.6-0.9c-0.1-0.4-0.2-0.8-0.2-1.2c0-0.5,0.1-0.9,0.3-1.3c0.2-0.4,0.5-0.7,0.8-1c0.4-0.3,0.8-0.5,1.3-0.7
			c0.5-0.2,1.1-0.2,1.7-0.2c0.4,0,0.9,0,1.4,0.1c0.5,0.1,1.1,0.2,1.7,0.3l0,1.2c-0.5-0.1-1-0.2-1.6-0.3s-1-0.1-1.4-0.1
			c-0.8,0-1.5,0.2-2,0.5s-0.7,0.9-0.7,1.5c0,0.3,0,0.6,0.1,0.8s0.3,0.4,0.5,0.6c0.2,0.2,0.5,0.3,0.8,0.5s0.8,0.3,1.3,0.4
			c0.5,0.1,1,0.3,1.4,0.5c0.4,0.2,0.8,0.4,1.1,0.6c0.3,0.3,0.6,0.6,0.7,1c0.2,0.4,0.3,0.8,0.3,1.4c0,1.1-0.4,1.9-1.1,2.4
			C251.1,23.5,250.1,23.8,248.7,23.8z"/>
		<path class="st1" d="M255,11.8h7.5v1.2h-6.1V17h5.7v1.2h-5.7v4.2h6.2v1.2H255V11.8z"/>
		<path class="st1" d="M264.8,11.8h1.2l6.1,8.3l0.9,1.4h0.1v-9.7h1.3v11.8h-1.2l-6.1-8.3l-0.9-1.4l-0.1,0v9.6h-1.3V11.8z"/>
		<path class="st1" d="M277.8,23.7c-0.3,0-0.5-0.1-0.7-0.2c-0.2-0.1-0.2-0.4-0.2-0.7c0-0.3,0.1-0.5,0.2-0.7c0.2-0.1,0.4-0.2,0.7-0.2
			s0.5,0.1,0.7,0.2s0.2,0.4,0.2,0.6s-0.1,0.5-0.2,0.7C278.3,23.6,278,23.7,277.8,23.7z"/>
		<path class="st1" d="M281.1,11.8h1.2l6.1,8.3l0.9,1.4h0.1v-9.7h1.3v11.8h-1.2l-6.1-8.3l-0.9-1.4l-0.1,0v9.6h-1.3V11.8z"/>
		<path class="st1" d="M297.4,23.8c-1.5,0-2.6-0.5-3.3-1.5c-0.8-1-1.1-2.5-1.1-4.6c0-2,0.4-3.5,1.1-4.6s1.9-1.5,3.3-1.5
			c1.4,0,2.5,0.5,3.3,1.5s1.1,2.5,1.1,4.6c0,2-0.4,3.5-1.1,4.6C300,23.3,298.9,23.8,297.4,23.8z M297.4,22.6c1,0,1.8-0.4,2.2-1.2
			c0.5-0.8,0.7-2,0.7-3.7c0-1.7-0.2-2.9-0.7-3.7s-1.2-1.2-2.2-1.2c-1,0-1.8,0.4-2.3,1.2c-0.5,0.8-0.8,2-0.8,3.7
			c0,1.7,0.2,2.9,0.7,3.7C295.7,22.2,296.4,22.6,297.4,22.6z"/>
		<path class="st1" d="M307.9,23.8c-1.4,0-2.5-0.5-3.2-1.4c-0.7-0.9-1.1-2.3-1.1-4.1c0-1.1,0.1-2,0.4-2.9s0.6-1.6,1.1-2.1
			c0.5-0.6,1-1,1.7-1.3s1.5-0.4,2.4-0.4c0.3,0,0.7,0,1,0.1c0.3,0,0.7,0.1,1.1,0.2l-0.1,1.1c-0.4-0.1-0.7-0.2-1.1-0.2
			s-0.6-0.1-0.9-0.1c-1.2,0-2.2,0.4-2.9,1.2s-1.1,2-1.2,3.5c0.4-0.4,0.9-0.6,1.5-0.8s1.1-0.3,1.6-0.3c0.6,0,1.1,0.1,1.6,0.2
			s0.9,0.4,1.2,0.7c0.3,0.3,0.6,0.7,0.8,1.1c0.2,0.4,0.3,0.9,0.3,1.4c0,0.6-0.1,1.2-0.3,1.6c-0.2,0.5-0.5,0.9-0.8,1.3
			s-0.8,0.6-1.3,0.8S308.5,23.8,307.9,23.8z M307.9,17.3c-0.5,0-1,0.1-1.5,0.3c-0.5,0.2-1,0.5-1.4,0.9c0,1.4,0.3,2.5,0.7,3.1
			c0.5,0.7,1.2,1,2.2,1c0.8,0,1.5-0.3,1.9-0.8c0.5-0.5,0.7-1.2,0.7-2.1c0-0.8-0.2-1.4-0.7-1.8C309.4,17.6,308.7,17.3,307.9,17.3z"/>
	</g>
	<g>
		<path class="st1" d="M137.7,51.8c-3.5,0-7,0-10.5,0c0-5.3,0-10.5,0-15.9c1,0,2.1,0,3.2,0c0-3.1,0-6.1,0-9.2c-1.9,0-3.9,0-5.9,0
			c0-1.4,0-2.6,0-3.9c5.3,0,10.6,0,15.9,0c0,1.3,0,2.4,0,3.8c-1.9,0-3.9,0-5.9,0c0,3.1,0,6.1,0,9.2c1,0,2.1,0,3.2,0
			C137.7,41.2,137.7,46.4,137.7,51.8z"/>
		<path class="st1" d="M117.9,34.7c-0.5,0.9-1,1.7-1.6,2.6c-4.8-3.1-6.5-7.7-6.6-13c0-5.5,1.7-10.2,6.6-13.4c0.4,0.5,0.6,1,0.9,1.4
			c0.2,0.4,0.5,0.8,0.7,1.2C110.9,17.4,111.1,30.7,117.9,34.7z"/>
		<path class="st1" d="M148,37.2c-0.5-0.9-1-1.6-1.6-2.5c3.9-2.6,5.2-6.4,5.2-10.7c0-4.3-1.2-8.1-5.2-10.7c0.5-0.8,1-1.6,1.6-2.6
			c4.1,2.5,5.9,6.3,6.5,10.8C155.4,28.3,152.7,34.7,148,37.2z"/>
		<path class="st1" d="M121.1,29.5c-0.5,0.8-1,1.6-1.5,2.4c-4.7-3.1-5-12.3,0.1-15.9c0.4,0.7,0.9,1.3,1.3,2c0.1,0.2,0.1,0.6-0.1,0.7
			C118.3,21.7,118.4,26.3,121.1,29.5z"/>
		<path class="st1" d="M143.2,18.3c0.5-0.8,1-1.6,1.5-2.3c4.7,3.3,5,12.1,0.1,16c-0.5-0.8-1-1.6-1.5-2.4
			C146.1,25.8,146.2,22.1,143.2,18.3z"/>
	</g>
</g>
</svg>
