<?xml version="1.0" encoding="utf-8"?>
<!-- Generator: Adobe Illustrator 25.0.1, SVG Export Plug-In . SVG Version: 6.00 Build 0)  -->
<svg version="1.1" id="Layer_1" xmlns="http://www.w3.org/2000/svg" xmlns:xlink="http://www.w3.org/1999/xlink" x="0px" y="0px"
	 viewBox="0 0 353.1 62.5" style="enable-background:new 0 0 353.1 62.5;" xml:space="preserve">
<style type="text/css">
	.st0{fill:#E52033;}
	.st1{fill:#FFFFFF;}
</style>
<g>
	<circle class="st0" cx="132.2" cy="31.2" r="31.3"/>
	<path class="st1" d="M101,31.2c-2.9-1.1-6.4-2.9-8.5-4.8l1.5,4.3H0v1h94l-1.5,4.3C94.6,34.1,98.2,32.4,101,31.2z"/>
	<path class="st1" d="M353.1,31.2c-2.8-1.1-6.3-2.9-8.5-4.8l1.5,4.3H163.5v1h182.6l-1.5,4.3C346.7,34.1,350.3,32.4,353.1,31.2z"/>
	<g>
		<path class="st1" d="M1.4,11.8h7.5V13H2.8v4h5.7v1.2H2.8v4.2H9v1.2H1.4V11.8z"/>
		<path class="st1" d="M10,15.1V15h1.5l2.2,6.2l0.4,1.3h0.2l0.4-1.3L17,15h1.4v0.2L15,23.6h-1.8L10,15.1z"/>
		<path class="st1" d="M23.1,23.7c-1.3,0-2.3-0.4-3-1.1s-1-1.8-1-3.3s0.3-2.6,1-3.4c0.7-0.8,1.6-1.2,2.9-1.2c2.2,0,3.3,1.3,3.3,3.9
			c0,0.5,0,0.9-0.1,1.1h-5.7c0.1,1,0.3,1.7,0.7,2.2c0.4,0.4,1.1,0.7,2,0.7c0.4,0,0.8,0,1.3-0.1s0.9-0.2,1.4-0.3l0.1,1.1
			c-0.4,0.2-0.9,0.3-1.4,0.4C24.1,23.7,23.6,23.7,23.1,23.7z M23,15.9c-1.5,0-2.4,1-2.5,2.9H25c0-1-0.2-1.8-0.5-2.2
			C24.2,16.1,23.7,15.9,23,15.9z"/>
		<path class="st1" d="M28.3,15h1.2l0.1,1h0.1c0.4-0.2,0.8-0.4,1.2-0.5c0.3-0.1,0.7-0.3,1-0.4c0.3-0.1,0.6-0.2,0.8-0.2
			c0.3,0,0.5-0.1,0.8-0.1c0.7,0,1.3,0.2,1.7,0.6s0.6,1,0.6,1.8v6.4h-1.4v-6c0-0.6-0.1-1-0.3-1.3s-0.6-0.4-1.1-0.4
			c-0.4,0-0.9,0.1-1.4,0.3c-0.5,0.2-1.1,0.4-1.7,0.7v6.7h-1.4V15H28.3z"/>
		<path class="st1" d="M41.3,23.7c-0.8,0-1.4-0.2-1.9-0.6c-0.4-0.4-0.6-1-0.6-1.8v-5.1H37V15h1.9l0.2-2.2l1.1-0.1V15h2.6v1.2h-2.5
			V21c0,0.5,0.1,0.9,0.4,1.2c0.2,0.3,0.6,0.4,1.1,0.4c0.2,0,0.3,0,0.5,0s0.4-0.1,0.6-0.1v1.1c-0.2,0.1-0.5,0.1-0.8,0.2
			S41.6,23.7,41.3,23.7z"/>
		<path class="st1" d="M46.7,13.4L46.7,13.4l-2.8,1.4h-0.1l-0.2-0.8v-0.1l3.5-2.1h1.1v11.8h-1.4L46.7,13.4L46.7,13.4z"/>
	</g>
	<g>
		<path class="st1" d="M204.3,11.8h1.5l2.1,8.1l0.5,2.2h0.1l0.6-2.2l2.3-8.1h1.5l2.2,8.1l0.6,2.2h0.1l0.5-2.2l2.1-8.1h1.5l-3.3,11.8
			h-1.9l-2.2-7.8l-0.5-2.1H212l-0.5,2.1l-2.2,7.8h-1.9L204.3,11.8z"/>
		<path class="st1" d="M224.3,13h-3.8v-1.2h9.1V13h-3.8v10.6h-1.4V13z"/>
		<path class="st1" d="M235.7,19.2c-0.2,0-0.4,0-0.7,0c-0.2,0-0.5,0-0.7,0c-0.2,0-0.5,0-0.8,0s-0.6,0-0.9-0.1v4.4h-1.4V11.8
			c1-0.2,2-0.2,3-0.2c1.9,0,3.2,0.3,4.1,0.9s1.3,1.6,1.3,2.9c0,0.9-0.2,1.7-0.6,2.3c-0.4,0.6-1.1,1-2,1.2l3,4.7h-1.6L235.7,19.2z
			 M234.5,18.1c0.7,0,1.2,0,1.7-0.1c0.5-0.1,0.8-0.3,1.1-0.5c0.3-0.2,0.5-0.5,0.6-0.8s0.2-0.7,0.2-1.2c0-0.9-0.3-1.6-0.9-2
			c-0.6-0.4-1.5-0.6-2.8-0.6c-0.3,0-0.6,0-0.9,0c-0.3,0-0.6,0.1-0.9,0.1v5c0.2,0,0.4,0.1,0.8,0.1C233.7,18.1,234.1,18.1,234.5,18.1z
			"/>
		<path class="st1" d="M242.3,23.7c-0.3,0-0.5-0.1-0.7-0.2c-0.2-0.1-0.2-0.4-0.2-0.7c0-0.3,0.1-0.5,0.2-0.7c0.2-0.1,0.4-0.2,0.7-0.2
			s0.5,0.1,0.7,0.2s0.2,0.4,0.2,0.6s-0.1,0.5-0.2,0.7C242.8,23.6,242.6,23.7,242.3,23.7z"/>
		<path class="st1" d="M245.6,11.8h2l3,7.2l1,2.6h0.1l1-2.6l3-7.2h2v11.8h-1.3v-10h-0.1l-1.3,3.3l-2.6,6.2H251l-2.6-6.2l-1.3-3.3
			h-0.1v10h-1.3V11.8z"/>
		<path class="st1" d="M260.5,11.8h7.5v1.2h-6.1V17h5.7v1.2h-5.7v4.2h6.2v1.2h-7.7V11.8z"/>
		<path class="st1" d="M273,13h-3.8v-1.2h9.1V13h-3.8v10.6H273V13z"/>
		<path class="st1" d="M279.4,23.7c-0.3,0-0.5-0.1-0.7-0.2c-0.2-0.1-0.2-0.4-0.2-0.7c0-0.3,0.1-0.5,0.2-0.7c0.2-0.1,0.4-0.2,0.7-0.2
			s0.5,0.1,0.7,0.2s0.2,0.4,0.2,0.6s-0.1,0.5-0.2,0.7C279.9,23.6,279.7,23.7,279.4,23.7z"/>
		<path class="st1" d="M282.7,11.8h1.2L290,20l0.9,1.4h0.1v-9.7h1.3v11.8h-1.2l-6.1-8.3l-0.9-1.4l-0.1,0v9.6h-1.3V11.8z"/>
		<path class="st1" d="M299.1,23.8c-1.5,0-2.6-0.5-3.3-1.5c-0.8-1-1.1-2.5-1.1-4.6c0-2,0.4-3.5,1.1-4.6s1.9-1.5,3.3-1.5
			c1.4,0,2.5,0.5,3.3,1.5s1.1,2.5,1.1,4.6c0,2-0.4,3.5-1.1,4.6C301.6,23.3,300.5,23.8,299.1,23.8z M299.1,22.6c1,0,1.8-0.4,2.2-1.2
			c0.5-0.8,0.7-2,0.7-3.7c0-1.7-0.2-2.9-0.7-3.7c-0.5-0.8-1.2-1.2-2.2-1.2c-1,0-1.8,0.4-2.3,1.2c-0.5,0.8-0.8,2-0.8,3.7
			c0,1.7,0.2,2.9,0.7,3.7C297.3,22.2,298.1,22.6,299.1,22.6z"/>
		<path class="st1" d="M305.1,22c0-0.5,0.1-1,0.2-1.4c0.1-0.4,0.4-0.8,0.6-1.1s0.6-0.7,1.1-1c0.4-0.3,0.9-0.6,1.5-0.9
			c0.8-0.5,1.5-0.9,1.8-1.3c0.4-0.4,0.6-0.9,0.6-1.4c0-1.3-0.8-2-2.4-2c-0.4,0-0.9,0-1.4,0.1c-0.5,0.1-1,0.2-1.5,0.3l-0.2-1.2
			c0.6-0.1,1.2-0.3,1.7-0.3c0.5-0.1,1-0.1,1.5-0.1c2.4,0,3.6,1,3.6,3.1c0,0.4-0.1,0.8-0.2,1.1c-0.1,0.3-0.3,0.7-0.5,0.9
			s-0.5,0.6-0.9,0.8c-0.4,0.3-0.8,0.5-1.3,0.8c-1,0.6-1.7,1.1-2.1,1.6c-0.5,0.5-0.7,1-0.7,1.6v0.7h5.7v1.2h-7.2V22z"/>
	</g>
	<g>
		<path class="st1" d="M124.8,37.2c-0.7,1.4-1.7,2.6-3,3.3c-4.5,2.6-10.3-0.1-11.1-5.3c-0.3-1.6,0.1-3.2,0.7-4.7
			c1.4-3.3,3.4-6.3,5.7-9.1c0.3-0.4,0.6-0.8,1-1.2c0.4,0.6,0.9,1.1,1.3,1.6c1.9,2.4,3.6,4.9,4.9,7.6c0.8,1.7,1.5,3.4,1.3,5.3
			c0,0.2,0,0.5,0,0.7c0.4-0.9,0.5-1.9,0.5-2.9c-0.1-1.8-0.9-3.4-1.6-5c-0.2-0.4-0.4-0.7-0.6-1.1c0-0.1-0.1-0.3,0-0.4
			c1.3-2.2,2.7-4.4,4.1-6.5c0,0,0.1-0.1,0.2-0.1c0.7,0.8,1.5,1.7,2.2,2.5c1.5,1.9,2.9,4,3.9,6.2c0.8,1.7,1.1,3.5,0.5,5.4
			c-1.2,3.8-5.7,5.7-9.2,3.8C125.1,37.4,125,37.3,124.8,37.2z"/>
		<path class="st1" d="M131.4,53.8c-4.4-0.1-8.5-1.3-12.2-3.7c-2.1-1.3-3.9-3-5.4-4.9c-0.4-0.6-0.4-1.3,0.1-1.8
			c0.4-0.5,1.1-0.7,1.7-0.4c0.2,0.1,0.4,0.3,0.5,0.4c0.8,0.8,1.4,1.7,2.3,2.4c2.8,2.4,6,4.1,9.7,4.7c4.5,0.8,8.7,0.1,12.7-2.1
			c3.3-1.8,5.8-4.3,7.7-7.5c1.7-3,2.6-6.2,2.5-9.6c0-4.2-1.2-8.1-3.7-11.5c-3-4.1-7-6.7-11.9-7.6c-4.5-0.9-8.9-0.3-13,1.9
			c-2.4,1.3-4.4,2.9-6.1,5c-0.6,0.7-1.5,0.8-2.1,0.3c-0.6-0.5-0.7-1.4-0.2-2.1c1-1.3,2.2-2.4,3.4-3.5c2.3-1.9,4.9-3.2,7.8-4.1
			c2.9-0.8,5.8-1.1,8.8-0.8c3.4,0.4,6.6,1.5,9.4,3.3c1.8,1.2,3.5,2.6,4.9,4.2c2.8,3.2,4.6,6.9,5.3,11.1c0.8,4.4,0.2,8.7-1.6,12.9
			c-0.9,2-2.1,3.8-3.5,5.4c-1.3,1.5-2.7,2.7-4.3,3.9c-2.6,1.9-5.5,3.1-8.7,3.6C134.1,53.5,132.7,53.6,131.4,53.8z"/>
		<path class="st1" d="M130.8,47.3c0-0.7,0-1.4,0-2c0.4,0,0.8,0,1.2,0c0,0.7,0,1.3,0,2.1c2.5-0.1,4.8-0.7,6.9-1.8
			c-0.3-0.6-0.7-1.2-1-1.8c0.3-0.2,0.7-0.4,1-0.6c0.3,0.6,0.7,1.2,1.1,1.8c0.6-0.5,1.2-0.9,1.8-1.4c1.2-1,2.2-2.1,3-3.4
			c0.2-0.3,0.1-0.4-0.1-0.6c-0.5-0.3-0.9-0.5-1.4-0.8c0.2-0.4,0.4-0.7,0.6-1c0.6,0.3,1.2,0.7,1.8,1c1.1-2,1.6-4.1,1.8-6.4
			c-1.4,0.1-2.7,0-3.7-1.1c0.9-1.1,2.2-1.2,3.7-1.2c-0.2-2.3-0.8-4.4-1.8-6.4c-0.6,0.3-1.2,0.7-1.8,1c-0.2-0.3-0.4-0.7-0.6-1
			c0.6-0.3,1.2-0.7,1.8-1.1c-1.3-2.1-3-3.7-5.1-5.1c-0.4,0.6-0.7,1.2-1.1,1.8c-0.3-0.2-0.7-0.4-1-0.6c0.3-0.6,0.7-1.2,1-1.8
			c-2.2-1.1-4.4-1.8-6.9-1.8c0,0.7,0,1.3,0,2c-0.4,0-0.8,0-1.2,0c0-0.6,0-1.3,0-2c-0.7,0.1-1.3,0.1-1.9,0.2
			c-1.9,0.3-3.7,0.9-5.4,1.9c-0.5,0.2-0.8,0.2-1-0.2c-0.2-0.3,0-0.7,0.4-0.9c1.8-1,3.6-1.6,5.6-2c2.5-0.4,5-0.3,7.4,0.4
			c4.3,1.2,7.7,3.7,10.1,7.5c2.1,3.2,2.9,6.7,2.7,10.5c-0.3,4.3-2,8-5,11c-2.7,2.7-5.9,4.3-9.6,4.9c-3.9,0.6-7.5,0-11-1.9
			c-0.1-0.1-0.2-0.1-0.3-0.2c-0.4-0.2-0.5-0.6-0.3-0.9c0.2-0.3,0.6-0.4,1-0.2c0.9,0.4,1.8,0.9,2.8,1.2c1.4,0.5,2.8,0.8,4.2,0.8
			C130.5,47.3,130.6,47.3,130.8,47.3z"/>
	</g>
</g>
</svg>
