<?xml version="1.0" encoding="utf-8"?>
<!-- Generator: Adobe Illustrator 25.0.1, SVG Export Plug-In . SVG Version: 6.00 Build 0)  -->
<svg version="1.1" id="Layer_1" xmlns="http://www.w3.org/2000/svg" xmlns:xlink="http://www.w3.org/1999/xlink" x="0px" y="0px"
	 viewBox="0 0 353.1 62.5" style="enable-background:new 0 0 353.1 62.5;" xml:space="preserve">
<style type="text/css">
	.st0{fill:#E52033;}
	.st1{fill:#FFFFFF;}
</style>
<g>
	<circle class="st0" cx="132.2" cy="31.2" r="31.3"/>
	<path class="st1" d="M101,31.3c-2.9-1.1-6.4-2.9-8.5-4.8l1.5,4.3H0v1h94L92.5,36C94.6,34.1,98.2,32.3,101,31.3z"/>
	<path class="st1" d="M353.1,31.3c-2.8-1.1-6.3-2.9-8.5-4.8l1.5,4.3H163.5v1h182.6l-1.5,4.3C346.7,34.1,350.3,32.3,353.1,31.3z"/>
	<g>
		<path class="st1" d="M1.4,11.8h7.5V13H2.8v4h5.7v1.2H2.8v4.2H9v1.2H1.4V11.8z"/>
		<path class="st1" d="M10,15.1V15h1.5l2.2,6.2l0.4,1.3h0.2l0.4-1.3L17,15h1.4v0.2L15,23.6h-1.8L10,15.1z"/>
		<path class="st1" d="M23.1,23.7c-1.3,0-2.3-0.4-3-1.1s-1-1.8-1-3.3s0.3-2.6,1-3.4c0.7-0.8,1.6-1.2,2.9-1.2c2.2,0,3.3,1.3,3.3,3.9
			c0,0.5,0,0.9-0.1,1.1h-5.7c0.1,1,0.3,1.7,0.7,2.2c0.4,0.4,1.1,0.7,2,0.7c0.4,0,0.8,0,1.3-0.1s0.9-0.2,1.4-0.3l0.1,1.1
			c-0.4,0.2-0.9,0.3-1.4,0.4C24.1,23.7,23.6,23.7,23.1,23.7z M23,15.9c-1.5,0-2.4,1-2.5,2.9H25c0-1-0.2-1.8-0.5-2.2
			C24.2,16.1,23.7,15.9,23,15.9z"/>
		<path class="st1" d="M28.3,15h1.2l0.1,1h0.1c0.4-0.2,0.8-0.4,1.2-0.5c0.3-0.1,0.7-0.3,1-0.4c0.3-0.1,0.6-0.2,0.8-0.2
			c0.3,0,0.5-0.1,0.8-0.1c0.7,0,1.3,0.2,1.7,0.6s0.6,1,0.6,1.8v6.4h-1.4v-6c0-0.6-0.1-1-0.3-1.3s-0.6-0.4-1.1-0.4
			c-0.4,0-0.9,0.1-1.4,0.3c-0.5,0.2-1.1,0.4-1.7,0.7v6.7h-1.4V15H28.3z"/>
		<path class="st1" d="M41.3,23.7c-0.8,0-1.4-0.2-1.9-0.6c-0.4-0.4-0.6-1-0.6-1.8v-5.1H37V15h1.9l0.2-2.2l1.1-0.1V15h2.6v1.2h-2.5
			V21c0,0.5,0.1,0.9,0.4,1.2c0.2,0.3,0.6,0.4,1.1,0.4c0.2,0,0.3,0,0.5,0s0.4-0.1,0.6-0.1v1.1c-0.2,0.1-0.5,0.1-0.8,0.2
			S41.6,23.7,41.3,23.7z"/>
		<path class="st1" d="M46.7,13.4L46.7,13.4l-2.8,1.4h-0.1l-0.2-0.8v-0.1l3.5-2.1h1.1v11.8h-1.4L46.7,13.4L46.7,13.4z"/>
	</g>
	<g>
		<path class="st1" d="M212.7,11.8h1.4v11.8h-1.4V11.8z"/>
		<path class="st1" d="M221.4,19.2c-0.2,0-0.4,0-0.7,0c-0.2,0-0.5,0-0.7,0c-0.2,0-0.5,0-0.8,0s-0.6,0-0.9-0.1v4.4h-1.4V11.8
			c1-0.2,2-0.2,3-0.2c1.9,0,3.2,0.3,4.1,0.9s1.3,1.6,1.3,2.9c0,0.9-0.2,1.7-0.6,2.3c-0.4,0.6-1.1,1-2,1.2l3,4.7h-1.6L221.4,19.2z
			 M220.2,18.1c0.7,0,1.2,0,1.7-0.1c0.5-0.1,0.8-0.3,1.1-0.5c0.3-0.2,0.5-0.5,0.6-0.8s0.2-0.7,0.2-1.2c0-0.9-0.3-1.6-0.9-2
			c-0.6-0.4-1.5-0.6-2.8-0.6c-0.3,0-0.6,0-0.9,0c-0.3,0-0.6,0.1-0.9,0.1v5c0.2,0,0.4,0.1,0.8,0.1C219.4,18.1,219.8,18.1,220.2,18.1z
			"/>
		<path class="st1" d="M232,19.2c-0.2,0-0.4,0-0.7,0c-0.2,0-0.5,0-0.7,0c-0.2,0-0.5,0-0.8,0s-0.6,0-0.9-0.1v4.4h-1.4V11.8
			c1-0.2,2-0.2,3-0.2c1.9,0,3.2,0.3,4.1,0.9s1.3,1.6,1.3,2.9c0,0.9-0.2,1.7-0.6,2.3c-0.4,0.6-1.1,1-2,1.2l3,4.7h-1.6L232,19.2z
			 M230.8,18.1c0.7,0,1.2,0,1.7-0.1c0.5-0.1,0.8-0.3,1.1-0.5c0.3-0.2,0.5-0.5,0.6-0.8s0.2-0.7,0.2-1.2c0-0.9-0.3-1.6-0.9-2
			c-0.6-0.4-1.5-0.6-2.8-0.6c-0.3,0-0.6,0-0.9,0c-0.3,0-0.6,0.1-0.9,0.1v5c0.2,0,0.4,0.1,0.8,0.1C230.1,18.1,230.4,18.1,230.8,18.1z
			"/>
		<path class="st1" d="M238.6,23.7c-0.3,0-0.5-0.1-0.7-0.2c-0.2-0.1-0.2-0.4-0.2-0.7c0-0.3,0.1-0.5,0.2-0.7c0.2-0.1,0.4-0.2,0.7-0.2
			s0.5,0.1,0.7,0.2s0.2,0.4,0.2,0.6s-0.1,0.5-0.2,0.7C239.1,23.6,238.9,23.7,238.6,23.7z"/>
		<path class="st1" d="M245,23.8c-0.3,0-0.6,0-0.9,0c-0.3,0-0.6-0.1-1-0.1s-0.7-0.1-1-0.2c-0.3-0.1-0.6-0.1-0.9-0.2v-1.2
			c0.6,0.2,1.3,0.3,1.9,0.4c0.7,0.1,1.2,0.1,1.7,0.1c0.9,0,1.6-0.2,2.1-0.5c0.5-0.3,0.7-0.8,0.7-1.5c0-0.4-0.1-0.7-0.2-0.9
			c-0.1-0.3-0.3-0.5-0.6-0.6c-0.2-0.2-0.5-0.3-0.9-0.4c-0.3-0.1-0.7-0.2-1.1-0.3c-0.6-0.2-1.2-0.4-1.6-0.6s-0.8-0.4-1.1-0.7
			s-0.5-0.6-0.6-0.9c-0.1-0.4-0.2-0.8-0.2-1.2c0-0.5,0.1-0.9,0.3-1.3c0.2-0.4,0.5-0.7,0.8-1s0.8-0.5,1.3-0.7
			c0.5-0.2,1.1-0.2,1.7-0.2c0.4,0,0.9,0,1.4,0.1s1.1,0.2,1.7,0.3l0,1.2c-0.5-0.1-1-0.2-1.6-0.3c-0.5-0.1-1-0.1-1.4-0.1
			c-0.8,0-1.5,0.2-2,0.5c-0.5,0.4-0.7,0.9-0.7,1.5c0,0.3,0,0.6,0.1,0.8c0.1,0.2,0.2,0.4,0.5,0.6c0.2,0.2,0.5,0.3,0.8,0.5
			c0.3,0.1,0.8,0.3,1.3,0.4c0.5,0.1,1,0.3,1.4,0.5c0.4,0.2,0.8,0.4,1.1,0.6c0.3,0.3,0.6,0.6,0.7,1s0.3,0.8,0.3,1.4
			c0,1.1-0.4,1.9-1.1,2.4S246.3,23.8,245,23.8z"/>
		<path class="st1" d="M251.2,11.8h7.5v1.2h-6.1V17h5.7v1.2h-5.7v4.2h6.2v1.2h-7.7V11.8z"/>
		<path class="st1" d="M261.1,11.8h1.2l6.1,8.3l0.9,1.4h0.1v-9.7h1.3v11.8h-1.2l-6.1-8.3l-0.9-1.4l-0.1,0v9.6h-1.3V11.8z"/>
		<path class="st1" d="M274,23.7c-0.3,0-0.5-0.1-0.7-0.2c-0.2-0.1-0.2-0.4-0.2-0.7c0-0.3,0.1-0.5,0.2-0.7c0.2-0.1,0.4-0.2,0.7-0.2
			s0.5,0.1,0.7,0.2s0.2,0.4,0.2,0.6s-0.1,0.5-0.2,0.7C274.5,23.6,274.3,23.7,274,23.7z"/>
		<path class="st1" d="M277.3,11.8h1.2l6.1,8.3l0.9,1.4h0.1v-9.7h1.3v11.8h-1.2l-6.1-8.3l-0.9-1.4l-0.1,0v9.6h-1.3V11.8z"/>
		<path class="st1" d="M293.7,23.8c-1.5,0-2.6-0.5-3.3-1.5c-0.8-1-1.1-2.5-1.1-4.6c0-2,0.4-3.5,1.1-4.6s1.9-1.5,3.3-1.5
			c1.4,0,2.5,0.5,3.3,1.5s1.1,2.5,1.1,4.6c0,2-0.4,3.5-1.1,4.6C296.3,23.3,295.2,23.8,293.7,23.8z M293.7,22.6c1,0,1.8-0.4,2.2-1.2
			c0.5-0.8,0.7-2,0.7-3.7c0-1.7-0.2-2.9-0.7-3.7s-1.2-1.2-2.2-1.2c-1,0-1.8,0.4-2.3,1.2c-0.5,0.8-0.8,2-0.8,3.7
			c0,1.7,0.2,2.9,0.7,3.7C291.9,22.2,292.7,22.6,293.7,22.6z"/>
		<path class="st1" d="M302.5,13.4L302.5,13.4l-2.8,1.4h-0.1l-0.2-0.8v-0.1l3.5-2.1h1.1v11.8h-1.4V13.4z"/>
	</g>
	<g>
		<path class="st1" d="M130.1,38.7c-3.8,0-7.6,0-11.5,0c0-1.2,0-2.3,0-3.5c3.7,0,7.5,0,11.3,0c0-0.6,0-1.1,0-1.7c-0.3,0-0.7,0-1,0
			c-0.8,0-1.6,0-2.4,0c-0.8,0-1.2-0.4-1.2-1.2c0-0.6,0-1.2,0-1.9c0-0.7,0.4-1.1,1.1-1.1c1,0,2.1,0,3.1,0c0.1,0,0.2,0,0.4,0
			c0-0.6,0-1.2,0-1.8c0-0.1-0.1-0.2-0.2-0.2c-1.8-1.8-3.7-3.7-5.5-5.5c-0.7-0.7-0.7-1.5,0-2.2c0.2-0.2,0.4-0.4,0.6-0.6
			c0.5-0.5,1.1-0.5,1.7,0c1.2,1.2,2.4,2.4,3.6,3.6c0.1,0.1,0.2,0.2,0.3,0.3c0,0,0.1,0,0.1,0c0-0.1,0-0.2,0-0.3c0-2,0-4,0-5.9
			c0-0.9,0.4-1.2,1.3-1.2c0.3,0,0.5,0,0.8,0c0.9,0,1.2,0.4,1.2,1.3c0,2,0,3.9,0,5.9c0,0.1,0,0.2,0,0.4c0.1-0.1,0.2-0.2,0.3-0.3
			c1.2-1.2,2.4-2.4,3.7-3.7c0.6-0.6,1.2-0.6,1.8,0c0.2,0.2,0.4,0.4,0.7,0.7c0.5,0.5,0.7,1.3,0,2.1c-1.8,1.8-3.7,3.7-5.5,5.5
			c-0.1,0.1-0.2,0.3-0.2,0.4c0,2.4,0,4.9,0,7.3c0,0.1,0,0.1,0,0.2c3.8,0,7.5,0,11.3,0c0,1.2,0,2.4,0,3.6c-3.8,0-7.6,0-11.5,0
			c0,0.5-0.1,1-0.1,1.4c-0.1,1.6-0.1,3.3-0.3,4.9c-0.1,0.9-0.3,1.9-0.5,2.8c-0.4,1.9-0.8,3.8-1.2,5.8c0,0.1,0,0.1-0.1,0.2
			c-0.2-0.8-0.3-1.5-0.5-2.3c-0.4-2-0.8-4-1.2-6c-0.1-0.7-0.1-1.5-0.2-2.2c-0.1-1.4-0.1-2.9-0.2-4.3
			C130.1,38.9,130.1,38.8,130.1,38.7z M132.6,30.1c0-1.4,0-2.8,0-4.2c0-0.1,0-0.2,0-0.2c0-0.3-0.1-0.4-0.4-0.4
			c-0.3,0-0.4,0.2-0.4,0.4c0,0.1,0,0.1,0,0.2c0,2.8,0,5.7,0,8.5c0,0.1,0,0.2,0,0.2c0,0.3,0.1,0.4,0.4,0.4c0.3,0,0.4-0.2,0.4-0.4
			c0-0.1,0-0.2,0-0.3C132.6,32.9,132.6,31.5,132.6,30.1z"/>
		<path class="st1" d="M133.7,12.3c-0.1-0.8-0.3-1.6-0.4-2.4c-0.1-0.5,0.3-0.9,0.8-1.1c0.5-0.2,1,0,1.3,0.4c0.3,0.4,0.4,1,0.1,1.4
			c-0.5,0.6-1.1,1.2-1.6,1.8C133.8,12.4,133.8,12.4,133.7,12.3z"/>
		<path class="st1" d="M142.7,16.6c0.3-0.7,0.5-1.5,0.8-2.2c0.2-0.5,0.8-0.8,1.3-0.7c0.5,0.1,0.9,0.5,1,1.1c0,0.5-0.2,1-0.8,1.2
			c-0.7,0.2-1.5,0.4-2.2,0.6C142.8,16.6,142.7,16.6,142.7,16.6z"/>
		<path class="st1" d="M122.5,15.3c-0.7-0.2-1.5-0.5-2.2-0.8c-0.5-0.2-0.7-0.7-0.7-1.2c0.1-0.5,0.5-0.9,1-1c0.5-0.1,1,0.1,1.2,0.6
			c0.3,0.7,0.5,1.5,0.8,2.2C122.6,15.2,122.6,15.2,122.5,15.3z"/>
		<path class="st1" d="M121.5,19c-0.6,0.2-1.2,0.3-1.9,0.5c-0.4,0.1-0.8-0.2-1-0.6c-0.2-0.4-0.1-0.8,0.3-1.1
			c0.3-0.3,0.8-0.3,1.1-0.1c0.5,0.4,1,0.8,1.5,1.2C121.5,18.9,121.5,19,121.5,19z"/>
		<path class="st1" d="M139.9,15.6c-0.1-0.6-0.2-1.2-0.2-1.7c0-0.3,0.3-0.7,0.6-0.8c0.4-0.1,0.7,0,1,0.3c0.2,0.3,0.3,0.7,0,1
			c-0.4,0.4-0.8,0.9-1.2,1.3C140,15.7,140,15.7,139.9,15.6z"/>
		<path class="st1" d="M130.4,12.7c-0.4-0.4-0.8-0.7-1.2-1.1c-0.3-0.3-0.3-0.7-0.1-1c0.2-0.3,0.6-0.5,1-0.4c0.4,0.1,0.6,0.4,0.6,0.8
			c0,0.6-0.1,1.1-0.1,1.7C130.5,12.7,130.5,12.7,130.4,12.7z"/>
	</g>
</g>
</svg>
