<?xml version="1.0" encoding="utf-8"?>
<!-- Generator: Adobe Illustrator 25.0.1, SVG Export Plug-In . SVG Version: 6.00 Build 0)  -->
<svg version="1.1" id="Layer_1" xmlns="http://www.w3.org/2000/svg" xmlns:xlink="http://www.w3.org/1999/xlink" x="0px" y="0px"
	 viewBox="0 0 353.1 62.5" style="enable-background:new 0 0 353.1 62.5;" xml:space="preserve">
<style type="text/css">
	.st0{fill:#E52033;}
	.st1{fill:#FFFFFF;}
</style>
<g>
	<circle class="st0" cx="132.2" cy="31.2" r="31.3"/>
	<path class="st1" d="M101,31.2c-2.9-1.1-6.4-2.9-8.5-4.8l1.5,4.3H0v1h94l-1.5,4.3C94.6,34.1,98.2,32.4,101,31.2z"/>
	<path class="st1" d="M353.1,31.2c-2.8-1.1-6.3-2.9-8.5-4.8l1.5,4.3H163.5v1h182.6l-1.5,4.3C346.7,34.1,350.3,32.4,353.1,31.2z"/>
	<g>
		<path class="st1" d="M1.4,11.8h7.5V13H2.8v4h5.7v1.2H2.8v4.2H9v1.2H1.4V11.8z"/>
		<path class="st1" d="M10,15.1V15h1.5l2.2,6.2l0.4,1.3h0.2l0.4-1.3L17,15h1.4v0.2L15,23.6h-1.8L10,15.1z"/>
		<path class="st1" d="M23.1,23.7c-1.3,0-2.3-0.4-3-1.1s-1-1.8-1-3.3s0.3-2.6,1-3.4c0.7-0.8,1.6-1.2,2.9-1.2c2.2,0,3.3,1.3,3.3,3.9
			c0,0.5,0,0.9-0.1,1.1h-5.7c0.1,1,0.3,1.7,0.7,2.2c0.4,0.4,1.1,0.7,2,0.7c0.4,0,0.8,0,1.3-0.1s0.9-0.2,1.4-0.3l0.1,1.1
			c-0.4,0.2-0.9,0.3-1.4,0.4C24.1,23.7,23.6,23.7,23.1,23.7z M23,15.9c-1.5,0-2.4,1-2.5,2.9H25c0-1-0.2-1.8-0.5-2.2
			C24.2,16.1,23.7,15.9,23,15.9z"/>
		<path class="st1" d="M28.3,15h1.2l0.1,1h0.1c0.4-0.2,0.8-0.4,1.2-0.5c0.3-0.1,0.7-0.3,1-0.4c0.3-0.1,0.6-0.2,0.8-0.2
			c0.3,0,0.5-0.1,0.8-0.1c0.7,0,1.3,0.2,1.7,0.6s0.6,1,0.6,1.8v6.4h-1.4v-6c0-0.6-0.1-1-0.3-1.3s-0.6-0.4-1.1-0.4
			c-0.4,0-0.9,0.1-1.4,0.3c-0.5,0.2-1.1,0.4-1.7,0.7v6.7h-1.4V15H28.3z"/>
		<path class="st1" d="M41.3,23.7c-0.8,0-1.4-0.2-1.9-0.6c-0.4-0.4-0.6-1-0.6-1.8v-5.1H37V15h1.9l0.2-2.2l1.1-0.1V15h2.6v1.2h-2.5
			V21c0,0.5,0.1,0.9,0.4,1.2c0.2,0.3,0.6,0.4,1.1,0.4c0.2,0,0.3,0,0.5,0s0.4-0.1,0.6-0.1v1.1c-0.2,0.1-0.5,0.1-0.8,0.2
			S41.6,23.7,41.3,23.7z"/>
		<path class="st1" d="M46.7,13.4L46.7,13.4l-2.8,1.4h-0.1l-0.2-0.8v-0.1l3.5-2.1h1.1v11.8h-1.4L46.7,13.4L46.7,13.4z"/>
	</g>
	<g>
		<path class="st1" d="M204.4,11.8h7.5v1.2h-6.1V17h5.7v1.2h-5.7v4.2h6.2v1.2h-7.7V11.8z"/>
		<path class="st1" d="M214.3,11.8h1.4v10.7h5.4v1.2h-6.8V11.8z"/>
		<path class="st1" d="M222.7,11.8h7.5v1.2h-6.1V17h5.7v1.2h-5.7v4.2h6.2v1.2h-7.7V11.8z"/>
		<path class="st1" d="M237.2,23.7c-3.6,0-5.4-2-5.4-6c0-2.1,0.4-3.6,1.3-4.6c0.9-1,2.2-1.5,4-1.5c0.4,0,0.8,0,1.2,0.1
			c0.5,0,0.9,0.1,1.4,0.2v1.2c-0.5-0.1-1-0.1-1.4-0.2c-0.4,0-0.8-0.1-1.1-0.1c-1.4,0-2.4,0.4-3.1,1.2s-1,2-1,3.7
			c0,1.7,0.3,2.9,1,3.7c0.6,0.8,1.6,1.2,3,1.2c0.2,0,0.4,0,0.6,0c0.2,0,0.5,0,0.7-0.1c0.2,0,0.5-0.1,0.7-0.1s0.4-0.1,0.6-0.1v1.2
			c-0.4,0.1-0.8,0.2-1.3,0.2S237.6,23.7,237.2,23.7z"/>
		<path class="st1" d="M242.3,23.7c-0.3,0-0.5-0.1-0.7-0.2c-0.2-0.1-0.2-0.4-0.2-0.7c0-0.3,0.1-0.5,0.2-0.7c0.2-0.1,0.4-0.2,0.7-0.2
			s0.5,0.1,0.7,0.2s0.2,0.4,0.2,0.6s-0.1,0.5-0.2,0.7C242.8,23.6,242.6,23.7,242.3,23.7z"/>
		<path class="st1" d="M245.6,11.8h2l3,7.2l1,2.6h0.1l1-2.6l3-7.2h2v11.8h-1.3v-10h-0.1l-1.3,3.3l-2.6,6.2H251l-2.6-6.2l-1.3-3.3
			H247v10h-1.3V11.8z"/>
		<path class="st1" d="M260.5,11.8h7.5v1.2H262V17h5.7v1.2H262v4.2h6.2v1.2h-7.7V11.8z"/>
		<path class="st1" d="M273.1,13h-3.8v-1.2h9.1V13h-3.8v10.6h-1.4V13z"/>
		<path class="st1" d="M279.4,23.7c-0.3,0-0.5-0.1-0.7-0.2c-0.2-0.1-0.2-0.4-0.2-0.7c0-0.3,0.1-0.5,0.2-0.7c0.2-0.1,0.4-0.2,0.7-0.2
			s0.5,0.1,0.7,0.2s0.2,0.4,0.2,0.6s-0.1,0.5-0.2,0.7C279.9,23.6,279.7,23.7,279.4,23.7z"/>
		<path class="st1" d="M282.7,11.8h1.2L290,20l0.9,1.4h0.1v-9.7h1.3v11.8h-1.2l-6.1-8.3l-0.9-1.4l-0.1,0v9.6h-1.3V11.8z"/>
		<path class="st1" d="M299.1,23.8c-1.5,0-2.6-0.5-3.3-1.5c-0.8-1-1.1-2.5-1.1-4.6c0-2,0.4-3.5,1.1-4.6s1.9-1.5,3.3-1.5
			c1.4,0,2.5,0.5,3.3,1.5s1.1,2.5,1.1,4.6c0,2-0.4,3.5-1.1,4.6C301.6,23.3,300.5,23.8,299.1,23.8z M299.1,22.6c1,0,1.8-0.4,2.2-1.2
			c0.5-0.8,0.7-2,0.7-3.7c0-1.7-0.2-2.9-0.7-3.7c-0.5-0.8-1.2-1.2-2.2-1.2c-1,0-1.8,0.4-2.3,1.2c-0.5,0.8-0.8,2-0.8,3.7
			c0,1.7,0.2,2.9,0.7,3.7C297.3,22.2,298.1,22.6,299.1,22.6z"/>
		<path class="st1" d="M307.7,23.8c-0.8,0-1.6-0.1-2.5-0.2v-1.2h0.3c0.4,0.1,0.7,0.1,1.1,0.2c0.3,0,0.7,0.1,1,0.1
			c1,0,1.8-0.2,2.4-0.6c0.5-0.4,0.8-1,0.8-1.9c0-0.4-0.1-0.8-0.2-1s-0.4-0.5-0.7-0.7c-0.3-0.2-0.7-0.3-1.2-0.4s-1.1-0.1-1.8-0.1
			l-1.2,0l-0.1-0.1l0.4-5.9h5.7v1.2H307l-0.2,3.7c0.9,0,1.7,0.1,2.4,0.2c0.7,0.1,1.2,0.3,1.7,0.6s0.8,0.6,1,1.1
			c0.2,0.4,0.3,1,0.3,1.6c0,0.7-0.1,1.2-0.3,1.7c-0.2,0.5-0.5,0.8-0.9,1.1c-0.4,0.3-0.9,0.5-1.4,0.6S308.4,23.8,307.7,23.8z"/>
	</g>
	<g id="MQk8AA.tif">
		<g>
			<path class="st1" d="M132.2,53.7c-3.6,0-7.1,0-10.7,0c-1.4,0-1.8-0.7-2-1.6c-0.6-3.4-1.3-6.9-1.9-10.3c0-0.2-0.2-0.5-0.3-0.6
				c-6.9-8.1-6.3-20.1,1.6-27.3c4.2-3.9,9.3-5.6,15-5.1c8.8,0.8,15.8,7.2,17.5,15.8c1.2,6.1-0.3,11.5-4.3,16.3
				c-0.3,0.4-0.5,0.7-0.5,1.2c-0.6,3.4-1.2,6.8-1.9,10.2c-0.2,1-0.7,1.4-1.7,1.4C139.5,53.7,135.8,53.7,132.2,53.7z M132.2,11.5
				c-9.3,0-16.8,7.6-16.9,16.8c0,9.3,7.6,16.9,16.8,16.9c9.3,0,16.9-7.5,16.9-16.9C149.1,19.1,141.5,11.5,132.2,11.5z M121.1,44.6
				c0,0.1,0,0.1,0,0.2c0.4,2,0.7,3.9,1.1,5.9c0.1,0.3,0.2,0.3,0.5,0.3c6.4,0,12.8,0,19.2,0c0.3,0,0.4-0.1,0.5-0.4
				c0.2-1.2,0.4-2.3,0.6-3.5c0.1-0.8,0.3-1.6,0.4-2.4C135.9,49.2,128.5,49.2,121.1,44.6z"/>
			<path class="st1" d="M132.2,26.7c-3,0-6,0-9,0c-1.9,0-3-1.1-3-3c0-0.5,0-0.9,0-1.4c0-1.7,1.2-2.8,2.9-2.9c3.6,0,7.1,0,10.7,0
				c2.6,0,5.1,0,7.7,0c1.8,0,3,1.2,3,3c0,0.5,0,0.9,0,1.4c0,1.7-1.2,2.9-2.9,2.9C138.3,26.7,135.3,26.7,132.2,26.7z M132.2,21.3
				c-3,0-6,0-9,0c-0.9,0-1.2,0.3-1.2,1.2c0,0.3,0,0.6,0,0.9c0,1.1,0.3,1.4,1.4,1.4c5,0,10,0,15,0c1,0,2,0,3,0c0.7,0,1.1-0.4,1.1-1.1
				c0-0.4,0-0.8,0-1.2c0-1-0.3-1.3-1.3-1.3C138.2,21.3,135.2,21.3,132.2,21.3z"/>
			<path class="st1" d="M134.2,34c0.7,0,1.4,0,2.1,0c0.4,0,0.8,0.1,1,0.5c0.2,0.4,0.1,0.8-0.2,1.1c-1.7,2.3-3.4,4.6-5,6.9
				c-0.5,0.7-1.3,0.7-1.6,0.1c-0.1-0.2-0.1-0.5-0.1-0.7c0-1.1,0-2.2,0-3.3c0-0.2,0-0.3,0-0.6c-0.6,0-1.1,0-1.6,0c-0.2,0-0.4,0-0.6,0
				c-0.9-0.1-1.2-0.8-0.7-1.5c1.7-2.4,3.4-4.7,5.1-7.1c0.3-0.4,0.6-0.6,1.1-0.4c0.5,0.1,0.7,0.5,0.7,1c0,1.2,0,2.3,0,3.5
				C134.2,33.6,134.2,33.7,134.2,34z M134.6,35.8c-0.4,0-0.8,0-1.1,0c-0.1,0-0.3,0-0.4,0c-0.5-0.1-0.8-0.4-0.8-1c0-0.6,0-1.3,0-1.9
				c0,0-0.1,0-0.1,0c-0.8,1.1-1.6,2.1-2.4,3.3c0.3,0,0.4,0,0.6,0c1.6,0,1.7,0.1,1.7,1.7c0,0.4,0,0.9,0,1.3c0,0,0.1,0,0.1,0
				C133,38,133.7,37,134.6,35.8z"/>
			<path class="st1" d="M133.1,23.1c0,0.1,0,0.2,0,0.3c0,0.6-0.4,1-1,1c-0.5,0-0.9-0.4-0.9-1c0-0.2,0-0.4,0-0.6c0-0.6,0.4-1,1-1
				c0.5,0,0.9,0.4,0.9,1C133.1,22.9,133.1,23,133.1,23.1z"/>
			<path class="st1" d="M125.6,23.1c0,0.2,0,0.3,0,0.5c-0.1,0.5-0.4,0.8-0.9,0.8c-0.5,0-0.9-0.3-0.9-0.8c0-0.3,0-0.7,0-1
				c0.1-0.5,0.5-0.8,0.9-0.8c0.5,0,0.9,0.4,0.9,0.9C125.6,22.8,125.6,22.9,125.6,23.1C125.6,23.1,125.6,23.1,125.6,23.1z"/>
			<path class="st1" d="M138.8,23.1c0-0.9,0.3-1.3,0.9-1.3c0.6,0,0.9,0.5,0.9,1.3c0,0,0,0.1,0,0.1c0,0.7-0.4,1.2-0.9,1.2
				c-0.6,0-0.9-0.4-0.9-1.2C138.8,23.1,138.8,23.1,138.8,23.1z"/>
			<path class="st1" d="M127.5,23.1c0-0.2,0-0.4,0-0.6c0.1-0.4,0.5-0.8,0.9-0.8c0.4,0,0.8,0.3,0.9,0.8c0,0.3,0,0.7,0,1
				c0,0.5-0.4,0.8-0.9,0.8c-0.5,0-0.9-0.4-0.9-0.9C127.5,23.4,127.5,23.2,127.5,23.1C127.5,23.1,127.5,23.1,127.5,23.1z"/>
			<path class="st1" d="M136.9,23c0,0.2,0,0.3,0,0.5c-0.1,0.5-0.4,0.8-0.9,0.8c-0.5,0-0.9-0.3-0.9-0.8c0-0.3,0-0.6,0-0.9
				c0-0.5,0.5-0.9,0.9-0.9c0.5,0,0.8,0.4,0.9,0.9C136.9,22.8,136.9,22.9,136.9,23C136.9,23,136.9,23,136.9,23z"/>
		</g>
	</g>
</g>
</svg>
