<?xml version="1.0" encoding="utf-8"?>
<!-- Generator: Adobe Illustrator 25.0.1, SVG Export Plug-In . SVG Version: 6.00 Build 0)  -->
<svg version="1.1" id="Layer_1" xmlns="http://www.w3.org/2000/svg" xmlns:xlink="http://www.w3.org/1999/xlink" x="0px" y="0px"
	 viewBox="0 0 353.1 62.5" style="enable-background:new 0 0 353.1 62.5;" xml:space="preserve">
<style type="text/css">
	.st0{fill:#E52033;}
	.st1{fill:#FFFFFF;}
</style>
<g>
	<circle class="st0" cx="132.2" cy="31.2" r="31.3"/>
	<path class="st1" d="M101,31.3c-2.9-1.1-6.4-2.9-8.5-4.8l1.5,4.3H0v1h94L92.5,36C94.6,34.1,98.2,32.3,101,31.3z"/>
	<path class="st1" d="M353.1,31.3c-2.8-1.1-6.3-2.9-8.5-4.8l1.5,4.3H163.5v1h182.6l-1.5,4.3C346.7,34.1,350.3,32.3,353.1,31.3z"/>
	<g>
		<path class="st1" d="M1.4,11.8h7.5V13H2.8v4h5.7v1.2H2.8v4.2H9v1.2H1.4V11.8z"/>
		<path class="st1" d="M10,15.1V15h1.5l2.2,6.2l0.4,1.3h0.2l0.4-1.3L17,15h1.4v0.2L15,23.6h-1.8L10,15.1z"/>
		<path class="st1" d="M23.1,23.7c-1.3,0-2.3-0.4-3-1.1s-1-1.8-1-3.3s0.3-2.6,1-3.4c0.7-0.8,1.6-1.2,2.9-1.2c2.2,0,3.3,1.3,3.3,3.9
			c0,0.5,0,0.9-0.1,1.1h-5.7c0.1,1,0.3,1.7,0.7,2.2c0.4,0.4,1.1,0.7,2,0.7c0.4,0,0.8,0,1.3-0.1s0.9-0.2,1.4-0.3l0.1,1.1
			c-0.4,0.2-0.9,0.3-1.4,0.4C24.1,23.7,23.6,23.7,23.1,23.7z M23,15.9c-1.5,0-2.4,1-2.5,2.9H25c0-1-0.2-1.8-0.5-2.2
			C24.2,16.1,23.7,15.9,23,15.9z"/>
		<path class="st1" d="M28.3,15h1.2l0.1,1h0.1c0.4-0.2,0.8-0.4,1.2-0.5c0.3-0.1,0.7-0.3,1-0.4c0.3-0.1,0.6-0.2,0.8-0.2
			c0.3,0,0.5-0.1,0.8-0.1c0.7,0,1.3,0.2,1.7,0.6s0.6,1,0.6,1.8v6.4h-1.4v-6c0-0.6-0.1-1-0.3-1.3s-0.6-0.4-1.1-0.4
			c-0.4,0-0.9,0.1-1.4,0.3c-0.5,0.2-1.1,0.4-1.7,0.7v6.7h-1.4V15H28.3z"/>
		<path class="st1" d="M41.3,23.7c-0.8,0-1.4-0.2-1.9-0.6c-0.4-0.4-0.6-1-0.6-1.8v-5.1H37V15h1.9l0.2-2.2l1.1-0.1V15h2.6v1.2h-2.5
			V21c0,0.5,0.1,0.9,0.4,1.2c0.2,0.3,0.6,0.4,1.1,0.4c0.2,0,0.3,0,0.5,0s0.4-0.1,0.6-0.1v1.1c-0.2,0.1-0.5,0.1-0.8,0.2
			S41.6,23.7,41.3,23.7z"/>
		<path class="st1" d="M46.7,13.4L46.7,13.4l-2.8,1.4h-0.1l-0.2-0.8v-0.1l3.5-2.1h1.1v11.8h-1.4L46.7,13.4L46.7,13.4z"/>
	</g>
	<g>
		<path class="st1" d="M210.3,11.8h1.4v10.7h5.4v1.2h-6.8V11.8z"/>
		<path class="st1" d="M218.7,11.8h1.4v5.2h6.6v-5.2h1.4v11.8h-1.4v-5.5h-6.6v5.5h-1.4V11.8z"/>
		<path class="st1" d="M233.7,13h-3.8v-1.2h9.1V13h-3.8v10.6h-1.4V13z"/>
		<path class="st1" d="M240,23.7c-0.3,0-0.5-0.1-0.7-0.2c-0.2-0.1-0.2-0.4-0.2-0.7c0-0.3,0.1-0.5,0.2-0.7c0.2-0.1,0.4-0.2,0.7-0.2
			s0.5,0.1,0.7,0.2s0.2,0.4,0.2,0.6s-0.1,0.5-0.2,0.7C240.5,23.6,240.3,23.7,240,23.7z"/>
		<path class="st1" d="M246.4,23.8c-0.3,0-0.6,0-0.9,0c-0.3,0-0.6-0.1-1-0.1s-0.7-0.1-1-0.2c-0.3-0.1-0.6-0.1-0.9-0.2v-1.2
			c0.6,0.2,1.3,0.3,1.9,0.4c0.7,0.1,1.2,0.1,1.7,0.1c0.9,0,1.6-0.2,2.1-0.5c0.5-0.3,0.7-0.8,0.7-1.5c0-0.4-0.1-0.7-0.2-0.9
			c-0.1-0.3-0.3-0.5-0.6-0.6c-0.2-0.2-0.5-0.3-0.9-0.4c-0.3-0.1-0.7-0.2-1.1-0.3c-0.6-0.2-1.2-0.4-1.6-0.6s-0.8-0.4-1.1-0.7
			s-0.5-0.6-0.6-0.9c-0.1-0.4-0.2-0.8-0.2-1.2c0-0.5,0.1-0.9,0.3-1.3c0.2-0.4,0.5-0.7,0.8-1s0.8-0.5,1.3-0.7
			c0.5-0.2,1.1-0.2,1.7-0.2c0.4,0,0.9,0,1.4,0.1s1.1,0.2,1.7,0.3l0,1.2c-0.5-0.1-1-0.2-1.6-0.3c-0.5-0.1-1-0.1-1.4-0.1
			c-0.8,0-1.5,0.2-2,0.5c-0.5,0.4-0.7,0.9-0.7,1.5c0,0.3,0,0.6,0.1,0.8c0.1,0.2,0.2,0.4,0.5,0.6c0.2,0.2,0.5,0.3,0.8,0.5
			c0.3,0.1,0.8,0.3,1.3,0.4c0.5,0.1,1,0.3,1.4,0.5c0.4,0.2,0.8,0.4,1.1,0.6c0.3,0.3,0.6,0.6,0.7,1s0.3,0.8,0.3,1.4
			c0,1.1-0.4,1.9-1.1,2.4S247.7,23.8,246.4,23.8z"/>
		<path class="st1" d="M255.4,19.7l-4.3-7.9h1.5l2.9,5.5l0.5,1.1h0.1l0.5-1.1l2.9-5.5h1.5l-4.3,7.8v4h-1.4V19.7z"/>
		<path class="st1" d="M265.4,23.8c-0.3,0-0.6,0-0.9,0c-0.3,0-0.6-0.1-1-0.1c-0.3,0-0.7-0.1-1-0.2c-0.3-0.1-0.6-0.1-0.9-0.2v-1.2
			c0.6,0.2,1.3,0.3,1.9,0.4c0.7,0.1,1.2,0.1,1.7,0.1c0.9,0,1.6-0.2,2.1-0.5c0.5-0.3,0.7-0.8,0.7-1.5c0-0.4-0.1-0.7-0.2-0.9
			c-0.1-0.3-0.3-0.5-0.6-0.6c-0.2-0.2-0.5-0.3-0.9-0.4c-0.3-0.1-0.7-0.2-1.1-0.3c-0.6-0.2-1.2-0.4-1.6-0.6c-0.4-0.2-0.8-0.4-1.1-0.7
			s-0.5-0.6-0.6-0.9c-0.1-0.4-0.2-0.8-0.2-1.2c0-0.5,0.1-0.9,0.3-1.3c0.2-0.4,0.5-0.7,0.8-1c0.4-0.3,0.8-0.5,1.3-0.7
			c0.5-0.2,1.1-0.2,1.7-0.2c0.4,0,0.9,0,1.4,0.1c0.5,0.1,1.1,0.2,1.7,0.3l0,1.2c-0.5-0.1-1-0.2-1.6-0.3s-1-0.1-1.4-0.1
			c-0.8,0-1.5,0.2-2,0.5s-0.7,0.9-0.7,1.5c0,0.3,0,0.6,0.1,0.8s0.3,0.4,0.5,0.6c0.2,0.2,0.5,0.3,0.8,0.5s0.8,0.3,1.3,0.4
			c0.5,0.1,1,0.3,1.4,0.5c0.4,0.2,0.8,0.4,1.1,0.6c0.3,0.3,0.6,0.6,0.7,1c0.2,0.4,0.3,0.8,0.3,1.4c0,1.1-0.4,1.9-1.1,2.4
			C267.8,23.5,266.8,23.8,265.4,23.8z"/>
		<path class="st1" d="M272.1,23.7c-0.3,0-0.5-0.1-0.7-0.2c-0.2-0.1-0.2-0.4-0.2-0.7c0-0.3,0.1-0.5,0.2-0.7c0.2-0.1,0.4-0.2,0.7-0.2
			s0.5,0.1,0.7,0.2s0.2,0.4,0.2,0.6s-0.1,0.5-0.2,0.7C272.6,23.6,272.4,23.7,272.1,23.7z"/>
		<path class="st1" d="M275.4,11.8h1.2l6.1,8.3l0.9,1.4h0.1v-9.7h1.3v11.8h-1.2l-6.1-8.3l-0.9-1.4l-0.1,0v9.6h-1.3V11.8z"/>
		<path class="st1" d="M291.8,23.8c-1.5,0-2.6-0.5-3.3-1.5c-0.8-1-1.1-2.5-1.1-4.6c0-2,0.4-3.5,1.1-4.6s1.9-1.5,3.3-1.5
			c1.4,0,2.5,0.5,3.3,1.5s1.1,2.5,1.1,4.6c0,2-0.4,3.5-1.1,4.6C294.3,23.3,293.3,23.8,291.8,23.8z M291.8,22.6c1,0,1.8-0.4,2.2-1.2
			c0.5-0.8,0.7-2,0.7-3.7c0-1.7-0.2-2.9-0.7-3.7s-1.2-1.2-2.2-1.2c-1,0-1.8,0.4-2.3,1.2c-0.5,0.8-0.8,2-0.8,3.7
			c0,1.7,0.2,2.9,0.7,3.7C290,22.2,290.8,22.6,291.8,22.6z"/>
		<path class="st1" d="M297.5,20v-0.1l4-8.3h0.1l1.3,0.2l0,0.1l-3.8,7.7v0.1h4.1l0.4-3.9h1v3.9h1.8v1.2h-1.8v2.8h-1.4v-2.8h-5.4
			L297.5,20z"/>
	</g>
	<g>
		<path class="st1" d="M132.6,8.8c0.9,0.3,1.2,1,1.1,1.9c0,2,0,4.1,0,6.1c0.9,0.2,1.7,0.3,2.6,0.5c4,1,7.2,3.2,9.6,6.5
			c1.5,2,2.5,4.2,2.9,6.6c0.2,1.1,0.3,2.1,0.3,3.2c0.1,1-0.6,1.6-1.6,1.6c-2.4,0-4.8,0-7.3,0c-0.2,0-0.3,0-0.5,0
			c-0.5,2.1-1.6,3.8-3.4,5c-1.5,1-3.1,1.4-4.8,1.2c-3-0.2-6.1-2.4-7-6.2c-0.1,0-0.3,0-0.5,0c-2.4,0-4.8,0-7.2,0
			c-1.2,0-1.8-0.6-1.7-1.8c0.1-4.9,2-9,5.6-12.3c2.6-2.4,5.7-3.8,9.3-4.3c0.2,0,0.4-0.1,0.6-0.1c0-0.2,0-0.3,0-0.5
			c0-1.9,0-3.8,0-5.7c0-0.9,0.3-1.6,1.1-1.9C132.1,8.8,132.3,8.8,132.6,8.8z M146.1,32.2c-0.7-6.9-6.8-13.1-15-12.5
			c-7.2,0.5-12.3,6.5-12.8,12.5C127.6,32.2,136.8,32.2,146.1,32.2z M127.7,35.2c0.4,1.8,2.6,3.4,4.6,3.3c2.5-0.1,4.2-2,4.4-3.3
			C133.7,35.2,130.7,35.2,127.7,35.2z"/>
		<path class="st1" d="M131.9,53.8c-0.9-0.3-1.2-1-1.1-1.9c0-1.8,0-3.6,0-5.4c0-0.9,0.5-1.5,1.3-1.6c0.9-0.1,1.7,0.5,1.7,1.5
			c0,1.3,0,2.5,0,3.8c0,0.5,0,1.1,0,1.6c0.1,0.9-0.3,1.6-1.1,1.9C132.3,53.8,132.1,53.8,131.9,53.8z"/>
		<path class="st1" d="M125.8,43.9c-0.1,0.2-0.2,0.6-0.5,0.9c-1.4,1.4-2.8,2.8-4.2,4.2c-0.6,0.6-1.5,0.6-2.1,0
			c-0.6-0.6-0.6-1.5,0-2.1c1.4-1.4,2.8-2.8,4.2-4.2c0.5-0.5,1-0.6,1.6-0.3C125.4,42.6,125.7,43.1,125.8,43.9z"/>
		<path class="st1" d="M140.2,42.2c0.3,0.2,0.7,0.3,1,0.6c1.4,1.4,2.8,2.8,4.2,4.2c0.6,0.6,0.6,1.5,0,2.1c-0.6,0.6-1.5,0.6-2.1,0
			c-1.4-1.4-2.8-2.8-4.2-4.2c-0.5-0.5-0.6-1-0.3-1.7C139,42.6,139.5,42.3,140.2,42.2z"/>
	</g>
</g>
</svg>
