<?xml version="1.0" encoding="utf-8"?>
<!-- Generator: Adobe Illustrator 25.0.1, SVG Export Plug-In . SVG Version: 6.00 Build 0)  -->
<svg version="1.1" id="Layer_1" xmlns="http://www.w3.org/2000/svg" xmlns:xlink="http://www.w3.org/1999/xlink" x="0px" y="0px"
	 viewBox="0 0 353.1 62.5" style="enable-background:new 0 0 353.1 62.5;" xml:space="preserve">
<style type="text/css">
	.st0{fill:#E52033;}
	.st1{fill:#FFFFFF;}
</style>
<g>
	<circle class="st0" cx="132.2" cy="31.2" r="31.3"/>
	<path class="st1" d="M101,31.3c-2.9-1.1-6.4-2.9-8.5-4.8l1.5,4.3H0v1h94L92.5,36C94.6,34.1,98.2,32.3,101,31.3z"/>
	<path class="st1" d="M353.1,31.3c-2.8-1.1-6.3-2.9-8.5-4.8l1.5,4.3H163.5v1h182.6l-1.5,4.3C346.7,34.1,350.3,32.3,353.1,31.3z"/>
	<g>
		<path class="st1" d="M1.4,11.8h7.5V13H2.8v4h5.7v1.2H2.8v4.2H9v1.2H1.4V11.8z"/>
		<path class="st1" d="M10,15.1V15h1.5l2.2,6.2l0.4,1.3h0.2l0.4-1.3L17,15h1.4v0.2L15,23.6h-1.8L10,15.1z"/>
		<path class="st1" d="M23.1,23.8c-1.3,0-2.3-0.4-3-1.1s-1-1.8-1-3.3s0.3-2.6,1-3.4c0.7-0.8,1.6-1.2,2.9-1.2c2.2,0,3.3,1.3,3.3,3.9
			c0,0.5,0,0.9-0.1,1.1h-5.7c0.1,1,0.3,1.7,0.7,2.2c0.4,0.4,1.1,0.7,2,0.7c0.4,0,0.8,0,1.3-0.1s0.9-0.2,1.4-0.3l0.1,1.1
			c-0.4,0.2-0.9,0.3-1.4,0.4C24.1,23.8,23.6,23.8,23.1,23.8z M23,15.9c-1.5,0-2.4,1-2.5,2.9H25c0-1-0.2-1.8-0.5-2.2
			C24.2,16.1,23.7,15.9,23,15.9z"/>
		<path class="st1" d="M28.3,15h1.2l0.1,1h0.1c0.4-0.2,0.8-0.4,1.2-0.5c0.3-0.1,0.7-0.3,1-0.4c0.3-0.1,0.6-0.2,0.8-0.2
			c0.3,0,0.5-0.1,0.8-0.1c0.7,0,1.3,0.2,1.7,0.6s0.6,1,0.6,1.8v6.4h-1.4v-6c0-0.6-0.1-1-0.3-1.3S33.5,16,33,16
			c-0.4,0-0.9,0.1-1.4,0.3c-0.5,0.2-1.1,0.4-1.7,0.7v6.7h-1.4V15H28.3z"/>
		<path class="st1" d="M41.3,23.8c-0.8,0-1.4-0.2-1.9-0.6c-0.4-0.4-0.6-1-0.6-1.8v-5.1H37V15h1.9l0.2-2.2l1.1-0.1V15h2.6v1.2h-2.5
			V21c0,0.5,0.1,0.9,0.4,1.2c0.2,0.3,0.6,0.4,1.1,0.4c0.2,0,0.3,0,0.5,0s0.4-0.1,0.6-0.1v1.1c-0.2,0.1-0.5,0.1-0.8,0.2
			S41.6,23.8,41.3,23.8z"/>
		<path class="st1" d="M46.7,13.4L46.7,13.4l-2.8,1.4h-0.1L43.6,14v-0.1l3.5-2.1h1.1v11.8h-1.4L46.7,13.4L46.7,13.4z"/>
	</g>
	<g>
		<path class="st1" d="M205.8,11.9h1.5l2.1,8.1l0.5,2.2h0.1l0.6-2.2l2.3-8.1h1.5l2.2,8.1l0.6,2.2h0.1l0.5-2.2l2.1-8.1h1.5l-3.3,11.8
			h-1.9l-2.2-7.8l-0.5-2.1h-0.1l-0.5,2.1l-2.2,7.8H209L205.8,11.9z"/>
		<path class="st1" d="M225.8,13.1H222v-1.2h9.1v1.2h-3.8v10.6h-1.4V13.1z"/>
		<path class="st1" d="M232.8,11.9h1.4V17h6.6v-5.2h1.4v11.8h-1.4v-5.5h-6.6v5.5h-1.4V11.9z"/>
		<path class="st1" d="M245.5,23.8c-0.3,0-0.5-0.1-0.7-0.2c-0.2-0.1-0.2-0.4-0.2-0.7c0-0.3,0.1-0.5,0.2-0.7c0.2-0.1,0.4-0.2,0.7-0.2
			s0.5,0.1,0.7,0.2s0.2,0.4,0.2,0.6s-0.1,0.5-0.2,0.7C246,23.7,245.8,23.8,245.5,23.8z"/>
		<path class="st1" d="M251.8,23.9c-0.3,0-0.6,0-0.9,0c-0.3,0-0.6-0.1-1-0.1c-0.3,0-0.7-0.1-1-0.2s-0.6-0.1-0.9-0.2v-1.2
			c0.6,0.2,1.3,0.3,1.9,0.4c0.7,0.1,1.2,0.1,1.7,0.1c0.9,0,1.6-0.2,2.1-0.5c0.5-0.3,0.7-0.8,0.7-1.5c0-0.4-0.1-0.7-0.2-0.9
			c-0.1-0.3-0.3-0.5-0.6-0.6c-0.2-0.2-0.5-0.3-0.9-0.4c-0.3-0.1-0.7-0.2-1.1-0.3c-0.6-0.2-1.2-0.4-1.6-0.6s-0.8-0.4-1.1-0.7
			c-0.3-0.3-0.5-0.6-0.6-0.9c-0.1-0.4-0.2-0.8-0.2-1.2c0-0.5,0.1-0.9,0.3-1.3c0.2-0.4,0.5-0.7,0.8-1s0.8-0.5,1.3-0.7
			c0.5-0.2,1.1-0.2,1.7-0.2c0.4,0,0.9,0,1.4,0.1c0.5,0.1,1.1,0.2,1.7,0.3l0,1.2c-0.5-0.1-1-0.2-1.6-0.3s-1-0.1-1.4-0.1
			c-0.8,0-1.5,0.2-2,0.5s-0.7,0.9-0.7,1.5c0,0.3,0,0.6,0.1,0.8c0.1,0.2,0.3,0.4,0.5,0.6c0.2,0.2,0.5,0.3,0.8,0.5
			c0.3,0.1,0.8,0.3,1.3,0.4c0.5,0.1,1,0.3,1.4,0.5c0.4,0.2,0.8,0.4,1.1,0.6c0.3,0.3,0.6,0.6,0.7,1s0.3,0.8,0.3,1.4
			c0,1.1-0.4,1.9-1.1,2.4S253.2,23.9,251.8,23.9z"/>
		<path class="st1" d="M258.1,11.9h7.5V13h-6.1v4.1h5.7v1.2h-5.7v4.2h6.2v1.2h-7.7V11.9z"/>
		<path class="st1" d="M267.9,11.9h1.2l6.1,8.3l0.9,1.4h0.1v-9.7h1.3v11.8h-1.2l-6.1-8.3l-0.9-1.4l-0.1,0v9.6h-1.3V11.9z"/>
		<path class="st1" d="M280.9,23.8c-0.3,0-0.5-0.1-0.7-0.2c-0.2-0.1-0.2-0.4-0.2-0.7c0-0.3,0.1-0.5,0.2-0.7c0.2-0.1,0.4-0.2,0.7-0.2
			s0.5,0.1,0.7,0.2s0.2,0.4,0.2,0.6s-0.1,0.5-0.2,0.7C281.4,23.7,281.2,23.8,280.9,23.8z"/>
		<path class="st1" d="M284.2,11.9h1.2l6.1,8.3l0.9,1.4h0.1v-9.7h1.3v11.8h-1.2l-6.1-8.3l-0.9-1.4l-0.1,0v9.6h-1.3V11.9z"/>
		<path class="st1" d="M300.6,23.9c-1.5,0-2.6-0.5-3.3-1.5c-0.8-1-1.1-2.5-1.1-4.6c0-2,0.4-3.5,1.1-4.6s1.9-1.5,3.3-1.5
			c1.4,0,2.5,0.5,3.3,1.5s1.1,2.5,1.1,4.6c0,2-0.4,3.5-1.1,4.6C303.1,23.4,302,23.9,300.6,23.9z M300.6,22.7c1,0,1.8-0.4,2.2-1.2
			c0.5-0.8,0.7-2,0.7-3.7c0-1.7-0.2-2.9-0.7-3.7c-0.5-0.8-1.2-1.2-2.2-1.2c-1,0-1.8,0.4-2.3,1.2c-0.5,0.8-0.8,2-0.8,3.7
			c0,1.7,0.2,2.9,0.7,3.7C298.8,22.3,299.5,22.7,300.6,22.7z"/>
		<path class="st1" d="M309.4,13.5L309.4,13.5l-2.8,1.4h-0.1l-0.2-0.8v-0.1l3.5-2.1h1.1v11.8h-1.4V13.5z"/>
	</g>
	<g>
		<path class="st1" d="M136.6,36.1c1.8-2.2,2.3-4.5,1.6-7c-0.9-2.8-3.5-4.7-6.5-4.8c-2.7-0.1-5.5,1.7-6.6,4.2
			c-0.4,1.1-0.4,1.9,0.2,3.2c-0.2,0-0.5,0.1-0.7,0.1c-1.5,0-3.1,0.1-4.6,0c-2.3-0.2-4.6,1.4-3.8,4.4c-1.3,0.5-2.2,1.4-2.3,2.9
			c-2.6-1-4.6-4.8-4.3-8.2c0.3-3.2,2.8-7.3,8.5-7.8c0-7.1,5.2-10.9,9.5-11.6c2.8-0.4,5.4,0.1,7.9,1.6c2.4,1.5,3.9,3.7,4.8,6.4
			c5.6-1.8,10.6,0.7,13,4.8c3.3,5.7,0.6,13.2-5.6,15.4c-0.6,0.2-0.9,0.1-1.3-0.4c-1.7-2.1-3.9-3.2-6.6-3.3
			C138.8,36.1,137.7,36.1,136.6,36.1z"/>
		<path class="st1" d="M128.7,40.4c-3.7,0-7.3,0-11,0c-0.3,0-0.5,0-0.8-0.1c-0.5-0.2-0.9-0.5-0.8-1.1c0-0.6,0.4-0.9,1-1
			c0.2,0,0.3,0,0.5,0c7.4,0,14.7,0,22.1,0c2.7,0,5.1,1.7,6,4.1c1,2.5,0.3,5.3-1.8,7.1c-3.2,2.9-8.2,1.9-10-2c-0.2-0.3-0.4-0.7-0.3-1
			c0.1-0.4,0.5-0.8,0.9-0.9c0.6-0.2,1,0.2,1.2,0.8c0.5,1.3,1.3,2.2,2.7,2.5c1.8,0.4,3.3-0.1,4.5-1.4c1.1-1.2,1.3-2.7,0.7-4.3
			c-0.7-1.7-2-2.7-3.8-2.7C136.2,40.3,132.4,40.4,128.7,40.4z"/>
		<path class="st1" d="M125.7,36.1c-1.9,0-3.9,0-5.8,0c-1.1,0-1.6-0.3-1.6-1c0-0.8,0.5-1.1,1.6-1.1c3.8,0,7.5,0,11.3,0
			c0.8,0,1.5-0.1,2.1-0.7c0.8-0.7,1.2-1.6,0.8-2.7c-0.3-1.1-1.1-1.8-2.2-1.9c-1.1-0.2-2,0.3-2.6,1.3c-0.1,0.2-0.2,0.4-0.3,0.5
			c-0.3,0.5-1,0.7-1.5,0.4c-0.5-0.3-0.6-0.8-0.4-1.4c0.6-1.9,2.9-3.3,4.9-3c2.3,0.3,4.1,2,4.3,4.2c0.3,3.1-1.7,5.3-4.7,5.4
			C129.6,36.1,127.6,36.1,125.7,36.1C125.7,36.1,125.7,36.1,125.7,36.1z"/>
		<path class="st1" d="M120.1,42.5c1.6,0,3.3-0.1,4.9,0c2.1,0.1,3.7,1.6,4,3.7c0.3,1.8-0.8,3.8-2.6,4.6c-1.8,0.8-4.1,0.1-5.1-1.5
			c-0.5-0.8-0.5-1.4,0.1-1.8c0.6-0.4,1.1-0.2,1.7,0.6c0.6,0.8,1.6,1.2,2.5,0.8c1-0.4,1.5-1.3,1.4-2.3c-0.1-1.1-1-1.8-2.3-1.8
			c-2.2,0-4.4,0-6.7,0c-1,0-2,0-3-0.1c-0.3,0-0.8-0.5-0.9-0.9c-0.1-0.3,0.3-0.8,0.6-1.1c0.2-0.2,0.5-0.1,0.8-0.1
			C117,42.5,118.5,42.5,120.1,42.5C120.1,42.5,120.1,42.5,120.1,42.5z"/>
	</g>
</g>
</svg>
