<?xml version="1.0" encoding="utf-8"?>
<!-- Generator: Adobe Illustrator 25.0.1, SVG Export Plug-In . SVG Version: 6.00 Build 0)  -->
<svg version="1.1" id="Layer_1" xmlns="http://www.w3.org/2000/svg" xmlns:xlink="http://www.w3.org/1999/xlink" x="0px" y="0px"
	 viewBox="0 0 55 55" style="enable-background:new 0 0 55 55;" xml:space="preserve">
<style type="text/css">
	.st0{fill:#FFFFFF;}
</style>
<g id="Layer_2_1_">
	<g id="layer">
		<path class="st0" d="M15.8,35.3c-1.4-1.4-2.7-2.7-4-4l-4.1-4c-1.4-1.4-1.4-2.3,0-3.7s2.6-2.6,4-3.9L30.1,1.1
			c1.4-1.4,2.3-1.5,3.7,0c4.4,4.4,8.8,8.8,13.2,13.2c1.7,1.7,1.7,2.3,0,4c-3.9,3.9-7.8,7.8-11.7,11.7c-0.4,0.4-0.7,0.4-1,0
			c-1.4-1.4-2.8-2.8-4.2-4.2c-0.2-0.2-0.4-0.4-0.6-0.6c-1.3-1.1-2.3-1.2-3.6,0c-1.7,1.6-3.3,3.2-4.9,4.8L15.8,35.3z M20.5,14.3
			L20.5,14.3c-0.4,0.4-0.9,0.9-1.4,1.4c-0.4,0.3-0.5,1-0.2,1.4l0.1,0.1c0.4,0.5,0.8,0.9,1.3,1.3c0.4,0.4,1,0.4,1.4,0l0,0
			c1-0.9,1.9-1.9,2.8-2.8c0.4-0.4,0.5-1,0.1-1.4l-0.1-0.1c-0.4-0.4-0.8-0.8-1.2-1.2c-0.3-0.4-1-0.5-1.4-0.2c-0.1,0-0.1,0.1-0.2,0.2
			C21.5,13.4,21,13.9,20.5,14.3z M30.4,10L30.4,10c0.5-0.5,1-0.9,1.4-1.4c0.4-0.4,0.5-1,0.1-1.4l-0.1-0.1c-0.4-0.5-0.8-0.9-1.3-1.3
			c-0.4-0.4-1-0.4-1.4,0l0,0c-0.9,0.9-1.9,1.9-2.8,2.8C26,9,26,9.6,26.4,10l0,0c0.4,0.5,0.8,0.9,1.3,1.3c0.4,0.4,1,0.5,1.4,0.1
			l0.1-0.1C29.5,10.9,29.9,10.4,30.4,10z"/>
		<path class="st0" d="M32,47.5l-6.6,6.6c-1.1,1.1-2.1,1.1-3.2,0l-9.7-9.7c-1.2-1.2-1.2-2.1,0-3.3l13-13c0.2-0.2,0.3-0.3,0.5-0.5
			c0.7-0.8,1.9-0.8,2.6-0.1l0.1,0.1c3.4,3.4,6.8,6.8,10.2,10.2c0.8,0.7,0.8,1.8,0.2,2.6c-0.1,0.1-0.1,0.1-0.2,0.2
			C36.7,42.9,34.3,45.2,32,47.5L32,47.5z M23.8,52.4l13.1-13.1l-4.7-4.7L19,47.7L23.8,52.4z M16.2,44.8l13.1-13.1l-2-2L14.2,42.8
			L16.2,44.8z"/>
	</g>
</g>
</svg>
