<svg xmlns="http://www.w3.org/2000/svg" viewBox="0 0 9.74 12.97"><defs><style>.cls-1{fill:#fff;}</style></defs><title>clear</title><g id="Layer_2" data-name="Layer 2"><g id="layer"><path class="cls-1" d="M2.19,5a8,8,0,0,1,.37-.86,1.33,1.33,0,0,1,1.69-.47c.37.16.73.33,1.1.51.07,0,.12,0,.18,0A3.31,3.31,0,0,0,6.3,2.91c.09-.27.11-.55.2-.81.19-.52.38-1,.6-1.53A.92.92,0,0,1,7.73,0a.65.65,0,0,1,.39,0c.4.16.78.35,1.17.54a.71.71,0,0,1,.32.84,5,5,0,0,1-.33.83A6.62,6.62,0,0,1,8.41,3.6a2.66,2.66,0,0,0-.5,1.17c0,.13,0,.27-.06.41a.13.13,0,0,0,.09.16l1,.47a1.35,1.35,0,0,1,.72,1.62,7.35,7.35,0,0,1-.34.76l0,.09A13.12,13.12,0,0,0,2.19,5ZM7.88.76a.76.76,0,0,0-.46,1,.76.76,0,0,0,1,.46A.77.77,0,1,0,7.88.76Z"/><path class="cls-1" d="M7.26,9.71,6.9,9.55,5.63,12.29,5,12,6.08,9.56,5.69,9.4,4.57,11.82l-.33-.14L5.71,8.55l-.35-.17L3.91,11.49l-.68-.32L4.68,8.08,4.3,7.89,2.84,11l-.29-.18,1.13-2.4-.37-.16L2.19,10.7l-.66-.32L2.82,7.63l-.39-.17L1.14,10.24.81,10l1-2-.35-.16L.48,9.9,0,9.66,1.59,6.25l7.09,3.3L7.08,13l-.41-.19,1-2.07-.41-.17-1,2.08L6,12.47Z"/><path class="cls-1" d="M1.76,5.82a1.73,1.73,0,0,0,.14-.31.15.15,0,0,1,.19-.11,9.91,9.91,0,0,1,2,.43A13.24,13.24,0,0,1,7.9,7.71c.42.3.81.64,1.21,1l-.22.46Z"/></g></g></svg>