<?xml version="1.0" encoding="utf-8"?>
<!-- Generator: Adobe Illustrator 25.0.1, SVG Export Plug-In . SVG Version: 6.00 Build 0)  -->
<svg version="1.1" id="Layer_1" xmlns="http://www.w3.org/2000/svg" xmlns:xlink="http://www.w3.org/1999/xlink" x="0px" y="0px"
	 viewBox="0 0 70 70" style="enable-background:new 0 0 70 70;" xml:space="preserve">
<style type="text/css">
	.st0{fill:#FFFFFF;}
</style>
<g id="Layer_2_1_">
	<g id="layer">
		<path class="st0" d="M70,34v2H0v-2H70z"/>
		<path class="st0" d="M15.1,30.9c0-0.4,0.1-0.8,0.1-1.2c0.1-1.2,0.3-2.3,0.5-3.4c1.4-8,8-14.2,16.1-15.1c6.3-0.8,11.7,0.6,16.1,4.1
			c3.5,2.9,5.9,7,6.5,11.5c0.2,1,0.3,2,0.4,3.1l0.2,1.5h3l-0.1-0.9c-0.1-1.6-0.3-3.2-0.6-4.8c-1.5-7.7-5.8-13.1-12.8-16
			c-4.4-1.9-9.3-2.4-14-1.5c-4.7,0.7-9,3-12.3,6.5c-3.1,3.3-5.1,7.4-5.8,11.8c-0.2,1.4-0.3,2.7-0.4,4.3v0.6h3L15.1,30.9z"/>
		<path class="st0" d="M54.3,39c-0.3,0.8-0.7,1.6-1.2,2.4c-0.4,0.6-1,1.1-1.7,1.3c-0.8,0.1-1.4,0.7-1.5,1.5
			c-0.8,3.3-2.2,6.5-4.1,9.3c-4.8,7-13.6,6.5-18,3.5c-2.6-1.8-4.6-4.4-5.7-7.3c-0.5-1.2-0.9-2.5-1.4-3.8c-0.2-0.7-0.5-1.5-0.8-2.2
			c-0.1-0.5-0.5-0.8-1-1c-1-0.2-1.9-0.8-2.3-1.7c-0.4-0.7-0.7-1.4-0.9-2.1l-0.1-0.2h-3.4l0.2,0.7c0.3,1.1,0.8,2.2,1.3,3.1
			c0.7,1.3,1.7,2.3,3,2.9c0.3,0.1,0.5,0.4,0.5,0.7c0.6,2.5,1.6,4.9,2.9,7.1c3.1,5.5,7.4,8.4,12.9,8.9c0.7,0.1,1.3,0.1,2,0.1
			c4,0.1,7.9-1.4,10.8-4.1c1.9-1.7,3.4-3.7,4.4-6c0.6-1.3,1.1-2.7,1.6-4c0.2-0.7,0.5-1.4,0.8-2.1c0-0.2,0.1-0.3,0.2-0.4l0,0
			c2.9-1.5,4-4,4.6-6.2l0.2-0.7h-3.3V39z"/>
	</g>
</g>
</svg>
