<svg xmlns="http://www.w3.org/2000/svg" viewBox="0 0 82.07 82.12"><defs><style>.cls-1{fill:#fff;}</style></defs><title>finger</title><g id="Layer_2" data-name="Layer 2"><g id="layer"><path class="cls-1" d="M0,39c.05-.61.09-1.22.14-1.82A40,40,0,0,1,4,23.43a39.11,39.11,0,0,1,7.78-11.16l.33-.32a1.63,1.63,0,0,1,2.39,0,1.53,1.53,0,0,1,.13,2.24c-.7.87-1.48,1.68-2.2,2.52a36.5,36.5,0,0,0-8.47,18.1,38.16,38.16,0,0,0,.3,13.89c.12.57.19,1.15.31,1.72a1.27,1.27,0,0,1-.47,1.27,1.57,1.57,0,0,1-2.74-.52,13.5,13.5,0,0,1-.79-2.93C.3,46.85.21,45.42.06,44c0-.15,0-.3-.06-.45Z"/><path class="cls-1" d="M63.37,49.08c0,.84,0,1.83-.16,2.81a1.65,1.65,0,0,1-2.42,1.45,1.37,1.37,0,0,1-.92-1.24c-.09-1.68-.18-3.37-.24-5.05a47.36,47.36,0,0,0-1.25-10.2A17.85,17.85,0,0,0,50.92,26a17,17,0,0,0-10.78-2.8c-7.18.44-12.37,4-15.55,10.4a16.05,16.05,0,0,0-1.41,8.65c.13,1.49.42,3,.55,4.44a26.5,26.5,0,0,1-8.94,23.07,5,5,0,0,1-.95.68,1.44,1.44,0,0,1-1.62-.13,1.73,1.73,0,0,1-.79-1.61,1.51,1.51,0,0,1,.41-.75c.63-.7,1.28-1.37,1.93-2a23,23,0,0,0,5.78-9.57,20.38,20.38,0,0,0,.82-7c-.1-1.74-.34-3.47-.55-5.2A21.29,21.29,0,0,1,26.28,25.7a20.38,20.38,0,0,1,12.4-5.92,24.08,24.08,0,0,1,4.72.12c7.46.65,14.8,6.39,17.44,13.18a28.93,28.93,0,0,1,1.61,6.39c.23,1.58.41,3.16.56,4.74S63.25,47.35,63.37,49.08Z"/><path class="cls-1" d="M82.07,40c0,.62,0,1.25,0,1.88a1.65,1.65,0,0,1-1.56,1.65,1.53,1.53,0,0,1-1.78-1.38,11.88,11.88,0,0,1-.12-1.79,37.9,37.9,0,0,0-8-22.59A35.8,35.8,0,0,0,49.66,4.48,37.31,37.31,0,0,0,20.38,9.67c-.56.35-1.11.71-1.69,1a1.59,1.59,0,0,1-2.13-.54,1.62,1.62,0,0,1,.31-2.22,21.94,21.94,0,0,1,3.93-2.6A42.34,42.34,0,0,1,33.63.65,38.85,38.85,0,0,1,44.34.17,40,40,0,0,1,60.9,5.31,40.9,40.9,0,0,1,80.82,31.06,38.42,38.42,0,0,1,82.07,40Z"/><path class="cls-1" d="M53.47,50.14c-.15,2.16-.2,4.33-.46,6.47a56.12,56.12,0,0,1-4.9,17,48.46,48.46,0,0,1-4.29,7.55,1.7,1.7,0,0,1-2.15.84,1.54,1.54,0,0,1-1-2.21c.6-1.13,1.28-2.22,1.94-3.32a53.11,53.11,0,0,0,6.77-18.94,57.55,57.55,0,0,0,.41-9.73A36,36,0,0,0,48.74,39a7.47,7.47,0,0,0-6-5.84,8.36,8.36,0,0,0-9.46,5.15A9.27,9.27,0,0,0,33,42.14c0,.39.06.78.06,1.17A1.65,1.65,0,0,1,31.84,45a1.68,1.68,0,0,1-1.94-.87,5.32,5.32,0,0,1-.46-2.78c.17-4.81,2.31-8.47,6.62-10.65,4.13-2.09,8.1-1.38,11.77,1.25a11.43,11.43,0,0,1,4.68,7.68A60.84,60.84,0,0,1,53.47,50.14Z"/><path class="cls-1" d="M73.12,49.89c-.11,2.44-.1,4.89-.36,7.31-.3,2.8-.81,5.57-1.29,8.35a36,36,0,0,1-.89,3.69,1.72,1.72,0,0,1-2.07,1.21,1.55,1.55,0,0,1-1.28-1.77c.33-1.68.72-3.35,1.06-5a67,67,0,0,0,1.23-9.88,71.27,71.27,0,0,0-.18-10.33,57.53,57.53,0,0,0-1.87-10.57A26.47,26.47,0,0,0,60.07,21a28.73,28.73,0,0,0-8.93-5.73,1.82,1.82,0,0,1-1.24-2.14,1.79,1.79,0,0,1,2.23-1.21A31.21,31.21,0,0,1,71.19,33.14a62.14,62.14,0,0,1,1.33,7.1A72.37,72.37,0,0,1,73.12,49.89Z"/><path class="cls-1" d="M41.2,9.82c1.42.13,3,.24,4.53.43a1.79,1.79,0,0,1,1.47,1.09,1.88,1.88,0,0,1-1.82,2.35,43.12,43.12,0,0,0-5.68-.26,25.39,25.39,0,0,0-11.77,3.14A27.13,27.13,0,0,0,14.32,33.5a9.7,9.7,0,0,1-.63,1.76,1.67,1.67,0,0,1-3,.09,1.14,1.14,0,0,1-.13-.64,11.75,11.75,0,0,1,.85-3.6A31.93,31.93,0,0,1,23.24,15.43a29.8,29.8,0,0,1,12.65-5.17C37.59,10,39.33,10,41.2,9.82Z"/><path class="cls-1" d="M43.59,50.07A46.08,46.08,0,0,1,36,75.16c-1.12,1.71-2.46,3.28-3.68,4.92a1.81,1.81,0,0,1-1.9.67,1.54,1.54,0,0,1-1.16-2,6.44,6.44,0,0,1,1-1.55,43.62,43.62,0,0,0,7.46-13A42.81,42.81,0,0,0,40,53.52a43.58,43.58,0,0,0-.55-11.46,7.08,7.08,0,0,1-.09-.79,1.67,1.67,0,0,1,3.09-1.08A5.52,5.52,0,0,1,43,42.47,58.48,58.48,0,0,1,43.59,50.07Z"/><path class="cls-1" d="M33.74,50.68a35.85,35.85,0,0,1-3.19,14,36.55,36.55,0,0,1-7.77,11.17,2.23,2.23,0,0,1-1.79.92,1.76,1.76,0,0,1-1.48-1,1.33,1.33,0,0,1,.2-1.56c.53-.66,1.09-1.3,1.67-1.93a32.74,32.74,0,0,0,8.14-15.37,36.15,36.15,0,0,0,.72-6.23,9.8,9.8,0,0,1,.16-1.53,1.62,1.62,0,0,1,2.48-1.06c.58.36,1,.79.87,1.58A6.13,6.13,0,0,0,33.74,50.68Z"/><path class="cls-1" d="M14.09,49.85A17,17,0,0,1,8.46,62.24,1.71,1.71,0,0,1,6,62.38a1.8,1.8,0,0,1,.26-2.81,1.91,1.91,0,0,0,.33-.25,14,14,0,0,0,3.69-6.45,17.46,17.46,0,0,0,0-6.16c-.24-1.79-.37-3.6-.53-5.4a4,4,0,0,1,.06-.92A1.59,1.59,0,0,1,11.39,39a1.61,1.61,0,0,1,1.69,1.32c.11.7.11,1.42.2,2.12.21,1.79.44,3.57.65,5.35C14,48.43,14,49.12,14.09,49.85Z"/><path class="cls-1" d="M62.73,58.67c-.2,1.13-.44,2.74-.77,4.34a67,67,0,0,1-4.78,14.48,10,10,0,0,1-.75,1.36,1.63,1.63,0,0,1-2.93-1.27,12.85,12.85,0,0,1,.71-2,63.64,63.64,0,0,0,4.93-16.75c.06-.38.14-.76.23-1.14a1.71,1.71,0,0,1,2-1.4C62.2,56.42,62.77,57.19,62.73,58.67Z"/></g></g></svg>