<?xml version="1.0" encoding="utf-8"?>
<!-- Generator: Adobe Illustrator 23.0.1, SVG Export Plug-In . SVG Version: 6.00 Build 0)  -->
<svg version="1.1" id="Layer_1" xmlns="http://www.w3.org/2000/svg" xmlns:xlink="http://www.w3.org/1999/xlink" x="0px" y="0px"
	 viewBox="0 0 18.9 15" style="enable-background:new 0 0 18.9 15;" xml:space="preserve">
<style type="text/css">
	.st0{fill:#0C6D72;}
</style>
<title>home</title>
<g>
	<g id="layer">
		<path class="st0" d="M9.4,3L2.7,8.6l0,0l0,0v5.6c0,0.4,0.3,0.8,0.8,0.8h4.5v-4.4h3V15h4.5c0.2,0,0.4-0.1,0.5-0.2
			c0.1-0.1,0.2-0.3,0.2-0.5V8.6c0,0,0-0.1,0-0.1L9.4,3z"/>
		<path class="st0" d="M18.7,7.3l-2.6-2.1V0.4c0-0.1,0-0.2-0.1-0.3C16,0.1,15.9,0,15.8,0h-2.2c-0.1,0-0.2,0-0.3,0.1
			c-0.1,0.1-0.1,0.2-0.1,0.3v2.3l-2.9-2.4c-0.5-0.4-1.2-0.4-1.8,0l-8.4,7C0,7.4,0,7.5,0,7.6c0,0.1,0,0.2,0.1,0.3l0.7,0.9
			C0.9,8.8,1,8.8,1,8.8c0.1,0,0.2,0,0.3-0.1L9.4,2l8.1,6.8c0.1,0.1,0.2,0.1,0.3,0.1l0,0c0.1,0,0.2-0.1,0.2-0.1l0.7-0.9
			c0.1-0.1,0.1-0.2,0.1-0.3C18.8,7.5,18.8,7.4,18.7,7.3z"/>
	</g>
</g>
</svg>
