<?xml version="1.0" encoding="utf-8"?>
<!-- Generator: Adobe Illustrator 23.0.1, SVG Export Plug-In . SVG Version: 6.00 Build 0)  -->
<svg version="1.1" id="Layer_1" xmlns="http://www.w3.org/2000/svg" xmlns:xlink="http://www.w3.org/1999/xlink" x="0px" y="0px"
	 viewBox="0 0 50.4 50" style="enable-background:new 0 0 50.4 50;" xml:space="preserve">
<style type="text/css">
	.st0{fill:#0C6D72;}
</style>
<title>Asset 1</title>
<path class="st0" d="M49.7,27.6c-1-0.6-2-1.1-3-1.5c-0.6-0.2-0.9-0.8-0.8-1.4c0-2.6,0-5.3,0-7.9c0-0.7-0.4-1.5-1.1-1.8
	c-2.6-1.4-5.1-3-7.7-4.2c-2-0.9-2.4-2.2-2.1-4.1c0-0.2,0-0.3,0.1-0.5c0.2-0.8,0-1.2-0.8-1.5c-0.4-0.2-0.9-0.4-1.3-0.6
	c-2.3-1.2-4.5-2.4-6.7-3.7c-0.7-0.5-1.7-0.5-2.4,0c-1.8,1.2-3.7,2.2-5.6,3.1c-2.4,1-3.5,2.5-3,5.1c0.1,0.7-0.3,1.1-0.9,1.5
	c-3,1.5-5.8,3.2-8.8,4.8c-0.9,0.4-1.4,1.3-1.3,2.2c0.1,1.7-0.1,3.4,0.1,5c0.4,2.8-0.5,4.6-3.2,5.4c-0.1,0-0.1,0.1-0.2,0.1
	c-0.7,0.3-1.1,1-1,1.7c0,1.4,0,2.8,0,4.2c0,1.5,0.1,2.9,0,4.4c-0.1,0.8,0.4,1.5,1.1,1.8c2.4,1.3,4.8,2.6,7.1,4
	c0.9,0.7,2.2,0.7,3.1,0c0.6-0.5,1.4-0.5,2,0c3.6,2,7.2,4,10.8,6c0.6,0.4,1.4,0.4,2,0c3.4-2,6.9-3.9,10.4-5.9c0.7-0.6,1.8-0.6,2.6,0
	c0.7,0.6,1.7,0.6,2.4,0c2.4-1.4,4.9-2.8,7.4-4.1c0.9-0.3,1.4-1.2,1.3-2.1c0-3,0.2-5.9,0.2-8.9C50.4,28.2,50.1,27.8,49.7,27.6z
	 M24.8,2.4c0.3-0.1,0.6,0,0.8,0.1c1.9,1,3.9,2.1,6,3.3c-2.1,1.2-4.1,2.3-6.1,3.3c-0.3,0.1-0.6,0-0.9-0.1c-2-1-3.9-2.1-6-3.2
	C20.8,4.6,22.8,3.5,24.8,2.4z M32.8,7.7c0,2.3,0,4.4,0,6.6c0,0.4-0.1,0.7-0.4,0.9c-2,1.1-3.9,2.2-6.1,3.4c0-2.5,0-4.7,0-7
	c0-0.2,0.3-0.5,0.5-0.6C28.7,9.9,30.7,8.9,32.8,7.7z M17.5,7.7c2.1,1.1,4.2,2.2,6.1,3.3c0.3,0.2,0.4,0.4,0.4,0.7c0,2.2,0,4.4,0,6.8
	c-2.2-1.1-4.2-2.3-6.2-3.4c-0.2-0.1-0.3-0.4-0.3-0.6C17.5,12.3,17.5,10.1,17.5,7.7z M8.8,41.4c-1.3-0.8-2.6-1.4-3.9-2
	c-2.3-0.9-3.1-2.4-2.7-4.7c0.1-1.4,0.1-2.7,0-4.1c2.2,1.1,4.1,2.2,6.2,3.3c0.2,0.2,0.4,0.6,0.4,0.9C8.8,36.9,8.8,39,8.8,41.4z
	 M9.2,31.9c-2-1-3.9-2.1-6-3.2c1.6-0.9,3.1-1.6,4.5-2.5c1.2-1,2.9-1,4.1,0c1.4,0.9,2.9,1.6,4.5,2.5c-2.1,1.2-4,2.3-6,3.2
	C9.9,32,9.5,32,9.2,31.9z M11,41.5c0-2.5,0-4.8,0-7.1c0-0.2,0.1-0.4,0.3-0.5c2-1.1,4-2.1,6.2-3.3c0,2.4,0,4.5,0,6.8
	c0,0.3-0.2,0.6-0.5,0.8C15.1,39.3,13.1,40.3,11,41.5z M31.7,44c-1.9,1.1-3.9,2.2-5.9,3.3c-0.4,0.2-0.8,0.2-1.2,0.1
	c-3.3-1.8-6.5-3.6-10-5.5c1.4-0.8,2.7-1.5,3.8-2.2c0.8-0.3,1.2-1,1.1-1.8c0-2.5,0-4.9,0-7.3c0-0.6,0.1-1.1,0.1-1.7
	c0-0.5-0.2-1-0.6-1.3c-2.5-1.4-5.1-2.6-7.6-4.1c-1-0.8-2.3-0.8-3.3,0c-0.5,0.3-1,0.6-1.6,0.9c0-2.5,0-4.8,0-7.1
	c0-0.3,0.2-0.6,0.4-0.7c2.7-1.5,5.4-3,8.3-4.6c-0.1,1-0.1,2,0,3c0.1,0.6,0.4,1.1,0.9,1.5c2.6,1.5,5.3,3.1,8.1,4.5
	c0.5,0.2,1.1,0.2,1.6,0c2.7-1.4,5.3-3,8-4.4c0.7-0.4,1.1-1.1,1-1.9c0-0.8,0-1.7,0-2.8c1.7,1.1,3.5,2.1,5.3,2.9
	c2.8,1.1,4.1,2.9,3.5,5.9c-0.1,1.2-0.1,2.4,0,3.6c-0.2,0-0.5-0.2-0.7-0.3c-1.7-1.4-3.3-1.2-5.1,0c-2,1.3-4.1,2.4-6.3,3.5
	c-0.7,0.3-1.1,1-1,1.7c0.1,2.9,0,5.8,0.1,8.7c0,0.6,0.4,1.2,0.9,1.6c1.3,0.8,2.6,1.5,4.1,2.3L31.7,44z M39.3,37.1
	c-0.1,1.5-0.1,2.9,0,4.4c-2.1-1.2-4.1-2.3-6-3.4c-0.3-0.2-0.6-0.6-0.6-1c0-2.1,0-4.2,0-6.5c1.3,0.8,2.6,1.5,4,2.1
	C38.9,33.5,39.6,34.9,39.3,37.1z M41,32c-0.3,0.1-0.7,0.1-1,0c-2-1-4-2.1-6.1-3.4c2.2-1.2,4.2-2.3,6.2-3.4c0.3,0,0.5,0,0.7,0.1
	c2,1.1,3.9,2.2,6.1,3.4C44.8,29.9,42.9,31,41,32z M48,37.5c0,0.2-0.1,0.4-0.3,0.5c-2,1.1-4,2.2-6.2,3.4c0-2.3,0-4.5,0-6.6
	c0-0.4,0.1-0.7,0.4-0.9c1.9-1.1,3.9-2.1,6.1-3.3C48,33,48,35.3,48,37.5z"/>
</svg>
