<?xml version="1.0" encoding="utf-8"?>
<!-- Generator: Adobe Illustrator 25.0.1, SVG Export Plug-In . SVG Version: 6.00 Build 0)  -->
<svg version="1.1" id="Layer_1" xmlns="http://www.w3.org/2000/svg" xmlns:xlink="http://www.w3.org/1999/xlink" x="0px" y="0px"
	 viewBox="0 0 589.6 261.3" style="enable-background:new 0 0 589.6 261.3;" xml:space="preserve">
<style type="text/css">
	.st0{enable-background:new    ;}
	.st1{fill:#FFFFFF;}
	.st2{fill:#171F21;stroke:#FFFFFF;stroke-width:0.1;stroke-miterlimit:10;}
	.st3{fill:none;stroke:#FA1402;stroke-width:2;stroke-miterlimit:10;}
	.st4{fill:#FA1402;}
</style>
<g id="Layer_2_1_">
	<g id="Web_App">
		<g class="st0">
			<path class="st1" d="M3.5,258.8c-0.2,0-0.4,0-0.6,0c-0.2,0-0.5,0-0.7-0.1s-0.5-0.1-0.7-0.1s-0.5-0.1-0.7-0.2v-0.9
				c0.5,0.1,1,0.2,1.5,0.3c0.5,0.1,0.9,0.1,1.3,0.1c0.7,0,1.2-0.1,1.6-0.4c0.4-0.3,0.5-0.6,0.5-1.1c0-0.3-0.1-0.5-0.2-0.7
				s-0.2-0.3-0.4-0.5c-0.2-0.1-0.4-0.2-0.7-0.3c-0.3-0.1-0.5-0.2-0.8-0.3c-0.5-0.1-0.9-0.3-1.2-0.4c-0.3-0.2-0.6-0.3-0.8-0.5
				s-0.4-0.4-0.5-0.7s-0.2-0.6-0.2-0.9c0-0.4,0.1-0.7,0.2-1s0.4-0.6,0.6-0.8c0.3-0.2,0.6-0.4,1-0.5s0.8-0.2,1.3-0.2
				c0.3,0,0.7,0,1.1,0.1s0.8,0.1,1.3,0.2v0.9c-0.4-0.1-0.8-0.2-1.2-0.2s-0.7-0.1-1.1-0.1c-0.6,0-1.1,0.1-1.5,0.4
				c-0.4,0.3-0.5,0.6-0.5,1.1c0,0.2,0,0.4,0.1,0.6c0.1,0.2,0.2,0.3,0.3,0.5c0.2,0.1,0.4,0.3,0.6,0.4c0.3,0.1,0.6,0.2,0.9,0.3
				c0.4,0.1,0.8,0.2,1.1,0.4c0.3,0.1,0.6,0.3,0.9,0.5c0.2,0.2,0.4,0.4,0.6,0.7c0.1,0.3,0.2,0.6,0.2,1c0,0.8-0.3,1.4-0.8,1.8
				S4.5,258.8,3.5,258.8z"/>
			<path class="st1" d="M11.7,258.8c-0.6,0-1.2-0.1-1.6-0.2c-0.4-0.1-0.8-0.4-1.1-0.7s-0.5-0.7-0.6-1.2s-0.2-1-0.2-1.7v-5.3h1.1v5.3
				c0,1,0.2,1.7,0.6,2.2c0.4,0.4,1,0.7,1.9,0.7s1.5-0.2,1.9-0.6s0.6-1.2,0.6-2.2v-5.3h1.1v5.3c0,0.6-0.1,1.2-0.2,1.7
				c-0.1,0.5-0.3,0.9-0.6,1.2c-0.3,0.3-0.7,0.5-1.1,0.7C12.8,258.7,12.3,258.8,11.7,258.8z"/>
			<path class="st1" d="M17.3,249.8h0.9l4.6,6.2l0.7,1.1h0.1v-7.2h1v8.9h-0.9l-4.6-6.2l-0.7-1h-0.1v7.2h-1V249.8z"/>
		</g>
		<g class="st0">
			<path class="st1" d="M84.4,249.8h1.5l2.3,5.4l0.7,1.9H89l0.7-1.9l2.3-5.4h1.5v8.9h-1v-7.5h-0.1l-1,2.5l-2,4.7h-1l-2-4.7l-1-2.5
				h-0.1v7.5h-1L84.4,249.8L84.4,249.8z"/>
			<path class="st1" d="M99,258.8c-1.2,0-2.2-0.4-2.9-1.1c-0.7-0.8-1-1.9-1-3.4s0.3-2.6,1-3.4c0.7-0.8,1.6-1.2,2.9-1.2
				c1.2,0,2.2,0.4,2.9,1.2c0.7,0.8,1,1.9,1,3.4s-0.3,2.6-1,3.4C101.2,258.4,100.2,258.8,99,258.8z M99,257.9c0.9,0,1.6-0.3,2.1-0.9
				s0.7-1.5,0.7-2.7c0-2.4-0.9-3.7-2.8-3.7c-0.9,0-1.6,0.3-2.1,0.9c-0.5,0.6-0.7,1.5-0.7,2.8c0,1.2,0.2,2.2,0.7,2.7
				S98.1,257.9,99,257.9z"/>
			<path class="st1" d="M104.5,249.8h0.9l4.6,6.2l0.7,1.1h0.1v-7.2h1v8.9h-0.9l-4.6-6.2l-0.7-1h-0.1v7.2h-1V249.8z"/>
		</g>
		<g class="st0">
			<path class="st1" d="M187.5,250.7h-2.9v-0.9h6.8v0.9h-2.9v8h-1.1L187.5,250.7L187.5,250.7z"/>
			<path class="st1" d="M196.2,258.8c-0.6,0-1.2-0.1-1.6-0.2c-0.4-0.1-0.8-0.4-1.1-0.7s-0.5-0.7-0.6-1.2s-0.2-1-0.2-1.7v-5.3h1.1
				v5.3c0,1,0.2,1.7,0.6,2.2c0.4,0.4,1,0.7,1.9,0.7s1.5-0.2,1.9-0.6s0.6-1.2,0.6-2.2v-5.3h1.1v5.3c0,0.6-0.1,1.2-0.2,1.7
				c-0.1,0.5-0.3,0.9-0.6,1.2c-0.3,0.3-0.7,0.5-1.1,0.7C197.4,258.7,196.8,258.8,196.2,258.8z"/>
			<path class="st1" d="M201.8,249.8h5.6v0.9h-4.6v3h4.3v0.9h-4.3v3.2h4.7v0.9h-5.7V249.8z"/>
		</g>
		<g class="st0">
			<path class="st1" d="M280.6,249.8h1.1l1.6,6l0.4,1.7h0.1l0.4-1.7l1.7-6h1.1l1.7,6l0.4,1.7h0.1l0.4-1.7l1.6-6h1.1l-2.4,8.9h-1.4
				l-1.6-5.8l-0.3-1.6h-0.1l-0.3,1.6l-1.6,5.8H283L280.6,249.8z"/>
			<path class="st1" d="M293.6,249.8h5.6v0.9h-4.6v3h4.3v0.9h-4.3v3.2h4.7v0.9h-5.7V249.8z"/>
			<path class="st1" d="M303.2,258.8c-0.5,0-0.9,0-1.3,0s-0.7-0.1-0.9-0.1v-8.8c0.2,0,0.4,0,0.7,0c0.2,0,0.5,0,0.7,0s0.4,0,0.6,0
				s0.4,0,0.5,0c1.6,0,2.7,0.4,3.5,1.1c0.7,0.7,1.1,1.9,1.1,3.4c0,0.8-0.1,1.5-0.3,2.1c-0.2,0.6-0.5,1-0.9,1.4s-0.9,0.6-1.5,0.8
				C304.8,258.7,304.1,258.8,303.2,258.8z M303.5,257.9c0.6,0,1.1-0.1,1.5-0.2s0.8-0.4,1.1-0.7c0.3-0.3,0.5-0.7,0.6-1.1
				s0.2-1,0.2-1.7c0-0.6-0.1-1.2-0.2-1.6s-0.3-0.8-0.6-1.1c-0.3-0.3-0.6-0.5-1-0.6s-0.9-0.2-1.5-0.2c-0.2,0-0.5,0-0.7,0
				c-0.3,0-0.6,0-0.8,0.1v7.1c0.3,0,0.5,0.1,0.8,0.1C303,257.9,303.3,257.9,303.5,257.9z"/>
		</g>
		<g class="st0">
			<path class="st1" d="M383,250.7h-2.9v-0.9h6.8v0.9H384v8h-1V250.7z"/>
			<path class="st1" d="M388.2,249.8h1.1v3.9h4.9v-3.9h1.1v8.9h-1.1v-4.1h-4.9v4.1h-1.1V249.8z"/>
			<path class="st1" d="M400.9,258.8c-0.6,0-1.2-0.1-1.6-0.2s-0.8-0.4-1.1-0.7s-0.5-0.7-0.6-1.2s-0.2-1-0.2-1.7v-5.3h1.1v5.3
				c0,1,0.2,1.7,0.6,2.2c0.4,0.4,1,0.7,1.9,0.7s1.5-0.2,1.9-0.6s0.6-1.2,0.6-2.2v-5.3h1.1v5.3c0,0.6-0.1,1.2-0.2,1.7
				s-0.3,0.9-0.6,1.2s-0.7,0.5-1.1,0.7C402.1,258.7,401.5,258.8,400.9,258.8z"/>
		</g>
		<g class="st0">
			<path class="st1" d="M482.8,249.8h5.6v0.9h-4.5v3.1h4.1v0.9h-4.1v4h-1.1V249.8z"/>
			<path class="st1" d="M493.2,255.4c-0.2,0-0.3,0-0.5,0s-0.4,0-0.5,0c-0.2,0-0.4,0-0.6,0s-0.4,0-0.6-0.1v3.3h-1.1v-8.8
				c0.8-0.1,1.5-0.2,2.2-0.2c1.4,0,2.4,0.2,3.1,0.7s1,1.2,1,2.2c0,0.7-0.2,1.3-0.5,1.7s-0.8,0.7-1.5,0.9l2.2,3.5h-1.2L493.2,255.4z
				 M492.3,254.6c0.5,0,0.9,0,1.3-0.1c0.3-0.1,0.6-0.2,0.9-0.3c0.2-0.2,0.4-0.4,0.5-0.6c0.1-0.3,0.2-0.6,0.2-0.9
				c0-0.7-0.2-1.2-0.6-1.5s-1.1-0.5-2.1-0.5c-0.2,0-0.4,0-0.7,0c-0.2,0-0.5,0-0.6,0.1v3.8c0.1,0,0.3,0.1,0.6,0.1
				S492.1,254.6,492.3,254.6z"/>
			<path class="st1" d="M497.9,249.8h1.1v8.9h-1.1V249.8z"/>
		</g>
		<g class="st0">
			<path class="st1" d="M571.2,258.8c-0.2,0-0.4,0-0.6,0c-0.2,0-0.5,0-0.7-0.1s-0.5-0.1-0.7-0.1s-0.5-0.1-0.7-0.2v-0.9
				c0.5,0.1,1,0.2,1.5,0.3c0.5,0.1,0.9,0.1,1.3,0.1c0.7,0,1.2-0.1,1.6-0.4c0.4-0.3,0.5-0.6,0.5-1.1c0-0.3-0.1-0.5-0.2-0.7
				c-0.1-0.2-0.2-0.3-0.4-0.5s-0.4-0.2-0.7-0.3s-0.5-0.2-0.8-0.3c-0.5-0.1-0.9-0.3-1.2-0.4c-0.3-0.2-0.6-0.3-0.8-0.5
				s-0.4-0.4-0.5-0.7s-0.2-0.6-0.2-0.9c0-0.4,0.1-0.7,0.2-1c0.1-0.3,0.4-0.6,0.6-0.8s0.6-0.4,1-0.5s0.8-0.2,1.3-0.2
				c0.3,0,0.7,0,1.1,0.1c0.4,0.1,0.8,0.1,1.3,0.2v0.9c-0.4-0.1-0.8-0.2-1.2-0.2c-0.4-0.1-0.7-0.1-1.1-0.1c-0.6,0-1.1,0.1-1.5,0.4
				c-0.4,0.3-0.5,0.6-0.5,1.1c0,0.2,0,0.4,0.1,0.6c0.1,0.2,0.2,0.3,0.3,0.5c0.2,0.1,0.4,0.3,0.6,0.4c0.3,0.1,0.6,0.2,0.9,0.3
				c0.4,0.1,0.8,0.2,1.1,0.4c0.3,0.1,0.6,0.3,0.9,0.5c0.2,0.2,0.4,0.4,0.6,0.7c0.1,0.3,0.2,0.6,0.2,1c0,0.8-0.3,1.4-0.8,1.8
				S572.2,258.8,571.2,258.8z"/>
			<path class="st1" d="M574.9,258.6l3.2-8.8h1.6l3.2,8.8v0.1h-1.1l-1-2.6h-4l-0.9,2.6L574.9,258.6L574.9,258.6z M580.6,255.2
				l-1.1-3l-0.6-1.5h-0.1l-0.6,1.5l-1.1,3H580.6z"/>
			<path class="st1" d="M586.1,250.7h-2.9v-0.9h6.8v0.9h-2.9v8H586v-8H586.1z"/>
		</g>
		<rect x="98.1" y="59.2" class="st2" width="49.1" height="59.2"/>
		<rect x="147.2" y="59.2" class="st2" width="49.1" height="59.2"/>
		<rect x="196.3" y="59.2" class="st2" width="49.1" height="59.2"/>
		<rect x="245.4" y="59.2" class="st2" width="49.1" height="59.2"/>
		<rect x="294.5" y="59.2" class="st2" width="49.1" height="59.2"/>
		<rect x="343.6" y="59.2" class="st2" width="49.1" height="59.2"/>
		<rect x="392.7" y="59.2" class="st2" width="49.1" height="59.2"/>
		<rect x="441.8" y="59.2" class="st2" width="49.1" height="59.2"/>
		<rect x="490.9" y="59.2" class="st2" width="49.1" height="59.2"/>
		<rect x="540" y="59.2" class="st2" width="49.1" height="59.2"/>
		<rect x="98.1" y="118.4" class="st2" width="49.1" height="59.2"/>
		<rect x="147.2" y="118.4" class="st2" width="49.1" height="59.2"/>
		<rect x="196.3" y="118.4" class="st2" width="49.1" height="59.2"/>
		<rect x="245.4" y="118.4" class="st2" width="49.1" height="59.2"/>
		<rect x="294.5" y="118.4" class="st2" width="49.1" height="59.2"/>
		<rect x="343.6" y="118.4" class="st2" width="49.1" height="59.2"/>
		<rect x="392.7" y="118.4" class="st2" width="49.1" height="59.2"/>
		<rect x="441.8" y="118.4" class="st2" width="49.1" height="59.2"/>
		<rect x="490.9" y="118.4" class="st2" width="49.1" height="59.2"/>
		<rect x="540" y="118.4" class="st2" width="49.1" height="59.2"/>
		<rect x="98.1" y="177.6" class="st2" width="49.1" height="59.2"/>
		<rect x="147.2" y="177.6" class="st2" width="49.1" height="59.2"/>
		<rect x="0.2" y="59.2" class="st2" width="49.1" height="59.2"/>
		<rect x="49.3" y="59.2" class="st2" width="49.1" height="59.2"/>
		<rect x="98.1" y="0.1" class="st2" width="49.1" height="59.2"/>
		<rect x="147.2" y="0.1" class="st2" width="49.1" height="59.2"/>
		<rect x="196.3" y="0.1" class="st2" width="49.1" height="59.2"/>
		<rect x="245.4" y="0.1" class="st2" width="49.1" height="59.2"/>
		<rect x="294.5" y="0.1" class="st2" width="49.1" height="59.2"/>
		<rect x="343.6" y="0.1" class="st2" width="49.1" height="59.2"/>
		<rect x="392.7" y="0.1" class="st2" width="49.1" height="59.2"/>
		<rect x="441.8" y="0.1" class="st2" width="49.1" height="59.2"/>
		<rect x="490.9" y="0.1" class="st2" width="49.1" height="59.2"/>
		<rect x="540" y="0.1" class="st2" width="49.1" height="59.2"/>
		<rect x="0.2" y="0.1" class="st2" width="49.1" height="59.2"/>
		<rect x="49.3" y="0.1" class="st2" width="49.1" height="59.2"/>
		<rect x="0.2" y="118.4" class="st2" width="49.1" height="59.2"/>
		<rect x="49.3" y="118.4" class="st2" width="49.1" height="59.2"/>
		<rect x="0.2" y="177.6" class="st2" width="49.1" height="59.2"/>
		<rect x="49.3" y="177.6" class="st2" width="49.1" height="59.2"/>
		<rect x="196.3" y="177.6" class="st2" width="49.1" height="59.2"/>
		<rect x="245.4" y="177.6" class="st2" width="49.1" height="59.2"/>
		<rect x="294.5" y="177.6" class="st2" width="49.1" height="59.2"/>
		<rect x="343.6" y="177.6" class="st2" width="49.1" height="59.2"/>
		<rect x="392.7" y="177.6" class="st2" width="49.1" height="59.2"/>
		<rect x="441.8" y="177.6" class="st2" width="49.1" height="59.2"/>
		<rect x="490.9" y="177.6" class="st2" width="49.1" height="59.2"/>
		<rect x="540" y="177.6" class="st2" width="49.1" height="59.2"/>
		<path class="st3" d="M589.1,189.8c-41.2-23.1-82.5-46.2-123.7-69.3c-16.8-9.4-38.3-9.8-56.7-14.9C373.5,95.7,339.1,85,304.4,73
			c-5.8-2.2-11.8-3.9-17.9-5.2c-5.5-0.8-11-1.2-16.5-1.2c-49-0.9-98.2,2-147.1-1.3c-29.3-2-57-4.3-86,1L0.2,73"/>
		<g class="st0">
			<path class="st4" d="M7.2,55.5l-1.3-0.2v-0.2l3.7-8.8H4.8l-0.1-1.2L4.8,45H11l0.3,0.8v0.3l-3.7,9.2L7.2,55.5z"/>
			<path class="st4" d="M16.2,55.5c-1.3,0-2.3-0.4-3-1.3c-0.7-0.9-1-2.2-1-4s0.3-3.1,1-4s1.7-1.3,3-1.3s2.3,0.4,3,1.3
				c0.7,0.9,1,2.2,1,4s-0.3,3.1-1,4C18.5,55,17.5,55.5,16.2,55.5z M16.2,54.1c0.8,0,1.4-0.3,1.8-1c0.4-0.6,0.6-1.7,0.6-3.1
				s-0.2-2.4-0.6-3.1c-0.4-0.6-1-1-1.8-1c-0.8,0-1.4,0.3-1.9,1c-0.4,0.6-0.6,1.7-0.6,3.1s0.2,2.4,0.6,3.1S15.4,54.1,16.2,54.1z"/>
			<path class="st4" d="M24.2,51.4c-0.9,0-1.5-0.3-2-0.8s-0.7-1.4-0.7-2.5s0.2-1.9,0.7-2.5s1.1-0.8,2-0.8s1.5,0.3,2,0.8
				s0.7,1.4,0.7,2.5s-0.2,1.9-0.7,2.5S25,51.4,24.2,51.4z M24.2,50.4c0.5,0,0.9-0.2,1.1-0.5c0.2-0.4,0.4-0.9,0.4-1.7
				s-0.1-1.4-0.4-1.7c-0.2-0.4-0.6-0.5-1.1-0.5s-0.9,0-1.2,0.4s-0.4,0.9-0.4,1.7s0.1,1.4,0.4,1.7C23.3,50.2,23.7,50.4,24.2,50.4z
				 M29.7,44.9h1.4l-4.8,10.4h-1.4L29.7,44.9z M31.9,55.5c-0.9,0-1.5-0.3-2-0.8c-0.5-0.6-0.7-1.4-0.7-2.5s0.2-1.9,0.7-2.5
				s1.1-0.8,2-0.8s1.5,0.3,2,0.8s0.7,1.4,0.7,2.5s-0.2,1.9-0.7,2.5S32.7,55.5,31.9,55.5z M31.9,54.4c0.5,0,0.9-0.2,1.1-0.5
				c0.2-0.4,0.4-0.9,0.4-1.7s-0.1-1.4-0.4-1.7c-0.2-0.4-0.6-0.5-1.1-0.5s-0.9,0.2-1.1,0.5s-0.4,0.9-0.4,1.7s0.1,1.4,0.4,1.7
				S31.3,54.4,31.9,54.4z"/>
		</g>
		<g class="st0">
			<path class="st4" d="M555.5,156.4c-0.4,0-0.8,0-1.2-0.1s-0.8-0.1-1.1-0.2V155h0.1c0.1,0,0.3,0.1,0.4,0.1s0.3,0,0.5,0.1
				c0.2,0,0.4,0,0.5,0c0.2,0,0.3,0,0.5,0c0.9,0,1.5-0.2,1.9-0.5s0.6-0.8,0.6-1.4c0-0.6-0.2-1-0.6-1.3c-0.4-0.3-1-0.4-1.9-0.4h-0.9
				v-1.2h0.9c0.8,0,1.4-0.1,1.7-0.4c0.3-0.3,0.5-0.7,0.5-1.3s-0.2-1-0.5-1.3s-0.9-0.4-1.7-0.4c-0.2,0-0.5,0-0.9,0s-0.7,0.1-1.1,0.1
				h-0.1v-1.2c0.3-0.1,0.7-0.1,1.2-0.2c0.4,0,0.8-0.1,1.2-0.1c1.2,0,2.1,0.2,2.7,0.7s0.9,1.2,0.9,2.1c0,0.6-0.1,1.1-0.4,1.5
				s-0.7,0.7-1.3,0.8v0.1c0.6,0.1,1.1,0.4,1.5,0.8c0.3,0.4,0.5,1,0.5,1.6c0,1-0.3,1.7-1,2.2C557.8,156.2,556.8,156.4,555.5,156.4z"
				/>
			<path class="st4" d="M564.9,156.4c-1.3,0-2.3-0.4-3-1.3c-0.7-0.9-1-2.2-1-4s0.3-3.1,1-4s1.7-1.3,3-1.3s2.3,0.4,3,1.3
				c0.7,0.9,1,2.2,1,4s-0.3,3.1-1,4C567.2,156,566.2,156.4,564.9,156.4z M564.9,155.1c0.8,0,1.4-0.3,1.8-1c0.4-0.6,0.6-1.7,0.6-3.1
				s-0.2-2.4-0.6-3.1c-0.4-0.6-1-1-1.8-1s-1.4,0.3-1.9,1c-0.4,0.6-0.6,1.7-0.6,3.1s0.2,2.4,0.6,3.1S564,155.1,564.9,155.1z"/>
			<path class="st4" d="M572.8,152.4c-0.9,0-1.5-0.3-2-0.8c-0.5-0.6-0.7-1.4-0.7-2.5s0.2-1.9,0.7-2.5s1.1-0.8,2-0.8s1.5,0.3,2,0.8
				c0.5,0.6,0.7,1.4,0.7,2.5s-0.2,1.9-0.7,2.5C574.4,152.1,573.7,152.4,572.8,152.4z M572.8,151.3c0.5,0,0.9-0.2,1.1-0.5
				c0.2-0.4,0.4-0.9,0.4-1.7s-0.1-1.4-0.4-1.7c-0.2-0.4-0.6-0.5-1.1-0.5s-0.9,0.2-1.1,0.5c-0.2,0.4-0.4,0.9-0.4,1.7s0.1,1.4,0.4,1.7
				C571.9,151.2,572.3,151.3,572.8,151.3z M578.4,145.9h1.4l-4.8,10.4h-1.4L578.4,145.9z M580.5,156.4c-0.9,0-1.5-0.3-2-0.8
				c-0.5-0.6-0.7-1.4-0.7-2.5s0.2-1.9,0.7-2.5s1.1-0.8,2-0.8s1.5,0.3,2,0.8c0.5,0.6,0.7,1.4,0.7,2.5s-0.2,1.9-0.7,2.5
				S581.4,156.4,580.5,156.4z M580.5,155.4c0.5,0,0.9-0.2,1.1-0.5c0.2-0.4,0.4-0.9,0.4-1.7s-0.1-1.4-0.4-1.7
				c-0.2-0.4-0.6-0.5-1.1-0.5s-0.9,0.2-1.1,0.5c-0.2,0.4-0.4,0.9-0.4,1.7s0.1,1.4,0.4,1.7C579.6,155.2,580,155.4,580.5,155.4z"/>
		</g>
	</g>
</g>
</svg>
