<?xml version="1.0" encoding="utf-8"?>
<!-- Generator: Adobe Illustrator 24.2.2, SVG Export Plug-In . SVG Version: 6.00 Build 0)  -->
<svg version="1.1" id="Layer_1" xmlns="http://www.w3.org/2000/svg" xmlns:xlink="http://www.w3.org/1999/xlink" x="0px" y="0px"
	 viewBox="0 0 1219.1 588.2" style="enable-background:new 0 0 1219.1 588.2;" xml:space="preserve">
<style type="text/css">
	.st0{fill:#0C6D72;}
	.st1{fill:#063739;}
	.st2{fill:#30721E;}
	.st3{fill:#F4F4F4;}
	.st4{fill:#E52033;}
	.st5{fill:#FFFFFF;}
</style>
<g>
	<rect x="187.9" y="95" class="st0" width="32.5" height="1"/>
	<polygon class="st0" points="218.9,100.4 227.6,95.5 218.9,90.5 	"/>
	<rect x="434.6" y="95" class="st0" width="36.5" height="1"/>
	<polygon class="st0" points="469.6,100.4 478.3,95.5 469.6,90.5 	"/>
	<rect x="896.2" y="50.5" class="st1" width="207" height="90"/>
	<path class="st0" d="M1102.2,51.5v88h-205v-88H1102.2 M1103.2,50.4h-207v90h207V50.4z"/>
	<circle class="st2" cx="151.9" cy="95.5" r="36"/>
	<path class="st3" d="M136.4,101.5c-0.3,0-0.6,0-1,0s-0.7-0.1-1.1-0.1c-0.4,0-0.7-0.1-1.1-0.2c-0.4-0.1-0.7-0.2-1.1-0.2v-1.4
		c0.7,0.2,1.4,0.3,2.2,0.4c0.6,0.1,1.3,0.2,2,0.2c0.8,0.1,1.7-0.1,2.4-0.6c0.5-0.4,0.9-1,0.8-1.7c0-0.3-0.1-0.7-0.2-1
		c-0.2-0.3-0.4-0.5-0.6-0.7c-0.3-0.2-0.6-0.4-1-0.5s-0.8-0.3-1.2-0.4c-0.6-0.2-1.2-0.4-1.8-0.6c-0.5-0.2-0.9-0.5-1.2-0.8
		s-0.6-0.7-0.7-1.1c-0.2-0.4-0.2-0.9-0.2-1.4s0.1-1,0.3-1.5s0.5-0.9,0.9-1.2s1-0.6,1.5-0.8c0.6-0.2,1.3-0.3,1.9-0.3
		c0.5,0,1.1,0,1.6,0.1c0.6,0.1,1.2,0.2,1.9,0.3l-0.1,1.3c-0.6-0.2-1.2-0.3-1.7-0.3c-0.5-0.1-1.1-0.1-1.6-0.1c-0.8,0-1.6,0.2-2.2,0.6
		c-0.5,0.4-0.8,1-0.8,1.7c0,0.3,0,0.6,0.2,0.9c0.1,0.3,0.3,0.5,0.5,0.7c0.3,0.2,0.6,0.4,0.9,0.6c0.5,0.2,0.9,0.4,1.4,0.5
		c0.6,0.2,1.1,0.3,1.6,0.5s0.9,0.4,1.3,0.7c0.4,0.3,0.6,0.7,0.8,1.1c0.2,0.5,0.3,1,0.3,1.6c0.1,1-0.4,2.1-1.2,2.7
		C138.9,101.3,137.6,101.6,136.4,101.5z"/>
	<path class="st3" d="M146.7,101.5c-0.8,0.1-1.5-0.2-2.1-0.7c-0.5-0.5-0.7-1.3-0.7-2V93h-2v-1.4h2.1l0.2-2.4l1.2-0.2v2.6h2.9V93
		h-2.9v5.4c0,0.5,0.1,1,0.4,1.3c0.3,0.3,0.8,0.5,1.3,0.4c0.2,0,0.4,0,0.6-0.1c0.2,0,0.5-0.1,0.7-0.2v1.3c-0.3,0.1-0.6,0.1-0.9,0.2
		C147.3,101.5,147,101.5,146.7,101.5z"/>
	<path class="st3" d="M152,101.4c-0.7,0-1.4-0.2-1.9-0.7s-0.7-1.2-0.7-1.9c0-0.8,0.3-1.6,0.9-2.1c0.8-0.6,1.8-0.9,2.8-0.9l2.3-0.2
		v-0.7c0-0.4,0-0.7-0.1-1.1c-0.1-0.3-0.2-0.5-0.4-0.7s-0.5-0.3-0.8-0.4c-0.4-0.1-0.8-0.1-1.2-0.1s-0.9,0-1.3,0.1
		c-0.5,0-1,0.1-1.5,0.2l-0.1-1.2c0.6-0.1,1.2-0.2,1.7-0.3s1-0.1,1.6-0.1c1-0.1,2,0.2,2.8,0.8c0.6,0.6,1,1.5,0.9,2.4v6.6h-1.3
		l-0.2-1.2h-0.1c-0.5,0.4-1.1,0.7-1.7,1C153.2,101.3,152.6,101.4,152,101.4z M152.6,100.2c0.5,0,1-0.1,1.4-0.3
		c0.5-0.2,1-0.5,1.5-0.8v-2.5l-1.9,0.2c-0.7,0-1.4,0.2-2,0.6c-0.4,0.3-0.6,0.8-0.6,1.4C151.1,99.7,151.6,100.2,152.6,100.2z"/>
	<path class="st3" d="M159.7,91.6h1.3l0.1,1.3h0.1c0.7-0.4,1.3-0.7,1.8-1s1-0.4,1.6-0.5h0.5v1.5h-0.6c-0.6,0.1-1.1,0.2-1.7,0.4
		c-0.6,0.2-1.1,0.5-1.6,0.7v7.2h-1.6L159.7,91.6L159.7,91.6L159.7,91.6z"/>
	<path class="st3" d="M170.5,101.5c-0.8,0.1-1.5-0.2-2.1-0.7c-0.5-0.5-0.8-1.3-0.7-2V93h-2v-1.4h2.1l0.2-2.4l1.2-0.2v2.6h2.9V93
		h-2.9v5.4c0,0.5,0.1,1,0.4,1.3s0.8,0.5,1.3,0.4c0.2,0,0.4,0,0.6-0.1c0.2,0,0.5-0.1,0.7-0.2v1.3c-0.3,0.1-0.6,0.1-0.9,0.2
		C171.1,101.5,170.8,101.5,170.5,101.5z"/>
	<rect x="773.4" y="68.4" class="st0" width="72" height="54"/>
	<path class="st3" d="M800.2,96.9l-4.9-8.9h1.7l3.3,6.2l0.5,1.2h0.2l0.5-1.2l3.4-6.2h1.7l-4.8,8.8v4.5h-1.6L800.2,96.9z"/>
	<path class="st3" d="M810.6,101.5c-1.2,0.1-2.5-0.4-3.4-1.2c-0.8-1-1.2-2.3-1.1-3.7c-0.1-1.4,0.3-2.7,1.1-3.8
		c0.8-0.9,2-1.4,3.3-1.3c2.5,0,3.7,1.4,3.7,4.3c0,0.4,0,0.8-0.1,1.3h-6.4c0,0.9,0.3,1.8,0.8,2.4c0.6,0.5,1.4,0.8,2.3,0.7
		c0.5,0,1,0,1.5-0.1s1-0.2,1.5-0.4l0.1,1.2c-0.5,0.2-1,0.3-1.6,0.4C811.7,101.4,811.2,101.5,810.6,101.5z M810.4,92.6
		c-1.7,0-2.7,1.1-2.8,3.3h5.1c0.1-0.9-0.1-1.7-0.6-2.5C811.8,92.9,811.1,92.6,810.4,92.6z"/>
	<path class="st3" d="M819.1,101.5c-0.5,0-0.9,0-1.4-0.1s-1.1-0.2-1.9-0.3v-1.3c0.6,0.1,1.2,0.3,1.7,0.3c0.5,0.1,1,0.1,1.5,0.1
		c0.6,0,1.1-0.1,1.6-0.4c0.4-0.3,0.6-0.7,0.5-1.2c0-0.2,0-0.5-0.1-0.7s-0.2-0.4-0.4-0.5s-0.4-0.2-0.7-0.3s-0.5-0.2-0.8-0.2l-1.1-0.2
		c-0.4-0.1-0.7-0.2-1-0.4s-0.6-0.5-0.8-0.8c-0.2-0.4-0.3-0.9-0.3-1.4c0-0.8,0.4-1.5,1-2c0.8-0.5,1.7-0.8,2.6-0.7c0.2,0,0.4,0,0.6,0
		l0.6,0.1l0.7,0.1l0.9,0.2l-0.2,1.3c-0.6-0.1-1.1-0.2-1.5-0.3s-0.8-0.1-1.1-0.1c-1.5,0-2.2,0.5-2.2,1.5c0,0.2,0,0.5,0.2,0.7
		c0.1,0.2,0.3,0.3,0.5,0.5c0.2,0.1,0.5,0.2,0.7,0.3c0.3,0.1,0.6,0.1,0.9,0.2c0.4,0.1,0.8,0.2,1.2,0.3s0.7,0.3,1,0.5s0.5,0.5,0.6,0.8
		c0.2,0.4,0.2,0.8,0.2,1.2c0,0.8-0.3,1.6-1,2.1C821,101.3,820.1,101.6,819.1,101.5z"/>
	<rect x="227.6" y="50.5" class="st1" width="207" height="90"/>
	<path class="st0" d="M433.6,51.5v88h-205v-88H433.6 M434.6,50.5h-207v90h207V50.5z"/>
	<g>
		<circle class="st0" cx="331.1" cy="543.2" r="36"/>
		<path class="st3" d="M316.3,535.7h8.5v1.3h-6.9v4.6h6.4v1.4h-6.4v4.8h7v1.3h-8.6V535.7z"/>
		<path class="st3" d="M327.1,539.2h1.3l0.1,1.1h0.1l1.3-0.6c0.4-0.2,0.7-0.3,1.1-0.4c0.3-0.1,0.6-0.2,0.9-0.2s0.6-0.1,0.8-0.1
			c0.7,0,1.4,0.2,1.9,0.7s0.7,1.3,0.7,2v7.2h-1.6v-6.7c0-0.5-0.1-1-0.4-1.4c-0.3-0.3-0.8-0.5-1.2-0.4c-0.5,0-1.1,0.1-1.6,0.3
			c-0.7,0.2-1.3,0.5-1.9,0.8v7.5H327L327.1,539.2L327.1,539.2z"/>
		<path class="st3" d="M341.5,549.2c-1.1,0.1-2.2-0.4-3-1.2c-0.8-1.1-1.1-2.4-1-3.8c0-0.8,0.1-1.5,0.3-2.3c0.2-0.6,0.6-1.1,1-1.6
			c0.4-0.4,0.9-0.8,1.5-1s1.3-0.3,2-0.3c0.4,0,0.8,0,1.2,0.1l1.1,0.1v-4.8h1.5v14.5h-1.4l-0.1-1.2h-0.1
			C343.7,548.7,342.6,549.2,341.5,549.2z M341.8,547.9c0.3,0,0.7-0.1,1-0.1c0.3-0.1,0.6-0.2,0.9-0.4c0.2-0.2,0.5-0.4,0.6-0.7
			s0.2-0.6,0.2-0.9v-5.2c-0.4-0.1-0.7-0.1-1.1-0.1s-0.8-0.1-1.2-0.1c-0.9-0.1-1.8,0.3-2.4,0.9c-0.6,0.9-0.9,1.9-0.8,2.9
			c-0.1,1,0.1,2,0.7,2.9C340.2,547.7,341,548,341.8,547.9L341.8,547.9z"/>
	</g>
	<rect x="537.7" y="404.9" class="st4" width="72" height="54"/>
	<path class="st3" d="M563,424.4h1.4l6.8,9.3l1,1.6h0.1v-10.9h1.5v13.3h-1.4l-6.9-9.3l-1-1.6h-0.1v10.8h-1.5L563,424.4L563,424.4z"
		/>
	<path class="st3" d="M580.7,437.9c-1.3,0.1-2.5-0.4-3.4-1.3c-1.5-2.3-1.5-5.2,0-7.5c1.9-1.7,4.8-1.7,6.7,0c1.5,2.3,1.5,5.2,0,7.5
		C583.2,437.5,581.9,438,580.7,437.9z M580.7,436.7c0.8,0.1,1.7-0.3,2.2-0.9c0.9-1.8,0.9-3.9,0-5.7c-1.2-1.2-3.2-1.2-4.4,0
		c-0.9,1.8-0.9,3.9,0,5.7C579,436.3,579.8,436.8,580.7,436.7L580.7,436.7z"/>
	<rect x="669.2" y="95" class="st0" width="97" height="1"/>
	<polygon class="st0" points="764.7,100.4 773.4,95.5 764.7,90.5 	"/>
	<rect x="845.4" y="95" class="st0" width="43.6" height="1"/>
	<polygon class="st0" points="887.5,100.4 896.2,95.5 887.5,90.5 	"/>
	<rect x="573.2" y="190.1" class="st0" width="1" height="207.5"/>
	<polygon class="st0" points="568.7,396.3 573.7,404.9 578.7,396.3 	"/>
	
		<rect x="506.2" y="28" transform="matrix(0.7071 -0.7071 0.7071 0.7071 100.5186 433.6294)" class="st1" width="135" height="135"/>
	<path class="st0" d="M573.7,1.4l94,94.1l-94,94l-94-94L573.7,1.4 M573.7,0.1l-95.5,95.4l95.5,95.5l95.5-95.5L573.7,0.1L573.7,0.1z"
		/>
	<path class="st3" d="M515.1,101.2l4.8-13.2h2.4l4.8,13.2v0.1h-1.6l-1.5-4h-6l-1.4,4L515.1,101.2L515.1,101.2L515.1,101.2z
		 M523.6,96l-1.6-4.5l-0.8-2.3h-0.1l-0.8,2.3l-1.6,4.5H523.6z"/>
	<path class="st3" d="M528.6,86.8h1.6v14.5h-1.6V86.8z"/>
	<path class="st3" d="M534.9,101.4c-0.7,0-1.4-0.2-1.9-0.7s-0.7-1.2-0.7-1.9c-0.1-0.8,0.3-1.6,0.9-2.1c0.8-0.6,1.8-0.9,2.8-0.9
		l2.3-0.2v-0.7c0-0.4,0-0.7-0.1-1.1c-0.1-0.3-0.2-0.5-0.4-0.7s-0.5-0.3-0.7-0.4c-0.4-0.1-0.8-0.1-1.2-0.1s-0.9,0-1.3,0.1
		c-0.5,0-1,0.1-1.5,0.2l-0.1-1.2c0.6-0.1,1.2-0.2,1.7-0.3s1-0.1,1.6-0.1c1-0.1,2,0.2,2.8,0.8c0.6,0.6,1,1.5,0.9,2.4v6.6h-1.3
		l-0.2-1.2h-0.1c-0.5,0.4-1.1,0.7-1.7,1C536.1,101.3,535.5,101.4,534.9,101.4z M535.5,100.2c0.5,0,1-0.1,1.4-0.3
		c0.5-0.2,1-0.5,1.5-0.8v-2.5l-1.9,0.2c-0.7,0-1.4,0.2-2,0.6c-0.4,0.3-0.6,0.8-0.6,1.4C533.9,99.7,534.4,100.2,535.5,100.2z"/>
	<path class="st3" d="M542.6,91.6h1.3l0.1,1.3h0.1c0.7-0.4,1.3-0.7,1.9-1c0.5-0.2,1-0.4,1.6-0.5h0.5v1.5h-0.6
		c-0.6,0.1-1.1,0.2-1.7,0.4c-0.6,0.2-1.1,0.5-1.6,0.7v7.2h-1.6V91.6z"/>
	<path class="st3" d="M549.6,91.6h1.3l0.1,1.1h0.1c0.6-0.4,1.3-0.7,2-1c0.5-0.2,1-0.3,1.6-0.3c1-0.1,1.9,0.4,2.3,1.3h0.1
		c0.6-0.4,1.3-0.7,2-1c0.5-0.2,1-0.3,1.6-0.3c0.7,0,1.4,0.2,1.9,0.7s0.7,1.3,0.7,2v7.2h-1.6v-6.7c0-0.5-0.1-1-0.4-1.4
		c-0.3-0.3-0.8-0.5-1.2-0.4c-0.4,0-0.9,0.1-1.3,0.3c-0.5,0.2-1,0.5-1.5,0.7v7.5h-1.6v-6.7c0-0.5-0.1-1-0.4-1.4
		c-0.3-0.3-0.8-0.5-1.2-0.4c-0.4,0-0.9,0.1-1.3,0.3c-0.5,0.2-1,0.5-1.5,0.8v7.5h-1.6L549.6,91.6L549.6,91.6z"/>
	<path class="st3" d="M570.8,89.6c-0.5,0.1-0.9-0.2-1-0.7c0-0.1,0-0.2,0-0.3c-0.1-0.5,0.2-0.9,0.7-1c0.1,0,0.2,0,0.3,0
		c0.7,0,1,0.3,1,1S571.5,89.6,570.8,89.6z M570,91.6h1.6v9.7H570V91.6z"/>
	<path class="st3" d="M577.1,101.5c-0.5,0-0.9,0-1.4-0.1s-1.1-0.2-1.9-0.3v-1.3c0.6,0.1,1.2,0.3,1.7,0.3c0.5,0.1,1,0.1,1.5,0.1
		c0.6,0,1.1-0.1,1.6-0.4c0.4-0.3,0.6-0.7,0.5-1.2c0-0.2,0-0.5-0.1-0.7s-0.2-0.4-0.4-0.5s-0.4-0.2-0.6-0.3c-0.3-0.1-0.5-0.1-0.8-0.2
		s-0.8-0.2-1.1-0.3c-0.4-0.1-0.7-0.2-1-0.4s-0.6-0.5-0.8-0.8c-0.2-0.4-0.3-0.9-0.3-1.4c0-0.8,0.3-1.6,0.9-2.1
		c0.8-0.5,1.7-0.8,2.6-0.7h0.6l0.6,0.1l0.7,0.1c0.3,0,0.6,0.1,0.9,0.2l-0.1,1.3c-0.6-0.1-1.1-0.2-1.5-0.3s-0.8-0.1-1.1-0.1
		c-1.5,0-2.2,0.5-2.2,1.5c0,0.2,0.1,0.5,0.2,0.7c0.1,0.2,0.3,0.4,0.5,0.5s0.5,0.2,0.7,0.3c0.3,0.1,0.6,0.1,0.9,0.2
		c0.4,0.1,0.8,0.2,1.2,0.3s0.7,0.3,1,0.5s0.5,0.5,0.6,0.8c0.2,0.4,0.2,0.8,0.2,1.2c0,0.8-0.3,1.6-0.9,2.1
		C579.1,101.3,578.1,101.6,577.1,101.5z"/>
	<path class="st3" d="M585.6,91.8v-0.2h1.6l2.5,7l0.4,1.5h0.2l0.4-1.5l2.5-7h1.6v0.2l-3.7,9.5h-2L585.6,91.8z"/>
	<path class="st3" d="M598.5,101.4c-0.7,0-1.4-0.2-1.9-0.7s-0.7-1.2-0.7-1.9c0-0.8,0.3-1.6,0.9-2.1c0.8-0.6,1.8-0.9,2.8-0.9l2.3-0.2
		v-0.7c0-0.4,0-0.7-0.1-1.1c-0.1-0.3-0.2-0.5-0.4-0.7s-0.5-0.3-0.8-0.4c-0.4-0.1-0.8-0.1-1.2-0.1s-0.9,0-1.3,0.1
		c-0.5,0-1,0.1-1.5,0.2l-0.1-1.2c0.6-0.1,1.2-0.2,1.7-0.3s1-0.1,1.6-0.1c1-0.1,2,0.2,2.8,0.8c0.6,0.6,1,1.5,0.9,2.4v6.6h-1.3
		L602,100h-0.1c-0.5,0.4-1.1,0.7-1.7,1S599.1,101.4,598.5,101.4z M599,100.2c0.5,0,1-0.1,1.4-0.3c0.5-0.2,1-0.5,1.5-0.8v-2.4
		l-1.9,0.2c-0.7,0-1.4,0.2-2,0.6c-0.4,0.3-0.6,0.8-0.6,1.4C597.5,99.7,598,100.2,599,100.2z"/>
	<path class="st3" d="M606.2,86.8h1.6v14.5h-1.6V86.8z"/>
	<path class="st3" d="M611.3,89.6c-0.5,0.1-0.9-0.2-1-0.7c0-0.1,0-0.2,0-0.3c-0.1-0.5,0.2-0.9,0.7-1c0.1,0,0.2,0,0.3,0
		c0.7,0,1,0.3,1,1S612,89.6,611.3,89.6z M610.5,91.6h1.6v9.7h-1.6V91.6z"/>
	<path class="st3" d="M618.4,101.5c-1.1,0.1-2.2-0.4-3-1.2c-0.8-1.1-1.1-2.4-1-3.8c0-0.8,0.1-1.5,0.3-2.3c0.2-0.6,0.6-1.1,1-1.6
		c0.4-0.4,0.9-0.8,1.5-1s1.3-0.3,2-0.3c0.4,0,0.8,0,1.2,0.1l1.1,0.1v-4.8h1.6v14.5h-1.4l-0.1-1.2h-0.1
		C620.7,101.1,619.6,101.6,618.4,101.5z M618.7,100.2c0.3,0,0.7-0.1,1-0.2s0.6-0.2,0.9-0.4c0.2-0.2,0.5-0.4,0.6-0.7s0.2-0.6,0.2-0.9
		v-5.2c-0.4-0.1-0.7-0.1-1.1-0.1c-0.4,0-0.8-0.1-1.2-0.1c-0.9-0.1-1.8,0.3-2.4,0.9c-0.6,0.8-0.9,1.9-0.8,2.9c-0.1,1,0.1,2,0.7,2.9
		C617.1,100,617.9,100.3,618.7,100.2L618.7,100.2z"/>
	<path class="st3" d="M627,97.8l-0.1-3.4c0.4-0.1,0.8-0.2,1.2-0.3s0.8-0.3,1.1-0.5s0.6-0.5,0.8-0.8c0.2-0.4,0.3-0.8,0.3-1.2
		s-0.1-0.8-0.2-1.1c-0.1-0.3-0.3-0.5-0.6-0.7c-0.2-0.2-0.5-0.3-0.8-0.4s-0.7-0.1-1-0.1c-0.4,0-0.9,0-1.3,0.1
		c-0.4,0.1-0.9,0.2-1.3,0.3l-0.1-1.2c0.5-0.1,1-0.3,1.5-0.3c0.5-0.1,1.1-0.1,1.6-0.1s1,0.1,1.5,0.2c0.4,0.1,0.9,0.3,1.2,0.6
		c0.4,0.3,0.6,0.7,0.8,1.1c0.2,0.5,0.3,1.1,0.3,1.7c0,1-0.4,2-1.1,2.7c-0.3,0.3-0.7,0.5-1.2,0.7c-0.4,0.2-0.8,0.3-1.3,0.4v2.6v0.3
		h-1.2L627,97.8z M627.6,101.3c-0.2,0-0.5-0.1-0.7-0.3s-0.3-0.4-0.3-0.7s0.1-0.5,0.3-0.7s0.4-0.3,0.7-0.2c0.3,0,0.5,0.1,0.7,0.2
		c0.2,0.2,0.3,0.4,0.3,0.7c0,0.2-0.1,0.5-0.3,0.7C628.1,101.3,627.9,101.4,627.6,101.3L627.6,101.3z"/>
	<g>
		<rect x="330.6" y="432.3" class="st0" width="1" height="70.3"/>
		<polygon class="st0" points="326.1,498.5 331.1,507.2 336.1,498.5 		"/>
		<rect x="331.1" y="431.4" class="st0" width="206.7" height="1"/>
	</g>
	<rect x="368.5" y="542.7" class="st0" width="528.6" height="1"/>
	<polygon class="st0" points="375.7,538.2 367.1,543.2 375.7,548.2 	"/>
	<g>
		<rect x="999.2" y="139.4" class="st0" width="1" height="351.5"/>
		<polygon class="st0" points="994.7,489.5 999.7,498.2 1004.6,489.5 		"/>
	</g>
	<g>
		<g>
			<path class="st3" d="M256.9,76.6h1.7l3.3,9.2l0.9,2.6h0.1l0.9-2.6l3.3-9.2h1.7L263.9,90h-2.2L256.9,76.6z"/>
			<path class="st3" d="M271.4,90c-0.8,0-1.5-0.2-1.9-0.7c-0.4-0.4-0.7-1.1-0.7-1.9c0-0.9,0.3-1.6,0.9-2.1s1.5-0.8,2.8-0.9l2.3-0.2
				v-0.7c0-0.4,0-0.8-0.1-1.1s-0.2-0.5-0.4-0.7c-0.2-0.2-0.4-0.3-0.7-0.4c-0.3-0.1-0.7-0.1-1.2-0.1c-0.4,0-0.8,0-1.3,0.1
				c-0.5,0-1,0.1-1.5,0.2l-0.1-1.2c0.6-0.1,1.2-0.2,1.7-0.3s1-0.1,1.6-0.1c1.3,0,2.2,0.3,2.8,0.8s0.9,1.3,0.9,2.4V90h-1.3l-0.2-1.2
				h-0.1c-0.6,0.4-1.2,0.7-1.7,1S272,90,271.4,90z M272,88.8c0.4,0,0.9-0.1,1.4-0.3s1-0.5,1.5-0.8v-2.4l-1.9,0.2
				c-0.9,0.1-1.6,0.3-2,0.5c-0.4,0.3-0.6,0.7-0.6,1.4C270.4,88.3,271,88.8,272,88.8z"/>
			<path class="st3" d="M279.1,75.4h1.6V90h-1.6V75.4z"/>
			<path class="st3" d="M284.3,78.2c-0.6,0-1-0.3-1-1c0-0.6,0.3-1,1-1s1,0.3,1,1S284.9,78.2,284.3,78.2z M283.5,80.2h1.6V90h-1.6
				V80.2z"/>
			<path class="st3" d="M291.3,90.1c-1.3,0-2.3-0.4-3-1.2s-1-2.1-1-3.8c0-0.9,0.1-1.6,0.3-2.3c0.2-0.6,0.6-1.2,1-1.6s0.9-0.7,1.5-1
				c0.6-0.2,1.3-0.3,2-0.3c0.4,0,0.8,0,1.2,0.1c0.4,0,0.7,0.1,1.1,0.1v-4.8h1.6V90h-1.4l-0.1-1.2h-0.1
				C293.7,89.7,292.7,90.1,291.3,90.1z M291.7,88.9c0.4,0,0.7-0.1,1-0.2s0.6-0.2,0.9-0.4s0.5-0.4,0.6-0.7s0.2-0.6,0.2-0.9v-5.2
				c-0.3-0.1-0.7-0.1-1.1-0.1s-0.8-0.1-1.2-0.1c-1.1,0-1.8,0.3-2.4,0.9c-0.5,0.6-0.8,1.6-0.8,2.9c0,1.4,0.2,2.3,0.7,2.9
				C290,88.6,290.7,88.9,291.7,88.9z"/>
			<path class="st3" d="M300.6,90c-0.8,0-1.5-0.2-1.9-0.7c-0.4-0.4-0.7-1.1-0.7-1.9c0-0.9,0.3-1.6,0.9-2.1s1.5-0.8,2.8-0.9l2.3-0.2
				v-0.7c0-0.4,0-0.8-0.1-1.1s-0.2-0.5-0.4-0.7c-0.2-0.2-0.4-0.3-0.7-0.4c-0.3-0.1-0.7-0.1-1.2-0.1c-0.4,0-0.8,0-1.3,0.1
				c-0.5,0-1,0.1-1.5,0.2l-0.1-1.2c0.6-0.1,1.2-0.2,1.7-0.3s1-0.1,1.6-0.1c1.3,0,2.2,0.3,2.8,0.8s0.9,1.3,0.9,2.4V90h-1.3l-0.2-1.2
				h-0.1c-0.6,0.4-1.2,0.7-1.7,1S301.2,90,300.6,90z M301.2,88.8c0.4,0,0.9-0.1,1.4-0.3s1-0.5,1.5-0.8v-2.4l-1.9,0.2
				c-0.9,0.1-1.6,0.3-2,0.5c-0.4,0.3-0.6,0.7-0.6,1.4C299.6,88.3,300.1,88.8,301.2,88.8z"/>
			<path class="st3" d="M311.9,90.1c-0.9,0-1.6-0.2-2.1-0.7s-0.7-1.2-0.7-2.1v-5.7h-2v-1.4h2.1l0.2-2.4l1.2-0.2v2.6h2.9v1.4h-2.9V87
				c0,0.6,0.1,1.1,0.4,1.4s0.7,0.4,1.3,0.4c0.2,0,0.4,0,0.6,0s0.4-0.1,0.7-0.2v1.3c-0.3,0.1-0.6,0.1-0.9,0.2
				C312.5,90.1,312.2,90.1,311.9,90.1z"/>
			<path class="st3" d="M319.4,90.1c-1.5,0-2.6-0.4-3.4-1.2s-1.1-2-1.1-3.7s0.4-2.9,1.1-3.8c0.8-0.9,1.8-1.3,3.3-1.3
				c2.5,0,3.7,1.4,3.7,4.3c0,0.6,0,1-0.1,1.3h-6.4c0.1,1.1,0.3,1.9,0.8,2.4s1.3,0.7,2.3,0.7c0.5,0,0.9,0,1.5-0.1
				c0.5-0.1,1-0.2,1.5-0.4l0.1,1.2c-0.5,0.2-1,0.3-1.6,0.4C320.5,90,319.9,90.1,319.4,90.1z M319.2,81.3c-1.7,0-2.7,1.1-2.8,3.3h5.1
				c0-1.2-0.2-2-0.6-2.5C320.6,81.5,320,81.3,319.2,81.3z"/>
			<path class="st3" d="M332.7,90.1c-0.9,0-1.6-0.2-2.1-0.7s-0.7-1.2-0.7-2.1v-5.7h-2v-1.4h2.1l0.2-2.4l1.2-0.2v2.6h2.9v1.4h-2.9V87
				c0,0.6,0.1,1.1,0.4,1.4s0.7,0.4,1.3,0.4c0.2,0,0.4,0,0.6,0s0.4-0.1,0.7-0.2v1.3c-0.3,0.1-0.6,0.1-0.9,0.2
				C333.2,90.3,333,90.1,332.7,90.1z"/>
			<path class="st3" d="M336.2,75.4h1.6v5.9c0.9-0.4,1.7-0.8,2.3-1s1.2-0.3,1.8-0.3c0.8,0,1.5,0.2,1.9,0.7c0.4,0.4,0.7,1.1,0.7,2V90
				h-1.6v-6.7c0-0.7-0.1-1.1-0.4-1.4s-0.6-0.4-1.2-0.4c-0.5,0-1,0.1-1.6,0.3s-1.2,0.4-1.9,0.8V90h-1.6L336.2,75.4L336.2,75.4z"/>
			<path class="st3" d="M351.1,90.1c-1.5,0-2.6-0.4-3.4-1.2s-1.1-2-1.1-3.7s0.4-2.9,1.1-3.8c0.8-0.9,1.8-1.3,3.3-1.3
				c2.5,0,3.7,1.4,3.7,4.3c0,0.6,0,1-0.1,1.3h-6.4c0.1,1.1,0.3,1.9,0.8,2.4s1.3,0.7,2.3,0.7c0.5,0,0.9,0,1.5-0.1
				c0.5-0.1,1-0.2,1.5-0.4l0.1,1.2c-0.5,0.2-1,0.3-1.6,0.4C352.2,90,351.6,90.1,351.1,90.1z M350.9,81.3c-1.7,0-2.7,1.1-2.8,3.3h5.1
				c0-1.2-0.2-2-0.6-2.5C352.3,81.5,351.7,81.3,350.9,81.3z"/>
			<path class="st3" d="M363,90c-0.8,0-1.5-0.2-1.9-0.7c-0.4-0.4-0.7-1.1-0.7-1.9c0-0.9,0.3-1.6,0.9-2.1s1.5-0.8,2.8-0.9l2.3-0.2
				v-0.7c0-0.4,0-0.8-0.1-1.1s-0.2-0.5-0.4-0.7c-0.2-0.2-0.4-0.3-0.7-0.4c-0.3-0.1-0.7-0.1-1.2-0.1c-0.4,0-0.8,0-1.3,0.1
				c-0.5,0-1,0.1-1.5,0.2l-0.1-1.2c0.6-0.1,1.2-0.2,1.7-0.3s1-0.1,1.6-0.1c1.3,0,2.2,0.3,2.8,0.8s0.9,1.3,0.9,2.4V90h-1.3l-0.2-1.2
				h-0.1c-0.6,0.4-1.2,0.7-1.7,1S363.6,90,363,90z M363.6,88.8c0.4,0,0.9-0.1,1.4-0.3s1-0.5,1.5-0.8v-2.4l-1.9,0.2
				c-0.9,0.1-1.6,0.3-2,0.5c-0.4,0.3-0.6,0.7-0.6,1.4C362,88.3,362.5,88.8,363.6,88.8z"/>
			<path class="st3" d="M370.7,75.4h1.6V90h-1.6V75.4L370.7,75.4z"/>
			<path class="st3" d="M377,90c-0.8,0-1.5-0.2-1.9-0.7c-0.4-0.4-0.7-1.1-0.7-1.9c0-0.9,0.3-1.6,0.9-2.1s1.5-0.8,2.8-0.9l2.3-0.2
				v-0.7c0-0.4,0-0.8-0.1-1.1s-0.2-0.5-0.4-0.7c-0.2-0.2-0.4-0.3-0.7-0.4c-0.3-0.1-0.7-0.1-1.2-0.1c-0.4,0-0.8,0-1.3,0.1
				c-0.5,0-1,0.1-1.5,0.2l-0.1-1.2c0.6-0.1,1.2-0.2,1.7-0.3s1-0.1,1.6-0.1c1.3,0,2.2,0.3,2.8,0.8c0.6,0.5,0.9,1.3,0.9,2.4V90h-1.3
				l-0.2-1.2h-0.1c-0.6,0.4-1.2,0.7-1.7,1S377.6,90,377,90z M377.6,88.8c0.4,0,0.9-0.1,1.4-0.3s1-0.5,1.5-0.8v-2.4l-1.9,0.2
				c-0.9,0.1-1.6,0.3-2,0.5c-0.4,0.3-0.6,0.7-0.6,1.4C376,88.3,376.5,88.8,377.6,88.8z"/>
			<path class="st3" d="M384.7,80.2h1.3l0.1,1.3h0.1c0.7-0.4,1.3-0.7,1.9-1s1.1-0.4,1.6-0.5h0.5v1.5h-0.6c-0.5,0.1-1.1,0.2-1.7,0.4
				s-1.1,0.5-1.6,0.7V90h-1.6L384.7,80.2L384.7,80.2z"/>
			<path class="st3" d="M391.7,80.2h1.3l0.1,1.1h0.1c0.8-0.5,1.4-0.8,2-1s1.1-0.3,1.6-0.3c1.2,0,1.9,0.4,2.3,1.3h0.1
				c0.8-0.5,1.4-0.8,2-1s1.1-0.3,1.6-0.3c0.8,0,1.5,0.2,1.9,0.7c0.4,0.4,0.7,1.1,0.7,2V90h-1.6v-6.7c0-0.7-0.1-1.1-0.4-1.4
				s-0.7-0.4-1.2-0.4c-0.4,0-0.8,0.1-1.3,0.3s-1,0.4-1.5,0.7V90h-1.6v-6.7c0-0.7-0.1-1.1-0.4-1.4s-0.7-0.4-1.2-0.4
				c-0.4,0-0.8,0.1-1.3,0.3s-1,0.4-1.5,0.8V90h-1.6v-9.8H391.7L391.7,80.2z"/>
			<path class="st3" d="M301.1,102v-0.2h1.6l2.5,7l0.4,1.5h0.2l0.4-1.5l2.5-7h1.6v0.2l-3.7,9.5h-2.1L301.1,102z"/>
			<path class="st3" d="M312.9,99.8c-0.6,0-1-0.3-1-1c0-0.6,0.3-1,1-1s1,0.3,1,1S313.6,99.8,312.9,99.8z M312.2,101.8h1.6v9.7h-1.6
				V101.8z"/>
			<path class="st3" d="M319.2,111.8c-0.4,0-0.9,0-1.4-0.1s-1.1-0.2-1.9-0.3V110c0.6,0.1,1.2,0.3,1.7,0.4s1,0.1,1.5,0.1
				c0.7,0,1.3-0.1,1.6-0.4c0.4-0.3,0.5-0.7,0.5-1.2c0-0.3,0-0.5-0.1-0.7s-0.2-0.3-0.4-0.5c-0.2-0.1-0.4-0.2-0.6-0.3
				s-0.5-0.1-0.8-0.2c-0.4-0.1-0.8-0.2-1.1-0.2c-0.4-0.1-0.7-0.2-1-0.4s-0.6-0.5-0.8-0.8c-0.2-0.3-0.3-0.8-0.3-1.4
				c0-0.9,0.3-1.6,0.9-2.1s1.5-0.7,2.6-0.7c0.2,0,0.4,0,0.6,0s0.4,0,0.6,0.1c0.2,0,0.5,0.1,0.7,0.1s0.6,0.1,0.9,0.2l-0.1,1.3
				c-0.6-0.1-1.1-0.2-1.5-0.3s-0.8-0.1-1.1-0.1c-1.5,0-2.2,0.5-2.2,1.5c0,0.3,0.1,0.5,0.2,0.7s0.3,0.3,0.5,0.5
				c0.2,0.1,0.4,0.2,0.7,0.3c0.3,0.1,0.6,0.1,0.9,0.2c0.4,0.1,0.8,0.2,1.2,0.3c0.4,0.1,0.7,0.3,1,0.5s0.5,0.5,0.6,0.8
				s0.2,0.7,0.2,1.2c0,0.9-0.3,1.6-0.9,2.1C321.3,111.5,320.4,111.8,319.2,111.8z"/>
			<path class="st3" d="M327.3,111.7c-1.6,0-2.5-0.9-2.5-2.7v-7.2h1.6v6.7c0,0.6,0.1,1.1,0.3,1.4c0.2,0.3,0.6,0.4,1.2,0.4
				s1.2-0.1,1.8-0.4c0.6-0.2,1.2-0.5,1.8-0.8v-7.4h1.6v9.7h-1.3l-0.1-1.2h-0.1c-0.5,0.2-0.9,0.4-1.3,0.6s-0.7,0.3-1,0.4
				s-0.6,0.2-0.9,0.2C328,111.7,327.7,111.7,327.3,111.7z"/>
			<path class="st3" d="M337.8,111.6c-0.8,0-1.5-0.2-1.9-0.7c-0.4-0.4-0.7-1.1-0.7-1.9c0-0.9,0.3-1.7,0.9-2.1
				c0.6-0.5,1.5-0.8,2.8-0.9l2.3-0.2v-0.7c0-0.4,0-0.8-0.1-1.1s-0.2-0.5-0.4-0.7c-0.2-0.2-0.4-0.3-0.7-0.4c-0.3-0.1-0.7-0.1-1.2-0.1
				c-0.4,0-0.8,0-1.3,0.1c-0.5,0-1,0.1-1.5,0.2l-0.1-1.2c0.6-0.1,1.2-0.2,1.7-0.3s1-0.1,1.6-0.1c1.3,0,2.2,0.3,2.8,0.8
				s0.9,1.3,0.9,2.4v6.6h-1.3l-0.2-1.2h-0.1c-0.6,0.4-1.2,0.7-1.7,1C338.9,111.5,338.3,111.6,337.8,111.6z M338.3,110.4
				c0.4,0,0.9-0.1,1.4-0.3s1-0.5,1.5-0.8v-2.4l-1.9,0.2c-0.9,0.1-1.6,0.3-2,0.5c-0.4,0.3-0.6,0.7-0.6,1.4
				C336.8,109.9,337.3,110.4,338.3,110.4z"/>
			<path class="st3" d="M345.5,97h1.6v14.5h-1.6V97z"/>
			<path class="st3" d="M349.8,97h1.6v14.5h-1.6V97z"/>
			<path class="st3" d="M355.6,115.2V115l1.5-3.6l-4-9.5v-0.2h1.7l2.6,6.6l0.4,1.4h0.1l0.4-1.4l2.7-6.6h1.6v0.2l-5.7,13.5
				L355.6,115.2z"/>
		</g>
	</g>
	<rect x="896.2" y="498.2" class="st1" width="207" height="90"/>
	<path class="st0" d="M1102.2,499.2v88h-205v-88H1102.2 M1103.2,498.2h-207v90h207V498.2z"/>
	<g>
		<path class="st5" d="M903,548.4l4.8-13.2h2.4l4.8,13.2v0.1h-1.6l-1.5-4h-6l-1.4,4L903,548.4L903,548.4z M911.5,543.2l-1.6-4.5
			l-0.8-2.3H909l-0.8,2.3l-1.6,4.5H911.5z"/>
		<path class="st5" d="M920.5,548.7c-3.1,0-4.6-1.7-4.6-5c0-3.4,1.5-5,4.6-5c0.4,0,0.8,0,1.2,0.1c0.4,0,0.8,0.1,1.1,0.2v1.3
			c-0.4-0.1-0.7-0.1-1.1-0.2c-0.4,0-0.7-0.1-1.1-0.1c-1.1,0-1.9,0.3-2.4,0.9c-0.5,0.6-0.8,1.5-0.8,2.8s0.2,2.2,0.7,2.8
			s1.3,0.9,2.4,0.9c0.4,0,0.8,0,1.1,0s0.7-0.1,1.1-0.2v1.3c-0.3,0.1-0.6,0.1-1.1,0.2S920.9,548.7,920.5,548.7z"/>
		<path class="st5" d="M924.9,534h1.6v9h1.7l3.3-4.2h1.8l-3.6,4.6l-0.3,0.1v0.1l0.3,0.2l3.9,4.8h-1.8l-3.6-4.4h-1.6v4.4H925V534
			H924.9z"/>
		<path class="st5" d="M934.8,538.8h1.3l0.1,1.1h0.1c0.5-0.2,0.9-0.4,1.3-0.6c0.4-0.2,0.8-0.3,1.1-0.4s0.6-0.2,0.9-0.2
			c0.3,0,0.6-0.1,0.8-0.1c0.8,0,1.5,0.2,1.9,0.7c0.4,0.4,0.7,1.1,0.7,2v7.2h-1.6v-6.7c0-0.7-0.1-1.1-0.4-1.4s-0.6-0.4-1.2-0.4
			c-0.5,0-1,0.1-1.6,0.3s-1.2,0.4-1.9,0.8v7.5h-1.6v-9.8H934.8z"/>
		<path class="st5" d="M949.7,548.7c-1.5,0-2.6-0.4-3.3-1.3c-0.8-0.9-1.2-2.1-1.2-3.7c0-1.6,0.4-2.9,1.2-3.8
			c0.8-0.9,1.9-1.3,3.3-1.3s2.6,0.4,3.3,1.3c0.8,0.9,1.2,2.1,1.2,3.8c0,1.6-0.4,2.9-1.2,3.8C952.3,548.3,951.2,548.7,949.7,548.7z
			 M949.7,547.4c1,0,1.7-0.3,2.2-0.9s0.7-1.5,0.7-2.9c0-1.3-0.2-2.3-0.7-2.9s-1.2-0.9-2.2-0.9s-1.7,0.3-2.2,0.9
			c-0.5,0.6-0.7,1.5-0.7,2.9c0,1.3,0.2,2.3,0.7,2.9C948,547.1,948.7,547.4,949.7,547.4z"/>
		<path class="st5" d="M955.4,538.9L955.4,538.9l1.5-0.1l1.7,6.7l0.3,1.4h0.1l0.3-1.4l1.9-6.7h1.5l2,6.7l0.4,1.4h0.1l0.3-1.4
			l1.7-6.7h1.5v0.1l-2.6,9.6h-1.8l-1.9-6.5l-0.3-1.3H962l-0.3,1.3l-1.9,6.5H958L955.4,538.9z"/>
		<path class="st5" d="M970.7,534h1.6v14.5h-1.6V534z"/>
		<path class="st5" d="M979,548.7c-1.5,0-2.6-0.4-3.4-1.2c-0.8-0.8-1.1-2-1.1-3.7s0.4-2.9,1.1-3.8s1.8-1.3,3.3-1.3
			c2.5,0,3.7,1.4,3.7,4.3c0,0.6,0,1-0.1,1.3h-6.4c0.1,1.1,0.3,1.9,0.8,2.4s1.3,0.7,2.3,0.7c0.5,0,0.9,0,1.5-0.1
			c0.5-0.1,1-0.2,1.5-0.4l0.1,1.2c-0.5,0.2-1,0.3-1.6,0.4C980.1,548.6,979.6,548.7,979,548.7z M978.9,539.8c-1.7,0-2.7,1.1-2.8,3.3
			h5.1c0-1.2-0.2-2-0.6-2.5C980.2,540.1,979.7,539.8,978.9,539.8z"/>
		<path class="st5" d="M988.3,548.7c-1.3,0-2.3-0.4-3-1.2s-1-2.1-1-3.8c0-0.9,0.1-1.6,0.3-2.3c0.2-0.6,0.6-1.2,1-1.6s0.9-0.7,1.5-1
			c0.6-0.2,1.3-0.3,2-0.3c0.4,0,0.8,0,1.2,0.1c0.4,0,0.7,0.1,1.1,0.1V534h1.6v14.5h-1.4l-0.1-1.2h-0.1
			C990.7,548.2,989.6,548.7,988.3,548.7z M988.7,547.4c0.4,0,0.7-0.1,1-0.2c0.3-0.1,0.6-0.2,0.9-0.4c0.3-0.2,0.5-0.4,0.6-0.7
			s0.2-0.6,0.2-0.9V540c-0.3-0.1-0.7-0.1-1.1-0.1c-0.4,0-0.8-0.1-1.2-0.1c-1.1,0-1.8,0.3-2.4,0.9s-0.8,1.6-0.8,2.9
			c0,1.4,0.2,2.3,0.7,2.9C987,547.1,987.7,547.4,988.7,547.4z"/>
		<path class="st5" d="M999.1,552.4c-0.6,0-1.1,0-1.7-0.1c-0.6-0.1-1.1-0.2-1.5-0.3l0.1-1.2c0.4,0.1,0.9,0.2,1.4,0.3s1,0.1,1.5,0.1
			s1-0.1,1.4-0.2s0.8-0.3,1.1-0.6s0.5-0.6,0.7-1.1c0.2-0.4,0.3-1,0.3-1.7V547h-0.1c-0.7,0.9-1.7,1.4-3,1.4s-2.3-0.4-3-1.2
			s-1-2-1-3.7c0-0.9,0.1-1.6,0.3-2.2c0.2-0.6,0.6-1.2,1-1.6s0.9-0.7,1.5-0.9s1.3-0.3,2-0.3c0.6,0,1.2,0,1.8,0.1s1.3,0.2,2,0.4v8.4
			c0,1-0.1,1.8-0.4,2.4c-0.3,0.6-0.6,1.1-1,1.5s-0.9,0.6-1.5,0.8C1000.4,552.4,999.7,552.4,999.1,552.4z M999.5,547.3
			c0.4,0,0.7-0.1,1-0.2c0.3-0.1,0.6-0.2,0.9-0.4c0.2-0.2,0.4-0.4,0.6-0.7c0.1-0.3,0.2-0.6,0.2-0.9v-5c-0.3-0.1-0.7-0.1-1.1-0.1
			c-0.4,0-0.8-0.1-1.2-0.1c-1.1,0-1.8,0.3-2.4,0.9s-0.8,1.5-0.8,2.9c0,1.3,0.2,2.3,0.7,2.8S998.6,547.3,999.5,547.3z"/>
		<path class="st5" d="M1010.5,548.7c-1.5,0-2.6-0.4-3.4-1.2c-0.8-0.8-1.1-2-1.1-3.7s0.4-2.9,1.1-3.8s1.8-1.3,3.3-1.3
			c2.5,0,3.7,1.4,3.7,4.3c0,0.6,0,1-0.1,1.3h-6.4c0.1,1.1,0.3,1.9,0.8,2.4s1.3,0.7,2.3,0.7c0.5,0,0.9,0,1.5-0.1
			c0.5-0.1,1-0.2,1.5-0.4l0.1,1.2c-0.5,0.2-1,0.3-1.6,0.4C1011.6,548.6,1011.1,548.7,1010.5,548.7z M1010.4,539.8
			c-1.7,0-2.7,1.1-2.8,3.3h5.1c0-1.2-0.2-2-0.6-2.5C1011.8,540.1,1011.2,539.8,1010.4,539.8z"/>
		<path class="st5" d="M1023.9,548.7c-0.9,0-1.6-0.2-2.1-0.7s-0.7-1.2-0.7-2.1v-5.7h-2v-1.4h2.1l0.2-2.4l1.2-0.2v2.6h2.9v1.4h-2.9
			v5.4c0,0.6,0.1,1.1,0.4,1.4c0.3,0.3,0.7,0.4,1.3,0.4c0.2,0,0.4,0,0.6,0s0.4-0.1,0.7-0.2v1.3c-0.3,0.1-0.6,0.1-0.9,0.2
			C1024.5,548.6,1024.2,548.7,1023.9,548.7z"/>
		<path class="st5" d="M1027.4,534h1.6v5.9c0.9-0.4,1.7-0.8,2.3-1s1.2-0.3,1.8-0.3c0.8,0,1.5,0.2,1.9,0.7c0.4,0.4,0.7,1.1,0.7,2v7.2
			h-1.6v-6.7c0-0.7-0.1-1.1-0.4-1.4s-0.6-0.4-1.2-0.4c-0.5,0-1,0.1-1.6,0.3s-1.2,0.4-1.9,0.8v7.5h-1.6L1027.4,534L1027.4,534z"/>
		<path class="st5" d="M1042.3,548.7c-1.5,0-2.6-0.4-3.4-1.2s-1.1-2-1.1-3.7s0.4-2.9,1.1-3.8s1.8-1.3,3.3-1.3c2.5,0,3.7,1.4,3.7,4.3
			c0,0.6,0,1-0.1,1.3h-6.4c0.1,1.1,0.3,1.9,0.8,2.4s1.3,0.7,2.3,0.7c0.5,0,0.9,0,1.5-0.1c0.5-0.1,1-0.2,1.5-0.4l0.1,1.2
			c-0.5,0.2-1,0.3-1.6,0.4C1043.4,548.6,1042.8,548.7,1042.3,548.7z M1042.1,539.8c-1.7,0-2.7,1.1-2.8,3.3h5.1c0-1.2-0.2-2-0.6-2.5
			C1043.5,540.1,1042.9,539.8,1042.1,539.8z"/>
		<path class="st5" d="M1054.2,548.6c-0.8,0-1.5-0.2-1.9-0.7c-0.4-0.4-0.7-1.1-0.7-1.9c0-0.9,0.3-1.6,0.9-2.1s1.5-0.8,2.8-0.9
			l2.3-0.2v-0.7c0-0.4,0-0.8-0.1-1.1s-0.2-0.5-0.4-0.7c-0.2-0.2-0.4-0.3-0.7-0.4c-0.3-0.1-0.7-0.1-1.2-0.1c-0.4,0-0.8,0-1.3,0.1
			c-0.5,0-1,0.1-1.5,0.2l-0.1-1.2c0.6-0.1,1.2-0.2,1.7-0.3s1-0.1,1.6-0.1c1.3,0,2.2,0.3,2.8,0.8c0.6,0.5,0.9,1.3,0.9,2.4v6.6h-1.3
			l-0.2-1.2h-0.1c-0.6,0.4-1.2,0.7-1.7,1C1055.4,548.5,1054.8,548.6,1054.2,548.6z M1054.8,547.4c0.4,0,0.9-0.1,1.4-0.3
			s1-0.5,1.5-0.8v-2.4l-1.9,0.2c-0.9,0.1-1.6,0.3-2,0.5c-0.4,0.3-0.6,0.7-0.6,1.4C1053.2,546.9,1053.7,547.4,1054.8,547.4z"/>
		<path class="st5" d="M1061.9,534h1.6v14.5h-1.6V534z"/>
		<path class="st5" d="M1068.2,548.6c-0.8,0-1.5-0.2-1.9-0.7c-0.4-0.4-0.7-1.1-0.7-1.9c0-0.9,0.3-1.6,0.9-2.1s1.5-0.8,2.8-0.9
			l2.3-0.2v-0.7c0-0.4,0-0.8-0.1-1.1s-0.2-0.5-0.4-0.7c-0.2-0.2-0.4-0.3-0.7-0.4c-0.3-0.1-0.7-0.1-1.2-0.1c-0.4,0-0.8,0-1.3,0.1
			c-0.5,0-1,0.1-1.5,0.2l-0.1-1.2c0.6-0.1,1.2-0.2,1.7-0.3s1-0.1,1.6-0.1c1.3,0,2.2,0.3,2.8,0.8c0.6,0.5,0.9,1.3,0.9,2.4v6.6h-1.3
			l-0.2-1.2h-0.1c-0.6,0.4-1.2,0.7-1.7,1C1069.3,548.5,1068.8,548.6,1068.2,548.6z M1068.8,547.4c0.4,0,0.9-0.1,1.4-0.3
			s1-0.5,1.5-0.8v-2.4l-1.9,0.2c-0.9,0.1-1.6,0.3-2,0.5c-0.4,0.3-0.6,0.7-0.6,1.4C1067.2,546.9,1067.7,547.4,1068.8,547.4z"/>
		<path class="st5" d="M1075.8,538.8h1.3l0.1,1.3h0.1c0.7-0.4,1.3-0.7,1.9-1s1.1-0.4,1.6-0.5h0.5v1.5h-0.6c-0.5,0.1-1.1,0.2-1.7,0.4
			s-1.1,0.5-1.6,0.7v7.2h-1.6L1075.8,538.8L1075.8,538.8z"/>
		<path class="st5" d="M1082.9,538.8h1.3l0.1,1.1h0.1c0.8-0.5,1.4-0.8,2-1s1.1-0.3,1.6-0.3c1.2,0,1.9,0.4,2.3,1.3h0.1
			c0.8-0.5,1.4-0.8,2-1s1.1-0.3,1.6-0.3c0.8,0,1.5,0.2,1.9,0.7c0.4,0.4,0.7,1.1,0.7,2v7.2h-1.6v-6.7c0-0.7-0.1-1.1-0.4-1.4
			c-0.3-0.3-0.7-0.4-1.2-0.4c-0.4,0-0.8,0.1-1.3,0.3s-1,0.4-1.5,0.7v7.5h-1.6v-6.7c0-0.7-0.1-1.1-0.4-1.4c-0.3-0.3-0.7-0.4-1.2-0.4
			c-0.4,0-0.8,0.1-1.3,0.3s-1,0.4-1.5,0.8v7.5h-1.6L1082.9,538.8L1082.9,538.8z"/>
	</g>
	<rect x="896.2" y="248.9" class="st1" width="207" height="90"/>
	<path class="st0" d="M1102.2,249.9v88h-205v-88H1102.2 M1103.2,248.9h-207v90h207V248.9z"/>
	<rect x="470.2" y="248.9" class="st1" width="207" height="90"/>
	<path class="st0" d="M676.2,249.9v88h-205v-88H676.2 M677.2,248.9h-207v90h207V248.9z"/>
	<g>
		<path class="st5" d="M500.9,276.9h2.2l3.4,8.1l1.1,2.9h0.1l1.1-2.9l3.4-8.1h2.2v13.3h-1.5V279h-0.1l-1.5,3.7l-3,7h-1.5l-3-7
			l-1.5-3.7h-0.1v11.3h-1.5v-13.4H500.9z"/>
		<path class="st5" d="M519.2,290.3c-0.8,0-1.5-0.2-1.9-0.7c-0.4-0.4-0.7-1.1-0.7-1.9c0-0.9,0.3-1.6,0.9-2.1s1.5-0.8,2.8-0.9
			l2.3-0.2v-0.7c0-0.4,0-0.8-0.1-1.1c-0.1-0.3-0.2-0.5-0.4-0.7s-0.4-0.3-0.7-0.4s-0.7-0.1-1.2-0.1c-0.4,0-0.8,0-1.3,0.1
			c-0.5,0-1,0.1-1.5,0.2l-0.1-1.2c0.6-0.1,1.2-0.2,1.7-0.3c0.5-0.1,1-0.1,1.6-0.1c1.3,0,2.2,0.3,2.8,0.8s0.9,1.3,0.9,2.4v6.6H523
			l-0.2-1.2h-0.1c-0.6,0.4-1.2,0.7-1.7,1S519.8,290.3,519.2,290.3z M519.8,289.1c0.4,0,0.9-0.1,1.4-0.3s1-0.5,1.5-0.8v-2.4l-1.9,0.2
			c-0.9,0.1-1.6,0.3-2,0.5c-0.4,0.3-0.6,0.7-0.6,1.4C518.2,288.6,518.8,289.1,519.8,289.1z"/>
		<path class="st5" d="M526.9,280.5h1.3l0.1,1.3h0.1c0.7-0.4,1.3-0.7,1.9-1c0.6-0.3,1.1-0.4,1.6-0.5h0.5v1.5h-0.6
			c-0.5,0.1-1.1,0.2-1.7,0.4c-0.6,0.2-1.1,0.5-1.6,0.7v7.2h-1.6V280.5z"/>
		<path class="st5" d="M533.9,275.7h1.6v9h1.7l3.3-4.2h1.8l-3.6,4.6l-0.3,0.1v0.1l0.3,0.2l3.9,4.8h-1.8l-3.6-4.4h-1.6v4.4H534v-14.6
			H533.9z"/>
		<path class="st5" d="M551.2,290.4c-0.9,0-1.6-0.2-2.1-0.7s-0.7-1.2-0.7-2.1v-5.7h-2v-1.4h2.1l0.2-2.4l1.2-0.2v2.6h2.9v1.4H550v5.4
			c0,0.6,0.1,1.1,0.4,1.4c0.3,0.3,0.7,0.4,1.3,0.4c0.2,0,0.4,0,0.6,0c0.2,0,0.4-0.1,0.7-0.2v1.3c-0.3,0.1-0.6,0.1-0.9,0.2
			C551.8,290.4,551.5,290.4,551.2,290.4z"/>
		<path class="st5" d="M554.6,275.7h1.6v5.9c0.9-0.4,1.7-0.8,2.3-1s1.2-0.3,1.8-0.3c0.8,0,1.5,0.2,1.9,0.7c0.4,0.4,0.7,1.1,0.7,2
			v7.2h-1.6v-6.7c0-0.7-0.1-1.1-0.4-1.4c-0.3-0.3-0.6-0.4-1.2-0.4c-0.5,0-1,0.1-1.6,0.3c-0.6,0.2-1.2,0.4-1.9,0.8v7.5h-1.6V275.7z"
			/>
		<path class="st5" d="M569.5,290.4c-1.5,0-2.6-0.4-3.4-1.2s-1.1-2-1.1-3.7s0.4-2.9,1.1-3.8c0.8-0.9,1.8-1.3,3.3-1.3
			c2.5,0,3.7,1.4,3.7,4.3c0,0.6,0,1-0.1,1.3h-6.4c0.1,1.1,0.3,1.9,0.8,2.4s1.3,0.7,2.3,0.7c0.5,0,0.9,0,1.5-0.1
			c0.5-0.1,1-0.2,1.5-0.4l0.1,1.2c-0.5,0.2-1,0.3-1.6,0.4S570.1,290.4,569.5,290.4z M569.4,281.6c-1.7,0-2.7,1.1-2.8,3.3h5.1
			c0-1.2-0.2-2-0.6-2.5C570.8,281.8,570.2,281.6,569.4,281.6z"/>
		<path class="st5" d="M581.5,290.3c-0.8,0-1.5-0.2-1.9-0.7c-0.4-0.4-0.7-1.1-0.7-1.9c0-0.9,0.3-1.6,0.9-2.1s1.5-0.8,2.8-0.9
			l2.3-0.2v-0.7c0-0.4,0-0.8-0.1-1.1c-0.1-0.3-0.2-0.5-0.4-0.7s-0.4-0.3-0.7-0.4s-0.7-0.1-1.2-0.1c-0.4,0-0.8,0-1.3,0.1
			c-0.5,0-1,0.1-1.5,0.2l-0.1-1.2c0.6-0.1,1.2-0.2,1.7-0.3c0.5-0.1,1-0.1,1.6-0.1c1.3,0,2.2,0.3,2.8,0.8s0.9,1.3,0.9,2.4v6.6h-1.3
			l-0.3-1h-0.1c-0.6,0.4-1.2,0.7-1.7,1C582.6,290.2,582.1,290.3,581.5,290.3z M582.1,289.1c0.4,0,0.9-0.1,1.4-0.3s1-0.5,1.5-0.8
			v-2.4l-1.9,0.2c-0.9,0.1-1.6,0.3-2,0.5c-0.4,0.3-0.6,0.7-0.6,1.4C580.5,288.6,581,289.1,582.1,289.1z"/>
		<path class="st5" d="M589.2,275.7h1.6v14.5h-1.6V275.7z"/>
		<path class="st5" d="M595.4,290.3c-0.8,0-1.5-0.2-1.9-0.7c-0.4-0.4-0.7-1.1-0.7-1.9c0-0.9,0.3-1.6,0.9-2.1s1.5-0.8,2.8-0.9
			l2.3-0.2v-0.7c0-0.4,0-0.8-0.1-1.1c-0.1-0.3-0.2-0.5-0.4-0.7s-0.4-0.3-0.7-0.4s-0.7-0.1-1.2-0.1c-0.4,0-0.8,0-1.3,0.1
			c-0.5,0-1,0.1-1.5,0.2l-0.1-1.2c0.6-0.1,1.2-0.2,1.7-0.3c0.5-0.1,1-0.1,1.6-0.1c1.3,0,2.2,0.3,2.8,0.8s0.9,1.3,0.9,2.4v6.6h-1.3
			l-0.2-1h-0.1c-0.6,0.4-1.2,0.7-1.7,1S596,290.3,595.4,290.3z M596,289.1c0.4,0,0.9-0.1,1.4-0.3s1-0.5,1.5-0.8v-2.4l-1.9,0.2
			c-0.9,0.1-1.6,0.3-2,0.5c-0.4,0.3-0.6,0.7-0.6,1.4C594.5,288.6,595,289.1,596,289.1z"/>
		<path class="st5" d="M603.1,280.5h1.3l0.1,1.3h0.1c0.7-0.4,1.3-0.7,1.9-1c0.6-0.3,1.1-0.4,1.6-0.5h0.5v1.5H608
			c-0.5,0.1-1.1,0.2-1.7,0.4c-0.6,0.2-1.1,0.5-1.6,0.7v7.2h-1.6L603.1,280.5L603.1,280.5z"/>
		<path class="st5" d="M610.1,280.5h1.3l0.1,1.1h0.1c0.8-0.5,1.4-0.8,2-1s1.1-0.3,1.6-0.3c1.2,0,1.9,0.4,2.3,1.3h0.1
			c0.8-0.5,1.4-0.8,2-1s1.1-0.3,1.6-0.3c0.8,0,1.5,0.2,1.9,0.7c0.4,0.4,0.7,1.1,0.7,2v7.2h-1.6v-6.7c0-0.7-0.1-1.1-0.4-1.4
			c-0.3-0.3-0.7-0.4-1.2-0.4c-0.4,0-0.8,0.1-1.3,0.3c-0.5,0.2-1,0.4-1.5,0.7v7.5h-1.6v-6.7c0-0.7-0.1-1.1-0.4-1.4
			c-0.3-0.3-0.7-0.4-1.2-0.4c-0.4,0-0.8,0.1-1.3,0.3c-0.5,0.2-1,0.4-1.5,0.8v7.5h-1.6L610.1,280.5L610.1,280.5z"/>
		<path class="st5" d="M632.5,290.3c-0.8,0-1.5-0.2-1.9-0.7c-0.4-0.4-0.7-1.1-0.7-1.9c0-0.9,0.3-1.6,0.9-2.1s1.5-0.8,2.8-0.9
			l2.3-0.2v-0.7c0-0.4,0-0.8-0.1-1.1c-0.1-0.3-0.2-0.5-0.4-0.7s-0.4-0.3-0.7-0.4s-0.7-0.1-1.2-0.1c-0.4,0-0.8,0-1.3,0.1
			c-0.5,0-1,0.1-1.5,0.2l-0.1-1.2c0.6-0.1,1.2-0.2,1.7-0.3c0.5-0.1,1-0.1,1.6-0.1c1.3,0,2.2,0.3,2.8,0.8s0.9,1.3,0.9,2.4v6.6h-1.3
			l-0.2-1.2H636c-0.6,0.4-1.2,0.7-1.7,1S633.1,290.3,632.5,290.3z M633.1,289.1c0.4,0,0.9-0.1,1.4-0.3s1-0.5,1.5-0.8v-2.4l-1.9,0.2
			c-0.9,0.1-1.6,0.3-2,0.5c-0.4,0.3-0.6,0.7-0.6,1.4C631.5,288.6,632,289.1,633.1,289.1z"/>
		<path class="st5" d="M642.9,290.4c-0.4,0-0.9,0-1.4-0.1s-1.1-0.2-1.9-0.3v-1.3c0.6,0.1,1.2,0.3,1.7,0.4s1,0.1,1.5,0.1
			c0.7,0,1.3-0.1,1.6-0.4c0.4-0.3,0.5-0.7,0.5-1.2c0-0.3,0-0.5-0.1-0.7s-0.2-0.3-0.4-0.5c-0.2-0.1-0.4-0.2-0.6-0.3
			c-0.3-0.1-0.5-0.1-0.8-0.2c-0.4-0.1-0.8-0.2-1.1-0.2s-0.7-0.2-1-0.4c-0.3-0.2-0.6-0.5-0.8-0.8s-0.3-0.8-0.3-1.4
			c0-0.9,0.3-1.6,0.9-2.1s1.5-0.7,2.6-0.7c0.2,0,0.4,0,0.6,0c0.2,0,0.4,0,0.6,0.1c0.2,0,0.5,0.1,0.7,0.1c0.3,0,0.6,0.1,0.9,0.2
			L646,282c-0.6-0.1-1.1-0.2-1.5-0.3c-0.4-0.1-0.8-0.1-1.1-0.1c-1.5,0-2.2,0.5-2.2,1.5c0,0.3,0.1,0.5,0.2,0.7s0.3,0.3,0.5,0.5
			s0.4,0.2,0.7,0.3c0.3,0.1,0.6,0.1,0.9,0.2c0.4,0.1,0.8,0.2,1.2,0.3s0.7,0.3,1,0.5s0.5,0.5,0.6,0.8c0.2,0.3,0.2,0.7,0.2,1.2
			c0,0.9-0.3,1.6-0.9,2.1S644.1,290.4,642.9,290.4z"/>
		<path class="st5" d="M530.6,303.5h-2.1v-1.4h2.1v-0.5c0-0.9,0.1-1.6,0.2-2.1c0.1-0.6,0.4-1,0.7-1.3s0.8-0.6,1.4-0.7
			c0.6-0.1,1.3-0.2,2.2-0.3l0.1,1.2c-0.6,0-1.1,0.1-1.5,0.2s-0.7,0.2-0.9,0.5c-0.2,0.2-0.4,0.5-0.5,0.8s-0.1,0.8-0.1,1.4v0.9h2.6
			v1.4h-2.6v8.4h-1.6L530.6,303.5L530.6,303.5z"/>
		<path class="st5" d="M538.3,311.9c-0.8,0-1.5-0.2-1.9-0.7c-0.4-0.4-0.7-1.1-0.7-1.9c0-0.9,0.3-1.6,0.9-2.1s1.5-0.8,2.8-0.9
			l2.3-0.2v-0.7c0-0.4,0-0.8-0.1-1.1c-0.1-0.3-0.2-0.5-0.4-0.7s-0.4-0.3-0.7-0.4s-0.7-0.1-1.2-0.1c-0.4,0-0.8,0-1.3,0.1
			c-0.5,0-1,0.1-1.5,0.2l-0.1-1.2c0.6-0.1,1.2-0.2,1.7-0.3c0.5-0.1,1-0.1,1.6-0.1c1.3,0,2.2,0.3,2.8,0.8s0.9,1.3,0.9,2.4v6.6H542
			l-0.2-1.2h-0.1c-0.6,0.4-1.2,0.7-1.7,1S538.9,311.9,538.3,311.9z M538.9,310.7c0.4,0,0.9-0.1,1.4-0.3s1-0.5,1.5-0.8v-2.4l-1.9,0.2
			c-0.9,0.1-1.6,0.3-2,0.5c-0.4,0.3-0.6,0.7-0.6,1.4C537.3,310.2,537.9,310.7,538.9,310.7z"/>
		<path class="st5" d="M546,297.3h1.6v14.5H546V297.3z"/>
		<path class="st5" d="M553.1,312c-0.4,0-0.9,0-1.4-0.1s-1.1-0.2-1.9-0.3v-1.3c0.6,0.1,1.2,0.3,1.7,0.4s1,0.1,1.5,0.1
			c0.7,0,1.3-0.1,1.6-0.4c0.4-0.3,0.5-0.7,0.5-1.2c0-0.3,0-0.5-0.1-0.7s-0.2-0.3-0.4-0.5c-0.2-0.1-0.4-0.2-0.6-0.3
			c-0.3-0.1-0.5-0.1-0.8-0.2c-0.4-0.1-0.8-0.2-1.1-0.2s-0.7-0.2-1-0.4c-0.3-0.2-0.6-0.5-0.8-0.8s-0.3-0.8-0.3-1.4
			c0-0.9,0.3-1.6,0.9-2.1s1.5-0.7,2.6-0.7c0.2,0,0.4,0,0.6,0c0.2,0,0.4,0,0.6,0.1c0.2,0,0.5,0.1,0.7,0.1c0.3,0,0.6,0.1,0.9,0.2
			l-0.1,1.3c-0.6-0.1-1.1-0.2-1.5-0.3c-0.4-0.1-0.8-0.1-1.1-0.1c-1.5,0-2.2,0.5-2.2,1.5c0,0.3,0.1,0.5,0.2,0.7s0.3,0.3,0.5,0.5
			s0.4,0.2,0.7,0.3c0.3,0.1,0.6,0.1,0.9,0.2c0.4,0.1,0.8,0.2,1.2,0.3s0.7,0.3,1,0.5s0.5,0.5,0.6,0.8c0.2,0.3,0.2,0.7,0.2,1.2
			c0,0.9-0.3,1.6-0.9,2.1S554.3,312,553.1,312z"/>
		<path class="st5" d="M562.8,312c-1.5,0-2.6-0.4-3.4-1.2s-1.1-2-1.1-3.7s0.4-2.9,1.1-3.8c0.8-0.9,1.8-1.3,3.3-1.3
			c2.5,0,3.7,1.4,3.7,4.3c0,0.6,0,1-0.1,1.3h-6.4c0.1,1.1,0.3,1.9,0.8,2.4s1.3,0.7,2.3,0.7c0.5,0,0.9,0,1.5-0.1
			c0.5-0.1,1-0.2,1.5-0.4l0.1,1.2c-0.5,0.2-1,0.3-1.6,0.4C563.9,311.9,563.4,312,562.8,312z M562.7,303.2c-1.7,0-2.7,1.1-2.8,3.3
			h5.1c0-1.2-0.2-2-0.6-2.5C564.1,303.4,563.5,303.2,562.7,303.2z"/>
		<path class="st5" d="M574.8,311.9c-0.8,0-1.5-0.2-1.9-0.7c-0.4-0.4-0.7-1.1-0.7-1.9c0-0.9,0.3-1.6,0.9-2.1s1.5-0.8,2.8-0.9
			l2.3-0.2v-0.7c0-0.4,0-0.8-0.1-1.1c-0.1-0.3-0.2-0.5-0.4-0.7s-0.4-0.3-0.7-0.4s-0.7-0.1-1.2-0.1c-0.4,0-0.8,0-1.3,0.1
			c-0.5,0-1,0.1-1.5,0.2l-0.1-1.2c0.6-0.1,1.2-0.2,1.7-0.3c0.5-0.1,1-0.1,1.6-0.1c1.3,0,2.2,0.3,2.8,0.8s0.9,1.3,0.9,2.4v6.6h-1.3
			l-0.2-1.2h-0.1c-0.6,0.4-1.2,0.7-1.7,1S575.4,311.9,574.8,311.9z M575.4,310.7c0.4,0,0.9-0.1,1.4-0.3s1-0.5,1.5-0.8v-2.4l-1.9,0.2
			c-0.9,0.1-1.6,0.3-2,0.5c-0.4,0.3-0.6,0.7-0.6,1.4C573.8,310.2,574.3,310.7,575.4,310.7z"/>
		<path class="st5" d="M582.5,297.3h1.6v14.5h-1.6V297.3z"/>
		<path class="st5" d="M588.8,311.9c-0.8,0-1.5-0.2-1.9-0.7c-0.4-0.4-0.7-1.1-0.7-1.9c0-0.9,0.3-1.6,0.9-2.1s1.5-0.8,2.8-0.9
			l2.3-0.2v-0.7c0-0.4,0-0.8-0.1-1.1c-0.1-0.3-0.2-0.5-0.4-0.7s-0.4-0.3-0.7-0.4s-0.7-0.1-1.2-0.1c-0.4,0-0.8,0-1.3,0.1
			c-0.5,0-1,0.1-1.5,0.2l-0.1-1.2c0.6-0.1,1.2-0.2,1.7-0.3c0.5-0.1,1-0.1,1.6-0.1c1.3,0,2.2,0.3,2.8,0.8s0.9,1.3,0.9,2.4v6.6h-1.3
			l-0.2-1.2h-0.1c-0.6,0.4-1.2,0.7-1.7,1S589.3,311.9,588.8,311.9z M589.3,310.7c0.4,0,0.9-0.1,1.4-0.3s1-0.5,1.5-0.8v-2.4l-1.9,0.2
			c-0.9,0.1-1.6,0.3-2,0.5c-0.4,0.3-0.6,0.7-0.6,1.4C587.8,310.2,588.3,310.7,589.3,310.7z"/>
		<path class="st5" d="M596.4,302.1h1.3l0.1,1.3h0.1c0.7-0.4,1.3-0.7,1.9-1c0.6-0.3,1.1-0.4,1.6-0.5h0.5v1.5h-0.6
			c-0.5,0.1-1.1,0.2-1.7,0.4c-0.6,0.2-1.1,0.5-1.6,0.7v7.2h-1.6V302.1z"/>
		<path class="st5" d="M603.5,302.1h1.3l0.1,1.1h0.1c0.8-0.5,1.4-0.8,2-1s1.1-0.3,1.6-0.3c1.2,0,1.9,0.4,2.3,1.3h0.1
			c0.8-0.5,1.4-0.8,2-1s1.1-0.3,1.6-0.3c0.8,0,1.5,0.2,1.9,0.7c0.4,0.4,0.7,1.1,0.7,2v7.2h-1.6v-6.7c0-0.7-0.1-1.1-0.4-1.4
			c-0.3-0.3-0.7-0.4-1.2-0.4c-0.4,0-0.8,0.1-1.3,0.3c-0.5,0.2-1,0.4-1.5,0.7v7.5h-1.6v-6.7c0-0.7-0.1-1.1-0.4-1.4
			c-0.3-0.3-0.7-0.4-1.2-0.4c-0.4,0-0.8,0.1-1.3,0.3c-0.5,0.2-1,0.4-1.5,0.8v7.5h-1.6L603.5,302.1L603.5,302.1z"/>
	</g>
	<g>
		<path class="st5" d="M923.4,92.1c-0.3,0-0.6,0-1,0c-0.3,0-0.7-0.1-1.1-0.1c-0.4,0-0.7-0.1-1.1-0.2c-0.4-0.1-0.7-0.1-1.1-0.2v-1.4
			c0.7,0.2,1.4,0.3,2.2,0.4c0.7,0.1,1.4,0.2,1.9,0.2c1,0,1.8-0.2,2.4-0.6c0.5-0.4,0.8-0.9,0.8-1.7c0-0.4-0.1-0.8-0.2-1
			c-0.2-0.3-0.4-0.5-0.6-0.7c-0.3-0.2-0.6-0.4-1-0.5s-0.8-0.3-1.2-0.4c-0.7-0.2-1.3-0.4-1.8-0.6s-0.9-0.5-1.2-0.8s-0.6-0.7-0.7-1.1
			c-0.2-0.4-0.2-0.9-0.2-1.4c0-0.6,0.1-1.1,0.3-1.5c0.2-0.5,0.5-0.8,0.9-1.2c0.4-0.3,0.9-0.6,1.4-0.7c0.6-0.2,1.2-0.3,1.9-0.3
			c0.5,0,1,0,1.6,0.1s1.2,0.2,1.9,0.4l-0.1,1.4c-0.6-0.2-1.2-0.3-1.7-0.4c-0.6-0.1-1.1-0.1-1.6-0.1c-0.9,0-1.7,0.2-2.2,0.6
			s-0.8,1-0.8,1.7c0,0.3,0.1,0.6,0.2,0.9c0.1,0.3,0.3,0.5,0.5,0.7s0.6,0.4,0.9,0.5c0.4,0.2,0.9,0.3,1.4,0.5c0.6,0.2,1.1,0.3,1.6,0.5
			s0.9,0.4,1.3,0.7s0.6,0.7,0.8,1.1s0.3,0.9,0.3,1.5c0,1.2-0.4,2.1-1.2,2.7C926.2,91.8,925,92.1,923.4,92.1z"/>
		<path class="st5" d="M934.2,92.1c-1.5,0-2.6-0.4-3.4-1.2s-1.1-2-1.1-3.7s0.4-2.9,1.1-3.8c0.8-0.9,1.8-1.3,3.3-1.3
			c2.5,0,3.7,1.4,3.7,4.3c0,0.6,0,1-0.1,1.3h-6.4c0.1,1.1,0.3,1.9,0.8,2.4s1.3,0.7,2.3,0.7c0.5,0,0.9,0,1.5-0.1
			c0.5-0.1,1-0.2,1.5-0.4l0.1,1.2c-0.5,0.2-1,0.3-1.6,0.4S934.8,92.1,934.2,92.1z M934.1,83.3c-1.7,0-2.7,1.1-2.8,3.3h5.1
			c0-1.2-0.2-2-0.6-2.5C935.5,83.5,934.9,83.3,934.1,83.3z"/>
		<path class="st5" d="M940,82.2h1.3l0.1,1.1h0.1c0.5-0.2,0.9-0.4,1.3-0.6c0.4-0.2,0.8-0.3,1.1-0.4s0.6-0.2,0.9-0.2
			c0.3,0,0.6-0.1,0.8-0.1c0.8,0,1.5,0.2,1.9,0.7c0.4,0.4,0.7,1.1,0.7,2v7.2h-1.6v-6.7c0-0.7-0.1-1.1-0.4-1.4
			c-0.3-0.3-0.6-0.4-1.2-0.4c-0.5,0-1,0.1-1.6,0.3c-0.6,0.2-1.2,0.4-1.9,0.8V92H940V82.2z"/>
		<path class="st5" d="M954.4,92.1c-1.3,0-2.3-0.4-3-1.2c-0.7-0.8-1-2.1-1-3.8c0-0.9,0.1-1.6,0.3-2.3c0.2-0.6,0.6-1.2,1-1.6
			s0.9-0.7,1.5-1c0.6-0.2,1.3-0.3,2-0.3c0.4,0,0.8,0,1.2,0.1c0.4,0,0.7,0.1,1.1,0.1v-4.8h1.6v14.5h-1.4l-0.1-1.2h-0.1
			C956.8,91.7,955.8,92.1,954.4,92.1z M954.8,90.9c0.4,0,0.7-0.1,1-0.2s0.6-0.2,0.9-0.4s0.5-0.4,0.6-0.7c0.1-0.3,0.2-0.6,0.2-0.9
			v-5.2c-0.3-0.1-0.7-0.1-1.1-0.1c-0.4,0-0.8-0.1-1.2-0.1c-1.1,0-1.8,0.3-2.4,0.9s-0.8,1.6-0.8,2.9c0,1.4,0.2,2.3,0.7,2.9
			C953.1,90.6,953.8,90.9,954.8,90.9z"/>
		<path class="st5" d="M966,82.2h1.3l0.1,1.1h0.1c0.5-0.2,0.9-0.4,1.3-0.6c0.4-0.2,0.8-0.3,1.1-0.4s0.6-0.2,0.9-0.2
			c0.3,0,0.6-0.1,0.8-0.1c0.8,0,1.5,0.2,1.9,0.7c0.4,0.4,0.7,1.1,0.7,2v7.2h-1.6v-6.7c0-0.7-0.1-1.1-0.4-1.4
			c-0.3-0.3-0.6-0.4-1.2-0.4c-0.5,0-1,0.1-1.6,0.3c-0.6,0.2-1.2,0.4-1.9,0.8V92H966V82.2z"/>
		<path class="st5" d="M980.9,92.1c-1.5,0-2.6-0.4-3.3-1.3c-0.8-0.9-1.2-2.1-1.2-3.7s0.4-2.9,1.2-3.8s1.9-1.3,3.3-1.3
			s2.6,0.4,3.3,1.3c0.8,0.9,1.2,2.1,1.2,3.8s-0.4,2.9-1.2,3.8C983.5,91.7,982.4,92.1,980.9,92.1z M980.9,90.8c1,0,1.7-0.3,2.2-0.9
			s0.7-1.5,0.7-2.9s-0.2-2.3-0.7-2.9s-1.2-0.9-2.2-0.9s-1.7,0.3-2.2,0.9S978,85.6,978,87s0.2,2.3,0.7,2.9S979.9,90.8,980.9,90.8z"/>
		<path class="st5" d="M991.2,92.1c-0.9,0-1.6-0.2-2.1-0.7s-0.7-1.2-0.7-2.1v-5.7h-2v-1.4h2.1l0.2-2.4l1.2-0.2v2.6h2.9v1.4H990V89
			c0,0.6,0.1,1.1,0.4,1.4c0.3,0.3,0.7,0.4,1.3,0.4c0.2,0,0.4,0,0.6,0c0.2,0,0.4-0.1,0.7-0.2v1.3c-0.3,0.1-0.6,0.1-0.9,0.2
			C991.7,92.1,991.5,92.1,991.2,92.1z"/>
		<path class="st5" d="M995.4,80.2c-0.6,0-1-0.3-1-1c0-0.6,0.3-1,1-1s1,0.3,1,1C996.4,79.9,996.1,80.2,995.4,80.2z M994.6,82.2h1.6
			v9.7h-1.6V82.2z"/>
		<path class="st5" d="M1000,83.6h-2.1v-1.4h2.1v-0.5c0-0.9,0.1-1.6,0.2-2.1c0.1-0.6,0.4-1,0.7-1.3s0.8-0.6,1.4-0.7
			c0.6-0.1,1.3-0.2,2.2-0.3l0.1,1.2c-0.6,0-1.1,0.1-1.5,0.2s-0.7,0.2-0.9,0.5s-0.4,0.5-0.5,0.8s-0.1,0.8-0.1,1.4v0.9h2.6v1.4h-2.6
			v8.4h-1.6L1000,83.6L1000,83.6z M1006.8,80.2c-0.6,0-1-0.3-1-1c0-0.6,0.3-1,1-1s1,0.3,1,1C1007.8,79.9,1007.5,80.2,1006.8,80.2z
			 M1006,82.2h1.6v9.7h-1.6V82.2z"/>
		<path class="st5" d="M1014.5,92.1c-3.1,0-4.6-1.7-4.6-5c0-3.4,1.5-5,4.6-5c0.4,0,0.8,0,1.2,0.1c0.4,0,0.8,0.1,1.1,0.2v1.3
			c-0.4-0.1-0.7-0.1-1.1-0.2c-0.4,0-0.7-0.1-1.1-0.1c-1.1,0-1.9,0.3-2.4,0.9s-0.8,1.5-0.8,2.8s0.2,2.2,0.7,2.8
			c0.5,0.6,1.3,0.9,2.4,0.9c0.4,0,0.8,0,1.1,0s0.7-0.1,1.1-0.2v1.3c-0.3,0.1-0.6,0.1-1.1,0.2S1014.9,92.1,1014.5,92.1z"/>
		<path class="st5" d="M1020.8,92c-0.8,0-1.5-0.2-1.9-0.7c-0.4-0.4-0.7-1.1-0.7-1.9c0-0.9,0.3-1.6,0.9-2.1s1.5-0.8,2.8-0.9l2.3-0.2
			v-0.7c0-0.4,0-0.8-0.1-1.1c-0.1-0.3-0.2-0.5-0.4-0.7s-0.4-0.3-0.7-0.4s-0.7-0.1-1.2-0.1c-0.4,0-0.8,0-1.3,0.1
			c-0.5,0-1,0.1-1.5,0.2l-0.1-1.2c0.6-0.1,1.2-0.2,1.7-0.3c0.5-0.1,1-0.1,1.6-0.1c1.3,0,2.2,0.3,2.8,0.8c0.6,0.5,0.9,1.3,0.9,2.4
			v6.6h-1.3l-0.2-1.2h-0.1c-0.6,0.4-1.2,0.7-1.7,1S1021.4,92,1020.8,92z M1021.4,90.8c0.4,0,0.9-0.1,1.4-0.3s1-0.5,1.5-0.8v-2.4
			l-1.9,0.2c-0.9,0.1-1.6,0.3-2,0.5c-0.4,0.3-0.6,0.7-0.6,1.4C1019.8,90.3,1020.4,90.8,1021.4,90.8z"/>
		<path class="st5" d="M1032.1,92.1c-0.9,0-1.6-0.2-2.1-0.7s-0.7-1.2-0.7-2.1v-5.7h-2v-1.4h2.1l0.2-2.4l1.2-0.2v2.6h2.9v1.4h-2.9V89
			c0,0.6,0.1,1.1,0.4,1.4s0.7,0.4,1.3,0.4c0.2,0,0.4,0,0.6,0s0.4-0.1,0.7-0.2v1.3c-0.3,0.1-0.6,0.1-0.9,0.2
			C1032.7,92.1,1032.4,92.1,1032.1,92.1z"/>
		<path class="st5" d="M1036.4,80.2c-0.6,0-1-0.3-1-1c0-0.6,0.3-1,1-1s1,0.3,1,1C1037.4,79.9,1037,80.2,1036.4,80.2z M1035.6,82.2
			h1.6v9.7h-1.6V82.2z"/>
		<path class="st5" d="M1043.9,92.1c-1.5,0-2.6-0.4-3.3-1.3c-0.8-0.9-1.2-2.1-1.2-3.7s0.4-2.9,1.2-3.8c0.8-0.9,1.9-1.3,3.3-1.3
			s2.6,0.4,3.3,1.3c0.8,0.9,1.2,2.1,1.2,3.8s-0.4,2.9-1.2,3.8C1046.5,91.7,1045.3,92.1,1043.9,92.1z M1043.9,90.8
			c1,0,1.7-0.3,2.2-0.9s0.7-1.5,0.7-2.9s-0.2-2.3-0.7-2.9s-1.2-0.9-2.2-0.9s-1.7,0.3-2.2,0.9s-0.7,1.5-0.7,2.9s0.2,2.3,0.7,2.9
			C1042.2,90.5,1042.9,90.8,1043.9,90.8z"/>
		<path class="st5" d="M1050.6,82.2h1.3l0.1,1.1h0.1c0.5-0.2,0.9-0.4,1.3-0.6s0.8-0.3,1.1-0.4c0.3-0.1,0.6-0.2,0.9-0.2
			s0.6-0.1,0.8-0.1c0.8,0,1.5,0.2,1.9,0.7c0.4,0.4,0.7,1.1,0.7,2v7.2h-1.6v-6.7c0-0.7-0.1-1.1-0.4-1.4s-0.6-0.4-1.2-0.4
			c-0.5,0-1,0.1-1.6,0.3c-0.6,0.2-1.2,0.4-1.9,0.8V92h-1.6L1050.6,82.2L1050.6,82.2z"/>
		<path class="st5" d="M1069.1,92.1c-0.9,0-1.6-0.2-2.1-0.7s-0.7-1.2-0.7-2.1v-5.7h-2v-1.4h2.1l0.2-2.4l1.2-0.2v2.6h2.9v1.4h-2.9V89
			c0,0.6,0.1,1.1,0.4,1.4s0.7,0.4,1.3,0.4c0.2,0,0.4,0,0.6,0s0.4-0.1,0.7-0.2v1.3c-0.3,0.1-0.6,0.1-0.9,0.2
			C1069.6,92.1,1069.4,92.1,1069.1,92.1z"/>
		<path class="st5" d="M1076.5,92.1c-1.5,0-2.6-0.4-3.3-1.3c-0.8-0.9-1.2-2.1-1.2-3.7s0.4-2.9,1.2-3.8c0.8-0.9,1.9-1.3,3.3-1.3
			s2.6,0.4,3.3,1.3c0.8,0.9,1.2,2.1,1.2,3.8s-0.4,2.9-1.2,3.8C1079.1,91.7,1078,92.1,1076.5,92.1z M1076.5,90.8c1,0,1.7-0.3,2.2-0.9
			s0.7-1.5,0.7-2.9s-0.2-2.3-0.7-2.9s-1.2-0.9-2.2-0.9s-1.7,0.3-2.2,0.9s-0.7,1.5-0.7,2.9s0.2,2.3,0.7,2.9S1075.5,90.8,1076.5,90.8z
			"/>
		<path class="st5" d="M903.1,103.9L903.1,103.9l1.5-0.1l1.7,6.7l0.3,1.4h0.1l0.3-1.4l1.9-6.7h1.5l2,6.7l0.4,1.4h0.1l0.3-1.4
			l1.7-6.7h1.5v0.1l-2.6,9.6H912l-1.9-6.5l-0.3-1.3h-0.1l-0.3,1.3l-1.9,6.5h-1.8L903.1,103.9z"/>
		<path class="st5" d="M920.3,113.6c-0.8,0-1.5-0.2-1.9-0.7c-0.4-0.4-0.7-1.1-0.7-1.9c0-0.9,0.3-1.6,0.9-2.1s1.5-0.8,2.8-0.9
			l2.3-0.2v-0.7c0-0.4,0-0.8-0.1-1.1c-0.1-0.3-0.2-0.5-0.4-0.7s-0.4-0.3-0.7-0.4s-0.7-0.1-1.2-0.1c-0.4,0-0.8,0-1.3,0.1
			c-0.5,0-1,0.1-1.5,0.2l-0.1-1.2c0.6-0.1,1.2-0.2,1.7-0.3c0.5-0.1,1-0.1,1.6-0.1c1.3,0,2.2,0.3,2.8,0.8s0.9,1.3,0.9,2.4v6.6H924
			l-0.2-1.2h-0.1c-0.6,0.4-1.2,0.7-1.7,1S920.9,113.6,920.3,113.6z M920.9,112.4c0.4,0,0.9-0.1,1.4-0.3s1-0.5,1.5-0.8v-2.4l-1.9,0.2
			c-0.9,0.1-1.6,0.3-2,0.5c-0.4,0.3-0.6,0.7-0.6,1.4C919.3,111.9,919.9,112.4,920.9,112.4z"/>
		<path class="st5" d="M931.6,113.7c-0.9,0-1.6-0.2-2.1-0.7s-0.7-1.2-0.7-2.1v-5.7h-2v-1.4h2.1l0.2-2.4l1.2-0.2v2.6h2.9v1.4h-2.9
			v5.4c0,0.6,0.1,1.1,0.4,1.4c0.3,0.3,0.7,0.4,1.3,0.4c0.2,0,0.4,0,0.6,0c0.2,0,0.4-0.1,0.7-0.2v1.3c-0.3,0.1-0.6,0.1-0.9,0.2
			C932.2,113.7,931.9,113.7,931.6,113.7z"/>
		<path class="st5" d="M939.1,113.7c-1.5,0-2.6-0.4-3.4-1.2s-1.1-2-1.1-3.7s0.4-2.9,1.1-3.8c0.8-0.9,1.8-1.3,3.3-1.3
			c2.5,0,3.7,1.4,3.7,4.3c0,0.6,0,1-0.1,1.3h-6.4c0.1,1.1,0.3,1.9,0.8,2.4s1.3,0.7,2.3,0.7c0.5,0,0.9,0,1.5-0.1
			c0.5-0.1,1-0.2,1.5-0.4l0.1,1.2c-0.5,0.2-1,0.3-1.6,0.4C940.2,113.6,939.6,113.7,939.1,113.7z M938.9,104.9
			c-1.7,0-2.7,1.1-2.8,3.3h5.1c0-1.2-0.2-2-0.6-2.5C940.3,105.1,939.7,104.9,938.9,104.9z"/>
		<path class="st5" d="M944.9,103.8h1.3l0.1,1.3h0.1c0.7-0.4,1.3-0.7,1.9-1c0.6-0.3,1.1-0.4,1.6-0.5h0.5v1.5h-0.6
			c-0.5,0.1-1.1,0.2-1.7,0.4c-0.6,0.2-1.1,0.5-1.6,0.7v7.2h-1.6V103.8z"/>
		<path class="st5" d="M955.7,103.8h1.3l0.1,1.1h0.1c0.8-0.5,1.4-0.8,2-1s1.1-0.3,1.6-0.3c1.2,0,1.9,0.4,2.3,1.3h0.1
			c0.8-0.5,1.4-0.8,2-1s1.1-0.3,1.6-0.3c0.8,0,1.5,0.2,1.9,0.7c0.4,0.4,0.7,1.1,0.7,2v7.2h-1.6v-6.7c0-0.7-0.1-1.1-0.4-1.4
			c-0.3-0.3-0.7-0.4-1.2-0.4c-0.4,0-0.8,0.1-1.3,0.3c-0.5,0.2-1,0.4-1.5,0.7v7.5h-1.6v-6.7c0-0.7-0.1-1.1-0.4-1.4
			c-0.3-0.3-0.7-0.4-1.2-0.4c-0.4,0-0.8,0.1-1.3,0.3c-0.5,0.2-1,0.4-1.5,0.8v7.5h-1.6L955.7,103.8L955.7,103.8z"/>
		<path class="st5" d="M973.8,113.6c-0.8,0-1.5-0.2-1.9-0.7c-0.4-0.4-0.7-1.1-0.7-1.9c0-0.9,0.3-1.6,0.9-2.1s1.5-0.8,2.8-0.9
			l2.3-0.2v-0.7c0-0.4,0-0.8-0.1-1.1c-0.1-0.3-0.2-0.5-0.4-0.7s-0.4-0.3-0.7-0.4s-0.7-0.1-1.2-0.1c-0.4,0-0.8,0-1.3,0.1
			c-0.5,0-1,0.1-1.5,0.2l-0.1-1.2c0.6-0.1,1.2-0.2,1.7-0.3c0.5-0.1,1-0.1,1.6-0.1c1.3,0,2.2,0.3,2.8,0.8s0.9,1.3,0.9,2.4v6.6h-1.3
			l-0.2-1.2h-0.1c-0.6,0.4-1.2,0.7-1.7,1S974.4,113.6,973.8,113.6z M974.4,112.4c0.4,0,0.9-0.1,1.4-0.3s1-0.5,1.5-0.8v-2.4l-1.9,0.2
			c-0.9,0.1-1.6,0.3-2,0.5c-0.4,0.3-0.6,0.7-0.6,1.4C972.8,111.9,973.4,112.4,974.4,112.4z"/>
		<path class="st5" d="M982.3,101.8c-0.6,0-1-0.3-1-1c0-0.6,0.3-1,1-1s1,0.3,1,1S983,101.8,982.3,101.8z M981.5,103.8h1.6v9.7h-1.6
			V103.8z"/>
		<path class="st5" d="M985.8,103.8h1.3l0.1,1.1h0.1c0.5-0.2,0.9-0.4,1.3-0.6c0.4-0.2,0.8-0.3,1.1-0.4s0.6-0.2,0.9-0.2
			c0.3,0,0.6-0.1,0.8-0.1c0.8,0,1.5,0.2,1.9,0.7c0.4,0.4,0.7,1.1,0.7,2v7.2h-1.6v-6.7c0-0.7-0.1-1.1-0.4-1.4
			c-0.3-0.3-0.6-0.4-1.2-0.4c-0.5,0-1,0.1-1.6,0.3c-0.6,0.2-1.2,0.4-1.9,0.8v7.5h-1.6v-9.8H985.8z"/>
		<path class="st5" d="M1000.5,113.7c-0.9,0-1.6-0.2-2.1-0.7s-0.7-1.2-0.7-2.1v-5.7h-2v-1.4h2.1l0.2-2.4l1.2-0.2v2.6h2.9v1.4h-2.9
			v5.4c0,0.6,0.1,1.1,0.4,1.4c0.3,0.3,0.7,0.4,1.3,0.4c0.2,0,0.4,0,0.6,0c0.2,0,0.4-0.1,0.7-0.2v1.3c-0.3,0.1-0.6,0.1-0.9,0.2
			C1001,113.7,1000.7,113.7,1000.5,113.7z"/>
		<path class="st5" d="M1007.9,113.7c-1.5,0-2.6-0.4-3.4-1.2s-1.1-2-1.1-3.7s0.4-2.9,1.1-3.8c0.8-0.9,1.8-1.3,3.3-1.3
			c2.5,0,3.7,1.4,3.7,4.3c0,0.6,0,1-0.1,1.3h-6.4c0.1,1.1,0.3,1.9,0.8,2.4s1.3,0.7,2.3,0.7c0.5,0,0.9,0,1.5-0.1
			c0.5-0.1,1-0.2,1.5-0.4l0.1,1.2c-0.5,0.2-1,0.3-1.6,0.4S1008.4,113.7,1007.9,113.7z M1007.8,104.9c-1.7,0-2.7,1.1-2.8,3.3h5.1
			c0-1.2-0.2-2-0.6-2.5C1009.1,105.1,1008.6,104.9,1007.8,104.9z"/>
		<path class="st5" d="M1013.7,103.8h1.3l0.1,1.1h0.1c0.5-0.2,0.9-0.4,1.3-0.6c0.4-0.2,0.8-0.3,1.1-0.4s0.6-0.2,0.9-0.2
			c0.3,0,0.6-0.1,0.8-0.1c0.8,0,1.5,0.2,1.9,0.7c0.4,0.4,0.7,1.1,0.7,2v7.2h-1.6v-6.7c0-0.7-0.1-1.1-0.4-1.4
			c-0.3-0.3-0.6-0.4-1.2-0.4c-0.5,0-1,0.1-1.6,0.3c-0.6,0.2-1.2,0.4-1.9,0.8v7.5h-1.6v-9.8H1013.7z"/>
		<path class="st5" d="M1026.5,113.6c-0.8,0-1.5-0.2-1.9-0.7c-0.4-0.4-0.7-1.1-0.7-1.9c0-0.9,0.3-1.6,0.9-2.1s1.5-0.8,2.8-0.9
			l2.3-0.2v-0.7c0-0.4,0-0.8-0.1-1.1c-0.1-0.3-0.2-0.5-0.4-0.7c-0.2-0.2-0.4-0.3-0.7-0.4c-0.3-0.1-0.7-0.1-1.2-0.1
			c-0.4,0-0.8,0-1.3,0.1c-0.5,0-1,0.1-1.5,0.2l-0.1-1.2c0.6-0.1,1.2-0.2,1.7-0.3c0.5-0.1,1-0.1,1.6-0.1c1.3,0,2.2,0.3,2.8,0.8
			c0.6,0.5,0.9,1.3,0.9,2.4v6.6h-1.3l-0.2-1.2h-0.1c-0.6,0.4-1.2,0.7-1.7,1S1027.1,113.6,1026.5,113.6z M1027.1,112.4
			c0.4,0,0.9-0.1,1.4-0.3s1-0.5,1.5-0.8v-2.4l-1.9,0.2c-0.9,0.1-1.6,0.3-2,0.5c-0.4,0.3-0.6,0.7-0.6,1.4
			C1025.5,111.9,1026.1,112.4,1027.1,112.4z"/>
		<path class="st5" d="M1038.3,113.7c-3.1,0-4.6-1.7-4.6-5c0-3.4,1.5-5,4.6-5c0.4,0,0.8,0,1.2,0.1c0.4,0,0.8,0.1,1.1,0.2v1.3
			c-0.4-0.1-0.7-0.1-1.1-0.2c-0.4,0-0.7-0.1-1.1-0.1c-1.1,0-1.9,0.3-2.4,0.9s-0.8,1.5-0.8,2.8s0.2,2.2,0.7,2.8
			c0.5,0.6,1.3,0.9,2.4,0.9c0.4,0,0.8,0,1.1,0s0.7-0.1,1.1-0.2v1.3c-0.3,0.1-0.6,0.1-1.1,0.2S1038.7,113.7,1038.3,113.7z"/>
		<path class="st5" d="M1046.5,113.7c-1.5,0-2.6-0.4-3.4-1.2s-1.1-2-1.1-3.7s0.4-2.9,1.1-3.8c0.8-0.9,1.8-1.3,3.3-1.3
			c2.5,0,3.7,1.4,3.7,4.3c0,0.6,0,1-0.1,1.3h-6.4c0.1,1.1,0.3,1.9,0.8,2.4s1.3,0.7,2.3,0.7c0.5,0,0.9,0,1.5-0.1
			c0.5-0.1,1-0.2,1.5-0.4l0.1,1.2c-0.5,0.2-1,0.3-1.6,0.4C1047.6,113.6,1047,113.7,1046.5,113.7z M1046.4,104.9
			c-1.7,0-2.7,1.1-2.8,3.3h5.1c0-1.2-0.2-2-0.6-2.5C1047.7,105.1,1047.1,104.9,1046.4,104.9z"/>
		<path class="st5" d="M1059.9,113.7c-0.9,0-1.6-0.2-2.1-0.7s-0.7-1.2-0.7-2.1v-5.7h-2v-1.4h2.1l0.2-2.4l1.2-0.2v2.6h2.9v1.4h-2.9
			v5.4c0,0.6,0.1,1.1,0.4,1.4s0.7,0.4,1.3,0.4c0.2,0,0.4,0,0.6,0s0.4-0.1,0.7-0.2v1.3c-0.3,0.1-0.6,0.1-0.9,0.2
			C1060.5,113.7,1060.2,113.7,1059.9,113.7z"/>
		<path class="st5" d="M1067.3,113.7c-1.5,0-2.6-0.4-3.4-1.2s-1.1-2-1.1-3.7s0.4-2.9,1.1-3.8c0.8-0.9,1.8-1.3,3.3-1.3
			c2.5,0,3.7,1.4,3.7,4.3c0,0.6,0,1-0.1,1.3h-6.4c0.1,1.1,0.3,1.9,0.8,2.4s1.3,0.7,2.3,0.7c0.5,0,0.9,0,1.5-0.1
			c0.5-0.1,1-0.2,1.5-0.4l0.1,1.2c-0.5,0.2-1,0.3-1.6,0.4C1068.4,113.6,1067.9,113.7,1067.3,113.7z M1067.2,104.9
			c-1.7,0-2.7,1.1-2.8,3.3h5.1c0-1.2-0.2-2-0.6-2.5C1068.6,105.1,1068,104.9,1067.2,104.9z"/>
		<path class="st5" d="M1075,113.6c-0.8,0-1.5-0.2-1.9-0.7c-0.4-0.4-0.7-1.1-0.7-1.9c0-0.9,0.3-1.6,0.9-2.1s1.5-0.8,2.8-0.9l2.3-0.2
			v-0.7c0-0.4,0-0.8-0.1-1.1c-0.1-0.3-0.2-0.5-0.4-0.7c-0.2-0.2-0.4-0.3-0.7-0.4c-0.3-0.1-0.7-0.1-1.2-0.1c-0.4,0-0.8,0-1.3,0.1
			c-0.5,0-1,0.1-1.5,0.2l-0.1-1.2c0.6-0.1,1.2-0.2,1.7-0.3c0.5-0.1,1-0.1,1.6-0.1c1.3,0,2.2,0.3,2.8,0.8c0.6,0.5,0.9,1.3,0.9,2.4
			v6.6h-1.3l-0.2-1.2h-0.1c-0.6,0.4-1.2,0.7-1.7,1S1075.6,113.6,1075,113.6z M1075.6,112.4c0.4,0,0.9-0.1,1.4-0.3s1-0.5,1.5-0.8
			v-2.4l-1.9,0.2c-0.9,0.1-1.6,0.3-2,0.5c-0.4,0.3-0.6,0.7-0.6,1.4C1074.1,111.9,1074.6,112.4,1075.6,112.4z"/>
		<path class="st5" d="M1082.7,103.8h1.3l0.1,1.1h0.1c0.8-0.5,1.4-0.8,2-1s1.1-0.3,1.6-0.3c1.2,0,1.9,0.4,2.3,1.3h0.1
			c0.8-0.5,1.4-0.8,2-1s1.1-0.3,1.6-0.3c0.8,0,1.5,0.2,1.9,0.7c0.4,0.4,0.7,1.1,0.7,2v7.2h-1.6v-6.7c0-0.7-0.1-1.1-0.4-1.4
			s-0.7-0.4-1.2-0.4c-0.4,0-0.8,0.1-1.3,0.3c-0.5,0.2-1,0.4-1.5,0.7v7.5h-1.6v-6.7c0-0.7-0.1-1.1-0.4-1.4s-0.7-0.4-1.2-0.4
			c-0.4,0-0.8,0.1-1.3,0.3c-0.5,0.2-1,0.4-1.5,0.8v7.5h-1.6L1082.7,103.8L1082.7,103.8z"/>
	</g>
	<g>
		<path class="st5" d="M915.4,287.3h-4.3v-1.3h10.2v1.3H917v12h-1.6V287.3z"/>
		<path class="st5" d="M923.7,299.4c-1.6,0-2.5-0.9-2.5-2.7v-7.2h1.6v6.7c0,0.6,0.1,1.1,0.3,1.4c0.2,0.3,0.6,0.4,1.2,0.4
			c0.6,0,1.2-0.1,1.8-0.4c0.6-0.2,1.2-0.5,1.8-0.8v-7.4h1.6v9.7h-1.3l-0.1-1.2H928c-0.5,0.2-0.9,0.4-1.3,0.6c-0.4,0.2-0.7,0.3-1,0.4
			c-0.3,0.1-0.6,0.2-0.9,0.2C924.4,299.4,924.1,299.4,923.7,299.4z"/>
		<path class="st5" d="M932.2,289.5h1.3l0.1,1.3h0.1c0.7-0.4,1.3-0.7,1.9-1c0.6-0.3,1.1-0.4,1.6-0.5h0.5v1.5h-0.6
			c-0.5,0.1-1.1,0.2-1.7,0.4c-0.6,0.2-1.1,0.5-1.6,0.7v7.2h-1.6V289.5z"/>
		<path class="st5" d="M939.3,289.5h1.3l0.1,1.1h0.1c0.5-0.2,0.9-0.4,1.3-0.6c0.4-0.2,0.8-0.3,1.1-0.4c0.3-0.1,0.6-0.2,0.9-0.2
			s0.6-0.1,0.8-0.1c0.8,0,1.5,0.2,1.9,0.7c0.4,0.4,0.7,1.1,0.7,2v7.2h-1.6v-6.7c0-0.7-0.1-1.1-0.4-1.4c-0.3-0.3-0.6-0.4-1.2-0.4
			c-0.5,0-1,0.1-1.6,0.3c-0.6,0.2-1.2,0.5-1.9,0.8v7.5h-1.6V289.5z"/>
		<path class="st5" d="M958.4,299.4c-1.5,0-2.6-0.4-3.3-1.3c-0.8-0.9-1.2-2.1-1.2-3.7c0-1.6,0.4-2.9,1.2-3.8
			c0.8-0.9,1.9-1.3,3.3-1.3s2.6,0.4,3.3,1.3c0.8,0.9,1.2,2.1,1.2,3.8c0,1.6-0.4,2.9-1.2,3.8C960.9,299,959.8,299.4,958.4,299.4z
			 M958.4,298.1c1,0,1.7-0.3,2.2-0.9c0.5-0.6,0.7-1.5,0.7-2.9c0-1.3-0.2-2.3-0.7-2.9c-0.5-0.6-1.2-0.9-2.2-0.9c-1,0-1.7,0.3-2.2,0.9
			c-0.5,0.6-0.7,1.5-0.7,2.9c0,1.3,0.2,2.3,0.7,2.9C956.6,297.8,957.4,298.1,958.4,298.1z"/>
		<path class="st5" d="M965.9,290.9h-2.1v-1.4h2.1V289c0-0.9,0.1-1.6,0.2-2.1c0.1-0.6,0.4-1,0.7-1.3c0.3-0.3,0.8-0.6,1.4-0.7
			s1.3-0.2,2.2-0.3l0.1,1.2c-0.6,0-1.1,0.1-1.5,0.2c-0.4,0.1-0.7,0.2-0.9,0.5s-0.4,0.5-0.5,0.8c-0.1,0.4-0.1,0.8-0.1,1.4v0.9h2.6
			v1.4h-2.6v8.4h-1.6V290.9z M972.8,290.9h-2.1v-1.4h2.1V289c0-0.9,0.1-1.6,0.2-2.1c0.1-0.6,0.4-1,0.7-1.3s0.8-0.6,1.4-0.7
			s1.3-0.2,2.2-0.3l0.1,1.2c-0.6,0-1.1,0.1-1.5,0.2c-0.4,0.1-0.7,0.2-0.9,0.5s-0.4,0.5-0.5,0.8c-0.1,0.4-0.1,0.8-0.1,1.4v0.9h2.6
			v1.4h-2.6v8.4h-1.6V290.9z"/>
		<path class="st5" d="M985.7,299.4c-0.9,0-1.6-0.2-2.1-0.7c-0.5-0.5-0.7-1.2-0.7-2.1v-5.7h-2v-1.4h2.1l0.2-2.4l1.2-0.2v2.6h2.9v1.4
			h-2.9v5.4c0,0.6,0.1,1.1,0.4,1.3c0.3,0.3,0.7,0.4,1.3,0.4c0.2,0,0.4,0,0.6,0c0.2,0,0.4-0.1,0.7-0.2v1.3c-0.3,0.1-0.6,0.1-0.9,0.2
			S986,299.4,985.7,299.4z"/>
		<path class="st5" d="M989.2,284.7h1.6v5.9c0.9-0.4,1.7-0.8,2.3-1s1.2-0.3,1.8-0.3c0.8,0,1.5,0.2,1.9,0.7c0.4,0.4,0.7,1.1,0.7,2
			v7.2h-1.6v-6.7c0-0.7-0.1-1.1-0.4-1.4c-0.3-0.3-0.6-0.4-1.2-0.4c-0.5,0-1,0.1-1.6,0.3c-0.6,0.2-1.2,0.5-1.9,0.8v7.5h-1.6V284.7z"
			/>
		<path class="st5" d="M1000.9,287.5c-0.6,0-1-0.3-1-1c0-0.6,0.3-1,1-1c0.7,0,1,0.3,1,1C1001.9,287.2,1001.5,287.5,1000.9,287.5z
			 M1000.1,289.5h1.6v9.7h-1.6V289.5z"/>
		<path class="st5" d="M1007.1,299.4c-0.4,0-0.9,0-1.4-0.1s-1.1-0.2-1.9-0.3v-1.3c0.6,0.1,1.2,0.3,1.7,0.4s1,0.1,1.5,0.1
			c0.7,0,1.3-0.1,1.6-0.4c0.4-0.3,0.5-0.7,0.5-1.2c0-0.3,0-0.5-0.1-0.7c-0.1-0.2-0.2-0.3-0.4-0.5c-0.2-0.1-0.4-0.2-0.6-0.3
			c-0.3-0.1-0.5-0.1-0.8-0.2c-0.4-0.1-0.8-0.2-1.1-0.2s-0.7-0.2-1-0.4c-0.3-0.2-0.6-0.5-0.8-0.8c-0.2-0.3-0.3-0.8-0.3-1.4
			c0-0.9,0.3-1.6,0.9-2.1s1.5-0.7,2.6-0.7c0.2,0,0.4,0,0.6,0c0.2,0,0.4,0,0.6,0.1c0.2,0,0.5,0.1,0.7,0.1c0.3,0,0.6,0.1,0.9,0.2
			l-0.1,1.3c-0.6-0.1-1.1-0.2-1.5-0.3c-0.4-0.1-0.8-0.1-1.1-0.1c-1.5,0-2.2,0.5-2.2,1.5c0,0.3,0.1,0.5,0.2,0.7
			c0.1,0.2,0.3,0.3,0.5,0.5s0.4,0.2,0.7,0.3s0.6,0.1,0.9,0.2c0.4,0.1,0.8,0.2,1.2,0.3s0.7,0.3,1,0.5c0.3,0.2,0.5,0.5,0.6,0.8
			c0.2,0.3,0.2,0.7,0.2,1.2c0,0.9-0.3,1.6-0.9,2.1C1009.2,299.2,1008.3,299.4,1007.1,299.4z"/>
		<path class="st5" d="M1019.8,299.4c-0.4,0-0.9,0-1.4-0.1s-1.1-0.2-1.9-0.3v-1.3c0.6,0.1,1.2,0.3,1.7,0.4s1,0.1,1.5,0.1
			c0.7,0,1.3-0.1,1.6-0.4c0.4-0.3,0.5-0.7,0.5-1.2c0-0.3,0-0.5-0.1-0.7c-0.1-0.2-0.2-0.3-0.4-0.5c-0.2-0.1-0.4-0.2-0.6-0.3
			c-0.3-0.1-0.5-0.1-0.8-0.2c-0.4-0.1-0.8-0.2-1.1-0.2s-0.7-0.2-1-0.4c-0.3-0.2-0.6-0.5-0.8-0.8c-0.2-0.3-0.3-0.8-0.3-1.4
			c0-0.9,0.3-1.6,0.9-2.1s1.5-0.7,2.6-0.7c0.2,0,0.4,0,0.6,0c0.2,0,0.4,0,0.6,0.1c0.2,0,0.5,0.1,0.7,0.1c0.3,0,0.6,0.1,0.9,0.2
			l-0.1,1.3c-0.6-0.1-1.1-0.2-1.5-0.3c-0.4-0.1-0.8-0.1-1.1-0.1c-1.5,0-2.2,0.5-2.2,1.5c0,0.3,0.1,0.5,0.2,0.7
			c0.1,0.2,0.3,0.3,0.5,0.5s0.4,0.2,0.7,0.3s0.6,0.1,0.9,0.2c0.4,0.1,0.8,0.2,1.2,0.3s0.7,0.3,1,0.5c0.3,0.2,0.5,0.5,0.6,0.8
			c0.2,0.3,0.2,0.7,0.2,1.2c0,0.9-0.3,1.6-0.9,2.1C1021.9,299.2,1021,299.4,1019.8,299.4z"/>
		<path class="st5" d="M1025.6,289.5h1.4l0.1,1.2h0.1c0.7-0.9,1.7-1.3,3-1.3c1.3,0,2.3,0.4,3,1.2s1,2,1,3.7c0,1.7-0.4,3-1.3,3.8
			s-2,1.3-3.6,1.3c-0.4,0-0.8,0-1.2-0.1c-0.4,0-0.7-0.1-1-0.1v3.9h-1.6V289.5z M1029.5,298.2c1.1,0,1.9-0.3,2.4-0.9
			c0.5-0.6,0.8-1.6,0.8-3c0-1.4-0.2-2.3-0.7-2.9s-1.2-0.9-2.1-0.9c-0.4,0-0.7,0.1-1,0.2c-0.3,0.1-0.6,0.2-0.9,0.4
			c-0.2,0.2-0.4,0.4-0.6,0.7c-0.1,0.3-0.2,0.6-0.2,0.9v5.2c0.3,0,0.7,0.1,1.1,0.1S1029,298.2,1029.5,298.2z"/>
		<path class="st5" d="M1036.5,289.5h1.3l0.1,1.3h0.1c0.7-0.4,1.3-0.7,1.9-1c0.6-0.3,1.1-0.4,1.6-0.5h0.5v1.5h-0.6
			c-0.5,0.1-1.1,0.2-1.7,0.4c-0.6,0.2-1.1,0.5-1.6,0.7v7.2h-1.6V289.5z"/>
		<path class="st5" d="M1044.3,287.5c-0.6,0-1-0.3-1-1c0-0.6,0.3-1,1-1c0.7,0,1,0.3,1,1C1045.3,287.2,1045,287.5,1044.3,287.5z
			 M1043.5,289.5h1.6v9.7h-1.6V289.5z"/>
		<path class="st5" d="M1047.9,289.5h1.3l0.1,1.1h0.1c0.5-0.2,0.9-0.4,1.3-0.6c0.4-0.2,0.8-0.3,1.1-0.4c0.3-0.1,0.6-0.2,0.9-0.2
			s0.6-0.1,0.8-0.1c0.8,0,1.5,0.2,1.9,0.7c0.4,0.4,0.7,1.1,0.7,2v7.2h-1.6v-6.7c0-0.7-0.1-1.1-0.4-1.4c-0.3-0.3-0.6-0.4-1.2-0.4
			c-0.5,0-1,0.1-1.6,0.3c-0.6,0.2-1.2,0.5-1.9,0.8v7.5h-1.6V289.5z"/>
		<path class="st5" d="M1058.7,284.7h1.6v9h1.7l3.3-4.2h1.8l-3.6,4.6l-0.3,0.1v0.1l0.3,0.2l3.9,4.8h-1.8l-3.6-4.4h-1.6v4.4h-1.6
			V284.7z"/>
		<path class="st5" d="M1068.7,284.7h1.6v14.5h-1.6V284.7z"/>
		<path class="st5" d="M1077.1,299.4c-1.5,0-2.6-0.4-3.4-1.2c-0.8-0.8-1.1-2-1.1-3.7c0-1.7,0.4-2.9,1.1-3.8c0.8-0.9,1.8-1.3,3.3-1.3
			c2.5,0,3.7,1.4,3.7,4.3c0,0.6,0,1-0.1,1.3h-6.4c0.1,1.1,0.3,1.9,0.8,2.4c0.5,0.5,1.3,0.7,2.3,0.7c0.5,0,0.9,0,1.5-0.1
			c0.5-0.1,1-0.2,1.5-0.4l0.1,1.2c-0.5,0.2-1,0.3-1.6,0.4S1077.6,299.4,1077.1,299.4z M1076.9,290.6c-1.7,0-2.7,1.1-2.8,3.3h5.1
			c0-1.2-0.2-2-0.6-2.5S1077.7,290.6,1076.9,290.6z"/>
		<path class="st5" d="M1082.8,289.5h1.3l0.1,1.3h0.1c0.7-0.4,1.3-0.7,1.9-1c0.6-0.3,1.1-0.4,1.6-0.5h0.5v1.5h-0.6
			c-0.5,0.1-1.1,0.2-1.7,0.4c-0.6,0.2-1.1,0.5-1.6,0.7v7.2h-1.6V289.5z"/>
	</g>
</g>
</svg>
