<?xml version="1.0" encoding="utf-8"?>
<!-- Generator: Adobe Illustrator 23.0.1, SVG Export Plug-In . SVG Version: 6.00 Build 0)  -->
<svg version="1.1" id="Layer_1" xmlns="http://www.w3.org/2000/svg" xmlns:xlink="http://www.w3.org/1999/xlink" x="0px" y="0px"
	 viewBox="0 0 379 290" style="enable-background:new 0 0 379 290;" xml:space="preserve">
<style type="text/css">
	.st0{fill:#65A09E;}
</style>
<title>alarms</title>
<g>
	<g>
		<g id="Layer_1-2">
			<image style="overflow:visible;opacity:0.5;enable-background:new    ;" width="379" height="290" xlink:href="D3D7E232.png" >
			</image>
			<path class="st0" d="M187.5,246.9c-34.1,0-68.2,0-102.3,0c-3.5,0-6.4-0.7-8.3-3.9c-2.1-3.5-0.6-6.4,1.4-9.3
				c9-13.3,18.6-26.4,23.3-41.9c2.3-7.3,3.7-14.9,4-22.6c0.6-20-0.4-40,0.3-60c1.2-31.3,15-55.3,43.4-69.8c3.9-2,8-3.5,12.2-4.6
				c2.9-0.8,3.7-2,3.5-4.8c-0.3-6.5-0.1-12.9,3.8-18.7c5.4-7.9,15.4-11.8,24.2-9.3c9.9,2.8,16.7,11.4,17,21.2
				c0.1,3.4-1.1,7.5,0.5,9.9s5.9,2.5,8.9,3.7c27.5,11,43.1,31.6,48.3,60.4c1,5.6,1.4,11.3,1.5,17.1c0.2,16.5,0.5,33,0,49.5
				s3.8,31.3,11.9,45.1c5,8.5,10.5,16.6,15.9,24.9c1.8,2.8,3.3,5.6,1.4,9s-4.8,4.2-8.5,4.2C255.7,246.9,221.6,246.8,187.5,246.9z
				 M195.1,31.1c-0.3-5,1.6-10.6-3.8-13.6c-2.4-1.1-5.2-1.1-7.6,0.1c-5.3,3.1-3.4,8.6-3.5,13.6L195.1,31.1z"/>
			<path class="st0" d="M335.4,34.7l12.1-7.4c34.9,54.7,34.6,131.6,0,186.1l-12.1-7.4C366.6,148.9,366.6,92,335.4,34.7z"/>
			<path class="st0" d="M39.7,206l-11.8,7.3C-3.2,167.6-10.7,88,27.6,27.3l12.1,7.5C8.5,91.9,8.6,148.8,39.7,206z"/>
			<path class="st0" d="M60,47.2l12.4,7.5C60.1,74.3,53.6,97,53.7,120.2c0,23.4,6.6,45.1,18.8,65.8l-12.4,7.4
				C32.9,152.5,30.8,91.1,60,47.2z"/>
			<path class="st0" d="M315.5,193.6l-12.6-7.6c24.5-43.9,25.4-87.4,0.1-131.2l12.4-7.8c10.6,16.5,17.4,35.2,19.9,54.7
				C339.4,134.3,332.6,164.8,315.5,193.6z"/>
			<path class="st0" d="M221.1,262c-4.7,12.7-18.6,22.1-33.4,22.1s-28.3-8.5-33.8-22.1H221.1z"/>
		</g>
	</g>
</g>
</svg>
