<?xml version="1.0" encoding="utf-8"?>
<!-- Generator: Adobe Illustrator 23.0.1, SVG Export Plug-In . SVG Version: 6.00 Build 0)  -->
<svg version="1.1" id="Layer_1" xmlns="http://www.w3.org/2000/svg" xmlns:xlink="http://www.w3.org/1999/xlink" x="0px" y="0px"
	 viewBox="0 0 183 140" style="enable-background:new 0 0 183 140;" xml:space="preserve">
<style type="text/css">
	.st0{fill:#65A09E;}
</style>
<title>biDashboard_1</title>
<g>
	<g>
		<g id="Layer_1-2">
			<image style="overflow:visible;opacity:0.5;enable-background:new    ;" width="183" height="140" xlink:href="C777F341.png" >
			</image>
			<g id="layer">
				<path class="st0" d="M177.9,116.2c-0.6,2.2-2.7,3.6-5,3.3H5.7c-1.9,0.2-3.8-0.9-4.6-2.6V4.3C2,2.4,3.9,1.3,6,1.6h166.9
					c2.2-0.2,4.2,1,5,3.1L177.9,116.2z M170.3,112V9.2H8.5V112H170.3z"/>
				<path class="st0" d="M89.5,126.9h30.2c1.8-0.2,3.4,0.9,3.9,2.6c0.6,1.9-0.5,4-2.4,4.6c-0.5,0.2-1,0.2-1.5,0.1h-61
					c-2,0-3.7-1.6-3.7-3.6l0,0c0-2,1.6-3.6,3.6-3.6L89.5,126.9L89.5,126.9z"/>
				<path class="st0" d="M134.6,46.4c-3.9-0.4-5.7-2.8-3.6-6.8s4.1-7.3,6.2-11.1v-0.1c-7.5-2.1-15.4,2.3-17.5,9.9
					c-0.1,0.3-0.2,0.6-0.2,0.9c-2.1,7.6,2.4,15.4,10,17.4c0,0,0,0,0,0l0.6,0.2c7.9,1.7,15.7-2.4,17-8.6c-0.2-0.1-0.5-0.2-0.8-0.2
					C142.4,47.3,138.5,46.8,134.6,46.4z"/>
				<path class="st0" d="M13.5,22.4v76.4c0,4.5,3.6,8.2,8.2,8.2c0,0,0,0,0,0h135.4c4.5,0,8.2-3.7,8.2-8.2c0,0,0,0,0,0V22.4
					c0-4.5-3.7-8.2-8.2-8.2H21.7C17.2,14.2,13.5,17.9,13.5,22.4z M30.4,83v10.3c0,2-1.5,3.7-3.4,3.9c-2,0.1-3.7-1.4-3.8-3.4
					c0-0.1,0-0.1,0-0.2v-14c0-2,1.5-3.7,3.5-3.9c2-0.1,3.7,1.4,3.8,3.5c0,0.1,0,0.1,0,0.2L30.4,83z M45.2,57.8v34.8
					c0,3.2-1.3,4.9-3.9,4.9s-3.7-1.8-3.7-5l0.2-17.1v-18c-0.3-2,1.2-3.9,3.2-4.1c0.8-0.1,1.7,0.1,2.4,0.5
					C44.7,54.7,45.4,56.3,45.2,57.8z M60,93.4c0.1,2.2-1.5,4-3.7,4.2c-1.1,0.1-2.2-0.4-2.9-1.2c-0.7-0.8-1.1-1.9-1-3
					c0,0,0-0.1,0-0.1c0.1-4.8,0.2-9.6,0.2-14.3v-14c-0.2-2.2,1.4-4.1,3.6-4.2c0,0,0,0,0,0h0.3c2.1,0.2,3.7,2.1,3.5,4.2V93.4z
					 M74.6,50.3v43c0.2,2.2-1.4,4.1-3.6,4.3h-0.1c-2.2,0-3.7-1.7-3.7-4.3V71.9l0,0V49.9c-0.2-2,1.1-3.8,3.1-4c0,0,0,0,0,0
					c0.4-0.1,0.8,0,1.2,0.1C73.5,46.4,74.8,48.3,74.6,50.3z M86.2,97.6c-2,0.3-3.9-1.1-4.2-3.2c0-0.4,0-0.7,0-1.1v-65
					c0-2.5,1.1-3.9,3-4.4c2-0.4,3.9,1,4.3,3c0,0,0,0,0,0c0,0.3,0,0.7,0,1v65.3C89.6,95.4,88.2,97.3,86.2,97.6z M151.9,97.6h-0.2
					h-18.2h-18.1c-1.6,0.1-3.1-0.8-3.7-2.3c-0.7-1.3-0.3-3,0.8-3.9c0.8-0.6,1.7-1,2.8-1.1h36.4c2-0.2,3.7,1.3,3.9,3.3
					c0,0.1,0,0.3,0,0.4C155.6,96,154,97.6,151.9,97.6L151.9,97.6z M154.1,82c-0.8,0.4-1.7,0.6-2.6,0.6c-6.1,0.2-12,0.2-18,0.2h-17.7
					c-2.7,0-4.3-1.4-4.3-3.7s1.6-3.7,4.3-3.7h35.8c1.8-0.2,3.4,0.9,3.9,2.6C156,79.6,155.4,81.2,154.1,82z M133.5,64.5
					c-12-0.5-21.5-10.2-21.8-22.2c0.2-12.2,10.1-21.9,22.3-21.7s21.9,10.1,21.7,22.3C155.1,54.8,145.4,64.2,133.5,64.5z"/>
				<path class="st0" d="M139.5,39.5l8.7,1.1c-0.3-3.5-1.9-6.7-4.5-9L139.5,39.5z"/>
			</g>
		</g>
	</g>
</g>
</svg>
