<?xml version="1.0" encoding="utf-8"?>
<!-- Generator: Adobe Illustrator 23.0.1, SVG Export Plug-In . SVG Version: 6.00 Build 0)  -->
<svg version="1.1" id="Layer_1" xmlns="http://www.w3.org/2000/svg" xmlns:xlink="http://www.w3.org/1999/xlink" x="0px" y="0px"
	 viewBox="0 0 1628.5 599.4" style="enable-background:new 0 0 1628.5 599.4;" xml:space="preserve">
<style type="text/css">
	.st0{fill:#FFFFFF;}
</style>
<g>
	<polygon class="st0" points="1196,468 1196,468 1562.2,94.7 1467.5,0 1196,275.4 1196,8.8 1052,8.8 1052,595.5 1196,595.5 
		1196,469.7 1322.6,595.5 1563.4,595.5 1563.4,467.8 	"/>
	<polygon class="st0" points="384.7,251 285.3,350.3 402.7,467.9 143.5,467.9 143.5,136.9 490.4,136.4 490.4,8.8 143.4,8.8 0,136.9 
		0,467.9 143.4,595.5 277.4,595.5 404.2,469.9 404.3,470 404.3,595.5 549.9,595.5 549.9,416.2 	"/>
	<polygon class="st0" points="720.7,467.9 984.4,205.5 984.4,135.8 841.6,8.8 595.7,8.8 595.7,137.1 841.6,135.8 841.6,158.3 
		625.8,372.6 720.4,467.9 595.7,467.9 595.7,468.2 595.7,595.5 1006.9,595.5 1006.9,467.8 	"/>
	<path class="st0" d="M1601,544.4c-15-0.2-27.4,11.9-27.5,26.9c0,0.2,0,0.4,0,0.6c0,15.7,11.8,27.5,27.5,27.5
		c15.7,0,27.5-11.8,27.5-27.5C1628.5,556.3,1616.7,544.4,1601,544.4z M1601,593.8c-12.3,0-21.5-9.5-21.5-21.8
		c0-12.3,9.3-21.9,21.5-21.9c12.2,0,21.5,9.6,21.5,21.9C1622.5,584.2,1613.3,593.8,1601,593.8L1601,593.8z"/>
	<path class="st0" d="M1608.2,577.1l2.7-2.7v-12.5l-2.7-2.7h-17.6v26.9h4.9v-9h5.6l5.2,9l5.1,0l-5.1-9L1608.2,577.1z M1606.6,572.9
		h-11.1v-9.6h11.1L1606.6,572.9z"/>
</g>
</svg>
