<?xml version="1.0" encoding="utf-8"?>
<!-- Generator: Adobe Illustrator 25.0.1, SVG Export Plug-In . SVG Version: 6.00 Build 0)  -->
<svg version="1.1" id="Layer_1" xmlns="http://www.w3.org/2000/svg" xmlns:xlink="http://www.w3.org/1999/xlink" x="0px" y="0px"
	 viewBox="0 0 21.4 20" style="enable-background:new 0 0 21.4 20;" xml:space="preserve">
<style type="text/css">
	.st0{fill:#FFFFFF;}
</style>
<g id="Layer_2_1_">
	<g id="bg">
		<path class="st0" d="M20.8,0.1C20.5,0,20.3,0,20.1,0H1.3C1.1,0,0.9,0,0.7,0C0.3,0,0,0.4,0,0.8c0,0.5,0.4,0.7,0.8,0.8
			c0.3,0.1,0.5,0.3,0.7,0.5c2,2.3,4,4.7,6,7c0.2,0.2,0.4,0.3,0.6,0.4C8,9.8,7.9,10,7.9,10.3C8,13.8,8,16,8,19.5C8,19.6,8,20,8,20
			l5.4-3.6c0,0,0-3.7,0-6.1c0-0.2,0-0.5-0.1-0.7c0.2-0.1,0.5-0.2,0.6-0.4c2-2.3,3.9-4.6,5.9-6.9c0.3-0.3,0.6-0.6,1-0.7
			c0.3-0.1,0.5-0.4,0.6-0.7C21.4,0.5,21,0.3,20.8,0.1z"/>
	</g>
</g>
</svg>
