<svg xmlns="http://www.w3.org/2000/svg" viewBox="0 0 30 25.62"><defs><style>.cls-1{fill:#fff;}</style></defs><title>browse</title><g id="Layer_2" data-name="Layer 2"><g id="layer"><path class="cls-1" d="M14.27,9.42c.06-.24.1-.43.14-.62a2.94,2.94,0,0,1,2.9-2.41c3.25,0,6.49,0,9.74,0A2.86,2.86,0,0,1,30,9.27c0,4.46,0,8.92,0,13.38a2.81,2.81,0,0,1-2.36,2.76,7.44,7.44,0,0,1-1.7.18H6.42a2.8,2.8,0,0,1-3-2.81q-.06-5.28,0-10.56A3,3,0,0,1,6.6,9.42h7.67Zm8.6,11.34c1.14.84,2.27,1.69,3.41,2.52a1.41,1.41,0,0,0,2.1-.16A1.45,1.45,0,0,0,28,21c-.89-.67-1.76-1.38-2.69-2a1.1,1.1,0,0,1-.57-1.36,4.79,4.79,0,0,0-3.32-5.58,4.89,4.89,0,0,0-5.93,2.69,4.92,4.92,0,0,0,7.41,6Z"/><path class="cls-1" d="M0,14.15V4A3.85,3.85,0,0,1,4,0H11.9a3.73,3.73,0,0,1,3.67,2.51.7.7,0,0,0,.81.53H28.66a1.55,1.55,0,0,1,.79.08c.26.17.58.52.55.75s-.39.55-.65.75-.39,0-.59,0H15.45c-1.06,0-1.12-.05-1.28-1.1A2.16,2.16,0,0,0,12,1.64c-2.75,0-5.5,0-8.25,0A2.19,2.19,0,0,0,1.64,4.07q0,10,0,20.09c0,.2,0,.4,0,.6,0,.55-.3.89-.88.86S0,25.22,0,24.71V14.15Z"/><path class="cls-1" d="M19.94,13.07a3.7,3.7,0,0,0-3.74,3.71,3.74,3.74,0,0,0,7.48.08A3.7,3.7,0,0,0,19.94,13.07Z"/><path class="cls-1" d="M24,19.44c.14.08.25.12.35.19.65.49,1.31,1,1.94,1.47.12.1.13.32.2.49-.2,0-.45.13-.58.05-.69-.47-1.36-1-2-1.49a.76.76,0,0,1-.15-.5C23.74,19.59,23.9,19.51,24,19.44Z"/></g></g></svg>