<svg xmlns="http://www.w3.org/2000/svg" viewBox="0 0 30 23.98"><defs><style>.cls-1{fill:#fff;}</style></defs><title>capture</title><g id="Layer_2" data-name="Layer 2"><g id="layer"><path class="cls-1" d="M22.55,3.43c.2-1.57.57-1.93,2-1.94,1.59,0,2,.31,2.2,2l.66,0c1.79,0,2.59.86,2.59,2.67V21.37A2.32,2.32,0,0,1,27.41,24H2.56A2.29,2.29,0,0,1,0,21.42Q0,13.71,0,6A2.24,2.24,0,0,1,2.46,3.52c1.92,0,3.84,0,5.75,0A.82.82,0,0,0,9.09,3,14.71,14.71,0,0,1,10,1.21,2.32,2.32,0,0,1,12.15,0C14,0,15.78.07,17.59,0a3,3,0,0,1,2.78,1.56A6,6,0,0,1,21,2.71C21.24,3.52,21.76,3.68,22.55,3.43ZM15,22.67H27.34c1.07,0,1.32-.25,1.32-1.3V6.11c0-1.05-.25-1.29-1.32-1.29-2,0-4.09,0-6.13,0a.86.86,0,0,1-.94-.56c-.29-.68-.64-1.34-1-2a1.76,1.76,0,0,0-1.74-1c-1.68.05-3.37.06-5.06,0a1.55,1.55,0,0,0-1.61,1c-.32.67-.68,1.32-1,2A.81.81,0,0,1,9,4.83c-2.09,0-4.19,0-6.28,0-1.17,0-1.4.22-1.4,1.37v15c0,1.26.2,1.46,1.47,1.46Z"/><path class="cls-1" d="M15,20.64a7,7,0,1,1,7-6.92A7,7,0,0,1,15,20.64ZM15.06,8A5.67,5.67,0,1,0,15,19.36a5.71,5.71,0,0,0,5.69-5.64A5.65,5.65,0,0,0,15.06,8Z"/><path class="cls-1" d="M5.1,9.39H3.19c-.52,0-.81-.2-.79-.77s0-1.42,0-2.14a.6.6,0,0,1,.69-.7c1.35,0,2.7,0,4.05,0a.91.91,0,0,1,.62.57,23.42,23.42,0,0,1,0,2.37c0,.5-.33.64-.76.64Z"/><path class="cls-1" d="M19,13.68a4,4,0,1,1-4-4A4,4,0,0,1,19,13.68ZM15,11a2.77,2.77,0,0,0-2.73,2.73A2.74,2.74,0,1,0,15,11Z"/></g></g></svg>