<?xml version="1.0" encoding="utf-8"?>
<!-- Generator: Adobe Illustrator 23.0.1, SVG Export Plug-In . SVG Version: 6.00 Build 0)  -->
<svg version="1.1" id="Layer_1" xmlns="http://www.w3.org/2000/svg" xmlns:xlink="http://www.w3.org/1999/xlink" x="0px" y="0px"
	 viewBox="0 0 74.3 64.9" style="enable-background:new 0 0 74.3 64.9;" xml:space="preserve">
<style type="text/css">
	.st0{fill:#042021;}
</style>
<title>media</title>
<title>media</title>
<g>
	<g id="layer_1_">
		<path class="st0" d="M41.8,56.4H15c-3.8,0-5.4-1.6-5.4-5.4c0-13.4,0-26.8,0-40.2c0-3.6,1.7-5.3,5.3-5.3c7.2,0,14.4,0,21.6,0
			c1.4,0,2.7-0.2,4-0.6c5.1-1.5,10.1-3,15.2-4.5c3.6-1.1,5.6,0,6.7,3.6c0.3,1.1,0.8,1.6,2,1.5c1.6-0.1,3.2,0,4.7,0
			c3.5,0,5.1,1.6,5.2,5.2c0,3,0,5.9,0,8.9c0,10.4,0,20.8,0,31.1c0,4.2-1.5,5.7-5.7,5.7H41.8z M70.8,41c0.1-0.9,0.2-1.2,0.2-1.6
			c0-9.5,0-19,0-28.5c0-1.9-0.9-2.1-2.4-2.1c-17.7,0-35.4,0-53.2,0c-2,0-2.6,0.7-2.6,2.6c0.1,9.1,0,18.3,0,27.4c0,0.5,0.1,1,0.2,2
			c3-3.6,5.8-7,8.6-10.3c1.7-2,3.3-2,5-0.1c1.7,1.9,3.2,3.9,4.9,5.9c2,2.5,3.6,2.5,5.6,0c4-4.9,7.9-9.8,11.9-14.7
			c2-2.5,3.6-2.5,5.7,0c3.5,4.2,7,8.5,10.5,12.7L70.8,41z"/>
		<path class="st0" d="M6.3,15.5V42c-0.4-0.9-0.6-1.4-0.7-1.9c-1.7-5.5-3.1-11-5-16.5C-1.2,18.7,1.1,16,6.3,15.5z"/>
		<path class="st0" d="M11.6,59.4h23.1l0.1,0.3c-2.1,0.7-4.3,1.3-6.4,2c-3.2,1-6.4,1.9-9.6,2.9C14.4,65.8,12,64.1,11.6,59.4z"/>
		<path class="st0" d="M28.8,18.7c-0.1-3.1,2.4-5.7,5.5-5.7c0.1,0,0.1,0,0.2,0c3.2,0,5.8,2.6,5.8,5.7c-0.1,3.2-2.6,5.7-5.8,5.8
			C31.3,24.5,28.7,21.9,28.8,18.7C28.7,18.7,28.7,18.7,28.8,18.7z"/>
	</g>
</g>
</svg>
