<?xml version="1.0" encoding="utf-8"?>
<!-- Generator: Adobe Illustrator 22.0.0, SVG Export Plug-In . SVG Version: 6.00 Build 0)  -->
<svg version="1.1" id="Layer_1" xmlns="http://www.w3.org/2000/svg" xmlns:xlink="http://www.w3.org/1999/xlink" x="0px" y="0px"
	 viewBox="0 0 22.3 22" style="enable-background:new 0 0 22.3 22;" xml:space="preserve">
<style type="text/css">
	.st0{fill:#fff;}
</style>
<title>reset</title>
<g id="Layer_2_1_">
	<g id="bg">
		<path class="st0" d="M5.5,6.3c0.9,0,1.7,0,2.4,0S9,6.6,9,7.4c0,0.2,0,0.3,0,0.5C9,9,8.8,9.3,7.6,9.3H1.3C0.2,9.3,0,9,0,8V1.6
			c0-1.1,0.2-1.3,1.2-1.3c0.3,0,0.5,0,0.8,0c0.7,0,1,0.3,1,1s0,1.4,0,2.3c0.3-0.2,0.5-0.3,0.6-0.5c3-3,7.5-3.9,11.4-2.4
			c4.1,1.3,6.9,5,7.2,9.3c0.6,5.6-3.2,10.8-8.7,11.9c-0.9,0.2-1.9-0.3-2.1-1.2l0,0c-0.2-0.9,0.3-1.8,1.2-2.1c0.8-0.3,1.6-0.6,2.4-1
			c2.6-1.4,4.1-4.4,3.7-7.3c-0.2-2.8-2.1-5.3-4.8-6.2C11.2,3,8,3.6,6,5.7C5.8,5.8,5.7,6,5.5,6.3z"/>
	</g>
</g>
</svg>
