<?xml version="1.0" encoding="utf-8"?>
<!-- Generator: Adobe Illustrator 25.0.1, SVG Export Plug-In . SVG Version: 6.00 Build 0)  -->
<svg version="1.1" id="Layer_1" xmlns="http://www.w3.org/2000/svg" xmlns:xlink="http://www.w3.org/1999/xlink" x="0px" y="0px"
	 viewBox="0 0 1563.4 595.5" style="enable-background:new 0 0 1563.4 595.5;" xml:space="preserve">
<style type="text/css">
	.st0{fill:#FFFFFF;}
</style>
<g>
	<polygon class="st0" points="1196,468 1196,468 1562.2,94.7 1467.5,0 1196,275.4 1196,8.8 1052,8.8 1052,595.5 1196,595.5 
		1196,469.7 1322.6,595.5 1563.4,595.5 1563.4,467.8 	"/>
	<polygon class="st0" points="384.7,251 285.3,350.3 402.7,467.9 143.5,467.9 143.5,136.9 490.4,136.4 490.4,8.8 143.4,8.8 0,136.9 
		0,467.9 143.4,595.5 277.4,595.5 404.2,469.9 404.3,470 404.3,595.5 549.9,595.5 549.9,416.2 	"/>
	<polygon class="st0" points="720.7,467.9 984.4,205.5 984.4,135.8 841.6,8.8 595.7,8.8 595.7,137.1 841.6,135.8 841.6,158.3 
		625.8,372.6 720.4,467.9 595.7,467.9 595.7,468.2 595.7,595.5 1006.9,595.5 1006.9,467.8 	"/>
</g>
</svg>
