<svg xmlns="http://www.w3.org/2000/svg" viewBox="0 0 25 28.88"><defs><style>.cls-1{fill:#999;}</style></defs><g id="Layer_2" data-name="Layer 2"><g id="layer"><path class="cls-1" d="M25,13.64a4.27,4.27,0,0,0-.08-.87,3.88,3.88,0,0,0-3.76-3.15h-.82V9.23a17.26,17.26,0,0,0-.09-2.59,7.5,7.5,0,0,0-2.48-4.75A7.64,7.64,0,0,0,13.08,0,7.7,7.7,0,0,0,8.13,1.38,7.41,7.41,0,0,0,5,6.93c-.1.84-.09,1.68-.13,2.53,0,.12,0,.16-.16.16H4a3.91,3.91,0,0,0-2.67,1,3.73,3.73,0,0,0-1.3,3V25a3.78,3.78,0,0,0,.54,2,3.68,3.68,0,0,0,3.12,1.91c.62,0,1.23,0,1.85,0H21a3.91,3.91,0,0,0,4-4.06ZM14.48,17.37a1.88,1.88,0,0,1-.79,1.54.39.39,0,0,0-.16.33c0,.93,0,1.85,0,2.78a1,1,0,0,1-.75,1.08,1,1,0,0,1-1.29-.91v-.73h0c0-.73,0-1.46,0-2.19a.41.41,0,0,0-.19-.38,2,2,0,0,1-.44-2.66,2,2,0,0,1,3.64,1.14Zm3.8-8.31c0,.13,0,.25,0,.38s-.05.16-.18.16H6.94a.26.26,0,0,1,0-.07,20.33,20.33,0,0,1,.19-3,5.42,5.42,0,0,1,4.77-4.39,5.67,5.67,0,0,1,4.06,1,5.49,5.49,0,0,1,2.24,3.64A13.74,13.74,0,0,1,18.28,9.06Z"/></g></g></svg>