<svg xmlns="http://www.w3.org/2000/svg" viewBox="0 0 25 26.35"><defs><style>.cls-1{fill:#999;}</style></defs><g id="Layer_2" data-name="Layer 2"><g id="layer"><path class="cls-1" d="M13.22,26.35c.77,0,2.24-.09,3.71-.21a26,26,0,0,0,5.93-1.08,15,15,0,0,0,1.79-.79.6.6,0,0,0,.35-.65,5.25,5.25,0,0,0-1.27-3,10.23,10.23,0,0,0-4.37-3,19.21,19.21,0,0,0-11-.8,13.42,13.42,0,0,0-6.09,2.79A5.89,5.89,0,0,0,.12,23c-.18,1-.32,1.09.78,1.57a15.86,15.86,0,0,0,2.68.88A41.67,41.67,0,0,0,13.22,26.35Z"/><path class="cls-1" d="M5.25,7.25A7.26,7.26,0,1,0,12.47,0,7.25,7.25,0,0,0,5.25,7.25Z"/></g></g></svg>