<?xml version="1.0" encoding="utf-8"?>
<!-- Generator: Adobe Illustrator 24.2.2, SVG Export Plug-In . SVG Version: 6.00 Build 0)  -->
<svg version="1.1" id="Layer_1" xmlns="http://www.w3.org/2000/svg" xmlns:xlink="http://www.w3.org/1999/xlink" x="0px" y="0px"
	 viewBox="0 0 353.1 62.5" style="enable-background:new 0 0 353.1 62.5;" xml:space="preserve">
<style type="text/css">
	.st0{fill:#E52033;}
	.st1{fill:#FFFFFF;}
	.st2{fill:none;}
</style>
<g>
	<g>
		<circle class="st0" cx="132.2" cy="31.3" r="31.3"/>
		<g>
			<g>
				<g>
					<path class="st1" d="M151.7,31c0.3,0.1,0.6,0.1,1.1,0.3c-0.5,0.2-0.8,0.4-1.1,0.5c-0.2,3.3-1,6.5-2.7,9.4
						c-0.1,0.3-0.2,0.6-0.1,0.9c0.3,2.3,0.6,4.5,0.9,6.8c0.2,1.2,0,1.4-1.3,1.4c-5,0-10,0-15,0c-0.4,0-0.8,0-1.3,0
						c-0.1,0.5-0.1,1-0.2,1.5c-0.1,0-0.2,0-0.3,0c-0.1-0.4-0.1-0.9-0.2-1.5c-0.4,0-0.7,0-1.1,0c-5.1,0-10.3,0-15.4,0
						c-1.4,0-1.5-0.1-1.3-1.5c0.3-2.3,0.8-4.6,1.1-6.9c0.1-0.4,0-0.8-0.2-1.1c-1.4-2.6-2.2-5.3-2.4-8.2c0-0.5-0.4-0.9-0.7-1.5
						c0,0,0.3-0.1,0.6-0.2c0.5-11,9-18.9,19.3-19.3c0.1-0.3,0.2-0.6,0.4-1.2c0.2,0.6,0.3,0.9,0.4,1.3c5.2,0.2,9.7,2,13.5,5.7
						C149.5,21.1,151.4,25.6,151.7,31z M131.7,12.3c-9.1-0.5-19,8-18.8,18.7c3.1,0.1,6.3,0,9.4,0.1c0,0.2,0,0.3,0,0.5
						c-3.1,0-6.2,0-9.4,0c0,3.4,0.9,6.4,2.5,9.3c1.8-0.8,3.5-1.6,5.2-2.4c1.7-0.8,3.5-1.5,5.1-2.3c-1-2.2-2.1-4.2-2.9-6.3
						c-0.3-0.8,0-1.8,0-2.6c0-0.4,0.1-0.9,0-1.2c-0.9-3.2-0.3-6.1,1.5-8.8c1.5-2.2,2.9-2.5,5.3-1.2c0.2-0.1,0.4-0.2,0.5-0.3
						c4.3-2.7,8.1-1.5,10.1,3.1c0.3,0.7,0.4,1.6,0.5,2.4c0.1,1.5,0,2.9,0,4.4c0,0.4,0,0.8,0.2,1c0.8,1.4,0.5,2.8-0.2,4.1
						c-1,1.8-1.8,3.7-2.7,5.5c3.4,1.6,6.9,3.2,10.5,4.8c1.7-2.9,2.6-6,2.6-9.5c-3.1,0-6.1,0-9.1,0c0-0.1,0-0.2,0-0.4c3,0,6,0,9.1,0
						c0-11.4-10.3-19.3-18.8-18.7c-0.1,0.5-0.1,1-0.2,1.4c-0.1,0-0.2,0-0.3,0C131.7,13.3,131.7,12.9,131.7,12.3z M148.3,48.7
						c-0.3-1.9-0.5-3.8-0.8-5.7c-0.1-0.8-0.5-1.3-1.2-1.6c-3-1.2-6-2.5-9.1-3.7c-0.3-0.1-0.8,0-1.1,0.2c-2.9,2.2-5.7,2.2-8.6,0
						c-0.3-0.2-0.7-0.3-1-0.2c-3.1,1.3-6.2,2.7-9.3,4c-0.3,0.2-0.7,0.6-0.8,0.9c-0.4,2-0.7,4-1.1,6.1c5.6,0,11,0,16.4,0
						c0.1-0.5,0.1-1,0.2-1.5c0.1,0,0.2,0,0.3,0c0.1,0.5,0.1,1,0.2,1.5C137.6,48.7,142.8,48.7,148.3,48.7z M127,21.6
						c-0.9,1.9-1.8,3.9-2.7,5.8c-0.2,0.4-0.3,0.9-0.2,1.4c0.7,3.2,2.2,6,4.8,8.1c1.7,1.3,3.6,1.4,5.4,0.2c2.5-1.7,3.8-4.1,4.9-6.8
						c0.8-2,0.3-3.7-0.4-5.5c-0.5-1.4-1-2.8-1.6-4.2C133.9,23.3,130.4,24,127,21.6z M124.3,24.9c0.1,0,0.2,0,0.3,0
						c0.3-0.8,0.7-1.6,1-2.5c0.2-0.8,0.4-1.7,0.6-2.7c0.7,0.5,1.1,0.9,1.6,1.2c1.7,1.2,3.6,1.6,5.6,0.9c1.1-0.4,2.1-1,3-1.7
						c1.1-0.7,1.3-0.7,1.9,0.4c0.3,0.6,0.6,1.3,0.9,1.9c0.1-0.6,0.1-1.2,0.1-1.8c-0.3-2.8-2.9-5.3-5.3-4.8c-1.2,0.2-2.4,0.9-3.5,1.6
						c-0.7,0.4-1.1,0.6-1.8-0.1c-0.9-1-1.7-0.9-2.6,0.2c-1.2,1.5-2,3.2-2.1,5.2C123.9,23.4,124.2,24.1,124.3,24.9z"/>
					<path class="st1" d="M131.8,52.1c0-1.8,0-3.7,0-5.5c0.1,0,0.2,0,0.2,0c0,1.8,0,3.7,0,5.5C131.9,52.1,131.8,52.1,131.8,52.1z"/>
					<path class="st1" d="M131.6,37.3c-0.3-0.5-0.9-1-0.9-1.5c0.1-0.5,0.8-0.9,1.2-1.3c0.4,0.4,1.1,0.9,1.2,1.3
						c0.1,0.4-0.6,0.9-0.9,1.4C132,37.3,131.8,37.3,131.6,37.3z"/>
					<path class="st1" d="M131.8,32.7c0-1.8,0-3.7,0-5.5c0.1,0,0.2,0,0.3,0c0,1.8,0,3.7,0,5.5C131.9,32.7,131.9,32.7,131.8,32.7z"/>
					<path class="st1" d="M124.8,35.7c1.3,0,2.6,0,4,0c0,0.1,0,0.2,0,0.3c-1.3,0-2.6,0-4,0C124.8,35.8,124.8,35.7,124.8,35.7z"/>
					<path class="st1" d="M134.8,35.7c1.3,0,2.6,0,3.9,0c0,0.1,0,0.2,0,0.3c-1.3,0-2.6,0-3.9,0C134.8,35.9,134.8,35.8,134.8,35.7z"
						/>
					<path class="st1" d="M132.1,38.6c0,1.3,0,2.6,0,4c-0.1,0-0.2,0-0.3,0c0-1.3,0-2.7,0-4C131.9,38.6,132,38.6,132.1,38.6z"/>
				</g>
			</g>
		</g>
	</g>
	<g>
		<line class="st2" x1="0" y1="31.3" x2="101" y2="31.3"/>
		<g>
			<rect y="30.8" class="st1" width="94.9" height="1"/>
			<g>
				<path class="st1" d="M101,31.3c-2.8,1.1-6.4,2.9-8.5,4.8l1.7-4.8l-1.7-4.8C94.6,28.4,98.1,30.2,101,31.3z"/>
			</g>
		</g>
	</g>
	<g>
		<line class="st2" x1="163.5" y1="31.3" x2="353.1" y2="31.3"/>
		<g>
			<rect x="163.5" y="30.8" class="st1" width="183.6" height="1"/>
			<g>
				<path class="st1" d="M353.1,31.3c-2.8,1.1-6.4,2.9-8.5,4.8l1.7-4.8l-1.7-4.8C346.8,28.4,350.3,30.2,353.1,31.3z"/>
			</g>
		</g>
	</g>
	<g>
		<g>
			<path class="st1" d="M202.8,11.8h7.4V13h-6v4.2h5.5v1.2h-5.5v5.3h-1.4V11.8z"/>
			<path class="st1" d="M216.6,19.2c-0.2,0-0.4,0-0.7,0c-0.2,0-0.5,0-0.7,0s-0.5,0-0.8,0s-0.6,0-0.9-0.1v4.4h-1.4V11.8
				c1-0.2,2-0.2,3-0.2c1.9,0,3.2,0.3,4.1,0.9c0.9,0.6,1.3,1.6,1.3,2.9c0,0.9-0.2,1.7-0.6,2.3c-0.4,0.6-1.1,1-2,1.2l3,4.7h-1.6
				L216.6,19.2z M215.4,18.1c0.7,0,1.2,0,1.7-0.1s0.8-0.3,1.1-0.5s0.5-0.5,0.6-0.8s0.2-0.7,0.2-1.2c0-0.9-0.3-1.6-0.9-2
				c-0.6-0.4-1.5-0.6-2.8-0.6c-0.3,0-0.6,0-0.9,0c-0.3,0-0.6,0.1-0.9,0.1v5c0.2,0,0.4,0.1,0.8,0.1C214.7,18.1,215,18.1,215.4,18.1z"
				/>
			<path class="st1" d="M223.3,23.7c-0.3,0-0.5-0.1-0.7-0.2s-0.2-0.4-0.2-0.7c0-0.3,0.1-0.5,0.2-0.7c0.2-0.1,0.4-0.2,0.7-0.2
				s0.5,0.1,0.7,0.2s0.2,0.4,0.2,0.6c0,0.3-0.1,0.5-0.2,0.7C223.8,23.6,223.5,23.7,223.3,23.7z"/>
			<path class="st1" d="M231,23.7c-3.6,0-5.4-2-5.4-6c0-2.1,0.4-3.6,1.3-4.6c0.9-1,2.2-1.5,4-1.5c0.4,0,0.8,0,1.2,0.1
				s0.9,0.1,1.4,0.2v1.2c-0.5-0.1-1-0.1-1.4-0.2c-0.4,0-0.8-0.1-1.1-0.1c-1.4,0-2.4,0.4-3.1,1.2c-0.7,0.8-1,2-1,3.7s0.3,2.9,1,3.7
				c0.6,0.8,1.6,1.2,3,1.2c0.2,0,0.4,0,0.6,0c0.2,0,0.5,0,0.7-0.1c0.2,0,0.5-0.1,0.7-0.1s0.4-0.1,0.6-0.1v1.2
				c-0.4,0.1-0.8,0.2-1.3,0.2C231.8,23.7,231.4,23.7,231,23.7z"/>
			<path class="st1" d="M234.4,23.5l4.3-11.7h2.2l4.3,11.7v0.1h-1.4l-1.3-3.5H237l-1.3,3.5h-1.4L234.4,23.5L234.4,23.5z M241.9,18.9
				l-1.5-4l-0.7-2.1h-0.1l-0.7,2.1l-1.5,4H241.9z"/>
			<path class="st1" d="M246.6,11.8h2l3,7.2l1,2.6h0.1l1-2.6l3-7.2h2v11.8h-1.3v-10h-0.1l-1.3,3.3l-2.6,6.2h-1.3l-2.6-6.2l-1.3-3.3
				h-0.1v10h-1.3V11.8H246.6z"/>
			<path class="st1" d="M261.9,23.7c-0.3,0-0.5-0.1-0.7-0.2s-0.2-0.4-0.2-0.7c0-0.3,0.1-0.5,0.2-0.7c0.2-0.1,0.4-0.2,0.7-0.2
				c0.3,0,0.5,0.1,0.7,0.2s0.2,0.4,0.2,0.6c0,0.3-0.1,0.5-0.2,0.7C262.4,23.6,262.2,23.7,261.9,23.7z"/>
			<path class="st1" d="M265.2,11.8h7.5V13h-6.1v4h5.7v1.2h-5.7v4.2h6.2v1.2h-7.7V11.8H265.2z"/>
			<path class="st1" d="M275.1,11.8h1.2l6.1,8.3l0.9,1.4h0.1v-9.7h1.3v11.8h-1.2l-6.1-8.3l-0.9-1.4h-0.1v9.6h-1.3V11.8z"/>
			<path class="st1" d="M290.2,13h-3.8v-1.2h9.1V13h-3.8v10.6h-1.4V13H290.2z"/>
			<path class="st1" d="M296.6,23.7c-0.3,0-0.5-0.1-0.7-0.2s-0.2-0.4-0.2-0.7c0-0.3,0.1-0.5,0.2-0.7c0.2-0.1,0.4-0.2,0.7-0.2
				c0.3,0,0.5,0.1,0.7,0.2s0.2,0.4,0.2,0.6c0,0.3-0.1,0.5-0.2,0.7C297.1,23.6,296.9,23.7,296.6,23.7z"/>
			<path class="st1" d="M303.5,23.8c-1.5,0-2.6-0.5-3.3-1.5s-1.1-2.5-1.1-4.6c0-2,0.4-3.5,1.1-4.6c0.8-1,1.9-1.5,3.3-1.5
				s2.5,0.5,3.3,1.5s1.1,2.5,1.1,4.6c0,2-0.4,3.5-1.1,4.6S305,23.8,303.5,23.8z M303.5,22.6c1,0,1.8-0.4,2.2-1.2s0.7-2,0.7-3.7
				s-0.2-2.9-0.7-3.7s-1.2-1.2-2.2-1.2s-1.8,0.4-2.3,1.2s-0.8,2-0.8,3.7s0.2,2.9,0.7,3.7C301.7,22.2,302.5,22.6,303.5,22.6z"/>
			<path class="st1" d="M312.3,13.4L312.3,13.4l-2.8,1.4h-0.1l-0.2-0.8v-0.1l3.5-2.1h1.1v11.8h-1.4V13.4H312.3z"/>
		</g>
	</g>
	<g>
		<g>
			<path class="st1" d="M1.4,12.4h7.5v1.2H2.8v4.1h5.7v1.2H2.8v4.2H9v1.2H1.4V12.4z"/>
			<path class="st1" d="M10,15.8v-0.2h1.5l2.2,6.2l0.4,1.3h0.2l0.4-1.3l2.3-6.2h1.4v0.2L15,24.2h-1.8L10,15.8z"/>
			<path class="st1" d="M23.1,24.4c-1.3,0-2.3-0.4-3-1.1s-1-1.8-1-3.3s0.3-2.6,1-3.4c0.7-0.8,1.6-1.2,2.9-1.2c2.2,0,3.3,1.3,3.3,3.9
				c0,0.5,0,0.9-0.1,1.1h-5.7c0.1,1,0.3,1.7,0.7,2.2c0.4,0.4,1.1,0.7,2,0.7c0.4,0,0.8,0,1.3-0.1s0.9-0.2,1.4-0.3L26,24
				c-0.4,0.2-0.9,0.3-1.4,0.4C24.1,24.3,23.6,24.4,23.1,24.4z M23,16.5c-1.5,0-2.4,1-2.5,2.9H25c0-1-0.2-1.8-0.5-2.2
				C24.2,16.8,23.7,16.5,23,16.5z"/>
			<path class="st1" d="M28.3,15.6h1.2l0.1,1h0.1c0.4-0.2,0.8-0.4,1.2-0.5c0.3-0.1,0.7-0.3,1-0.4c0.3-0.1,0.6-0.2,0.8-0.2
				c0.3,0,0.5-0.1,0.8-0.1c0.7,0,1.3,0.2,1.7,0.6s0.6,1,0.6,1.8v6.4h-1.4v-6c0-0.6-0.1-1-0.3-1.3s-0.6-0.4-1.1-0.4
				c-0.4,0-0.9,0.1-1.4,0.3c-0.5,0.2-1.1,0.4-1.7,0.7v6.7h-1.4v-8.6H28.3z"/>
			<path class="st1" d="M41.3,24.4c-0.8,0-1.4-0.2-1.9-0.6c-0.4-0.4-0.6-1-0.6-1.8v-5.1H37v-1.2h1.9l0.2-2.2l1.1-0.1v2.3h2.6v1.2
				h-2.5v4.8c0,0.5,0.1,0.9,0.4,1.2c0.2,0.3,0.6,0.4,1.1,0.4c0.2,0,0.3,0,0.5,0s0.4-0.1,0.6-0.1v1.1c-0.2,0.1-0.5,0.1-0.8,0.2
				S41.6,24.4,41.3,24.4z"/>
			<path class="st1" d="M43.9,22.7c0-0.5,0.1-1,0.2-1.4c0.1-0.4,0.4-0.8,0.6-1.1c0.3-0.3,0.6-0.7,1.1-1s0.9-0.6,1.5-0.9
				c0.8-0.5,1.5-0.9,1.8-1.3c0.4-0.4,0.6-0.9,0.6-1.4c0-1.3-0.8-2-2.4-2c-0.4,0-0.9,0-1.4,0.1s-1,0.2-1.5,0.3l-0.2-1.2
				c0.6-0.1,1.2-0.3,1.7-0.3c0.5-0.1,1-0.1,1.5-0.1c2.4,0,3.6,1,3.6,3.1c0,0.4-0.1,0.8-0.2,1.1c-0.1,0.3-0.3,0.7-0.5,0.9
				c-0.2,0.3-0.5,0.6-0.9,0.8c-0.4,0.3-0.8,0.5-1.3,0.8c-1,0.6-1.7,1.1-2.1,1.6c-0.5,0.5-0.7,1-0.7,1.6V23H51v1.2h-7.2v-1.5H43.9z"
				/>
		</g>
	</g>
</g>
</svg>
