<?xml version="1.0" encoding="utf-8"?>
<!-- Generator: Adobe Illustrator 25.0.1, SVG Export Plug-In . SVG Version: 6.00 Build 0)  -->
<svg version="1.1" id="Layer_1" xmlns="http://www.w3.org/2000/svg" xmlns:xlink="http://www.w3.org/1999/xlink" x="0px" y="0px"
	 viewBox="0 0 589.6 261.3" style="enable-background:new 0 0 589.6 261.3;" xml:space="preserve">
<style type="text/css">
	.st0{enable-background:new    ;}
	.st1{fill:#FFFFFF;}
	.st2{fill:#171F21;stroke:#FFFFFF;stroke-width:0.1;stroke-miterlimit:10;}
	.st3{fill:none;stroke:#FA1402;stroke-width:2;stroke-miterlimit:10;}
	.st4{fill:#FA1402;}
</style>
<g id="Layer_2_1_">
	<g id="Web_App">
		<g class="st0">
			<path class="st1" d="M3.5,258.8c-0.2,0-0.4,0-0.6,0c-0.2,0-0.5,0-0.7-0.1s-0.5-0.1-0.7-0.1s-0.5-0.1-0.7-0.2v-0.9
				c0.5,0.1,1,0.2,1.5,0.3c0.5,0.1,0.9,0.1,1.3,0.1c0.7,0,1.2-0.1,1.6-0.4c0.4-0.3,0.5-0.6,0.5-1.1c0-0.3-0.1-0.5-0.2-0.7
				s-0.2-0.3-0.4-0.5c-0.2-0.1-0.4-0.2-0.7-0.3c-0.3-0.1-0.5-0.2-0.8-0.3c-0.5-0.1-0.9-0.3-1.2-0.4c-0.3-0.2-0.6-0.3-0.8-0.5
				s-0.4-0.4-0.5-0.7s-0.2-0.6-0.2-0.9c0-0.4,0.1-0.7,0.2-1s0.4-0.6,0.6-0.8c0.3-0.2,0.6-0.4,1-0.5s0.8-0.2,1.3-0.2
				c0.3,0,0.7,0,1.1,0.1s0.8,0.1,1.3,0.2v0.9c-0.4-0.1-0.8-0.2-1.2-0.2s-0.7-0.1-1.1-0.1c-0.6,0-1.1,0.1-1.5,0.4
				c-0.4,0.3-0.5,0.6-0.5,1.1c0,0.2,0,0.4,0.1,0.6c0.1,0.2,0.2,0.3,0.3,0.5c0.2,0.1,0.4,0.3,0.6,0.4c0.3,0.1,0.6,0.2,0.9,0.3
				c0.4,0.1,0.8,0.2,1.1,0.4c0.3,0.1,0.6,0.3,0.9,0.5c0.2,0.2,0.4,0.4,0.6,0.7c0.1,0.3,0.2,0.6,0.2,1c0,0.8-0.3,1.4-0.8,1.8
				S4.5,258.8,3.5,258.8z"/>
			<path class="st1" d="M11.7,258.8c-0.6,0-1.2-0.1-1.6-0.2c-0.4-0.1-0.8-0.4-1.1-0.7s-0.5-0.7-0.6-1.2s-0.2-1-0.2-1.7v-5.3h1.1v5.3
				c0,1,0.2,1.7,0.6,2.2c0.4,0.4,1,0.7,1.9,0.7s1.5-0.2,1.9-0.6s0.6-1.2,0.6-2.2v-5.3h1.1v5.3c0,0.6-0.1,1.2-0.2,1.7
				c-0.1,0.5-0.3,0.9-0.6,1.2c-0.3,0.3-0.7,0.5-1.1,0.7C12.8,258.7,12.3,258.8,11.7,258.8z"/>
			<path class="st1" d="M17.3,249.8h0.9l4.6,6.2l0.7,1.1h0.1v-7.2h1v8.9h-0.9l-4.6-6.2l-0.7-1h-0.1v7.2h-1V249.8z"/>
		</g>
		<g class="st0">
			<path class="st1" d="M84.4,249.8h1.5l2.3,5.4l0.7,1.9H89l0.7-1.9l2.3-5.4h1.5v8.9h-1v-7.5h-0.1l-1,2.5l-2,4.7h-1l-2-4.7l-1-2.5
				h-0.1v7.5h-1L84.4,249.8L84.4,249.8z"/>
			<path class="st1" d="M99,258.8c-1.2,0-2.2-0.4-2.9-1.1c-0.7-0.8-1-1.9-1-3.4s0.3-2.6,1-3.4c0.7-0.8,1.6-1.2,2.9-1.2
				c1.2,0,2.2,0.4,2.9,1.2c0.7,0.8,1,1.9,1,3.4s-0.3,2.6-1,3.4C101.2,258.4,100.2,258.8,99,258.8z M99,257.9c0.9,0,1.6-0.3,2.1-0.9
				s0.7-1.5,0.7-2.7c0-2.4-0.9-3.7-2.8-3.7c-0.9,0-1.6,0.3-2.1,0.9c-0.5,0.6-0.7,1.5-0.7,2.8c0,1.2,0.2,2.2,0.7,2.7
				S98.1,257.9,99,257.9z"/>
			<path class="st1" d="M104.5,249.8h0.9l4.6,6.2l0.7,1.1h0.1v-7.2h1v8.9h-0.9l-4.6-6.2l-0.7-1h-0.1v7.2h-1V249.8z"/>
		</g>
		<g class="st0">
			<path class="st1" d="M187.5,250.7h-2.9v-0.9h6.8v0.9h-2.9v8h-1.1L187.5,250.7L187.5,250.7z"/>
			<path class="st1" d="M196.2,258.8c-0.6,0-1.2-0.1-1.6-0.2c-0.4-0.1-0.8-0.4-1.1-0.7s-0.5-0.7-0.6-1.2s-0.2-1-0.2-1.7v-5.3h1.1
				v5.3c0,1,0.2,1.7,0.6,2.2c0.4,0.4,1,0.7,1.9,0.7s1.5-0.2,1.9-0.6s0.6-1.2,0.6-2.2v-5.3h1.1v5.3c0,0.6-0.1,1.2-0.2,1.7
				c-0.1,0.5-0.3,0.9-0.6,1.2c-0.3,0.3-0.7,0.5-1.1,0.7C197.4,258.7,196.8,258.8,196.2,258.8z"/>
			<path class="st1" d="M201.8,249.8h5.6v0.9h-4.6v3h4.3v0.9h-4.3v3.2h4.7v0.9h-5.7V249.8z"/>
		</g>
		<g class="st0">
			<path class="st1" d="M280.6,249.8h1.1l1.6,6l0.4,1.7h0.1l0.4-1.7l1.7-6h1.1l1.7,6l0.4,1.7h0.1l0.4-1.7l1.6-6h1.1l-2.4,8.9h-1.4
				l-1.6-5.8l-0.3-1.6h-0.1l-0.3,1.6l-1.6,5.8H283L280.6,249.8z"/>
			<path class="st1" d="M293.6,249.8h5.6v0.9h-4.6v3h4.3v0.9h-4.3v3.2h4.7v0.9h-5.7V249.8z"/>
			<path class="st1" d="M303.2,258.8c-0.5,0-0.9,0-1.3,0s-0.7-0.1-0.9-0.1v-8.8c0.2,0,0.4,0,0.7,0c0.2,0,0.5,0,0.7,0s0.4,0,0.6,0
				s0.4,0,0.5,0c1.6,0,2.7,0.4,3.5,1.1c0.7,0.7,1.1,1.9,1.1,3.4c0,0.8-0.1,1.5-0.3,2.1c-0.2,0.6-0.5,1-0.9,1.4s-0.9,0.6-1.5,0.8
				C304.8,258.7,304.1,258.8,303.2,258.8z M303.5,257.9c0.6,0,1.1-0.1,1.5-0.2s0.8-0.4,1.1-0.7c0.3-0.3,0.5-0.7,0.6-1.1
				s0.2-1,0.2-1.7c0-0.6-0.1-1.2-0.2-1.6s-0.3-0.8-0.6-1.1c-0.3-0.3-0.6-0.5-1-0.6s-0.9-0.2-1.5-0.2c-0.2,0-0.5,0-0.7,0
				c-0.3,0-0.6,0-0.8,0.1v7.1c0.3,0,0.5,0.1,0.8,0.1C303,257.9,303.3,257.9,303.5,257.9z"/>
		</g>
		<g class="st0">
			<path class="st1" d="M383,250.7h-2.9v-0.9h6.8v0.9H384v8h-1V250.7z"/>
			<path class="st1" d="M388.2,249.8h1.1v3.9h4.9v-3.9h1.1v8.9h-1.1v-4.1h-4.9v4.1h-1.1V249.8z"/>
			<path class="st1" d="M400.9,258.8c-0.6,0-1.2-0.1-1.6-0.2s-0.8-0.4-1.1-0.7s-0.5-0.7-0.6-1.2s-0.2-1-0.2-1.7v-5.3h1.1v5.3
				c0,1,0.2,1.7,0.6,2.2c0.4,0.4,1,0.7,1.9,0.7s1.5-0.2,1.9-0.6s0.6-1.2,0.6-2.2v-5.3h1.1v5.3c0,0.6-0.1,1.2-0.2,1.7
				s-0.3,0.9-0.6,1.2s-0.7,0.5-1.1,0.7C402.1,258.7,401.5,258.8,400.9,258.8z"/>
		</g>
		<g class="st0">
			<path class="st1" d="M482.8,249.8h5.6v0.9h-4.5v3.1h4.1v0.9h-4.1v4h-1.1V249.8z"/>
			<path class="st1" d="M493.2,255.4c-0.2,0-0.3,0-0.5,0s-0.4,0-0.5,0c-0.2,0-0.4,0-0.6,0s-0.4,0-0.6-0.1v3.3h-1.1v-8.8
				c0.8-0.1,1.5-0.2,2.2-0.2c1.4,0,2.4,0.2,3.1,0.7s1,1.2,1,2.2c0,0.7-0.2,1.3-0.5,1.7s-0.8,0.7-1.5,0.9l2.2,3.5h-1.2L493.2,255.4z
				 M492.3,254.6c0.5,0,0.9,0,1.3-0.1c0.3-0.1,0.6-0.2,0.9-0.3c0.2-0.2,0.4-0.4,0.5-0.6c0.1-0.3,0.2-0.6,0.2-0.9
				c0-0.7-0.2-1.2-0.6-1.5s-1.1-0.5-2.1-0.5c-0.2,0-0.4,0-0.7,0c-0.2,0-0.5,0-0.6,0.1v3.8c0.1,0,0.3,0.1,0.6,0.1
				S492.1,254.6,492.3,254.6z"/>
			<path class="st1" d="M497.9,249.8h1.1v8.9h-1.1V249.8z"/>
		</g>
		<g class="st0">
			<path class="st1" d="M571.2,258.8c-0.2,0-0.4,0-0.6,0c-0.2,0-0.5,0-0.7-0.1s-0.5-0.1-0.7-0.1s-0.5-0.1-0.7-0.2v-0.9
				c0.5,0.1,1,0.2,1.5,0.3c0.5,0.1,0.9,0.1,1.3,0.1c0.7,0,1.2-0.1,1.6-0.4c0.4-0.3,0.5-0.6,0.5-1.1c0-0.3-0.1-0.5-0.2-0.7
				c-0.1-0.2-0.2-0.3-0.4-0.5s-0.4-0.2-0.7-0.3s-0.5-0.2-0.8-0.3c-0.5-0.1-0.9-0.3-1.2-0.4c-0.3-0.2-0.6-0.3-0.8-0.5
				s-0.4-0.4-0.5-0.7s-0.2-0.6-0.2-0.9c0-0.4,0.1-0.7,0.2-1c0.1-0.3,0.4-0.6,0.6-0.8s0.6-0.4,1-0.5s0.8-0.2,1.3-0.2
				c0.3,0,0.7,0,1.1,0.1c0.4,0.1,0.8,0.1,1.3,0.2v0.9c-0.4-0.1-0.8-0.2-1.2-0.2c-0.4-0.1-0.7-0.1-1.1-0.1c-0.6,0-1.1,0.1-1.5,0.4
				c-0.4,0.3-0.5,0.6-0.5,1.1c0,0.2,0,0.4,0.1,0.6c0.1,0.2,0.2,0.3,0.3,0.5c0.2,0.1,0.4,0.3,0.6,0.4c0.3,0.1,0.6,0.2,0.9,0.3
				c0.4,0.1,0.8,0.2,1.1,0.4c0.3,0.1,0.6,0.3,0.9,0.5c0.2,0.2,0.4,0.4,0.6,0.7c0.1,0.3,0.2,0.6,0.2,1c0,0.8-0.3,1.4-0.8,1.8
				S572.2,258.8,571.2,258.8z"/>
			<path class="st1" d="M574.9,258.6l3.2-8.8h1.6l3.2,8.8v0.1h-1.1l-1-2.6h-4l-0.9,2.6L574.9,258.6L574.9,258.6z M580.6,255.2
				l-1.1-3l-0.6-1.5h-0.1l-0.6,1.5l-1.1,3H580.6z"/>
			<path class="st1" d="M586.1,250.7h-2.9v-0.9h6.8v0.9h-2.9v8H586v-8H586.1z"/>
		</g>
		<rect x="98.1" y="59.2" class="st2" width="49.1" height="59.2"/>
		<rect x="147.2" y="59.2" class="st2" width="49.1" height="59.2"/>
		<rect x="196.3" y="59.2" class="st2" width="49.1" height="59.2"/>
		<rect x="245.4" y="59.2" class="st2" width="49.1" height="59.2"/>
		<rect x="294.5" y="59.2" class="st2" width="49.1" height="59.2"/>
		<rect x="343.6" y="59.2" class="st2" width="49.1" height="59.2"/>
		<rect x="392.7" y="59.2" class="st2" width="49.1" height="59.2"/>
		<rect x="441.8" y="59.2" class="st2" width="49.1" height="59.2"/>
		<rect x="490.9" y="59.2" class="st2" width="49.1" height="59.2"/>
		<rect x="540" y="59.2" class="st2" width="49.1" height="59.2"/>
		<rect x="98.1" y="118.4" class="st2" width="49.1" height="59.2"/>
		<rect x="147.2" y="118.4" class="st2" width="49.1" height="59.2"/>
		<rect x="196.3" y="118.4" class="st2" width="49.1" height="59.2"/>
		<rect x="245.4" y="118.4" class="st2" width="49.1" height="59.2"/>
		<rect x="294.5" y="118.4" class="st2" width="49.1" height="59.2"/>
		<rect x="343.6" y="118.4" class="st2" width="49.1" height="59.2"/>
		<rect x="392.7" y="118.4" class="st2" width="49.1" height="59.2"/>
		<rect x="441.8" y="118.4" class="st2" width="49.1" height="59.2"/>
		<rect x="490.9" y="118.4" class="st2" width="49.1" height="59.2"/>
		<rect x="540" y="118.4" class="st2" width="49.1" height="59.2"/>
		<rect x="98.1" y="177.6" class="st2" width="49.1" height="59.2"/>
		<rect x="147.2" y="177.6" class="st2" width="49.1" height="59.2"/>
		<rect x="0.2" y="59.2" class="st2" width="49.1" height="59.2"/>
		<rect x="49.3" y="59.2" class="st2" width="49.1" height="59.2"/>
		<rect x="98.1" y="0.1" class="st2" width="49.1" height="59.2"/>
		<rect x="147.2" y="0.1" class="st2" width="49.1" height="59.2"/>
		<rect x="196.3" y="0.1" class="st2" width="49.1" height="59.2"/>
		<rect x="245.4" y="0.1" class="st2" width="49.1" height="59.2"/>
		<rect x="294.5" y="0.1" class="st2" width="49.1" height="59.2"/>
		<rect x="343.6" y="0.1" class="st2" width="49.1" height="59.2"/>
		<rect x="392.7" y="0.1" class="st2" width="49.1" height="59.2"/>
		<rect x="441.8" y="0.1" class="st2" width="49.1" height="59.2"/>
		<rect x="490.9" y="0.1" class="st2" width="49.1" height="59.2"/>
		<rect x="540" y="0.1" class="st2" width="49.1" height="59.2"/>
		<rect x="0.2" y="0.1" class="st2" width="49.1" height="59.2"/>
		<rect x="49.3" y="0.1" class="st2" width="49.1" height="59.2"/>
		<rect x="0.2" y="118.4" class="st2" width="49.1" height="59.2"/>
		<rect x="49.3" y="118.4" class="st2" width="49.1" height="59.2"/>
		<rect x="0.2" y="177.6" class="st2" width="49.1" height="59.2"/>
		<rect x="49.3" y="177.6" class="st2" width="49.1" height="59.2"/>
		<rect x="196.3" y="177.6" class="st2" width="49.1" height="59.2"/>
		<rect x="245.4" y="177.6" class="st2" width="49.1" height="59.2"/>
		<rect x="294.5" y="177.6" class="st2" width="49.1" height="59.2"/>
		<rect x="343.6" y="177.6" class="st2" width="49.1" height="59.2"/>
		<rect x="392.7" y="177.6" class="st2" width="49.1" height="59.2"/>
		<rect x="441.8" y="177.6" class="st2" width="49.1" height="59.2"/>
		<rect x="490.9" y="177.6" class="st2" width="49.1" height="59.2"/>
		<rect x="540" y="177.6" class="st2" width="49.1" height="59.2"/>
		<g>
			<g>
				<polyline class="st3" points="0,80.6 99,145.6 196.3,113.1 294.8,165.2 391.8,122.9 490.9,214.8 575.7,182.7 				"/>
				<g>
					<polygon class="st4" points="576.5,193 589.1,177.6 569.4,174.4 					"/>
				</g>
			</g>
		</g>
		<g>
			<path class="st1" d="M8.9,64.2L8.9,64.2l-2.6,1.1H6.1l-0.2-1l0-0.1l3.4-2h1.3v11.1H8.9V64.2z"/>
			<path class="st1" d="M12.6,71.8c0-0.5,0.1-1,0.2-1.4c0.1-0.4,0.4-0.8,0.6-1.1c0.3-0.3,0.6-0.6,1-0.9c0.4-0.3,0.8-0.5,1.3-0.8
				c0.4-0.2,0.7-0.4,1-0.6s0.5-0.4,0.7-0.6c0.2-0.2,0.3-0.4,0.4-0.6s0.1-0.4,0.1-0.7c0-1.1-0.7-1.7-2.2-1.7c-0.4,0-0.9,0-1.3,0.1
				c-0.5,0.1-0.9,0.2-1.4,0.3l-0.2-1.4c0.6-0.1,1.2-0.2,1.7-0.3c0.5-0.1,1-0.1,1.5-0.1c1.2,0,2.1,0.2,2.7,0.8s0.9,1.3,0.9,2.3
				c0,0.4-0.1,0.8-0.2,1.1s-0.3,0.6-0.5,0.9s-0.5,0.6-0.8,0.8s-0.7,0.5-1.2,0.8c-0.4,0.2-0.8,0.5-1.1,0.7c-0.3,0.2-0.6,0.4-0.8,0.6
				s-0.4,0.4-0.5,0.6c-0.1,0.2-0.2,0.4-0.2,0.7V72h5.2v1.4h-7.1V71.8z"/>
			<path class="st1" d="M20.8,69.9v-0.1l3.7-7.7h0.1l1.6,0.2l0.1,0.2l-3.6,7v0.1h3.5l0.5-3.4h1.2v3.4h1.7v1.4h-1.7v2.5h-1.7v-2.5h-5
				L20.8,69.9z"/>
			<path class="st1" d="M34.4,62.1c1.4,0,2.4,0.4,3.1,1.3s1.1,2.1,1.1,3.8c0,2-0.5,3.6-1.4,4.7c-0.9,1.1-2.2,1.6-4,1.6
				c-0.3,0-0.7,0-1-0.1c-0.3,0-0.7-0.1-1.1-0.2l0.1-1.3c0.4,0.1,0.7,0.1,1,0.2s0.6,0.1,0.9,0.1c2.2,0,3.5-1.4,3.7-4.1
				c-0.4,0.3-0.8,0.6-1.3,0.7c-0.5,0.2-1,0.3-1.5,0.3c-0.6,0-1.1-0.1-1.5-0.2s-0.8-0.4-1.2-0.7c-0.3-0.3-0.6-0.6-0.7-1
				c-0.2-0.4-0.3-0.9-0.3-1.4c0-0.6,0.1-1.1,0.3-1.6c0.2-0.5,0.5-0.9,0.8-1.2c0.3-0.3,0.8-0.6,1.3-0.8
				C33.3,62.2,33.8,62.1,34.4,62.1z M34.4,68c0.4,0,0.9-0.1,1.3-0.3c0.5-0.2,0.8-0.4,1.1-0.8c0-1.2-0.2-2.1-0.6-2.7
				c-0.4-0.6-1-0.9-1.9-0.9c-0.7,0-1.3,0.2-1.7,0.7c-0.4,0.4-0.6,1-0.6,1.8c0,0.7,0.2,1.2,0.6,1.6S33.7,68,34.4,68z"/>
		</g>
		<g>
			<path class="st1" d="M480.9,231.3c0-0.5,0.1-1,0.2-1.4c0.2-0.4,0.4-0.8,0.7-1.1c0.3-0.3,0.7-0.7,1.1-0.9s0.9-0.6,1.4-0.9
				c0.4-0.2,0.7-0.4,1-0.6s0.5-0.4,0.7-0.6c0.2-0.2,0.3-0.4,0.4-0.6c0.1-0.2,0.1-0.5,0.1-0.7c0-1.2-0.8-1.8-2.3-1.8
				c-0.4,0-0.9,0-1.4,0.1c-0.5,0.1-1,0.2-1.5,0.3l-0.2-1.5c0.7-0.1,1.3-0.3,1.9-0.3c0.5-0.1,1.1-0.1,1.6-0.1c1.3,0,2.2,0.3,2.9,0.8
				c0.6,0.5,0.9,1.3,0.9,2.4c0,0.4-0.1,0.8-0.2,1.2c-0.1,0.4-0.3,0.7-0.5,1c-0.2,0.3-0.5,0.6-0.9,0.9s-0.8,0.5-1.2,0.8
				c-0.4,0.3-0.8,0.5-1.2,0.7s-0.6,0.5-0.8,0.7s-0.4,0.5-0.5,0.7c-0.1,0.2-0.2,0.5-0.2,0.7v0.6h5.6v1.5h-7.6V231.3z"/>
			<path class="st1" d="M492.8,223.2L492.8,223.2l-2.8,1.2h-0.1l-0.2-1.1l0-0.1l3.6-2.1h1.4V233h-1.8V223.2z"/>
			<path class="st1" d="M501.5,233.1c-1.5,0-2.6-0.5-3.4-1.5c-0.8-1-1.2-2.5-1.2-4.6c0-2,0.4-3.5,1.2-4.6c0.8-1,1.9-1.5,3.4-1.5
				c1.5,0,2.6,0.5,3.4,1.5c0.8,1,1.2,2.5,1.2,4.6c0,2-0.4,3.5-1.2,4.6C504.1,232.6,503,233.1,501.5,233.1z M501.5,231.6
				c0.9,0,1.6-0.4,2.1-1.1s0.7-1.9,0.7-3.5s-0.2-2.8-0.7-3.5s-1.2-1.1-2.1-1.1c-0.9,0-1.7,0.4-2.1,1.1s-0.7,1.9-0.7,3.5
				s0.2,2.8,0.7,3.5C499.8,231.3,500.5,231.6,501.5,231.6z"/>
		</g>
	</g>
</g>
</svg>
