<svg xmlns="http://www.w3.org/2000/svg" viewBox="0 0 28.57 22.48"><defs><style>.cls-1{fill:#fff;}</style></defs><title>camera</title><g id="Layer_2" data-name="Layer 2"><g id="layer"><path class="cls-1" d="M28.57,4.15,18.72,7.86l-5.25,2C13,8.91,12.55,8,12.1,7s-.86-1.77-1.28-2.66A2.12,2.12,0,0,0,9.06,3.1C6.69,2.84,4.33,2.59,2,2.25l3.35-.43C9.94,1.24,14.57.64,19.21.1A33,33,0,0,1,22.66,0c1,0,1.94.05,2.9,0a2.65,2.65,0,0,1,3,1.9Z"/><path class="cls-1" d="M28.57,22.45a1.83,1.83,0,0,1-.52,0c-1.57-.39-3.13-.8-4.69-1.21a7,7,0,0,1-.69-.31c.25-.14.38-.23.52-.3,1.22-.59,2.43-1.19,3.66-1.76a.63.63,0,0,0,.43-.68c0-.72,0-1.44,0-2.19-1.53-.28-3-.94-4.56.26,0-1,0-1.89,0-2.73,0-.08.28-.23.4-.21,1.64.34,3.27.7,4.9,1.07a2,2,0,0,1,.55.34Z"/><path class="cls-1" d="M0,3.25c.27-.6.7-.69,1.34-.6,2.54.34,5.09.6,7.63.94a5.38,5.38,0,0,1,1.22.47l-.06.24c-.34,0-.68,0-1-.08L5.51,3.88A1.45,1.45,0,0,0,3.8,5.44c0,1,0,2,0,3,0,.41-.16.54-.5.65S2.85,9,2.72,8.71L0,3.92Z"/><path class="cls-1" d="M26.74,16.7a1,1,0,0,1,0,.19c.07,1.46.07,1.46-1.24,2.1l-5.73,2.76a4.23,4.23,0,0,1-2.92.38,1.57,1.57,0,0,1-1.31-1.69c0-2.08,0-4.17,0-6.25a.76.76,0,0,1,.51-.8c1.07-.51,2.12-1.07,3.19-1.61.14-.07.29-.13.52-.22v8.16Z"/><path class="cls-1" d="M28.11,4.81A2.08,2.08,0,0,1,26.84,7.4L14.61,13.6l-.42.18c0-1.21,0-2.35,0-3.5,0-.12.29-.29.47-.36C18.46,8.47,22.25,7,26,5.6Z"/><path class="cls-1" d="M11.22,6.32,6.39,5.8c-.65-.07-.7,0-.7.64,0,1.65,0,3.31,0,5,0,.48.16.64.63.69,1.83.19,3.66.41,5.48.63.8.09.84.06.84-.72a19.63,19.63,0,0,1,.11-2.52l.47.93.51-.07c0,1.16,0,2.3,0,3.43,0,.56-.45.53-.81.49-1.4-.14-2.8-.31-4.21-.46L6,13.5a1.65,1.65,0,0,1-1.71-1.91v-6c0-1,.35-1.35,1.37-1.26,1.44.12,2.88.28,4.33.4a.76.76,0,0,1,.78.55C10.86,5.63,11,5.92,11.22,6.32Z"/><path class="cls-1" d="M7.46,9a3.8,3.8,0,0,1,0-.38,1.53,1.53,0,0,1,1.14-1.3,1.48,1.48,0,0,1,1.51.84,2.28,2.28,0,0,1,0,2.39,1.23,1.23,0,0,1-2,.3A2.31,2.31,0,0,1,7.46,9Z"/><path class="cls-1" d="M20.37,18.92c-.05-.09-.07-.11-.07-.13-.08-1.07-.08-1.07.92-1.47a22.1,22.1,0,0,0,2.35-1,3.6,3.6,0,0,1,2.7,0Z"/></g></g></svg>