<?xml version="1.0" encoding="utf-8"?>
<!-- Generator: Adobe Illustrator 23.0.1, SVG Export Plug-In . SVG Version: 6.00 Build 0)  -->
<svg version="1.1" id="Layer_1" xmlns="http://www.w3.org/2000/svg" xmlns:xlink="http://www.w3.org/1999/xlink" x="0px" y="0px"
	 viewBox="0 0 185.8 164.1" style="enable-background:new 0 0 185.8 164.1;" xml:space="preserve">
<style type="text/css">
	.st0{fill:#E6E6E6;}
	.st1{enable-background:new    ;}
	.st2{fill:#FFFFFF;}
</style>
<title>Asset 1</title>
<g id="Layer_1-2-2">
	<path class="st0" d="M127.7,107l7.7,7.9c2.8-2.8,18-18.6,17.6-43.4c-0.4-23.7-14.6-38.7-17.6-41.6l-7.7,7.7
		c2.2,2.2,14.6,15,14.5,35C142,92.3,130,104.7,127.7,107z"/>
	<path class="st0" d="M112.3,91.6l7.8,7.7c1.7-1.6,11.6-11.1,11.7-26.6c0.1-15.9-10.1-25.8-11.8-27.4l-7.9,7.7
		c1.2,1.2,8.5,8.6,8.1,20.2C120,80.1,117.2,86.7,112.3,91.6z"/>
	<path class="st0" d="M58.2,107l-7.7,7.9c-2.8-2.8-18-18.6-17.6-43.4c0.4-23.7,14.6-38.6,17.6-41.6l7.7,7.7
		c-2.2,2.2-14.6,15-14.5,35C43.9,92.3,55.8,104.7,58.2,107z"/>
	<path class="st0" d="M73.6,91.6l-7.8,7.7C64,97.8,54.2,88.2,54,72.7c-0.1-15.9,10.1-25.8,11.8-27.4l7.8,7.7
		c-1.2,1.2-8.5,8.6-8.1,20.2C65.8,80.1,68.7,86.7,73.6,91.6z"/>
	<circle class="st0" cx="92.9" cy="72.3" r="15.6"/>
	<g>
		<g class="st1">
			<path class="st2" d="M57,130.4v-7.6h1v6.7h3.7v0.9H57z"/>
			<path class="st2" d="M62.8,123.9v-1.1h0.9v1.1H62.8z M62.8,130.4v-5.5h0.9v5.5H62.8z"/>
		</g>
		<g class="st1">
			<path class="st2" d="M66.6,130.4l-2.1-5.5h1l1.2,3.3c0.1,0.4,0.2,0.7,0.4,1.1c0.1-0.3,0.2-0.6,0.4-1l1.2-3.3h0.9l-2.1,5.5H66.6z"
				/>
		</g>
		<g class="st1">
			<path class="st2" d="M74.6,128.6l0.9,0.1c-0.1,0.6-0.4,1-0.9,1.3c-0.4,0.3-0.9,0.4-1.6,0.4c-0.8,0-1.4-0.3-1.9-0.8
				c-0.4-0.5-0.7-1.2-0.7-2.1s0.2-1.6,0.7-2.1c0.5-0.5,1.1-0.8,1.8-0.8s1.3,0.3,1.8,0.8c0.4,0.5,0.7,1.2,0.7,2.1c0,0.1,0,0.1,0,0.3
				h-4.1c0.1,0.6,0.2,1.1,0.5,1.4c0.3,0.3,0.7,0.5,1.2,0.5c0.4,0,0.6-0.1,0.9-0.3C74.3,129.3,74.5,129,74.6,128.6z M71.6,127.1h3
				c-0.1-0.4-0.2-0.8-0.4-1c-0.3-0.4-0.7-0.5-1.2-0.5c-0.4,0-0.8,0.1-1.1,0.4C71.7,126.3,71.6,126.6,71.6,127.1z"/>
		</g>
		<g class="st1">
			<path class="st2" d="M78.8,128l0.9-0.1c0.1,0.4,0.1,0.7,0.3,0.9c0.2,0.3,0.4,0.4,0.8,0.6c0.4,0.1,0.7,0.2,1.2,0.2
				c0.4,0,0.7-0.1,1-0.2c0.3-0.1,0.5-0.3,0.7-0.4c0.1-0.2,0.2-0.4,0.2-0.6s-0.1-0.4-0.2-0.6c-0.1-0.2-0.4-0.3-0.7-0.4
				c-0.2-0.1-0.7-0.2-1.3-0.4c-0.7-0.2-1.2-0.3-1.5-0.5c-0.4-0.2-0.6-0.4-0.8-0.7c-0.2-0.3-0.3-0.6-0.3-0.9c0-0.4,0.1-0.8,0.3-1.1
				c0.2-0.3,0.5-0.6,0.9-0.8c0.4-0.2,0.9-0.3,1.4-0.3c0.6,0,1.1,0.1,1.5,0.3c0.4,0.2,0.8,0.4,1,0.8c0.2,0.4,0.4,0.8,0.4,1.2
				l-0.9,0.1c-0.1-0.5-0.2-0.9-0.5-1.1s-0.7-0.4-1.3-0.4c-0.6,0-1,0.1-1.3,0.3c-0.3,0.2-0.4,0.5-0.4,0.8c0,0.3,0.1,0.5,0.3,0.7
				c0.2,0.2,0.7,0.4,1.5,0.5s1.4,0.4,1.6,0.5c0.4,0.2,0.8,0.4,1,0.8c0.2,0.3,0.3,0.7,0.3,1.1c0,0.4-0.1,0.8-0.4,1.1
				c-0.2,0.4-0.6,0.6-1,0.9c-0.4,0.2-0.9,0.3-1.5,0.3c-0.7,0-1.3-0.1-1.7-0.3c-0.4-0.2-0.8-0.5-1.1-0.9
				C79,128.9,78.9,128.5,78.8,128z"/>
		</g>
		<g class="st1">
			<path class="st2" d="M87.9,129.5l0.1,0.8c-0.3,0.1-0.5,0.1-0.7,0.1c-0.4,0-0.6-0.1-0.8-0.2c-0.2-0.1-0.3-0.3-0.4-0.4
				c-0.1-0.2-0.1-0.5-0.1-1.1v-3.1h-0.7v-0.8H86v-1.3L87,123v1.9h0.9v0.7H87v3.2c0,0.3,0,0.4,0.1,0.5c0.1,0.1,0.1,0.1,0.2,0.2
				c0.1,0.1,0.2,0.1,0.3,0.1C87.7,129.6,87.8,129.6,87.9,129.5z"/>
		</g>
		<g class="st1">
			<path class="st2" d="M89.3,130.4v-5.5h0.9v0.9c0.2-0.4,0.4-0.6,0.6-0.8c0.2-0.2,0.4-0.2,0.6-0.2c0.3,0,0.6,0.1,0.9,0.3l-0.3,0.9
				c-0.2-0.1-0.4-0.2-0.7-0.2c-0.2,0-0.4,0.1-0.5,0.2c-0.2,0.1-0.3,0.3-0.4,0.5c-0.1,0.3-0.1,0.7-0.1,1.1v2.8L89.3,130.4L89.3,130.4
				z"/>
		</g>
		<g class="st1">
			<path class="st2" d="M96.9,128.6l0.9,0.1c-0.1,0.6-0.4,1-0.9,1.3s-0.9,0.4-1.6,0.4c-0.8,0-1.4-0.3-1.9-0.8
				c-0.4-0.5-0.7-1.2-0.7-2.1s0.2-1.6,0.7-2.1c0.5-0.5,1.1-0.8,1.8-0.8s1.3,0.3,1.8,0.8c0.4,0.5,0.7,1.2,0.7,2.1c0,0.1,0,0.1,0,0.3
				h-4c0.1,0.6,0.2,1.1,0.5,1.4c0.3,0.3,0.7,0.5,1.2,0.5c0.4,0,0.6-0.1,0.9-0.3S96.7,129,96.9,128.6z M93.8,127.1h3
				c-0.1-0.4-0.2-0.8-0.4-1c-0.3-0.4-0.7-0.5-1.2-0.5c-0.4,0-0.8,0.1-1.1,0.4S93.9,126.6,93.8,127.1z"/>
			<path class="st2" d="M102.6,129.7c-0.4,0.3-0.7,0.5-1,0.6c-0.3,0.1-0.7,0.2-1,0.2c-0.6,0-1.1-0.1-1.4-0.4
				c-0.3-0.3-0.5-0.7-0.5-1.1c0-0.3,0.1-0.5,0.2-0.7s0.3-0.4,0.5-0.5c0.2-0.1,0.4-0.2,0.7-0.3c0.2-0.1,0.4-0.1,0.8-0.1
				c0.8-0.1,1.3-0.2,1.6-0.3c0-0.1,0-0.2,0-0.2c0-0.4-0.1-0.6-0.3-0.8c-0.2-0.2-0.6-0.3-1.1-0.3c-0.4,0-0.8,0.1-1,0.2
				c-0.2,0.1-0.4,0.4-0.4,0.8l-0.9-0.1c0.1-0.4,0.2-0.7,0.4-0.9c0.2-0.2,0.4-0.4,0.8-0.5c0.4-0.1,0.8-0.2,1.3-0.2
				c0.4,0,0.9,0.1,1.1,0.2c0.3,0.1,0.5,0.3,0.6,0.4c0.1,0.2,0.2,0.4,0.3,0.6c0.1,0.2,0.1,0.4,0.1,0.9v1.3c0,0.9,0,1.4,0.1,1.6
				c0.1,0.3,0.1,0.4,0.2,0.7h-0.9C102.7,130.2,102.6,130,102.6,129.7z M102.5,127.6c-0.4,0.1-0.9,0.3-1.5,0.4
				c-0.4,0.1-0.7,0.1-0.8,0.2c-0.2,0.1-0.3,0.2-0.4,0.3c-0.1,0.1-0.1,0.3-0.1,0.4c0,0.3,0.1,0.4,0.3,0.6c0.2,0.2,0.4,0.3,0.8,0.3
				c0.4,0,0.7-0.1,0.9-0.2c0.3-0.1,0.5-0.4,0.6-0.6c0.1-0.2,0.1-0.5,0.1-0.9L102.5,127.6L102.5,127.6z"/>
			<path class="st2" d="M104.9,130.4v-5.5h0.9v0.8c0.2-0.3,0.4-0.5,0.7-0.6c0.3-0.2,0.6-0.2,1-0.2s0.8,0.1,1,0.3
				c0.3,0.2,0.4,0.4,0.5,0.7c0.4-0.6,1-0.9,1.7-0.9c0.5,0,0.9,0.1,1.3,0.4c0.3,0.3,0.4,0.8,0.4,1.4v3.8h-0.9V127
				c0-0.4-0.1-0.6-0.1-0.8c-0.1-0.2-0.2-0.3-0.3-0.4c-0.2-0.1-0.4-0.1-0.5-0.1c-0.4,0-0.7,0.1-0.9,0.4c-0.2,0.3-0.4,0.7-0.4,1.2v3.2
				h-0.9v-3.6c0-0.4-0.1-0.7-0.2-0.9s-0.4-0.3-0.8-0.3c-0.3,0-0.5,0.1-0.7,0.2c-0.2,0.1-0.4,0.4-0.5,0.6c-0.1,0.3-0.1,0.6-0.1,1.2
				v2.8h-0.9L104.9,130.4L104.9,130.4z"/>
			<path class="st2" d="M113.6,123.9v-1.1h0.9v1.1H113.6z M113.6,130.4v-5.5h0.9v5.5H113.6z"/>
			<path class="st2" d="M116,130.4v-5.5h0.9v0.8c0.4-0.6,1-0.9,1.8-0.9c0.3,0,0.6,0.1,0.9,0.2c0.3,0.1,0.5,0.3,0.6,0.4
				c0.1,0.2,0.2,0.4,0.3,0.7c0.1,0.2,0.1,0.5,0.1,0.9v3.3h-0.9V127c0-0.4-0.1-0.7-0.1-0.9c-0.1-0.2-0.2-0.4-0.4-0.4
				c-0.2-0.1-0.4-0.2-0.6-0.2c-0.4,0-0.7,0.1-1,0.4c-0.3,0.3-0.4,0.7-0.4,1.4v3L116,130.4L116,130.4z"/>
			<path class="st2" d="M121.7,130.8l0.9,0.1c0.1,0.3,0.1,0.5,0.3,0.6c0.2,0.2,0.5,0.3,0.9,0.3c0.4,0,0.8-0.1,1-0.3
				c0.2-0.2,0.4-0.4,0.5-0.7c0.1-0.2,0.1-0.6,0.1-1.2c-0.4,0.5-0.9,0.7-1.5,0.7c-0.8,0-1.3-0.3-1.8-0.8c-0.4-0.5-0.6-1.2-0.6-2
				c0-0.5,0.1-1,0.3-1.4c0.2-0.4,0.4-0.8,0.8-1c0.4-0.2,0.8-0.4,1.3-0.4c0.6,0,1.2,0.3,1.6,0.8v-0.6h0.9v4.7c0,0.9-0.1,1.5-0.3,1.8
				c-0.2,0.3-0.4,0.6-0.8,0.9c-0.4,0.3-0.9,0.3-1.4,0.3c-0.7,0-1.2-0.1-1.6-0.4C121.9,131.9,121.7,131.4,121.7,130.8z M122.5,127.5
				c0,0.7,0.1,1.3,0.4,1.6c0.3,0.3,0.6,0.5,1.1,0.5c0.4,0,0.8-0.2,1.1-0.5c0.3-0.3,0.4-0.9,0.4-1.6c0-0.7-0.1-1.2-0.4-1.5
				c-0.3-0.4-0.7-0.5-1.1-0.5c-0.4,0-0.8,0.2-1.1,0.5C122.6,126.4,122.5,126.9,122.5,127.5z"/>
		</g>
	</g>
</g>
</svg>
