<svg xmlns="http://www.w3.org/2000/svg" viewBox="0 0 20.01 20"><defs><style>.cls-1{fill:#0c6d72;}.cls-2{fill:lime;}</style></defs><title>add-to-fav</title><g id="Layer_2" data-name="Layer 2"><g id="layer"><path class="cls-1" d="M2.16,2.14V16.68l2.44-2c.83-.68,1.66-1.36,2.5-2a1.08,1.08,0,0,1,1.55,0L15.2,18a1.08,1.08,0,0,1,.31,1.61,1.1,1.1,0,0,1-1.65,0l-6-4.86-2.53,2c-1.16.94-2.33,1.88-3.48,2.83a1.1,1.1,0,0,1-1.26.23A1.1,1.1,0,0,1,0,18.77V1.25C0,.4.41,0,1.27,0H14.52c.91,0,1.44.69,1.15,1.45a1.13,1.13,0,0,1-1.17.69H2.16Z"/><path class="cls-2" d="M15.77,8.5c1.05,0,2.06,0,3.07,0A1.07,1.07,0,0,1,20,9.92a1,1,0,0,1-1,.7c-1,0-2.09,0-3.18,0,0,.21,0,.38,0,.56v2.54a1,1,0,0,1-1,1.17,1.06,1.06,0,0,1-1.1-1.13c0-.86,0-1.73,0-2.59v-.55H11.13c-.22,0-.43,0-.64,0a1,1,0,0,1-1.1-1,1,1,0,0,1,1-1.12c.64,0,1.27,0,1.91,0H13.6V5.7a4.9,4.9,0,0,1,0-.54,1.06,1.06,0,0,1,2.11.19V8.17C15.75,8.26,15.76,8.35,15.77,8.5Z"/></g></g></svg>