<?xml version="1.0" encoding="utf-8"?>
<!-- Generator: Adobe Illustrator 22.0.0, SVG Export Plug-In . SVG Version: 6.00 Build 0)  -->
<svg version="1.1" id="Layer_1" xmlns="http://www.w3.org/2000/svg" xmlns:xlink="http://www.w3.org/1999/xlink" x="0px" y="0px"
	 viewBox="0 0 286.1 284.8" style="enable-background:new 0 0 286.1 284.8;" xml:space="preserve">
<style type="text/css">
	.st0{fill:#E52033;}
	.st1{fill:#0C6D72;}
</style>
<title>Asset 1</title>
<g>
	<path class="st0" d="M285.3,193c-2.1-5.7-4.5-11.1-6.9-16.6c-2-4.5-4.2-8.9-6.4-13.3c-2.3-4.6-4.8-9-7.2-13.6
		c-3-5.5-6.2-11-9.4-16.4c-3.2-5.2-6.5-10.4-9.8-15.5c-2.8-4.4-5.8-8.7-8.7-12.9c-2.7-3.8-5.4-7.5-8-11.2c-3.1-4.2-6.2-8.3-9.4-12.4
		c-2.4-3.1-4.8-6.1-7.3-9c-0.8-0.9-1.6-1.9-2.4-2.9c-0.5-0.6-0.5-0.7,0.1-1.3c0.5-0.5,1.2-1,1.7-1.6c2.7-2.6,5.6-4.9,8.3-7.4
		c0.9-0.8,1.8-1.6,2.8-2.4c1.3-1.1,2.6-2.1,3.8-3.2c1-0.8,2-1.6,3-2.5c1.7-1.4,3.4-2.7,5.1-4.1c1.5-1.2,2.9-2.4,4.4-3.5
		c1.9-1.5,3.8-2.9,5.8-4.3c2.7-2,5.5-4.1,8.3-6.1s5.8-4,8.6-6c3.4-2.4,6.9-4.7,10.3-6.9c3.7-2.4,7.5-4.8,11.1-7.1
		c0.9-0.5,1.6-1.4,1.9-2.4c0.9-2.1,1.3-4.5,1-6.8c-0.2-1.6-0.9-2.9-2.7-3.4h-2c-1.6,0.2-3.1,0.6-4.6,1.2c-3.8,1.6-7.7,3.2-11.5,4.9
		c-1.9,0.8-3.8,1.8-5.8,2.7c-4.4,2-8.8,4.1-13.1,6.4c-5,2.7-10.1,5.3-15,8.1c-2.2,1.3-4.3,2.5-6.5,3.7c-4.9,2.9-9.8,5.8-14.6,9
		c-3,1.9-6.1,3.9-9.1,5.9c-2.8,1.8-5.5,3.8-8.3,5.6c-1,0.6-1.4,0.6-2.2-0.2c-0.2-0.2-0.4-0.4-0.5-0.5c-5.2-5.1-10.2-10.4-15.7-15.3
		c-1.4-1.2-2.7-2.5-4-3.5c-1-0.7-1.9-1.5-2.8-2.3c-3.7-3.3-7.7-6.2-11.6-9.1c-2.7-1.9-5.3-3.7-8.1-5.4c-5.8-3.7-12-6.7-18.5-9
		c-2.8-0.9-5.7-1.9-8.8-2c-1.2,0.1-2.5-0.1-3.7-0.4h-6.9c-1.4,0.4-2.7,0.2-4.1,0.4c-1.5,0.1-2.9,0.4-4.4,0.7
		c-3.8,1.2-7.3,3-10.4,5.5C90,7.6,89,8.8,88.2,10c-1.5,2.3-2.2,6.4-1.7,9c0.4,2.4,1.4,4.7,2.9,6.6c2,2.3,4.3,4.3,6.8,5.9
		c3.3,2.2,6.9,4,10.4,5.8c5.5,3,11.1,5.5,16.6,8.6c5.2,2.9,10.3,5.9,15.4,9.2c7.3,4.8,14.6,9.7,21.6,15c0.9,0.7,1,1.3,0.2,2
		c-1,0.9-2.1,1.7-3.1,2.6c-1.8,1.5-3.7,3-5.5,4.6c-1.6,1.4-3.1,2.8-4.8,4.2c-3.7,3.2-7.4,6.5-11,10c-5.2,5-10.4,10.1-15.3,15.4
		c-3.4,3.8-6.8,7.7-10.1,11.6c-3,3.7-5.8,7.4-8.5,11.2c-2.9,4.2-5.6,8.6-8,13.1c-1.3,2.4-2.4,4.8-3.4,7.3c-1.1,2.5-1.9,5-2.7,7.6
		c-0.7,2.7-1.3,5.6-1.6,8.4c-0.5,3.6-0.4,7.2,0.3,10.9c0.5,2.7,1.2,5.3,2.2,7.9c1.3,3.6,3.4,6.9,6.1,9.5c1.6,1,3.6,1.7,5.5,2.2
		l1.1,0.1c3.9,0.4,7.9-0.6,11.1-2.9c0.4-0.3,0.7-0.5,1.1-0.9c2.3-2.4,4.3-4.9,5.8-7.9c3.5-5.8,6.3-11.8,9.3-17.7
		c1.9-3.8,4-7.6,6.1-11.2c2.5-4.4,5.2-8.7,8-12.9c1.9-3,3.9-6,6-9c2.2-3.1,4.4-6.2,6.7-9.3c1.9-2.7,3.9-5.2,5.9-7.7
		c1.8-2.3,3.6-4.6,5.5-6.9c1.6-1.9,3.2-3.8,4.8-5.7c1.4-1.6,3.7-4.2,5-5.8c1.8-2,3.6-4.1,5.6-6c0.8-0.8,1.6-1.7,2.4-2.7
		c0.3-0.3,0.5-0.5,0.8-0.8c0.3-0.3,0.7-0.4,1.1-0.1c0.3,0.2,0.5,0.4,0.7,0.6c5.7,5.4,11.4,10.6,17,16.2c3.6,3.6,6.9,7.2,10.4,10.9
		c2.7,2.8,5.3,5.7,7.9,8.6c2,2.4,4.1,4.7,6.1,7c1.6,1.9,3.3,3.9,5,5.9c0.9,1,1.7,2.1,2.6,3.1c1.6,2.1,3.4,4.2,5,6.3
		c1.6,2.1,3.2,4.2,4.8,6.3c2,2.7,4,5.3,5.9,8c3.3,4.5,6.5,9,9.5,13.6c2.2,3.3,4.4,6.5,6.5,9.8c1.7,2.7,3.4,5.3,5.1,8
		c0.8,1.4,2.1,2.4,3.6,2.8l0.5,0.2c0.7,0.3,1.6,0.5,2.3,0.4l3.5-0.1c0.5,0,0.8-0.2,1.3-0.4l0,0c1.5-0.9,2.1-2.7,1.5-4.4
		C285.6,193.8,285.4,193.4,285.3,193z"/>
	<path class="st1" d="M219.2,131.7c-0.7-0.8-1.4-1.6-2.1-2.5c-2.3-2.7-4.8-5.4-7.3-8c-0.9-0.9-1.8-1.9-2.7-2.8v91.8
		c0,15.4-12.5,27.9-27.9,27.9H74.4c-15.4,0-27.9-12.5-27.9-27.9V105.6c0-15.4,12.5-27.9,27.9-27.9h66.2c1.3-1.2,2.6-2.3,3.9-3.5
		c1-0.9,1.9-1.8,3-2.6c0.5-0.4,1-0.9,1.5-1.3c0.4-0.3,0.7-0.6,1-0.9c-2.6-1.9-5.3-3.7-8.4-5.7H74.4c-20.2-0.1-37.1,14.3-40.9,33.4
		C14.4,101.1,0,117.9,0,138.2v104.7c0,23.1,18.8,41.9,41.9,41.9h104.7c20.2,0,37.1-14.4,41-33.4c19.1-3.9,33.4-20.8,33.4-41V134
		C220.4,133.2,219.8,132.4,219.2,131.7z M146.6,270.7H41.9c-15.4,0-27.9-12.5-27.9-27.9V138.2c0-12.1,7.8-22.5,18.6-26.3v98.5
		c0,23.1,18.8,41.9,41.9,41.9h98.4C169,263,158.7,270.7,146.6,270.7z"/>
</g>
</svg>
