<?xml version="1.0" encoding="utf-8"?>
<!-- Generator: Adobe Illustrator 22.0.0, SVG Export Plug-In . SVG Version: 6.00 Build 0)  -->
<svg version="1.1" id="Layer_1" xmlns="http://www.w3.org/2000/svg" xmlns:xlink="http://www.w3.org/1999/xlink" x="0px" y="0px"
	 viewBox="0 0 20 20" style="enable-background:new 0 0 20 20;" xml:space="preserve">
<style type="text/css">
	.st0{fill:#0C6D72;}
	.st1{fill:#13BCD0;}
</style>
<title>open</title>
<g id="Layer_2_1_">
	<g id="layer">
		<path class="st0" d="M20,2.3v11.6c0,0.1-0.1,0.2-0.1,0.2c-0.3,1.3-1.5,2.1-2.8,2.1h-0.9c0,0.5,0,1,0,1.4c-0.2,1.2-1.1,2.1-2.3,2.4
			H2.4C1.1,20,0,18.9,0,17.6V6c0,0,0.1-0.1,0.1-0.2c0.4-1.3,1.5-2.1,2.8-2h0.9c0-0.4,0-0.8,0-1.1c0-1,0.5-1.9,1.4-2.4
			C5.4,0.2,5.7,0.1,6,0h11.8C18.9,0.3,19.7,1.2,20,2.3z M6.5,16.2l-0.1-0.1c0.3-0.3,0.7-0.6,1-0.9c0.2-0.3,0.6-0.4,1-0.4
			c2.8,0,5.7,0,8.5,0c1.2,0,1.7-0.5,1.7-1.7v-10c0-1.2-0.4-1.6-1.7-1.6h-10c-1.2,0-1.7,0.4-1.7,1.7V12c0,0.2,0,0.4-0.1,0.5
			c-0.4,0.4-0.8,0.9-1.4,1.4V5.3C2.3,5.1,1.4,5.4,1.4,7.1c0.1,3.3,0,6.5,0,9.8c0,1.3,0.4,1.7,1.7,1.7h7.3c1,0,1.9,0,2.9,0
			c0.6,0.1,1.1-0.3,1.3-0.9c0.1-0.5,0.1-1,0.1-1.5L6.5,16.2z"/>
		<path class="st1" d="M9.6,9.3l-2-1.9l7-1.9l-1.9,6.9l-1.9-1.9c-0.2,0.2-7,6.9-7.1,7c-0.4,0.3-1,0.1-1.3-0.3
			c-0.2-0.3-0.2-0.7,0-0.9C2.6,16.2,9.4,9.5,9.6,9.3z"/>
	</g>
</g>
</svg>
