<?xml version="1.0" encoding="utf-8"?>
<!-- Generator: Adobe Illustrator 23.0.1, SVG Export Plug-In . SVG Version: 6.00 Build 0)  -->
<svg version="1.1" id="Layer_1" xmlns="http://www.w3.org/2000/svg" xmlns:xlink="http://www.w3.org/1999/xlink" x="0px" y="0px"
	 viewBox="0 0 353.1 62.5" style="enable-background:new 0 0 353.1 62.5;" xml:space="preserve">
<style type="text/css">
	.st0{fill:#FFFFFF;}
	.st1{fill:#E52033;}
</style>
<title>event3</title>
<g>
	<g>
		<line class="st0" x1="0" y1="31.3" x2="101" y2="31.3"/>
		<g>
			<rect y="30.8" class="st0" width="94.9" height="1"/>
			<g>
				<path class="st0" d="M101,31.3c-2.8,1.1-6.4,2.9-8.5,4.8l1.7-4.8l-1.7-4.8C94.6,28.4,98.1,30.2,101,31.3z"/>
			</g>
		</g>
	</g>
	<g>
		<line class="st0" x1="163.5" y1="31.3" x2="353.1" y2="31.3"/>
		<g>
			<rect x="163.5" y="30.8" class="st0" width="183.6" height="1"/>
			<g>
				<path class="st0" d="M353.1,31.3c-2.8,1.1-6.4,2.9-8.5,4.8l1.7-4.8l-1.7-4.8C346.8,28.4,350.3,30.2,353.1,31.3z"/>
			</g>
		</g>
	</g>
	<g>
		<g>
			<path class="st0" d="M1.4,9.8h7.5V11H2.8v4.1h5.7v1.2H2.8v4.2h6.2v1.2H1.4V9.8z"/>
			<path class="st0" d="M10,13.2V13h1.5l2.2,6.2l0.4,1.3h0.2l0.4-1.3l2.3-6.2h1.4v0.2L15,21.7h-1.8L10,13.2z"/>
			<path class="st0" d="M23.2,21.8c-1.3,0-2.3-0.4-3-1.1c-0.7-0.7-1-1.8-1-3.3c0-1.5,0.3-2.6,1-3.4c0.7-0.8,1.6-1.2,2.9-1.2
				c2.2,0,3.3,1.3,3.3,3.9c0,0.5,0,0.9-0.1,1.1h-5.7c0.1,1,0.3,1.7,0.7,2.2c0.4,0.4,1.1,0.7,2,0.7c0.4,0,0.8,0,1.3-0.1
				c0.5-0.1,0.9-0.2,1.4-0.3l0.1,1.1c-0.4,0.2-0.9,0.3-1.4,0.4C24.1,21.8,23.6,21.8,23.2,21.8z M23,14c-1.5,0-2.4,1-2.5,2.9h4.5
				c0-1-0.2-1.8-0.5-2.2C24.2,14.2,23.7,14,23,14z"/>
			<path class="st0" d="M28.3,13h1.2l0.1,1h0.1c0.4-0.2,0.8-0.4,1.2-0.5c0.3-0.1,0.7-0.3,1-0.4c0.3-0.1,0.6-0.2,0.8-0.2
				c0.3,0,0.5-0.1,0.8-0.1c0.7,0,1.3,0.2,1.7,0.6s0.6,1,0.6,1.8v6.4h-1.4v-6c0-0.6-0.1-1-0.3-1.3c-0.2-0.3-0.6-0.4-1.1-0.4
				c-0.4,0-0.9,0.1-1.4,0.3c-0.5,0.2-1.1,0.4-1.7,0.7v6.7h-1.4V13z"/>
			<path class="st0" d="M41.3,21.8c-0.8,0-1.4-0.2-1.9-0.6c-0.4-0.4-0.6-1-0.6-1.8v-5.1H37V13h1.9l0.2-2.2l1.1-0.1V13h2.6v1.2h-2.5
				v4.8c0,0.5,0.1,0.9,0.4,1.2c0.2,0.3,0.6,0.4,1.1,0.4c0.2,0,0.3,0,0.5,0c0.2,0,0.4-0.1,0.6-0.1v1.1c-0.2,0.1-0.5,0.1-0.8,0.2
				S41.6,21.8,41.3,21.8z"/>
			<path class="st0" d="M46.5,21.8c-0.4,0-0.8,0-1.3-0.1c-0.4,0-0.8-0.1-1.2-0.2v-1.1h0.1c0.1,0,0.3,0.1,0.5,0.1
				c0.2,0,0.4,0,0.6,0.1s0.4,0,0.6,0c0.2,0,0.4,0,0.5,0c2,0,3-0.8,3-2.3c0-0.7-0.2-1.3-0.7-1.6c-0.5-0.4-1.2-0.5-2.2-0.5h-1.1v-1.1
				h1c0.9,0,1.6-0.2,2-0.5c0.4-0.4,0.6-0.9,0.6-1.6s-0.2-1.2-0.6-1.6c-0.4-0.4-1.1-0.5-2-0.5c-0.3,0-0.6,0-1,0.1
				c-0.4,0-0.8,0.1-1.3,0.2H44l0-1.1c0.4-0.1,0.8-0.1,1.2-0.2c0.5,0,0.9-0.1,1.3-0.1c1.3,0,2.2,0.3,2.9,0.8c0.7,0.5,1,1.3,1,2.4
				c0,0.7-0.2,1.3-0.5,1.7s-0.8,0.8-1.4,1v0.1c0.7,0.1,1.3,0.5,1.6,1c0.4,0.5,0.6,1.1,0.6,1.9c0,1.1-0.4,1.9-1.1,2.5
				C48.9,21.5,47.9,21.8,46.5,21.8z"/>
		</g>
	</g>
	<g>
		<g>
			<path class="st0" d="M204,9.8h2l3,7.2l1,2.6h0.1l1-2.6l3-7.2h2v11.8h-1.3v-10h-0.1l-1.3,3.3l-2.6,6.2h-1.3l-2.6-6.2l-1.3-3.3
				h-0.1v10H204V9.8z"/>
			<path class="st0" d="M218.9,9.8h1.4v11.8h-1.4V9.8z"/>
			<path class="st0" d="M227.9,21.8c-3.6,0-5.4-2-5.4-6c0-2.1,0.4-3.6,1.3-4.6c0.9-1,2.2-1.5,4-1.5c0.4,0,0.8,0,1.2,0.1
				s0.9,0.1,1.4,0.2v1.2c-0.5-0.1-1-0.1-1.4-0.2c-0.4,0-0.8-0.1-1.1-0.1c-1.4,0-2.4,0.4-3.1,1.2c-0.7,0.8-1,2-1,3.7
				c0,1.7,0.3,2.9,1,3.7c0.6,0.8,1.6,1.2,3,1.2c0.2,0,0.4,0,0.6,0c0.2,0,0.5,0,0.7-0.1c0.2,0,0.5-0.1,0.7-0.1s0.4-0.1,0.6-0.1v1.2
				c-0.4,0.1-0.8,0.2-1.3,0.2C228.7,21.8,228.3,21.8,227.9,21.8z"/>
			<path class="st0" d="M233,21.7c-0.3,0-0.5-0.1-0.7-0.2c-0.2-0.1-0.2-0.4-0.2-0.7c0-0.3,0.1-0.5,0.2-0.7c0.2-0.1,0.4-0.2,0.7-0.2
				c0.3,0,0.5,0.1,0.7,0.2c0.2,0.1,0.2,0.4,0.2,0.6c0,0.3-0.1,0.5-0.2,0.7C233.5,21.7,233.3,21.7,233,21.7z"/>
			<path class="st0" d="M236.3,9.8h1.4V15h6.6V9.8h1.4v11.8h-1.4v-5.5h-6.6v5.5h-1.4V9.8z"/>
			<path class="st0" d="M247.3,21.5l4.3-11.7h2.2l4.3,11.7v0.1h-1.4l-1.3-3.5H250l-1.3,3.5h-1.4V21.5z M254.9,16.9l-1.5-4l-0.7-2.1
				h-0.1l-0.7,2.1l-1.5,4H254.9z"/>
			<path class="st0" d="M259.5,9.8h1.4v10.7h5.4v1.2h-6.8V9.8z"/>
			<path class="st0" d="M268,9.8h1.4v10.7h5.4v1.2H268V9.8z"/>
			<path class="st0" d="M275.7,20.1c0-0.5,0.1-1,0.2-1.4c0.1-0.4,0.4-0.8,0.6-1.1c0.3-0.3,0.6-0.7,1.1-1c0.4-0.3,0.9-0.6,1.5-0.9
				c0.8-0.5,1.5-0.9,1.8-1.3c0.4-0.4,0.6-0.9,0.6-1.4c0-1.3-0.8-2-2.4-2c-0.4,0-0.9,0-1.4,0.1c-0.5,0.1-1,0.2-1.5,0.3l-0.2-1.2
				c0.6-0.1,1.2-0.3,1.7-0.3c0.5-0.1,1-0.1,1.5-0.1c2.4,0,3.6,1,3.6,3.1c0,0.4-0.1,0.8-0.2,1.1c-0.1,0.3-0.3,0.7-0.5,0.9
				c-0.2,0.3-0.5,0.6-0.9,0.8c-0.4,0.3-0.8,0.5-1.3,0.8c-1,0.6-1.7,1.1-2.1,1.6c-0.5,0.5-0.7,1-0.7,1.6v0.7h5.7v1.2h-7.2V20.1z"/>
			<path class="st0" d="M285.7,21.7c-0.3,0-0.5-0.1-0.7-0.2c-0.2-0.1-0.2-0.4-0.2-0.7c0-0.3,0.1-0.5,0.2-0.7
				c0.2-0.1,0.4-0.2,0.7-0.2c0.3,0,0.5,0.1,0.7,0.2c0.2,0.1,0.2,0.4,0.2,0.6c0,0.3-0.1,0.5-0.2,0.7C286.2,21.7,286,21.7,285.7,21.7z
				"/>
			<path class="st0" d="M289,9.8h7.4V11h-6v4.2h5.5v1.2h-5.5v5.3H289V9.8z"/>
			<path class="st0" d="M302.3,21.8c-1.5,0-2.6-0.5-3.3-1.5s-1.1-2.5-1.1-4.6c0-2,0.4-3.5,1.1-4.6c0.8-1,1.9-1.5,3.3-1.5
				c1.4,0,2.5,0.5,3.3,1.5c0.8,1,1.1,2.5,1.1,4.6c0,2-0.4,3.5-1.1,4.6S303.8,21.8,302.3,21.8z M302.3,20.6c1,0,1.8-0.4,2.2-1.2
				s0.7-2,0.7-3.7c0-1.7-0.2-2.9-0.7-3.7c-0.5-0.8-1.2-1.2-2.2-1.2c-1,0-1.8,0.4-2.3,1.2c-0.5,0.8-0.8,2-0.8,3.7
				c0,1.7,0.2,2.9,0.7,3.7S301.3,20.6,302.3,20.6z"/>
			<path class="st0" d="M311.1,11.5L311.1,11.5l-2.8,1.4h-0.1L308,12v-0.1l3.5-2.1h1.1v11.8h-1.4V11.5z"/>
		</g>
	</g>
	<g>
		<g>
			<g>
				<circle class="st1" cx="132.2" cy="31.3" r="31.3"/>
			</g>
		</g>
		<g>
			<path class="st0" d="M133.6,8.8c0.5,0.1,1,0.3,1.5,0.4c4,1.2,6.7,4.8,6.7,9c0.1,4.7,0.1,9.3,0,14c-0.1,5.3-4.4,9.5-9.7,9.4
				c-5.2,0-9.4-4.3-9.4-9.6c0-4.5,0-9,0-13.4c0-5,3.1-8.7,8-9.7c0.1,0,0.2-0.1,0.3-0.1C131.8,8.8,132.7,8.8,133.6,8.8z M125,24.1
				c1.5,0,3,0,4.4,0c0.4,0,0.9,0.4,1.1,0.7c0.2,0.3,0.1,0.9-0.2,1.1c-0.3,0.3-0.8,0.4-1.2,0.4c-1.4,0-2.7,0-4.1,0c0,0.8,0,1.5,0,2.3
				c0.4,0,0.7,0,1,0c1.1,0,2.3,0,3.4,0c0.7,0,1.1,0.4,1.1,1.1c0,0.7-0.4,1.1-1.1,1.1c-0.4,0-0.7,0-1.1,0c-1.1,0-2.3,0-3.4,0
				c-0.3,3.3,0.7,5.8,3.5,7.5c2.6,1.6,5.3,1.5,7.9-0.2c2.6-1.7,3.5-4.2,3.2-7.3c-1.2,0-2.4,0-3.5,0c-0.3,0-0.6,0-1,0
				c-0.7-0.1-1.1-0.5-1.1-1.2c0-0.7,0.4-1,1.1-1c1.5,0,3,0,4.5,0c0-0.8,0-1.5,0-2.3c-1.4,0-2.8,0-4.2,0c-0.9,0-1.4-0.5-1.4-1.2
				c0-0.7,0.5-1,1.4-1.1c1.4,0,2.7,0,4.1,0c0-0.8,0-1.5,0-2.3c-1.5,0-2.9,0-4.3,0c-0.9,0-1.4-0.7-1.2-1.4c0.2-0.7,0.7-0.8,1.3-0.8
				c1.4,0,2.8,0,4.2,0c0.5-2.9-0.8-5.9-3.3-7.5c-2.5-1.6-5.9-1.4-8.3,0.4c-2.2,1.7-3.4,4.7-2.7,7.1c0.4,0,0.7,0,1.1,0
				c1.1,0,2.2,0,3.2,0c0.7,0,1.1,0.4,1.1,1.1c0,0.7-0.4,1.1-1.1,1.1c-0.4,0-0.8,0-1.1,0c-1.1,0-2.2,0-3.3,0
				C125,22.6,125,23.3,125,24.1z"/>
			<path class="st0" d="M123.4,53.8c-0.5-0.4-0.9-0.8-0.6-1.5c0.3-0.7,0.9-0.8,1.5-0.8c2.2,0,4.5,0,6.8,0c0-1.8,0-3.6,0-5.4
				c-0.6-0.1-1.3-0.2-1.9-0.4c-6.2-1.4-10.8-7-11-13.4c0-0.9,0.5-1.5,1.1-1.5c0.7,0,1.1,0.5,1.1,1.5c0.3,6,4.7,10.7,10.7,11.4
				c5.7,0.6,11.1-3.2,12.6-8.9c0.2-0.9,0.3-1.8,0.4-2.7c0.1-0.8,0.6-1.4,1.2-1.3c0.8,0.1,1,0.6,1,1.4c0,6.6-5.3,12.7-11.8,13.6
				c-0.3,0-0.7,0.1-1.1,0.2c0,1.8,0,3.6,0,5.5c1.7,0,3.4,0,5.1,0c0.6,0,1.1,0,1.7,0c0.6,0,1.2,0.1,1.5,0.8c0.3,0.7-0.2,1.1-0.6,1.5
				C135.2,53.8,129.3,53.8,123.4,53.8z"/>
		</g>
	</g>
</g>
</svg>
