<?xml version="1.0" encoding="utf-8"?>
<!-- Generator: Adobe Illustrator 23.0.1, SVG Export Plug-In . SVG Version: 6.00 Build 0)  -->
<svg version="1.1" id="Layer_1" xmlns="http://www.w3.org/2000/svg" xmlns:xlink="http://www.w3.org/1999/xlink" x="0px" y="0px"
	 viewBox="0 0 353.1 62.5" style="enable-background:new 0 0 353.1 62.5;" xml:space="preserve">
<style type="text/css">
	.st0{fill:#FFFFFF;}
	.st1{fill:#0B6D72;}
</style>
<g>
	<g>
		<rect y="30.8" class="st0" width="6" height="1"/>
		<path class="st0" d="M77.1,31.8H65.3v-1h11.9V31.8z M53.4,31.8H41.6v-1h11.9V31.8z M29.7,31.8H17.9v-1h11.9V31.8z"/>
		<rect x="89" y="30.8" class="st0" width="6" height="1"/>
		<g>
			<path class="st0" d="M101,31.3c-2.8,1.1-6.4,2.9-8.5,4.8l1.7-4.8l-1.7-4.8C94.6,28.4,98.2,30.2,101,31.3z"/>
		</g>
	</g>
	<g>
		<circle class="st1" cx="132.2" cy="31.3" r="31.3"/>
		<g>
			<path class="st0" d="M116.3,23.4c3.7,1.4,7.3,2.8,11,4.1c1.9,0.7,3.9,1.5,5.8,2.2c0.5-1.1,1-2.1,1.5-3.1c0.5-1,1-2,1.4-3
				c0.4-0.8,1-1.3,2-1.4c2.6-0.3,5.3-0.6,7.9-1c-1.2-0.2-2.5-0.3-3.7-0.5c-5.2-0.6-10.3-1.3-15.5-1.9c-1.3-0.1-2.6-0.1-3.8-0.1
				c-1.1,0-2.2,0.1-3.2,0c-1.7-0.1-2.8,0.5-3.4,2.1C116.3,21.7,116.3,22.5,116.3,23.4z"/>
			<path class="st0" d="M116.3,43.7c0.2,0,0.4,0.1,0.6,0c1.7-0.4,3.5-0.9,5.2-1.4c0.2-0.1,0.4-0.2,0.8-0.3c-0.3-0.2-0.4-0.3-0.6-0.3
				c-1.4-0.7-2.7-1.3-4.1-2c-0.4-0.2-0.5-0.4-0.5-0.8c0-0.8,0-1.6,0-2.4c1.7-0.3,3.4-1,5.1,0.3c0-1.2,0-2.1,0-3
				c0-0.1-0.3-0.3-0.4-0.2c-1.8,0.4-3.6,0.8-5.4,1.2c-0.2,0.1-0.4,0.2-0.6,0.4C116.3,38,116.3,40.9,116.3,43.7z"/>
			<path class="st0" d="M148.1,22.4c-0.3-0.7-0.8-0.8-1.5-0.7c-2.8,0.4-5.7,0.7-8.5,1.1c-0.5,0.1-0.9,0.3-1.4,0.5
				c0,0.1,0,0.2,0.1,0.3c0.4,0,0.8,0,1.1-0.1c1.3-0.1,2.7-0.3,4-0.4c1.2-0.1,1.9,0.6,1.9,1.7c0,1.1,0,2.2,0,3.3
				c0,0.5,0.2,0.6,0.6,0.7c0.4,0.1,0.5-0.1,0.7-0.4c1-1.8,2-3.6,3-5.3C148.1,22.9,148.1,22.6,148.1,22.4z"/>
			<path class="st0" d="M118.3,37.3c0,0.1-0.1,0.2-0.1,0.2c-0.1,1.6-0.1,1.6,1.4,2.3c2.1,1,4.2,2,6.4,3.1c1,0.5,2.1,0.7,3.3,0.4
				c1-0.3,1.4-0.9,1.5-1.9c0-2.3,0-4.6,0-7c0-0.5-0.1-0.7-0.6-0.9c-1.2-0.6-2.4-1.2-3.5-1.8c-0.2-0.1-0.3-0.1-0.6-0.3c0,3,0,6,0,9.1
				C123.4,39.6,120.9,38.5,118.3,37.3z"/>
			<path class="st0" d="M116.8,24.1c-0.2,1.5,0.1,2.2,1.4,2.9c4.5,2.3,9.1,4.6,13.6,6.9c0.1,0.1,0.3,0.1,0.5,0.2c0-1.3,0-2.6,0-3.9
				c0-0.1-0.3-0.3-0.5-0.4c-4.2-1.6-8.4-3.2-12.6-4.8C118.4,24.7,117.6,24.4,116.8,24.1z"/>
			<path class="st0" d="M135.6,25.8c1.9-0.2,3.6-0.4,5.4-0.6c0.7-0.1,0.8,0,0.8,0.7c0,1.8,0,3.7,0,5.5c0,0.5-0.2,0.7-0.7,0.8
				c-2,0.2-4.1,0.5-6.1,0.7c-0.9,0.1-0.9,0.1-0.9-0.8c0-0.9,0-1.8-0.1-2.8c-0.2,0.3-0.3,0.7-0.5,1c-0.2,0-0.4-0.1-0.6-0.1
				c0,1.3,0,2.6,0,3.8c0,0.6,0.5,0.6,0.9,0.5c1.6-0.2,3.1-0.3,4.7-0.5c1-0.1,2-0.2,3-0.3c1.3-0.1,1.9-0.8,1.9-2.1c0-2.2,0-4.4,0-6.6
				c0-1.1-0.4-1.5-1.5-1.4c-1.6,0.1-3.2,0.3-4.8,0.4c-0.4,0-0.7,0.2-0.9,0.6C136,25,135.8,25.3,135.6,25.8z"/>
			<path class="st0" d="M139.8,28.8c0-0.1,0-0.3,0-0.4c-0.1-0.8-0.6-1.3-1.3-1.5c-0.6-0.1-1.3,0.2-1.7,0.9c-0.5,0.9-0.6,1.8,0,2.7
				c0.5,0.8,1.4,1,2.2,0.3C139.5,30.3,139.8,29.6,139.8,28.8z"/>
			<path class="st0" d="M125.4,39.8c0.1-0.1,0.1-0.1,0.1-0.1c0.1-1.2,0.1-1.2-1-1.6c-0.9-0.4-1.8-0.7-2.6-1.1c-1-0.5-1.9-0.2-3,0
				C121.1,37.9,123.3,38.9,125.4,39.8z"/>
		</g>
	</g>
	<g>
		<rect x="163.5" y="30.8" class="st0" width="183.6" height="1"/>
		<g>
			<path class="st0" d="M353.1,31.3c-2.8,1.1-6.4,2.9-8.5,4.8l1.7-4.8l-1.7-4.8C346.7,28.4,350.3,30.2,353.1,31.3z"/>
		</g>
	</g>
	<g>
		<g>
			<path class="st0" d="M196.2,11h-3.8V9.8h9.1V11h-3.8v10.6h-1.4V11z"/>
			<path class="st0" d="M203.2,9.9c1-0.2,2-0.2,3-0.2c1.9,0,3.2,0.3,4.1,1c0.9,0.7,1.3,1.7,1.3,3.1c0,1.4-0.4,2.5-1.3,3.1
				c-0.9,0.7-2.2,1-4,1c-0.2,0-0.5,0-0.8,0s-0.5,0-0.9,0v3.9h-1.4V9.9z M206.4,16.7c0.7,0,1.2-0.1,1.7-0.2c0.5-0.1,0.8-0.3,1.1-0.5
				c0.3-0.2,0.5-0.5,0.6-0.9c0.1-0.4,0.2-0.8,0.2-1.4c0-0.5-0.1-1-0.2-1.3c-0.1-0.4-0.4-0.7-0.6-0.9c-0.3-0.2-0.7-0.4-1.1-0.5
				c-0.5-0.1-1-0.2-1.7-0.2c-0.3,0-0.6,0-0.9,0c-0.3,0-0.6,0.1-0.9,0.1v5.6c0.1,0,0.2,0,0.3,0.1c0.1,0,0.3,0,0.5,0s0.3,0,0.5,0
				C206.1,16.7,206.3,16.7,206.4,16.7z"/>
			<path class="st0" d="M216.9,9.8h1.2l6.1,8.3l0.9,1.4h0.1V9.8h1.3v11.8h-1.2l-6.1-8.3l-0.9-1.4l-0.1,0v9.6h-1.3V9.8z"/>
			<path class="st0" d="M228.1,21.5l4.3-11.7h2.2l4.3,11.7v0.1h-1.4l-1.3-3.5h-5.3l-1.3,3.5h-1.4V21.5z M235.7,16.9l-1.5-4l-0.7-2.1
				h-0.1l-0.7,2.1l-1.5,4H235.7z"/>
			<path class="st0" d="M240.3,9.8h2l3,7.2l1,2.6h0.1l1-2.6l3-7.2h2v11.8H251v-10h-0.1l-1.3,3.3l-2.6,6.2h-1.3L243,15l-1.3-3.3h-0.1
				v10h-1.3V9.8z"/>
			<path class="st0" d="M255.2,9.8h7.5V11h-6.1v4.1h5.7v1.2h-5.7v4.2h6.2v1.2h-7.7V9.8z"/>
			<path class="st0" d="M265.6,14.7c-0.3,0-0.5-0.1-0.7-0.2c-0.2-0.1-0.2-0.4-0.2-0.7c0-0.3,0.1-0.5,0.2-0.7
				c0.2-0.1,0.4-0.2,0.7-0.2s0.5,0.1,0.7,0.2c0.2,0.1,0.2,0.4,0.2,0.6s-0.1,0.5-0.2,0.7C266.1,14.6,265.8,14.7,265.6,14.7z
				 M265.6,21.7c-0.3,0-0.5-0.1-0.7-0.2c-0.2-0.1-0.2-0.4-0.2-0.7c0-0.3,0.1-0.5,0.2-0.7c0.2-0.1,0.4-0.2,0.7-0.2s0.5,0.1,0.7,0.2
				c0.2,0.1,0.2,0.4,0.2,0.6c0,0.3-0.1,0.5-0.2,0.7C266.1,21.7,265.8,21.7,265.6,21.7z"/>
			<path class="st0" d="M274.9,11h-3.8V9.8h9.1V11h-3.8v10.6h-1.4V11z"/>
			<path class="st0" d="M281.9,9.9c1-0.2,2-0.2,3-0.2c1.9,0,3.2,0.3,4.1,1c0.9,0.7,1.3,1.7,1.3,3.1c0,1.4-0.4,2.5-1.3,3.1
				c-0.9,0.7-2.2,1-4,1c-0.2,0-0.5,0-0.8,0s-0.5,0-0.9,0v3.9h-1.4V9.9z M285.1,16.7c0.7,0,1.2-0.1,1.7-0.2c0.5-0.1,0.8-0.3,1.1-0.5
				c0.3-0.2,0.5-0.5,0.6-0.9c0.1-0.4,0.2-0.8,0.2-1.4c0-0.5-0.1-1-0.2-1.3c-0.1-0.4-0.4-0.7-0.6-0.9s-0.7-0.4-1.1-0.5
				c-0.5-0.1-1-0.2-1.7-0.2c-0.3,0-0.6,0-0.9,0c-0.3,0-0.6,0.1-0.9,0.1v5.6c0.1,0,0.2,0,0.3,0.1c0.1,0,0.3,0,0.5,0
				c0.2,0,0.3,0,0.5,0S284.9,16.7,285.1,16.7z"/>
			<path class="st0" d="M291.3,21.7c-0.3,0-0.5-0.1-0.7-0.2c-0.2-0.1-0.2-0.4-0.2-0.7c0-0.3,0.1-0.5,0.2-0.7
				c0.2-0.1,0.4-0.2,0.7-0.2s0.5,0.1,0.7,0.2c0.2,0.1,0.2,0.4,0.2,0.6c0,0.3-0.1,0.5-0.2,0.7C291.7,21.7,291.5,21.7,291.3,21.7z"/>
			<path class="st0" d="M295.8,11.5L295.8,11.5l-2.8,1.4h-0.1l-0.2-0.8v-0.1l3.5-2.1h1.1v11.8h-1.4V11.5z"/>
			<path class="st0" d="M300.6,21.7c-0.3,0-0.5-0.1-0.7-0.2c-0.2-0.1-0.2-0.4-0.2-0.7c0-0.3,0.1-0.5,0.2-0.7
				c0.2-0.1,0.4-0.2,0.7-0.2s0.5,0.1,0.7,0.2c0.2,0.1,0.2,0.4,0.2,0.6c0,0.3-0.1,0.5-0.2,0.7C301.1,21.7,300.9,21.7,300.6,21.7z"/>
			<path class="st0" d="M305.2,11.5L305.2,11.5l-2.8,1.4h-0.1L302,12v-0.1l3.5-2.1h1.1v11.8h-1.4V11.5z"/>
			<path class="st0" d="M311.5,21.8c-0.4,0-0.8,0-1.3-0.1c-0.4,0-0.8-0.1-1.2-0.2v-1.1h0.1c0.1,0,0.3,0.1,0.5,0.1s0.4,0,0.6,0.1
				c0.2,0,0.4,0,0.6,0s0.4,0,0.5,0c2,0,3-0.8,3-2.3c0-0.7-0.2-1.3-0.7-1.6c-0.5-0.4-1.2-0.5-2.2-0.5h-1.1v-1.1h1
				c0.9,0,1.6-0.2,2-0.5c0.4-0.4,0.6-0.9,0.6-1.6s-0.2-1.2-0.6-1.6c-0.4-0.4-1.1-0.5-2-0.5c-0.3,0-0.6,0-1,0.1
				c-0.4,0-0.8,0.1-1.3,0.2H309l0-1.1c0.4-0.1,0.8-0.1,1.2-0.2c0.5,0,0.9-0.1,1.3-0.1c1.3,0,2.2,0.3,2.9,0.8c0.7,0.5,1,1.3,1,2.4
				c0,0.7-0.2,1.3-0.5,1.7s-0.8,0.8-1.4,1v0.1c0.7,0.1,1.3,0.5,1.6,1c0.4,0.5,0.6,1.1,0.6,1.9c0,1.1-0.4,1.9-1.1,2.5
				C313.9,21.5,312.9,21.8,311.5,21.8z"/>
			<path class="st0" d="M319.9,21.8c-0.4,0-0.8,0-1.3-0.1c-0.4,0-0.8-0.1-1.2-0.2v-1.1h0.1c0.1,0,0.3,0.1,0.5,0.1s0.4,0,0.6,0.1
				s0.4,0,0.6,0s0.4,0,0.5,0c2,0,3-0.8,3-2.3c0-0.7-0.2-1.3-0.7-1.6c-0.5-0.4-1.2-0.5-2.2-0.5h-1.1v-1.1h1c0.9,0,1.6-0.2,2-0.5
				c0.4-0.4,0.6-0.9,0.6-1.6s-0.2-1.2-0.6-1.6c-0.4-0.4-1.1-0.5-2-0.5c-0.3,0-0.6,0-1,0.1c-0.4,0-0.8,0.1-1.3,0.2h-0.1l0-1.1
				c0.4-0.1,0.8-0.1,1.2-0.2c0.5,0,0.9-0.1,1.3-0.1c1.3,0,2.2,0.3,2.9,0.8c0.7,0.5,1,1.3,1,2.4c0,0.7-0.2,1.3-0.5,1.7
				c-0.3,0.5-0.8,0.8-1.4,1v0.1c0.7,0.1,1.3,0.5,1.6,1c0.4,0.5,0.6,1.1,0.6,1.9c0,1.1-0.4,1.9-1.1,2.5
				C322.4,21.5,321.3,21.8,319.9,21.8z"/>
		</g>
	</g>
</g>
</svg>
