<?xml version="1.0" encoding="utf-8"?>
<!-- Generator: Adobe Illustrator 25.0.1, SVG Export Plug-In . SVG Version: 6.00 Build 0)  -->
<svg version="1.1" id="Layer_1" xmlns="http://www.w3.org/2000/svg" xmlns:xlink="http://www.w3.org/1999/xlink" x="0px" y="0px"
	 viewBox="0 0 353.1 62.5" style="enable-background:new 0 0 353.1 62.5;" xml:space="preserve">
<style type="text/css">
	.st0{fill:#FFFFFF;}
	.st1{fill:#E52033;}
</style>
<g>
	<g>
		<g>
			<rect y="33" class="st0" width="94.9" height="1"/>
			<g>
				<path class="st0" d="M101,33.5c-2.8,1.1-6.4,2.9-8.5,4.8l1.7-4.8l-1.7-4.8C94.6,30.7,98.1,32.5,101,33.5z"/>
			</g>
		</g>
	</g>
	<g>
		<g>
			<rect x="163.5" y="30.8" class="st0" width="183.6" height="1"/>
			<g>
				<path class="st0" d="M353.1,31.2c-2.8,1.1-6.4,2.9-8.5,4.8l1.7-4.8l-1.7-4.8C346.8,28.4,350.3,30.2,353.1,31.2z"/>
			</g>
		</g>
	</g>
	<g>
		<path class="st0" d="M1.4,12.3h7.7v1.2H2.8v4.1h5.8v1.2H2.8v4.3h6.4v1.2H1.4V12.3z"/>
		<path class="st0" d="M10.1,15.7v-0.2h1.5l2.3,6.3l0.4,1.3h0.2l0.4-1.3l2.3-6.3h1.5v0.2l-3.3,8.6h-1.9L10.1,15.7z"/>
		<path class="st0" d="M23.5,24.5c-1.3,0-2.4-0.4-3-1.1c-0.7-0.7-1-1.8-1-3.3s0.3-2.7,1-3.5c0.7-0.8,1.7-1.2,3-1.2
			c2.2,0,3.4,1.3,3.4,3.9c0,0.5,0,0.9-0.1,1.1H21c0.1,1,0.3,1.8,0.8,2.2c0.5,0.4,1.1,0.7,2.1,0.7c0.4,0,0.9,0,1.3-0.1
			c0.5-0.1,0.9-0.2,1.4-0.3l0.1,1.1c-0.4,0.2-0.9,0.3-1.4,0.4C24.5,24.4,24,24.5,23.5,24.5z M23.4,16.5c-1.6,0-2.4,1-2.5,2.9h4.6
			c0-1.1-0.2-1.8-0.5-2.3C24.6,16.7,24.1,16.5,23.4,16.5z"/>
		<path class="st0" d="M28.8,15.5H30l0.1,1h0.1c0.4-0.2,0.8-0.4,1.2-0.5c0.4-0.2,0.7-0.3,1-0.4c0.3-0.1,0.6-0.2,0.8-0.2
			c0.3,0,0.5-0.1,0.8-0.1c0.7,0,1.3,0.2,1.7,0.6s0.6,1,0.6,1.8v6.5h-1.4v-6.1c0-0.6-0.1-1-0.3-1.3s-0.6-0.4-1.1-0.4
			c-0.4,0-0.9,0.1-1.4,0.3c-0.5,0.2-1.1,0.4-1.7,0.7v6.8H29v-8.7C29,15.5,28.8,15.5,28.8,15.5z"/>
		<path class="st0" d="M42,24.5c-0.8,0-1.5-0.2-1.9-0.6s-0.6-1-0.6-1.9v-5.2h-1.8v-1.3h1.9l0.2-2.2l1.1-0.1v2.3h2.6v1.3h-2.6v4.9
			c0,0.6,0.1,1,0.4,1.2c0.2,0.3,0.6,0.4,1.1,0.4c0.2,0,0.3,0,0.5,0s0.4-0.1,0.6-0.1v1.1c-0.2,0.1-0.5,0.1-0.8,0.2
			C42.5,24.5,42.3,24.5,42,24.5z"/>
		<path class="st0" d="M47.4,14L47.4,14l-2.9,1.4h-0.1l-0.2-0.9v-0.1l3.6-2.1h1.1v12.1h-1.4L47.4,14L47.4,14z"/>
	</g>
	<g>
		<path class="st0" d="M199.6,12.3h1.4v11.8h-1.4V12.3z"/>
		<path class="st0" d="M203.9,12.4c1-0.2,2-0.2,3-0.2c1.9,0,3.2,0.3,4.1,1c0.9,0.7,1.3,1.7,1.3,3.1s-0.4,2.5-1.3,3.1
			c-0.9,0.7-2.2,1-4,1c-0.2,0-0.5,0-0.8,0s-0.5,0-0.9,0v3.9h-1.4L203.9,12.4L203.9,12.4z M207.1,19.2c0.7,0,1.2-0.1,1.7-0.2
			s0.8-0.3,1.1-0.5s0.5-0.5,0.6-0.9s0.2-0.8,0.2-1.4c0-0.5-0.1-1-0.2-1.3c-0.1-0.4-0.4-0.7-0.6-0.9c-0.3-0.2-0.7-0.4-1.1-0.5
			c-0.5-0.1-1-0.2-1.7-0.2c-0.3,0-0.6,0-0.9,0s-0.6,0.1-0.9,0.1V19c0.1,0,0.2,0,0.3,0.1c0.1,0,0.3,0,0.5,0s0.3,0,0.5,0
			C206.8,19.2,207,19.2,207.1,19.2z"/>
		<path class="st0" d="M216.6,18.1l-4.1-5.7h1.6l3.1,4.4l0.2,0.4h0.1l0.2-0.4l3.2-4.4h1.6l-4.2,5.8l4.4,6h-1.6l-3.4-4.8l-0.2-0.4
			h-0.1l-0.2,0.4l-3.4,4.8h-1.6L216.6,18.1z"/>
		<path class="st0" d="M226.3,14L226.3,14l-2.8,1.4h-0.1l-0.2-0.8v-0.1l3.5-2.1h1.1v11.8h-1.4V14H226.3z"/>
		<path class="st0" d="M234.6,24.3c-1.5,0-2.6-0.5-3.3-1.5c-0.8-1-1.1-2.5-1.1-4.6c0-2,0.4-3.5,1.1-4.6s1.9-1.5,3.3-1.5
			c1.4,0,2.5,0.5,3.3,1.5s1.1,2.5,1.1,4.6c0,2-0.4,3.5-1.1,4.6C237.2,23.8,236.1,24.3,234.6,24.3z M234.6,23.1c1,0,1.8-0.4,2.2-1.2
			c0.5-0.8,0.7-2,0.7-3.7s-0.2-2.9-0.7-3.7s-1.2-1.2-2.2-1.2s-1.8,0.4-2.3,1.2s-0.8,2-0.8,3.7c0,1.7,0.2,2.9,0.7,3.7
			C232.8,22.7,233.6,23.1,234.6,23.1z"/>
		<path class="st0" d="M241.8,24.2c-0.3,0-0.5-0.1-0.7-0.2s-0.2-0.4-0.2-0.7c0-0.3,0.1-0.5,0.2-0.7c0.2-0.1,0.4-0.2,0.7-0.2
			s0.5,0.1,0.7,0.2s0.2,0.4,0.2,0.6s-0.1,0.5-0.2,0.7C242.3,24.2,242.1,24.2,241.8,24.2z"/>
		<path class="st0" d="M249.9,24.3c-3.6,0-5.4-2-5.4-6c0-2.1,0.4-3.6,1.3-4.6c0.9-1,2.2-1.5,4-1.5c0.4,0,0.8,0,1.2,0.1
			c0.5,0,0.9,0.1,1.4,0.2v1.2c-0.5-0.1-1-0.1-1.4-0.2c-0.4,0-0.8-0.1-1.1-0.1c-1.4,0-2.4,0.4-3.1,1.2s-1,2-1,3.7s0.3,2.9,1,3.7
			c0.6,0.8,1.6,1.2,3,1.2c0.2,0,0.4,0,0.6,0c0.2,0,0.5,0,0.7-0.1c0.2,0,0.5-0.1,0.7-0.1s0.4-0.1,0.6-0.1V24
			c-0.4,0.1-0.8,0.2-1.3,0.2S250.3,24.3,249.9,24.3z"/>
		<path class="st0" d="M253.2,24.1l4.3-11.7h2.2l4.3,11.7v0.1h-1.4l-1.3-3.5H256l-1.3,3.5h-1.4v-0.1H253.2z M260.8,19.4l-1.5-4
			l-0.7-2.1h-0.1l-0.7,2.1l-1.5,4H260.8z"/>
		<path class="st0" d="M265.4,12.3h2l3,7.2l1,2.6h0.1l1-2.6l3-7.2h2v11.8h-1.3v-10h-0.1l-1.3,3.3l-2.6,6.2h-1.3l-2.6-6.2l-1.3-3.3
			h-0.1v10h-1.3V12.3H265.4z"/>
		<path class="st0" d="M280.8,24.2c-0.3,0-0.5-0.1-0.7-0.2s-0.2-0.4-0.2-0.7c0-0.3,0.1-0.5,0.2-0.7c0.2-0.1,0.4-0.2,0.7-0.2
			s0.5,0.1,0.7,0.2s0.2,0.4,0.2,0.6s-0.1,0.5-0.2,0.7C281.3,24.2,281.1,24.2,280.8,24.2z"/>
		<path class="st0" d="M284.1,12.3h1.4V23h5.4v1.2h-6.8V12.3z"/>
		<path class="st0" d="M292.6,12.3h7.5v1.2H294v4.1h5.7v1.2H294V23h6.2v1.2h-7.7V12.3H292.6z"/>
		<path class="st0" d="M301.1,12.3h1.5l3,8.1l0.8,2.3h0.1l0.8-2.3l3-8.1h1.5l-4.3,11.8h-1.9L301.1,12.3z"/>
		<path class="st0" d="M315.4,14L315.4,14l-2.8,1.4h-0.1l-0.2-0.8v-0.1l3.5-2.1h1.1v11.8h-1.4V14H315.4z"/>
	</g>
	<g>
		<circle class="st1" cx="132.2" cy="31.2" r="31.3"/>
		<g>
			<path class="st0" d="M132.2,12.9c3.3,0,6.6,0,9.8,0c2.3,0,3.6,1.2,3.6,3.6c0,5.5,0,11,0,16.5c0,0.6-0.2,1.2-0.4,1.7
				c-2.3,4.7-4.7,9.4-7,14.1c-0.3,0.6-0.8,0.9-1.4,0.9c-3,0-6,0-9.1,0c-0.6,0-1.1-0.3-1.4-0.9c-2.4-4.7-4.7-9.5-7.1-14.2
				c-0.2-0.5-0.4-1.1-0.4-1.7c0-5.5,0-11.1,0-16.6c0-2.2,1.3-3.5,3.5-3.5C125.6,12.9,128.9,12.9,132.2,12.9z M132.3,15.1
				c-3.3,0-6.5,0-9.8,0c-1.1,0-1.5,0.4-1.5,1.5c0,5.3,0,10.7,0,16c0,0.4,0.1,0.8,0.3,1.2c1,2,2,4,3,6.1c0.3,0.7,0.8,0.9,1.5,0.9
				c4.3,0,8.5,0,12.8,0c0.7,0,1.2-0.2,1.5-0.9c1-2,2-4,3-6.1c0.2-0.4,0.3-0.8,0.3-1.2c0-5.3,0-10.7,0-16c0-1.1-0.4-1.5-1.5-1.5
				C138.7,15.1,135.5,15.1,132.3,15.1z M134.4,45.2c0-1.2-1-2.2-2.2-2.2c-1.2,0-2.2,1-2.3,2.2c0,1.2,1,2.3,2.2,2.3
				C133.4,47.5,134.4,46.5,134.4,45.2z"/>
			<path class="st0" d="M123.3,17.4c6,0,11.8,0,17.8,0c0,0.3,0,0.5,0,0.8c0,4.7,0,9.4,0,14.1c0,0.4-0.1,0.7-0.2,1.1
				c-0.8,1.6-1.6,3.2-2.4,4.8c-0.2,0.4-0.4,0.5-0.8,0.5c-3.7,0-7.3,0-11,0c-0.4,0-0.6-0.1-0.8-0.5c-0.8-1.6-1.6-3.3-2.4-4.9
				c-0.1-0.2-0.2-0.5-0.2-0.7c0-4.9,0-9.8,0-14.7C123.3,17.6,123.3,17.5,123.3,17.4z M133.3,21.7L133.3,21.7c0-0.3,0-0.6,0-0.9
				c0-0.8-0.5-1.2-1.1-1.2c-0.6,0-1.1,0.5-1.1,1.2c0,0.6,0,1.2,0,1.8c0,0.2-0.2,0.5-0.4,0.6c-0.5,0.4-0.9,0.3-1.3-0.2
				c-0.3-0.4-0.7-0.7-1-1c-0.6-0.5-1.2-0.6-1.7-0.1c-0.4,0.5-0.4,1.1,0.1,1.6c0.4,0.4,0.9,0.8,1.3,1.3c0.1,0.2,0.2,0.5,0.2,0.7
				c-0.1,0.3-0.1,0.9-0.8,0.8c-0.6-0.1-1.2,0-1.8,0c-0.8,0-1.2,0.5-1.2,1.1s0.5,1.1,1.2,1.1c0.6,0,1.2,0,1.8,0
				c0.2,0,0.5,0.2,0.6,0.4c0.4,0.5,0.3,0.9-0.2,1.3c-0.4,0.3-0.7,0.6-1,1c-0.6,0.6-0.6,1.2-0.1,1.7s1.1,0.4,1.7-0.1
				c0.4-0.4,0.8-0.8,1.2-1.2c0.2-0.1,0.5-0.2,0.7-0.2c0.3,0.1,0.9,0.1,0.8,0.8c-0.1,0.6,0,1.3,0,1.9c0,0.7,0.5,1.2,1.1,1.2
				c0.6,0,1.1-0.5,1.1-1.1s0-1.3,0-1.9c0-0.2,0.2-0.5,0.4-0.6c0.5-0.4,0.9-0.3,1.3,0.2c0.3,0.4,0.7,0.7,1.1,1.1
				c0.5,0.5,1.2,0.5,1.6,0c0.4-0.4,0.4-1.1,0-1.6c-0.4-0.5-0.9-0.9-1.3-1.3c-0.1-0.2-0.2-0.5-0.2-0.7c0.1-0.3,0.1-0.9,0.8-0.8
				c0.6,0.1,1.2,0,1.8,0c0.8,0,1.2-0.5,1.2-1.1s-0.5-1.1-1.2-1.1c-0.6,0-1.2,0-1.8,0c-0.2,0-0.5-0.2-0.6-0.4
				c-0.4-0.5-0.3-0.9,0.2-1.3c0.4-0.3,0.7-0.7,1.1-1.1c0.5-0.5,0.5-1.2,0-1.6s-1-0.4-1.6,0c-0.4,0.4-0.7,0.8-1.1,1.1
				c-0.2,0.2-0.4,0.7-0.9,0.4c-0.5-0.2-0.9-0.4-0.8-1.1C133.3,22.2,133.3,21.9,133.3,21.7z"/>
			<path class="st0" d="M132.2,25.2c1.2-0.1,2.3,1,2.3,2.3c0,1.2-1.1,2.2-2.2,2.3c-1.3,0-2.3-1.1-2.3-2.3
				C129.9,26.2,131,25.1,132.2,25.2z"/>
		</g>
	</g>
</g>
</svg>
