<?xml version="1.0" encoding="utf-8"?>
<!-- Generator: Adobe Illustrator 25.0.1, SVG Export Plug-In . SVG Version: 6.00 Build 0)  -->
<svg version="1.1" id="Layer_1" xmlns="http://www.w3.org/2000/svg" xmlns:xlink="http://www.w3.org/1999/xlink" x="0px" y="0px"
	 viewBox="0 0 353.1 62.5" style="enable-background:new 0 0 353.1 62.5;" xml:space="preserve">
<style type="text/css">
	.st0{fill:#FFFFFF;}
	.st1{fill:#E52033;}
</style>
<g>
	<g>
		<g>
			<rect y="33" class="st0" width="94.9" height="1"/>
			<g>
				<path class="st0" d="M101,33.5c-2.8,1.1-6.4,2.9-8.5,4.8l1.7-4.8l-1.7-4.8C94.6,30.8,98.1,32.5,101,33.5z"/>
			</g>
		</g>
	</g>
	<g>
		<g>
			<rect x="163.5" y="30.8" class="st0" width="183.6" height="1"/>
			<g>
				<path class="st0" d="M353.1,31.2c-2.8,1.1-6.4,2.9-8.5,4.8l1.7-4.8l-1.7-4.8C346.8,28.4,350.3,30.2,353.1,31.2z"/>
			</g>
		</g>
	</g>
	<g>
		<circle class="st1" cx="132.2" cy="31.2" r="31.3"/>
		<g>
			<path class="st0" d="M109.9,13.1c0.3,0,0.7,0,1,0c0,1.3,0,2.5,0,3.8c0.6,0,1.1,0,1.7,0c0,0.4,0,0.7,0,1c-0.5,0-1.1,0-1.7,0
				c0,1.5,0,2.9,0,4.4c0.6,0,1.1,0,1.7,0c0,0.4,0,0.7,0,1.1c-0.6,0-1.1,0-1.7,0c0,1.5,0,2.9,0,4.4c0.6,0,1.1,0,1.7,0
				c0,0.4,0,0.7,0,1c-0.5,0-1.1,0-1.7,0c0,1.5,0,2.9,0,4.4c0.6,0,1.1,0,1.7,0c0,0.4,0,0.7,0,1c-0.6,0-1.1,0-1.7,0c0,1.5,0,2.9,0,4.4
				c0.6,0,1.1,0,1.7,0c0,0.3,0,0.6,0,1c-0.6,0-1.1,0-1.7,0c0,1.5,0,2.9,0,4.4c0.6,0,1.1,0,1.7,0c0,0.4,0,0.7,0,1c-0.5,0-1.1,0-1.7,0
				c0,1.1,0,2.2,0,3.3c1.4,0,2.7,0,4.1,0c0-0.6,0-1.1,0-1.7c0.4,0,0.7,0,1,0c0,0.6,0,1.1,0,1.7c1.6,0,3.1,0,4.7,0c0-0.6,0-1.1,0-1.7
				c0.4,0,0.7,0,1.1,0c0,0.6,0,1.1,0,1.7c1.6,0,3.1,0,4.7,0c0-0.6,0-1.1,0-1.7c0.3,0,0.6,0,1,0c0,0.6,0,1.1,0,1.7c1.6,0,3.1,0,4.7,0
				c0-0.5,0-1.1,0-1.7c0.4,0,0.7,0,1.1,0c0,0.6,0,1.1,0,1.7c1.6,0,3.1,0,4.7,0c0-0.6,0-1.1,0-1.7c0.4,0,0.7,0,1,0c0,0.5,0,1.1,0,1.7
				c1.6,0,3.1,0,4.7,0c0-0.5,0-1.1,0-1.7c0.4,0,0.7,0,1,0c0,0.6,0,1.1,0,1.7c1.6,0,3.1,0,4.7,0c0-0.5,0-1.1,0-1.7c0.4,0,0.7,0,1.1,0
				c0,0.5,0,1.1,0,1.7c1.3,0,2.6,0,3.9,0c0,0.4,0,0.7,0,1.1c-0.2,0-0.4,0-0.6,0c-14.5,0-29,0-43.4,0c-0.2,0-0.4,0-0.6,0
				C109.9,37.3,109.9,25.2,109.9,13.1z"/>
			<path class="st0" d="M144.7,32.3c-5.4,1.6-9.5-2.2-10.5-5.6c-1.1-3.8,0.6-7.9,4.1-9.7c3.5-1.8,7.9-0.8,10.3,2.4
				c2.5,3.3,2.4,8.1-1.2,11.3c0.2,0.3,0.3,0.5,0.5,0.8c1.7,2.7,3.4,5.3,5.2,8c0.7,1.1,0.6,2-0.3,2.9c-0.8,0.8-2,0.8-2.8,0.1
				c-0.3-0.3-0.5-0.6-0.7-0.9c-1.5-2.9-3-5.8-4.4-8.7C144.9,32.6,144.8,32.4,144.7,32.3z M146.2,30.4c3.7-2.6,4-7.2,2-10.1
				c-2-2.9-5.9-4-9.1-2.5c-3.1,1.5-4.8,5-3.9,8.4c0.5,1.7,1.5,3.1,2.9,4.1c2.2,1.5,4.6,1.6,7.1,0.6c0.1,0.2,0.1,0.3,0.2,0.4
				c1.7,3.2,3.3,6.4,5,9.7c0.1,0.2,0.2,0.4,0.4,0.6c0.4,0.4,1,0.5,1.5,0c0.5-0.4,0.5-1,0.2-1.6c-0.5-0.7-0.9-1.4-1.4-2.2
				C149.3,35.4,147.8,32.9,146.2,30.4z"/>
			<path class="st0" d="M135.5,30.2c0.3,0.3,0.5,0.5,0.8,0.8c-0.7,0.3-0.6,0.9-0.4,1.5c0.3,1.1-0.5,2.2-1.5,2.5
				c-1,0.4-2.2-0.1-2.7-1.1c-0.1-0.2-0.1-0.3-0.2-0.5c-1.6,0-3.1,0-4.7,0c-0.1,0-0.2,0.1-0.3,0.2c-0.6,1.3-1.7,1.8-3.1,1.3
				c-0.1,0-0.3,0-0.4,0c-1.8,1.8-3.7,3.6-5.5,5.5c0.3,0.6,0.4,1.2,0.3,1.8c-0.3,1.3-1.7,2-2.9,1.6c-1.2-0.4-1.9-1.7-1.4-2.9
				c0.4-1.2,1.8-1.9,3-1.4c0.3,0.1,0.4,0.1,0.6-0.1c1.7-1.7,3.3-3.3,5-5c0.2-0.2,0.3-0.3,0.1-0.5c-0.5-1.2,0-2.6,1.3-3
				c1.2-0.5,2.5,0.1,3,1.4c0,0.1,0.1,0.2,0.1,0.3c1.5,0,3.1,0,4.6,0c0.1,0,0.2-0.1,0.3-0.2c0.8-1.5,1.6-1.9,3.2-1.4
				c0.1,0,0.3,0,0.4-0.1C135.3,30.6,135.4,30.4,135.5,30.2z M133.7,34.2c0.7,0,1.3-0.5,1.3-1.2c0-0.7-0.5-1.3-1.2-1.3
				c-0.7,0-1.3,0.5-1.3,1.2C132.5,33.7,133,34.2,133.7,34.2z M115.6,42.9c0.7,0,1.3-0.5,1.3-1.3c0-0.7-0.6-1.2-1.2-1.2
				c-0.7,0-1.3,0.6-1.3,1.3C114.4,42.4,114.9,42.9,115.6,42.9z M123.2,32.9c0,0.8,0.5,1.3,1.2,1.3c0.7,0,1.3-0.5,1.3-1.2
				c0-0.7-0.6-1.2-1.3-1.2C123.7,31.7,123.2,32.2,123.2,32.9z"/>
			<path class="st0" d="M141,26.3c-1.1,1.1-2.1,2.1-3.2,3.2c-0.2-0.3-0.4-0.5-0.7-0.8c0.9-0.9,1.9-1.9,2.8-2.8
				c0.2-0.2,0.3-0.4,0.1-0.7c-0.4-0.9-0.2-1.7,0.5-2.4c0.7-0.7,1.5-0.9,2.5-0.6c0.9,0.3,1.4,0.9,1.5,1.9c0.2,1.6-1.5,2.9-3,2.3
				C141.4,26.5,141.2,26.4,141,26.3z M141,24.4c0,0.7,0.5,1.3,1.3,1.3c0.7,0,1.2-0.6,1.2-1.3c0-0.7-0.6-1.2-1.2-1.3
				C141.6,23.2,141,23.7,141,24.4z"/>
		</g>
	</g>
	<g>
		<path class="st0" d="M1.4,12.4h7.7v1.2H2.8v4.1h5.8v1.2H2.8v4.3h6.4v1.2H1.4V12.4z"/>
		<path class="st0" d="M10.1,15.8v-0.2h1.5l2.3,6.3l0.4,1.3h0.2l0.4-1.3l2.3-6.3h1.5v0.2l-3.3,8.6h-1.9L10.1,15.8z"/>
		<path class="st0" d="M23.5,24.6c-1.3,0-2.4-0.4-3-1.1c-0.7-0.7-1-1.8-1-3.3s0.3-2.7,1-3.5c0.7-0.8,1.7-1.2,3-1.2
			c2.2,0,3.4,1.3,3.4,3.9c0,0.5,0,0.9-0.1,1.1H21c0.1,1,0.3,1.8,0.8,2.2c0.5,0.4,1.1,0.7,2.1,0.7c0.4,0,0.9,0,1.3-0.1
			c0.5-0.1,0.9-0.2,1.4-0.3l0.1,1.1c-0.4,0.2-0.9,0.3-1.4,0.4C24.5,24.5,24,24.6,23.5,24.6z M23.4,16.6c-1.6,0-2.4,1-2.5,2.9h4.6
			c0-1.1-0.2-1.8-0.5-2.3C24.6,16.8,24.1,16.6,23.4,16.6z"/>
		<path class="st0" d="M28.8,15.6H30l0.1,1h0.1c0.4-0.2,0.8-0.4,1.2-0.5c0.4-0.2,0.7-0.3,1-0.4c0.3-0.1,0.6-0.2,0.8-0.2
			c0.3,0,0.5-0.1,0.8-0.1c0.7,0,1.3,0.2,1.7,0.6s0.6,1,0.6,1.8v6.5h-1.4v-6.1c0-0.6-0.1-1-0.3-1.3s-0.6-0.4-1.1-0.4
			c-0.4,0-0.9,0.1-1.4,0.3c-0.5,0.2-1.1,0.4-1.7,0.7v6.8H29v-8.7C29,15.6,28.8,15.6,28.8,15.6z"/>
		<path class="st0" d="M42,24.6c-0.8,0-1.5-0.2-1.9-0.6s-0.6-1-0.6-1.9V17h-1.8v-1.3h1.9l0.2-2.2l1.1-0.1v2.3h2.6V17h-2.6v4.9
			c0,0.6,0.1,1,0.4,1.2c0.2,0.3,0.6,0.4,1.1,0.4c0.2,0,0.3,0,0.5,0s0.4-0.1,0.6-0.1v1.1c-0.2,0.1-0.5,0.1-0.8,0.2
			C42.5,24.6,42.3,24.6,42,24.6z"/>
		<path class="st0" d="M47.4,14.1L47.4,14.1l-2.9,1.4h-0.1l-0.2-0.9v-0.1l3.6-2.1h1.1v12.1h-1.4L47.4,14.1L47.4,14.1z"/>
	</g>
	<g>
		<g>
			<path class="st0" d="M219.3,23.8l4-11h2l4,11v0.1H228l-1.2-3.3h-5l-1.2,3.3h-1.3V23.8z M226.4,19.5l-1.4-3.8l-0.7-1.9h-0.1
				l-0.7,1.9l-1.4,3.8H226.4z"/>
			<path class="st0" d="M230.7,12.8h1.2l5.7,7.7l0.9,1.3h0.1v-9.1h1.2v11.1h-1.2l-5.7-7.7l-0.9-1.3l-0.1,0v9h-1.2V12.8z"/>
			<path class="st0" d="M241.2,23.8l4-11h2l4,11v0.1h-1.3l-1.2-3.3h-5l-1.2,3.3h-1.3V23.8z M248.3,19.5l-1.4-3.8l-0.7-1.9h-0.1
				l-0.7,1.9l-1.4,3.8H248.3z"/>
			<path class="st0" d="M252.7,12.8h1.3v10h5.1v1.1h-6.4V12.8z"/>
			<path class="st0" d="M261.8,20.2l-4-7.4h1.4l2.8,5.1l0.4,1h0.1l0.4-1l2.8-5.1h1.4l-4,7.4v3.8h-1.3V20.2z"/>
			<path class="st0" d="M271.1,13.9h-3.6v-1.1h8.5v1.1h-3.6v10h-1.3V13.9z"/>
			<path class="st0" d="M277.6,12.8h1.3v11.1h-1.3V12.8z"/>
			<path class="st0" d="M286,24c-3.4,0-5-1.9-5-5.7c0-1.9,0.4-3.4,1.2-4.3s2.1-1.4,3.8-1.4c0.3,0,0.7,0,1.2,0.1s0.9,0.1,1.3,0.2V14
				c-0.5-0.1-0.9-0.1-1.3-0.2c-0.4,0-0.7-0.1-1-0.1c-1.3,0-2.3,0.4-2.9,1.1s-0.9,1.9-0.9,3.5c0,1.6,0.3,2.7,0.9,3.4s1.5,1.1,2.8,1.1
				c0.2,0,0.3,0,0.6,0c0.2,0,0.4,0,0.7-0.1c0.2,0,0.4-0.1,0.7-0.1c0.2,0,0.4-0.1,0.5-0.1v1.1c-0.4,0.1-0.8,0.1-1.2,0.2
				C286.8,24,286.4,24,286,24z"/>
			<path class="st0" d="M293.2,24.1c-0.2,0-0.5,0-0.8,0c-0.3,0-0.6,0-0.9-0.1c-0.3,0-0.6-0.1-0.9-0.1c-0.3-0.1-0.6-0.1-0.9-0.2v-1.1
				c0.6,0.1,1.2,0.3,1.8,0.4s1.1,0.1,1.6,0.1c0.9,0,1.5-0.2,2-0.5c0.5-0.3,0.7-0.8,0.7-1.4c0-0.3-0.1-0.6-0.2-0.9
				c-0.1-0.2-0.3-0.4-0.5-0.6c-0.2-0.2-0.5-0.3-0.8-0.4c-0.3-0.1-0.7-0.2-1-0.3c-0.6-0.2-1.1-0.3-1.5-0.5s-0.8-0.4-1-0.7
				c-0.3-0.3-0.5-0.6-0.6-0.9s-0.2-0.7-0.2-1.2c0-0.5,0.1-0.9,0.3-1.3c0.2-0.4,0.4-0.7,0.8-1c0.3-0.3,0.7-0.5,1.2-0.6
				c0.5-0.1,1-0.2,1.6-0.2c0.4,0,0.9,0,1.3,0.1c0.5,0.1,1,0.2,1.6,0.3l0,1.1c-0.5-0.1-1-0.2-1.5-0.3c-0.5-0.1-0.9-0.1-1.3-0.1
				c-0.8,0-1.4,0.2-1.9,0.5s-0.7,0.8-0.7,1.4c0,0.3,0,0.5,0.1,0.7c0.1,0.2,0.2,0.4,0.4,0.6s0.5,0.3,0.8,0.5c0.3,0.1,0.7,0.3,1.2,0.4
				c0.5,0.1,0.9,0.3,1.4,0.4c0.4,0.2,0.8,0.4,1.1,0.6c0.3,0.2,0.5,0.5,0.7,0.9s0.2,0.8,0.2,1.3c0,1-0.3,1.7-1,2.3
				C295.5,23.8,294.5,24.1,293.2,24.1z"/>
		</g>
	</g>
</g>
</svg>
