<?xml version="1.0" encoding="utf-8"?>
<!-- Generator: Adobe Illustrator 25.0.1, SVG Export Plug-In . SVG Version: 6.00 Build 0)  -->
<svg version="1.1" id="Layer_1" xmlns="http://www.w3.org/2000/svg" xmlns:xlink="http://www.w3.org/1999/xlink" x="0px" y="0px"
	 viewBox="0 0 353.1 62.5" style="enable-background:new 0 0 353.1 62.5;" xml:space="preserve">
<style type="text/css">
	.st0{fill:#FFFFFF;}
	.st1{fill:#E52033;}
</style>
<g>
	<g>
		<g>
			<rect y="33" class="st0" width="94.9" height="1"/>
			<g>
				<path class="st0" d="M101,33.5c-2.8,1.1-6.4,2.9-8.5,4.8l1.7-4.8l-1.7-4.8C94.6,30.7,98.1,32.5,101,33.5z"/>
			</g>
		</g>
	</g>
	<g>
		<g>
			<rect x="163.5" y="30.8" class="st0" width="183.6" height="1"/>
			<g>
				<path class="st0" d="M353.1,31.2c-2.8,1.1-6.4,2.9-8.5,4.8l1.7-4.8l-1.7-4.8C346.8,28.4,350.3,30.2,353.1,31.2z"/>
			</g>
		</g>
	</g>
	<g>
		<circle class="st1" cx="132.2" cy="31.2" r="31.3"/>
		<g id="Layer_2_1_">
			<g id="layer">
				<path class="st0" d="M132.2,6.2c13.8,0,25,11.2,25,25s-11.2,25-25,25s-25-11.2-25-25S118.4,6.2,132.2,6.2z M128.1,39h-0.3
					c-0.8,0.1-1.5-0.5-1.6-1.3c0-0.1,0-0.2,0-0.2V29c0-0.8,0.6-1.5,1.4-1.5c0,0,0.1,0,0.1,0h9.3c0.8,0,1.5,0.6,1.5,1.4
					c0,0,0,0.1,0,0.1v8.4c0,0.8-0.6,1.5-1.4,1.5c-0.1,0-0.1,0-0.2,0h-0.4c0.1,0.2,0.1,0.5,0.1,0.7c0,3,0,6,0,9
					c0,0.3-0.1,0.6-0.3,0.9c0,0-0.1,0.1-0.1,0.1h10.4c0.1,0,0.2,0,0.3-0.1c1.1-0.9,2.1-1.9,3-2.9c4.7-5.3,6.7-12.5,5.4-19.4
					c-0.7-4.5-2.7-8.7-5.8-12c-5.6-6.2-14.1-8.9-22.2-7.2c-5.1,1-9.8,3.7-13.1,7.7c-4.8,5.4-6.8,12.7-5.4,19.8
					c1,5.5,3.9,10.5,8.3,14c0.1,0.1,0.3,0.1,0.4,0.2h10.7c-0.3-0.4-0.5-0.9-0.4-1.4c0-2.7,0-5.4,0-8C128,39.9,128,39.4,128.1,39z
					 M118.5,50.5c8.2,5.8,19.2,5.8,27.3,0H118.5z"/>
				<path class="st0" d="M119.4,38.4c-0.2,0-0.5,0-0.7,0c-0.7-0.1-1.1-0.6-1.1-1.3c0-2.7,0-5.4,0-8.1c0-0.7,0.5-1.3,1.3-1.3
					c2.3,0,4.5,0,6.8,0c0,0,0,0.1,0,0.1c-0.4,0.4-0.6,0.9-0.5,1.4c0,2.9,0,5.8,0,8.7c0,0.7,1,1.8,1.7,1.8h0.1c0,0.1,0,0.2,0,0.2
					c0,2.9,0,5.7,0,8.6c0,0.2-0.1,0.4-0.3,0.4c-0.2,0-0.3,0.1-0.5,0.1h-5.5c-0.7,0-1.3-0.5-1.4-1.2c0,0,0-0.1,0-0.1
					c0-2.8,0-5.7,0-8.5C119.3,38.8,119.3,38.6,119.4,38.4z"/>
				<path class="st0" d="M137.8,39.5c0.8-0.1,1.5-0.6,1.8-1.4c0-0.1,0.1-0.2,0.1-0.3v-9.1c0-0.5-0.2-0.9-0.6-1.2h0.2
					c2.1,0,4.1,0,6.2,0c0.7,0,1.4,0.6,1.4,1.3c0,0,0,0.1,0,0.1c0,2.7,0,5.4,0,8c0,0.7-0.6,1.4-1.3,1.4c0,0,0,0-0.1,0H145
					c0.2,0.7,0.2,1.4,0.1,2.2c0,2.3,0,4.6,0,6.9c0.1,0.7-0.4,1.4-1.2,1.5c-0.1,0-0.2,0-0.3,0h-5.4c-0.5,0-0.5,0-0.5-0.5
					C137.9,48.4,137.9,39.5,137.8,39.5z"/>
				<path class="st0" d="M132.2,26.7c-2.2,0-4-1.8-4-4s1.8-4,4-4s4,1.8,4,4S134.4,26.7,132.2,26.7z"/>
				<path class="st0" d="M127.6,22.8c0,1.9-1.6,3.5-3.5,3.5c-1.9,0-3.5-1.6-3.5-3.5c0-1.9,1.6-3.5,3.5-3.5c0,0,0,0,0,0
					C126,19.3,127.6,20.9,127.6,22.8z"/>
				<path class="st0" d="M143.9,22.8c0,1.9-1.6,3.5-3.5,3.5c-1.9,0-3.5-1.6-3.5-3.5c0-1.9,1.6-3.5,3.5-3.5c0,0,0,0,0,0
					C142.3,19.3,143.9,20.9,143.9,22.8z"/>
				<path class="st0" d="M133.7,14.7h1.2v1.2H131v-1.1h1.3V12c-0.3,0.2-0.7,0.3-1,0.5c-0.2,0.1-0.3,0.1-0.5,0.1v-1.2
					c0.6-0.1,1.1-0.4,1.5-0.8c0,0,0.1-0.1,0.1-0.1h1.3L133.7,14.7z"/>
				<path class="st0" d="M129.1,14.1h-1.2V13h-1v-1h1v-1.1h1.2V12h1v1h-1V14.1z"/>
			</g>
		</g>
	</g>
	<g>
		<path class="st0" d="M199.6,12.3h1.4v11.8h-1.4V12.3z"/>
		<path class="st0" d="M203.9,12.4c1-0.2,2-0.2,3-0.2c1.9,0,3.2,0.3,4.1,1c0.9,0.7,1.3,1.7,1.3,3.1s-0.4,2.5-1.3,3.1
			c-0.9,0.7-2.2,1-4,1c-0.2,0-0.5,0-0.8,0s-0.5,0-0.9,0v3.9h-1.4L203.9,12.4L203.9,12.4z M207.1,19.2c0.7,0,1.2-0.1,1.7-0.2
			s0.8-0.3,1.1-0.5s0.5-0.5,0.6-0.9s0.2-0.8,0.2-1.4c0-0.5-0.1-1-0.2-1.3c-0.1-0.4-0.4-0.7-0.6-0.9c-0.3-0.2-0.7-0.4-1.1-0.5
			c-0.5-0.1-1-0.2-1.7-0.2c-0.3,0-0.6,0-0.9,0s-0.6,0.1-0.9,0.1V19c0.1,0,0.2,0,0.3,0.1c0.1,0,0.3,0,0.5,0s0.3,0,0.5,0
			C206.8,19.2,207,19.2,207.1,19.2z"/>
		<path class="st0" d="M216.6,18.1l-4.1-5.7h1.6l3.1,4.4l0.2,0.4h0.1l0.2-0.4l3.2-4.4h1.6l-4.2,5.8l4.4,6h-1.6l-3.4-4.8l-0.2-0.4
			h-0.1l-0.2,0.4l-3.4,4.8h-1.6L216.6,18.1z"/>
		<path class="st0" d="M226.3,14L226.3,14l-2.8,1.4h-0.1l-0.2-0.8v-0.1l3.5-2.1h1.1v11.8h-1.4V14H226.3z"/>
		<path class="st0" d="M234.6,24.3c-1.5,0-2.6-0.5-3.3-1.5c-0.8-1-1.1-2.5-1.1-4.6c0-2,0.4-3.5,1.1-4.6s1.9-1.5,3.3-1.5
			c1.4,0,2.5,0.5,3.3,1.5s1.1,2.5,1.1,4.6c0,2-0.4,3.5-1.1,4.6C237.2,23.8,236.1,24.3,234.6,24.3z M234.6,23.1c1,0,1.8-0.4,2.2-1.2
			c0.5-0.8,0.7-2,0.7-3.7s-0.2-2.9-0.7-3.7s-1.2-1.2-2.2-1.2s-1.8,0.4-2.3,1.2s-0.8,2-0.8,3.7c0,1.7,0.2,2.9,0.7,3.7
			C232.8,22.7,233.6,23.1,234.6,23.1z"/>
		<path class="st0" d="M241.8,24.2c-0.3,0-0.5-0.1-0.7-0.2s-0.2-0.4-0.2-0.7c0-0.3,0.1-0.5,0.2-0.7c0.2-0.1,0.4-0.2,0.7-0.2
			s0.5,0.1,0.7,0.2s0.2,0.4,0.2,0.6s-0.1,0.5-0.2,0.7C242.3,24.2,242.1,24.2,241.8,24.2z"/>
		<path class="st0" d="M249.9,24.3c-3.6,0-5.4-2-5.4-6c0-2.1,0.4-3.6,1.3-4.6c0.9-1,2.2-1.5,4-1.5c0.4,0,0.8,0,1.2,0.1
			c0.5,0,0.9,0.1,1.4,0.2v1.2c-0.5-0.1-1-0.1-1.4-0.2c-0.4,0-0.8-0.1-1.1-0.1c-1.4,0-2.4,0.4-3.1,1.2s-1,2-1,3.7s0.3,2.9,1,3.7
			c0.6,0.8,1.6,1.2,3,1.2c0.2,0,0.4,0,0.6,0c0.2,0,0.5,0,0.7-0.1c0.2,0,0.5-0.1,0.7-0.1s0.4-0.1,0.6-0.1V24
			c-0.4,0.1-0.8,0.2-1.3,0.2S250.3,24.3,249.9,24.3z"/>
		<path class="st0" d="M253.2,24.1l4.3-11.7h2.2l4.3,11.7v0.1h-1.4l-1.3-3.5H256l-1.3,3.5h-1.4v-0.1H253.2z M260.8,19.4l-1.5-4
			l-0.7-2.1h-0.1l-0.7,2.1l-1.5,4H260.8z"/>
		<path class="st0" d="M265.4,12.3h2l3,7.2l1,2.6h0.1l1-2.6l3-7.2h2v11.8h-1.3v-10h-0.1l-1.3,3.3l-2.6,6.2h-1.3l-2.6-6.2l-1.3-3.3
			h-0.1v10h-1.3V12.3H265.4z"/>
		<path class="st0" d="M280.8,24.2c-0.3,0-0.5-0.1-0.7-0.2s-0.2-0.4-0.2-0.7c0-0.3,0.1-0.5,0.2-0.7c0.2-0.1,0.4-0.2,0.7-0.2
			s0.5,0.1,0.7,0.2s0.2,0.4,0.2,0.6s-0.1,0.5-0.2,0.7C281.3,24.2,281.1,24.2,280.8,24.2z"/>
		<path class="st0" d="M284.1,12.3h1.4V23h5.4v1.2h-6.8V12.3z"/>
		<path class="st0" d="M292.6,12.3h7.5v1.2H294v4.1h5.7v1.2H294V23h6.2v1.2h-7.7V12.3H292.6z"/>
		<path class="st0" d="M301.1,12.3h1.5l3,8.1l0.8,2.3h0.1l0.8-2.3l3-8.1h1.5l-4.3,11.8h-1.9L301.1,12.3z"/>
		<path class="st0" d="M315.4,14L315.4,14l-2.8,1.4h-0.1l-0.2-0.8v-0.1l3.5-2.1h1.1v11.8h-1.4V14H315.4z"/>
	</g>
	<g>
		<g>
			<path class="st0" d="M1.4,12.4h7.5v1.2H2.8v4.1h5.7v1.2H2.8v4.2H9v1.2H1.4V12.4z"/>
			<path class="st0" d="M10,15.8v-0.2h1.5l2.2,6.2l0.4,1.3h0.2l0.4-1.3l2.3-6.2h1.4v0.2L15,24.2h-1.8L10,15.8z"/>
			<path class="st0" d="M23.1,24.4c-1.3,0-2.3-0.4-3-1.1s-1-1.8-1-3.3s0.3-2.6,1-3.4c0.7-0.8,1.6-1.2,2.9-1.2c2.2,0,3.3,1.3,3.3,3.9
				c0,0.5,0,0.9-0.1,1.1h-5.7c0.1,1,0.3,1.7,0.7,2.2c0.4,0.4,1.1,0.7,2,0.7c0.4,0,0.8,0,1.3-0.1s0.9-0.2,1.4-0.3L26,24
				c-0.4,0.2-0.9,0.3-1.4,0.4C24.1,24.3,23.6,24.4,23.1,24.4z M23,16.5c-1.5,0-2.4,1-2.5,2.9H25c0-1-0.2-1.8-0.5-2.2
				C24.2,16.8,23.7,16.5,23,16.5z"/>
			<path class="st0" d="M28.3,15.6h1.2l0.1,1h0.1c0.4-0.2,0.8-0.4,1.2-0.5c0.3-0.1,0.7-0.3,1-0.4c0.3-0.1,0.6-0.2,0.8-0.2
				c0.3,0,0.5-0.1,0.8-0.1c0.7,0,1.3,0.2,1.7,0.6s0.6,1,0.6,1.8v6.4h-1.4v-6c0-0.6-0.1-1-0.3-1.3s-0.6-0.4-1.1-0.4
				c-0.4,0-0.9,0.1-1.4,0.3c-0.5,0.2-1.1,0.4-1.7,0.7v6.7h-1.4v-8.6H28.3z"/>
			<path class="st0" d="M41.3,24.4c-0.8,0-1.4-0.2-1.9-0.6c-0.4-0.4-0.6-1-0.6-1.8v-5.1H37v-1.2h1.9l0.2-2.2l1.1-0.1v2.3h2.6v1.2
				h-2.5v4.8c0,0.5,0.1,0.9,0.4,1.2c0.2,0.3,0.6,0.4,1.1,0.4c0.2,0,0.3,0,0.5,0s0.4-0.1,0.6-0.1v1.1c-0.2,0.1-0.5,0.1-0.8,0.2
				S41.6,24.4,41.3,24.4z"/>
			<path class="st0" d="M43.9,22.7c0-0.5,0.1-1,0.2-1.4c0.1-0.4,0.4-0.8,0.6-1.1c0.3-0.3,0.6-0.7,1.1-1s0.9-0.6,1.5-0.9
				c0.8-0.5,1.5-0.9,1.8-1.3c0.4-0.4,0.6-0.9,0.6-1.4c0-1.3-0.8-2-2.4-2c-0.4,0-0.9,0-1.4,0.1s-1,0.2-1.5,0.3l-0.2-1.2
				c0.6-0.1,1.2-0.3,1.7-0.3c0.5-0.1,1-0.1,1.5-0.1c2.4,0,3.6,1,3.6,3.1c0,0.4-0.1,0.8-0.2,1.1c-0.1,0.3-0.3,0.7-0.5,0.9
				c-0.2,0.3-0.5,0.6-0.9,0.8c-0.4,0.3-0.8,0.5-1.3,0.8c-1,0.6-1.7,1.1-2.1,1.6c-0.5,0.5-0.7,1-0.7,1.6V23H51v1.2h-7.2v-1.5H43.9z"
				/>
		</g>
	</g>
</g>
</svg>
