<?xml version="1.0" encoding="utf-8"?>
<!-- Generator: Adobe Illustrator 25.0.1, SVG Export Plug-In . SVG Version: 6.00 Build 0)  -->
<svg version="1.1" id="Layer_1" xmlns="http://www.w3.org/2000/svg" xmlns:xlink="http://www.w3.org/1999/xlink" x="0px" y="0px"
	 viewBox="0 0 353.1 62.5" style="enable-background:new 0 0 353.1 62.5;" xml:space="preserve">
<style type="text/css">
	.st0{fill:#FFFFFF;}
	.st1{fill:#E52033;}
</style>
<g>
	<g>
		<g>
			<rect y="33" class="st0" width="94.9" height="1"/>
			<g>
				<path class="st0" d="M101,33.5c-2.8,1.1-6.4,2.9-8.5,4.8l1.7-4.8l-1.7-4.8C94.6,30.7,98.1,32.5,101,33.5z"/>
			</g>
		</g>
	</g>
	<g>
		<g>
			<rect x="163.5" y="30.8" class="st0" width="183.6" height="1"/>
			<g>
				<path class="st0" d="M353.1,31.2c-2.8,1.1-6.4,2.9-8.5,4.8l1.7-4.8l-1.7-4.8C346.8,28.4,350.3,30.2,353.1,31.2z"/>
			</g>
		</g>
	</g>
	<g>
		<g>
			<path class="st0" d="M1.4,12.4h7.5v1.2H2.8v4.1h5.7v1.2H2.8v4.2H9v1.2H1.4V12.4z"/>
			<path class="st0" d="M10,15.8v-0.2h1.5l2.2,6.2l0.4,1.3h0.2l0.4-1.3l2.3-6.2h1.4v0.2L15,24.2h-1.8L10,15.8z"/>
			<path class="st0" d="M23.1,24.4c-1.3,0-2.3-0.4-3-1.1s-1-1.8-1-3.3s0.3-2.6,1-3.4c0.7-0.8,1.6-1.2,2.9-1.2c2.2,0,3.3,1.3,3.3,3.9
				c0,0.5,0,0.9-0.1,1.1h-5.7c0.1,1,0.3,1.7,0.7,2.2c0.4,0.4,1.1,0.7,2,0.7c0.4,0,0.8,0,1.3-0.1s0.9-0.2,1.4-0.3L26,24
				c-0.4,0.2-0.9,0.3-1.4,0.4C24.1,24.3,23.6,24.4,23.1,24.4z M23,16.5c-1.5,0-2.4,1-2.5,2.9H25c0-1-0.2-1.8-0.5-2.2
				C24.2,16.8,23.7,16.5,23,16.5z"/>
			<path class="st0" d="M28.3,15.6h1.2l0.1,1h0.1c0.4-0.2,0.8-0.4,1.2-0.5c0.3-0.1,0.7-0.3,1-0.4c0.3-0.1,0.6-0.2,0.8-0.2
				c0.3,0,0.5-0.1,0.8-0.1c0.7,0,1.3,0.2,1.7,0.6s0.6,1,0.6,1.8v6.4h-1.4v-6c0-0.6-0.1-1-0.3-1.3s-0.6-0.4-1.1-0.4
				c-0.4,0-0.9,0.1-1.4,0.3c-0.5,0.2-1.1,0.4-1.7,0.7v6.7h-1.4v-8.6H28.3z"/>
			<path class="st0" d="M41.3,24.4c-0.8,0-1.4-0.2-1.9-0.6c-0.4-0.4-0.6-1-0.6-1.8v-5.1H37v-1.2h1.9l0.2-2.2l1.1-0.1v2.3h2.6v1.2
				h-2.5v4.8c0,0.5,0.1,0.9,0.4,1.2c0.2,0.3,0.6,0.4,1.1,0.4c0.2,0,0.3,0,0.5,0s0.4-0.1,0.6-0.1v1.1c-0.2,0.1-0.5,0.1-0.8,0.2
				S41.6,24.4,41.3,24.4z"/>
			<path class="st0" d="M43.9,22.7c0-0.5,0.1-1,0.2-1.4c0.1-0.4,0.4-0.8,0.6-1.1c0.3-0.3,0.6-0.7,1.1-1s0.9-0.6,1.5-0.9
				c0.8-0.5,1.5-0.9,1.8-1.3c0.4-0.4,0.6-0.9,0.6-1.4c0-1.3-0.8-2-2.4-2c-0.4,0-0.9,0-1.4,0.1s-1,0.2-1.5,0.3l-0.2-1.2
				c0.6-0.1,1.2-0.3,1.7-0.3c0.5-0.1,1-0.1,1.5-0.1c2.4,0,3.6,1,3.6,3.1c0,0.4-0.1,0.8-0.2,1.1c-0.1,0.3-0.3,0.7-0.5,0.9
				c-0.2,0.3-0.5,0.6-0.9,0.8c-0.4,0.3-0.8,0.5-1.3,0.8c-1,0.6-1.7,1.1-2.1,1.6c-0.5,0.5-0.7,1-0.7,1.6V23H51v1.2h-7.2v-1.5H43.9z"
				/>
		</g>
	</g>
	<g>
		<g>
			<g>
				<circle class="st1" cx="132.2" cy="31.2" r="31.3"/>
			</g>
		</g>
		<g id="Layer_2_2_">
			<g id="layer_1_">
				<path class="st0" d="M132,19.1h1.1c1.5,0,2.5,1,2.5,2.5c0,7.5,0,15,0,22.5c0,2.3,0,4.7,0,7c0,1.5-1,2.5-2.5,2.5
					c-5,0-10.1,0-15.1,0c-1.5,0-2.5-1-2.5-2.5c0-2.9,0-5.8,0-8.7c0-5.8,0-11.7,0-17.5c0-1.1,0-2.2,0-3.3c0-1.3,1-2.4,2.3-2.5
					c0.1,0,0.1,0,0.2,0c0.2,0,0.5,0,0.7,0s0.2,0,0.2-0.2c0-3.1,0-6.1,0-9.2c0-0.1,0.1-0.2,0.2-0.3c0.3-0.2,0.7-0.3,1-0.5
					c0.2-0.1,0.4-0.1,0.5,0c0.6,0.3,1.2,0.7,1.9,1c0.1,0.1,0.3,0.1,0.4,0c0.6-0.2,1.3-0.4,1.9-0.6c0.1,0,0.2,0,0.4,0
					c0.4,0.2,0.9,0.5,1.3,0.7c0.1,0,0.2,0.1,0.3,0c0.9-0.3,1.7-0.5,2.6-0.8c0.1,0,0.2,0,0.3,0c0.7,0.4,1.4,0.7,2.2,1.1
					c0.2,0.1,0.3,0.2,0.2,0.4c0,2.6,0,5.3,0,7.9L132,19.1z M130.9,21.8v-7.5c0-1,0-2,0-2.9c0-0.1,0-0.2-0.1-0.3
					c-0.4-0.2-0.9-0.5-1.4-0.7h-0.1c-0.3,0.1-0.6,0.1-0.9,0.2c-0.6,0.2-1.2,0.4-1.8,0.6c-0.1,0-0.3,0-0.4,0
					c-0.4-0.2-0.8-0.4-1.2-0.6c-0.1-0.1-0.3-0.1-0.4,0c-0.6,0.2-1.2,0.4-1.9,0.6c-0.1,0-0.3,0-0.4,0c-0.6-0.3-1.3-0.7-1.9-1
					c-0.3-0.2-0.4-0.1-0.4,0.3c0,2.6,0,5.2,0,7.7c0,1.1,0,2.3,0,3.4c0,0.1,0,0.2,0,0.3h-1.1v0.7H132v-0.7L130.9,21.8z M118,25.4v4.8
					h15.2v-4.8C133.2,25.4,118,25.4,118,25.4z M121.8,42.8H118v3.7h3.7v-3.7H121.8z M118,41.5h3.7v-3.7H118V41.5z M118,36.4h3.7
					v-3.7H118V36.4z M118,47.8v3.7h3.7v-3.7H118z M133.1,32.7h-3.7v3.7h3.7V32.7z M123.7,36.4h3.7v-3.7h-3.7V36.4z M127.4,47.8h-3.7
					v3.7h3.7V47.8z M129.4,47.8v3.7h3.7v-3.7H129.4z M129.4,41.4h3.7v-3.7h-3.7V41.4z M123.7,37.7v3.7h3.7v-3.7H123.7z M123.7,42.8
					v3.7h3.7v-3.7H123.7z M133.1,46.5v-3.7h-3.7v3.7H133.1z"/>
				<path class="st0" d="M148.8,32.2c0,0.1,0.1,0.2,0.1,0.3c0,4.7,0,9.3,0,14c0,0.5-0.4,1-0.9,1h-0.1c-3.2,0-6.4,0-9.5,0H138v1.4
					h-1.8V26.4h1.8v1.4c0.1,0,0.2,0,0.3,0h7.2c0.8,0,1.6,0,2.5,0c0.6,0,0.9,0.3,0.9,0.9s0,1.3,0,1.9c0,0.1,0,0.2-0.1,0.2
					c-0.2-0.2-0.4-0.4-0.6-0.6c0-0.5,0-1,0-1.5c0-0.4,0-0.4-0.4-0.4h-7.1c-0.1,0-0.2,0-0.3,0v18.4c0.1,0,0.2,0,0.3,0h7.1
					c0.4,0,0.4,0,0.4-0.4c0-4.4,0-8.8,0-13.3c0-0.1,0-0.2,0-0.3L148.8,32.2z M138,28.4v18.4h0.5V28.4H138z"/>
				<path class="st0" d="M148.8,32.2l-0.6,0.6c0-0.1,0-0.2,0-0.3c0-0.6,0-1.2,0-1.8c0-0.2,0-0.3,0-0.5c0.2,0.2,0.4,0.4,0.6,0.6
					C148.8,31.3,148.8,31.8,148.8,32.2z"/>
				<path class="st0" d="M129.9,19.7v0.7h-9.1v-0.7H129.9z"/>
				<path class="st0" d="M129.9,16.3V17h-9.1v-0.7H129.9z"/>
				<path class="st0" d="M120.8,18.7V18h9.1c0,0.1,0,0.2,0,0.3s0,0.2,0,0.4C129.9,18.7,120.8,18.7,120.8,18.7z"/>
				<path class="st0" d="M120.8,13.7V13h4.8c0.1,0.6-0.1,0.7-0.6,0.7c-1.3,0-2.6,0-3.9,0H120.8z"/>
				<path class="st0" d="M123.8,15.3c-0.1,0-0.1,0-0.2,0c-0.9,0-1.7,0-2.6,0h-0.1v-0.7c0.1,0,0.2,0,0.3,0c1,0,2.1,0,3.1,0
					c0.1,0,0.2,0,0.2,0.1L123.8,15.3z"/>
				<path class="st0" d="M123.8,15.3l0.6-0.6l1.2-0.1v0.8c-0.4,0-0.9,0-1.3,0C124.1,15.4,123.9,15.3,123.8,15.3z"/>
				<path class="st0" d="M126.9,28.9l-0.6-0.4l0.7-0.6l-0.9-0.2l0.2-0.7l0.8,0.4c0-0.3-0.1-0.5-0.1-0.8h0.7l-0.1,0.8l0.8-0.4
					l0.2,0.7l-0.8,0.2c0.2,0.2,0.4,0.4,0.6,0.6l-0.6,0.4l-0.4-0.8C127.2,28.4,127,28.7,126.9,28.9z"/>
				<path class="st0" d="M123.4,27.4l-0.1-0.8h0.7l-0.1,0.8l0.4-0.2c0.3-0.1,0.4-0.1,0.5,0.2c0,0.1,0.1,0.2,0.1,0.3l-0.8,0.1
					l0.6,0.6l-0.6,0.4l-0.4-0.7l-0.4,0.7l-0.6-0.4l0.6-0.6l-0.9-0.2c0.1-0.2,0.1-0.4,0.2-0.7L123.4,27.4z"/>
				<path class="st0" d="M120.4,27.4l0.8-0.4l0.2,0.7l-0.9,0.2l0.6,0.6l-0.6,0.4l-0.4-0.8l-0.4,0.8l-0.6-0.5l0.7-0.6l-0.9-0.2
					l0.2-0.7l0.8,0.4l-0.1-0.8h0.7L120.4,27.4z"/>
				<path class="st0" d="M131.2,28.5l-0.3-0.3c-0.1,0.2-0.3,0.5-0.4,0.7l-0.6-0.4l0.6-0.5v-0.1l-0.8-0.1l0.2-0.7l0.8,0.4l-0.1-0.8
					h0.7l-0.1,0.8l0.8-0.4c0.3,0.5,0.3,0.7-0.6,0.8l0.2,0.2L131.2,28.5z"/>
				<path class="st0" d="M131.2,28.5l0.4-0.4l0.4,0.4l-0.6,0.5L131.2,28.5z"/>
				<path class="st0" d="M143.4,46.5h-1.1c-0.1,0-0.1,0-0.2,0c0-0.1,0-0.2,0-0.3c0-2,0-4,0-6c0-1.1,0-2.1,0-3.2
					c0-0.2,0.1-0.3,0.3-0.3c0.3,0,0.6,0,1,0V46.5z"/>
				<path class="st0" d="M146.1,32.6c-0.9,0-1.6-0.7-1.6-1.6l0,0c0-0.9,0.7-1.6,1.6-1.6l0,0c0.9,0,1.6,0.7,1.6,1.6
					C147.7,31.8,147,32.5,146.1,32.6z"/>
				<path class="st0" d="M147.5,32.4c0.4,0.7,0.3,1.6-0.4,2.2c-0.6,0.5-1.5,0.4-2.1-0.1s-0.7-1.4-0.3-2.1
					C145.7,33.1,146.6,33.1,147.5,32.4z"/>
				<path class="st0" d="M145.9,46.5h-0.5v-9.8c0.5-0.1,0.5-0.1,0.5,0.4V46.5z"/>
				<path class="st0" d="M146.6,36.7h0.5v9.8h-0.5V36.7z"/>
				<path class="st0" d="M143.4,32.7V36h-1.3v-3.2L143.4,32.7L143.4,32.7z"/>
			</g>
		</g>
	</g>
	<g>
		<path class="st0" d="M215.5,12.8c1-0.1,1.9-0.2,2.8-0.2c1.8,0,3,0.3,3.8,0.9c0.8,0.6,1.2,1.6,1.2,2.9c0,1.3-0.4,2.3-1.2,2.9
			c-0.8,0.6-2.1,0.9-3.8,0.9c-0.2,0-0.5,0-0.7,0c-0.2,0-0.5,0-0.8,0v3.6h-1.3V12.8z M218.6,19.1c0.6,0,1.1,0,1.6-0.1
			c0.4-0.1,0.8-0.3,1.1-0.5c0.3-0.2,0.5-0.5,0.6-0.9s0.2-0.8,0.2-1.3c0-0.5-0.1-0.9-0.2-1.2c-0.1-0.3-0.3-0.6-0.6-0.8
			c-0.3-0.2-0.6-0.4-1.1-0.5s-1-0.2-1.6-0.2c-0.3,0-0.6,0-0.9,0c-0.3,0-0.6,0.1-0.8,0.1V19c0.1,0,0.2,0,0.3,0.1c0.1,0,0.3,0,0.4,0
			c0.2,0,0.3,0,0.5,0C218.3,19.1,218.4,19.1,218.6,19.1z"/>
		<path class="st0" d="M229.5,23.9c-1.5,0-2.7-0.5-3.6-1.4c-0.8-1-1.3-2.4-1.3-4.3c0-1.9,0.4-3.3,1.3-4.3c0.8-1,2-1.4,3.6-1.4
			c1.6,0,2.8,0.5,3.6,1.4c0.8,1,1.3,2.4,1.3,4.3c0,1.9-0.4,3.3-1.3,4.2S231,23.9,229.5,23.9z M229.5,22.8c1.2,0,2-0.4,2.6-1.1
			s0.9-1.9,0.9-3.4c0-3.1-1.2-4.6-3.5-4.6c-1.2,0-2,0.4-2.6,1.1s-0.9,1.9-0.9,3.5c0,1.6,0.3,2.7,0.9,3.4
			C227.4,22.4,228.3,22.8,229.5,22.8z"/>
		<path class="st0" d="M239.2,23.9c-0.2,0-0.5,0-0.8,0s-0.6,0-0.9-0.1c-0.3,0-0.6-0.1-0.9-0.1c-0.3-0.1-0.6-0.1-0.9-0.2v-1.1
			c0.6,0.1,1.2,0.3,1.8,0.4s1.1,0.1,1.6,0.1c0.9,0,1.5-0.2,2-0.5c0.5-0.3,0.7-0.8,0.7-1.4c0-0.3-0.1-0.6-0.2-0.9
			c-0.1-0.2-0.3-0.4-0.5-0.6c-0.2-0.2-0.5-0.3-0.8-0.4c-0.3-0.1-0.7-0.2-1-0.3c-0.6-0.2-1.1-0.3-1.5-0.5s-0.8-0.4-1-0.7
			c-0.3-0.3-0.5-0.6-0.6-0.9s-0.2-0.7-0.2-1.2c0-0.5,0.1-0.9,0.3-1.3c0.2-0.4,0.4-0.7,0.8-1c0.3-0.3,0.7-0.5,1.2-0.6
			c0.5-0.1,1-0.2,1.6-0.2c0.4,0,0.9,0,1.3,0.1c0.5,0.1,1,0.2,1.6,0.3l0,1.1c-0.5-0.1-1-0.2-1.5-0.3c-0.5-0.1-0.9-0.1-1.3-0.1
			c-0.8,0-1.4,0.2-1.9,0.5s-0.7,0.8-0.7,1.4c0,0.3,0,0.5,0.1,0.7c0.1,0.2,0.2,0.4,0.4,0.6s0.5,0.3,0.8,0.5c0.3,0.1,0.7,0.3,1.2,0.4
			c0.5,0.1,0.9,0.3,1.4,0.4c0.4,0.2,0.8,0.4,1.1,0.6c0.3,0.2,0.5,0.5,0.7,0.9s0.2,0.8,0.2,1.3c0,1-0.3,1.7-1,2.3
			C241.5,23.7,240.5,23.9,239.2,23.9z"/>
		<path class="st0" d="M245.6,23.8c-0.3,0-0.5-0.1-0.6-0.2s-0.2-0.3-0.2-0.6c0-0.3,0.1-0.5,0.2-0.6s0.4-0.2,0.6-0.2
			c0.3,0,0.5,0.1,0.6,0.2c0.2,0.1,0.2,0.3,0.2,0.6s-0.1,0.5-0.2,0.6S245.8,23.8,245.6,23.8z"/>
		<path class="st0" d="M252.8,23.9c-3.4,0-5-1.9-5-5.7c0-1.9,0.4-3.4,1.2-4.3s2.1-1.4,3.8-1.4c0.3,0,0.7,0,1.2,0.1s0.9,0.1,1.3,0.2
			v1.1c-0.5-0.1-0.9-0.1-1.3-0.2c-0.4,0-0.7-0.1-1-0.1c-1.3,0-2.3,0.4-2.9,1.1s-0.9,1.9-0.9,3.5c0,1.6,0.3,2.7,0.9,3.4
			s1.5,1.1,2.8,1.1c0.2,0,0.3,0,0.6,0c0.2,0,0.4,0,0.7-0.1c0.2,0,0.4-0.1,0.7-0.1c0.2,0,0.4-0.1,0.5-0.1v1.1
			c-0.4,0.1-0.8,0.1-1.2,0.2S253.2,23.9,252.8,23.9z"/>
		<path class="st0" d="M256,23.7l4-11h2l4,11v0.1h-1.3l-1.2-3.3h-5l-1.2,3.3H256V23.7z M263.1,19.4l-1.4-3.8l-0.7-1.9h-0.1l-0.7,1.9
			l-1.4,3.8H263.1z"/>
		<path class="st0" d="M270.2,23.9c-0.2,0-0.5,0-0.8,0s-0.6,0-0.9-0.1c-0.3,0-0.6-0.1-0.9-0.1c-0.3-0.1-0.6-0.1-0.9-0.2v-1.1
			c0.6,0.1,1.2,0.3,1.8,0.4s1.1,0.1,1.6,0.1c0.9,0,1.5-0.2,2-0.5c0.5-0.3,0.7-0.8,0.7-1.4c0-0.3-0.1-0.6-0.2-0.9
			c-0.1-0.2-0.3-0.4-0.5-0.6c-0.2-0.2-0.5-0.3-0.8-0.4c-0.3-0.1-0.7-0.2-1-0.3c-0.6-0.2-1.1-0.3-1.5-0.5s-0.8-0.4-1-0.7
			c-0.3-0.3-0.5-0.6-0.6-0.9s-0.2-0.7-0.2-1.2c0-0.5,0.1-0.9,0.3-1.3c0.2-0.4,0.4-0.7,0.8-1c0.3-0.3,0.7-0.5,1.2-0.6
			c0.5-0.1,1-0.2,1.6-0.2c0.4,0,0.9,0,1.3,0.1c0.5,0.1,1,0.2,1.6,0.3l0,1.1c-0.5-0.1-1-0.2-1.5-0.3c-0.5-0.1-0.9-0.1-1.3-0.1
			c-0.8,0-1.4,0.2-1.9,0.5s-0.7,0.8-0.7,1.4c0,0.3,0,0.5,0.1,0.7c0.1,0.2,0.2,0.4,0.4,0.6s0.5,0.3,0.8,0.5c0.3,0.1,0.7,0.3,1.2,0.4
			c0.5,0.1,0.9,0.3,1.4,0.4c0.4,0.2,0.8,0.4,1.1,0.6c0.3,0.2,0.5,0.5,0.7,0.9s0.2,0.8,0.2,1.3c0,1-0.3,1.7-1,2.3
			C272.5,23.7,271.5,23.9,270.2,23.9z"/>
		<path class="st0" d="M276.1,12.7h1.3v4.9h6.2v-4.9h1.3v11.1h-1.3v-5.1h-6.2v5.1h-1.3V12.7z"/>
		<path class="st0" d="M291.3,23.9c-1.4,0-2.4-0.5-3.1-1.4c-0.7-1-1.1-2.4-1.1-4.3c0-1.9,0.4-3.3,1.1-4.3s1.7-1.4,3.1-1.4
			c1.3,0,2.4,0.5,3.1,1.4s1.1,2.4,1.1,4.3c0,1.9-0.4,3.3-1.1,4.3C293.6,23.5,292.6,23.9,291.3,23.9z M291.3,22.8
			c0.9,0,1.6-0.4,2.1-1.1c0.5-0.7,0.7-1.9,0.7-3.5c0-1.6-0.2-2.7-0.7-3.5c-0.5-0.7-1.2-1.1-2.1-1.1c-1,0-1.7,0.4-2.1,1.1
			c-0.5,0.7-0.7,1.9-0.7,3.5c0,1.6,0.2,2.7,0.7,3.5C289.6,22.4,290.3,22.8,291.3,22.8z"/>
		<path class="st0" d="M299.5,14.2L299.5,14.2l-2.6,1.3h-0.1l-0.2-0.8v-0.1l3.3-1.9h1v11.1h-1.3V14.2z"/>
	</g>
</g>
</svg>
