<?xml version="1.0" encoding="utf-8"?>
<!-- Generator: Adobe Illustrator 25.0.1, SVG Export Plug-In . SVG Version: 6.00 Build 0)  -->
<svg version="1.1" id="Layer_1" xmlns="http://www.w3.org/2000/svg" xmlns:xlink="http://www.w3.org/1999/xlink" x="0px" y="0px"
	 viewBox="0 0 353.1 62.5" style="enable-background:new 0 0 353.1 62.5;" xml:space="preserve">
<style type="text/css">
	.st0{fill:#FFFFFF;}
	.st1{fill:#E52033;}
</style>
<g>
	<g>
		<g>
			<rect y="33" class="st0" width="94.9" height="1"/>
			<g>
				<path class="st0" d="M101,33.5c-2.8,1.1-6.4,2.9-8.5,4.8l1.7-4.8l-1.7-4.8C94.6,30.8,98.1,32.5,101,33.5z"/>
			</g>
		</g>
	</g>
	<g>
		<g>
			<rect x="163.5" y="30.8" class="st0" width="183.6" height="1"/>
			<g>
				<path class="st0" d="M353.1,31.2c-2.8,1.1-6.4,2.9-8.5,4.8l1.7-4.8l-1.7-4.8C346.8,28.4,350.3,30.2,353.1,31.2z"/>
			</g>
		</g>
	</g>
	<g>
		<circle class="st1" cx="132.2" cy="31.2" r="31.3"/>
		<path class="st0" d="M149.2,19.3c-0.1,0.4-0.1,0.9-0.3,1.3c-0.7,2.6-2.9,4.5-5.5,4.8c-2.5,0.3-4.5-0.6-6-2.6c0,0-0.1-0.1-0.1-0.1
			c0,0,0,0,0,0c-5,2.5-10.1,5.1-15.2,7.6c0.4,1.4,0.4,2.7,0,4.1c5.1,2.5,10.1,5.1,15.1,7.6c0.5-0.5,0.9-0.9,1.3-1.3
			c3.8-3.1,9.7-0.9,10.6,3.9c0,0.2,0.1,0.5,0.1,0.7c0,0.3,0,0.7,0,1c0,0.1,0,0.1,0,0.2c-0.3,2.7-2.2,5-4.8,5.7
			c-0.4,0.1-0.8,0.2-1.2,0.2c-0.3,0-0.6,0-1,0c-0.4-0.1-0.9-0.1-1.3-0.3c-2.6-0.7-4.5-3-4.8-5.7c-0.1-0.9,0-1.2,0.3-2.6
			c-5-2.5-10.1-5.1-15.1-7.6c-2.4,3.4-7.1,3.7-10,0.9c-2.6-2.6-2.6-6.9,0-9.4c2.9-2.8,7.6-2.5,10,0.9c5-2.5,10.1-5.1,15.2-7.6
			c-0.2-0.7-0.3-1.4-0.3-2.2c0-3,2.2-5.7,5.1-6.3c0.3-0.1,0.6-0.1,1-0.2c0.3,0,0.6,0,1,0c0.1,0,0.1,0,0.2,0c2.7,0.3,5,2.2,5.7,4.8
			c0.1,0.4,0.2,0.9,0.3,1.3C149.2,18.7,149.2,19,149.2,19.3z M147.2,18.8c0-2.5-2.1-4.6-4.6-4.6c-2.6,0-4.6,2.1-4.6,4.6
			c0,2.5,2.1,4.6,4.6,4.6C145.1,23.5,147.2,21.4,147.2,18.8z M115.8,27.6c-2.5,0-4.6,2.1-4.6,4.6c0,2.6,2.1,4.6,4.6,4.6
			c2.5,0,4.6-2.1,4.6-4.6C120.4,29.7,118.3,27.6,115.8,27.6z M147.2,45.7c0-2.5-2.1-4.6-4.6-4.6c-2.6,0-4.6,2.1-4.6,4.6
			c0,2.5,2.1,4.6,4.6,4.6C145.1,50.3,147.2,48.2,147.2,45.7z"/>
	</g>
	<g>
		<path class="st0" d="M1.4,12.4h7.7v1.2H2.8v4.1h5.8v1.2H2.8v4.3h6.4v1.2H1.4V12.4z"/>
		<path class="st0" d="M10.1,15.8v-0.2h1.5l2.3,6.3l0.4,1.3h0.2l0.4-1.3l2.3-6.3h1.5v0.2l-3.3,8.6h-1.9L10.1,15.8z"/>
		<path class="st0" d="M23.5,24.6c-1.3,0-2.4-0.4-3-1.1c-0.7-0.7-1-1.8-1-3.3s0.3-2.7,1-3.5c0.7-0.8,1.7-1.2,3-1.2
			c2.2,0,3.4,1.3,3.4,3.9c0,0.5,0,0.9-0.1,1.1H21c0.1,1,0.3,1.8,0.8,2.2c0.5,0.4,1.1,0.7,2.1,0.7c0.4,0,0.9,0,1.3-0.1
			c0.5-0.1,0.9-0.2,1.4-0.3l0.1,1.1c-0.4,0.2-0.9,0.3-1.4,0.4C24.5,24.5,24,24.6,23.5,24.6z M23.4,16.6c-1.6,0-2.4,1-2.5,2.9h4.6
			c0-1.1-0.2-1.8-0.5-2.3C24.6,16.8,24.1,16.6,23.4,16.6z"/>
		<path class="st0" d="M28.8,15.6H30l0.1,1h0.1c0.4-0.2,0.8-0.4,1.2-0.5c0.4-0.2,0.7-0.3,1-0.4c0.3-0.1,0.6-0.2,0.8-0.2
			c0.3,0,0.5-0.1,0.8-0.1c0.7,0,1.3,0.2,1.7,0.6c0.4,0.4,0.6,1,0.6,1.8v6.5h-1.4v-6.1c0-0.6-0.1-1-0.3-1.3s-0.6-0.4-1.1-0.4
			c-0.4,0-0.9,0.1-1.4,0.3c-0.5,0.2-1.1,0.4-1.7,0.7v6.8H29v-8.7C29,15.6,28.8,15.6,28.8,15.6z"/>
		<path class="st0" d="M42,24.6c-0.8,0-1.5-0.2-1.9-0.6s-0.6-1-0.6-1.9v-5.2h-1.8v-1.3h1.9l0.2-2.2l1.1-0.1v2.3h2.6v1.3h-2.6v4.9
			c0,0.6,0.1,1,0.4,1.2c0.2,0.3,0.6,0.4,1.1,0.4c0.2,0,0.3,0,0.5,0s0.4-0.1,0.6-0.1v1.1c-0.2,0.1-0.5,0.1-0.8,0.2
			C42.5,24.6,42.3,24.6,42,24.6z"/>
		<path class="st0" d="M47.4,14.1L47.4,14.1l-2.9,1.4h-0.1l-0.2-0.9v-0.1l3.6-2.1h1.1v12.1h-1.4L47.4,14.1L47.4,14.1z"/>
	</g>
	<g>
		<g>
			<path class="st0" d="M235.9,13.6h-3.8v-1.2h9.1v1.2h-3.8v10.6h-1.4V13.6z"/>
			<path class="st0" d="M240.7,15.7L240.7,15.7l1.4-0.1l1.6,6l0.3,1.3h0.1l0.3-1.3l1.7-6h1.4l1.7,6l0.3,1.3h0.1l0.3-1.3l1.5-6h1.4
				v0.1l-2.3,8.5h-1.6l-1.7-5.8l-0.3-1.2h-0.1l-0.3,1.2l-1.7,5.8h-1.6L240.7,15.7z"/>
			<path class="st0" d="M255,13.8c-0.6,0-0.9-0.3-0.9-0.8c0-0.6,0.3-0.9,0.9-0.9c0.6,0,0.9,0.3,0.9,0.9
				C255.9,13.5,255.6,13.8,255,13.8z M254.3,15.6h1.4v8.6h-1.4V15.6z"/>
			<path class="st0" d="M261.5,24.3c-0.8,0-1.4-0.2-1.9-0.6c-0.4-0.4-0.6-1-0.6-1.8v-5.1h-1.8v-1.2h1.9l0.2-2.2l1.1-0.1v2.3h2.6v1.2
				h-2.5v4.8c0,0.5,0.1,0.9,0.4,1.2c0.2,0.3,0.6,0.4,1.1,0.4c0.2,0,0.3,0,0.5,0c0.2,0,0.4-0.1,0.6-0.1v1.1c-0.2,0.1-0.5,0.1-0.8,0.2
				S261.7,24.3,261.5,24.3z"/>
			<path class="st0" d="M267.8,24.3c-0.8,0-1.4-0.2-1.9-0.6c-0.4-0.4-0.6-1-0.6-1.8v-5.1h-1.8v-1.2h1.9l0.2-2.2l1.1-0.1v2.3h2.6v1.2
				h-2.5v4.8c0,0.5,0.1,0.9,0.4,1.2c0.2,0.3,0.6,0.4,1.1,0.4c0.2,0,0.3,0,0.5,0c0.2,0,0.4-0.1,0.6-0.1v1.1c-0.2,0.1-0.5,0.1-0.8,0.2
				S268.1,24.3,267.8,24.3z"/>
			<path class="st0" d="M274.4,24.3c-1.3,0-2.3-0.4-3-1.1c-0.7-0.7-1-1.8-1-3.3c0-1.5,0.3-2.6,1-3.4c0.7-0.8,1.6-1.2,2.9-1.2
				c2.2,0,3.3,1.3,3.3,3.9c0,0.5,0,0.9-0.1,1.1h-5.7c0.1,1,0.3,1.7,0.7,2.2s1.1,0.7,2,0.7c0.4,0,0.8,0,1.3-0.1
				c0.5-0.1,0.9-0.2,1.4-0.3l0.1,1.1c-0.4,0.2-0.9,0.3-1.4,0.4C275.4,24.3,274.9,24.3,274.4,24.3z M274.3,16.5c-1.5,0-2.4,1-2.5,2.9
				h4.5c0-1-0.2-1.8-0.5-2.2C275.5,16.7,275,16.5,274.3,16.5z"/>
			<path class="st0" d="M279.6,15.6h1.2l0.1,1.2h0.1c0.6-0.3,1.1-0.6,1.6-0.8c0.5-0.2,1-0.4,1.4-0.5h0.4v1.3h-0.5
				c-0.5,0.1-1,0.2-1.5,0.4c-0.5,0.2-1,0.4-1.5,0.6v6.4h-1.4V15.6z"/>
		</g>
	</g>
</g>
</svg>
