<svg xmlns="http://www.w3.org/2000/svg" viewBox="0 0 30.51 35"><defs><style>.cls-1{fill:#fff;}</style></defs><title>call-icon</title><g id="Layer_2" data-name="Layer 2"><g id="layer"><path class="cls-1" d="M19.14,35c-.65-.15-1.32-.26-1.95-.45a15.43,15.43,0,0,1-5.44-3.2,31.67,31.67,0,0,1-5.69-6.69,43,43,0,0,1-4.65-9A20.24,20.24,0,0,1,0,8.31,9.59,9.59,0,0,1,1.16,3.62c.32-.54.74-1,1.17-1.6L8,11.41a1.94,1.94,0,0,0-.59,2.46,14.66,14.66,0,0,0,1,2.4c1.12,1.95,2.28,3.89,3.47,5.8a14.08,14.08,0,0,0,2.54,3.07,1.64,1.64,0,0,0,2,.36l5.49,9.14L20.51,35Z"/><path class="cls-1" d="M6.49,0A1.79,1.79,0,0,1,7.55.94c1.35,2.28,2.72,4.55,4.08,6.83a1.17,1.17,0,0,1-.45,1.82L8.7,11.05,3.09,1.7,6.15,0Z"/><path class="cls-1" d="M22.57,34.18,17.1,25c.94-.54,1.84-1.1,2.77-1.58a1.11,1.11,0,0,1,1.51.54c.72,1.19,1.43,2.38,2.14,3.57l2,3.28a1.19,1.19,0,0,1-.48,1.9Z"/><path class="cls-1" d="M30.21,19.85l-1.69-.4c-.24-.06-.15-.25-.14-.39.06-.68.16-1.36.17-2A14.89,14.89,0,0,0,19.09,3l-.42-.17c.22-.56.42-1.11.66-1.65,0-.05.23-.08.33,0A14.85,14.85,0,0,1,23,2.89a16.79,16.79,0,0,1,7.29,11.63,16,16,0,0,1,0,5.07A1.75,1.75,0,0,1,30.21,19.85Z"/><path class="cls-1" d="M25.23,18.67c-.56-.13-1.1-.26-1.63-.41-.06,0-.13-.19-.12-.28a9.46,9.46,0,0,0-1.78-7,9.34,9.34,0,0,0-4.17-3.25c-.25-.1-.34-.2-.24-.47.17-.47.31-1,.47-1.42A11.58,11.58,0,0,1,25.23,18.67Z"/></g></g></svg>