<svg xmlns="http://www.w3.org/2000/svg" viewBox="0 0 30 29.64"><defs><style>.cls-1{fill:#fff;}</style></defs><title>chat-icon</title><g id="Layer_2" data-name="Layer 2"><g id="layer"><path class="cls-1" d="M23.59,6.45c1.19,0,2.28-.06,3.36,0a3.12,3.12,0,0,1,3,3.19c0,3.55,0,7.09,0,10.64a3.19,3.19,0,0,1-3.32,3.22c-1,0-2,0-3.07,0,0,.72.82,6.13.82,6.13s-4.74-4.71-5.26-5.19a3.55,3.55,0,0,0-2.82-.95c-1.43.08-2.88,0-4.32,0a3.34,3.34,0,0,1-2.87-1.46c1.21-.91,2.41-1.82,3.63-2.7a1.48,1.48,0,0,1,.74-.08c1.87,0,3.76.07,5.6-.15a5.2,5.2,0,0,0,4.48-5.23c0-2.18,0-4.35,0-6.53Z"/><path class="cls-1" d="M6.46,21.3V17.08c-.37,0-.69,0-1,0-4.6.28-5.62-1-5.44-5.46.1-2.68,0-5.37,0-8.06A3.28,3.28,0,0,1,3.58,0H17.87a3.25,3.25,0,0,1,3.54,3.55c0,3.34,0,6.69,0,10a3.2,3.2,0,0,1-3.49,3.5c-1.72,0-3.45,0-5.17,0a2,2,0,0,0-1,.35C10.12,18.6,8.55,19.79,7,21,6.84,21.07,6.69,21.15,6.46,21.3Zm2.09-4.16c.81-.61,1.49-1.09,2.13-1.6A2.22,2.22,0,0,1,12.26,15c1.9,0,3.8,0,5.7,0,.91,0,1.35-.41,1.35-1.27q0-5.18,0-10.33a1.11,1.11,0,0,0-1.26-1.27H3.39A1.09,1.09,0,0,0,2.17,3.35q0,5.21,0,10.4c0,.84.42,1.23,1.29,1.25,1.42,0,2.84,0,4.26,0h.83Z"/></g></g></svg>