<svg xmlns="http://www.w3.org/2000/svg" viewBox="0 0 30 28.74"><defs><style>.cls-1{fill:#fff;}</style></defs><title>close-nav</title><g id="Layer_2" data-name="Layer 2"><g id="layer"><path class="cls-1" d="M13.34,27.27V1.47H28.57a2.1,2.1,0,0,0,.8,0c.26-.12.65-.43.63-.61a1.37,1.37,0,0,0-.59-.75c-.17-.12-.47,0-.71,0H13.24c-1.25,0-1.4.15-1.4,1.4v26c0,1.2.15,1.35,1.34,1.35H28.73c.24,0,.54.07.71,0S30,28.23,30,28s-.31-.55-.56-.69a1.92,1.92,0,0,0-.8,0H13.34Z"/><path class="cls-1" d="M1.74,14.35,6.41,9.7c.17-.17.43-.32.49-.52A5.81,5.81,0,0,0,7,8.07c-.35,0-.84-.09-1,.1C4,10,2.16,11.88.3,13.76A.79.79,0,0,0,.33,15l5.48,5.49c.36.36.76.56,1.18.14s.2-.81-.16-1.17L2.49,15.14C2.26,14.91,2,14.67,1.74,14.35Z"/><path class="cls-1" d="M22.55,7.75h3.69c.54,0,1-.11,1-.73s-.49-.72-1-.72h-7.3c-.52,0-1,.07-1,.73s.49.72,1,.72Z"/><path class="cls-1" d="M22.56,15h3.69c.53,0,1.07-.11,1-.73a1.24,1.24,0,0,0-.93-.69c-2.49-.06-5,0-7.47,0-.5,0-.92.16-.91.75s.46.69.95.69Z"/><path class="cls-1" d="M22.53,20.9h-3.6c-.52,0-1.09.06-1,.72a1.18,1.18,0,0,0,.9.69c2.49.06,5,.06,7.47,0a1.22,1.22,0,0,0,.9-.72c.09-.55-.42-.7-.92-.69C25.05,20.91,23.79,20.9,22.53,20.9Z"/></g></g></svg>