<svg xmlns="http://www.w3.org/2000/svg" viewBox="0 0 25.5 25.5"><defs><style>.cls-1{fill:#fff;stroke:#fff;stroke-miterlimit:10;stroke-width:0.5px;}</style></defs><title>layout</title><g id="Layer_2" data-name="Layer 2"><g id="layer"><path class="cls-1" d="M13.81,6V2.5A2.14,2.14,0,0,1,16.07.25H23a2.15,2.15,0,0,1,2.28,2.28V9.45A2.15,2.15,0,0,1,23,11.69H16a2.1,2.1,0,0,1-2.1-1.46,3,3,0,0,1-.12-.78C13.8,8.29,13.81,7.13,13.81,6ZM24.18,6V2.48A1.07,1.07,0,0,0,23,1.32H16a1.06,1.06,0,0,0-1.16,1.16v7A1.06,1.06,0,0,0,16,10.62h7a1.08,1.08,0,0,0,1.19-1.19Z"/><path class="cls-1" d="M6,25.25H2.54A2.15,2.15,0,0,1,.25,23V16.08a2.15,2.15,0,0,1,2.27-2.27h6.9a2.14,2.14,0,0,1,2.27,2.26v7a2.14,2.14,0,0,1-2.18,2.18Zm4.67-5.7V16a1.06,1.06,0,0,0-1.16-1.16h-7A1.06,1.06,0,0,0,1.32,16v7a1.06,1.06,0,0,0,1.16,1.16h7A1.06,1.06,0,0,0,10.62,23Z"/><path class="cls-1" d="M19.54,25.25H16.07A2.15,2.15,0,0,1,13.81,23V16a2.12,2.12,0,0,1,1.62-2.15,2.67,2.67,0,0,1,.64-.07h7A2.13,2.13,0,0,1,25.24,16c0,2.36,0,4.71,0,7.07a2.13,2.13,0,0,1-2.19,2.19Zm-4.66-5.74v3.54A1,1,0,0,0,16,24.17h7.1a1,1,0,0,0,1.09-1.09q0-3.55,0-7.1a1,1,0,0,0-1.09-1.1H16A1,1,0,0,0,14.88,16Z"/><path class="cls-1" d="M11.69,6V9.4a2.15,2.15,0,0,1-2.3,2.29H2.5A2.15,2.15,0,0,1,.25,9.45V2.5A2.14,2.14,0,0,1,2.51.25H9.43A2.14,2.14,0,0,1,11.69,2.5ZM10.62,6V2.44A1,1,0,0,0,9.49,1.33H2.42a1.06,1.06,0,0,0-1.1,1.1V3.74c0,1.9,0,3.81,0,5.71a1.13,1.13,0,0,0,.31.86,1.16,1.16,0,0,0,.89.31H9.45a1.07,1.07,0,0,0,1.17-1.18Z"/></g></g></svg>