<svg xmlns="http://www.w3.org/2000/svg" viewBox="0 0 30 28.74"><defs><style>.cls-1{fill:#fff;}</style></defs><title>side-icon</title><g id="Layer_2" data-name="Layer 2"><g id="layer"><path class="cls-1" d="M16.66,27.27V1.47H1.43a2.1,2.1,0,0,1-.8,0C.37,1.31,0,1,0,.82A1.37,1.37,0,0,1,.59.07C.76,0,1.06,0,1.3,0H16.76c1.25,0,1.4.15,1.4,1.4v26c0,1.2-.15,1.35-1.34,1.35H1.27c-.24,0-.54.07-.71,0S0,28.23,0,28s.31-.55.56-.69a1.92,1.92,0,0,1,.8,0h15.3Z"/><path class="cls-1" d="M28.26,14.35,23.59,9.7c-.17-.17-.43-.32-.49-.52A5.81,5.81,0,0,1,23,8.07c.35,0,.84-.09,1,.1C26,10,27.84,11.88,29.7,13.76a.79.79,0,0,1,0,1.26l-5.48,5.49c-.36.36-.76.56-1.18.14s-.2-.81.16-1.17l4.34-4.34C27.74,14.91,28,14.67,28.26,14.35Z"/><path class="cls-1" d="M7.45,7.75H3.76c-.54,0-1-.11-1-.73s.49-.72,1-.72h7.3c.52,0,1,.07,1,.73s-.49.72-1,.72Z"/><path class="cls-1" d="M7.44,15H3.75c-.53,0-1.07-.11-1-.73a1.24,1.24,0,0,1,.93-.69c2.49-.06,5,0,7.47,0,.5,0,.92.16.91.75s-.46.69-.95.69Z"/><path class="cls-1" d="M7.47,20.9h3.6c.52,0,1.09.06,1,.72a1.18,1.18,0,0,1-.9.69c-2.49.06-5,.06-7.47,0a1.22,1.22,0,0,1-.9-.72c-.09-.55.42-.7.92-.69C5,20.91,6.21,20.9,7.47,20.9Z"/></g></g></svg>