<svg xmlns="http://www.w3.org/2000/svg" viewBox="0 0 30 27.17"><defs><style>.cls-1{fill:#fff;}</style></defs><title>shortcuts-icon</title><g id="Layer_2" data-name="Layer 2"><g id="layer"><path class="cls-1" d="M17.83,18.81a6.53,6.53,0,0,1-6.59-5.69c-.11-.75.07-1.34.87-1.5s1.22.39,1.33,1.11a4.08,4.08,0,0,0,3,3.63,4.54,4.54,0,0,0,4.83-1.45c1.72-1.78,3.54-3.47,5.23-5.28a4.33,4.33,0,0,0,.14-5.92,4.4,4.4,0,0,0-5.5-.88A10.72,10.72,0,0,0,19,4.67c-.9.91-1.8,1.82-2.71,2.72-.54.53-1.19.86-1.82.2s-.25-1.26.29-1.8c1.32-1.31,2.61-2.65,4-3.93a6.63,6.63,0,0,1,9.35,9.41c-1.86,1.92-3.76,3.8-5.67,5.67A6.31,6.31,0,0,1,17.83,18.81Z"/><path class="cls-1" d="M6.18,27.17a6.25,6.25,0,0,1-5.4-3.65,6,6,0,0,1,.66-6.87,46.26,46.26,0,0,1,7-6.95A6.51,6.51,0,0,1,18.8,13.86c.14.79.12,1.55-.86,1.71s-1.16-.57-1.33-1.28C15.7,10.5,11.86,9.34,9,12c-1.79,1.71-3.53,3.48-5.25,5.26A4.39,4.39,0,1,0,10,23.5c1.23-1.19,2.41-2.41,3.62-3.61.56-.55,1.21-1,1.91-.31s.21,1.33-.34,1.88c-1.29,1.28-2.57,2.58-3.87,3.86A6.64,6.64,0,0,1,6.18,27.17Z"/></g></g></svg>