<svg xmlns="http://www.w3.org/2000/svg" viewBox="0 0 448.29 448.05"><defs><style>.cls-1{fill:#fff;}</style></defs><title>add-ons</title><g id="Layer_2" data-name="Layer 2"><g id="Layer_1-2" data-name="Layer 1"><path class="cls-1" d="M124.06,448c-13.08,0-25,.05-37,0-16.33-.08-32.68.27-49-.51C19.23,446.6,1.25,429.5.66,410.7c-.89-28.45-.23-56.95-.23-86.38,2.28,0,4.69.08,7.09,0,12.62-.51,25.55.51,37.79-1.95,28.21-5.67,46.18-31.69,44-61.11-2-27.32-24.71-49.78-52.76-51.74-9.79-.69-19.65-.29-29.48-.39-2.12,0-4.24,0-6.65,0-.15-2-.35-3.44-.35-4.89,0-24.66-.1-49.32,0-74C.17,108.5,11.65,92.7,31.7,87.07,36.58,85.7,41.91,85.5,47,85.47q37.74-.21,75.48.07c4.38,0,5.72-1.19,5.59-5.62q-.43-15,.11-30c.8-21.38,15.55-40.38,36.34-47.28A53.73,53.73,0,0,1,222.06,18.9a51.15,51.15,0,0,1,12.39,32.93c.16,9.5.32,19,0,28.49-.13,4.3,1.35,5.25,5.39,5.22,25.66-.17,51.32,0,77-.13,18.72-.11,33.19,7.32,41.23,24.37,3,6.36,4.16,14.08,4.3,21.22.49,25.65.31,51.32.08,77,0,4.5,1.28,5.63,5.63,5.52,10-.25,20-.39,30,.2,21.22,1.25,36.63,12,45.15,31.19,8.41,18.89,6.4,37.48-6.24,54.22-10.26,13.59-24.19,20.52-41.27,20.77-10.79.16-21.59,0-33.14,0v6.41c0,25.66.12,51.32,0,77-.13,21.75-11.72,37.48-31.7,43.16a42.87,42.87,0,0,1-11.35,1.43c-25.66.13-51.32.08-77,.08-1,0-1.93-.14-3.57-.27,0-9.82,0-19.42,0-29a62.3,62.3,0,0,0-6.2-28.51c-11.5-23.15-36.94-35.47-63.15-30.43-24.81,4.76-43.93,26.09-45.41,51.56C123.49,423.23,124.06,435.23,124.06,448Z"/></g></g></svg>