<?xml version="1.0" encoding="utf-8"?>
<!-- Generator: Adobe Illustrator 23.0.1, SVG Export Plug-In . SVG Version: 6.00 Build 0)  -->
<svg version="1.1" id="Layer_1" xmlns="http://www.w3.org/2000/svg" xmlns:xlink="http://www.w3.org/1999/xlink" x="0px" y="0px"
	 viewBox="0 0 51.8 51.8" style="enable-background:new 0 0 51.8 51.8;" xml:space="preserve">
<style type="text/css">
	.st0{fill:#FFFFFF;}
</style>
<title>SABIcon</title>
<g>
	<g id="Layer_1-2">
		<g id="bg">
			<path class="st0" d="M29.9,12.2c5.4,0,10,4.1,10.5,9.5c0.4,0,0.8-0.1,1.1-0.1h0.8c-0.6-6.8-6.6-11.9-13.5-11.3
				s-11.9,6.6-11.3,13.5c0,0.6,0.1,1.1,0.3,1.7c0.7-0.5,1.3-1.2,1.6-2.1v-0.6C19.4,16.9,24.1,12.2,29.9,12.2z"/>
			<path class="st0" d="M29.9,33.3c-3.8,0-7.2-2-9.1-5.3c-0.5,0.4-1,0.8-1.5,1.1c3.5,5.9,11.2,7.8,17.1,4.3c2.9-1.8,5-4.6,5.7-8
				h-0.5c-0.5,0-1,0.1-1.5,0.2C38.8,30.2,34.6,33.3,29.9,33.3z"/>
			<path class="st0" d="M12,22.8c0,0.9,0.4,1.8,1,2.5c3.4,1.7,4.7,5.9,3,9.3c-0.6,1.2-1.6,2.2-2.8,2.9h3.1c3.4-3.5,3.3-9.1-0.2-12.5
				C14.9,24,13.5,23.2,12,22.8z"/>
			<path class="st0" d="M1,31.4c0,4.9,3.9,8.9,8.8,8.9c0,0,0,0,0,0h27.5c-0.9-0.5-1.8-1.1-2.5-1.8l-25-0.1c-3.8,0.4-7.2-2.4-7.6-6.2
				c-0.4-3.8,2.4-7.2,6.2-7.6c-0.2-0.6-0.3-1.2-0.3-1.9C4,23.5,1,27.2,1,31.4z"/>
			<path class="st0" d="M50.4,31.4c0-4.9-4-8.8-8.8-8.8s-8.8,4-8.8,8.8l0,0v0.5c0.7-0.2,1.3-0.5,1.9-0.8c0.1-3.8,3.3-6.8,7.2-6.7
				c3.8,0.1,6.8,3.3,6.7,7.2s-3.3,6.8-7.2,6.7c-2.4-0.1-4.6-1.4-5.8-3.5c-0.6,0.3-1.2,0.5-1.8,0.7c0.4,0.7,0.9,1.4,1.4,2
				c0,0,0.1,0.1,0.1,0.1l0.2,0.2l0,0l0.2,0.2c1.6,1.4,3.7,2.2,5.9,2.3C46.4,40.3,50.4,36.3,50.4,31.4C50.4,31.5,50.4,31.5,50.4,31.4
				L50.4,31.4z"/>
			<path class="st0" d="M17.3,18.3c0.2-0.6,0.5-1.2,0.8-1.7c-0.8-0.3-1.6-0.5-2.4-0.5c-3.6,0.1-6.5,3-6.4,6.6
				c0.1,3.4,2.8,6.2,6.2,6.4c-0.3-0.8-0.8-1.6-1.4-2.2c-2.4-0.9-3.6-3.5-2.8-5.9c0.7-1.8,2.4-3.1,4.4-3.1
				C16.2,18,16.8,18.1,17.3,18.3z"/>
			<path class="st0" d="M18.2,26.5c0.3,0.5,0.6,1.1,0.8,1.7c2-1.2,3.2-3.3,3.2-5.6c0-1.3-0.4-2.5-1.1-3.6c-0.4,1.1-0.7,2.3-0.8,3.5
				l0,0v0.1C20.3,24.1,19.5,25.6,18.2,26.5z"/>
		</g>
	</g>
</g>
<g>
	<path class="st0" d="M33.4,22.8c2.2,0.5,4,0.9,5.9,1.3c2.1,0.4,4.1,0.9,6.2,1.3c1,0.2,1.6,0.6,1.9,1.6c1.3,3.9,2.7,7.7,4.1,11.5
		c0.4,1,0.3,1.7-0.4,2.4c-3,3.4-5.9,6.8-8.9,10.1c-0.4,0.4-1.3,0.8-1.8,0.7c-3.5-0.7-7-1.5-10.6-2.2c-0.9-0.2-1.4-0.6-1.7-1.4
		c-1.7-4.2-3.4-8.4-5.2-12.6c-0.3-0.8-0.3-1.4,0.4-2.1c3-3.2,5.8-6.5,8.8-9.7C32.5,23.3,33.1,23.1,33.4,22.8z M29.6,46.4
		c2.2-2.9,4.3-5.6,6.4-8.2c0.8-0.9,1.1-1.7,0.5-2.9c-0.5-1-0.8-2.2-1.2-3.3c-0.8-2-1.5-4.1-2.4-6.3c-0.4,0.3-0.6,0.5-0.8,0.7
		c-2,2.2-3.8,4.5-5.9,6.7c-1.1,1.1-1.4,2-0.7,3.5C27,39.8,28.2,43,29.6,46.4z M49,40.3c-2.9-0.6-5.6-1.1-8.3-1.8
		c-1.6-0.4-2.5-0.1-3.4,1.2c-1.9,2.7-4,5.3-6.1,8c3.1,0.7,6,1.3,8.9,1.9c0.3,0.1,0.8-0.1,1-0.3C43.6,46.4,46.2,43.5,49,40.3z
		 M34.9,25.3c1,2.6,2.1,4.9,2.7,7.3c0.7,3,2.5,4.2,5.4,4.5c2.1,0.2,4.1,0.8,6.4,1.3c-1.1-3.1-2.2-5.9-3.1-8.7
		c-0.5-1.6-1.2-2.3-2.9-2.5C40.5,26.7,37.9,25.9,34.9,25.3z"/>
	<path class="st0" d="M22.2,19.3c-1.9,3.3-3.7,6.3-5.3,9.4c-0.2,0.4-0.2,1.2,0.1,1.7c1.5,3.1,3.2,6.2,4.7,9.4
		c0.3,0.5,0.5,1.4,0.2,1.7c-0.3,0.4-1.1,0.6-1.7,0.6c-4.4-0.1-8.7-0.3-13.1-0.4c-1.1,0-1.7-0.4-2.2-1.4C3.4,37,1.7,34,0.2,30.9
		c-0.3-0.6-0.3-1.6,0-2.2c2.1-4,4.3-8,6.4-12c0.4-0.7,0.8-1.2,1.8-1.1c4.5,0.2,8.9,0.4,13.4,0.6c0.8,0,1.3,0.3,1.7,1.1
		c1.1,2.2,2.2,4.4,3.4,6.6c0.3,0.7,0.6,1.3-0.2,1.8c-0.9,0.5-1.3-0.2-1.7-0.9C24.1,23,23.3,21.3,22.2,19.3z M20.6,18.2
		c-3.8-0.2-7.2-0.4-10.7-0.7c-1.1-0.1-1.7,0.3-2.2,1.3c-0.7,1.4-1.5,2.7-2.2,4c-1,1.9-2,3.8-2.9,5.5c3.8,0,7.6,0,11.4,0
		c0.3,0,0.7-0.2,0.8-0.5C16.8,24.7,18.6,21.5,20.6,18.2z M19.3,39.4c-1.4-2.7-2.7-5.5-4.2-8.3c-0.1-0.3-0.6-0.6-0.9-0.6
		c-3.8,0.1-7.6,0.2-11.6,0.3C4,33.7,5.3,36.3,6.7,39c0.1,0.2,0.5,0.4,0.8,0.4C11.4,39.4,15.3,39.4,19.3,39.4z"/>
	<path class="st0" d="M41.9,10c-3.3,2.1-6.3,4-9.3,6c-0.3,0.2-0.5,0.7-0.6,1.1c-0.1,0.8,0,1.6,0,2.4c0,0.7-0.1,1.4-1,1.4
		c-1,0-1-0.8-0.9-1.5c0.5-2.4-0.6-3.6-2.8-4.5c-2.8-1.1-5.5-2.6-8.4-4c0,0.8,0.1,1.5,0,2.1c-0.1,0.4-0.5,0.9-0.9,1
		c-0.3,0-1-0.5-1-0.8c-0.1-1.3,0-2.7,0.1-4c0-0.3,0.5-0.6,0.8-0.9c3.8-2.6,7.6-5.2,11.4-7.8c0.8-0.5,1.4-0.6,2.2-0.1
		c3.8,2.2,7.6,4.4,11.5,6.6c0.7,0.4,1,0.9,1,1.7c0,3.9,0,7.8,0,11.6c0,0.9,0.4,2.3-1.1,2.3c-1.5,0-0.9-1.4-0.9-2.2
		c0-2.9,0-5.9,0-8.8C41.9,11.1,41.9,10.7,41.9,10z M41,8.1c-3.6-2.1-7-4-10.5-6c-3.4,2.3-6.8,4.6-10.4,7.1c3.6,1.8,7,3.4,10.4,5
		c0.3,0.1,0.7,0.1,1,0C34.6,12.2,37.7,10.2,41,8.1z"/>
</g>
</svg>
