<?xml version="1.0" encoding="utf-8"?>
<!-- Generator: Adobe Illustrator 23.0.1, SVG Export Plug-In . SVG Version: 6.00 Build 0)  -->
<svg version="1.1" id="Layer_1" xmlns="http://www.w3.org/2000/svg" xmlns:xlink="http://www.w3.org/1999/xlink" x="0px" y="0px"
	 viewBox="0 0 353.1 62.5" style="enable-background:new 0 0 353.1 62.5;" xml:space="preserve">
<style type="text/css">
	.st0{fill:#FFFFFF;}
	.st1{fill:#E52033;}
</style>
<g>
	<g>
		<g>
			<rect y="33" class="st0" width="94.9" height="1"/>
			<g>
				<path class="st0" d="M101,33.5c-2.8,1.1-6.4,2.9-8.5,4.8l1.7-4.8l-1.7-4.8C94.6,30.7,98.1,32.5,101,33.5z"/>
			</g>
		</g>
	</g>
	<g>
		<g>
			<rect x="163.5" y="30.8" class="st0" width="183.6" height="1"/>
			<g>
				<path class="st0" d="M353.1,31.3c-2.8,1.1-6.4,2.9-8.5,4.8l1.7-4.8l-1.7-4.8C346.8,28.4,350.3,30.2,353.1,31.3z"/>
			</g>
		</g>
	</g>
	<g>
		<circle class="st1" cx="132.2" cy="31.3" r="31.3"/>
		<g>
			<path class="st0" d="M116.3,23.4c3.7,1.4,7.3,2.8,11,4.1c1.9,0.7,3.9,1.5,5.8,2.2c0.5-1.1,1-2.1,1.5-3.1s1-2,1.4-3
				c0.4-0.8,1-1.3,2-1.4c2.6-0.3,5.3-0.6,7.9-1c-1.2-0.2-2.5-0.3-3.7-0.5c-5.2-0.6-10.3-1.3-15.5-1.9c-1.3-0.1-2.6-0.1-3.8-0.1
				c-1.1,0-2.2,0.1-3.2,0c-1.7-0.1-2.8,0.5-3.4,2.1C116.3,21.7,116.3,22.5,116.3,23.4z"/>
			<path class="st0" d="M116.3,43.7c0.2,0,0.4,0.1,0.6,0c1.7-0.4,3.5-0.9,5.2-1.4c0.2-0.1,0.4-0.2,0.8-0.3c-0.3-0.2-0.4-0.3-0.6-0.3
				c-1.4-0.7-2.7-1.3-4.1-2c-0.4-0.2-0.5-0.4-0.5-0.8c0-0.8,0-1.6,0-2.4c1.7-0.3,3.4-1,5.1,0.3c0-1.2,0-2.1,0-3
				c0-0.1-0.3-0.3-0.4-0.2c-1.8,0.4-3.6,0.8-5.4,1.2c-0.2,0.1-0.4,0.2-0.6,0.4C116.3,38,116.3,40.9,116.3,43.7z"/>
			<path class="st0" d="M148.1,22.4c-0.3-0.7-0.8-0.8-1.5-0.7c-2.8,0.4-5.7,0.7-8.5,1.1c-0.5,0.1-0.9,0.3-1.4,0.5
				c0,0.1,0,0.2,0.1,0.3c0.4,0,0.8,0,1.1-0.1c1.3-0.1,2.7-0.3,4-0.4c1.2-0.1,1.9,0.6,1.9,1.7s0,2.2,0,3.3c0,0.5,0.2,0.6,0.6,0.7
				c0.4,0.1,0.5-0.1,0.7-0.4c1-1.8,2-3.6,3-5.3C148.1,22.9,148.1,22.6,148.1,22.4z"/>
			<path class="st0" d="M118.4,37.3c0,0.1-0.1,0.2-0.1,0.2c-0.1,1.6-0.1,1.6,1.4,2.3c2.1,1,4.2,2,6.4,3.1c1,0.5,2.1,0.7,3.3,0.4
				c1-0.3,1.4-0.9,1.5-1.9c0-2.3,0-4.6,0-7c0-0.5-0.1-0.7-0.6-0.9c-1.2-0.6-2.4-1.2-3.5-1.8c-0.2-0.1-0.3-0.1-0.6-0.3c0,3,0,6,0,9.1
				C123.5,39.5,120.9,38.5,118.4,37.3z"/>
			<path class="st0" d="M116.8,24.1c-0.2,1.5,0.1,2.2,1.4,2.9c4.5,2.3,9.1,4.6,13.6,6.9c0.1,0.1,0.3,0.1,0.5,0.2c0-1.3,0-2.6,0-3.9
				c0-0.1-0.3-0.3-0.5-0.4c-4.2-1.6-8.4-3.2-12.6-4.8C118.4,24.7,117.6,24.4,116.8,24.1z"/>
			<path class="st0" d="M135.6,25.8c1.9-0.2,3.6-0.4,5.4-0.6c0.7-0.1,0.8,0,0.8,0.7c0,1.8,0,3.7,0,5.5c0,0.5-0.2,0.7-0.7,0.8
				c-2,0.2-4.1,0.5-6.1,0.7c-0.9,0.1-0.9,0.1-0.9-0.8c0-0.9,0-1.8-0.1-2.8c-0.2,0.3-0.3,0.7-0.5,1c-0.2,0-0.4-0.1-0.6-0.1
				c0,1.3,0,2.6,0,3.8c0,0.6,0.5,0.6,0.9,0.5c1.6-0.2,3.1-0.3,4.7-0.5c1-0.1,2-0.2,3-0.3c1.3-0.1,1.9-0.8,1.9-2.1c0-2.2,0-4.4,0-6.6
				c0-1.1-0.4-1.5-1.5-1.4c-1.6,0.1-3.2,0.3-4.8,0.4c-0.4,0-0.7,0.2-0.9,0.6C136,25,135.9,25.3,135.6,25.8z"/>
			<path class="st0" d="M139.8,28.8c0-0.1,0-0.3,0-0.4c-0.1-0.8-0.6-1.3-1.3-1.5c-0.6-0.1-1.3,0.2-1.7,0.9c-0.5,0.9-0.6,1.8,0,2.7
				c0.5,0.8,1.4,1,2.2,0.3C139.6,30.3,139.8,29.6,139.8,28.8z"/>
			<path class="st0" d="M125.5,39.8C125.6,39.7,125.6,39.7,125.5,39.8c0.2-1.3,0.2-1.3-0.9-1.7c-0.9-0.4-1.8-0.7-2.6-1.1
				c-1-0.5-1.9-0.2-3,0C121.2,37.9,123.3,38.9,125.5,39.8z"/>
		</g>
	</g>
	<g>
		<path class="st0" d="M1.4,12.3h7.7v1.2H2.8v4.1h5.8v1.2H2.8v4.3h6.4v1.2H1.4V12.3z"/>
		<path class="st0" d="M10.1,15.7v-0.2h1.5l2.3,6.3l0.4,1.3h0.2l0.4-1.3l2.3-6.3h1.5v0.2l-3.3,8.6h-1.9L10.1,15.7z"/>
		<path class="st0" d="M23.5,24.5c-1.3,0-2.4-0.4-3-1.1c-0.7-0.7-1-1.8-1-3.3s0.3-2.7,1-3.5c0.7-0.8,1.7-1.2,3-1.2
			c2.2,0,3.4,1.3,3.4,3.9c0,0.5,0,0.9-0.1,1.1H21c0.1,1,0.3,1.8,0.8,2.2c0.5,0.4,1.1,0.7,2.1,0.7c0.4,0,0.9,0,1.3-0.1
			c0.5-0.1,0.9-0.2,1.4-0.3l0.1,1.1c-0.4,0.2-0.9,0.3-1.4,0.4C24.5,24.4,24,24.5,23.5,24.5z M23.4,16.5c-1.6,0-2.4,1-2.5,2.9h4.6
			c0-1.1-0.2-1.8-0.5-2.3C24.6,16.7,24.1,16.5,23.4,16.5z"/>
		<path class="st0" d="M28.8,15.5H30l0.1,1h0.1c0.4-0.2,0.8-0.4,1.2-0.5c0.4-0.2,0.7-0.3,1-0.4c0.3-0.1,0.6-0.2,0.8-0.2
			c0.3,0,0.5-0.1,0.8-0.1c0.7,0,1.3,0.2,1.7,0.6s0.6,1,0.6,1.8v6.5h-1.4v-6.1c0-0.6-0.1-1-0.3-1.3s-0.6-0.4-1.1-0.4
			c-0.4,0-0.9,0.1-1.4,0.3c-0.5,0.2-1.1,0.4-1.7,0.7v6.8H29v-8.7C29,15.5,28.8,15.5,28.8,15.5z"/>
		<path class="st0" d="M42,24.5c-0.8,0-1.5-0.2-1.9-0.6s-0.6-1-0.6-1.9v-5.2h-1.8v-1.3h1.9l0.2-2.2l1.1-0.1v2.3h2.6v1.3h-2.6v4.9
			c0,0.6,0.1,1,0.4,1.2c0.2,0.3,0.6,0.4,1.1,0.4c0.2,0,0.3,0,0.5,0s0.4-0.1,0.6-0.1v1.1c-0.2,0.1-0.5,0.1-0.8,0.2
			C42.5,24.5,42.3,24.5,42,24.5z"/>
		<path class="st0" d="M47.4,14L47.4,14l-2.9,1.4h-0.1l-0.2-0.9v-0.1l3.6-2.1h1.1v12.1h-1.4L47.4,14L47.4,14z"/>
	</g>
	<g>
		<path class="st0" d="M204.9,24.3c-3.6,0-5.3-2-5.3-6c0-2.1,0.4-3.6,1.3-4.6c0.9-1,2.2-1.5,4-1.5c0.4,0,0.8,0,1.2,0.1
			c0.5,0,0.9,0.1,1.4,0.2v1.2c-0.5-0.1-1-0.1-1.4-0.2c-0.4,0-0.8-0.1-1.1-0.1c-1.4,0-2.4,0.4-3.1,1.2c-0.6,0.8-1,2-1,3.7
			c0,1.7,0.3,2.9,0.9,3.6c0.6,0.8,1.6,1.2,3,1.2c0.2,0,0.4,0,0.6,0c0.2,0,0.5,0,0.7-0.1c0.2,0,0.5-0.1,0.7-0.1
			c0.2,0,0.4-0.1,0.6-0.1V24c-0.4,0.1-0.8,0.2-1.3,0.2C205.7,24.3,205.2,24.3,204.9,24.3z"/>
		<path class="st0" d="M208.2,24.1l4.2-11.7h2.2l4.2,11.7v0.1h-1.4l-1.3-3.5h-5.3l-1.3,3.5h-1.4V24.1z M215.7,19.5l-1.4-4l-0.7-2.1
			h-0.1l-0.7,2.1l-1.4,4H215.7z"/>
		<path class="st0" d="M220.4,12.4h1.9l3,7.2l1,2.5h0.1l1-2.5l3-7.2h2v11.8H231v-10h-0.1l-1.3,3.3l-2.6,6.2h-1.3l-2.6-6.2l-1.3-3.3
			h-0.1v10h-1.3V12.4z"/>
		<path class="st0" d="M235.6,24.2c-0.3,0-0.5-0.1-0.7-0.2c-0.2-0.1-0.2-0.4-0.2-0.7c0-0.3,0.1-0.5,0.2-0.7c0.2-0.1,0.4-0.2,0.7-0.2
			c0.3,0,0.5,0.1,0.7,0.2c0.2,0.1,0.2,0.4,0.2,0.6c0,0.3-0.1,0.5-0.2,0.7S235.9,24.2,235.6,24.2z"/>
		<path class="st0" d="M238.9,12.4h1.4v5.2h6.5v-5.2h1.4v11.8h-1.4v-5.4h-6.5v5.4h-1.4V12.4z"/>
		<path class="st0" d="M249.8,24.1l4.2-11.7h2.2l4.2,11.7v0.1h-1.4l-1.3-3.5h-5.3l-1.3,3.5h-1.4V24.1z M257.4,19.5l-1.4-4l-0.7-2.1
			h-0.1l-0.7,2.1l-1.4,4H257.4z"/>
		<path class="st0" d="M262,12.4h1.4V23h5.4v1.2H262V12.4z"/>
		<path class="st0" d="M270.4,12.4h1.4V23h5.4v1.2h-6.8V12.4z"/>
		<path class="st0" d="M278.2,22.6c0-0.5,0.1-1,0.2-1.4c0.1-0.4,0.4-0.8,0.6-1.1c0.3-0.3,0.6-0.7,1.1-1c0.4-0.3,0.9-0.6,1.5-0.9
			c0.8-0.5,1.4-0.9,1.8-1.3c0.4-0.4,0.6-0.9,0.6-1.4c0-1.3-0.8-2-2.4-2c-0.4,0-0.9,0-1.4,0.1c-0.5,0.1-1,0.2-1.4,0.3l-0.2-1.2
			c0.6-0.1,1.2-0.3,1.7-0.3c0.5-0.1,1-0.1,1.5-0.1c2.4,0,3.6,1,3.6,3.1c0,0.4-0.1,0.8-0.2,1.1c-0.1,0.3-0.3,0.6-0.5,0.9
			c-0.2,0.3-0.5,0.6-0.9,0.8c-0.4,0.3-0.8,0.5-1.3,0.8c-1,0.6-1.7,1.1-2.1,1.6c-0.5,0.5-0.7,1-0.7,1.6V23h5.7v1.2h-7.2V22.6z"/>
		<path class="st0" d="M288.1,24.2c-0.3,0-0.5-0.1-0.7-0.2c-0.2-0.1-0.2-0.4-0.2-0.7c0-0.3,0.1-0.5,0.2-0.7c0.2-0.1,0.4-0.2,0.7-0.2
			s0.5,0.1,0.7,0.2c0.2,0.1,0.2,0.4,0.2,0.6c0,0.3-0.1,0.5-0.2,0.7C288.6,24.2,288.4,24.2,288.1,24.2z"/>
		<path class="st0" d="M295.9,24.3c-3.6,0-5.5-2-5.5-6c0-4.1,1.9-6.1,5.6-6.1c0.5,0,1,0,1.5,0.1c0.5,0.1,1,0.2,1.5,0.3v1.2
			c-0.6-0.1-1.2-0.2-1.6-0.3c-0.4,0-0.9-0.1-1.3-0.1c-1.5,0-2.6,0.4-3.3,1.2c-0.7,0.8-1,2-1,3.7c0,1.6,0.3,2.9,1,3.6
			c0.6,0.8,1.7,1.2,3.1,1.2c0.2,0,0.5,0,0.9-0.1s0.7-0.1,1-0.1v-4.7h1.3v5.6c-0.3,0.1-0.5,0.1-0.8,0.2c-0.3,0.1-0.6,0.1-0.9,0.2
			c-0.3,0-0.6,0.1-0.8,0.1C296.4,24.3,296.1,24.3,295.9,24.3z"/>
		<path class="st0" d="M304.6,24.4c-0.3,0-0.6,0-0.9,0c-0.3,0-0.6-0.1-0.9-0.1c-0.3,0-0.7-0.1-1-0.2c-0.3-0.1-0.6-0.1-0.9-0.2v-1.2
			c0.6,0.2,1.3,0.3,1.9,0.4s1.2,0.1,1.7,0.1c0.9,0,1.6-0.2,2.1-0.5c0.5-0.3,0.7-0.8,0.7-1.5c0-0.4-0.1-0.7-0.2-0.9
			c-0.1-0.2-0.3-0.5-0.6-0.6c-0.2-0.2-0.5-0.3-0.9-0.4c-0.3-0.1-0.7-0.2-1.1-0.3c-0.6-0.2-1.2-0.4-1.6-0.6c-0.4-0.2-0.8-0.4-1.1-0.7
			c-0.3-0.3-0.5-0.6-0.6-0.9c-0.1-0.4-0.2-0.8-0.2-1.2c0-0.5,0.1-0.9,0.3-1.3c0.2-0.4,0.5-0.7,0.8-1c0.4-0.3,0.8-0.5,1.3-0.7
			c0.5-0.2,1.1-0.2,1.7-0.2c0.4,0,0.9,0,1.4,0.1c0.5,0.1,1.1,0.2,1.7,0.3l0,1.2c-0.5-0.1-1-0.2-1.5-0.3c-0.5-0.1-1-0.1-1.4-0.1
			c-0.8,0-1.5,0.2-2,0.5c-0.5,0.4-0.7,0.9-0.7,1.5c0,0.3,0,0.6,0.1,0.8c0.1,0.2,0.2,0.4,0.5,0.6c0.2,0.2,0.5,0.3,0.8,0.5
			c0.3,0.1,0.8,0.3,1.3,0.4c0.5,0.1,1,0.3,1.4,0.5c0.4,0.2,0.8,0.4,1.1,0.6c0.3,0.3,0.6,0.6,0.7,0.9c0.2,0.4,0.3,0.8,0.3,1.4
			c0,1.1-0.4,1.9-1.1,2.4C307,24.1,306,24.4,304.6,24.4z"/>
		<path class="st0" d="M312.7,24.3c-0.4,0-0.8,0-1.3-0.1c-0.4,0-0.8-0.1-1.2-0.2V23h0.1c0.1,0,0.3,0.1,0.5,0.1c0.2,0,0.4,0,0.6,0.1
			c0.2,0,0.4,0,0.6,0c0.2,0,0.4,0,0.5,0c2,0,3-0.8,3-2.3c0-0.7-0.2-1.3-0.7-1.6c-0.5-0.3-1.2-0.5-2.2-0.5h-1.1v-1.1h1
			c0.9,0,1.5-0.2,2-0.5c0.4-0.4,0.6-0.9,0.6-1.6s-0.2-1.2-0.6-1.6c-0.4-0.4-1.1-0.5-2-0.5c-0.3,0-0.6,0-1,0.1
			c-0.4,0-0.8,0.1-1.3,0.2h-0.1l0-1.1c0.4-0.1,0.8-0.1,1.2-0.2c0.5,0,0.9-0.1,1.3-0.1c1.3,0,2.2,0.3,2.9,0.8c0.7,0.5,1,1.3,1,2.3
			c0,0.7-0.2,1.3-0.5,1.7c-0.3,0.5-0.8,0.8-1.4,1v0.1c0.7,0.1,1.3,0.5,1.6,1c0.4,0.5,0.6,1.1,0.6,1.9c0,1.1-0.4,1.9-1.1,2.5
			C315.2,24,314.1,24.3,312.7,24.3z"/>
	</g>
</g>
</svg>
