<?xml version="1.0" encoding="utf-8"?>
<!-- Generator: Adobe Illustrator 23.0.1, SVG Export Plug-In . SVG Version: 6.00 Build 0)  -->
<svg version="1.1" id="Layer_1" xmlns="http://www.w3.org/2000/svg" xmlns:xlink="http://www.w3.org/1999/xlink" x="0px" y="0px"
	 viewBox="0 0 60 86.1" style="enable-background:new 0 0 60 86.1;" xml:space="preserve">
<style type="text/css">
	.st0{fill:#FFFFFF;}
	.st1{fill:none;stroke:#0C6D72;stroke-width:2;stroke-miterlimit:10;}
	.st2{fill:#0C6D72;}
</style>
<title>alarm-act</title>
<g>
	<g id="layer">
		<path class="st0" d="M29.2,40c-2-0.4-3.8-1.7-4.7-3.6c-0.2-0.5-0.4-1-0.6-1.6h-3.6c-2.3,0-4.6,0-6.9,0c-0.5,0-0.9-0.3-1.1-0.7
			c-0.1-0.5,0.1-0.9,0.4-1.3c2.4-1.3,3.3-3.5,3.9-6c0.3-1.7,0.5-3.5,0.6-5.3c0.2-2.4,0-4.9,0.4-7.3c0.7-3.8,3.1-7.1,6.6-8.8
			c0.6-0.2,0.9-0.8,1-1.3c0.3-1.9,1.7-3.5,3.6-3.9c0.2,0,0.3-0.1,0.5-0.2h1.6c0.9,0.4,1.7,0.8,2.5,1.4c0.9,0.7,1.5,1.8,1.6,3
			C35,4.7,35.2,5,35.5,5.2c4.5,2.2,7.4,6.9,7.3,11.9c0,2.6,0,5.2,0.3,7.8c0.3,1.7,0.7,3.3,1.4,4.9c0.5,1.2,1.4,2.2,2.6,2.8
			c0.5,0.2,0.9,0.8,0.7,1.3c-0.2,0.7-0.7,0.8-1.3,0.8H36c-0.4,1.9-1.6,3.5-3.3,4.4c-0.6,0.3-1.3,0.5-2,0.7H29.2z M40.8,26.5
			c-0.1-3.2-0.2-6.3-0.2-9.4c0.2-5.8-4.4-10.8-10.2-11s-10.8,4.4-11,10.2l0,0c-0.1,3.4-0.2,6.8-0.2,10.2H40.8z M16.5,32.5h26.9
			c-0.5-1.1-1-2.2-1.6-3.2c-0.2-0.3-0.5-0.5-0.8-0.6c-7.4,0-14.8,0-22.1,0c-0.3,0-0.6,0.2-0.8,0.5C17.6,30.3,17.1,31.4,16.5,32.5z
			 M33.6,34.9h-7.3c0.5,2,2.5,3.2,4.5,2.7C32.2,37.3,33.2,36.3,33.6,34.9z M32.5,4.1c-0.3-1.1-1.4-1.9-2.6-1.8
			c-1.1,0-2.1,0.7-2.4,1.8H32.5z"/>
		<path class="st0" d="M21.2,16.2c0.2-4.5,3.9-8.1,8.4-8.4c0.9,0,1.4,0.3,1.5,1s-0.4,1.1-1.3,1.2c-3.3,0.4-5.4,2.1-6.1,5
			c-0.1,0.4-0.2,0.9-0.2,1.3c-0.1,1-0.5,1.4-1.1,1.4S21.1,17.1,21.2,16.2z"/>
	</g>
</g>
<line class="st1" x1="20.2" y1="80.5" x2="0" y2="80.5"/>
<line class="st1" x1="60" y1="80.5" x2="39.8" y2="80.5"/>
<polygon class="st2" points="31.6,80.3 34.6,75.7 34.6,74.8 32.3,74.8 30,78.5 27.6,74.8 25.4,74.8 25.4,75.7 28.4,80.3 25.2,85.1 
	25.2,86.1 27.5,86.1 29.8,82.5 30,82.1 32.5,86.1 34.8,86.1 34.8,85.1 "/>
</svg>
