<?xml version="1.0" encoding="utf-8"?>
<!-- Generator: Adobe Illustrator 23.0.1, SVG Export Plug-In . SVG Version: 6.00 Build 0)  -->
<svg version="1.1" id="Layer_1" xmlns="http://www.w3.org/2000/svg" xmlns:xlink="http://www.w3.org/1999/xlink" x="0px" y="0px"
	 viewBox="0 0 60 85.3" style="enable-background:new 0 0 60 85.3;" xml:space="preserve">
<style type="text/css">
	.st0{fill:#063332;}
	.st1{fill:none;stroke:#063332;stroke-width:2;stroke-miterlimit:10;}
</style>
<title>alarm-dim</title>
<g>
	<g id="layer">
		<path class="st0" d="M29.2,40c-2-0.4-3.8-1.7-4.7-3.6c-0.2-0.5-0.4-1-0.6-1.6h-3.6c-2.3,0-4.6,0-6.9,0c-0.5,0-0.9-0.3-1.1-0.7
			c-0.1-0.5,0.1-0.9,0.4-1.3c2.4-1.3,3.3-3.5,3.9-6c0.3-1.7,0.5-3.5,0.6-5.3c0.2-2.4,0-4.9,0.4-7.3c0.7-3.8,3.1-7.1,6.6-8.8
			c0.6-0.2,0.9-0.8,1-1.3c0.3-1.9,1.7-3.5,3.6-3.9c0.2,0,0.3-0.1,0.5-0.2h1.6c0.9,0.4,1.7,0.8,2.5,1.4c0.9,0.8,1.5,1.8,1.6,3
			C35,4.7,35.2,5,35.5,5.2c4.5,2.2,7.4,6.8,7.3,11.9c0.1,2.6,0,5.2,0.3,7.8c0.3,1.7,0.7,3.3,1.4,4.9c0.5,1.2,1.4,2.2,2.6,2.8
			c0.6,0.2,0.9,0.8,0.7,1.3c-0.2,0.7-0.7,0.8-1.3,0.8H36c-0.4,1.9-1.6,3.5-3.3,4.4c-0.6,0.3-1.3,0.5-2,0.7H29.2z M40.8,26.5
			c-0.1-3.2-0.2-6.3-0.2-9.4c0.1-5.9-4.6-10.7-10.5-10.7c-5.7-0.1-10.4,4.3-10.7,10c-0.1,3.4-0.1,6.8-0.2,10.2H40.8z M16.5,32.5
			h26.9c-0.5-1.1-1-2.2-1.6-3.2c-0.2-0.3-0.5-0.5-0.8-0.6c-7.4,0-14.8,0-22.1,0c-0.3,0-0.6,0.2-0.8,0.5
			C17.6,30.3,17.1,31.4,16.5,32.5z M33.6,34.9h-7.3c0.5,2,2.5,3.2,4.5,2.7C32.2,37.3,33.2,36.3,33.6,34.9z M32.5,4.1
			c-0.3-1.1-1.4-1.9-2.6-1.8c-1.1,0-2.1,0.7-2.4,1.8H32.5z"/>
		<path class="st0" d="M21.2,16.2c0.2-4.5,3.9-8.1,8.4-8.4c0.9,0,1.4,0.3,1.5,1s-0.4,1.1-1.3,1.2c-3.3,0.4-5.4,2.1-6.1,5
			c-0.1,0.4-0.2,0.9-0.2,1.3c-0.1,1-0.5,1.4-1.1,1.4S21.1,17.1,21.2,16.2z"/>
		<line class="st1" x1="20.2" y1="80.5" x2="0" y2="80.5"/>
		<line class="st1" x1="60" y1="80.5" x2="39.8" y2="80.5"/>
		<path class="st0" d="M25.2,79.6h3.9v-3.9h1.8v3.9h3.9v1.8h-3.9v3.9h-1.8v-3.9h-3.9V79.6z"/>
	</g>
</g>
</svg>
