<?xml version="1.0" encoding="utf-8"?>
<!-- Generator: Adobe Illustrator 25.0.1, SVG Export Plug-In . SVG Version: 6.00 Build 0)  -->
<svg version="1.1" id="Layer_1" xmlns="http://www.w3.org/2000/svg" xmlns:xlink="http://www.w3.org/1999/xlink" x="0px" y="0px"
	 viewBox="0 0 60 86.1" style="enable-background:new 0 0 60 86.1;" xml:space="preserve">
<style type="text/css">
	.st0{fill:#FFFFFF;}
	.st1{fill:none;stroke:#0C6D72;stroke-width:2;stroke-miterlimit:10;}
	.st2{fill:#0C6D72;}
</style>
<g id="Layer_2_1_">
	<g id="layer">
		<g id="Layer_2_2_">
			<g id="layer_1_">
				<path class="st0" d="M28,40c-0.9-0.4-1.6-1.1-2.3-1.8c-0.2-0.2-0.4-0.3-0.6-0.3h-9.6C14,38,12.7,37,12.4,35.6
					c-0.1-0.3-0.1-0.6-0.1-1c0-8.3,0-16.5,0-24.8c0-0.5,0-1,0.1-1.5c0.3-1.3,1.4-2.2,2.7-2.2c1.2,0,2.3,0,3.5,0
					c0.2,0,0.4-0.1,0.6-0.2c0.5-0.4,1-0.7,1.7-0.9c0.3-0.1,0.6-0.3,0.8-0.6c0.5-0.8,1-1.5,1.5-2.2c1.6-2.3,4.7-2.8,7-1.2
					c0.5,0.3,0.9,0.8,1.2,1.3c0.5,0.7,1,1.5,1.5,2.2c0.2,0.3,0.5,0.5,0.8,0.6c0.6,0.2,1.1,0.5,1.6,0.9c0.2,0,0.4,0,0.6,0
					C37,6,38,6,39.1,6.1c1.6,0.1,2.8,1.4,2.7,2.9c0,2.1,0,4.2,0,6.3c0,0.5-0.4,1-1,1c-0.5,0-1-0.4-1-1l0,0c0-2,0-4,0-6
					c0-1-0.4-1.3-1.3-1.3h-2.1c0,0.4-0.1,0.8-0.1,1.1c-0.4,1.6-1.9,2.7-3.5,2.7c-3.7,0-7.4,0-11.1,0c-2,0-3.6-1.6-3.6-3.6l0,0
					c0-0.1,0-0.1,0-0.2S18,8,17.9,8h-2.7c-0.6,0-1,0.4-1.1,1v0.1v25.7c0,0.6,0.4,1.1,1,1.1l0,0c0.2,0,0.3,0,0.5,0h9.6
					c0.2,0,0.5-0.1,0.6-0.3c1.6-1.7,3.3-3.4,4.9-5.1c-0.2-0.5-0.5-1.1-0.6-1.6c-1.5-4.7,1.1-9.7,5.8-11.2s9.7,1.1,11.2,5.8
					c1.4,4.5-0.8,9.3-5.2,11c-0.2,0.1-0.4,0.3-0.3,0.5c-0.1,1.6-1.4,2.9-3.1,2.9l0,0c-2.4,0-4.8,0-7.3,0c-0.2,0-0.5,0.1-0.6,0.3
					c-0.3,0.4-0.6,0.7-1,1c-0.3,0.3-0.7,0.6-1.1,0.9L28,40z M31.7,26.2c0,3.9,3.2,7.1,7.1,7.1s7-3.2,7-7.1c-0.1-3.9-3.2-7-7.1-7
					C34.8,19.2,31.7,22.3,31.7,26.2L31.7,26.2z M27.3,9.9h5.4c0.9,0,1.7-0.6,1.8-1.5c0-0.8-0.6-1.5-1.4-1.6
					c-0.8-0.2-1.4-0.7-1.8-1.3c-0.5-0.7-1-1.4-1.5-2.1c-1-1.4-2.9-1.8-4.4-0.8c-0.4,0.2-0.7,0.6-0.9,0.9c-0.4,0.6-0.9,1.3-1.3,2
					s-1.1,1.3-2,1.5c-0.7,0.2-1.1,0.7-1.2,1.4c0,0.4,0.4,1,1,1.3c0.3,0.1,0.7,0.2,1,0.2C23.8,9.9,25.6,9.9,27.3,9.9z M32,32.2
					L27.4,37l0.9,1l4.6-4.8L32,32.2z M34.8,34.3L33,35.9c2,0,4,0,6,0c0.4,0,0.8-0.4,0.8-0.8C38.1,35.3,36.3,35,34.8,34.3z"/>
				<path class="st0" d="M25.5,17.2h-6.4c-0.4,0.1-0.8-0.1-0.9-0.5c-0.2-0.3-0.1-0.8,0.1-1.1s0.6-0.4,0.9-0.4h9.9c0.9,0,1.9,0,2.8,0
					c0.5,0,0.9,0.4,0.9,0.9c0.1,0.5-0.2,0.9-0.7,1c-0.2,0-0.3,0-0.5,0C29.7,17.3,27.5,17.2,25.5,17.2z"/>
				<path class="st0" d="M22.8,22.9c-1.2,0-2.5,0-3.7,0c-0.7,0-1-0.3-1.1-0.9c0-0.5,0.3-1,0.9-1c0.1,0,0.1,0,0.2,0h7.6
					c0.5,0,1,0.3,1.1,0.9c0,0.5-0.3,1-0.9,1.1c-0.1,0-0.1,0-0.2,0C25.4,22.9,24.1,22.9,22.8,22.9z"/>
				<path class="st0" d="M22,27.1h2.9c0.5,0,1,0.4,1,1c0,0.5-0.4,1-1,1l0,0c-2,0-3.9,0-5.9,0c-0.5,0-1-0.4-1-1c0-0.5,0.4-1,1-1l0,0
					H22z"/>
				<path class="st0" d="M27.1,6.2c-0.8,0-1.5-0.7-1.5-1.5s0.7-1.5,1.5-1.5s1.5,0.7,1.5,1.5C28.7,5.5,28,6.2,27.1,6.2L27.1,6.2z"/>
			</g>
		</g>
	</g>
</g>
<line class="st1" x1="20.2" y1="80.5" x2="0" y2="80.5"/>
<line class="st1" x1="60" y1="80.5" x2="39.8" y2="80.5"/>
<polygon class="st2" points="31.6,80.3 34.6,75.7 34.6,74.8 32.3,74.8 30,78.5 27.6,74.8 25.4,74.8 25.4,75.7 28.4,80.3 25.2,85.1 
	25.2,86.1 27.5,86.1 29.8,82.5 30,82.1 32.5,86.1 34.8,86.1 34.8,85.1 "/>
</svg>
