<?xml version="1.0" encoding="utf-8"?>
<!-- Generator: Adobe Illustrator 23.0.1, SVG Export Plug-In . SVG Version: 6.00 Build 0)  -->
<svg version="1.1" id="Layer_1" xmlns="http://www.w3.org/2000/svg" xmlns:xlink="http://www.w3.org/1999/xlink" x="0px" y="0px"
	 viewBox="0 0 60 86.1" style="enable-background:new 0 0 60 86.1;" xml:space="preserve">
<style type="text/css">
	.st0{fill:#FFFFFF;}
	.st1{fill:none;stroke:#0C6D72;stroke-width:2;stroke-miterlimit:10;}
	.st2{fill:#0C6D72;}
</style>
<title>buying-act</title>
<g>
	<g id="layer">
		<g id="layer-2">
			<path class="st0" d="M23.8,28.4h-3.2c-0.7,0-0.9-0.2-0.9-0.9V16.6h-6.8V21h-1.3c0-0.1,0-0.2,0-0.3v-4.6c0-0.6,0.2-0.8,0.8-0.8
				h7.2c0-0.4,0-0.8,0.1-1.1c0.4-2.1,2.2-3.6,4.3-3.6c3.1,0,6.2,0,9.3,0c2.4,0.1,4.4,2.1,4.4,4.5c0,0.1,0,0.2,0,0.4H45
				c0.7,0,0.9,0.2,0.9,0.9v5.1c0,0.1,0,0.2,0,0.4h-1.3v-5.1h-6.7v10.8c0,0.7-0.2,1-1,1h-3.1v10.6c0,0.7-0.2,0.9-0.9,0.9h-8.2
				c-0.8,0-0.9-0.2-0.9-0.9L23.8,28.4L23.8,28.4z"/>
			<path class="st0" d="M39.9,1.6l-1.2-0.3c-0.4,0-0.6-0.4-0.6-0.7c0,0,0-0.1,0-0.1C38.2,0.1,38.6-0.1,39,0c0,0,0,0,0,0l2.6,0.6
				c0.5,0.1,0.7,0.4,0.5,0.9c-0.3,0.9-0.7,1.8-1,2.7c-0.1,0.3-0.4,0.5-0.8,0.4c0,0,0,0,0,0c-0.4-0.1-0.6-0.5-0.5-0.8c0,0,0,0,0,0
				c0.1-0.3,0.2-0.5,0.3-0.8l-0.3,0.2l-3.4,2.1c-0.5,0.3-0.7,0.3-1-0.2L34.1,3l-0.3-0.4L33,3.1c0.3,0.8,0.3,1.6,0.1,2.4
				c-0.5,2.4-2.9,3.9-5.3,3.3c-0.8-0.2-1.5-0.6-2.1-1.1c-0.6-0.6-1.3-1.1-1.9-1.6s-1.2-0.9-1.8-1.3c-0.8,1.1-1.6,2.2-2.5,3.2
				c-0.1,0.2-0.3,0.4-0.5,0.4c-0.3,0-0.6-0.1-0.8-0.3c-0.2-0.2-0.1-0.5,0.1-0.8l2.3-3c0.2-0.3,0.4-0.5,0.6-0.8
				c0.1-0.3,0.5-0.4,0.8-0.2c0.1,0,0.1,0.1,0.2,0.1l2,1.5c-0.1-2,1.1-3.8,3-4.4c1.8-0.7,3.9-0.1,5,1.5l1.3-0.8
				c0.2-0.2,0.6-0.3,0.8,0c0.1,0.1,0.1,0.2,0.2,0.3c0.5,0.8,1,1.6,1.5,2.4L39.9,1.6z"/>
			<path class="st0" d="M45.3,23c3,0,5.4,2.4,5.5,5.4c0,3-2.4,5.5-5.4,5.5s-5.5-2.4-5.5-5.4S42.2,23,45.3,23
				C45.2,23,45.2,23,45.3,23z M45.3,32.6c2.3,0,4.1-1.9,4.1-4.2s-1.9-4.1-4.2-4.1c-2.3,0-4.1,1.9-4.1,4.1
				C41.1,30.7,43,32.6,45.3,32.6z"/>
			<path class="st0" d="M13,24c1.5,0.2,2.7,1.5,2.9,3c0.1,0.6-0.1,0.9-0.6,0.9c-0.3,0.1-0.6-0.2-0.7-0.5c0,0,0,0,0-0.1
				c0-0.2,0-0.4-0.1-0.7c-0.2-0.9-1.1-1.5-2.1-1.4c-1,0.1-1.8,0.9-1.8,1.9c0,1,0.7,1.8,1.6,2c0.4,0.1,0.9,0.2,1.3,0.3
				c1.4,0.3,2.3,1.6,2.2,3c-0.1,1.4-1.1,2.7-2.5,3c-0.3,0.1-0.4,0.2-0.4,0.5c0,0.3,0,0.6,0,0.8c0,0.3-0.3,0.6-0.6,0.6c0,0,0,0,0,0
				c-0.3,0-0.6-0.2-0.6-0.6c0,0,0,0,0-0.1c0-0.3,0-0.7,0-1c0-0.3-0.1-0.4-0.3-0.5c-1.2-0.5-2-1.6-2-2.9c0-0.5,0.2-0.8,0.6-0.8
				s0.6,0.2,0.7,0.7c0,1.1,1,2,2.1,1.9c0.3,0,0.6-0.1,0.9-0.3c0.9-0.5,1.3-1.7,0.7-2.7c-0.3-0.6-0.9-0.9-1.6-1
				c-0.4,0-0.8-0.1-1.1-0.2c-1.2-0.4-2.1-1.5-2.1-2.8c-0.1-1.3,0.7-2.6,1.9-3.2c0.3-0.1,0.4-0.3,0.4-0.6c0-0.3,0-0.6,0-0.9
				c0-0.4,0.2-0.7,0.6-0.7c0.4,0,0.7,0.2,0.7,0.6c0,0.1,0,0.1,0,0.2C13,23.3,13,23.7,13,24z"/>
			<path class="st0" d="M43.2,34.9c1.3,0.4,2.8,0.4,4.1,0c0.1,1,0.2,2,0.3,3c-0.1,1.3-1.1,2.3-2.4,2.2c-1.3-0.1-2.3-1.1-2.2-2.4
				C43,36.7,43.2,35.8,43.2,34.9z"/>
		</g>
	</g>
</g>
<line class="st1" x1="20.2" y1="80.5" x2="0" y2="80.5"/>
<line class="st1" x1="60" y1="80.5" x2="39.8" y2="80.5"/>
<polygon class="st2" points="31.6,80.3 34.6,75.7 34.6,74.8 32.3,74.8 30,78.5 27.6,74.8 25.4,74.8 25.4,75.7 28.4,80.3 25.2,85.1 
	25.2,86.1 27.5,86.1 29.8,82.5 30,82.1 32.5,86.1 34.8,86.1 34.8,85.1 "/>
</svg>
