<?xml version="1.0" encoding="utf-8"?>
<!-- Generator: Adobe Illustrator 23.0.1, SVG Export Plug-In . SVG Version: 6.00 Build 0)  -->
<svg version="1.1" id="Layer_1" xmlns="http://www.w3.org/2000/svg" xmlns:xlink="http://www.w3.org/1999/xlink" x="0px" y="0px"
	 viewBox="0 0 60 85.3" style="enable-background:new 0 0 60 85.3;" xml:space="preserve">
<style type="text/css">
	.st0{fill:#063332;}
	.st1{fill:none;stroke:#063332;stroke-width:2;stroke-miterlimit:10;}
</style>
<title>camera-tamp-dim</title>
<g>
	<g id="layer">
		<g id="layer-2">
			<path class="st0" d="M13.5,0c0.5,4,1.9,8,1.4,12.1c0,0.9,0.3,1.7,0.7,2.4c0.4,0.8,0.4,1.4-0.3,2c-0.4,0.4-0.6,0.9-0.6,1.4
				c0.6,4.8,1.4,9.6,2.1,14.5c0.1,0.9,0.1,1.8,0,2.8l-0.7,0.1c-0.3-0.8-0.5-1.7-0.7-2.6c-0.8-5.1-1.5-10.2-2.2-15.3
				c0-0.2-0.1-0.3-0.1-0.5c-1.8,0.2-2-0.7-1.6-2.3c0.1-0.8,0-1.5-0.2-2.2C10.6,8.9,9.9,5.3,9.2,1.7C9.1,1.2,9.6,0.6,9.8,0H13.5z"/>
			<path class="st0" d="M37.7,39.9c-4.6,0-9.3,0-13.9,0c-0.9,0-1.7-0.4-2.4-0.9c-3.5-3.2-3.5-3.2-3.5-8c0-5,0-10.1,0-15.1
				c0.1-0.8,0.5-1.6,1-2.2c2.9-4.1,7.4-4.4,11.9-4.9c7-0.8,14-0.4,20.8,1.1c1.1,0.4,2.2,0.9,3.1,1.7c2.5,1.7,3.3,4,3.2,7.1
				c-0.3,5.3,0,10.6-0.1,15.9c-0.1,0.8-0.4,1.6-0.9,2.2c-2.1,2.7-4.9,3.6-8.3,3.3S41.3,39.9,37.7,39.9z M19.3,23.9
				c0,2.5,0.2,4.9,0,7.3c-0.2,2.6,0.4,4.6,2.5,6.3c0.8,0.7,1.8,1.1,2.9,1.1c8,0,16-0.2,24,0.1c2.7,0.3,5.3-0.8,7-2.9
				c0.3-0.3,0.5-0.7,0.6-1.2c0-3.5,0-7,0-10.5L56,24.2c-0.5-0.6-1.5-1.2-1.4-1.8c0.1-0.8,0.9-1.5,1.4-2.3c0.3-1,0.4-2,0.3-3
				c0-2.2-2.7-5.4-4.9-5.9c-8.8-1.9-17.9-1.9-26.8-0.1c-2.4,0.5-3.5,2.6-5.2,4.1c-0.1,0.1-0.1,0.4-0.1,0.6v4.7
				c1.2,0,2.1,0.4,2.1,1.6S20.5,23.8,19.3,23.9L19.3,23.9z"/>
			<path class="st0" d="M2.1,32.9l6.1-2.4c0.5,1.1,1,2.2,1.6,3.4c2.3-2,3.2,0.3,4.6,1.4c-1.8-1-3.4-0.6-5.1,0.2
				c-0.2,0.1-0.9-0.3-1-0.6C7.8,33,6.6,32.5,4.8,33c-0.8,0.1-1.7,0.2-2.6,0.2L2.1,32.9z"/>
			<path class="st0" d="M9.3,29.3c-0.3-1.8-0.9-3.4-3.2-4c2.6-0.3,3.1,0,4.6,2.5l2.4-0.4l1,4.7c-0.2-0.2-0.4-0.4-0.6-0.7
				C12.2,28.9,12.2,28.9,9.3,29.3z"/>
			<path class="st0" d="M30.2,11.2v18.7c0,0.6,0,1.1,0,1.7c0.2,1.7,1.1,2.9,2.8,3c3.1,0.2,6.3,0.3,9.4,0.2c1.9-0.1,3.1-1.7,3.1-3.8
				c0.1-6.1,0.1-12.2,0.1-18.4V11c1.1-0.4,1.5,0,1.5,1c-0.1,6.6-0.1,13.2-0.1,19.7c0,2.2-1.6,4.3-3.8,4.4c-3.6,0.2-7.3,0.1-10.9-0.2
				c-2.1-0.2-3.5-2.2-3.5-4.6c-0.1-6.4,0-12.8,0-19.1C28.6,11.1,29.1,10.9,30.2,11.2z"/>
			<path class="st0" d="M31.3,26.3c0-1.8-0.1-3.6,0.1-5.4c0.1-0.8,0.5-1.4,1.2-1.9c3.3-1.6,7.1-1.6,10.4,0c0.7,0.4,1.2,1,1.3,1.8
				c0.1,3.7,0.1,7.4,0.1,11.1c0.1,0.9-0.5,1.7-1.4,1.8c-0.1,0-0.2,0-0.4,0c-3.1,0-6.3,0-9.4,0c-1.3,0-1.9-0.7-1.8-2
				C31.4,30,31.3,28.1,31.3,26.3z M42.7,32.3c0.1-0.1,0.1-0.3,0.2-0.4c0-2.7,0-5.4,0-8.2c0-3.5-0.6-4.1-4.2-4.3c-0.8,0-1.6,0-2.5,0
				c-3,0.3-3.5,0.9-3.5,3.9v9L42.7,32.3z"/>
			<path class="st0" d="M37.9,12.7c-1.5,0-3.1,0-4.6,0c-0.3,0-0.7-0.4-1-0.6c0.4-0.3,0.7-0.8,1.1-0.8c3-0.1,6-0.1,9.1,0
				c0.4,0,0.7,0.5,1.1,0.7c-0.4,0.2-0.7,0.7-1.1,0.7C40.8,12.7,39.3,12.7,37.9,12.7z"/>
			<path class="st0" d="M37.8,17.3c-1.5,0-3,0-4.5,0c-0.4,0-0.8-0.4-1.2-0.7c0.4-0.3,0.7-0.8,1.1-0.8c3-0.1,6-0.1,9.1,0
				c0.4,0,0.7,0.5,1.1,0.8c-0.4,0.2-0.8,0.6-1.2,0.7C40.8,17.3,39.3,17.3,37.8,17.3z"/>
			<path class="st0" d="M37.8,13.5c1.5,0,3,0,4.5,0c0.4,0,0.8,0.4,1.2,0.6c-0.4,0.3-0.7,0.7-1.1,0.7c-3,0.1-6.1,0.1-9.1,0
				c-0.3,0-0.7-0.4-1-0.7c0.4-0.2,0.7-0.7,1.1-0.7C34.8,13.5,36.3,13.5,37.8,13.5z"/>
			<path class="st0" d="M42.1,24.7c0,2.4-1.9,4.3-4.2,4.3c0,0,0,0,0,0l0,0c-2.3,0.1-4.3-1.8-4.3-4.1v-0.1c0.1-2.4,2.1-4.2,4.5-4.2
				C40.3,20.7,42.1,22.5,42.1,24.7L42.1,24.7L42.1,24.7z M40.6,24.9c0-1.6-1.2-2.8-2.8-2.9c-1.6,0-2.8,1.3-2.8,2.9
				c0,1.5,1.2,2.8,2.7,2.8C39.3,27.6,40.6,26.4,40.6,24.9z"/>
		</g>
	</g>
</g>
<line class="st1" x1="20.2" y1="80.5" x2="0" y2="80.5"/>
<line class="st1" x1="60" y1="80.5" x2="39.8" y2="80.5"/>
<path class="st0" d="M25.2,79.6h3.9v-3.9h1.8v3.9h3.9v1.8h-3.9v3.9h-1.8v-3.9h-3.9V79.6z"/>
</svg>
