<?xml version="1.0" encoding="utf-8"?>
<!-- Generator: Adobe Illustrator 23.0.1, SVG Export Plug-In . SVG Version: 6.00 Build 0)  -->
<svg version="1.1" id="Layer_1" xmlns="http://www.w3.org/2000/svg" xmlns:xlink="http://www.w3.org/1999/xlink" x="0px" y="0px"
	 viewBox="0 0 60 85.3" style="enable-background:new 0 0 60 85.3;" xml:space="preserve">
<style type="text/css">
	.st0{fill:#063332;}
	.st1{fill:none;stroke:#063332;stroke-width:2;stroke-miterlimit:10;}
</style>
<title>cash-register-dim</title>
<g>
	<g id="layer">
		<g id="layer-2">
			<path class="st0" d="M48.3,22.4v2.4l0.9,0.1c1.6,0.1,2.9,1.5,2.9,3.1c0,3,0,5.9,0,8.9c0,2-1.4,3.2-3.6,3.2h-38
				c-1.7,0.1-3.2-1.3-3.3-3c0-0.1,0-0.2,0-0.3c0-2.7,0-5.4,0-8c0-2.5,1.2-3.7,3.7-3.7h30.9v-2.4c-0.3,0-0.6-0.1-0.9-0.1
				c-1.7,0.1-3.3-1.2-3.4-2.9c0-0.2,0-0.4,0-0.5c0-1.2,0-2.4,0-3.7c0-1.7,1.4-3.1,3.1-3.2c0,0,0.1,0,0.1,0c2.9,0,5.9,0,8.8,0
				c1.7,0,3.1,1.4,3.2,3.1c0,0,0,0.1,0,0.1c0,1.1,0,2.3,0,3.4c0,2.4-1.2,3.6-3.6,3.6L48.3,22.4z M29.8,38.5h18.8
				c1.6,0,2.2-0.6,2.2-2.2c0-2.7,0-5.3,0-7.9c0-1.5-0.6-2.1-2.1-2.1H10.8c-1.5,0-2.1,0.6-2.1,2.1c0,2.6,0,5.2,0,7.8
				c0,1.8,0.5,2.3,2.3,2.3L29.8,38.5z M45.1,21h4.2c1,0.1,1.8-0.5,2-1.5c0-0.1,0-0.3,0-0.4c0-1.2,0-2.4,0-3.5
				c0.1-0.9-0.6-1.8-1.5-1.9c-0.1,0-0.3,0-0.4,0c-2.8,0-5.6,0-8.4,0c-0.9-0.1-1.8,0.5-1.9,1.5c0,0.1,0,0.3,0,0.4c0,1.1,0,2.3,0,3.4
				c0,1.4,0.6,2,2,2L45.1,21z M43.5,22.5v2.3h3.3v-2.3L43.5,22.5z"/>
			<path class="st0" d="M23.2,0h8.4c1.8-0.2,3.3,1.1,3.5,2.8c0,0.2,0,0.5,0,0.7v16.8c0.2,1.8-1.1,3.3-2.9,3.5c-0.2,0-0.5,0-0.7,0
				c-5.6,0-11.2,0-16.8,0c-2.3,0-3.5-1.3-3.5-3.6V3.5C11,1.8,12.3,0.2,14.1,0c0.2,0,0.5,0,0.7,0H23.2z M23.2,1.5h-8.3
				c-1.6,0-2.2,0.6-2.2,2.2c0,5.5,0,11.1,0,16.6c0,1.6,0.6,2.2,2.2,2.2h16.6c1.6,0,2.2-0.6,2.2-2.2V3.7c0-1.6-0.6-2.2-2.2-2.2
				C28.7,1.5,25.9,1.5,23.2,1.5L23.2,1.5z"/>
			<path class="st0" d="M12.2,35.5v-1.8h35.5v1.8L12.2,35.5z"/>
			<path class="st0" d="M15.5,30.3c-0.5,0.4-1.1,1-1.6,1c-0.6-0.2-1.1-0.7-1.3-1.3c-0.1-0.6,0.2-1.2,0.8-1.3c0,0,0,0,0,0
				c0.1,0,0.3,0,0.4,0c0.6,0.1,1.1,0.7,1.6,1L15.5,30.3z"/>
			<path class="st0" d="M49.1,16.6h-8.4c-0.3-0.6-0.2-0.9,0.6-0.9c2.4,0,4.9,0,7.3,0c0.3,0,0.6,0.4,0.8,0.6L49.1,16.6z"/>
			<path class="st0" d="M40.7,18.1h5.5c0.3,0.6,0.2,1-0.6,1c-1.5,0-2.9,0-4.4,0c-0.3,0-0.6-0.4-0.8-0.6L40.7,18.1z"/>
			<path class="st0" d="M15.1,11.7c0-1.8,0-3.5,0-5.2c-0.2-1.2,0.7-2.4,2-2.6c0.2,0,0.4,0,0.6,0c3.5,0,7,0,10.5,0
				c1.3-0.2,2.4,0.7,2.6,2c0,0.2,0,0.4,0,0.6c0,3.5,0,7,0,10.5c0.2,1.3-0.7,2.4-2,2.6c-0.2,0-0.4,0-0.6,0c-3.5,0-7,0-10.5,0
				c-1.3,0.2-2.4-0.7-2.6-2c0-0.2,0-0.3,0-0.5C15.1,15.2,15.1,13.5,15.1,11.7z M22.9,18c1.7,0,3.4,0,5.1,0c0.9,0,1.3-0.4,1.3-1.2
				c0-3.4,0-6.8,0-10.2c0-0.9-0.4-1.2-1.2-1.2c-3.4,0-6.8,0-10.2,0c-0.9,0-1.3,0.3-1.3,1.2c0,3.4,0,6.8,0,10.2
				c0,0.9,0.3,1.3,1.2,1.2C19.5,18,21.2,18,22.9,18z"/>
		</g>
	</g>
</g>
<line class="st1" x1="20.2" y1="80.5" x2="0" y2="80.5"/>
<line class="st1" x1="60" y1="80.5" x2="39.8" y2="80.5"/>
<path class="st0" d="M25.2,79.6h3.9v-3.9h1.8v3.9h3.9v1.8h-3.9v3.9h-1.8v-3.9h-3.9V79.6z"/>
</svg>
