<?xml version="1.0" encoding="utf-8"?>
<!-- Generator: Adobe Illustrator 23.0.1, SVG Export Plug-In . SVG Version: 6.00 Build 0)  -->
<svg version="1.1" id="Layer_1" xmlns="http://www.w3.org/2000/svg" xmlns:xlink="http://www.w3.org/1999/xlink" x="0px" y="0px"
	 viewBox="0 0 60 86.1" style="enable-background:new 0 0 60 86.1;" xml:space="preserve">
<style type="text/css">
	.st0{fill:#FFFFFF;}
	.st1{fill:none;stroke:#0C6D72;stroke-width:2;stroke-miterlimit:10;}
	.st2{fill:#0C6D72;}
</style>
<title>contextual-act</title>
<g>
	<g id="layer">
		<g id="layer-2">
			<path class="st0" d="M38.3,40c-0.6-0.6-1.3-1.3-1.9-1.9c-1.6-1.6-2.9-3.4-3.8-5.4c-1.6-3.2-0.3-7.2,3-8.8
				c1.4-0.7,2.9-0.9,4.4-0.5c2.5,0.5,4.5,2.5,5,5c0.3,1.3,0.1,2.7-0.5,3.8c-0.8,1.8-1.9,3.4-3.2,4.8C40.3,38,39.3,39,38.3,40
				L38.3,40z M38.6,26.7c-1.8,0-3.3,1.5-3.3,3.3c0,1.8,1.5,3.3,3.3,3.3c1.8,0,3.3-1.5,3.3-3.3c0,0,0,0,0,0
				C41.9,28.2,40.4,26.7,38.6,26.7C38.6,26.7,38.6,26.7,38.6,26.7L38.6,26.7z"/>
			<path class="st0" d="M29,0l0.3,0.1c1.1,0.4,1.7,1.6,1.3,2.7c-0.3,0.9-1.1,1.4-2,1.4c-1.1,0-2-0.8-2.1-1.8c-0.2-1,0.4-2,1.4-2.4
				L28.2,0H29z"/>
			<path class="st0" d="M29.9,24.9h-2.6c-0.1-0.9-0.2-1.8-0.3-2.7c-0.3-2.2-0.6-4.4-0.9-6.6c-0.1-0.5-0.3-0.9-0.5-1.3
				c-1.6-3.2-1.3-2.3-1.2-5.4c0-0.7,0-1.4,0.1-2.1c0-0.9,0.8-1.7,1.8-1.7c0,0,0,0,0,0c1.6,0,3.1,0,4.7,0c1,0,1.8,0.7,1.8,1.7
				c0,0,0,0.1,0,0.1c0.1,1.4,0.2,2.8,0.2,4.2c0,0.4-0.1,0.8-0.3,1.2c-0.2,0.4-0.4,0.8-0.6,1.2c-0.7,1.3-1.1,2.7-1.3,4.1
				C30.5,19.9,30.2,22.4,29.9,24.9z"/>
			<path class="st0" d="M9.6,31.6c-1.6-1.3-2.8-3-3.7-4.8c-1-2-0.1-4.5,1.9-5.5c0.3-0.2,0.7-0.3,1-0.3c2.1-0.6,4.3,0.6,5,2.7
				c0.3,0.9,0.2,1.9-0.2,2.8c-0.7,1.6-1.8,3-3.1,4.2C10.2,31.1,9.9,31.3,9.6,31.6z M9.7,23.2c-1.2,0-2.1,0.9-2.1,2.1
				s0.9,2.1,2.1,2.1c1.2,0,2.1-0.9,2.1-2.1C11.9,24.1,10.9,23.2,9.7,23.2C9.7,23.2,9.7,23.2,9.7,23.2z"/>
			<path class="st0" d="M13.1,29.6c0.5-0.8,0.9-1.5,1.3-2.2c0.1-0.1,0.2-0.1,0.4-0.1c5,1.4,10.1,2,15.3,1.7h0.6c0,0.6,0,1.3,0,1.9
				c0,0.8,0.1,0.7-0.8,0.7c-3.9,0-7.8-0.3-11.7-0.8C16.5,30.5,14.9,30,13.1,29.6z"/>
			<path class="st0" d="M46.6,28.7c-0.5-1.1-1-2-1.4-3c-0.1-0.3-0.1-0.6-0.2-0.9c-0.1-0.6-0.5-1.1-1-1.5c-1.2-0.7-2.5-1.2-3.9-1.3
				c-2.6-0.3-5.2-0.4-7.9-0.3h-0.5c0.1-0.4,0.1-0.7,0.2-1.1c0-0.1,0.2-0.1,0.4-0.1c1.9,0,3.8,0,5.7,0.1c2,0,3.9,0.3,5.8,0.8
				c1.5,0.4,2.8,1.1,3.9,2.1c1.1,0.9,1.3,2.5,0.5,3.7c0,0-0.1,0.1-0.1,0.1C47.7,27.7,47.1,28.2,46.6,28.7z"/>
			<path class="st0" d="M50.9,25.6c-1.3-1.1-2.3-2.4-3-3.9c-0.8-1.7-0.2-3.7,1.5-4.5c0.2-0.1,0.5-0.2,0.7-0.3
				c1.8-0.5,3.8,0.6,4.3,2.4c0,0.2,0.1,0.3,0.1,0.5c0.1,0.6-0.1,1.2-0.4,1.8C53.3,23.2,52.2,24.5,50.9,25.6z M51,22.1
				c1,0,1.7-0.8,1.7-1.8c0-1-0.8-1.7-1.8-1.7c-1,0-1.7,0.8-1.7,1.8c0,0,0,0,0,0l0,0C49.3,21.4,50,22.1,51,22.1z"/>
			<path class="st0" d="M15,23.7l-0.5-1.2c3.6-1.3,7.3-2,11.1-2.1l0.2,1.4C22.1,21.8,18.5,22.4,15,23.7z"/>
			<path class="st0" d="M20,19.5c-0.8-0.6-1.4-1.4-1.7-2.3c-0.2-0.8,0.1-1.6,0.7-2c0.7-0.5,1.6-0.4,2.2,0.1c0.6,0.5,0.8,1.4,0.5,2.1
				C21.3,18.1,20.8,18.9,20,19.5z M21,16.7c0-0.5-0.4-0.9-0.9-0.9s-0.9,0.4-0.9,0.9s0.4,0.9,0.9,0.9S21,17.2,21,16.7
				C21,16.7,21,16.7,21,16.7z"/>
			<path class="st0" d="M37.6,19.5c-0.7-0.6-1.3-1.4-1.7-2.3c-0.3-0.7,0-1.5,0.5-1.9c0.6-0.5,1.3-0.6,2-0.3c0.6,0.3,1,1,1,1.7
				c0,0.2-0.1,0.3-0.1,0.5C38.9,18.1,38.3,18.8,37.6,19.5z M37.6,17.6c0.5,0,0.9-0.5,0.8-1c0-0.5-0.5-0.9-1-0.8
				c-0.5,0-0.8,0.4-0.8,0.9C36.6,17.2,37.1,17.6,37.6,17.6C37.6,17.6,37.6,17.6,37.6,17.6z"/>
		</g>
	</g>
</g>
<line class="st1" x1="20.2" y1="80.5" x2="0" y2="80.5"/>
<line class="st1" x1="60" y1="80.5" x2="39.8" y2="80.5"/>
<polygon class="st2" points="31.6,80.3 34.6,75.7 34.6,74.8 32.3,74.8 30,78.5 27.6,74.8 25.4,74.8 25.4,75.7 28.4,80.3 25.2,85.1 
	25.2,86.1 27.5,86.1 29.8,82.5 30,82.1 32.5,86.1 34.8,86.1 34.8,85.1 "/>
</svg>
