<?xml version="1.0" encoding="utf-8"?>
<!-- Generator: Adobe Illustrator 23.0.1, SVG Export Plug-In . SVG Version: 6.00 Build 0)  -->
<svg version="1.1" id="Layer_1" xmlns="http://www.w3.org/2000/svg" xmlns:xlink="http://www.w3.org/1999/xlink" x="0px" y="0px"
	 viewBox="0 0 60 84.2" style="enable-background:new 0 0 60 84.2;" xml:space="preserve">
<style type="text/css">
	.st0{fill:none;stroke:#0C6D72;stroke-width:2;stroke-miterlimit:10;}
	.st1{fill:#0C6D72;}
	.st2{fill:#FFFFFF;}
</style>
<title>crowd-act</title>
<g>
	<g id="layer">
		<line class="st0" x1="20.2" y1="78.5" x2="0" y2="78.5"/>
		<line class="st0" x1="60" y1="78.5" x2="39.8" y2="78.5"/>
		<polygon class="st1" points="31.6,78.4 34.6,73.7 34.6,72.8 32.3,72.8 30,76.5 27.6,72.8 25.4,72.8 25.4,73.8 28.4,78.3 
			25.2,83.2 25.2,84.2 27.5,84.2 29.8,80.6 30,80.2 32.5,84.2 34.8,84.2 34.8,83.2 		"/>
		<g>
			<g id="Layer_1-2">
				<path class="st2" d="M46.9,0c0.4,0.2,0.9,0.3,1.3,0.6c1.5,1,1.9,3.1,0.9,4.6s-3,1.9-4.5,1c-0.1,0-0.1-0.1-0.2-0.1
					c-0.1,0.1-0.1,0.1-0.2,0.2l-5.6,4.9c4.3,3.7,4.3,9.4,1.8,13.1c-2.2,3.3-7.5,6-13.2,2.8l-3.1,4.4c1.1,1.6,0.6,3.9-1.8,4.6h-1
					c-0.6-0.4-1.2-0.6-1.6-1.1c-0.8-0.9-0.9-2.3-0.3-3.3c0.6-1.1,1.9-1.6,3.1-1.2c0.1,0,0.2,0,0.2,0l3.1-4.4
					c-0.6-0.7-1.2-1.4-1.7-2.1c-1.5-2.3-1.8-4.7-1.3-7.4c0.1-0.4-0.1-0.5-0.3-0.6c-1.9-0.9-3.9-1.8-5.8-2.7c-0.8,0.8-1.8,1.3-3,1.3
					c-1.7-0.1-3.3-1.7-3.3-3.6c0.1-1.8,1.5-3.4,3.3-3.4c2.2,0,3.7,1.5,3.7,3.6c0,0.4,0.1,0.6,0.5,0.8c1.9,0.8,3.7,1.7,5.5,2.5
					c0,0,0,0,0.1,0c2.9-5.8,9.5-6.8,13.7-4.3l6.1-5.4c-0.6-1.2-0.5-2.4,0.3-3.5c0.5-0.8,1.3-1.1,2.1-1.4C45.7,0,46.9,0,46.9,0z
					 M37.9,24.6c2.3-1.9,3.2-5.7,2.1-8.7c-1.3-3.4-4.7-5.5-8.3-5.2c-3.4,0.3-6.3,2.8-7.2,6.2c-0.7,2.9,0.5,6.6,2.7,8
					c-0.1-1.2,0.2-2.1,1-3s1.9-1,3.1-1c-1.7-1.1-2.3-2.2-1.9-3.7c0.3-1.2,1.5-2.3,2.9-2.3c1.1,0,2.3,0.5,2.9,1.9
					c0.7,1.8,0,3.2-1.7,4.1C36.7,21.1,37.8,22,37.9,24.6z M13.9,12.9c1,0,1.8-0.8,1.9-1.8l0,0c0-1-0.8-1.8-1.8-1.8s-1.8,0.9-1.8,1.9
					C12.1,12.1,12.9,12.9,13.9,12.9z M47.9,3.3c0-0.9-0.7-1.6-1.6-1.6l0,0c-0.8,0-1.7,0.8-1.6,1.7c0,0.9,0.8,1.6,1.7,1.6
					C47.2,4.9,47.9,4.2,47.9,3.3z M23,33.2c0-0.6-0.5-1.2-1.1-1.2s-1.2,0.5-1.2,1.1v0.1c0,0.6,0.5,1.2,1.2,1.2
					C22.4,34.4,22.9,33.9,23,33.2z"/>
			</g>
		</g>
	</g>
</g>
</svg>
