<?xml version="1.0" encoding="utf-8"?>
<!-- Generator: Adobe Illustrator 25.0.1, SVG Export Plug-In . SVG Version: 6.00 Build 0)  -->
<svg version="1.1" id="Layer_1" xmlns="http://www.w3.org/2000/svg" xmlns:xlink="http://www.w3.org/1999/xlink" x="0px" y="0px"
	 viewBox="0 0 60 85.3" style="enable-background:new 0 0 60 85.3;" xml:space="preserve">
<style type="text/css">
	.st0{fill:#063332;}
</style>
<g id="Layer_2_1_">
	<g id="layer">
		<rect y="79.5" class="st0" width="20.2" height="2"/>
		<rect x="39.8" y="79.5" class="st0" width="20.2" height="2"/>
		<path class="st0" d="M25.2,79.6h3.9v-3.9h1.8v3.9h3.9v1.8h-3.9v3.9h-1.8v-3.9h-3.9V79.6z"/>
		<g>
			<path class="st0" d="M23.3,23.3c0-7.4,6-13.4,13.4-13.4s13.4,6,13.4,13.4s-6,13.4-13.4,13.4C29.2,36.6,23.3,30.7,23.3,23.3z
				 M36.5,34.4c6.2,0,11.1-5,11.1-11.1s-5-11.1-11.1-11.1s-11.1,5-11.1,11.1S30.5,34.4,36.5,34.4z"/>
			<path class="st0" d="M43.3,9.9c-0.4,0-0.7,0-1.1,0c0-0.4,0-0.7,0-0.9c0-0.3,0-0.7,0-0.9s-0.1-0.3-0.3-0.3c-2.8,0-5.6,0-8.4,0
				c-0.5,0-0.9-0.1-1.3-0.3C31.4,7,31,6.4,31,5.5c0-1.3,0-2.7,0-4c0-0.1,0-0.2,0-0.4c-0.1,0-0.2,0-0.3,0c-6.2,0-12.3,0-18.5,0
				c-0.7,0-1.2,0.5-1.2,1.2c0,11.8,0,23.6,0,35.3c0,0.7,0.5,1.2,1.2,1.2c9.5,0,19.2,0,28.7,0c0.7,0,1.2-0.5,1.2-1.2
				c0-0.3,0-0.6,0-0.8s0-0.2,0.2-0.2c0.3,0,0.5,0,0.7,0c0.1,0,0.2,0.1,0.2,0.2c0,0.5,0,0.9,0,1.3c-0.1,1-1,1.9-2.1,1.9
				c-1.7,0-3.5,0-5.1,0c-5.7,0-11.3,0-17,0c-2.2,0-4.5,0-6.7,0c-1.3,0-2.2-0.9-2.2-2.2c0-5,0-9.8,0-14.8c0-5.7,0-11.3,0-17
				c0-1.2,0-2.5,0-3.7C10,0.9,10.9,0,12.2,0C17.5,0,22.8,0,28,0c1.2,0,2.3,0,3.6,0c0.5,0,0.9,0.1,1.3,0.4c3.2,1.9,6.3,3.7,9.4,5.6
				c0.7,0.4,1,0.9,1.1,1.7C43.3,8.4,43.3,9.2,43.3,9.9z"/>
			<path class="st0" d="M14.3,7.7c0-0.7,0-1.5,0-2.1c4.9,0,9.6,0,14.5,0c0,0.7,0,1.4,0,2.1C24,7.7,19.2,7.7,14.3,7.7z"/>
			<path class="st0" d="M14.3,32.2c3.4,0,6.6,0,10,0c0,0.7,0,1.5,0,2.2c-3.4,0-6.6,0-10,0C14.3,33.6,14.3,33,14.3,32.2z"/>
			<path class="st0" d="M23.2,16.6c-3,0-5.9,0-8.9,0c0-0.7,0-1.4,0-2.1c3,0,5.9,0,8.9,0C23.2,15.1,23.2,15.9,23.2,16.6z"/>
			<path class="st0" d="M21,23.4c0,0.7,0,1.4,0,2.1c-2.2,0-4.4,0-6.6,0c0-0.7,0-1.4,0-2.1C16.5,23.4,18.8,23.4,21,23.4z"/>
			<path class="st0" d="M35.5,19.4c0-1.3,0-2.6,0-3.9c0-0.8,0.9-1.4,1.7-1c0.3,0.2,0.5,0.5,0.6,0.8c0,0.2,0,0.3,0,0.5
				c0,2.1,0,4.1,0,6.1c0,0.2,0.1,0.3,0.3,0.3c1.8,0,3.5,0,5.2,0c0.6,0,1,0.3,1.1,0.7c0.2,0.7-0.3,1.4-1.1,1.4c-1.8,0-3.6,0-5.3,0
				c-0.5,0-0.8,0-1.3,0c-0.7,0-1.1-0.5-1.1-1.1C35.4,22,35.4,20.7,35.5,19.4C35.4,19.4,35.4,19.4,35.5,19.4z"/>
		</g>
	</g>
</g>
</svg>
