<?xml version="1.0" encoding="utf-8"?>
<!-- Generator: Adobe Illustrator 25.0.1, SVG Export Plug-In . SVG Version: 6.00 Build 0)  -->
<svg version="1.1" id="Layer_1" xmlns="http://www.w3.org/2000/svg" xmlns:xlink="http://www.w3.org/1999/xlink" x="0px" y="0px"
	 viewBox="0 0 60 86.1" style="enable-background:new 0 0 60 86.1;" xml:space="preserve">
<style type="text/css">
	.st0{fill:#FFFFFF;}
	.st1{fill:none;stroke:#0C6D72;stroke-width:2;stroke-miterlimit:10;}
	.st2{fill:#0C6D72;}
</style>
<g>
	<path class="st0" d="M13,28.3c-0.4,0-0.7,0-1.1-0.1c-0.8-0.1-1.5-0.7-1.6-1.5c-0.1-0.7-0.1-1.4,0-2.1c0.1-0.7,0.5-1.1,1.2-1.1
		s1.1,0.4,1.2,1.1c0.1,0.4-0.1,0.8,0.2,1.1c0.3,0.2,0.7,0.1,1.1,0.1c0.7,0.1,1.1,0.5,1.1,1.2c0,0.6-0.4,1.1-1.1,1.2
		C13.6,28.3,13.2,28.3,13,28.3z"/>
	<path class="st0" d="M50.3,25.6c0,0.3,0,0.5,0,0.8c-0.1,1-0.8,1.7-1.8,1.9c-0.6,0-1.2,0.1-1.8,0c-0.7-0.1-1.1-0.6-1.1-1.2
		c0-0.6,0.4-1.1,1.1-1.2c0.3,0,0.5,0,0.8,0c0.3,0,0.4-0.1,0.4-0.4c0-0.2,0-0.4,0-0.5c0-0.8,0.5-1.3,1.2-1.3c0.7,0,1.2,0.5,1.2,1.3
		C50.3,25.1,50.3,25.3,50.3,25.6L50.3,25.6z"/>
	<path class="st0" d="M12.9,0c0.3,0,0.6,0,0.9,0C14.5,0,15,0.5,15,1.2c0,0.7-0.5,1.2-1.2,1.3c-0.3,0-0.8-0.2-1,0.1
		c-0.2,0.3-0.1,0.7-0.1,1.1c-0.1,0.6-0.5,1.1-1.2,1.1s-1.1-0.4-1.2-1.1c-0.1-0.5-0.1-1.1,0-1.7C10.4,0.7,11.1,0,12.3,0
		C12.5,0,12.7,0,12.9,0L12.9,0z"/>
	<path class="st0" d="M47.6,0c0.2,0,0.5,0,0.7,0c1.1,0,1.9,0.8,2,1.9c0,0.5,0,1.1,0,1.6c0,0.8-0.5,1.2-1.3,1.2
		c-0.7,0-1.1-0.5-1.2-1.3c0-0.9,0-0.9-1-1c-0.8,0-1.3-0.5-1.3-1.2C45.5,0.5,46,0,46.8,0C47.1,0,47.3,0,47.6,0z"/>
	<path class="st0" d="M49.1,33.4c-2-1.1-4-2.3-6.2-3.2c-1.6-0.6-3.3-1.3-4.9-2c-1-0.4-1.2-1.4-0.5-2.2c0.1-0.1,0.2-0.2,0.4-0.4
		c0.6-0.6,0.7-1.1,0.3-1.6c-0.4-0.5-0.9-0.4-1.6,0.2c-1.3,1.2-2.4,2.6-3.4,3.9c-0.4,0.5-0.9,0.9-1.6,0.9c-1,0-1.9,0-2.9,0
		c-0.9,0-1.6-0.4-2.1-1.1c-0.4-0.5-0.7-1-1.1-1.4c-0.8-0.9-1.6-1.7-2.5-2.6c-0.4-0.4-0.9-0.4-1.2,0c-0.3,0.3-0.4,0.8-0.1,1.2
		c0.1,0.2,0.3,0.4,0.5,0.5c0.2,0.2,0.4,0.4,0.5,0.6c0.3,0.5,0.1,1.3-0.4,1.6c-1.2,0.6-2.5,1.3-3.9,1.7c-2.9,0.8-5.4,2.5-8,3.9
		c-0.7,0.4-1.1,1.1-1.1,1.8c0,0.5,0,1.1,0,1.6c0,1.9,1,2.8,2.9,2.9c0.2,0,0.4,0,0.6,0c11.3,0,22.7,0,34.1,0c0.2,0,0.4,0,0.5,0
		c0.1,0,0.2,0,0.3,0c0.1-0.1,0.2-0.1,0.4-0.1c1.3-0.3,2-1,2.3-2.3c0.1-0.5,0-1,0-1.5C50.6,34.9,50.1,34,49.1,33.4z M21,38.1
		c-1.4,0-2.8,0-4.3,0c-1.3,0-2.6,0-3.8,0c-0.2,0-0.4,0-0.6,0c-0.8-0.1-1-0.3-1.1-1.1c0-0.3,0-0.7,0-1c0-0.6,0.5-1,0.9-1.2
		c1.5-0.8,3.1-1.6,4.6-2.4c0.8-0.4,1.7-0.7,2.6-1c0.4-0.1,0.5,0,0.5,0.4c0,1.4,0.1,2.7,0.5,4c0.2,0.7,0.5,1.4,1,2
		C21.4,38,21.4,38.2,21,38.1z M36.9,37.1c-0.5,0.7-1.2,1.1-2.1,1.1c-2.7,0-5.3,0-7.9,0c-0.6,0-1.2,0-1.9,0c-0.8,0-1.5-0.3-2-0.9
		c-1-1.1-1.4-2.4-1.5-3.8c0-0.8,0-1.6,0-2.3c0-0.5,0.5-1.1,1.1-1.1c0.2,0,0.2,0.1,0.2,0.2c0,0.3,0,0.5,0,0.8c0,0.5,0.4,0.8,0.9,0.8
		c0.5,0,0.8-0.4,0.9-0.8c0-0.6,0-1.3,0-1.9c0-0.1,0-0.3,0.1-0.3c0.1,0,0.2,0.1,0.2,0.2c0.3,0.3,0.5,0.6,0.8,0.9
		c0.7,0.7,1.6,1.1,2.6,1.1c1,0,2,0,3,0c1.5,0,2.6-0.5,3.4-1.6c0.1-0.2,0.3-0.4,0.6-0.5c0,0.7,0,1.2,0,1.8c0,0.2,0,0.5,0.1,0.7
		c0.1,0.4,0.4,0.5,0.8,0.6c0.4,0,0.7-0.2,0.8-0.5c0.1-0.2,0.1-0.5,0.1-0.8c0-0.6,0.1-0.6,0.6-0.4c0.4,0.2,0.5,0.5,0.6,0.9
		C38.6,33.3,38.3,35.3,36.9,37.1z M48.7,36.3c0,0.1,0,0.2,0,0.3c0,1.3-0.2,1.6-1.6,1.6c-1.3,0-2.6,0-3.9,0l0,0c-1.4,0-2.8,0-4.3,0
		c-0.3,0-0.5-0.1-0.2-0.4c1-1.3,1.2-2.8,1.4-4.4c0-0.5,0.1-1,0.1-1.4c0.1-0.6,0.1-0.6,0.7-0.5c0.8,0.2,1.5,0.5,2.2,0.8
		c1.6,0.8,3.1,1.7,4.7,2.5C48.4,35.1,48.9,35.5,48.7,36.3z"/>
	<path class="st0" d="M52.8,20.3c-4.1,0-8.1,0-12.2,0c-0.2,0-0.5,0.1-0.5-0.2c0-0.3,0.2-0.4,0.4-0.5c2.4-1.4,3.3-3.5,2.9-6.2
		c-0.2-1.4-0.7-1.9-2.1-2c-0.4,0-0.5-0.2-0.5-0.5c0-0.9,0-1.7,0-2.6c-0.3-2.3-1.3-4.2-3.3-5.5C32.7-0.1,28-0.1,23.3,2.3
		c-2.2,1.2-3.5,3.1-3.8,5.6c-0.1,1-0.1,1.9-0.1,2.8c0,0.4-0.1,0.6-0.5,0.6c-0.1,0-0.2,0-0.3,0c-0.8,0-1.4,0.5-1.6,1.2
		c-0.6,2.3-0.2,4.3,1.5,6c0.4,0.4,0.9,0.7,1.4,1c0.1,0.1,0.3,0.2,0.2,0.4c0,0.2-0.3,0.2-0.4,0.2c-0.1,0-0.3,0-0.4,0
		c-3.9,0-7.9,0-11.8,0c-0.3,0-0.5,0-0.8,0.1c-0.5,0.1-0.6,0.4-0.6,0.8c0,0.4,0.1,0.7,0.5,0.8C6.6,22,6.9,22,7.2,22
		c15.2,0,30.4,0,45.7,0c0.5,0,1-0.1,1.3-0.6c0-0.2,0-0.4,0-0.6C53.9,20.3,53.3,20.3,52.8,20.3z M40.4,14.8c0-0.4,0.1-0.7,0.2-1.1
		c0-0.3,0.2-0.5,0.5-0.5c0.3,0,0.3,0.3,0.4,0.5c0.2,1.5-0.1,2.7-1.4,3.7C40.2,16.5,40.4,15.6,40.4,14.8z M18.6,16
		c-0.3-0.8-0.4-1.6-0.2-2.4c0-0.2,0.1-0.4,0.3-0.4c0.2,0,0.4,0,0.5,0.3c0.1,0.3,0.1,0.5,0.2,0.8c0.1,1,0.3,2,0.5,3.1
		C19.2,17.1,18.9,16.5,18.6,16z M38.3,17.1c-0.2,0.8-0.1,1.7-0.1,2.6c0,0.5-0.2,0.6-0.6,0.6c-2.6,0-5.1,0-7.6,0c-2.5,0-5,0-7.5,0
		c-0.5,0-0.6-0.1-0.6-0.6c0.1-1.7-0.3-3.3-0.5-5c-0.3-2.2-0.4-4.5,0-6.8c0.3-1.8,1.3-3.2,2.9-4c3.8-2,7.6-2,11.4,0
		c2.1,1.1,3.1,2.9,3.2,5.2C39,11.7,38.8,14.4,38.3,17.1z"/>
</g>
<line class="st1" x1="20.2" y1="80.5" x2="0" y2="80.5"/>
<line class="st1" x1="60" y1="80.5" x2="39.8" y2="80.5"/>
<polygon class="st2" points="31.6,80.3 34.6,75.7 34.6,74.8 32.3,74.8 30,78.5 27.6,74.8 25.4,74.8 25.4,75.7 28.4,80.3 25.2,85.1 
	25.2,86.1 27.5,86.1 29.8,82.5 30,82.1 32.5,86.1 34.8,86.1 34.8,85.1 "/>
</svg>
