<?xml version="1.0" encoding="utf-8"?>
<!-- Generator: Adobe Illustrator 23.0.1, SVG Export Plug-In . SVG Version: 6.00 Build 0)  -->
<svg version="1.1" id="Layer_1" xmlns="http://www.w3.org/2000/svg" xmlns:xlink="http://www.w3.org/1999/xlink" x="0px" y="0px"
	 viewBox="0 0 60 85.3" style="enable-background:new 0 0 60 85.3;" xml:space="preserve">
<style type="text/css">
	.st0{fill:#063332;}
	.st1{fill:none;stroke:#063332;stroke-width:2;stroke-miterlimit:10;}
</style>
<title>gender-dim</title>
<g>
	<g id="layer">
		<g id="layer-2">
			<path class="st0" d="M25.7,13.1c1.2,4.7,2.4,9.4,3.5,14.1h-3.5c0,0.1,0,0.2,0,0.3v11.3c0,0.4-0.2,0.8-0.6,1
				c-0.7,0.4-1.5,0.4-2.2,0c-0.3-0.2-0.5-0.5-0.5-0.9c0-3.7,0-7.4,0-11.1v-0.5h-0.9v11.5c0,0.4-0.2,0.7-0.5,0.9
				c-0.7,0.4-1.4,0.4-2.1,0c-0.4-0.2-0.7-0.6-0.6-1c0-2.5,0-4.9,0-7.4v-4.2h-3.6c0.3-0.9,0.5-1.9,0.8-2.8c0.3-0.9,0.5-1.9,0.7-2.8
				c0.2-0.9,0.5-1.9,0.7-2.8s0.5-1.9,0.7-2.8s0.5-1.9,0.7-2.9h-0.6c-0.1,0-0.1,0.1-0.1,0.2l-2.1,6c-0.3,0.8-0.6,1.5-0.8,2.3
				c-0.2,0.7-1,1.1-1.7,0.9c-0.1,0-0.3-0.1-0.4-0.2c-0.5-0.3-0.8-1-0.6-1.6c0.8-2.3,1.7-4.5,2.5-6.7c0.4-1.1,0.8-2.1,1.2-3.2
				c0-0.1,0.1-0.3,0.1-0.4C15.9,9.6,16.3,9,17,8.5c0.6-0.5,1.4-0.7,2.2-0.7c1.9,0,3.8,0,5.7,0c1,0,1.9,0.3,2.6,1
				c0.5,0.5,0.9,1.1,1,1.8c0.1,0.4,0.2,0.9,0.4,1.3c1.1,2.9,2.2,5.8,3.2,8.7c0.2,0.5,0.1,1.1-0.3,1.5c-0.4,0.4-1.1,0.6-1.7,0.3
				c-0.3-0.1-0.6-0.4-0.6-0.7c-0.5-1.5-1.1-3-1.6-4.6l-1.4-3.8c-0.1-0.1-0.1-0.2-0.3-0.2S25.9,13.1,25.7,13.1z"/>
			<path class="st0" d="M25.1,3.9C25.1,5.6,23.7,7,22,7c-1.7,0-3.1-1.4-3.1-3.1c0-1.7,1.4-3.1,3.1-3.1l0,0
				C23.7,0.8,25.1,2.1,25.1,3.9C25.1,3.9,25.1,3.9,25.1,3.9z"/>
			<path class="st0" d="M45.4,12.3h-0.8v25.4c0,0.5-0.3,1-0.8,1.3c-0.7,0.4-1.6,0.2-2.1-0.3c-0.2-0.2-0.3-0.5-0.3-0.8V22.7
				c0-0.1,0-0.2,0-0.2h-0.9v15.3c0,0.7-0.4,1.3-1.1,1.4c-0.3,0.1-0.7,0.1-1,0c-0.7-0.1-1.2-0.7-1.1-1.4V12.3h-0.8v9.3
				c0.1,0.6-0.3,1.1-0.8,1.3c-0.5,0.2-1.1,0.2-1.5-0.2c-0.3-0.2-0.5-0.6-0.5-1v-6.9c0-1.6,0-3.2,0-4.8c0-0.7,0.2-1.3,0.7-1.8
				c0.5-0.6,1.3-1.1,2.1-1.3C36.7,7,36.8,7,37,7h8c0.8,0.1,1.6,0.4,2.1,1c0.7,0.6,1,1.4,1,2.3c0,3.8,0,7.6,0.1,11.4
				c0,0.3-0.1,0.6-0.2,0.8c-0.4,0.5-1,0.7-1.6,0.6c-0.6-0.2-1-0.7-0.9-1.3v-9L45.4,12.3z"/>
			<path class="st0" d="M41,0c1.7,0,3.1,1.4,3.1,3.1c0,1.7-1.4,3.1-3.1,3.1c-1.7,0-3.1-1.4-3.1-3.1c0,0,0,0,0,0l0,0
				C37.9,1.4,39.3,0,41,0z"/>
		</g>
	</g>
</g>
<line class="st1" x1="20.2" y1="80.5" x2="0" y2="80.5"/>
<line class="st1" x1="60" y1="80.5" x2="39.8" y2="80.5"/>
<path class="st0" d="M25.2,79.6h3.9v-3.9h1.8v3.9h3.9v1.8h-3.9v3.9h-1.8v-3.9h-3.9V79.6z"/>
</svg>
