<?xml version="1.0" encoding="utf-8"?>
<!-- Generator: Adobe Illustrator 23.0.1, SVG Export Plug-In . SVG Version: 6.00 Build 0)  -->
<svg version="1.1" id="Layer_1" xmlns="http://www.w3.org/2000/svg" xmlns:xlink="http://www.w3.org/1999/xlink" x="0px" y="0px"
	 viewBox="0 0 60 85.3" style="enable-background:new 0 0 60 85.3;" xml:space="preserve">
<style type="text/css">
	.st0{fill:#063332;}
	.st1{fill:none;stroke:#063332;stroke-width:2;stroke-miterlimit:10;}
</style>
<title>historical-dim</title>
<g>
	<g id="layer">
		<path class="st0" d="M28,40c-0.9-0.4-1.6-1.1-2.3-1.8c-0.1-0.2-0.4-0.3-0.6-0.3c-3.2,0-6.4,0-9.6,0C14,38,12.7,37,12.4,35.6
			c-0.1-0.3-0.1-0.7-0.1-1c0-8.2,0-16.5,0-24.8c0-0.5,0-1,0.1-1.5c0.3-1.3,1.4-2.2,2.7-2.2c1.2,0,2.4,0,3.5,0c0.2,0,0.4-0.1,0.6-0.2
			c0.5-0.4,1-0.7,1.7-0.9c0.3-0.1,0.6-0.3,0.8-0.6c0.5-0.8,1-1.5,1.5-2.2c1.6-2.3,4.7-2.8,7-1.2c0.5,0.3,0.9,0.8,1.3,1.3
			c0.5,0.7,1,1.5,1.5,2.2c0.2,0.3,0.5,0.5,0.8,0.6c0.6,0.2,1.1,0.5,1.6,0.9C35.5,6,35.7,6,35.9,6C37,6,38,6,39.1,6.1
			c1.5,0.1,2.7,1.4,2.7,2.9c0,2.1,0,4.2,0,6.3c0,0.5-0.4,1-0.9,1c0,0-0.1,0-0.1,0c-0.6,0-1-0.4-1-1v-6c0-1-0.3-1.3-1.3-1.3h-2
			c0,0.4,0,0.8-0.1,1.1c-0.4,1.6-1.8,2.7-3.5,2.7c-3.7,0-7.4,0-11.1,0c-2,0-3.6-1.6-3.6-3.5c0-0.1,0-0.1,0-0.2c-0.1,0-0.1,0-0.2,0
			c-0.9,0-1.8,0-2.6,0c-0.6,0-1,0.4-1,1c0,0,0,0,0,0.1c0,8.6,0,17.2,0,25.8c0,0.6,0.4,1,0.9,1.1c0,0,0.1,0,0.1,0c0.2,0,0.3,0,0.5,0
			h9.5c0.2,0,0.5-0.1,0.6-0.3c1.6-1.7,3.3-3.4,4.9-5.1c-0.2-0.5-0.5-1-0.6-1.6c-1.5-4.7,1.1-9.7,5.8-11.2s9.7,1.1,11.2,5.8
			c1.4,4.5-0.8,9.3-5.2,11c-0.2,0.1-0.3,0.3-0.3,0.5c-0.1,1.6-1.4,2.9-3.1,2.9h-7.3c-0.2,0-0.5,0.1-0.6,0.3c-0.3,0.4-0.6,0.7-1,1
			c-0.3,0.3-0.7,0.6-1.1,0.8L28,40z M31.7,26.2c0,3.9,3.2,7.1,7.1,7.1c3.9-0.1,6.9-3.3,6.9-7.1s-3.3-6.9-7.1-6.9
			C34.8,19.4,31.8,22.4,31.7,26.2z M27.3,9.9h5.4c0.9,0,1.7-0.6,1.8-1.5c0-0.8-0.6-1.5-1.4-1.6c-0.7-0.2-1.4-0.7-1.8-1.3
			c-0.5-0.7-1-1.4-1.5-2.2c-1-1.4-2.9-1.8-4.4-0.8c-0.3,0.2-0.6,0.5-0.9,0.9c-0.4,0.6-0.9,1.3-1.3,2c-0.4,0.8-1.2,1.3-2,1.5
			c-0.7,0.2-1.1,0.7-1.2,1.4c0,0.6,0.3,1.2,0.9,1.4c0.3,0.1,0.7,0.2,1,0.2C23.8,9.9,25.6,9.9,27.3,9.9z M32,32.2L27.4,37l0.9,1
			l4.6-4.8L32,32.2z M34.7,34.3L33,35.9c2,0,4,0,6,0c0.4,0,0.8-0.4,0.8-0.8C38.1,35.4,36.3,35.1,34.7,34.3L34.7,34.3z"/>
		<path class="st0" d="M25.5,17.3c-2.1,0-4.3,0-6.4,0c-0.4,0-0.7-0.2-0.9-0.5C18,16.4,18,16,18.3,15.7c0.2-0.3,0.6-0.4,1-0.4h9.9
			c0.9,0,1.9,0,2.8,0c0.5,0,0.9,0.4,0.9,0.8c0,0.5-0.3,0.9-0.7,1c-0.2,0-0.3,0-0.5,0L25.5,17.3z"/>
		<path class="st0" d="M22.9,22.9h-3.7c-0.7,0-1-0.4-1-0.9c0-0.5,0.3-1,0.8-1c0.1,0,0.1,0,0.2,0h7.6c0.5,0,1,0.4,1,0.9
			c0,0,0,0.1,0,0.1c0,0.6-0.4,1-1,1L22.9,22.9z"/>
		<path class="st0" d="M22,27.1h2.9c0.5-0.1,1.1,0.2,1.2,0.7s-0.2,1.1-0.7,1.2c-0.2,0-0.3,0-0.5,0H19c-0.5,0-1-0.3-1-0.8
			c0-0.1,0-0.1,0-0.2c0-0.5,0.3-1,0.9-1c0,0,0.1,0,0.1,0L22,27.1z"/>
		<path class="st0" d="M27.2,6.2c-0.8,0-1.5-0.7-1.5-1.5s0.7-1.5,1.5-1.5c0.8,0,1.5,0.7,1.5,1.5C28.7,5.5,28,6.2,27.2,6.2
			C27.2,6.2,27.2,6.2,27.2,6.2z"/>
	</g>
</g>
<line class="st1" x1="20.2" y1="80.5" x2="0" y2="80.5"/>
<line class="st1" x1="60" y1="80.5" x2="39.8" y2="80.5"/>
<path class="st0" d="M25.2,79.6h3.9v-3.9h1.8v3.9h3.9v1.8h-3.9v3.9h-1.8v-3.9h-3.9V79.6z"/>
</svg>
