<?xml version="1.0" encoding="utf-8"?>
<!-- Generator: Adobe Illustrator 23.0.1, SVG Export Plug-In . SVG Version: 6.00 Build 0)  -->
<svg version="1.1" id="Layer_1" xmlns="http://www.w3.org/2000/svg" xmlns:xlink="http://www.w3.org/1999/xlink" x="0px" y="0px"
	 viewBox="0 0 60 86.1" style="enable-background:new 0 0 60 86.1;" xml:space="preserve">
<style type="text/css">
	.st0{fill:none;stroke:#0C6D72;stroke-width:2;stroke-miterlimit:10;}
	.st1{fill:#0C6D72;}
	.st2{fill:#FFFFFF;}
</style>
<title>maps-act</title>
<g>
	<g id="layer">
		<line class="st0" x1="20.2" y1="80.5" x2="0" y2="80.5"/>
		<line class="st0" x1="60" y1="80.5" x2="39.8" y2="80.5"/>
		<polygon class="st1" points="31.6,80.3 34.6,75.7 34.6,74.8 32.3,74.8 30,78.5 27.6,74.8 25.4,74.8 25.4,75.7 28.4,80.3 
			25.2,85.1 25.2,86.1 27.5,86.1 29.8,82.5 30,82.1 32.5,86.1 34.8,86.1 34.8,85.1 		"/>
		<path class="st2" d="M30,19.5c1.5,0.1,3-0.2,4.4-0.8c0.5-0.2,0.9-0.5,1.3-0.9c0.6-0.5,0.6-1.5,0.1-2c0,0,0,0-0.1-0.1
			c-0.4-0.5-1-0.8-1.6-1c-0.5-0.2-0.5-0.3-0.3-0.7c0.4-0.6,0.7-1.3,1.1-1.9c0.2-0.4,0.3-0.4,0.7-0.2l7.2,3.7l1.7,0.9
			c0.2,0.1,0.4,0.1,0.4,0.3s-0.2,0.2-0.4,0.3l-5.9,3l-8.2,4.3c-0.2,0.1-0.5,0.1-0.7,0l-9.9-5.1L15.5,17c-0.1-0.1-0.3-0.1-0.3-0.3
			s0.1-0.2,0.3-0.3l9-4.7c0.3-0.2,0.4-0.1,0.6,0.2c0.4,0.7,0.8,1.4,1.2,2.1c0.1,0.3,0,0.4-0.2,0.5c-0.4,0.1-0.7,0.3-1.1,0.5
			c-0.5,0.3-0.8,0.7-1,1.2c-0.2,0.5-0.1,1,0.3,1.4c0.5,0.5,1.1,0.9,1.8,1.2C27.4,19.3,28.7,19.5,30,19.5z"/>
		<path class="st2" d="M30,32.3l-0.3-0.1l-5.8-3c-2.1-1.1-4.3-2.2-6.4-3.3l-2.1-1.1c-0.1,0-0.3-0.1-0.3-0.2s0.1-0.2,0.3-0.3
			c1.4-0.7,2.8-1.5,4.2-2.2c0.2-0.1,0.5-0.1,0.7,0c1.7,0.9,3.5,1.8,5.2,2.7c1.3,0.7,2.7,1.4,4,2.1c0.2,0.1,0.5,0.1,0.7,0l8.1-4.2
			c0.4-0.2,0.8-0.4,1.2-0.6c0.2-0.1,0.3-0.1,0.5,0c1.5,0.8,3,1.5,4.4,2.3c0.3,0.1,0.3,0.3,0,0.4l-2.9,1.5l-6.8,3.5l-4.6,2.4
			C30.2,32.2,30.1,32.2,30,32.3z"/>
		<path class="st2" d="M20.1,29.7l0.2,0.1l9.3,4.8c0.2,0.1,0.5,0.1,0.8,0l9.2-4.8c0.2-0.1,0.4-0.1,0.6,0l4.3,2.2
			c0.1,0.1,0.3,0.1,0.3,0.3s-0.2,0.2-0.3,0.3l-8.3,4.3L30.3,40c-0.2,0.1-0.4,0.1-0.6,0c-2.1-1.1-4.3-2.2-6.4-3.3l-6.4-3.3l-1.5-0.8
			c-0.3-0.2-0.3-0.3,0-0.4c0.9-0.5,1.8-0.9,2.7-1.4l1.7-0.9C19.9,29.7,20,29.7,20.1,29.7z"/>
		<path class="st2" d="M35,3.1c-1.1-2.3-3.6-3.5-6-3c-1.7,0.2-3.2,1.3-4,2.9c-0.6,1-0.8,2.1-0.6,3.3c0.3,1.2,0.7,2.3,1.2,3.3
			c0.9,1.7,1.9,3.4,2.9,5.1c0.1,0.3,0.3,0.6,0.6,0.8l0,0c0.1,0.3,0.3,0.6,0.5,0.9c0.2,0.3,0.4,0.3,0.6,0c0.5-0.8,1.1-1.6,1.6-2.5
			c1.3-2,2.4-4.1,3.3-6.2C35.8,6.2,35.7,4.5,35,3.1z M30,8.5c-1.7,0-3-1.3-3-3s1.3-3,3-3s3,1.3,3,3S31.7,8.5,30,8.5z"/>
	</g>
</g>
</svg>
