<?xml version="1.0" encoding="utf-8"?>
<!-- Generator: Adobe Illustrator 25.0.1, SVG Export Plug-In . SVG Version: 6.00 Build 0)  -->
<svg version="1.1" id="Layer_1" xmlns="http://www.w3.org/2000/svg" xmlns:xlink="http://www.w3.org/1999/xlink" x="0px" y="0px"
	 viewBox="0 0 60 85.3" style="enable-background:new 0 0 60 85.3;" xml:space="preserve">
<style type="text/css">
	.st0{fill:#063332;}
</style>
<g id="Layer_2_1_">
	<g id="layer">
		<rect y="79.5" class="st0" width="20.2" height="2"/>
		<rect x="39.8" y="79.5" class="st0" width="20.2" height="2"/>
		<path class="st0" d="M25.2,79.6h3.9v-3.9h1.8v3.9h3.9v1.8h-3.9v3.9h-1.8v-3.9h-3.9V79.6z"/>
		<g id="Layer_2_2_">
			<g id="layer_1_">
				<path class="st0" d="M9.6,4.4L7.4,5.8C7,5.4,6.7,5.1,6.4,4.7C6.2,4.5,5.9,4.3,5.6,4.2C4.9,3.8,3.9,4,3.5,4.7
					C3.4,4.8,3.4,4.9,3.4,5C3.1,5.8,3,6.6,3.2,7.4c0.3,2.6,1,5.1,2,7.5c1.4,3.4,3.1,6.7,5.1,9.9c0,0.1,0.1,0.1,0.2,0.1
					c0-0.6-0.1-1.2-0.2-1.9c-0.5-4.4-1-8.9-1.6-13.3c0-0.8-0.2-1.6-0.3-2.4c0-0.2,0.1-0.3,0.3-0.4c2.5-1.2,5.2-2.2,7.9-2.8
					c5.5-1.4,11.1-1.9,16.7-1.6c5.2,0.3,10.4,1.4,15.3,3.2c0.9,0.3,1.8,0.8,2.7,1.1c0.2,0.1,0.3,0.3,0.3,0.5l-1,8
					c-0.3,2.4-0.6,4.9-0.9,7.4c0,0.7-0.2,1.5-0.2,2.3c0.3-0.5,0.6-0.9,0.8-1.4c2.4-3.9,4.4-8.2,5.8-12.6c0.5-1.5,0.7-3.1,0.7-4.7
					c0-0.4-0.1-0.9-0.3-1.3c-0.3-0.8-1.1-1.2-1.9-1c-0.1,0-0.2,0.1-0.2,0.1c-0.6,0.3-1.1,0.8-1.6,1.3l-0.2,0.3l-2.2-1.5
					c0.9-1.6,2.5-2.7,4.3-3.1c2.1-0.2,4.1,1.1,4.6,3.2c0.4,1.4,0.4,2.9,0.1,4.3c-0.5,3-1.4,5.9-2.7,8.7c-1.8,4-4,7.8-6.4,11.5
					c-0.5,0.8-1,1.6-1.6,2.4c-0.3,0.3-0.6,0.6-0.9,0.8c-3.1,2.3-6.6,4.2-10.4,5.4c-3,1-6.2,1.4-9.3,1.1c-2.3-0.2-4.5-0.7-6.7-1.5
					c-3.5-1.3-6.7-3.1-9.7-5.3c-0.6-0.5-1.1-1.2-1.5-1.9c-1.3-2-2.6-4.1-3.7-6.1c-2.4-4-4.3-8.4-5.5-12.9c-0.4-1.5-0.6-3-0.6-4.5
					c0-1.1,0.3-2.2,0.9-3.1c1.1-1.7,3.3-2.3,5.2-1.5C7.8,2.2,8.9,3.2,9.6,4.4z M11.3,8.6v0.1c0.2,1.7,0.4,3.5,0.6,5.2
					c0.3,2.2,0.5,4.4,0.8,6.6c0.4,3,0.7,6,1.1,9.1c0,0.2,0.1,0.3,0.2,0.4c2.5,1.8,5.2,3.3,8.1,4.4c4.1,1.6,8.6,2,12.8,0.9
					c3.9-1,7.5-2.8,10.8-5.1c0.3-0.2,0.5-0.6,0.6-1c0.2-2,0.5-4.1,0.7-6.1c0.3-2.5,0.6-4.9,0.9-7.4c0.2-1.7,0.4-3.4,0.6-5.2
					c0-0.7,0.1-1.3,0.2-1.9C36.7,4,23.3,4,11.3,8.6z"/>
				<polygon class="st0" points="32.4,19.8 39.6,9.7 35,9.7 30.1,16.7 30,17 25,9.7 20.3,9.7 27.4,19.7 19.9,30.3 24.6,30.3 
					29.9,22.6 30,22.5 35.4,30.3 40.1,30.3 				"/>
			</g>
		</g>
	</g>
</g>
</svg>
