<?xml version="1.0" encoding="utf-8"?>
<!-- Generator: Adobe Illustrator 25.0.1, SVG Export Plug-In . SVG Version: 6.00 Build 0)  -->
<svg version="1.1" id="Layer_1" xmlns="http://www.w3.org/2000/svg" xmlns:xlink="http://www.w3.org/1999/xlink" x="0px" y="0px"
	 viewBox="0 0 60 85.3" style="enable-background:new 0 0 60 85.3;" xml:space="preserve">
<style type="text/css">
	.st0{fill:none;stroke:#063332;stroke-width:2;stroke-miterlimit:10;}
	.st1{fill:#063332;}
</style>
<g id="Layer_2_1_">
	<g id="layer">
		<line class="st0" x1="20.2" y1="80.5" x2="0" y2="80.5"/>
		<line class="st0" x1="60" y1="80.5" x2="39.8" y2="80.5"/>
		<path class="st1" d="M25.2,79.6h3.9v-3.9h1.8v3.9h3.9v1.8h-3.9v3.9h-1.8v-3.9h-3.9V79.6z"/>
		<g id="Layer_2_2_">
			<g id="layer_1_">
				<path class="st1" d="M30,36.7L30,36.7c-0.7,0-1.4,0-2.2-0.1l-0.1,0.8c0.8,0.1,1.5,0.1,2.3,0.1l0,0c0.8,0,1.5,0,2.3-0.1l-0.1-0.8
					C31.4,36.6,30.7,36.7,30,36.7z"/>
				<path class="st1" d="M36.4,35.4L36.4,35.4l0.2,0.8h0.1c1.4-0.6,2.7-1.3,3.8-2.2L40,33.3C39,34.1,37.7,34.8,36.4,35.4z"/>
				<path class="st1" d="M19.9,33.2l-0.5,0.7c1.2,0.9,2.5,1.7,3.8,2.3h0.1l0.3-0.8h-0.1C22.3,34.8,21,34.1,19.9,33.2z"/>
				<path class="st1" d="M14.7,26.4l-0.8,0.3c0,0.1,0.1,0.1,0.1,0.2c0.6,1.3,1.3,2.6,2.2,3.8l0.7-0.5c-0.8-1.1-1.5-2.3-2.1-3.6
					C14.8,26.5,14.7,26.5,14.7,26.4z"/>
				<path class="st1" d="M45.2,26.6c-0.5,1.3-1.2,2.5-2.1,3.6l0.7,0.5c0.9-1.2,1.6-2.4,2.2-3.8c0-0.1,0.1-0.1,0.1-0.2l-0.8-0.3
					L45.2,26.6z"/>
				<path class="st1" d="M46.4,22.2l0.8,0.1c0.1-0.7,0.1-1.4,0.1-2.2h-0.8C46.5,20.9,46.5,21.5,46.4,22.2z"/>
				<path class="st1" d="M25,4.4c0.5-0.2,1-0.3,1.5-0.4l0.3,3.1L30,3.2L26.1,0l0.3,3.2c-0.6,0.1-1.1,0.3-1.7,0.4L25,4.4z"/>
				<path class="st1" d="M14.8,13.7c0.4-0.9,0.9-1.8,1.4-2.6l-0.7-0.5c-0.6,0.9-1.1,1.8-1.5,2.8c-0.1,0.3-0.2,0.5-0.3,0.8l0.8,0.3
					C14.6,14.2,14.7,14,14.8,13.7z"/>
				<path class="st1" d="M21.6,6l-0.4-0.7C20,5.9,18.9,6.7,18,7.6l0.6,0.6C19.5,7.4,20.5,6.6,21.6,6z"/>
				<path class="st1" d="M12.8,18c-0.2,1.4-0.2,2.9,0,4.3l0.8-0.1c-0.2-1.4-0.2-2.7,0-4.1L12.8,18z"/>
				<rect x="25.5" y="15.8" class="st1" width="9" height="6"/>
				<path class="st1" d="M30,7.9c-6.9,0-12.4,5.6-12.4,12.4S23.1,32.8,30,32.8s12.4-5.6,12.4-12.4S36.9,7.9,30,7.9L30,7.9z
					 M37.5,21.9l-3,3h-9v3h-3v-12h3v-3h9l0,0l3,3V21.9z"/>
				<circle class="st1" cx="44.1" cy="1.9" r="1.9"/>
				<circle class="st1" cx="37.5" cy="1.4" r="1.4"/>
				<path class="st1" d="M33,1.9c0.5,0,1-0.4,1-1c0-0.5-0.4-1-1-1s-1,0.4-1,1l0,0C32,1.5,32.4,1.9,33,1.9L33,1.9z"/>
				<path class="st1" d="M46.6,5.3h-5.1c-0.4,0-0.7,0.3-0.7,0.7l0,0v4.3c0.5,0.5,0.9,1,1.3,1.6c0.1,0.1,0.1,0.1,0.1,0.2
					c1.4,2.1,2.3,4.5,2.5,7h0.4c0.4,0,0.7-0.3,0.7-0.7v-5.9c0-0.4,0.3-0.7,0.7-0.7l0,0c0.4,0,0.7-0.3,0.7-0.7V6
					C47.4,5.6,47,5.3,46.6,5.3L46.6,5.3z"/>
				<path class="st1" d="M38.8,8.5c0.1-0.2,0.3-0.4,0.5-0.4c0.3,0,0.5-0.2,0.5-0.5l0,0V4.2c0-0.3-0.2-0.5-0.5-0.5l0,0h-3.5
					c-0.3,0-0.5,0.2-0.5,0.5l0,0v2.3c0.2,0.1,0.3,0.1,0.5,0.2C36.8,7.2,37.9,7.8,38.8,8.5z"/>
				<path class="st1" d="M31.6,5.7c0.8,0.1,1.5,0.2,2.3,0.4l0,0c0-0.2,0.2-0.4,0.4-0.4l0,0c0.2,0,0.4-0.2,0.4-0.4V3
					c0-0.2-0.2-0.4-0.4-0.4h-2.5c-0.2,0-0.4,0.2-0.4,0.4v2.4C31.4,5.5,31.4,5.6,31.6,5.7z"/>
			</g>
		</g>
	</g>
</g>
</svg>
