<?xml version="1.0" encoding="utf-8"?>
<!-- Generator: Adobe Illustrator 23.0.1, SVG Export Plug-In . SVG Version: 6.00 Build 0)  -->
<svg version="1.1" id="Layer_1" xmlns="http://www.w3.org/2000/svg" xmlns:xlink="http://www.w3.org/1999/xlink" x="0px" y="0px"
	 viewBox="0 0 60 85.3" style="enable-background:new 0 0 60 85.3;" xml:space="preserve">
<style type="text/css">
	.st0{fill:#063332;}
	.st1{fill:none;stroke:#063332;stroke-width:2;stroke-miterlimit:10;}
</style>
<title>onBoardDim</title>
<g>
	<g id="Layer_1-2">
		<g id="layer">
			<path class="st0" d="M15,12.2v16c0,1.9,1.6,3.4,3.5,3.4c0,0,0,0,0,0h23.8c1.9,0,3.5-1.5,3.5-3.4c0,0,0,0,0,0v-16
				c0-1.9-1.6-3.4-3.5-3.4c0,0,0,0,0,0H18.5C16.6,8.8,15,10.3,15,12.2C15,12.2,15,12.2,15,12.2z M43.4,12.2v16
				c0,0.6-0.5,1.1-1.1,1.1c0,0,0,0,0,0H18.5c-0.6,0-1.1-0.5-1.2-1.1v-16c0-0.6,0.5-1.1,1.1-1.1c0,0,0,0,0,0h23.7
				C42.9,11.1,43.4,11.6,43.4,12.2C43.4,12.2,43.4,12.2,43.4,12.2L43.4,12.2z M32.3,16.1h6.6v2.2h-6.6V16.1z M32.3,21.2h6.6v2.3
				h-6.6V21.2z M22.9,23.9h5.2c1,0,1.9-0.7,1.9-1.8c0,0,0,0,0,0v-4.6c0-1-0.9-1.8-1.9-1.8c0,0,0,0,0,0h-5.3c-1,0-1.8,0.8-1.9,1.8
				v4.6C21,23.1,21.9,23.9,22.9,23.9L22.9,23.9z M23.3,18h4.3v3.7h-4.3V18z M12.3,36.6v-8.4H10v8.4c0,1.9,1.6,3.4,3.5,3.4
				c0,0,0,0,0,0h7.8v-2.3h-7.8C12.9,37.7,12.4,37.2,12.3,36.6C12.3,36.6,12.3,36.6,12.3,36.6L12.3,36.6z M12.3,3.4
				c0-0.6,0.5-1.1,1.1-1.1c0,0,0,0,0.1,0h7.8V0h-7.8C11.6,0,10,1.5,10,3.4c0,0,0,0,0,0v7.9h2.3L12.3,3.4z M46.5,0h-7.8v2.3h7.8
				c0.6,0,1.1,0.5,1.2,1.1v7.7H50V3.4C50,1.5,48.4,0,46.5,0C46.5,0,46.5,0,46.5,0z M47.7,36.6c0,0.6-0.5,1.1-1.1,1.1c0,0,0,0,0,0
				h-7.8V40h7.8c1.9,0,3.5-1.5,3.5-3.4c0,0,0,0,0-0.1V28h-2.3V36.6z"/>
		</g>
	</g>
</g>
<line class="st1" x1="20.2" y1="80.5" x2="0" y2="80.5"/>
<line class="st1" x1="60" y1="80.5" x2="39.8" y2="80.5"/>
<path class="st0" d="M25.2,79.6h3.9v-3.9h1.8v3.9h3.9v1.8h-3.9v3.9h-1.8v-3.9h-3.9V79.6z"/>
</svg>
