<?xml version="1.0" encoding="utf-8"?>
<!-- Generator: Adobe Illustrator 23.0.1, SVG Export Plug-In . SVG Version: 6.00 Build 0)  -->
<svg version="1.1" id="Layer_1" xmlns="http://www.w3.org/2000/svg" xmlns:xlink="http://www.w3.org/1999/xlink" x="0px" y="0px"
	 viewBox="0 0 60 81.8" style="enable-background:new 0 0 60 81.8;" xml:space="preserve">
<style type="text/css">
	.st0{fill:#063332;}
	.st1{fill:none;stroke:#063332;stroke-width:2;stroke-miterlimit:10;}
</style>
<title>park-dim</title>
<g>
	<g id="layer">
		<path class="st0" d="M42.5,31.6h1.8c0.4,0,0.8,0,1.3,0c0.3,0,0.6,0.2,0.7,0.6c0.1,0.3-0.1,0.7-0.4,0.9c-0.1,0-0.1,0-0.2,0H10.7
			c-0.3-0.1-0.6-0.3-0.7-0.6c-0.1-0.3,0.1-0.6,0.4-0.7c0,0,0,0,0.1,0c0.4-0.1,0.9-0.1,1.4-0.1c0.6,0,1.2,0,1.7,0h0.3
			c0-0.6,0-1.1,0-1.7c0-0.1-0.1-0.2-0.2-0.3s-0.4-0.3-0.6-0.5c-0.4-0.3-0.6-0.8-0.6-1.3c0-1.5,0-3.1,0-4.6c0-0.7,0.4-1.3,1-1.6
			c0.4-0.2,0.7-0.6,0.8-1c0.6-1.4,1.2-2.9,1.8-4.4c0.3-0.8,0.7-1.6,1-2.4c0.1-0.2,0.2-0.3,0.4-0.3c1.3,0,2.6-0.1,4-0.1
			c2.4,0,4.8,0,7.2,0c1.4,0,2.8,0,4.2,0.1c0.2,0,0.4,0.1,0.4,0.3c0.6,1.6,1.3,3.1,1.9,4.7c0.3,0.8,0.7,1.6,1,2.4
			c0.1,0.1,0.2,0.2,0.3,0.3c0.5,0.2,0.9,0.6,1.2,1c0.2,0.4,0.3,0.9,0.3,1.4c0,1.4,0,2.8,0,4.2c0,0.8-0.5,1.4-1.2,1.8
			c-0.2,0.1-0.3,0.3-0.3,0.5c0,0.5,0,1,0,1.5H41v-15c-0.5-0.1-1-0.2-1.4-0.3c-3.2-0.8-5.6-3.5-6-6.8c-0.5-3.3,1.1-6.6,4-8.3
			c0.9-0.5,1.9-0.9,2.9-1c3.9-0.5,7.7,1.8,9,5.5C49.9,6.7,50.1,7.8,50,9c-0.1,1.9-1,3.7-2.4,5c-0.5,0.6-1.2,1.1-1.9,1.5
			c-0.9,0.5-1.9,0.8-3,1c-0.2,0-0.2,0.1-0.2,0.3L42.5,31.6L42.5,31.6z M15.8,20.9l0.3,0.1l3.3,0.1h9.2l5.5,0h0.4c0-0.1,0-0.1,0-0.1
			c-0.8-1.9-1.5-3.8-2.3-5.7c0-0.1-0.1-0.2-0.3-0.2H18.4c-0.2,0-0.4,0.1-0.4,0.3c-0.5,1.3-1,2.5-1.5,3.8
			C16.2,19.7,16,20.3,15.8,20.9z M40.3,10.5c0.8,0,1.5,0,2.2,0c0.6,0,1.1-0.1,1.6-0.4c1-0.6,1.6-1.7,1.5-2.9
			c-0.1-1.3-1.1-2.4-2.4-2.7c-1.2-0.1-2.5-0.1-3.7,0c-0.4,0-0.6,0.2-0.6,0.6s0,0.8,0,1.2c0,2.2,0,4.3,0,6.5c0,0.2,0.1,0.5,0.3,0.6
			c0.2,0.2,0.5,0.2,0.7,0.1c0.3-0.1,0.4-0.3,0.4-0.6c0-0.2,0-0.4,0-0.6C40.3,11.7,40.3,11.1,40.3,10.5z M18.4,31.6h13.5v-1.5H18.4
			V31.6z M17.4,26.7c0.7,0,1.2-0.5,1.3-1.2c0-0.7-0.6-1.3-1.3-1.4c-0.7,0-1.3,0.6-1.3,1.3C16.1,26.2,16.7,26.7,17.4,26.7
			C17.4,26.7,17.4,26.7,17.4,26.7z M32.9,26.7c0.7,0,1.2-0.5,1.3-1.2c0-0.7-0.6-1.3-1.3-1.4c-0.7,0-1.3,0.6-1.3,1.4c0,0,0,0,0,0.1
			c0,0.6,0.5,1.2,1.2,1.2C32.8,26.7,32.9,26.7,32.9,26.7z"/>
		<path class="st0" d="M40.3,9V6h0.4c0.7,0,1.4,0,2.1,0c0.7,0,1.3,0.6,1.3,1.3c0.1,0.7-0.4,1.4-1.1,1.6C42.4,9,41.8,9,41.2,9H40.3z"
			/>
	</g>
</g>
<line class="st1" x1="20.2" y1="77" x2="0" y2="77"/>
<line class="st1" x1="60" y1="77" x2="39.8" y2="77"/>
<path class="st0" d="M25.2,76.1h3.9v-3.9h1.8v3.9h3.9v1.8h-3.9v3.9h-1.8v-3.9h-3.9V76.1z"/>
</svg>
