<?xml version="1.0" encoding="utf-8"?>
<!-- Generator: Adobe Illustrator 23.0.1, SVG Export Plug-In . SVG Version: 6.00 Build 0)  -->
<svg version="1.1" id="Layer_1" xmlns="http://www.w3.org/2000/svg" xmlns:xlink="http://www.w3.org/1999/xlink" x="0px" y="0px"
	 viewBox="0 0 60 86.1" style="enable-background:new 0 0 60 86.1;" xml:space="preserve">
<style type="text/css">
	.st0{fill:#FFFFFF;}
	.st1{fill:none;stroke:#0C6D72;stroke-width:2;stroke-miterlimit:10;}
	.st2{fill:#0C6D72;}
</style>
<title>plano-act</title>
<g>
	<g id="layer">
		<path class="st0" d="M24.2,15.4c-0.8-0.2-1.4-0.8-1.6-1.5c-0.2-1,0.4-2.1,1.5-2.3c0.2,0,0.4-0.1,0.7,0c0.3,0.1,0.5-0.1,0.6-0.3
			c1-1.3,1.4-2.9,1.2-4.5c0-0.7,0-1.5,0-2.2c0-0.5,0.2-0.8,0.7-0.8H32c0.5,0,0.7,0.2,0.7,0.7c0,1.4,0,2.8,0,4.2
			c0,0.3,0.1,0.6,0.3,0.8c0.3,0.5,0.7,1,1.1,1.5c-0.6,0-1.1,0-1.6,0c-0.1,0-0.2-0.1-0.3-0.2c-0.3-0.4-0.5-0.8-0.7-1.3
			c-0.1-0.2-0.1-0.5-0.1-0.7c0-0.4,0-0.8,0-1.3h-3.6c0,0.5,0,1,0,1.5c0,0.3-0.1,0.6-0.2,0.9c-0.4,0.8-0.9,1.5-1.3,2.3
			c-0.1,0.2-0.1,0.4,0,0.6c0.3,0.8,0.1,1.8-0.6,2.3c-0.1,0.1-0.2,0.3-0.3,0.5c0,5.5,0,11.1,0,16.6c0,0.1,0,0.1,0,0.2
			c0.6,0.2,1.2,0.6,1.4,1.2c0.1,0.1,0.2,0.1,0.3,0.1c1.7,0,3.4,0,5,0c0.1,0,0.3-0.1,0.4-0.2c0.3-0.3,0.7-0.6,1.1-0.9
			c0.2-0.1,0.3-0.2,0.3-0.4c0-0.8,0-1.6,0-2.4h1.3c0,0.8,0,1.6,0,2.4c0,0.3,0.1,0.6,0.3,0.7c0.8,0.7,1,1.9,0.3,2.7
			c-0.7,0.8-1.9,1-2.7,0.3c-0.2-0.1-0.3-0.3-0.5-0.5c-0.1-0.2-0.3-0.3-0.5-0.3h-4.9c-0.2,0-0.4,0.1-0.5,0.3c-0.4,0.7-1.1,1.1-1.9,1
			c-0.8-0.1-1.4-0.6-1.6-1.4c-0.2-0.8,0.1-1.6,0.7-2.1c0.1-0.1,0.2-0.3,0.3-0.5c0-5.5,0.1-11.1,0.1-16.6
			C24.2,15.5,24.2,15.5,24.2,15.4z M27.9,5v1.2h3.6V5H27.9z"/>
		<path class="st0" d="M33,20.2v-5.4c0-1.1,0.1-1.2,1.2-1.2h3c0.6,0,0.8,0.2,0.8,0.8s0,1.4,0,2.1c0,0.3,0.1,0.4,0.4,0.4
			c0.8,0,1.7,0,2.5,0s0.9,0.1,0.9,0.9v7.9h0.8c0.5,0,0.8,0.2,0.8,0.6s-0.3,0.5-0.8,0.5h-9.4c-0.5,0-1,0-1.5,0
			c-0.3,0-0.5,0.1-0.5,0.4c0,0,0,0,0,0c-0.3,0.8-1,1.3-1.8,1.2c-0.8,0-1.5-0.6-1.8-1.4c-0.3-1,0.2-2,1.1-2.3
			c0.3-0.1,0.4-0.3,0.4-0.6c0-1,0-2.1,0-3.2c0-0.6,0.2-0.8,0.8-0.8L33,20.2z M34.2,25.7c0.7,0,1.5,0,2.2,0c0.4,0,0.5-0.1,0.5-0.5
			c0-3.3,0-6.6,0-9.9c0-0.1,0-0.3,0-0.4h-2.7L34.2,25.7z M40.6,25.7v-7.6c-0.8,0-1.5,0-2.2,0c-0.4,0-0.4,0.1-0.4,0.5
			c0,1.3,0,2.7,0,4c0,0.9,0,1.9,0,2.8c0,0.1,0.2,0.3,0.2,0.3C39,25.8,39.8,25.7,40.6,25.7L40.6,25.7z M33,25.7v-4.3h-2.7
			c0,0.9,0,1.7,0,2.6c0,0.5,0,1,0.5,1.3c0.1,0,0.2,0.2,0.3,0.3s0.2,0.2,0.3,0.2C31.9,25.8,32.4,25.7,33,25.7L33,25.7z"/>
		<path class="st0" d="M17.9,1.3v2.3c0,0.2,0,0.3,0,0.5c0,0.3-0.3,0.6-0.6,0.6c-0.3,0-0.6-0.2-0.7-0.5c0,0,0,0,0-0.1
			c0-0.4,0-0.8,0-1.1c0-0.7,0-1.4,0-2.1S16.8,0,17.4,0h3.1c0.5,0,0.8,0.3,0.8,0.6s-0.3,0.6-0.8,0.6L17.9,1.3z"/>
		<path class="st0" d="M17.9,38.7h2.3c0.1,0,0.3,0,0.4,0c0.3,0,0.6,0.3,0.6,0.6c0,0.3-0.2,0.6-0.5,0.6c0,0,0,0-0.1,0
			c-1.2,0-2.3,0-3.5,0c-0.3,0-0.6-0.3-0.5-0.6c0,0,0,0,0,0c0-1.1,0-2.2,0-3.3c0-0.3,0.2-0.6,0.6-0.7c0,0,0.1,0,0.1,0
			c0.4,0,0.6,0.3,0.6,0.7c0,0,0,0,0,0C17.9,37,17.9,37.8,17.9,38.7z"/>
		<path class="st0" d="M41.7,38.7c0-0.9,0-1.8,0-2.7c0-0.3,0.2-0.6,0.6-0.7c0,0,0,0,0.1,0c0.4,0,0.7,0.3,0.7,0.6c0,0,0,0,0,0l0,0
			c0,1.1,0,2.1,0,3.2c0,0.5-0.2,0.7-0.7,0.7h-3.1c-0.5,0-0.8-0.2-0.8-0.6s0.3-0.6,0.8-0.6L41.7,38.7z"/>
		<path class="st0" d="M41.6,1.3h-2.3c-0.2,0-0.3,0-0.5,0c-0.3,0-0.5-0.3-0.5-0.7c0,0,0,0,0,0c0-0.3,0.2-0.6,0.5-0.6c0,0,0,0,0.1,0
			c1.2,0,2.3,0,3.5,0c0.3,0,0.6,0.3,0.6,0.6c0,0,0,0,0,0c0,1.1,0,2.2,0,3.4c0,0.3-0.4,0.6-0.7,0.5c-0.3,0-0.5-0.3-0.5-0.5
			c0-0.7,0-1.5,0-2.2C41.7,1.6,41.7,1.5,41.6,1.3z"/>
	</g>
</g>
<line class="st1" x1="20.2" y1="80.5" x2="0" y2="80.5"/>
<line class="st1" x1="60" y1="80.5" x2="39.8" y2="80.5"/>
<polygon class="st2" points="31.6,80.3 34.6,75.7 34.6,74.8 32.3,74.8 30,78.5 27.6,74.8 25.4,74.8 25.4,75.7 28.4,80.3 25.2,85.1 
	25.2,86.1 27.5,86.1 29.8,82.5 30,82.1 32.5,86.1 34.8,86.1 34.8,85.1 "/>
</svg>
