<?xml version="1.0" encoding="utf-8"?>
<!-- Generator: Adobe Illustrator 23.0.1, SVG Export Plug-In . SVG Version: 6.00 Build 0)  -->
<svg version="1.1" id="Layer_1" xmlns="http://www.w3.org/2000/svg" xmlns:xlink="http://www.w3.org/1999/xlink" x="0px" y="0px"
	 viewBox="0 0 60 86.1" style="enable-background:new 0 0 60 86.1;" xml:space="preserve">
<style type="text/css">
	.st0{fill:#FFFFFF;}
	.st1{fill:none;stroke:#0C6D72;stroke-width:2;stroke-miterlimit:10;}
	.st2{fill:#0C6D72;}
</style>
<title>pos-act</title>
<g>
	<g id="layer">
		<g id="layer-2">
			<path class="st0" d="M29.8,9.1h1c1.2-0.1,2.2,0.8,2.2,2c0,0.1,0,0.2,0,0.3v26.4c0.1,1.2-0.8,2.2-2,2.2c-0.1,0-0.2,0-0.2,0H17.3
				c-1.2,0.1-2.2-0.9-2.2-2c0-0.1,0-0.1,0-0.2V11.3c0-1.2,0.8-2.1,2-2.2h0.8c0.1,0,0.2,0,0.2-0.2V0.7c0-0.1,0.1-0.2,0.2-0.2
				c0.3-0.2,0.6-0.3,0.9-0.4c0.1-0.1,0.3-0.1,0.5,0c0.5,0.3,1.1,0.6,1.7,0.9c0.1,0,0.2,0,0.4,0c0.6-0.2,1.1-0.4,1.7-0.6
				c0.1,0,0.2,0,0.3,0C24,0.6,24.4,0.8,24.8,1c0.1,0,0.2,0,0.3,0l2.4-0.6c0.1,0,0.2,0,0.3,0l1.9,1c0.1,0.1,0.2,0.2,0.2,0.4V9.1z
				 M28.8,11.6V2.3c0-0.1,0-0.2-0.1-0.2l-1.2-0.6c0,0,0,0-0.1,0c-0.3,0.1-0.5,0.1-0.8,0.2c-0.5,0.2-1.1,0.4-1.6,0.6
				c-0.1,0-0.2,0-0.4,0C24.3,2,24,1.8,23.6,1.6c-0.1,0-0.2,0-0.4,0l-1.7,0.6c-0.1,0-0.2,0-0.3,0l-1.7-0.9c-0.3-0.2-0.4-0.1-0.4,0.2
				c0,2.3,0,4.6,0,6.9c0,1,0,2,0,3c0,0.1,0,0.2,0,0.2h-1v0.6h11.7v-0.6L28.8,11.6z M17.3,14.9v4.3h13.6v-4.3L17.3,14.9z M20.7,30.4
				h-3.3v3.3h3.3V30.4z M17.3,29.2h3.3v-3.3h-3.3V29.2z M17.3,24.6h3.3v-3.3h-3.3L17.3,24.6z M17.3,34.9v3.3h3.4v-3.3L17.3,34.9z
				 M30.8,21.3h-3.3v3.3h3.3L30.8,21.3z M22.4,24.6h3.3v-3.3h-3.3V24.6z M25.7,34.9h-3.3v3.3h3.3V34.9z M27.5,34.9v3.3h3.3v-3.3
				H27.5z M27.5,29.1h3.3v-3.3h-3.3V29.1z M22.4,25.8v3.3h3.3v-3.3H22.4z M22.4,30.4v3.3h3.3v-3.3H22.4z M30.8,33.7v-3.3h-3.3v3.3
				H30.8z"/>
			<path class="st0" d="M44.9,20.9c0,0.1,0,0.2,0.1,0.2v12.5c0,0.5-0.3,0.9-0.8,0.9c0,0,0,0,0,0H44c-2.8,0-5.7,0-8.5,0h-0.3v1.3
				h-1.6V15.7h1.6v1.2h0.3h8.6c0.4-0.1,0.8,0.2,0.8,0.6c0,0.1,0,0.1,0,0.2v1.7c0,0.1,0,0.1,0,0.2l-0.5-0.5c0-0.4,0-0.9,0-1.3
				s0-0.4-0.3-0.4h-6.4c-0.1,0-0.2,0-0.3,0V34h6.5c0.4,0,0.4,0,0.4-0.4V21.7c0-0.1,0-0.2,0-0.3L44.9,20.9z M35.2,17.5V34h0.5V17.5
				H35.2z"/>
			<path class="st0" d="M44.9,20.9l-0.5,0.5c0-0.1,0-0.2,0-0.3v-1.6c0-0.1,0-0.3,0-0.4l0.5,0.5C44.9,20.1,44.9,20.5,44.9,20.9z"/>
			<path class="st0" d="M27.9,9.7v0.6h-8.1V9.7H27.9z"/>
			<path class="st0" d="M27.9,6.7v0.6h-8.1V6.7H27.9z"/>
			<path class="st0" d="M19.8,8.8V8.2h8.1c0,0.1,0,0.2,0,0.3s0,0.2,0,0.3H19.8z"/>
			<path class="st0" d="M19.8,4.4V3.7h4.3c0.1,0.5-0.1,0.7-0.5,0.6c-1.2,0-2.3,0-3.5,0H19.8z"/>
			<path class="st0" d="M22.5,5.8h-0.2h-2.3h-0.1V5.2h3c0.1,0,0.1,0,0.2,0L22.5,5.8z"/>
			<path class="st0" d="M22.5,5.8L23,5.3l1.1-0.1v0.7h-1.2C22.7,5.9,22.6,5.8,22.5,5.8z"/>
			<path class="st0" d="M25.2,18l-0.5-0.4l0.6-0.5l-0.8-0.1l0.2-0.6l0.7,0.3c0-0.3,0-0.5-0.1-0.7h0.6l-0.1,0.8l0.7-0.3l0.2,0.6
				L26,17l0.5,0.5L26,18l-0.4-0.7L25.2,18z"/>
			<path class="st0" d="M22.1,16.6L22,15.9h0.6l-0.1,0.7l0.4-0.2c0.3-0.1,0.3-0.1,0.4,0.1c0,0.1,0.1,0.2,0.1,0.3L22.7,17l0.5,0.5
				L22.7,18l-0.4-0.7L22,18l-0.5-0.4L22,17l-0.8-0.1c0.1-0.2,0.1-0.4,0.2-0.6L22.1,16.6z"/>
			<path class="st0" d="M19.4,16.6l0.7-0.3l0.2,0.6L19.6,17l0.5,0.5L19.5,18l-0.4-0.7L18.8,18l-0.6-0.4l0.6-0.5l-0.8-0.1l0.2-0.6
				l0.7,0.3l-0.1-0.7h0.6L19.4,16.6z"/>
			<path class="st0" d="M29.1,17.6l-0.2-0.3L28.5,18L28,17.6l0.6-0.5V17l-0.7-0.1l0.2-0.6l0.7,0.3l-0.1-0.7h0.6l-0.1,0.8l0.7-0.3
				c0.2,0.4,0.3,0.6-0.5,0.7l0.2,0.2L29.1,17.6z"/>
			<path class="st0" d="M29.1,17.6l0.3-0.3l0.4,0.3L29.3,18L29.1,17.6z"/>
			<path class="st0" d="M40,33.7h-1.2c0-0.1,0-0.2,0-0.3V28c0-1,0-1.9,0-2.9c0-0.2,0.1-0.3,0.3-0.3s0.6,0,0.9,0L40,33.7z"/>
			<path class="st0" d="M42.4,21.2c-0.8,0-1.4-0.7-1.4-1.5l0,0c0-0.8,0.6-1.4,1.4-1.5c0,0,0,0,0,0l0,0c0.8,0,1.5,0.7,1.5,1.5
				c0,0,0,0,0,0C43.9,20.6,43.2,21.2,42.4,21.2z"/>
			<path class="st0" d="M43.7,21c0.4,0.7,0.2,1.6-0.5,2c-0.6,0.3-1.3,0.3-1.8-0.2c-0.5-0.5-0.6-1.2-0.2-1.8
				C41.9,21.6,43,21.6,43.7,21z"/>
			<path class="st0" d="M42.3,33.7h-0.4v-8.8c0.4-0.1,0.4-0.1,0.4,0.3V33.7z"/>
			<path class="st0" d="M42.9,24.9h0.4v8.8h-0.4V24.9z"/>
			<path class="st0" d="M40,21.4v2.9h-1.2v-2.9H40z"/>
		</g>
	</g>
</g>
<line class="st1" x1="20.2" y1="80.5" x2="0" y2="80.5"/>
<line class="st1" x1="60" y1="80.5" x2="39.8" y2="80.5"/>
<polygon class="st2" points="31.6,80.3 34.6,75.7 34.6,74.8 32.3,74.8 30,78.5 27.6,74.8 25.4,74.8 25.4,75.7 28.4,80.3 25.2,85.1 
	25.2,86.1 27.5,86.1 29.8,82.5 30,82.1 32.5,86.1 34.8,86.1 34.8,85.1 "/>
</svg>
