<?xml version="1.0" encoding="utf-8"?>
<!-- Generator: Adobe Illustrator 23.0.1, SVG Export Plug-In . SVG Version: 6.00 Build 0)  -->
<svg version="1.1" id="Layer_1" xmlns="http://www.w3.org/2000/svg" xmlns:xlink="http://www.w3.org/1999/xlink" x="0px" y="0px"
	 viewBox="0 0 60 86.1" style="enable-background:new 0 0 60 86.1;" xml:space="preserve">
<style type="text/css">
	.st0{fill:#FFFFFF;}
	.st1{fill:none;stroke:#0C6D72;stroke-width:2;stroke-miterlimit:10;}
	.st2{fill:#0C6D72;}
</style>
<title>queue-act</title>
<g>
	<g id="layer">
		<g id="layer-2">
			<path class="st0" d="M21.5,22.2l2-0.6l0.3,0.7c-0.6,0.2-1.2,0.4-1.8,0.6c-0.4,0.1-0.5,0.2-0.5,0.6c0,1.1,0,2.2,0,3.3
				s0,1.3-1.2,1.4v11.8c-0.2,0-0.4,0-0.5,0h-5.8c-0.9,0-1.1-0.2-1.1-1c0-1.2,0.1-1.4,1.1-1.4h2.2v-9.4c-1.3-0.2-1.3-0.2-1.3-1.5
				v-3.4c0-0.4,0.1-0.8-0.7-0.8c0.2-0.2,0.4-0.5,0.6-0.8c0.1-0.2,0.1-0.3,0.1-0.5v-8.3c0-0.9,0.1-1,1-1h4.6c1,0,1,0.1,1,1L21.5,22.2
				L21.5,22.2z"/>
			<path class="st0" d="M35.6,22.4c0,0.2,0,0.5-0.1,0.8l-2.1-0.5c0,0.2,0,0.4,0,0.6c0,1.4,0,2.8,0,4.1c0,0.5-0.1,0.8-0.7,0.7
				s-0.5,0.2-0.5,0.6c0,3.5,0,7,0,10.5V40h-6.4c-0.8,0-1-0.2-1-1v-0.5c0-0.7,0.3-0.9,0.9-1H28v-9.3c0,0-0.1-0.1-0.1-0.1
				c-1.1-0.1-1.1-0.1-1.1-1.3c0-1.9,0-3.7,0-5.6c0-0.1,0-0.2,0-0.4l-1.9,1l-0.4-0.7l2.3-1.2v-7.1c0-0.9,0.1-0.9,0.9-0.9h4.9
				c0.7,0,0.8,0.1,0.8,0.8c0,2.8,0,5.7,0,8.5c0,0.4,0.1,0.6,0.5,0.7L35.6,22.4z"/>
			<path class="st0" d="M44,40h-6.7c-0.1,0-0.2,0-0.3-0.1c-0.4-0.2-0.5-1.1-0.3-1.8c0.1-0.4,0.5-0.7,0.9-0.6h2.4v-9.4
				c-0.1,0-0.1-0.1-0.2-0.1c-1.1,0-1.1,0-1.1-1.2v-3.7h-2.1c0-0.3,0.1-0.5,0.1-0.8h2v-9.7c0-0.8,0.1-0.9,0.8-0.9h4.9
				c0.8,0,0.9,0.1,0.9,0.9c0,2.1,0,4.2,0,6.3c0,0.5,0.1,1,0.2,1.5c-0.1,0.3-0.2,0.7-0.2,1.1c0,1.8,0,3.6,0,5.5c0,0.9,0,0.9-0.9,1
				c-0.1,0-0.2,0-0.3,0L44,40z"/>
			<path class="st0" d="M18.1,0c2.8,0,5,2.2,5.1,5c-0.3,2.8-2.7,4.9-5.5,4.6c-2.4-0.2-4.3-2.1-4.6-4.5C13,2.4,15.2,0,18.1,0
				C18,0,18.1,0,18.1,0z"/>
			<path class="st0" d="M30,10.2c-2.8,0-5.1-2.3-5.1-5.1S27.2,0,30,0c2.8,0,5.1,2.3,5.1,5.1C35.1,7.9,32.8,10.2,30,10.2z"/>
			<path class="st0" d="M46.9,5.1c0,2.8-2.3,5.1-5.1,5.1c-2.8,0-5.1-2.3-5.1-5.1S39,0,41.8,0c0,0,0,0,0,0l0,0c2.8,0,5,2.2,5.1,4.9
				C46.9,5,46.9,5,46.9,5.1C46.9,5,46.9,5.1,46.9,5.1z"/>
			<path class="st0" d="M46.9,20.7c-1.1-0.6-1.4-1.2-1.2-2.1c0.2-0.9,1.1-1.4,2-1.2c0.6,0.1,1,0.6,1.2,1.1c0.2,0.7-0.1,1.5-0.8,1.9
				c-0.3,0.1-0.5,0.5-0.4,0.8v17.5c0,0.3,0,0.6-0.1,0.9c-0.1,0.1-0.2,0.2-0.3,0.3c-0.1,0-0.2-0.2-0.3-0.3c-0.1-0.2-0.1-0.4-0.1-0.6
				c0-4.6,0-9.2,0-13.8C46.9,23.8,46.9,22.2,46.9,20.7z"/>
			<path class="st0" d="M9.4,35.8v-7.6c0-2.4,0-4.8-0.1-7.2c0-0.2-0.2-0.4-0.4-0.6c-0.8-0.4-1.1-1.4-0.7-2.2
				c0.3-0.5,0.8-0.9,1.5-0.9c0.8,0,1.4,0.6,1.6,1.3c0.2,0.7-0.2,1.5-0.9,1.8c-0.3,0.2-0.3,0.4-0.3,0.7v17.4c0,0.3,0,0.6-0.1,0.9
				c0,0.2-0.2,0.3-0.3,0.4c-0.1-0.1-0.3-0.3-0.4-0.4c-0.1-0.2-0.1-0.5-0.1-0.8C9.3,37.8,9.3,36.8,9.4,35.8L9.4,35.8z"/>
			<path class="st0" d="M11.1,20.8l0.5-0.6l2.1,1.2l-0.3,0.7L11.1,20.8z"/>
			<path class="st0" d="M6,21.9l-0.3-0.7L7.7,20l0.4,0.6L6,21.9z"/>
			<path class="st0" d="M48.6,20.8l0.4-0.6l2,1.2c-0.1,0.2-0.2,0.4-0.3,0.7L48.6,20.8z"/>
			<path class="st0" d="M51.8,22.5l0.3-0.7l2.3,0.6c0,0.2,0,0.4-0.1,0.8L51.8,22.5z"/>
		</g>
	</g>
</g>
<line class="st1" x1="20.2" y1="80.5" x2="0" y2="80.5"/>
<line class="st1" x1="60" y1="80.5" x2="39.8" y2="80.5"/>
<polygon class="st2" points="31.6,80.3 34.6,75.7 34.6,74.8 32.3,74.8 30,78.5 27.6,74.8 25.4,74.8 25.4,75.7 28.4,80.3 25.2,85.1 
	25.2,86.1 27.5,86.1 29.8,82.5 30,82.1 32.5,86.1 34.8,86.1 34.8,85.1 "/>
</svg>
