<?xml version="1.0" encoding="utf-8"?>
<!-- Generator: Adobe Illustrator 23.0.1, SVG Export Plug-In . SVG Version: 6.00 Build 0)  -->
<svg version="1.1" id="Layer_1" xmlns="http://www.w3.org/2000/svg" xmlns:xlink="http://www.w3.org/1999/xlink" x="0px" y="0px"
	 viewBox="0 0 60 81.1" style="enable-background:new 0 0 60 81.1;" xml:space="preserve">
<style type="text/css">
	.st0{fill:#063332;}
	.st1{fill:none;stroke:#063332;stroke-width:2;stroke-miterlimit:10;}
</style>
<title>rack-dim</title>
<g>
	<g id="layer">
		<path class="st0" d="M13.5,31.7H12V9.2h1.5v1.4h25V9.1H40v22.6h-1.5v-1.4h-25L13.5,31.7z M13.5,19.6h24.9v-7.5H13.5L13.5,19.6z
			 M13.5,21.2v7.5h24.9v-7.5H13.5z"/>
		<path class="st0" d="M21.4,4.6v4.9h-5.9V4.6H21.4z"/>
		<path class="st0" d="M22.9,9.5V5.9h4.2v3.6H22.9z"/>
		<path class="st0" d="M21.3,18.6h-5.8v-5h5.8V18.6z"/>
		<path class="st0" d="M22.9,13.7h5.8v4.9h-5.8V13.7z"/>
		<path class="st0" d="M34.6,18.6h-4.3V15h4.3V18.6z"/>
		<path class="st0" d="M21.3,27.7h-5.8v-4.9h5.8V27.7z"/>
		<path class="st0" d="M28.8,22.8v4.9h-5.9v-4.9H28.8z"/>
		<path class="st0" d="M30.3,22.8h5.8v4.9h-5.8V22.8z"/>
		<path class="st0" d="M47.2,11.6c-0.7,1.5-1.9,2.7-3.4,3.5c-0.6,0.4-1.4,0.2-1.7-0.4c0,0,0,0,0,0c-0.3-0.6-0.1-1.3,0.4-1.7
			c0.5-0.3,1-0.7,1.4-1.1c1.6-1.6,2-4,1.1-6c-0.8-2-2.7-3.3-4.8-3.3c-2.2-0.2-4.2,1-5.1,3c0,0,0,0.1-0.1,0.3l1.7-0.5
			c0.6-0.2,0.8,0,1,0.6l0.1,0.4c0.2,0.7,0.1,1-0.6,1.2l-4.5,1.3c-0.7,0.2-0.9,0.1-1.1-0.6c-0.5-1.5-0.9-3-1.3-4.5
			C29.9,3,30,2.8,30.7,2.6c1.2-0.4,1.3-0.3,1.6,0.8l0.3,1.1C32.8,4.3,32.9,4.2,33,4c1.5-2.7,4.4-4.3,7.5-4c3.1,0.1,5.9,2.1,6.9,5
			C48.3,7.2,48.2,9.6,47.2,11.6"/>
	</g>
</g>
<line class="st1" x1="20.2" y1="76.3" x2="0" y2="76.3"/>
<line class="st1" x1="60" y1="76.3" x2="39.8" y2="76.3"/>
<path class="st0" d="M25.2,75.4h3.9v-3.9h1.8v3.9h3.9v1.8h-3.9v3.9h-1.8v-3.9h-3.9V75.4z"/>
</svg>
