<?xml version="1.0" encoding="utf-8"?>
<!-- Generator: Adobe Illustrator 23.0.1, SVG Export Plug-In . SVG Version: 6.00 Build 0)  -->
<svg version="1.1" id="Layer_1" xmlns="http://www.w3.org/2000/svg" xmlns:xlink="http://www.w3.org/1999/xlink" x="0px" y="0px"
	 viewBox="0 0 60 86.1" style="enable-background:new 0 0 60 86.1;" xml:space="preserve">
<style type="text/css">
	.st0{fill:#FFFFFF;}
	.st1{fill:none;stroke:#0C6D72;stroke-width:2;stroke-miterlimit:10;}
	.st2{fill:#0C6D72;}
</style>
<title>restrca-act</title>
<g>
	<g id="layer">
		<path class="st0" d="M27.4,0c1.2,0.5,1.9,1.7,1.7,2.9c0,4.3,0,8.6,0,12.9v1l1,0.1v-1c0-3.9,0-7.8,0-11.6c-0.1-1.2,0.8-2.3,2-2.5
			c0.4,0,0.8,0,1.2,0.2c0.8,0.3,1.3,1,1.3,1.8c0,4.1,0,8.3,0,12.4c0,0,0,0.1-0.1,0.1C28.8,17.7,25,21.1,24.1,27
			c-0.9,5.5,1.4,9.7,6,13c-1,0-2,0.1-3,0c-5.6-0.6-11.4-4.6-12.6-11c-0.6-3-1.3-6-1.9-8.9c0-0.1-0.1-0.3-0.2-0.4v-1.2
			c0.1-0.1,0.1-0.1,0.1-0.2c0.3-1,1.2-1.6,2.2-1.5c1,0,1.9,0.7,2.1,1.7c0.5,1.2,1,2.4,1.5,3.7c0.2,0.5,0.4,0.9,0.6,1.4
			c0.1-1.3,0.2-2.7,0.2-4c0-4.7,0-9.4,0-14c0.1-0.7,0.4-1.3,0.9-1.8c0.6-0.6,1.6-0.7,2.3-0.3c0.8,0.3,1.3,1.1,1.3,2
			c0,3.9,0,7.9,0,11.8c0,0.3,0,0.6,0,0.9c0.8-0.1,1-0.5,1-1.2c0-4.7,0-9.4,0-14C24.3,1.7,25,0.5,26.2,0H27.4z"/>
		<path class="st0" d="M25.6,28.9c0-6.1,4.9-11,11-11s11,4.9,11,11s-4.9,11-11,11C30.5,39.9,25.6,35,25.6,28.9z M27.2,28.9
			c0,5.2,4.3,9.4,9.5,9.4c5.2,0,9.4-4.3,9.4-9.5c0-5.1-4.2-9.3-9.3-9.4c-5.2-0.1-9.5,4.1-9.6,9.3C27.2,28.8,27.2,28.8,27.2,28.9z"/>
		<path class="st0" d="M40,16.5l-4.5-0.4c0-1.2-0.1-2.5,0-3.8c0.2-1.2,1.3-2.1,2.5-1.9c1,0.1,1.8,1,1.9,2C40.1,13.8,40,15.2,40,16.5
			z"/>
		<path class="st0" d="M32.6,27.6c0-0.8,0-1.5,0-2.3c0-1.8,1.1-3.3,2.8-3.9c1.7-0.6,3.5,0.1,4.5,1.5c0.4,0.8,0.7,1.7,0.8,2.5
			c0.1,0.5,0.1,1,0,1.5c0,0.5,0.1,0.7,0.6,0.8c0.7,0,1.3,0.6,1.2,1.3c0,0,0,0.1,0,0.1c0,1.4,0,2.9,0,4.3c0,1-0.5,1.4-1.5,1.4
			c-2.9,0-5.8,0-8.7,0c-0.8,0.1-1.5-0.4-1.6-1.2c0-0.1,0-0.3,0-0.4c0-1.2,0-2.3,0-3.5C30.7,28.2,31,27.9,32.6,27.6z M39.6,27.6
			c0-1,0-1.9-0.2-2.9c-0.3-1.4-1.5-2.4-2.9-2.3c-1.4,0.1-2.6,1.1-2.8,2.6c-0.1,0.8,0,1.7,0,2.6H39.6z M37.7,30.4c0-0.6-0.4-1-1-1.1
			c-0.7,0.1-1.1,0.7-1,1.3c0,0.1,0,0.1,0,0.2c0.1,0.6,0.3,1.2,0.4,1.8c0.1,0.2,0.3,0.4,0.6,0.5c0.1,0,0.5-0.2,0.5-0.3
			C37.3,32.1,37.5,31.3,37.7,30.4L37.7,30.4z"/>
	</g>
</g>
<line class="st1" x1="20.2" y1="80.5" x2="0" y2="80.5"/>
<line class="st1" x1="60" y1="80.5" x2="39.8" y2="80.5"/>
<polygon class="st2" points="31.6,80.3 34.6,75.7 34.6,74.8 32.3,74.8 30,78.5 27.6,74.8 25.4,74.8 25.4,75.7 28.4,80.3 25.2,85.1 
	25.2,86.1 27.5,86.1 29.8,82.5 30,82.1 32.5,86.1 34.8,86.1 34.8,85.1 "/>
</svg>
