<?xml version="1.0" encoding="utf-8"?>
<!-- Generator: Adobe Illustrator 23.0.1, SVG Export Plug-In . SVG Version: 6.00 Build 0)  -->
<svg version="1.1" id="Layer_1" xmlns="http://www.w3.org/2000/svg" xmlns:xlink="http://www.w3.org/1999/xlink" x="0px" y="0px"
	 viewBox="0 0 60 81.8" style="enable-background:new 0 0 60 81.8;" xml:space="preserve">
<style type="text/css">
	.st0{fill:#063332;}
	.st1{fill:none;stroke:#063332;stroke-width:2;stroke-miterlimit:10;}
</style>
<title>retail-dim</title>
<g>
	<g id="layer">
		<path class="st0" d="M43.1,17.9c0,1.8-0.5,3.6-1.5,5.1c-0.1,0.2-0.2,0.4-0.4,0.5c-0.1,0.1-0.1,0.2,0,0.3c0.7,0.7,1.3,1.4,1.9,2.1
			l4.1,4.5l0.6,0.7c0.2,0.1,0.2,0.4,0.1,0.6c0,0,0,0.1-0.1,0.1l-1,0.9c-0.4,0.4-0.5,0.4-0.9,0l-4-4.4c-0.6-0.7-1.3-1.4-1.9-2.1
			c-0.2-0.2-0.4-0.5-0.7-0.8c-0.1-0.1-0.2-0.1-0.3,0c-2.3,1.5-5.2,1.8-7.8,0.8c-2.2-0.8-4-2.5-4.9-4.7c-1.2-2.6-0.9-5.5,0.5-7.9
			c1.3-2.3,3.6-3.8,6.1-4.1c3.1-0.5,6.2,0.7,8.1,3.2C42.4,14.2,43.1,16,43.1,17.9z M42.3,18.1c0-4.4-3.5-7.9-7.9-7.9
			c-4.4,0-7.9,3.5-7.9,7.9c0,4.4,3.5,7.9,7.8,7.9C38.7,26,42.2,22.5,42.3,18.1C42.3,18.2,42.3,18.2,42.3,18.1z M47,31.6l-6.5-7.2
			l-0.6,0.6l6.5,7.2L47,31.6z"/>
		<path class="st0" d="M15.3,12v9.5c0,0.7,0,1.4,0,2.1c0,0.3-0.2,0.5-0.4,0.5c-0.2,0-0.4-0.1-0.4-0.3c0,0,0,0,0-0.1
			c0-0.8,0-1.6,0-2.4V0.6c0-0.4,0.1-0.6,0.4-0.6s0.4,0.2,0.4,0.6L15.3,12L15.3,12z"/>
		<path class="st0" d="M16.9,12V0.6C16.9,0.2,17,0,17.3,0s0.4,0.2,0.4,0.6v22.8c0,0.1,0,0.2,0,0.3c0,0.2-0.2,0.4-0.4,0.4
			c0,0,0,0,0,0c-0.2,0-0.4-0.1-0.4-0.3c0,0,0,0,0-0.1c0-0.1,0-0.2,0-0.2L16.9,12L16.9,12z"/>
		<path class="st0" d="M19.4,12c0-1.8,0-3.5,0-5.3c0-2.1,0-4.2,0-6.3c0-0.2,0-0.4,0.3-0.5c0.2,0,0.4,0.1,0.5,0.3c0,0,0,0.1,0,0.1
			c0,0.3,0,0.5,0,0.8v22.3c0,0.1,0,0.2,0,0.2c0,0.2-0.2,0.3-0.4,0.3c0,0,0,0,0,0c-0.2,0-0.4-0.1-0.4-0.3c0,0,0,0,0,0
			c0-0.2,0-0.4,0-0.6L19.4,12L19.4,12z"/>
		<path class="st0" d="M21.8,12V0.6c0-0.1,0-0.2,0-0.2C21.8,0.1,22,0,22.2,0c0.2,0,0.4,0.1,0.4,0.3c0,0.1,0,0.2,0,0.3
			c0,1.4,0,2.9,0,4.3c0,6.2,0,12.4,0,18.5v0.2c0,0.2-0.2,0.4-0.4,0.4c-0.2,0-0.4-0.2-0.4-0.4c0-0.1,0-0.3,0-0.5L21.8,12z"/>
		<path class="st0" d="M25,12v11.5c0,0.4-0.1,0.5-0.4,0.5s-0.4-0.2-0.4-0.5V10.7c0-3.4,0-6.8,0-10.2c0-0.2,0-0.4,0.2-0.5
			c0.1,0,0.3,0,0.4,0.1C25,0.2,25,0.4,25,0.5c0,0.9,0,1.7,0,2.6L25,12L25,12z"/>
		<path class="st0" d="M12,18.7c0-0.1,0-0.2,0-0.3V0.6c0-0.1,0-0.3,0.1-0.3C12.1,0.1,12.3,0,12.4,0c0.1,0,0.3,0.1,0.4,0.2
			c0,0.1,0.1,0.2,0.1,0.4V14c0,1.7,0,3.5,0,5.2c0,0.1,0,0.2-0.1,0.3L12,18.7z"/>
		<path class="st0" d="M27.1,0.1c0.2,0,0.3,0.1,0.3,0.3c0,0.1,0,0.2,0,0.2v10.1c0,0.5-0.1,0.6-0.4,0.6s-0.4-0.2-0.4-0.6V0.8
			c0-0.1,0-0.2,0.1-0.3L27.1,0.1z"/>
		<path class="st0" d="M29.1,4.6c0-1.4,0-2.7,0-4.1c0-0.2,0.1-0.4,0.3-0.5c0.2,0,0.3,0.1,0.5,0.2c0.1,0.1,0.1,0.3,0.1,0.4
			c0,1.1,0,2.3,0,3.4v4.6c0,0.1,0,0.2,0,0.3c0,0.2-0.2,0.4-0.4,0.3c0,0,0,0,0,0c-0.2,0-0.4-0.1-0.4-0.3c0-0.1,0-0.1,0-0.2L29.1,4.6z
			"/>
		<path class="st0" d="M39.7,4.8V9c0,0.4-0.3,0.6-0.6,0.4c-0.1-0.1-0.1-0.2-0.2-0.3c0-0.7,0-1.5,0-2.2c0-2.1,0-4.3,0-6.4
			c0-0.3,0.1-0.4,0.3-0.5c0.2-0.1,0.4,0.1,0.5,0.3c0,0.1,0,0.2,0,0.3L39.7,4.8z"/>
		<path class="st0" d="M32.4,4.3c0,1.2,0,2.5,0,3.7c0,0.2,0,0.3-0.2,0.4c-0.1,0.1-0.3,0.1-0.4,0.1c-0.1,0-0.2-0.2-0.3-0.3
			s0-0.1,0-0.1c0-2.5,0-5.1,0-7.6c0-0.2,0.1-0.4,0.3-0.5c0.2-0.1,0.4,0,0.5,0.2c0,0.1,0.1,0.2,0.1,0.4V4.3z"/>
		<path class="st0" d="M37.2,4.2v3.6c0,0.3-0.2,0.5-0.4,0.5c-0.2,0-0.4-0.1-0.4-0.3c0-0.1,0-0.2,0-0.3V0.5c0-0.3,0.2-0.5,0.4-0.5
			s0.4,0.2,0.4,0.5L37.2,4.2L37.2,4.2z"/>
		<path class="st0" d="M34.7,1.9c0,0.1,0,0.2,0.1,0.3v5.3c0,0.3-0.2,0.5-0.4,0.5S34,7.8,34,7.5c0-2,0-4.1,0-6.1c0-0.1,0-0.2,0-0.2
			L34.7,1.9z"/>
		<path class="st0" d="M12,18.7l0.7,0.7c0,0.1,0,0.2,0.1,0.3v3.8c0,0.1,0,0.2,0,0.2s-0.2,0.3-0.4,0.3s-0.3-0.1-0.4-0.2s0-0.2,0-0.3
			V19C12,18.9,12,18.8,12,18.7z"/>
		<path class="st0" d="M34.7,1.9L34,1.1c0-0.3,0-0.6,0-0.8C34,0.1,34.2,0,34.4,0c0,0,0,0,0,0c0.2,0,0.4,0.1,0.4,0.3
			C34.8,0.8,34.8,1.4,34.7,1.9C34.8,1.9,34.8,1.9,34.7,1.9z"/>
		<path class="st0" d="M27.1,0.1l-0.4,0.4c0-0.1,0-0.3,0.1-0.3S27,0.1,27.1,0.1z"/>
		<path class="st0" d="M34.4,12.2c0.3-0.1,0.3,0.1,0.4,0.3c0,0.1,0,0.2,0,0.2v10.9c0,0.3-0.2,0.5-0.4,0.5S34,23.9,34,23.6V12.9
			c0-0.1,0-0.2,0-0.3L34.4,12.2z"/>
		<path class="st0" d="M37.4,18.1c0-1.4,0-2.9,0-4.3c0-0.2,0.1-0.3,0.2-0.4c0.1-0.2,0.4-0.2,0.5,0c0.1,0.1,0.1,0.1,0.1,0.2
			c0,0.1,0,0.2,0,0.3c0,2.8,0,5.6,0,8.4v0.1c0,0.3-0.2,0.5-0.4,0.5s-0.4-0.2-0.4-0.5L37.4,18.1z"/>
		<path class="st0" d="M31.3,18.1v4.2c0,0.1,0,0.3,0,0.3c-0.1,0.1-0.2,0.2-0.4,0.3c-0.1,0-0.3-0.1-0.4-0.2s-0.1-0.2-0.1-0.3
			c0-2.1,0-4.2,0-6.3c0-0.7,0-1.4,0-2.2v-0.2c0-0.2,0.2-0.4,0.4-0.4c0.2,0,0.4,0.2,0.4,0.4c0,0,0,0,0,0L31.3,18.1L31.3,18.1z"/>
		<path class="st0" d="M34.4,12.2L34,12.6c0-0.1,0-0.3,0.1-0.4S34.3,12.2,34.4,12.2z"/>
	</g>
</g>
<line class="st1" x1="20.2" y1="77" x2="0" y2="77"/>
<line class="st1" x1="60" y1="77" x2="39.8" y2="77"/>
<path class="st0" d="M25.2,76.1h3.9v-3.9h1.8v3.9h3.9v1.8h-3.9v3.9h-1.8v-3.9h-3.9V76.1z"/>
</svg>
