<?xml version="1.0" encoding="utf-8"?>
<!-- Generator: Adobe Illustrator 25.0.1, SVG Export Plug-In . SVG Version: 6.00 Build 0)  -->
<svg version="1.1" id="Layer_1" xmlns="http://www.w3.org/2000/svg" xmlns:xlink="http://www.w3.org/1999/xlink" x="0px" y="0px"
	 viewBox="0 0 60 85.3" style="enable-background:new 0 0 60 85.3;" xml:space="preserve">
<style type="text/css">
	.st0{fill:#063332;}
</style>
<g id="Layer_2_1_">
	<g id="layer">
		<rect y="79.5" class="st0" width="20.2" height="2"/>
		<rect x="39.8" y="79.5" class="st0" width="20.2" height="2"/>
		<path class="st0" d="M25.2,79.6h3.9v-3.9h1.8v3.9h3.9v1.8h-3.9v3.9h-1.8v-3.9h-3.9V79.6z"/>
		<g id="Layer_2_2_">
			<g id="layer_1_">
				<path class="st0" d="M33.6,0c0.3,0.1,0.7,0.2,1,0.3c1.4,0.6,2.3,1.9,2.2,3.4v23c0,0.1,0.1,0.3,0.2,0.4c2.1,1.3,3.3,3.7,3.2,6.1
					c-0.1,2.9-2,5.4-4.7,6.4c-0.5,0.2-1.1,0.3-1.6,0.4l0,0h-1.2c-0.4,0-0.9-0.1-1.3-0.3c-2.7-0.7-4.7-3-5-5.7
					c-0.5-2.7,0.7-5.5,3.1-7c0.1-0.1,0.2-0.2,0.2-0.4V3.7c0-1.5,0.9-3,2.3-3.5c0.3,0,0.6-0.1,0.9-0.2C32.9,0,33.6,0,33.6,0z
					 M35.8,14c0,0,0,0,0-0.1V3.7c0-1.4-1.2-2.6-2.6-2.6s-2.6,1.2-2.6,2.6l0,0V14H35.8z"/>
				<path class="st0" d="M23.4,14l-3.6,2.2v-4.5L23.4,14z"/>
				<path class="st0" d="M24.8,14.5v-1H28v1H24.8z"/>
				<path class="st0" d="M28.1,3.2v1h-3.2v-1C24.9,3.2,28.1,3.2,28.1,3.2z"/>
				<path class="st0" d="M28,24.7h-3.2v-1H28V24.7z"/>
				<path class="st0" d="M25.8,9.3v-1H28v1H25.8z"/>
				<path class="st0" d="M25.8,19.6v-1H28v1H25.8z"/>
			</g>
		</g>
	</g>
</g>
</svg>
