<?xml version="1.0" encoding="utf-8"?>
<!-- Generator: Adobe Illustrator 23.0.1, SVG Export Plug-In . SVG Version: 6.00 Build 0)  -->
<svg version="1.1" id="Layer_1" xmlns="http://www.w3.org/2000/svg" xmlns:xlink="http://www.w3.org/1999/xlink" x="0px" y="0px"
	 viewBox="0 0 60 85.3" style="enable-background:new 0 0 60 85.3;" xml:space="preserve">
<style type="text/css">
	.st0{fill:#063332;}
	.st1{fill:none;stroke:#063332;stroke-width:2;stroke-miterlimit:10;}
</style>
<title>time-dim</title>
<g>
	<g id="layer">
		<g id="layer-2">
			<path class="st0" d="M21.3,40l-0.5-0.2c-1.7-0.5-2.7-2.4-2.2-4.1s2.4-2.7,4.1-2.2c1.7,0.5,2.7,2.4,2.2,4.1
				c-0.4,1.1-1.3,2-2.4,2.2c-0.1,0-0.2,0.1-0.3,0.1H21.3z"/>
			<path class="st0" d="M41.3,40L41,39.9c-1.8-0.4-2.9-2.1-2.5-3.9c0.4-1.8,2.1-2.9,3.9-2.5c1.5,0.3,2.6,1.6,2.6,3.1
				c0,1.6-1,3-2.6,3.4L42.1,40H41.3z"/>
			<path class="st0" d="M20.7,28.4h23.2c0.8,0,1.1,0.3,1.1,1.1v1.3c0,0.7-0.3,1-1,1H20.8c-1.8,0.1-3.4-1.4-3.4-3.2
				c0-1,0.4-1.9,1-2.5l2.2-2.2c0.2-0.1,0.2-0.3,0.1-0.5C19,17.8,17.3,12.4,15.7,7c0-0.2-0.2-0.3-0.4-0.3c0,0,0,0,0,0h-2.6
				c-0.4,0.1-0.9-0.2-1-0.6c0-0.1,0-0.2,0-0.3c0-0.5,0-1,0-1.4c0-0.6,0.3-0.9,0.9-0.9c1.4,0,2.8,0,4.1,0c0.7-0.1,1.4,0.4,1.6,1.1
				c0.2,0.6,0.4,1.2,0.6,1.9c0,0.2,0.2,0.4,0.4,0.4c0,0,0,0,0,0c0.5,0,1,0,1.6,0c0.4,0,0.8,0.3,0.8,0.8c0,0.1,0,0.2,0,0.2
				c-0.9,5.9,3.1,11.5,9,12.4c5.7,0.9,11.2-2.9,12.3-8.6c0.3-1.2,0.3-2.5,0.1-3.8c-0.1-0.4,0.2-0.9,0.6-1c0.1,0,0.1,0,0.2,0
				c0.6,0,1.3,0,1.9,0c1.4,0.1,2.5,1.3,2.5,2.8c0,0,0,0.1,0,0.1c0,0.4-0.1,0.8-0.3,1.2c-1.9,4.1-3.8,8.1-5.8,12.2
				c-0.5,1.3-1.8,2.1-3.1,2H24.5c-0.3,0-0.6,0.1-0.8,0.3L21,28L20.7,28.4z"/>
			<path class="st0" d="M32.5,18.3c-5.1,0-9.2-4.1-9.1-9.2S27.5,0,32.5,0c5,0,9.1,4.1,9.1,9.1C41.7,14.2,37.6,18.3,32.5,18.3
				C32.5,18.3,32.5,18.3,32.5,18.3z M31.6,6.6c0,0.8,0,1.6,0,2.3c0,0.3,0.2,0.6,0.4,0.9c0.7,0.8,1.5,1.5,2.3,2.3
				c0.3,0.4,0.8,0.4,1.2,0.2c0.4-0.3,0.4-0.8,0.2-1.2c0-0.1-0.1-0.1-0.2-0.2c-0.6-0.6-1.3-1.3-1.9-1.9c-0.1-0.2-0.2-0.3-0.2-0.5
				c0-1.4,0-2.8,0-4.2c0-0.6-0.3-1-0.8-1c-0.5,0-0.9,0.4-0.9,0.9c0,0,0,0.1,0,0.1C31.6,5.1,31.6,5.9,31.6,6.6z"/>
		</g>
	</g>
</g>
<line class="st1" x1="20.2" y1="80.5" x2="0" y2="80.5"/>
<line class="st1" x1="60" y1="80.5" x2="39.8" y2="80.5"/>
<path class="st0" d="M25.2,79.6h3.9v-3.9h1.8v3.9h3.9v1.8h-3.9v3.9h-1.8v-3.9h-3.9V79.6z"/>
</svg>
