<?xml version="1.0" encoding="utf-8"?>
<!-- Generator: Adobe Illustrator 23.0.1, SVG Export Plug-In . SVG Version: 6.00 Build 0)  -->
<svg version="1.1" id="Layer_1" xmlns="http://www.w3.org/2000/svg" xmlns:xlink="http://www.w3.org/1999/xlink" x="0px" y="0px"
	 viewBox="0 0 60 80.7" style="enable-background:new 0 0 60 80.7;" xml:space="preserve">
<style type="text/css">
	.st0{fill:#063332;}
	.st1{fill:none;stroke:#063332;stroke-width:2;stroke-miterlimit:10;}
</style>
<title>unatt-dim</title>
<g>
	<g id="layer">
		<path class="st0" d="M17.7,30.8c-3.4,0.5-5.7-1.5-5.7-4.9c0-5.1,0.1-10.3-0.1-15.5c-0.1-3.3,2.2-5.7,5.7-5.2L17.7,30.8z"/>
		<path class="st0" d="M42.3,30.8V5.3c2.4-0.7,4.9,0.7,5.6,3C47.9,8.7,48,9.1,48,9.5c0,5.7,0,11.4,0,17.1
			C47.9,29.3,45.6,31.1,42.3,30.8z"/>
		<path class="st0" d="M37.9,5.2c0-0.1-0.1-0.2-0.1-0.3c0-0.8,0-1.7,0-2.5c0.2-1.1-0.6-2.2-1.7-2.3c-0.2,0-0.4,0-0.6,0H24.6
			c-1.1-0.2-2.2,0.6-2.3,1.7c0,0.2,0,0.4,0,0.6c0,0.9,0,1.8,0,2.8h-2.5v25.6h20.4V5.2H37.9z M35.1,3.7c0,0.5,0,0.9,0,1.4H25
			c-0.3-2.5-0.3-2.5,2-2.5s4.7,0,7.1,0C35,2.6,35.3,2.9,35.1,3.7z"/>
	</g>
</g>
<line class="st1" x1="20.2" y1="75.9" x2="0" y2="75.9"/>
<line class="st1" x1="60" y1="75.9" x2="39.8" y2="75.9"/>
<path class="st0" d="M25.2,75h3.9v-3.9h1.8V75h3.9v1.8h-3.9v3.9h-1.8v-3.9h-3.9V75z"/>
</svg>
