<?xml version="1.0" encoding="utf-8"?>
<!-- Generator: Adobe Illustrator 23.0.1, SVG Export Plug-In . SVG Version: 6.00 Build 0)  -->
<svg version="1.1" id="Layer_1" xmlns="http://www.w3.org/2000/svg" xmlns:xlink="http://www.w3.org/1999/xlink" x="0px" y="0px"
	 viewBox="0 0 60 81.6" style="enable-background:new 0 0 60 81.6;" xml:space="preserve">
<style type="text/css">
	.st0{fill:#FFFFFF;}
	.st1{fill:none;stroke:#0C6D72;stroke-width:2;stroke-miterlimit:10;}
	.st2{fill:#0C6D72;}
</style>
<title>unatt-act</title>
<g>
	<g id="layer">
		<path class="st0" d="M17.7,30.8c-3.4,0.5-5.7-1.5-5.7-4.9c0-5.1,0.1-10.3-0.1-15.5c-0.1-3.3,2.2-5.7,5.7-5.2L17.7,30.8z"/>
		<path class="st0" d="M42.3,30.8V5.3c2.4-0.7,4.9,0.7,5.6,3C47.9,8.7,48,9.1,48,9.5c0,5.7,0,11.4,0,17.1
			C47.9,29.3,45.6,31.1,42.3,30.8z"/>
		<path class="st0" d="M37.9,5.2c0-0.1-0.1-0.2-0.1-0.3c0-0.8,0-1.7,0-2.5c0.2-1.1-0.6-2.2-1.7-2.3c-0.2,0-0.4,0-0.6,0H24.6
			c-1.1-0.2-2.2,0.6-2.3,1.7c0,0.2,0,0.4,0,0.6c0,0.9,0,1.8,0,2.8h-2.5v25.6h20.4V5.2H37.9z M35.1,3.7c0,0.5,0,0.9,0,1.4H25
			c-0.3-2.5-0.3-2.5,2-2.5s4.7,0,7.1,0C35,2.6,35.3,2.9,35.1,3.7z"/>
	</g>
</g>
<line class="st1" x1="20.2" y1="76" x2="0" y2="76"/>
<line class="st1" x1="60" y1="76" x2="39.8" y2="76"/>
<polygon class="st2" points="31.6,75.8 34.6,71.2 34.6,70.3 32.3,70.3 30,74 27.6,70.3 25.4,70.3 25.4,71.2 28.4,75.8 25.2,80.6 
	25.2,81.6 27.5,81.6 29.8,78 30,77.6 32.5,81.6 34.8,81.6 34.8,80.6 "/>
</svg>
