<?xml version="1.0" encoding="utf-8"?>
<!-- Generator: Adobe Illustrator 23.0.1, SVG Export Plug-In . SVG Version: 6.00 Build 0)  -->
<svg version="1.1" id="Layer_1" xmlns="http://www.w3.org/2000/svg" xmlns:xlink="http://www.w3.org/1999/xlink" x="0px" y="0px"
	 viewBox="0 0 60 86.1" style="enable-background:new 0 0 60 86.1;" xml:space="preserve">
<style type="text/css">
	.st0{fill:#FFFFFF;}
	.st1{fill:none;stroke:#0C6D72;stroke-width:2;stroke-miterlimit:10;}
	.st2{fill:#0C6D72;}
</style>
<title>vandalism-act</title>
<g>
	<g id="layer">
		<g id="layer-2">
			<path class="st0" d="M41.9,40l-0.5-0.1c-0.7-0.2-1.3-0.8-1.5-1.5c-1.5-3.9-1.9-8.2-1.3-12.3c0.1-0.9,0.3-1.8,0.5-2.7l-1.7-0.3
				c-1.2-0.2-2.5-0.4-3.7-0.6c-0.2,0-0.4,0-0.6,0.2l-5.6,4.5c-0.9,0.8-2.2,0.7-3-0.2c-0.2-0.3-0.4-0.6-0.5-1c-0.2-0.7,0.1-1.5,0.7-2
				c2.3-1.8,4.5-3.6,6.8-5.5c0.5-0.4,1-0.5,1.6-0.4l6.4,1h0.4c0-1.7-0.2-3.4-0.5-5.1c0.4-0.1,0.9-0.3,1.3-0.5c0.7-0.3,1.4-0.7,2-1.1
				c0.8-0.5,1-1.5,0.5-2.3c0,0,0-0.1,0-0.1c-0.6-0.8-1.6-0.9-2.4-0.4c-0.6,0.4-1.1,0.7-1.8,1.1c-0.2-1.4,0.7-2.6,2.1-2.9
				c0.4-0.1,0.8,0,1.1,0.1c1,0.2,1.9,0.9,2.4,1.8c0.4,0.8,0.8,1.7,1,2.6c0.3,1.1,0.4,2.3,0.7,3.4c0,0.1,0,0.2,0.1,0.3v2.4
				c0,0.4-0.1,0.9-0.2,1.3c0,1.4-0.8,2.8-2.2,3.3c-0.1,0.1-0.2,0.2-0.2,0.3c-1.1,3-1.4,6.2-0.9,9.3c0.2,1.5,0.6,3,1.1,4.5
				c0.3,0.7,0.2,1.4-0.2,2c-0.4,0.5-0.9,0.8-1.6,0.9L41.9,40z"/>
			<path class="st0" d="M38,7.6c-2.1,0-3.8-1.7-3.8-3.8S35.9,0,38,0c2.1,0,3.8,1.7,3.8,3.8c0,0,0,0,0,0l0,0
				C41.8,5.9,40.1,7.6,38,7.6C38,7.6,38,7.6,38,7.6z"/>
			<path class="st0" d="M36.8,14.1c-2.3-0.1-4.5-0.9-6.2-2.5c-0.4-0.4-0.9-0.8-1.3-1.2c-0.5-0.6-0.5-1.4,0.1-1.9
				C30,8,30.8,8,31.3,8.5l0,0c0.5,0.5,1,1,1.6,1.5c2.3,1.8,5.5,1.9,7.9,0.1c0.3-0.3,0.8-0.5,1.2-0.4c0.6,0.1,1,0.5,1.1,1
				c0.1,0.5-0.1,1.1-0.5,1.4c-0.9,0.7-1.9,1.2-2.9,1.5C38.8,13.9,37.8,14,36.8,14.1L36.8,14.1z"/>
			<path class="st0" d="M15.2,18.5l2.2,0.4l1.6,0.3c0.4,0.1,0.5,0.3,0.4,0.7c-0.3,0.6-0.6,1.3-1,2.1l1.9-0.7c0.1,0,0.2-0.1,0.3-0.1
				c0.2,0,0.3,0.1,0.5,0.2c-0.1,0.1-0.1,0.4-0.2,0.4c-1,0.4-2,0.8-3,1.2c-0.1,0-0.3,0-0.4-0.1c-0.1-0.1-0.1-0.3,0-0.4
				c0.3-0.6,0.6-1.3,0.9-1.9c0.1-0.2,0.1-0.4,0.3-0.6c-0.2,0-0.3-0.1-0.4-0.1c-1.3-0.3-2.7-0.5-4-0.7c-0.2-0.1-0.4-0.2-0.6-0.4
				c0.1-0.2,0.3-0.3,0.4-0.5c1-0.5,2-1.1,3-1.6c-0.1-0.1-0.2-0.2-0.3-0.3C16,15.5,15,14.8,14.1,14c-0.1-0.1-0.2-0.4-0.3-0.5
				c0.2-0.1,0.3-0.2,0.5-0.2c1.2-0.1,2.4-0.1,3.7-0.1c-0.5-1.3-1-2.6-1.5-3.8c0-0.2,0-0.4,0-0.6c0.2,0,0.4,0,0.6,0.1
				c1,0.6,2.1,1.3,3.1,1.9l0.5,0.3c0.1-1,0.3-1.9,0.4-2.9c0-0.2,0-0.3,0.1-0.4c0-0.1,0.1-0.3,0.3-0.3c0.1,0,0.3,0.1,0.3,0.2
				c0.6,0.9,1.3,1.9,1.9,2.8c0.1,0.1,0,0.3-0.1,0.5c-0.2-0.1-0.4-0.1-0.5-0.2c-0.5-0.6-0.9-1.3-1.4-2.1L21.4,11
				c-0.1,1.1-0.2,1.1-1.2,0.5l-2.8-1.8c0.3,0.8,0.6,1.5,0.8,2.1c0.2,0.4,0.3,0.8,0.5,1.2s0.1,0.7-0.5,0.7c-0.9,0-1.7,0.1-2.6,0.1
				h-0.6l2.5,1.9l0.4,0.3c0.4,0.3,0.4,0.5-0.1,0.8l-2.2,1.1l-0.4,0.2L15.2,18.5z"/>
		</g>
	</g>
</g>
<line class="st1" x1="20.2" y1="80.5" x2="0" y2="80.5"/>
<line class="st1" x1="60" y1="80.5" x2="39.8" y2="80.5"/>
<polygon class="st2" points="31.6,80.3 34.6,75.7 34.6,74.8 32.3,74.8 30,78.5 27.6,74.8 25.4,74.8 25.4,75.7 28.4,80.3 25.2,85.1 
	25.2,86.1 27.5,86.1 29.8,82.5 30,82.1 32.5,86.1 34.8,86.1 34.8,85.1 "/>
</svg>
