<?xml version="1.0" encoding="utf-8"?>
<!-- Generator: Adobe Illustrator 23.0.1, SVG Export Plug-In . SVG Version: 6.00 Build 0)  -->
<svg version="1.1" id="Layer_1" xmlns="http://www.w3.org/2000/svg" xmlns:xlink="http://www.w3.org/1999/xlink" x="0px" y="0px"
	 viewBox="0 0 60 79.6" style="enable-background:new 0 0 60 79.6;" xml:space="preserve">
<style type="text/css">
	.st0{fill:#FFFFFF;}
	.st1{fill:none;stroke:#0C6D72;stroke-width:2;stroke-miterlimit:10;}
	.st2{fill:#0C6D72;}
</style>
<title>vbpc-act</title>
<g>
	<g id="layer">
		<path class="st0" d="M23.3,15.4C18.8,15,10,17.2,10,21.6V27h26.6v-5.4C36.6,17.2,27.7,15.4,23.3,15.4z M23.2,13.4
			c3.7,0,6.6-3,6.6-6.7l0,0C29.9,3,27,0,23.3,0c0,0,0,0,0,0h-0.1c-3.7,0-6.6,3-6.6,6.6c0,0,0,0,0,0l0,0
			C16.6,10.3,19.6,13.3,23.2,13.4C23.2,13.3,23.2,13.3,23.2,13.4L23.2,13.4z M45.6,19.8v-6.4h-3v6.3H38l6,6.3l6-6.3L45.6,19.8z
			 M37.9,14.6V7.4h-4.6l6.1-6l5.9,6h-4.4v7.2L37.9,14.6z"/>
	</g>
</g>
<line class="st1" x1="20.2" y1="74" x2="0" y2="74"/>
<line class="st1" x1="60" y1="74" x2="39.8" y2="74"/>
<polygon class="st2" points="31.6,73.8 34.6,69.2 34.6,68.3 32.3,68.3 30,72 27.6,68.3 25.4,68.3 25.4,69.2 28.4,73.8 25.2,78.6 
	25.2,79.6 27.5,79.6 29.8,76 30,75.6 32.5,79.6 34.8,79.6 34.8,78.6 "/>
</svg>
