<?xml version="1.0" encoding="utf-8"?>
<!-- Generator: Adobe Illustrator 23.0.1, SVG Export Plug-In . SVG Version: 6.00 Build 0)  -->
<svg version="1.1" id="Layer_1" xmlns="http://www.w3.org/2000/svg" xmlns:xlink="http://www.w3.org/1999/xlink" x="0px" y="0px"
	 viewBox="0 0 60 86.1" style="enable-background:new 0 0 60 86.1;" xml:space="preserve">
<style type="text/css">
	.st0{fill:#FFFFFF;}
	.st1{fill:none;stroke:#0C6D72;stroke-width:2;stroke-miterlimit:10;}
	.st2{fill:#0C6D72;}
</style>
<title>vca-act</title>
<g>
	<g id="Layer_1-2">
		<g id="layer">
			<g id="Layer_1-2-2">
				<g id="Layer_1-2-2-2">
					<path class="st0" d="M34,0H13.6v13c-0.8,0.6-1.6,1.2-2.3,1.9c-5.8,5.7-5.8,15-0.1,20.8s15,5.8,20.8,0.1l0.1-0.1
						c2.5-2.4,4-5.7,4.2-9.1H53V0H34z M30.6,7.3c0,0.1,0.1,0.3,0.2,0.4L28,12.1c-1.8-0.8-3.7-1.3-5.6-1.4c0.2-0.9-0.3-1.8-1.2-2
						c-0.5-0.1-1.1,0-1.5,0.4l-3.6-1.7L30.6,7.3z M29.2,12.7l2.8-4.3h0.3c0.2,0,0.3,0,0.5-0.1l3.6,4.4L29.2,12.7L29.2,12.7z
						 M14.9,12.3V8.2l4.3,2l0,0c0,0.2,0,0.4,0.1,0.6C17.7,11.1,16.2,11.6,14.9,12.3z M21.7,38.6c-7.4,0-13.4-6-13.4-13.3
						s6-13.4,13.3-13.4S35,17.9,35,25.3c0,0,0,0,0,0C35,32.7,29,38.6,21.7,38.6z M51.8,25.3h-9.2v-3.2h-1.4v3.2h-4.9
						c0-1.7-0.3-3.4-0.9-5h16.4V25.3z M35,19.2c-0.7-1.6-1.8-3-3-4.3c-0.4-0.4-0.8-0.8-1.3-1.1h6.3l1.5,1.8
						c-0.4,0.8-0.1,1.8,0.7,2.2s1.8,0.1,2.2-0.7c0.3-0.5,0.2-1.2-0.1-1.7l1-1.6h6.2l3.2,2.9v2.5L35,19.2z M40.3,14.7h-0.2
						c-0.2,0-0.3,0-0.5,0.1l-0.8-0.9h2L40.3,14.7z M44.2,10.9h0.2c0.2,0,0.5-0.1,0.7-0.2l2.2,2h-4.3L44.2,10.9z M51.8,14.9l-1.3-1.1
						h1.3L51.8,14.9z M51.8,12.7h-2.5l-3.3-3c0.3-0.9-0.2-1.8-1-2.1c-0.9-0.3-1.8,0.2-2.1,1c-0.2,0.5-0.1,1,0.2,1.5l-1.6,2.6h-3.6
						l-4.3-5.2c0-0.1,0.1-0.1,0.1-0.2h18.1L51.8,12.7z M33.8,6.3c-0.3-0.8-1.2-1.3-2.1-1c-0.5,0.2-0.8,0.5-1,1H14.9v-5h15.6v1.4
						l1.8,1.8L34,2.6V1.2h17.8v5L33.8,6.3z"/>
					<path class="st0" d="M29.2,24l-11.6-6.2c-0.8-0.4-1.8-0.1-2.2,0.7c0,0,0,0,0,0c-0.1,0.2-0.2,0.5-0.2,0.8v12.1
						c0,0.9,0.7,1.6,1.6,1.7c0,0,0,0,0,0c0.3,0,0.5-0.1,0.7-0.2l11.6-5.9c0.8-0.4,1.1-1.4,0.7-2.2C29.7,24.5,29.5,24.2,29.2,24
						L29.2,24z"/>
				</g>
			</g>
		</g>
	</g>
</g>
<line class="st1" x1="20.2" y1="80.5" x2="0" y2="80.5"/>
<line class="st1" x1="60" y1="80.5" x2="39.8" y2="80.5"/>
<polygon class="st2" points="31.6,80.3 34.6,75.7 34.6,74.8 32.3,74.8 30,78.5 27.6,74.8 25.4,74.8 25.4,75.7 28.4,80.3 25.2,85.1 
	25.2,86.1 27.5,86.1 29.8,82.5 30,82.1 32.5,86.1 34.8,86.1 34.8,85.1 "/>
</svg>
