<svg xmlns="http://www.w3.org/2000/svg" viewBox="0 0 6.85 15"><defs><style>.cls-1{fill:#13a8bc;}</style></defs><title>attachment-act</title><g id="Layer_2" data-name="Layer 2"><g id="layer"><path class="cls-1" d="M1,7.1v4.59c0,1.51.47,2.09,2,2.3a4.79,4.79,0,0,0,1.51-.06,1.8,1.8,0,0,0,1.43-2c0-3,0-6,0-9,0-.56.14-.78.47-.79s.49.23.49.8c0,2.9,0,5.8,0,8.7A3,3,0,0,1,3.48,15,6,6,0,0,1,2,14.79a2.63,2.63,0,0,1-2-2.62c0-3.34,0-6.69,0-10C0,.71.76,0,2.19,0,2.6,0,3,0,3.42,0A2,2,0,0,1,5.36,2.08q0,3.27,0,6.54A1.79,1.79,0,0,1,3.48,10.3,1.72,1.72,0,0,1,1.72,8.57c0-1.24,0-2.47,0-3.7,0-.36.18-.59.47-.6s.49.21.5.6V8.46a.78.78,0,0,0,.82.88.86.86,0,0,0,.89-.9V2.25A1.12,1.12,0,0,0,3.14,1C2.77,1,2.39,1,2,1A.94.94,0,0,0,1,2.07C1,3.6,1,5.13,1,6.66Z"/></g></g></svg>