<svg xmlns="http://www.w3.org/2000/svg" viewBox="0 0 14.2 14"><defs><style>.cls-1{fill:#fff;}</style></defs><title>date-time</title><g id="Layer_2" data-name="Layer 2"><g id="layer"><path class="cls-1" d="M9,10.61l-.4.19C8.21,9.9,7.78,9,7.37,8.15a.67.67,0,0,0-.48-.44A.81.81,0,0,1,6.6,6.32a.82.82,0,0,0,.24-.48c0-1,0-2,0-3.08V2.32h.48c0,.49,0,1,0,1.45,0,.7,0,1.4,0,2.1a.73.73,0,0,0,.23.44.79.79,0,0,1,.19,1,.52.52,0,0,0,0,.54C8.24,8.76,8.63,9.68,9,10.61Z"/><path class="cls-1" d="M4.52,1.05,4.3.53,5,.12l0-.12L6.65.12V.21L5.2,1.13V1.05Z"/><path class="cls-1" d="M3,2,2.6,1.45,3.79.66l.32.6Z"/><path class="cls-1" d="M1.82,3.3l-.56-.39.87-1,.52.45Z"/><path class="cls-1" d="M1,4.86.39,4.64.94,3.41l.59.33Z"/><path class="cls-1" d="M.69,6.53,0,6.48.21,5.2l.67.17Z"/><path class="cls-1" d="M.81,8.2l-.66.12L0,7.1l.68,0Z"/><path class="cls-1" d="M1.33,9.74.72,10,.27,8.91l.65-.19Z"/><path class="cls-1" d="M1.58,10.21l.61.86-.51.45-.69-1Z"/><path class="cls-1" d="M2.08,12l.5-.48.75.65-.4.55Z"/><path class="cls-1" d="M4.4,13.51l-1-.48.34-.6.85.43Z"/><path class="cls-1" d="M5.14,13.06l.91.23L6,14l-1-.25Z"/><path class="cls-1" d="M8,13.31l.83-.18.2.65-.92.2Z"/><path class="cls-1" d="M6.58,13.37H7.5l0,.63h-1Z"/><path class="cls-1" d="M10.13,12.62l.32.6-.83.38L9.38,13Z"/><path class="cls-1" d="M11.66,12.41l-.7.52-.37-.57.62-.47Z"/><path class="cls-1" d="M12.13,12l-.5-.47.5-.52.52.42Z"/><path class="cls-1" d="M13.41,10.27l-.41.66-.56-.37L12.8,10Z"/><path class="cls-1" d="M13,9.47l.23-.62.64.2-.24.69Z"/><path class="cls-1" d="M13.41,8.34l.08-.6.68,0-.11.7Z"/><path class="cls-1" d="M14.2,7.18h-.64V6.59l.64,0Z"/><path class="cls-1" d="M13.39,5.53,14,5.38l.12.59-.67.09Z"/><path class="cls-1" d="M13.9,4.81l-.64.2-.18-.47.62-.26Z"/><path class="cls-1" d="M13.46,3.74l-.59.31-.25-.4.58-.36Z"/><path class="cls-1" d="M12.58,2.42l.3.38-.53.39-.28-.32Z"/><path class="cls-1" d="M12.2,2l-.46.49-.31-.27.48-.53Z"/><path class="cls-1" d="M10.74,1.65l.37-.55.33.21L11,1.84Z"/><path class="cls-1" d="M10,1.26l.32-.64.31.15C10.44,1,10.5,1.37,10,1.26Z"/><path class="cls-1" d="M9.28.88A3.26,3.26,0,0,1,9.45.41s.18,0,.27,0a2.35,2.35,0,0,1-.15.47c0,.06-.14.08-.21.12Z"/><path class="cls-1" d="M8.92.13a3,3,0,0,1-.14.49s-.13,0-.2.06a2.74,2.74,0,0,1,.07-.5c0-.06.13-.09.2-.14Z"/></g></g></svg>