<svg xmlns="http://www.w3.org/2000/svg" viewBox="0 0 11.36 15"><defs><style>.cls-1{fill:#e52033;}</style></defs><title>viewed-act</title><g id="Layer_2" data-name="Layer 2"><g id="layer"><path class="cls-1" d="M0,12.8H11.36c-.23-.47-.44-.92-.67-1.35a.49.49,0,0,0-.34-.25H1a.48.48,0,0,0-.32.21C.44,11.86.23,12.33,0,12.8Z"/><path class="cls-1" d="M7.21,13.8H4.14a1.58,1.58,0,0,0,3.07,0Z"/><path class="cls-1" d="M6.74.77A1.1,1.1,0,0,0,5.65,0a1.06,1.06,0,0,0-1,.77Z"/><path class="cls-1" d="M10.16,6.24a4.48,4.48,0,0,0-8.95-.32l-.09,4.3h9.12C10.21,8.89,10.17,7.57,10.16,6.24ZM5.59,3.29A2.76,2.76,0,0,0,3,5.4,4.85,4.85,0,0,0,2.91,6c0,.4-.19.59-.49.58S2,6.28,2,5.89A3.74,3.74,0,0,1,5.52,2.35c.39,0,.6.14.63.43S6,3.24,5.59,3.29Z"/></g></g></svg>