<svg xmlns="http://www.w3.org/2000/svg" viewBox="0 0 13.39 15"><defs><style>.cls-1{fill:#13a8bc;}</style></defs><title>unviewed-dim</title><g id="Layer_2" data-name="Layer 2"><g id="layer"><path class="cls-1" d="M6.38,15a2.4,2.4,0,0,1-1.75-1.34,5.6,5.6,0,0,1-.23-.59H3c-.86,0-1.73,0-2.59,0A.54.54,0,0,1,0,12.78a.53.53,0,0,1,.16-.47,3.09,3.09,0,0,0,1.46-2.25,14.31,14.31,0,0,0,.23-2c.06-.92,0-1.86.13-2.76A4.48,4.48,0,0,1,4.48,2a.62.62,0,0,0,.38-.5A1.77,1.77,0,0,1,6.2.07L6.38,0H7a7.16,7.16,0,0,1,.95.51,1.68,1.68,0,0,1,.6,1.12A.53.53,0,0,0,8.77,2,4.85,4.85,0,0,1,11.5,6.42c0,1,0,2,.1,2.93a8.19,8.19,0,0,0,.53,1.84,2,2,0,0,0,1,1.05.43.43,0,0,1,.28.51c-.06.25-.25.32-.49.32H9a2.46,2.46,0,0,1-1.23,1.66A5.91,5.91,0,0,1,7,15Zm4.35-5.08c0-1.19-.06-2.36-.08-3.53A4,4,0,0,0,2.71,6.1c0,1.27,0,2.54-.08,3.82ZM1.64,12.2H11.72c-.2-.41-.39-.81-.6-1.2a.41.41,0,0,0-.29-.21c-2.77,0-5.53,0-8.3,0a.37.37,0,0,0-.28.19C2,11.37,1.84,11.78,1.64,12.2Zm6.4.89H5.32a1.4,1.4,0,0,0,2.72,0ZM7.62,1.53a1,1,0,0,0-1-.69,1,1,0,0,0-.91.69Z"/><path class="cls-1" d="M3.38,6.07A3.32,3.32,0,0,1,6.54,2.93c.34,0,.53.12.56.38s-.15.41-.5.45A2.48,2.48,0,0,0,4.29,5.63a4.13,4.13,0,0,0-.07.49c0,.36-.17.53-.43.52S3.37,6.42,3.38,6.07Z"/></g></g></svg>