<svg xmlns="http://www.w3.org/2000/svg" viewBox="0 0 180.12 147.12"><defs><style>.cls-1{fill:#fff;}</style></defs><g id="Layer_2" data-name="Layer 2"><g id="Layer_1-2" data-name="Layer 1"><path class="cls-1" d="M0,0H4.15V15.45h7v4.21H4.35V37.5h6.79v4.24H4.34V59.43h6.83v4.19H4.34V81.36h6.82v4.23H4.32v17.78h6.84v3.92H4.35V125h6.79v4.17H4.34V142.7H21.09v-6.81h4.22v6.86H44.16v-6.84h4.28v6.85h19v-6.84h4v6.79H90.58v-6.79h4.29v6.82h18.79V136h4.24v6.76h19.15v-6.79h4v6.8h19V136h4.25v6.83h15.77v4.28H2.28c-.76,0-1.52,0-2.28.05Z"/><path class="cls-1" d="M140.55,77.69c-21.87,6.54-38.34-8.91-42.35-22.59a33.26,33.26,0,0,1,58.4-29.56c10.13,13.18,9.57,32.75-4.75,45.85.68,1.06,1.35,2.14,2.05,3.21q10.42,16.1,20.85,32.17c2.81,4.35,2.43,8-1.13,11.57a8.27,8.27,0,0,1-11.43.22,14.68,14.68,0,0,1-2.76-3.81c-6-11.72-12-23.49-17.92-35.24C141.2,78.89,140.87,78.28,140.55,77.69Zm5.91-7.44a29.3,29.3,0,0,0-28.94-50.77,29.1,29.1,0,0,0-3.79,50.46c9.06,6.12,18.74,6.61,28.71,2.48l.78,1.46q10,19.53,20.07,39.06a10.48,10.48,0,0,0,1.51,2.35,4,4,0,0,0,5.94.17c1.91-1.82,2.16-4,.68-6.35-1.84-2.93-3.74-5.82-5.61-8.73C159.39,90.37,153,80.37,146.46,70.25Z"/><path class="cls-1" d="M103.58,69.32l3.21,3.24c-3,1.39-2.31,3.55-1.69,6.08,1,4.28-1.89,8.73-6.18,10.2a8.87,8.87,0,0,1-10.83-4.55c-.32-.62-.59-1.27-.91-2-6.35,0-12.68,0-19,0a1.69,1.69,0,0,0-1.14,1c-2.23,5.34-6.91,7.27-12.34,5.11a1.7,1.7,0,0,0-1.49.13C45.78,95.88,38.41,103.27,31,110.67a9.66,9.66,0,0,1,1.05,7.19,9.36,9.36,0,0,1-11.69,6.54,9,9,0,0,1-5.71-11.87A9.2,9.2,0,0,1,26.79,107a1.93,1.93,0,0,0,2.55-.52q10.1-10.18,20.27-20.29A1.65,1.65,0,0,0,50.14,84a9.21,9.21,0,1,1,17.1-6.81c.15.38.32.75.51,1.2,6.23,0,12.44,0,18.65,0a1.61,1.61,0,0,0,1.12-.81c3-6,6.56-7.54,12.83-5.52a1.79,1.79,0,0,0,1.47-.39A17.5,17.5,0,0,0,103.58,69.32ZM96.13,85.61a5,5,0,0,0,5.22-4.78,4.89,4.89,0,0,0-4.87-5.26,5,5,0,1,0-.35,10ZM23,120.82a5,5,0,1,0,.13-10.06A5.43,5.43,0,0,0,18,116,5.08,5.08,0,0,0,23,120.82Zm30.78-40.7c0,3,2,5.23,4.72,5.27a4.94,4.94,0,0,0,5.14-4.89,5.07,5.07,0,0,0-5.13-4.94A4.51,4.51,0,0,0,53.79,80.12Z"/><path class="cls-1" d="M125.82,53.66,112.75,66.74l-2.71-3c3.71-3.69,7.52-7.57,11.44-11.35a2.18,2.18,0,0,0,.58-2.85,8.45,8.45,0,0,1,1.87-9.57,8.9,8.9,0,0,1,10-2.4,8.3,8.3,0,0,1,6,7.48c.67,6.45-6,11.62-12.2,9.43C127.08,54.22,126.5,53.94,125.82,53.66Zm-.21-7.79A5,5,0,0,0,130.69,51a5.07,5.07,0,0,0,5-5.07,5.13,5.13,0,0,0-5-5.08A5,5,0,0,0,125.61,45.87Z"/></g></g></svg>