<svg xmlns="http://www.w3.org/2000/svg" viewBox="0 0 619.45 479.95"><defs><style>.cls-1{fill:#fff;}</style></defs><g id="Layer_2" data-name="Layer 2"><g id="Layer_1-2" data-name="Layer 1"><path class="cls-1" d="M309.75.52c23.8,0,47.61.1,71.41-.1a9.49,9.49,0,0,1,8.65,4.33c12.58,17.23,23.67,35.4,32,55,6.68,15.64,12,31.82,14.76,48.8a225.83,225.83,0,0,1,3.21,41.82c-.12,5.25-1.51,10.53-1.2,15.72,1.35,23,2.4,46,5,68.83a297.63,297.63,0,0,0,9,45c3.63,13.28,9.26,26,13.89,39a5.79,5.79,0,0,1,0,4.08c-6,11.9-12.39,23.6-18.23,35.57-6.62,13.57-13,27.25-19.06,41.1-3.95,9.09-8.08,18.32-10.23,27.91-2.27,10.09-2.76,20.66-3.14,31.06-.5,13.52-7.68,21.07-21.44,21.06-10.48,0-21.08.79-31.42-.51-12.55-1.57-23-8.77-33.64-15.38-4.87-3-6.52-6.47-6.25-12,.44-9,.33-18,0-26.94-.14-3.94,1.53-5.81,4.73-7.53,12.55-6.75,23.35-15.55,30.19-28.31,8.26-15.43,3.1-30.83-15.83-35.15-19.56-4.47-39.29-3.24-58.91-1.47-6.24.56-12.71,3.58-18.16,7-8.34,5.17-10,18.58-4.63,28.46,7.13,13.17,17.92,22.53,31,29.4,3.47,1.83,5.16,3.76,5,7.9-.31,9.81.06,19.63-.23,29.44-.06,2.17-1.07,5.07-2.68,6.3-10.79,8.34-22.34,16.2-36,18-12.44,1.63-25.28,1.24-37.85.42-10-.65-16.62-9.24-16.22-19.32.55-13.56-.28-27-5.11-39.66-5.66-14.84-12.07-29.42-18.86-43.78-8.47-17.89-17.76-35.4-26.39-53.21-.87-1.81-.09-4.78.67-6.95,4.13-11.71,8.86-23.22,12.62-35,2.43-7.64,3.78-15.65,5.2-23.57,2.37-13.16,4.71-26.35,6.46-39.6.91-6.89.5-14,.76-20.92.51-14.22,1.2-28.43,1.53-42.65.09-3.9-1.52-7.86-1.24-11.71,1.05-14.81,2.19-29.55,5.56-44.18A230.55,230.55,0,0,1,206.11,42c7.29-13.72,16.38-26.5,25-39.47.95-1.43,4.1-1.95,6.23-2C261.47.47,285.61.52,309.75.52ZM235.07,203.15c16.46,1.18,31.4-14.62,31.64-30.29.3-19.41-15.13-32.9-31.34-32.62-18.16.3-31.23,13.08-31.79,31.42C203.07,188.09,218.23,204.19,235.07,203.15Zm148.75,0c16.43,1.43,32-15,31.88-30.67-.13-18.93-14.4-32.2-31.43-32.27s-31.2,13-31.83,31.6C351.91,187.6,367.87,204.34,383.82,203.15Z"/><path class="cls-1" d="M204,1c-4.43,7.48-9,14.21-12.57,21.42-6.91,13.94-13.54,28-19.73,42.3a166.61,166.61,0,0,0-8.25,24.13,210.32,210.32,0,0,0-4.87,25.64c-1.19,9-1.79,18.15-2.2,27.25-.21,4.61.95,9.27.85,13.89-.38,18.27-.14,36.61-1.81,54.77a433.8,433.8,0,0,1-8.25,51.24,249.88,249.88,0,0,1-11.88,40.3C127.52,321.22,117,339.06,99,351c-4,2.67-8.77,4.28-13.09,6.54-3.21,1.68-5.35,0-6.5-2.43-1.32-2.77-1.84-6-2.52-9-3-13.27-5.19-26.76-9-39.8a276.67,276.67,0,0,0-13.58-37.13C48,255,40.57,241.22,32.91,227.66,25.1,213.84,15.52,201,8.43,186.79a75.4,75.4,0,0,1-7-49c6.54-33.94,26.78-59.28,50.79-82.32C74,34.57,98.84,17.72,124.81,2.46A13.72,13.72,0,0,1,131.38.61c23.47-.13,46.94-.07,70.41,0A15.83,15.83,0,0,1,204,1Z"/><path class="cls-1" d="M415.85.52H421c15,0,30,1,44.92-.26,18-1.5,33.21,3.44,47.91,13.67,24.3,16.91,48.06,34.31,68,56.4,11,12.26,20.87,25.54,27.75,40.48,7.3,15.85,11.57,32.76,9.21,50.42a92.91,92.91,0,0,1-13.95,37.38c-9.43,15-19.29,29.8-27.68,45.38a354.69,354.69,0,0,0-19,42.49c-5.15,13.59-8.94,27.71-12.83,41.74-1.67,6-2,12.35-3.12,18.51-.52,2.87-.95,5.94-2.33,8.42s-3.36,3.89-7,2.39c-18.19-7.6-30.81-21-40.22-37.8a183.18,183.18,0,0,1-16.3-40.67c-5.64-20.21-10.11-40.62-11.24-61.65q-1-18.34-2.09-36.69c-.36-5.94-1.17-11.86-1.21-17.79,0-4.77,1-9.53,1.19-14.31a184.71,184.71,0,0,0-4.93-49.75C455,85.56,450.3,72.59,445.7,59.68c-7.29-20.46-18-39.23-29.74-57.43C415.81,2,415.91,1.62,415.85.52Z"/></g></g></svg>