<svg xmlns="http://www.w3.org/2000/svg" viewBox="0 0 23.35 12.92"><defs><style>.cls-1{fill:#fff;}</style></defs><title>armed-assault</title><g id="Layer_2" data-name="Layer 2"><g id="layer"><path class="cls-1" d="M.52,3.25l.16,0V2.87l-.15,0V2.57H.24V2.2L0,2.18V.74L.53.65V.49C.54.24.64.14.89.14H3.44l7,0c.08,0,.15-.06.23-.08A1.25,1.25,0,0,1,11,0h8.66c.28,0,.33,0,.42.31a.3.3,0,0,0,.33.19,1.68,1.68,0,0,0,.24-.06.34.34,0,0,1,.49.18.78.78,0,0,0-.36.86,8.16,8.16,0,0,1,.07,1.56c0,.26,0,.27.25.3a2.34,2.34,0,0,0,1.23-.12c.09,0,.16-.07.21,0s.06.19-.05.25a3.26,3.26,0,0,1-.4.24l-.66.29c-.24.11-.28.18-.19.43s.25.67.39,1c.36.82.74,1.63,1.1,2.45a6.92,6.92,0,0,1,.59,2.69c0,.52.05,1,.06,1.55a2.33,2.33,0,0,1-.07.53.24.24,0,0,1-.27.22H17.53l-.35,0c-.13,0-.16-.09-.09-.19a1.57,1.57,0,0,0,.23-1.28c-.13-.73-.24-1.47-.38-2.2a2.52,2.52,0,0,0-.24-.59.32.32,0,0,0-.3-.2L12.9,8a4.53,4.53,0,0,1-.75-.15c-.23-.07-.26-.18-.22-.42a1.07,1.07,0,0,0,0-.47,5.74,5.74,0,0,1-.24-1.6.93.93,0,0,0,0-.24.44.44,0,0,0-.51-.4l-9.41,0H.86c-.23,0-.34-.11-.34-.35ZM14.11,7.36a4,4,0,0,0,.37-2.45c0-.12-.06-.17-.19-.18l-1.44,0c-.38,0-.56.14-.59.52a3.51,3.51,0,0,0,.15,1.4,1.15,1.15,0,0,0,.93.86,1.83,1.83,0,0,0,.47,0c.74,0,1.48-.09,2.22-.16a.38.38,0,0,0,.37-.46,3.84,3.84,0,0,0-.33-1.28A1.3,1.3,0,0,0,15.28,5,2.07,2.07,0,0,1,14.11,7.36Z"/></g></g></svg>