<svg xmlns="http://www.w3.org/2000/svg" viewBox="0 0 414.51 475.25"><defs><style>.cls-1{fill:#fff;}</style></defs><g id="Layer_2" data-name="Layer 2"><g id="Layer_1-2" data-name="Layer 1"><path class="cls-1" d="M365.72,233.94c-90.54-30.33-153.57-13-190.88,52.35-29,50.86-29.18,129.9,42.57,183.91-12.8,6.24-37.55,6.74-65.13,1.29C68.52,455,5.23,381.86.22,296.43c-1.71-29,6.8-55.45,19.11-80.9,28.85-59.67,70-110.75,113.39-160.12C147.59,38.49,163.6,22.57,178.9,6c6.67-7.21,12.8-8.49,20.24-.84,61.29,63,119,128.75,159,208.05,2.7,5.35,5,10.93,7.26,16.47C365.9,230.89,365.63,232.38,365.72,233.94Z"/><path class="cls-1" d="M174.12,355.88c-.1-66.49,53.64-120.56,119.94-120.69,66.61-.13,120.61,53.68,120.45,120S360.13,475.32,293.77,475.1C227.86,474.88,174.22,421.43,174.12,355.88Zm131.46-.6c14.67-14.31,27.36-25.7,38.65-38.34,3.12-3.49,2-10.73,2.9-16.24-5.14,1.24-11.89.84-15.12,4-12.34,12.18-23.56,25.5-36.79,40.17-14.13-14.92-24.93-26.67-36.16-38-4.94-5-10.31-13.74-18.33-5.21S242,315.09,246.85,320c11.13,11.33,22.74,22.2,36.23,35.27-13.6,12.81-25.68,23.92-37.44,35.37-4.79,4.67-12.29,9.76-4.85,17.34s12.56.34,17.44-4.43c12-11.75,23.8-23.67,36.44-36.28,12.77,13.05,23.46,25,35.42,35.61,4.18,3.7,14.19,7.22,16.84,5.06,8.86-7.22.25-13-4.81-18C330.76,378.79,319,368,305.58,355.28Z"/></g></g></svg>