<svg xmlns="http://www.w3.org/2000/svg" viewBox="0 0 23.35 23.31"><defs><style>.cls-1{fill:#fff;}</style></defs><title>blacklisted-car</title><g id="Layer_2" data-name="Layer 2"><g id="layer"><path class="cls-1" d="M23.35,11.65A11.68,11.68,0,0,1,0,11.65,11.59,11.59,0,0,1,11.62,0,11.63,11.63,0,0,1,23.35,11.65ZM4.93,18.73l12-15.31a9.77,9.77,0,0,0-12,15.31Zm1.49,1.14a9.76,9.76,0,0,0,13.2-2.49A9.62,9.62,0,0,0,18.41,4.57Z"/><path class="cls-1" d="M13.83,6c-.41.52-.75,1-1.13,1.41a.71.71,0,0,1-.48.18c-1.15,0-2.3,0-3.44,0A.51.51,0,0,0,8.19,8c-.33,1-.7,1.92-1.09,3H9.94L5.81,16.2v-.88h-1c-.38,0-.56-.16-.56-.56,0-1.06,0-2.11,0-3.17,0-.48.16-.66.64-.63s.56-.15.68-.5C6,9.2,6.45,8,6.91,6.7c.24-.63.43-.77,1.11-.77h5.35Zm-8,7.62H7.46v-.77H5.83Z"/><path class="cls-1" d="M16.2,11a.9.9,0,0,0,0-.16c-.16-.48-.55-1-.43-1.43s.69-.92,1.13-1.44l.21.55c.26.7.54,1.39.78,2.1a.54.54,0,0,0,.62.45c.57,0,.64.07.64.64v3c0,.52-.11.63-.62.64h-1c0,.36,0,.68,0,1a.85.85,0,0,1-.88.93.86.86,0,0,1-.8-.95c0-.31,0-.62,0-1H11c.1-.16.15-.27.22-.36,1-1.25,2-2.52,3-3.76a.8.8,0,0,1,.53-.27C15.21,11,15.69,11,16.2,11Zm1.32,1.78H15.9v.79h1.62Z"/></g></g></svg>