<svg xmlns="http://www.w3.org/2000/svg" viewBox="0 0 809.48 806.44"><defs><style>.cls-1{fill:#fff;}</style></defs><g id="Layer_2" data-name="Layer 2"><g id="Layer_1-2" data-name="Layer 1"><path class="cls-1" d="M789.3,274.47c-19.1-60.94-51.6-117.69-96.69-162.59-44.19-44-98.69-78.12-158.53-95.72C482.84,1.09,428.68-1.75,375.32.86,256.88,6.65,160.25,54,84.32,145.79,32.14,208.86,7.57,277.69,1.5,359c-9.6,128.62,26.37,262.83,126.33,349.3,59.61,51.57,121.54,83.13,200,93.34a574.16,574.16,0,0,0,220.87-14.33c60.26-16,119.76-62.81,160.36-109.22C782.37,594.27,816.51,485,808.28,373.8A441.15,441.15,0,0,0,789.3,274.47ZM126.54,602.06c-148-203.59-23.14-499.49,226-534.67C369.69,65,387,64,397,63c79.14,1.58,144.91,21.88,203.65,63.71,18.64,13.26,18.72,14.67,2.17,31.24Q379.77,381.15,156.87,604.46C143.9,617.49,137.22,616.75,126.54,602.06ZM468.65,738.12a358.53,358.53,0,0,1-65.56,5.82c-73.6,0-139.94-22.13-199.79-64.9-13.12-9.37-13.75-16.22-2.15-27.77Q426.81,426.42,651.6,200.68c14.35-14.44,20.08-6.53,28.54,5C825.38,403.4,710,693.89,468.65,738.12Z"/><path class="cls-1" d="M343.35,363.84c-29.13,28.64-56.61,55.54-84,82.57-18.92,18.71-37.62,37.64-56.56,56.32-2.25,2.21-5.71,5.15-8.15,4.78-5-.75-4.26-6-4.27-9.77-.12-27.92-1.12-55.9.2-83.76,1.44-30.33,12-43.46,41.8-50.17,18.2-4.09,23.31-13.17,23-30.47-.44-25.23-.92-50.8,2.56-75.68,8.41-60.06,42.56-101.52,99.83-120.7,54.4-18.21,103.75-6.2,145.15,34.36,14.19,13.91,8.24,34.82-11.14,40.87-9.6,3-12.51-5.83-17.44-10.36-55.58-51.07-144-29.94-167.89,41.16-11.46,34.13-4.68,69.93-4.73,105,0,8.71,6.92,10,14.07,10.65C323.55,359.35,331.7,356.86,343.35,363.84Z"/><path class="cls-1" d="M432.57,625.78c-41.86,0-83.73.1-125.6-.12-5.57,0-13.26,2.54-15.83-4.66-2.06-5.8,4.36-9.13,7.93-12.74,22-22.2,44.21-44.15,66.18-66.35,7.48-7.56,13.84-12.87,20.95.71,4.08,7.78,10.77,14.37,20.7,12.72,10.75-1.78,14.39-10.71,16.89-20.05a8.58,8.58,0,0,0,.5-1.93c1.39-52.37,31.61-88,69-119.71,11.1-9.43,22.71-19.24,30.74-31.14,17.48-25.92,39.85-23.21,63.7-13.68s29.83,29.51,29.53,53.44c-.6,47.18,0,94.37-.24,141.56-.21,42-18.52,61-60.84,61.73-41.19.73-82.4.16-123.61.16Z"/></g></g></svg>