<svg xmlns="http://www.w3.org/2000/svg" viewBox="0 0 140.31 223.85"><defs><style>.cls-1{fill:#fff;}</style></defs><g id="Layer_2" data-name="Layer 2"><g id="Layer_1-2" data-name="Layer 1"><path class="cls-1" d="M62.72,223.85c-6.48-1.81-13.2-3-19.39-5.54C16.53,207.38-.22,181.54,0,152.25.21,124.8,17.87,99.13,44.11,88.7c3.51-1.4,4.76-2.88,4.67-6.67-.25-11.25,2-13.28,13.28-13.28,6.3,0,12.6-.06,18.9,0,7.11.1,11,3.39,10.4,10.27-.47,6,1.71,8.33,7.07,10.66,30.56,13.23,44.75,44,41.4,70.93-4.19,33.78-27.49,57.57-60,62.37a10.78,10.78,0,0,0-2.22.85ZM15.13,150.2c-.2,6.28,2.11,9.62,6.25,9.91s7.1-2.66,7.28-7.6c.57-15.69,7.82-27.28,21.15-35.32,4.6-2.78,5.76-6.23,3.63-9.84s-6.09-4.26-10.43-1.68C25.81,115.91,16.75,131.21,15.13,150.2Z"/><path class="cls-1" d="M67,61.48c2.55-17.83,20.89-34.79,38.49-35.18,1.65,0,3.35,2.3,5,3.53-1.32,1.62-2.45,4.4-4,4.66C91.34,37,81.37,45.51,76,59.76,75,62.5,73.58,62.65,67,61.48Z"/><path class="cls-1" d="M104.08,51.94a26.7,26.7,0,0,1,.37-5.39c.26-1,1.49-1.78,2.28-2.66.89,1,2.47,2,2.53,3a48.08,48.08,0,0,1-.44,9.81c-.16,1.06-1.69,1.92-2.59,2.87-.78-1.08-1.9-2.05-2.25-3.25-.39-1.36-.09-2.92-.09-4.4Z"/><path class="cls-1" d="M85.22,10.5c1-1.35,1.38-2.39,2-2.51,1-.21,2.55-.28,3.18.31a98.15,98.15,0,0,1,7.41,8,2.82,2.82,0,0,1,.21,2.6c-.41.67-2.07,1.45-2.34,1.21C92.11,17,88.74,13.79,85.22,10.5Z"/><path class="cls-1" d="M129.78,11a9.83,9.83,0,0,1-1.23,2.21,77.62,77.62,0,0,1-7.21,6.73c-.84.65-2.57.14-3.9.16.18-1.31-.09-3,.64-3.84a59.61,59.61,0,0,1,7.18-6.75,4.33,4.33,0,0,1,3.13-.41C128.93,9.2,129.28,10.28,129.78,11Z"/><path class="cls-1" d="M110.49,7.73c0,1.65.33,3.4-.11,4.92-.34,1.19-1.66,2.09-2.54,3.11-.84-1.17-2.26-2.29-2.4-3.54a35.28,35.28,0,0,1,.17-8.89c.19-1.21,1.74-2.23,2.67-3.33.76,1.09,1.86,2.09,2.2,3.29a17.27,17.27,0,0,1,.09,4.44Z"/><path class="cls-1" d="M129.16,48.9c-.92,1.47-1.21,2.53-1.76,2.68-1,.27-2.48.41-3.08-.14a86.45,86.45,0,0,1-7.42-7.89c-.56-.67-.43-2.17-.16-3.16.12-.45,1.75-1,2-.79C122.29,42.6,125.69,45.74,129.16,48.9Z"/><path class="cls-1" d="M129.08,33.13c-2.47-1.33-7.57,1.95-7.36-3.09.17-4.21,4.75-1.8,7.37-2.17a13.45,13.45,0,0,1,5.4.28c1,.28,1.78,1.6,2.65,2.46-1,.84-1.95,2.09-3.12,2.41C132.49,33.45,130.75,33.13,129.08,33.13Z"/></g></g></svg>