<?xml version="1.0" encoding="utf-8"?>
<!-- Generator: Adobe Illustrator 23.0.1, SVG Export Plug-In . SVG Version: 6.00 Build 0)  -->
<svg version="1.1" id="Layer_1" xmlns="http://www.w3.org/2000/svg" xmlns:xlink="http://www.w3.org/1999/xlink" x="0px" y="0px"
	 viewBox="0 0 331.8 444.4" style="enable-background:new 0 0 331.8 444.4;" xml:space="preserve">
<style type="text/css">
	.st0{fill:#FFFFFF;}
</style>
<title>Asset 1</title>
<g>
	<g id="layer">
		<path class="st0" d="M153.1,126.6v8.3c0,24.3-0.1,48.6,0.1,73c0.2,7.6-2.8,14.9-8.3,20.1c-25.7,25.6-51.4,51.3-76.9,77
			c-2.9,3-4.9,6.6-6,10.6c-7.5,29.3-14.5,58.8-21.7,88.2c-1.9,7.9-6.7,13.5-14.5,15.6s-14.9,0.1-20.4-6c-4.5-5-6.3-11.1-4.7-17.6
			c9.2-38.7,18.6-77.3,28.1-115.9c1-3.2,2.7-6,5.1-8.3c15.7-15.9,31.5-31.7,47.4-47.3c3.1-2.8,4.7-6.8,4.5-11
			c-0.1-34.2,0-68.3-0.2-102.4c-0.1-7.2,2.3-11.9,8.8-15.2c7.7-3.9,15-8.6,22.5-12.9c7.7-4.4,15.6-4.5,23.3-0.1
			c22.2,12.7,44.4,25.5,66.6,38.4c7.3,4.2,11.4,10.6,11.4,19.2c0.1,24.7,0.1,49.3,0,74c0.1,8.6-6.9,15.7-15.5,15.8
			c-5.9,0-11.4-3.3-14.1-8.6c-1.2-2.7-1.7-5.7-1.7-8.7c-0.2-18.8-0.3-37.7-0.1-56.5c0.1-7.1-2.2-12-8.7-15.3
			C170,136.8,162.3,131.9,153.1,126.6z"/>
		<path class="st0" d="M147.4,240.8c9.6,16.7,18.8,32.5,27.9,48.3c19.1,33,38.2,66,57.2,99c5.5,9.5,5.2,17.8-0.7,25.1
			c-9.1,11.3-26,9.7-33.6-3.3c-10-17.1-19.8-34.3-29.7-51.4c-15.6-27-31.1-53.9-46.7-80.9c-4.8-8.3-4.3-6.5,1.8-12.7
			C131.4,257,139.1,249.2,147.4,240.8z"/>
		<path class="st0" d="M152.3,28.8c-0.1,9.6-5.4,16.6-11.6,23c-9.7,10-21.6,16.5-34.9,20.6c-10.7,3.3-21.4-1.1-27-10.8
			C66.7,40.8,73.8,17.1,95.6,7c11.6-5.3,23.4-9.4,36.6-5.3C144.8,5.6,152.4,15.5,152.3,28.8z"/>
		<path class="st0" d="M331.8,444.3c-19.9,0-39.6,0-59.2-0.1c-1.5-0.2-2.8-1.1-3.6-2.4c-8.7-21.4-17.3-42.8-26.3-65.2h11.8
			c10,0,20-0.1,30,0.1c1.6,0,3.8,0.7,4.6,1.9c14.4,21.3,28.5,42.6,42.7,64C331.9,442.9,331.8,443.3,331.8,444.3z"/>
		<path class="st0" d="M87.7,376.8h40.6c3,22.3,6,44.6,9.1,67.3H78.8L87.7,376.8z"/>
		<path class="st0" d="M74.4,152.9c0,8.3,0,15.3,0,22.4c-0.1,7.3,1.7,15.4-0.9,21.7s-9.6,10.8-14.8,16c-7,7.1-14.1,14.2-21.2,21.2
			c-7,6.9-16.8,7.2-23.2,0.9s-6.1-16.2,0.9-23.1c18.5-18.5,36.9-37.1,55.5-55.5C71.6,155.5,72.5,154.6,74.4,152.9z"/>
	</g>
</g>
</svg>
