<svg xmlns="http://www.w3.org/2000/svg" viewBox="0 0 23.35 21.06"><defs><style>.cls-1{fill:#fff;}</style></defs><title>crowd-detection</title><g id="Layer_2" data-name="Layer 2"><g id="layer"><path class="cls-1" d="M13.74,8a2.71,2.71,0,0,0-.06.38q0,6,0,11.9a.73.73,0,0,1-.59.8.72.72,0,0,1-.86-.4,1.11,1.11,0,0,1-.09-.4L11.86,14a.93.93,0,0,0,0-.24c0-.1-.11-.19-.16-.29-.06.11-.18.21-.18.31-.08,1.47-.14,3-.2,4.42l-.09,2a.82.82,0,0,1-.79.86c-.46,0-.75-.34-.75-.89,0-2.35,0-4.7,0-7.06,0-1.63,0-3.25,0-4.88A1.29,1.29,0,0,0,9.57,8H9.44c-.06.59-.14,1.19-.2,1.78-.1,1-.2,2-.29,2.95,0,.45-.25.68-.62.67a.64.64,0,0,1-.57-.73c0-.67.06-1.34.09-2,0-1,.16-2,.13-3A3.64,3.64,0,0,1,12.7,4.19a3.47,3.47,0,0,1,2.65,3.44c.05,1.68.13,3.35.2,5a.6.6,0,0,1-.43.68c-.36.11-.67-.13-.73-.59-.1-.9-.18-1.81-.27-2.71C14.05,9.35,14,8.66,13.9,8Z"/><path class="cls-1" d="M5,8.4c0,.36-.12.71-.15,1.07-.1,1-.17,2-.3,2.94,0,.18-.29.4-.48.45s-.47-.15-.46-.46c.07-1.65.06-3.32.24-5A2.84,2.84,0,0,1,6.88,5.16a9.14,9.14,0,0,1,1.4.24C7.42,6.64,7.64,8,7.54,9.22s-.09,2.32-.13,3.48c0,.59.28.91,1.06,1.09,0,1.62,0,3.25,0,4.88a.6.6,0,0,1-.64.62.67.67,0,0,1-.67-.69c-.07-1.68-.13-3.35-.2-5,0-.2,0-.4-.08-.6H6.73a4,4,0,0,0-.08.46l-.24,5.07c0,.53-.23.79-.65.8s-.64-.28-.64-.8L5.09,9V8.41Z"/><path class="cls-1" d="M18.23,8.41v2.81q0,3.6,0,7.2c0,.19,0,.46-.12.57a1,1,0,0,1-.68.26c-.32,0-.47-.29-.49-.64-.07-1.74-.16-3.48-.24-5.21l0-.44-.16,0a3.06,3.06,0,0,0-.1.41l-.21,5.12c0,.14,0,.34-.07.4a1.5,1.5,0,0,1-.71.4c-.32,0-.52-.25-.52-.6,0-1.61,0-3.22,0-4.86.16-.05.37-.06.47-.16s.56-.52.55-.78c-.05-2-.15-4.07-.28-6.1a5.36,5.36,0,0,0-.43-1.28,3,3,0,0,1,4.38,2.16c.11,1.51.14,3,.2,4.55,0,.34,0,.67-.45.69s-.48-.27-.51-.6c-.11-1.15-.24-2.3-.36-3.45,0-.15,0-.29-.05-.43Z"/><path class="cls-1" d="M20.59,12.54c0,.11-.06.21-.07.32-.06,1.43-.13,2.85-.18,4.28,0,.38-.13.66-.54.67s-.54-.28-.53-.66V13.34c.83-.36.9-.44.87-1.36,0-1.44-.09-2.89-.2-4.32a6.37,6.37,0,0,0-.38-1.35,2.48,2.48,0,0,1,3.6,1.81c.11,1.25.12,2.5.18,3.76,0,.3,0,.61-.4.61s-.41-.32-.44-.62c-.09-1-.19-2-.28-2.94,0-.06,0-.11-.15-.16,0,.15,0,.31,0,.46,0,2.57,0,5.14,0,7.71v.29a.48.48,0,0,1-.52.58c-.34,0-.53-.19-.54-.56,0-1.27-.11-2.54-.17-3.8,0-.31,0-.61-.06-.91Z"/><path class="cls-1" d="M3.74,6.28A12.24,12.24,0,0,0,3.38,8c-.1,1.37-.13,2.75-.18,4.13,0,.79.11,1,.87,1.24,0,1.33,0,2.66,0,4a.46.46,0,0,1-.5.5A.51.51,0,0,1,3,17.25l-.18-4.13c0-.19,0-.38-.06-.57H2.64a2.57,2.57,0,0,0-.08.4c-.07,1.37-.13,2.75-.19,4.13,0,.53-.19.76-.56.74s-.5-.4-.5-.78c0-2.6,0-5.21,0-7.81,0-.14,0-.29,0-.44H1.15C1.08,9.36,1,10,1,10.54s-.07.9-.12,1.35c0,.29-.08.62-.46.6S0,12.15,0,11.85c.05-1.14.06-2.28.13-3.42A2.5,2.5,0,0,1,3.74,6.28Z"/><path class="cls-1" d="M11.65,3.67A1.82,1.82,0,0,1,9.82,1.82,1.88,1.88,0,0,1,11.66,0,1.84,1.84,0,0,1,13.5,1.85,1.8,1.8,0,0,1,11.65,3.67Z"/><path class="cls-1" d="M16.54,4.82a1.52,1.52,0,1,1,1.53-1.55A1.51,1.51,0,0,1,16.54,4.82Z"/><path class="cls-1" d="M5.27,3.26a1.53,1.53,0,0,1,3.05.05,1.53,1.53,0,1,1-3.05-.05Z"/><path class="cls-1" d="M1.42,4.5A1.26,1.26,0,0,1,2.7,3.24,1.27,1.27,0,1,1,1.42,4.5Z"/><path class="cls-1" d="M19.39,4.5a1.27,1.27,0,0,1,1.23-1.27,1.28,1.28,0,1,1,0,2.55A1.24,1.24,0,0,1,19.39,4.5Z"/></g></g></svg>