<svg xmlns="http://www.w3.org/2000/svg" viewBox="0 0 979.01 935.58"><defs><style>.cls-1{fill:#fff;}</style></defs><g id="Layer_2" data-name="Layer 2"><g id="Layer_1-2" data-name="Layer 1"><path class="cls-1" d="M979,432c-1.17,4.81-2.09,9.69-3.56,14.4-13.09,42.12-58.25,63.07-101.12,47a83.44,83.44,0,0,1-37.14-26.66c-39-49-78.34-97.62-117.57-146.38-1.64-2-3.32-4.07-5.14-6.3-15.21,9.55-31.29,16.25-48.75,18.86-46.51,7-85.14-7.87-117.58-41.68-23-24-32.39-53.22-36.63-85-3.79-28.34-3.56-56.78-1.92-85.23.14-2.55,1.84-5,2.82-7.51,2.56,1.24,5.78,1.88,7.58,3.83,13.32,14.44,26.36,29.13,39.48,43.75,9.89,11,19.57,22.26,29.77,33a28.08,28.08,0,0,0,11.13,7c10.9,3.61,22.22,3.84,33.57,2.23q24.69-3.49,49.36-7c8.9-1.27,14.47-6.33,16.37-15.1,4.62-21.43,9.57-42.8,13.47-64.35,2.21-12.17-1.51-22.8-10.45-32.32C680.6,61,659.23,36.74,637.77,12.6c-2.33-2.62-5.18-7-4.45-9.65,1.25-4.5,6.56-2.56,10.13-2.38,34.3,1.68,68.43,4.85,101.21,15.92,51.56,17.41,83.14,53.24,93.69,106.36,6.89,34.71-1.56,67-21.46,96.27a74.87,74.87,0,0,1-4.65,6.06c1.63.88,3.58,1.43,4.85,2.68,45.71,44.7,91.21,89.6,137.08,134.12C968,375.41,974.84,391.79,978,410.23c.22,1.27.66,2.5,1,3.75Z"/><path class="cls-1" d="M775,502.54c3.42,4.23,6,7.2,8.33,10.33,15.15,20.07,35,33.9,57.93,43.59,3.5,1.48,5.05,3,5.05,7.11q-.23,137.85-.14,275.7c0,54.46-41.65,96.22-96.11,96.24q-326.91.13-653.82,0C41.62,935.5,0,893.58,0,838.83q0-239,0-478c0-54.77,41.41-96.38,96.19-96.78,11.64-.09,23.29,0,35.32,0V156.71H63.28v-5.5c0-28,.07-55.94-.09-83.91,0-4.16.76-5.73,5.4-5.72q190.8.2,381.6.12c1.62,0,3.24.15,5.07.24v94.63H388V264h63.43c8.45,26.48,21.26,50.1,41,71.2h-7q-182.05,0-364.11,0c-22.2,0-40.15,11.68-46.95,31.25a57.9,57.9,0,0,0-3,18.56q-.24,214.77-.09,429.53c0,29.47,20.6,49.7,50.19,49.7q301.68,0,603.37,0c29.72,0,50.11-20.44,50.12-50.3q.06-152.09,0-304.17C775,507.85,775,505.93,775,502.54ZM316.17,263.78V157.14H203.58V263.78Z"/><path class="cls-1" d="M142.87,667.22c8.1,0,15.77.67,23.29-.13,22.16-2.33,41.88-11.26,60.27-23.51,10.93-7.29,21.75-14.81,33.08-21.43,26.09-15.23,54.66-18.51,84.32-17,32.26,1.63,59.83,15.14,86.51,31.8,43.24,27,89.64,30.17,137.79,16.71,17.64-4.93,32.92-15,48.44-24.36,17.52-10.56,35.91-18.93,56.32-21.9,9.48-1.38,19.06-2,29.28-3.08V776.5c0,.67,0,1.33,0,2-.19,14.69-4.57,19.06-19.15,19.07q-159.09.16-318.17.34-100.14.15-200.28.38a48.47,48.47,0,0,1-8.93-.7c-7.11-1.32-10.95-5.52-12-12.77a34.47,34.47,0,0,1-.41-5q-.19-54.18-.34-108.38Z"/></g></g></svg>