<svg xmlns="http://www.w3.org/2000/svg" viewBox="0 0 63.21 42.85"><defs><style>.cls-1{fill:#fff;}</style></defs><g id="Layer_2" data-name="Layer 2"><g id="Layer_1-2" data-name="Layer 1"><path class="cls-1" d="M52.91,42.85H11.24a.81.81,0,0,1-.53-.12.76.76,0,0,1-.21-.48,7.45,7.45,0,0,1,.64-5.5c1.15-1.78,3.3-2.56,5.25-3.4a39.7,39.7,0,0,0,8-4.58,5.44,5.44,0,0,0,2.21-2.59,4.75,4.75,0,0,0-.26-2.92c-.75-2.09-2-3.94-2.91-6a15.32,15.32,0,0,1,.3-12.39A8.85,8.85,0,0,1,25.57,2.2C29.23-1.18,36-.62,38.76,3.56a14.14,14.14,0,0,1,2,5.67c.49,3.13.42,6.5-1.18,9.24-.65,1.12-1.55,2.09-2.24,3.2a5.08,5.08,0,0,0-.88,3.71,6.31,6.31,0,0,0,2.8,3.35,47.29,47.29,0,0,0,6.79,4c2.28,1.11,4.8,2.15,6.15,4.29A7.83,7.83,0,0,1,52.91,42.85Z"/><path class="cls-1" d="M8.09,40.48a.42.42,0,0,1-.14.09,1.54,1.54,0,0,1-.64.11c-1.92,0-3.84,0-5.75-.07-.69,0-1.59-.29-1.56-1a1.39,1.39,0,0,1,.35-.73C2,36.75,3.92,34.55,6.49,33.59c2.39-.9,5.32-.71,7.12-2.52A4.29,4.29,0,0,0,14.71,27a1.67,1.67,0,0,0-.42-.8,2,2,0,0,0-.88-.37L8.29,24.57a.83.83,0,0,1-.45-.22.81.81,0,0,1-.09-.63L9.21,12.54c.45-3.43,1.14-7.27,4-9.27,1.41-1,8.38-2.9,9-.36a3.16,3.16,0,0,1-.1,1.49,33.57,33.57,0,0,0-1.05,8.4,15.34,15.34,0,0,0,2.3,8.05c.67,1,1.53,2,1.55,3.25a4.13,4.13,0,0,1-1.23,2.7c-2.23,2.5-5.49,3.75-8.45,5.31S9.29,36,8.62,39.23A2,2,0,0,1,8.09,40.48Z"/><path class="cls-1" d="M41.05,2.7c3.56-1.07,7.45-.36,9.5,3a11.66,11.66,0,0,1,1.53,5.67,17.85,17.85,0,0,1-2.67,10c-.75,1.2-1.67,2.55-1.22,3.88a4,4,0,0,0,1.34,1.65A34.14,34.14,0,0,0,56,31.15c2.26,1.15,4.78,2.15,6.19,4.26a6.25,6.25,0,0,1,1,4.41.71.71,0,0,1-.23.49.78.78,0,0,1-.48.11l-7.75,0a5.72,5.72,0,0,0-1.83-5.1,19,19,0,0,0-4.73-3.05q-4.12-2.16-8-4.72a3.81,3.81,0,0,1-1-5.34,17.8,17.8,0,0,0,2.76-7.56A35.65,35.65,0,0,0,41,2.71Z"/></g></g></svg>