<svg xmlns="http://www.w3.org/2000/svg" viewBox="0 0 1249.66 934.15"><defs><style>.cls-1{fill:#fff;}</style></defs><g id="Layer_2" data-name="Layer 2"><g id="Layer_1-2" data-name="Layer 1"><path class="cls-1" d="M1249.66,274.43c-17.07,28.4-42.2,49.45-66.41,71.08-13.63,12.18-26.83,10.56-41.72-3.08-20.1-18.42-40.32-36.67-62-53.25-148.76-113.91-317-166.39-503.78-154.08-175.72,11.57-329,78.24-458.49,198.16-4.28,4-8.4,8.16-13,11.72-14.44,11.19-27.71,11.67-40.92-.58-18.53-17.19-36.58-35-53.66-53.65-14.71-16.07-12.66-30.37,6-48C111,152.54,219.86,84.5,345.22,43.55,421.62,18.59,500,3,580,.51,823.1-6.9,1038.11,65.76,1219.52,230.63c11.55,10.5,23.31,20.6,30.14,35.05Z"/><path class="cls-1" d="M1010.08,931.91C990.5,918,974.7,900.05,958.7,882.48c-10.54-11.57-9.73-20.29,1.63-31.93,18.34-18.79,36.92-37.35,56-55.41,7.69-7.29,8.49-12.26.33-20-18.74-17.68-36.79-36.11-54.79-54.54-13.72-14-13.56-23.23.28-37.45,12.21-12.54,24.56-25,37.17-37.08,13.06-12.57,22.12-12.86,35.28-.26,18.62,17.82,37,35.94,54.7,54.63,8.07,8.51,13.54,9.73,22.1.32,16.67-18.33,34.36-35.75,52-53.2,14.82-14.67,23.6-14.71,38.28.09,15.4,15.51,31.94,29.93,45.64,47.09,3.45,15.12-1.53,27.32-12.42,37.91-12.89,12.54-25.56,25.31-38.13,38.18-12.26,12.55-12.33,18.51,1.38,29.66,12.5,10.16,23.18,22.17,35.24,32.68,9.67,8.42,13,19.5,16.32,30.88v8.76c-6.36,24-26.12,37.5-42.82,53-8.48,7.89-20.59,7.24-31.8,6.72-10.46-1.69-18.74-6.92-26.08-14.57q-18.18-18.91-37.14-37.11c-10.78-10.31-14.71-10.25-25.61.34-12.56,12.19-25.06,24.46-37.15,37.1C1038.22,929.7,1025.8,935.23,1010.08,931.91Z"/><path class="cls-1" d="M609.82,934.15c-5.15-4.42-11.89-3.86-17.88-5.47-63.19-17-105.75-77.2-98.08-139.08,8.43-68.07,62.11-117.34,128.71-118.13,66.43-.78,121.49,46.85,131.14,113.43,9.88,68.17-36.35,132.16-105.23,145.71-4.21.83-8.88.13-12.36,3.54Z"/><path class="cls-1" d="M613.81,219c180.44,5.32,332.42,59.51,459.11,177.63,24.8,23.13,25,35.08,1.34,59.51-12.86,13.28-25.81,26.52-39.35,39.11-20.77,19.33-33.13,19-54.11-.33-44-40.58-92.12-75.65-148-97.41-206-80.12-394.07-50.52-562,95-25.6,22.18-36.9,22.82-60.56-.74-13.8-13.73-27.88-27.21-41.15-41.44-16.56-17.77-16.42-31.35.83-47.92Q320.31,257.79,527,227.52C558.8,222.92,590.72,219.5,613.81,219Z"/><path class="cls-1" d="M627.08,437.44c111.33.72,208.22,39.06,291.57,112.32,24.6,21.62,25.27,35,3,58.67C908,623,893.79,637,879.41,650.79c-16.7,16.05-30.93,16.5-48.75,1-64.17-56-138.32-84-223.77-79.5-71.2,3.72-132.82,31.32-186.57,77.43-21.55,18.49-34,18.24-54.14-1.62q-21.3-21-42.12-42.51c-17.51-18-17.83-33.52.3-50.33Q428.15,459,568.77,440.82A414.31,414.31,0,0,1,627.08,437.44Z"/></g></g></svg>