<svg xmlns="http://www.w3.org/2000/svg" viewBox="0 0 1292.31 1663.13"><defs><style>.cls-1{fill:#fff;}</style></defs><g id="Layer_2" data-name="Layer 2"><g id="Layer_1-2" data-name="Layer 1"><path class="cls-1" d="M484.4,400.59C483.85,178.94,661.27,1.22,884.31,0c228.59-1.25,407.53,177.12,408,406.68.45,219.54-180.29,400.27-401,401C661.81,808.51,485,631.56,484.4,400.59Zm484,84V162.27H809.93V484.61Zm.66,83.74H809V645.8H969Z"/><path class="cls-1" d="M795.54,865.54q0,296.1.18,592.19c0,9.76-2,13.41-12.68,13.32-65.59-.52-131.19-.26-196.79-.26H575.36V757.6q-10.85-9.6-21.16-19.9C466.46,649.58,418,529.92,417.63,400.76a477.57,477.57,0,0,1,4.7-68l-15.52,2.78Q210,370.86,13.2,406.09C4.14,407.7.41,410.51.41,420.81q.14,563-.41,1126c0,3.94.33,7.88.53,12.51l574,103.83V1564.4H888.35V874.48A495.13,495.13,0,0,1,795.54,865.54ZM500.41,1020.26c-12.23,12.36-30.23,12.23-42.39-.2-17.73-18.11-18-52.3-.54-70.88,12.26-13.06,30.68-13.33,43.15-.56,9.56,9.81,13.41,21.83,13.25,35C514.14,997.8,510.35,1010.21,500.41,1020.26Z"/></g></g></svg>