<svg xmlns="http://www.w3.org/2000/svg" viewBox="0 0 210.27 177.85"><defs><style>.cls-1{fill:#fff;}</style></defs><g id="Layer_2" data-name="Layer 2"><g id="Layer_1-2" data-name="Layer 1"><path class="cls-1" d="M54.1,62.32C75,83,95.43,103.34,116.17,123.94c-8.71,8.76-17.3,17.65-26.18,26.26-6.19,6-12.7,11.66-19.18,17.35-12.94,11.38-27.67,13-43.11,6.52C12,167.49,2.72,155.31.43,138.34c-1.82-13.47,2.13-25.27,11.83-34.9C26.25,89.57,40.36,75.81,54.1,62.32Z"/><path class="cls-1" d="M198.91,109.32l-63,49.85c-13.06-14.48-8.61-39.83,9.33-54.63C160.6,91.89,187.22,94.09,198.91,109.32Z"/><path class="cls-1" d="M203.12,115.91c11.57,12.2,8.7,36.05-5.77,49.88-16.53,15.8-42.07,16-57.46.13Z"/><path class="cls-1" d="M124.64,116.72,63.18,55.3c4.25-4.68,8.56-9.63,13.09-14.37,9.38-9.82,18.87-19.54,28.34-29.27,22.17-22.78,62.46-10.33,71,21.35,4.13,15.28,1,29.2-10.12,40.9Q145.14,95.3,124.64,116.72ZM73.1,53.18l50.66,53.48c3.24-3.43,5.79-6.23,8.44-8.93,10-10.18,20.54-19.86,29.83-30.62,12.51-14.49,10.32-36.83-3.88-49.8C143.52,4,122.72,3.7,108.76,17.22,96.26,29.32,84.24,41.91,73.1,53.18Z"/></g></g></svg>