<svg xmlns="http://www.w3.org/2000/svg" viewBox="0 0 732.5 897.87"><defs><style>.cls-1{fill:#fff;}</style></defs><g id="Layer_2" data-name="Layer 2"><g id="Layer_1-2" data-name="Layer 1"><path class="cls-1" d="M546.87,173.26c39.14-.49,73.48-28,82.57-66.23,9.54-40.09-10.21-80.6-47.87-98.3-6-2.8-11.82-5.81-17.72-8.73h-35.8c-5.93,2.89-11.82,5.87-17.8,8.67-37.8,17.71-57.09,57.09-48.08,98.25C470.54,145.11,507.12,173.76,546.87,173.26Z"/><path class="cls-1" d="M188.34,175.67c-8.44-12-16.26-10.18-19.37,3.75-3.24,14.52-5.83,29.4-6.5,44.22-1,22.63-10,20.35-24.65,10.44-16.66-11.27-34.17-21.3-51.47-31.61-5.72-3.42-12.48-7.76-18.67-2.95-6.75,5.23-2.34,12.55,0,18.56,7.75,20.21,15.65,40.38,24.11,60.29,5.39,12.68,2,17.91-11.76,17.85-16.4-.06-32.84.15-49.18,1.36-8.4.62-20.28-1.61-23.16,8.9C5.22,315.3,15,320.14,21.3,325.21c14.56,11.65,29,23.53,43.83,34.77,10.45,7.89,9.32,13.17-1.66,19.42C42.13,391.52,19.13,400.86,0,416.75v4.48c28,10.94,57.79,14.37,87.16,18.94,19.43,3,27.06,9.14,15.22,28.37-5.42,8.8-9.16,18.82-12.54,28.67-4.49,13.07,0,19.48,14.06,14.48,18.26-6.5,36.28-13.69,54.24-21,4.68-1.89,10.6-4.72,7.92-11.31-2.5-6.16-8.7-5-13.64-3.48-11.73,3.6-23.28,7.77-35.76,12-1.16-13,5-21,8.64-29.73,9.8-23.38,8.77-25.37-16.59-30.71-21.32-4.49-43.54-5.42-66-14.84,14.18-13,30.28-17.62,44.3-25.7,18.78-10.81,19.32-14.82,3.21-28.69s-34.6-24.57-49-41.12c2.85-1.56,4.06-2.78,5.32-2.83,13.41-.49,26.82-.84,40.24-1.12,32.31-.68,35-5.16,22.5-35.91C103,261.74,97.11,246,88.58,224.05c22.5,13.5,38.94,23.34,55.35,33.23,25.62,15.44,27,14.44,32.92-15.65,2.24-11.46-2.41-29.78,7.85-32.85,11.22-3.36,14.23,15.67,22.26,23.64,1,1.05,1.81,2.38,2.77,3.51,3.45,4,7.41,8.94,13,5.67,6.12-3.57,3.06-9.36.25-13.71C211.65,210.35,200.34,192.77,188.34,175.67Z"/><path class="cls-1" d="M693.14,219.29c-13.21-28.52-38.81-40.75-68.85-42.38-36-1.95-62.11,31.73-51.5,64.69a25.94,25.94,0,0,0,4.79.26c-1.69,1.28-3.35,2.59-5,3.94-51.08,19.86-97.88,10.86-140.72-21.75-11.8-9-22.43-19.53-33.42-29.56-14.16-12.92-29.35-18.41-45.8-4.81-14.19,11.74-14.44,30.22,1,47.43,33.46,37.31,73.46,64.12,122.89,76.94,42.58,11.06,82.45-1.27,123.08-9.31-17.43,9.05-19.88,22.83-15.39,41,5,20.22,6.49,41.13,7.35,62.1.75,18.23-5.42,24.06-23.54,20.73-38.81-7.15-77.9-12.74-116.77-19.53-20.3-3.55-37.94,0-54.28,13.36C350.23,460.61,303,498.2,255.91,536c-10.22,8.21-17.88,17.9-19.16,31.56-1.86,20,2.76,37.55,20.84,48.45,20.23,12.21,40.45,9.2,58.39-4.84,39.33-30.77,78.16-62.19,117-93.58,8.41-6.79,16.38-11.56,28.25-9.35,29.27,5.47,58.66,10.71,88.23,14,18.76,2.08,23.31,9.08,19,27.35a512.64,512.64,0,0,0-9.41,182.25c5.79,46.11,15.22,91.28,32.65,134.38,9.24,22.84,30.65,34.69,51.32,31,23-4.16,40.54-24,41.38-46.45.38-10-3.6-18.92-6.61-28.12-30.68-93.9-36.31-188.37-6.69-283.75,3.7-11.91,9.2-21.14,20.82-27.37,18.91-10.14,29.1-27.42,33.21-48.11C742,378.43,729.18,297.15,693.14,219.29Z"/></g></g></svg>