<?xml version="1.0" encoding="utf-8"?>
<!-- Generator: Adobe Illustrator 24.2.2, SVG Export Plug-In . SVG Version: 6.00 Build 0)  -->
<svg version="1.1" id="Layer_1" xmlns="http://www.w3.org/2000/svg" xmlns:xlink="http://www.w3.org/1999/xlink" x="0px" y="0px"
	 viewBox="0 0 49.8 51.2" style="enable-background:new 0 0 49.8 51.2;" xml:space="preserve">
<style type="text/css">
	.st0{fill:#FFFFFF;}
</style>
<g>
	<path class="st0" d="M44.2,24.6c-0.1,0.2-0.2,0.4-0.2,0.5c-0.7,1.8-1.4,3.6-2.2,5.3c-0.4,0.8-0.4,1.7-0.5,2.5
		c-0.2,1.9-0.3,3.8-0.5,5.8c-0.1,0.8,0.1,1.5,0.5,2.2c1.1,2,2.2,4.1,3.3,6.1c0.6,1.1,0.4,2.4-0.4,3.3c-0.8,0.9-2.1,1.2-3.2,0.7
		c-0.6-0.3-1.1-0.7-1.4-1.3c-1.2-2.2-2.3-4.3-3.5-6.5c-0.9-1.8-1.1-3.7-0.9-5.7c0.1-0.9,0.2-1.8,0.2-2.8c-0.2,0.2-0.3,0.3-0.5,0.4
		c-1.3,1.2-2.5,2.5-3.8,3.7c-1,0.9-1.4,1.9-1.6,3.1c-0.3,2.3-0.8,4.6-1.2,6.9c-0.3,1.6-1.8,2.6-3.3,2.4c-1.6-0.3-2.6-1.8-2.3-3.4
		c0.5-2.7,0.9-5.4,1.4-8.1c0.3-1.6,1-3,2.2-4.2c1.9-1.9,3.8-3.7,5.6-5.6c0.2-0.2,0.4-0.5,0.5-0.8c0.6-1.8,1.1-3.7,1.7-5.6
		c-0.2,0.2-0.3,0.2-0.4,0.3c-1.9,1.4-3.8,2.7-5.7,4.1c-1.2,0.8-2.6,0.5-3.4-0.6c-0.7-1.1-0.4-2.5,0.8-3.3c1.8-1.3,3.6-2.6,5.4-4
		c1.4-1.1,2.8-2.4,4.1-3.6c1.7-1.6,3.5-2.1,5.7-1.4c1.3,0.4,2.5,0.7,3.8,1.1c0.7,0.2,1.2,0.6,1.6,1.2c1.6,2.4,3,4.9,3.4,7.7
		c0.3,1.7,0.3,3.5,0.5,5.3c0,0.5,0.1,1,0.1,1.5c0,1.3-1,2.4-2.2,2.5c-1.3,0.1-2.4-0.9-2.6-2.2c-0.2-2.1-0.4-4.2-0.6-6.3
		C44.4,25.3,44.3,25,44.2,24.6z"/>
	<path class="st0" d="M10.3,39.4c-0.1,0.2-0.1,0.3-0.2,0.5c-1.3,3.2-2.7,6.3-4,9.5c-0.4,1.1-1.2,1.8-2.4,1.9
		c-2.1,0.2-3.6-1.8-2.8-3.8c0.7-1.7,1.5-3.4,2.2-5.2c1.2-2.8,2.4-5.6,3.7-8.4C7,33.3,7,32.9,6.7,32.4c-0.8-1.2-1.2-2.5-1.1-4
		c0-0.6,0.2-1.2,0.4-1.8c0.8-2.5,1.6-5,2.4-7.5c0.1-0.2,0.1-0.3,0.2-0.6c-0.8,0.1-1.6,0.2-2.4,0.3c-0.1,0-0.2,0.3-0.3,0.4
		c-0.4,1.7-0.7,3.4-1.2,5.1c-0.3,1.2-1.5,2-2.7,1.7c-1.3-0.2-2.1-1.4-1.9-2.7c0.1-0.6,0.3-1.3,0.4-1.9c0.2-1,0.5-2.1,0.7-3.1
		c0.6-2.9,2.2-4.2,5.2-4.5c3.3-0.4,6.7-0.5,10-0.7c2.5-0.2,5-0.6,7.5-1c2.3-0.3,4.6-0.7,6.9-1c1.4-0.2,2.5,0.7,2.7,2
		c0.2,1.2-0.6,2.4-1.9,2.6c-1.8,0.3-3.6,0.6-5.5,0.8c-2,0.3-4.1,0.6-6.1,0.9c-0.2,0-0.4,0.2-0.5,0.4c-2,4.8-4.1,9.5-6.1,14.3
		c-0.1,0.2,0,0.5,0.1,0.7c0.5,0.9,1,1.8,1.6,2.7c0.7,1.1,1,2.3,0.9,3.6c-0.1,2.4-0.2,4.8-0.4,7.1c0,0.8-0.1,1.5-0.1,2.3
		c-0.1,1.6-1.4,2.6-2.9,2.6c-1.4-0.1-2.6-1.4-2.6-2.9c0.1-2.2,0.2-4.4,0.3-6.7C10.3,40.9,10.3,40.2,10.3,39.4
		C10.3,39.4,10.3,39.4,10.3,39.4z"/>
	<path class="st0" d="M15.4,11.9c-2.9,0-5.3-2.4-5.3-5.3c0-2.9,2.4-5.3,5.3-5.3c2.9,0,5.3,2.3,5.3,5.2C20.7,9.5,18.3,11.9,15.4,11.9
		z"/>
	<path class="st0" d="M49.4,9.1c0,2.9-2.4,5.3-5.3,5.3c-2.9,0-5.3-2.4-5.3-5.3c0-2.9,2.4-5.3,5.3-5.3C47,3.8,49.4,6.1,49.4,9.1z"/>
	<path class="st0" d="M28.4,6.2c-0.5-0.7-0.9-1.3-1.3-2c-0.2-0.3-0.3-0.6-0.1-0.9C27.2,3,27.5,3,27.8,3c0.7,0.1,1.3,0.3,2,0.4
		c0.1-0.8,0.2-1.5,0.3-2.2c0-0.2,0-0.5,0.1-0.6c0.2-0.2,0.4-0.5,0.6-0.6c0.2,0,0.5,0.2,0.7,0.3c0.4,0.6,0.7,1.2,1,1.8
		c0.1,0.1,0.1,0.2,0.2,0.3c0.6-0.4,1.1-0.8,1.7-1.2c0.2-0.1,0.7-0.2,0.8-0.1c0.2,0.2,0.3,0.6,0.3,0.8c0,0.7-0.1,1.5-0.2,2.2
		c0.4,0.1,0.8,0.1,1.1,0.1c0.4,0,0.7,0.2,0.7,0.5c0,0.3-0.1,0.6-0.3,0.8c-0.8,0.7-1.6,1.4-2.4,2.1c-0.4,0.4-0.9,0.4-1.2,0
		c-0.3-0.4-0.2-0.7,0.2-1.1c0.4-0.3,0.7-0.6,1.2-1c-1.7-0.3-0.7-1.5-0.9-2.3C33.6,3.6,33.3,3.8,33,4c-0.6,0.4-1,0.4-1.4-0.3
		c-0.1-0.2-0.2-0.4-0.4-0.7c-0.1,0.5-0.1,0.9-0.2,1.2c-0.1,0.6-0.3,0.8-1,0.7c-0.2,0-0.5-0.1-0.8-0.1c0.2,0.3,0.4,0.6,0.6,0.8
		c0.4,0.6,0.4,0.8-0.2,1.3c-0.1,0.1-0.3,0.2-0.5,0.4c0.3,0.1,0.6,0.1,0.9,0.2c0.4,0.1,0.6,0.4,0.6,0.8c-0.1,0.4-0.5,0.6-0.9,0.6
		c-0.8-0.2-1.6-0.3-2.4-0.5c-0.6-0.2-0.7-0.8-0.3-1.2C27.5,6.9,27.9,6.6,28.4,6.2z"/>
</g>
</svg>
