<svg xmlns="http://www.w3.org/2000/svg" viewBox="0 0 332.16 460.43"><defs><style>.cls-1{fill:#fff;}</style></defs><title>fire</title><g id="Layer_2" data-name="Layer 2"><g id="Layer_1-2" data-name="Layer 1"><path class="cls-1" d="M160.73,459.83c-14,1.46-27.89.11-41.67-2.41-19.65-3.6-38.36-9.85-55.42-20.42-30-18.63-46.57-46-52.79-80.49-3.37-18.73.09-36.37,5.47-54a214.24,214.24,0,0,0,5.49-21.24c3.58-18.33-3-33.34-15.92-46A70.46,70.46,0,0,1,0,229.12c18.18,5.67,33.12,15.71,42.74,32.53,9.72,17,9.72,35.25,5.81,53.89l1.64,1.27a17,17,0,0,1,1.62-3.41c13.34-17.07,16.08-36.11,10.56-56.65C58,240.51,49.52,226.4,38.87,213.66c-27.25-32.61-9.44-78.25,13.6-95.31a17.08,17.08,0,0,1,1.7-.92c-1.63,6.42-3.54,12.36-4.63,18.46-3.27,18.25-.9,35.25,12.49,49.28a94.45,94.45,0,0,0,10.3,8.67c8.51,6.68,17.28,13.06,25.62,19.95,9.55,7.91,18.36,16.52,20.89,29.87,3-6.21,3.87-17.28,2.69-27.53-2.77-24.1-12.17-45.81-23.38-67-4.32-8.16-9-16.59-11-25.46-7.2-33.31,7.5-66.86,37.2-86.21,8.26-5.39,17.4-9.42,27.07-14.57-2.82,9.25-5.88,16.76-7.35,24.57-5.14,27.3,2.17,52.09,16.46,75.24,10.26,16.6,23.56,30.56,37.86,43.67,14.49,13.28,26.82,28.29,35.32,46.15,10.18,21.38,14,43.62,8.4,67a2.75,2.75,0,0,0,.46,2.19c23.22-53.83,14.74-104.2-17.75-152.88,1.51.83,2.07,1,2.53,1.39,29.71,23.21,53.06,51.38,66.95,86.74,15.1,38.41,13.77,76.82-1,115-2.81,7.27-6.19,14.32-9.29,21.49,0,.08.16.27.7,1.12,25.61-22,36-52.46,47.22-83.25,0,8.27.44,15.78-.08,23.22-2.16,30.74-9.41,60.15-24.45,87.28-22.09,39.87-56.19,63.54-100.26,73.53-1.9.43-3.83.77-6,1.19.17-.58.18-.8.26-.83,30-11.27,38.14-35.86,37.41-64.46-.68-26.33-15.61-45.57-35.41-61.7,13.26,21.88,17.14,44.6,7.05,68.71,3.34-21.57-6.19-37.82-20.74-52.45-7.23-7.26-14.24-15.08-19.67-23.69-8-12.72-9.69-26.77-3.56-41.1a5,5,0,0,0,.13-1.39c-28.05,7.79-36.88,38.13-25.72,55.85C147.58,346,152.35,357.4,153.27,370a47.78,47.78,0,0,1-.51,10.54c-4.66-9.57-13.16-15-21.07-20.88-12.15-9.1-15.27-18-11.23-32.61.3-1.09.61-2.18,1-3.55-13.61,7.81-17.51,30.16-7.68,43.23,5.75,7.66,11,15.47,12.59,25.18,1.43,8.74-.2,17-6.45,23.18-6.8,6.72-6.48,16.75-1.33,24.19,8,11.47,19.85,16.25,32.83,19.06C154.49,459,157.63,459.35,160.73,459.83Z"/><path class="cls-1" d="M201.23,0c-.49,4.49-.87,7.61-1.18,10.74a74.21,74.21,0,0,0,4.28,33.37c4.82,13.06,7.84,26.51,5.69,40.61-1.6,10.5-5.72,19.64-14.24,27.05-7.39-9.6-11.92-20-15.09-31.1-4-14-6.75-28.25-3.67-42.86C180.19,22.76,188.18,10.66,201.23,0Z"/><path class="cls-1" d="M238.36,69.28c22,18.29,20.62,45.93,5.41,63.13-9.86-6.12-16-21.1-12.22-31.54C235.25,90.73,238.9,80.69,238.36,69.28Z"/></g></g></svg>