<svg xmlns="http://www.w3.org/2000/svg" viewBox="0 0 574.26 831.35"><defs><style>.cls-1{fill:#fff;}</style></defs><g id="Layer_2" data-name="Layer 2"><g id="Layer_1-2" data-name="Layer 1"><path class="cls-1" d="M178.16,831.35c-16.68-3.76-32.83-8.71-46.59-19.54-23.67-18.65-37.43-42.76-37.93-73-.73-44.1-.34-88.23-.35-132.34q0-119,0-237.9V358.17L32.47,419.44C8.43,394.14-2.1,365.67.34,332.63c2-27.27,13.4-50.39,32.6-69.75,2.29-2.31,4.45-4.77,6.91-6.87,9.43-8,15.86-15.66,12.31-30.54-3.8-15.92,3.8-30.81,15.48-42.54Q125.23,125.1,183.09,67.56C197.65,53.14,215.36,48.81,235.46,53a12.8,12.8,0,0,0,9.68-2.65c8.51-7.51,16.09-16.08,24.6-23.59C310.88-9.55,375.13-8.78,415.1,28.27a54.36,54.36,0,0,0,4.84,3.46L133.14,318.28c20.2,0,39.1,1.07,57.76-.56,6.85-.6,13.14-7.58,19.75-11.68-2.86-4.14-5.92-8.24-8.62-12.57-5.91-9.48-9.35-19.74-1.55-29.38s19.07-9.19,29.9-6.37c5,1.31,9.6,4.47,15,7.07,1.52-13.57,5-26.7,18.54-34.14A32.48,32.48,0,0,1,300.72,234c9.72-4.31,18.73-9.55,28.44-12.39,29.15-8.52,52,7,55.79,37.05.22,1.83.48,3.65.56,4.27,7-3.84,13.67-9.45,21.16-11,9.63-2.06,14.21,6.73,18.5,14,14.76-12.8,26.16-13,39.51,1.24,7.16,7.66,11.59,17.84,17.46,26.75,1.63,2.46,3.59,5.45,6.1,6.44,8.13,3.25,14.38,7.63,14.57,17.81h71.44V328q0,201,0,401.92c0,52.74-30.29,89.54-82.2,100.21a7.22,7.22,0,0,0-2,1.21Zm-4.84-256.74q0,53.6,0,107.18c0,18.13-.29,36.27.17,54.39a31.24,31.24,0,0,0,27.35,30.47c16.15,2.06,30.83-7.06,35-22.35,1.33-4.87,1.52-10.16,1.53-15.26q.12-154.27,0-308.54a82.79,82.79,0,0,0-.53-9.71c-1.56-12.72-8.5-21.49-20.35-26-21.52-8.21-43.07,7.4-43.16,31.5C173.19,469.06,173.32,521.83,173.32,574.61ZM301.6,574q0,77.46,0,154.93c0,3-.07,6,.2,8.92a31.65,31.65,0,0,0,28.12,28.92c15.8,1.7,30.11-7.36,34.2-22.37,1.39-5.12,1.55-10.69,1.56-16q.12-153.32,0-306.63a91,91,0,0,0-.65-12.13A31.15,31.15,0,0,0,336.62,383c-20.06-1.46-34.91,12.59-35,33.64C301.51,469.06,301.61,521.51,301.6,574Zm192.28,1.62q0-76.72,0-153.45a104.69,104.69,0,0,0-.51-12.15,31.19,31.19,0,0,0-28.1-27c-20.1-1.64-35.28,12.39-35.3,33.3q-.17,158.73,0,317.46c0,1.35,0,2.71.15,4a31.78,31.78,0,0,0,34.61,29.06c18-1.52,29.13-14.83,29.18-35.38Q494,653.53,493.88,575.59Z"/></g></g></svg>