<svg xmlns="http://www.w3.org/2000/svg" viewBox="0 0 271.73 511.6"><defs><style>.cls-1{fill:#fff;}</style></defs><g id="Layer_2" data-name="Layer 2"><g id="Layer_1-2" data-name="Layer 1"><path class="cls-1" d="M271.58,177.11c-1.67-8.28-2.87-16.6-6.42-24.48a84.36,84.36,0,0,0-15-23,80.52,80.52,0,0,0-25.28-18.35,76.6,76.6,0,0,0-20.44-6.18c-4.39-.71-4.63-.56-4.63-4.92V20c0-.5,0-1,0-1.5-.06-1.66.7-2.46,2.39-2.43s3.66,0,5.49,0a8.1,8.1,0,0,0,8.09-7.83A8.58,8.58,0,0,0,207.54,0Q135.89.21,64.22,0A8.58,8.58,0,0,0,56,8,8,8,0,0,0,63.83,16c1.41.08,2.83,0,4.24,0,3.81,0,3.87.06,3.87,3.95v78.4c0,5.79,0,5.79-5.65,6.66l-.49.09c-13.57,3-26,8.34-36.81,17.36A81.44,81.44,0,0,0,4.07,158.9c-3,8.66-4,17.67-4,26.74C0,226.75,0,267.87,0,309q0,61.92.05,123.84a63.89,63.89,0,0,0,1.22,12.88c2.72,13,7.75,25,16.28,35.42A80.5,80.5,0,0,0,81.11,511.6q56.55-.25,113.11,0A62.67,62.67,0,0,0,206,510.24a78.73,78.73,0,0,0,28.15-11,81.28,81.28,0,0,0,28-29.94,72.53,72.53,0,0,0,7.4-20c1-4.7,2.16-9.39,2.16-14.24q0-127.35,0-254.69A16.51,16.51,0,0,0,271.58,177.11ZM87.93,20c0-3.85.07-3.93,3.88-3.93h88.36c3.52,0,3.65.13,3.65,3.66q0,20.22,0,40.43t0,40.19c0,3.49-.14,3.62-3.69,3.62q-16.47,0-32.95,0c-3.07,0-3.27-.24-3.31-3.25,0-1.58,0-3.17,0-4.74-.21-4.46-3.62-8-7.7-8s-8.08,4-8.24,8.2c-.07,1.83-.05,3.66,0,5.49,0,1.56-.73,2.27-2.28,2.27H90.15c-1.6,0-2.25-.83-2.22-2.34,0-.5,0-1,0-1.5Q87.92,60.07,87.93,20ZM255.62,436c-.08,10.73-4.12,20.62-9.85,29.7a64.89,64.89,0,0,1-44.25,29.08,106.71,106.71,0,0,1-15.65.73c-36.12.06-72.25.15-108.37,0-11.44-.06-22-3.76-31.69-9.88A63.61,63.61,0,0,1,17.9,447,76.44,76.44,0,0,1,16,428.7q.09-56.31,0-112.62c0-4.32,0-4.33,4.24-4.33,8.07,0,16.15-.06,24.22,0A4.46,4.46,0,0,0,49,309.06a52.73,52.73,0,0,1,5.88-9.83c.64-.76,1.56-1.83.94-2.9s-1.82-.55-2.78-.55q-16.86,0-33.71,0c-3.07,0-3.31-.23-3.31-3.25,0-37.62-.29-75.25.18-112.86a54.86,54.86,0,0,1,9.47-29.55,69.14,69.14,0,0,1,28.15-24.68c5-2.42,10.37-3.41,15.75-4.52,8.42-1.75,16.91-.79,25.37-.9,13.81-.18,27.63,0,41.45,0,18.73,0,37.46.09,56.18,0a60.39,60.39,0,0,1,20,3.6,64.3,64.3,0,0,1,40.82,42.87,53.91,53.91,0,0,1,2.42,15.92q-.09,54.57,0,109.13c0,4.33,0,4.33-4.23,4.33h-24c-3.73,0-3.95.35-3,3.83.82,3,1.61,5.92,2.32,8.91.54,2.28,1.78,3.31,4.23,3.27,7.15-.1,14.31,0,21.47-.07,2.38,0,3.2.82,3.2,3.2C255.73,355.28,255.92,395.65,255.62,436Z"/><path class="cls-1" d="M214,326.65a158.31,158.31,0,0,0-4.54-21.14,159.12,159.12,0,0,0-19.21-42,226,226,0,0,0-14.42-19.68c-7.44-9.27-16-17.38-24.75-25.29A265.48,265.48,0,0,0,118.5,194c-7.44-4.88-15.34-9-23-13.45-.65-.38-1.43-.77-2.06-.08-.78.86-.23,1.69.31,2.47,5,7.25,10,14.46,14.33,22.16,6.31,11.27,11.86,22.82,15.11,35.41A89.89,89.89,0,0,1,126,270.53a55.57,55.57,0,0,1-8.52,25.19c-.42.69-1,1.64-1.85,1.44-1.07-.23-.68-1.36-.72-2.13-.32-6.37.29-12.73-.86-19.14-1.75-9.74-4.72-18.81-11.11-26.53-1-1.16-2-2.63-3.63-2.15-1.78.53-1.73,2.44-1.86,4a3,3,0,0,0,0,1c.89,3.87-.2,7.71-1,11.31a46.13,46.13,0,0,1-7.88,16.59c-6.32,8.77-13,17.24-19.29,26.07S58.52,325,57.17,335.91c-1,8.35-1.78,16.75-.45,25.33A95.84,95.84,0,0,0,68.94,396a82.55,82.55,0,0,0,26.56,27.6c12.12,7.83,25.42,11.58,42,12.25,2.63.45,7.36-.88,12.1-1.56a68.33,68.33,0,0,0,24.52-8.7c5.69-3.3,11.23-6.8,16-11.46,6.53-6.43,11.39-14,15.85-21.94,6.18-11,8.76-23,9.7-35.29C216.4,346.84,215.45,336.73,214,326.65Zm-57.21,82.61c-2.69,5.06-6.93,7.94-12.43,9.53-7.17,2.08-13.06,0-18.34-4.7-5.65-5-7.83-15.48-4.78-22.33,1.2-2.72,1.79-2.73,4.64-1.7,7.79,2.82,13.86,2.82,21.28-6.14a41.69,41.69,0,0,0,5.64-9.65c.27-.59.34-1.41,1.15-1.46s.95.82,1.23,1.37c3.36,6.66,4.59,13.78,4.73,22.64C160.2,400.28,159.12,404.91,156.81,409.26Zm32.69-19.62c-3,5.68-7.56,10.31-12.21,14.74-.52.49-1.16,1.18-1.95.66s-.53-1.37-.38-2.08c2.43-11.78-.25-22.85-4.46-33.77-3.1-8-7.87-15-13.38-21.51a122.72,122.72,0,0,0-26.1-23c-.48-.31-1-.86-1.56-.44-.74.59,0,1.21.29,1.73a75.89,75.89,0,0,1,8.63,19.81c2,7.58,2.83,15.17-.42,22.69a27,27,0,0,1-2.52,4.29c-.31.48-.68,1.15-1.32.94-.87-.27-.51-1.08-.46-1.71a33.81,33.81,0,0,0-1.85-15c-.55-1.45-1.16-3.4-2.93-3.3-1.49.08-1.35,2.11-1.63,3.3-1,4.3-3.44,7.72-6.35,10.85-3.35,3.59-7.17,6.73-10.13,10.68-3.18,4.24-5.69,8.77-5.94,14.26-.08,2-.82,3.88-1,5.9-.25,3.4.84,6.57,1.33,9.84.08.54.54,1.17-.12,1.57s-1.1-.17-1.58-.47c-5.58-3.43-10.15-8-14.46-12.85a62.19,62.19,0,0,1-9.41-14.34,70.35,70.35,0,0,1-6.86-21.75A80.18,80.18,0,0,1,72,348.11c.46-13.86,4.42-26.42,13.53-37.19,3.86-4.57,7.25-9.53,10.92-14.26.5-.66,1-1.91,2-1.52.83.32.4,1.49.53,2.29.53,3.09.56,6.3,2.2,9.15,5.51,9.6,19.05,11.59,26.84,1.69,7-8.94,11.05-19.12,13.05-30.35,1.47-8.3,1.19-16.53.72-24.79a62.88,62.88,0,0,0-2.25-12.21c-1-4-1.82-8.08-3.18-12-.14-.4-.28-.87.19-1.08.63-.28,1.13.17,1.56.54,2.72,2.32,5.49,4.59,8.1,7A203.44,203.44,0,0,1,164.62,255a168,168,0,0,1,14.29,20.4,165.12,165.12,0,0,1,13,27.41c2.41,6.49,3.74,13.24,5.62,19.85.8,2.82.85,5.91,1.12,8.85.55,6,2,12,1.1,17.37C200.65,364.06,196.14,377.16,189.5,389.64Z"/></g></g></svg>