<svg xmlns="http://www.w3.org/2000/svg" viewBox="0 0 102.47 200"><defs><style>.cls-1{fill:#fff;}</style></defs><title>grafitti</title><g id="Layer_2" data-name="Layer 2"><g id="Layer_1-2" data-name="Layer 1"><path class="cls-1" d="M.32,200c-.11-1.49-.31-3-.31-4.46q0-59,0-117.92V72.44H72.32V200Zm55.07-64.13a19.16,19.16,0,0,0-19.45-19.11,19.36,19.36,0,1,0,19.45,19.11Z"/><path class="cls-1" d="M96.32,0c-.11,1.63.37,4.21-.43,4.7a47.24,47.24,0,0,1-9.26,4c-.34.12-1.7-1.3-1.71-2a3.91,3.91,0,0,1,1.36-2.82,71,71,0,0,1,6-3.84Z"/><path class="cls-1" d="M.53,62.56c5-4.78,10-9.65,15.13-14.28a6.63,6.63,0,0,1,4.11-1.11c10.81-.08,21.62-.1,32.42,0a7.2,7.2,0,0,1,4.5,1.4c5,4.59,9.73,9.44,15.34,15H1.43Z"/><path class="cls-1" d="M62.39,22.14c5.07,0,10.15-.25,15.19.12,1.92.15,3.72,1.71,5.58,2.62-1.79,1-3.52,2.69-5.37,2.83-5.08.4-10.22.14-15.64,1.1,4.82,2.29,9.75,4.39,14.4,7,1.43.8,2.1,3,3.12,4.52-1.74.16-3.78,1-5.18.37-9-3.95-17.8-8.17-26.6-12.45-1.34-.65-2.3-2.09-3.43-3.17,1.08-1.11,2-2.62,3.29-3.26,9-4.36,18-8.64,27.06-12.64,1.31-.58,3.34.47,5,.77-.87,1.36-1.43,3.31-2.68,4-4.88,2.62-10,4.84-15,7.21Z"/><path class="cls-1" d="M44.88,15.06a30.61,30.61,0,0,1-2.71,5.1,7.26,7.26,0,0,0-.74,8.75c1.52,2.81,2.66,5.81,4.4,9.67H27.65c0-5.66-.14-11.43.13-17.17,0-1,1.59-2.37,2.73-2.81,4.33-1.66,8.79-3,13.19-4.46Z"/><path class="cls-1" d="M95.63,27.84c-1,0-2.18.34-2.93-.08a24.92,24.92,0,0,1-3.68-3c1.22-.86,2.32-2.18,3.66-2.48a13.06,13.06,0,0,1,5.9,0c1.44.37,2.6,1.78,3.89,2.73a27.94,27.94,0,0,1-3.89,2.78C97.78,28.16,96.62,27.84,95.63,27.84Z"/><path class="cls-1" d="M87.56,40.57c3.08,1.78,6.1,3.41,9,5.3.43.29.46,2.08,0,2.6-.64.74-2.13,1.55-2.84,1.27a47.14,47.14,0,0,1-8-4c-.62-.39-.8-2.08-.57-3C85.37,41.94,86.51,41.45,87.56,40.57Z"/></g></g></svg>