<?xml version="1.0" encoding="utf-8"?>
<!-- Generator: Adobe Illustrator 23.0.1, SVG Export Plug-In . SVG Version: 6.00 Build 0)  -->
<svg version="1.1" id="Layer_1" xmlns="http://www.w3.org/2000/svg" xmlns:xlink="http://www.w3.org/1999/xlink" x="0px" y="0px"
	 viewBox="0 0 74.7 75.9" style="enable-background:new 0 0 74.7 75.9;" xml:space="preserve">
<style type="text/css">
	.st0{fill:#FFFFFF;}
</style>
<title>vbp-counting</title>
<g>
	<path class="st0" d="M0,59.1c0.6-1.4,0.7-2.9,1-4.3c0.9-3.5,3.2-5.8,6.4-7.3c1.7-0.8,3.4-1.5,5.1-2.3c0.6-0.3,1-0.2,1.5,0.2
		c1.1,0.9,2.3,1.6,3.7,1.9c1.9,0.4,3.4-0.2,5-1.2c1.8-1.2,3-1.2,4.9,0c0.3,0.2,0.5,0.5,0.5,0.9c0.4,2.3,1.1,4.5,2.5,6.4
		c0.6,0.8-0.1,0.9-0.5,1c-2.6,1-5.2,2.2-7.6,3.8c-2,1.4-3.4,3.2-4.1,5.6c-0.3,1.2-0.9,1.6-2.1,1.5c-4.5-0.4-9-0.5-13.4-1.6
		c-1.1-0.3-2-1-2.9-1.6C0,61.2,0,60.1,0,59.1z"/>
	<path class="st0" d="M39.8,75.9c-1.6,0-3.2,0-4.8,0c-4.3-0.4-8.7-0.5-12.9-1.5c-0.8-0.2-1.6-0.4-2.4-0.9c-0.8-0.5-1.3-1.1-1.2-2.1
		c0.2-2.6,0.6-5.2,1.5-7.7c0.7-2,2-3.4,3.7-4.5c2.3-1.5,4.8-2.6,7.3-3.6c0.6-0.3,1.1,0,1.5,0.3c1.4,1,2.8,1.9,4.6,1.9
		c1.9,0.1,3.3-0.7,4.7-1.8c0.8-0.6,1.4-0.7,2.3-0.3c2.6,1.1,5.1,2.2,7.5,3.8c2.2,1.5,3.2,3.6,3.8,6c0.5,1.8,0.8,3.6,0.8,5.5
		c0,1.5-0.3,2.1-1.7,2.7c-1.9,0.8-3.9,1-5.8,1.3C45.8,75.5,42.8,75.7,39.8,75.9z"/>
	<path class="st0" d="M74.7,60.2c0,2.5-0.3,3-2.7,3.6c-3.1,0.8-6.3,1.1-9.5,1.3c-1.5,0.1-3,0.2-4.5,0.2c-0.6,0-1.1-0.1-1.2-0.7
		c-1.2-4.9-5-7.1-9.1-9c-0.9-0.4-1.8-0.8-2.8-1.1c-0.8-0.3-1.1-0.6-0.5-1.5c1.2-1.8,1.9-3.7,2.2-5.8c0.1-0.6,0.4-1,1-1.2
		c0.7-0.3,1.4-0.5,2.1-0.8c0.5-0.2,0.9-0.1,1.3,0.2c3.7,2.8,5.9,2.8,9.6,0.1c0.5-0.3,0.9-0.6,1.5-0.4c2.8,1.1,5.6,2.3,8.1,4.1
		c1.7,1.2,2.7,2.8,3.3,4.7C74.1,56,74.6,58,74.7,60.2z"/>
	<path class="st0" d="M29.3,9.4c0-4.5,1.9-7.6,5.5-8.9c4.6-1.7,9.9,1.5,10.4,6.4c0.5,4,0,7.7-2.2,11.1c-0.7,1.1-1.6,1.9-2.6,2.6
		c-2.6,1.7-4.1,1.6-6.6-0.5C31.2,18,30,15.2,29.5,12C29.4,11.1,29.1,10.2,29.3,9.4z"/>
	<path class="st0" d="M63.9,33c-0.2,4.1-0.9,7.9-4.2,10.8c-1,0.8-2,1.5-3.2,1.7c-1.8,0.3-3.2-0.7-4.4-1.8c-2.5-2-3.5-4.9-4-8
		c-0.3-1.7-0.3-3.5,0-5.2c0.8-3.9,3.8-6.7,7.6-6.8c4-0.1,7.2,2.6,8,6.6C63.8,31.2,63.9,32.1,63.9,33z"/>
	<path class="st0" d="M26.9,33.4c-0.2,3.9-1,7.6-4.2,10.3c-1,0.9-2.1,1.4-3.3,1.8c-0.5,0.2-1,0.1-1.5-0.1c-3.8-1.5-5.8-4.5-6.6-8.4
		c-0.5-2.4-0.8-4.9-0.1-7.3c1.1-3.7,4.5-6.2,8.2-5.9c3.8,0.3,6.9,3.2,7.3,7C26.8,31.7,26.9,32.5,26.9,33.4z"/>
	<path class="st0" d="M45.4,43.7c-0.1,3.2-0.7,6.3-2.6,8.9c-0.9,1.2-2,2.1-3.3,2.9c-1.6,0.9-3,0.7-4.5-0.2c-2-1.2-3.4-2.8-4.2-4.9
		c-1.4-3.6-2-7.2-0.7-11c1.2-3.4,4.7-5.5,8.4-5.1c3.5,0.4,6.4,3.3,6.8,6.9C45.3,42.1,45.5,42.8,45.4,43.7z"/>
	<path class="st0" d="M49.7,24.3c-0.1,0.2-0.2,0.4-0.4,0.5c-3.6,3.6-3.3,8.1-2.6,12.6c0.1,0.8,0.5,1.6,0.7,2.4
		c0.1,0.4,0.4,0.9-0.2,1.1c-0.6,0.2-0.7-0.4-0.7-0.8c-0.5-2.3-1.7-4.1-3.6-5.5c-4.6-3.5-12.5-1.9-14.6,4.8c-0.1,0.4-0.2,0.8-0.3,1.2
		c-0.1,0.4-0.4,0.5-0.7,0.4c-0.4-0.1-0.3-0.5-0.2-0.8c1.1-2.7,1.3-5.5,1.2-8.3c-0.1-2.6-0.9-4.9-2.8-6.8c-0.7-0.7-0.5-1,0.3-1.3
		c1.8-0.8,3.6-1.6,5.3-2.4c0.6-0.3,1,0.1,1.4,0.3c1.4,0.9,2.7,1.8,4.4,1.9c1.7,0.1,3.2-0.5,4.4-1.5c1.1-0.9,2.1-1,3.3-0.4
		c1.4,0.7,2.8,1.3,4.2,2C49.2,23.8,49.4,24.1,49.7,24.3z"/>
</g>
</svg>
