<svg xmlns="http://www.w3.org/2000/svg" viewBox="0 0 487.87 500.77"><defs><style>.cls-1{fill:#fff;}</style></defs><g id="Layer_2" data-name="Layer 2"><g id="Layer_1-2" data-name="Layer 1"><path class="cls-1" d="M142.07,496.4c-1.15-3-.21-5.62-.19-8.19q.15-16.23.82-32.46c1.11-27.44,1.53-54.92,2.28-82.39.12-4.15.66-8.3.81-12.45.25-6.46-.88-7.29-6.8-4.86q-28,11.44-55.92,23Q63.89,387,44.7,394.86c-1.61.66-3.5,2.15-5.1.61s-.11-3.47.51-5.09Q68.19,316,96.32,241.71c3.09-8.17,2.91-8.36-5-11.69Q14.08,197.5.48,114.79a33.84,33.84,0,0,1-.41-3.47c-.4-6.08.82-7.51,6.86-7.56,11.33-.09,22.66,0,34-.08,6,0,7-1,7-7,0-25.16,0-50.32.06-75.47a39.6,39.6,0,0,1,.68-8.44A16.22,16.22,0,0,1,64.05,0c7.71-.22,14,4.62,16.17,12.32A32.68,32.68,0,0,1,81,21.26q0,37,0,74c0,7.89.6,8.47,8.6,8.48q52.49,0,105,0c7.67,0,8.31-.63,8.32-8.24,0-25.5,0-51,0-76.48,0-7.85,2.29-14.52,10.36-17.7a16.27,16.27,0,0,1,22.13,12.3,42.26,42.26,0,0,1,.48,8q.06,36.75,0,73.48c0,8.2.5,8.67,8.89,8.68,12.16,0,24.33,0,36.49,0,6.8,0,8.14,1.42,7.37,7.92-3.6,30.35-15.35,57.05-35.9,79.79-15.91,17.6-34.6,31.14-57.07,39.16a11.59,11.59,0,0,0-7,6.65q-11.38,25.85-22.81,51.67c-.45,1-1.35,2.21-.46,3.26,1,1.23,2.52.51,3.76.18,10.48-2.72,20.94-5.52,31.42-8.24,1.55-.39,3.42-1.54,4.72-.09s-.21,3.14-.9,4.55q-22.65,46.11-14.16,96.76A20.91,20.91,0,0,1,188.74,398q-21.65,46.69-43.2,93.44C144.79,493.06,144.43,495,142.07,496.4Z"/><path class="cls-1" d="M345.88,216.24c-75.46-.24-143.06,62-143,142.58s67.83,143.75,142.24,141.91C420,502.8,487.56,439.62,487.86,359.31,488.17,278.26,420.49,216.48,345.88,216.24Zm.88,253.34c-60.6-.13-109.92-49.68-109.88-110.39s49.26-110.25,109.87-110.4c60.91-.15,110.19,49.58,110.14,111.14C456.84,420,407,469.71,346.76,469.58Z"/><path class="cls-1" d="M262.85,347c1-23.51,16.43-49.32,46.87-64.34,31.3-15.43,62.1-11.91,89.68,9.66,41.67,32.6,42.56,95.52,2.43,129.87-4.71,4-9.82,4.15-13.34.31s-3.28-8.81,1.41-13.22c8-7.52,14.61-15.92,18.76-26.17a59.35,59.35,0,0,0,3.6-13c.8-5-.28-6.19-5.47-6.45-2-.1-4,0-6-.22-3.66-.35-6.52-1.86-6.69-6s2.62-5.88,6.28-6.35c2.63-.34,5.31-.3,8-.47,3.14-.21,4.48-1.88,3.9-5a66.18,66.18,0,0,0-12.35-27.56c-1.93-2.61-3.69-2.22-5.7-.13-1.84,1.92-3.72,3.82-5.74,5.56-2.71,2.33-5.76,2.91-8.51.23s-2.27-5.73.05-8.49c1.6-1.91,3.4-3.65,5.17-5.42,2.51-2.51,2.08-4.65-.71-6.56a66.19,66.19,0,0,0-26.18-10.64c-3.61-.63-5.42.68-5.39,4.43,0,2,0,4-.15,6-.27,3.77-1.37,7.14-5.86,7.33-4.76.21-6.18-3.18-6.62-7.15-.24-2.15-.3-4.32-.35-6.48-.07-3.22-1.64-4.53-4.8-4-10.44,1.64-19.67,6-28.13,12.22-2.42,1.76-2.59,3.67-.47,5.81,1.88,1.89,3.78,3.77,5.56,5.75,2.57,2.84,3.2,5.91.21,8.83-2.81,2.75-5.76,2.08-8.46-.29-2-1.76-3.88-3.66-5.75-5.55-2.15-2.16-4-2-5.7.52-5.3,8-9.31,16.52-11,26.05-.63,3.59.81,5.43,4.43,5.57,2.5.1,5,.05,7.49.25,3.81.31,6.38,2.18,6.27,6.28s-2.76,5.4-6.36,5.53c-2.16.07-4.33,0-6.49.13-5,.27-6.21,1.66-5.3,6.64a63.09,63.09,0,0,0,16.31,32.6c2.05,2.18,4.29,4.19,6.33,6.38,4.12,4.42,4.43,9.19,1,12.92s-8.62,3.73-13.31-.37C272.36,405,262.81,383.77,262.85,347Z"/><path class="cls-1" d="M371.38,331c-11.22,4.25-22.26,8.94-32.6,15a14.49,14.49,0,0,0-6.16,16.56,15.87,15.87,0,0,0,14.65,10.89,14.86,14.86,0,0,0,12.16-6.78c6.34-10.24,10.51-21.52,15-32.62C375.63,331.12,374.53,329.78,371.38,331Zm-19.24,27.74c-.28,3.1-2.44,4.49-5.2,4.72-3.15-.38-4.85-2-4.73-4.93.13-3.27,1.91-5.43,5.34-5.17C350.59,353.57,352.42,355.57,352.14,358.71Z"/></g></g></svg>