<svg xmlns="http://www.w3.org/2000/svg" viewBox="0 0 160.38 147.84"><defs><style>.cls-1{fill:#fff;}</style></defs><g id="Layer_2" data-name="Layer 2"><g id="Layer_1-2" data-name="Layer 1"><path class="cls-1" d="M91.83,93.31C107,94.73,107.27,95,107.27,110.22c0,9.12.06,18.24-.07,27.35-.1,6.81-3.27,10.08-10.13,10.17-11.27.14-22.55.15-33.82-.06-7.13-.13-10.14-3.51-10.14-10.65,0-10.28,0-20.56,0-30.84,0-9.65,2.67-12.46,12.24-12.56,1,0,2-.15,2.9-.23,1.86-7.05,1.65-7.47-4.84-10.29-19.7-8.54-29.92-28.65-25.28-49.72C42.44,13.92,61.07-.61,81,0c20.42.65,37.53,14.8,41.54,34.37,4.2,20.51-6,40-25.53,48.77C90.82,85.93,90.82,85.93,91.83,93.31Zm-13.2-42c7.49,0,12.08-7.16,8.32-11.53-3.36-3.91-3.23-7.82-3.61-12.19-.15-1.83-1.72-4.86-3-5-3.5-.51-3.4,2.65-3.42,5.14,0,4.2.35,8.22-3.27,11.77-1.35,1.33-1.13,5.5-.1,7.64S77.53,50.42,78.63,51.27Zm5.84-39.35c-1.94-1.4-3.23-3.05-4.32-2.92s-3,2-2.9,3,1.86,2.88,3,3S82.59,13.41,84.47,11.92Zm22.16,9.2c-1.93-1.4-3.21-3.05-4.31-2.94s-2.88,2-2.86,3.05,1.84,2.84,3,2.93S104.76,22.56,106.63,21.12ZM58.21,25.49c1.3-2,2.79-3.35,2.63-4.4S59,19,57.91,18c-1,1.08-2.75,2.11-2.82,3.24S56.67,23.52,58.21,25.49Zm-5,18.1c-1.95-1.51-3.1-3.1-4.18-3.05s-2.19,1.66-3.28,2.6c1,1.1,1.81,2.89,2.95,3.1S51.11,44.92,53.23,43.59Zm58.59-4.5c-1.59,1.86-3.3,3-3.23,4a4.18,4.18,0,0,0,2.75,3.07c1,.1,2.84-1.55,3.06-2.67S113.1,41.15,111.82,39.09ZM84.73,74.43C82.42,73.09,81,71.6,80,71.83S78,73.91,77.07,75.06c1.06.85,2.15,2.41,3.18,2.37C81.44,77.4,82.59,76,84.73,74.43Zm-22.2-8.87C60.33,64.07,59,62.5,58,62.68a4.76,4.76,0,0,0-2.93,3.05c-.17.64,1.74,2.58,2.75,2.62C59,68.4,60.26,67,62.53,65.56Zm39.54-4.28c-1.25,1.9-2.73,3.19-2.51,4,.33,1.26,1.85,2.21,2.87,3.29,1-1.07,2.82-2.1,2.88-3.22S103.63,63.14,102.07,61.28Z"/><path class="cls-1" d="M114,102.85c14.51,0,28.73-.1,42.94.17,1.14,0,3.16,2.51,3.21,3.9.3,9.11.19,18.23.18,27.34,0,2.79-1.33,4.27-4.27,4.27-13.9,0-27.79,0-42.06,0Z"/><path class="cls-1" d="M46.5,102.79V138.6H37.8c-10.78,0-21.56-.15-32.33,0-4.13.06-5.56-1.55-5.47-5.6.2-8.45-.13-16.92.22-25.36C.29,106,2.44,103,3.69,103,17.75,102.67,31.83,102.79,46.5,102.79Z"/></g></g></svg>