<svg xmlns="http://www.w3.org/2000/svg" viewBox="0 0 468.57 491.13"><defs><style>.cls-1{fill:#fff;}</style></defs><g id="Layer_2" data-name="Layer 2"><g id="Layer_1-2" data-name="Layer 1"><g id="eXazzH.tif"><path class="cls-1" d="M0,137.74c2.73-6.78,7.9-9,15-8.89,19.13.23,38.26.07,57.38.08,9,0,11.57,1.76,14.87,10.23q42.71,109.74,85.38,219.5c1,2.73,1.85,4.74,5.68,4.73q106.54-.22,213.07-.12c.82,0,1.65-.1,2.76-.18,16.34-42.93,32.7-85.87,49.28-129.41-9.83-1.4-19.29-2.77-28.76-4.08Q339.82,219.27,265,209l-112.12-15.4c-1.65-.23-3.3-.47-4.92-.81-6-1.23-9.85-6.2-9.15-11.71.76-6,6.14-10,12.67-9.22,10.38,1.3,20.74,2.85,31.11,4.28q56.28,7.78,112.57,15.54l112.07,15.5c15.63,2.16,31.28,4.24,46.9,6.47,3.1.44,6.35.87,9.14,2.16,5.25,2.44,6.62,8,4.07,14.69q-15.7,41.43-31.49,82.85-11.77,30.94-23.59,61.88c-2.89,7.58-5.26,9.22-13.37,9.22h-229c-8.34,0-10.68-1.61-13.74-9.47Q113.42,265.2,70.82,155.41c-1.41-3.63-3-5.07-7.11-5-13.76.31-27.53.12-41.93.12,0,6.87.19,13.3,0,19.72-.3,8.54-6.58,14-13.56,11.28-3.26-1.29-5.49-5.17-8.18-7.88Z"/><path class="cls-1" d="M338.44,490.55c-18.2-3-34.2-17.44-38.63-35.42-4.74-19.25,4.15-41.06,21-51.52s40.33-8.75,55.49,4.05,20.77,35.65,13.29,54-27.5,30.78-47.26,29.34C341,490.92,339.73,490.76,338.44,490.55Zm33.32-46.15c.55-14.11-11-26.28-25.34-26.71a26.25,26.25,0,0,0-26.75,25.38c-.54,13.9,11.06,26.14,25.42,26.81C359,470.53,371.19,458.88,371.76,444.4Z"/><path class="cls-1" d="M215.68,490.47c-.77-.11-1.55-.25-2.32-.4C194,486.15,178,468.82,175.75,449.14S185,409,203.05,400.73s40.77-3.66,54.22,10.71c13.63,14.57,16.43,38.13,6.64,55.5C254.56,483.51,234.45,493.2,215.68,490.47Zm33-46.58a26,26,0,1,0-52.05-.29,26,26,0,1,0,52.05.29Z"/><path class="cls-1" d="M440.92,136.47c-.82,9.35-1.17,16.33-2.09,23.24-1,7.38-6.23,11.34-12.67,10.16-6.14-1.13-9.36-6.43-8.27-13.62,10.4-68.44-41.95-131.67-111.28-134.8-59.13-2.68-111.11,39.47-121.19,96.31-.74,4.2-1.92,8.19-6.06,10.32a10.13,10.13,0,0,1-11.28-.87c-3.73-2.73-4.93-6.57-4.13-11,6-33.68,21.78-61.94,48.19-83.73,80.19-66.15,200-26.23,224.39,74.81C439,117.53,439.72,128.22,440.92,136.47Z"/><path class="cls-1" d="M287.65,320.62H380a31.77,31.77,0,0,1,5,.21,10.57,10.57,0,0,1,.29,21,27.51,27.51,0,0,1-5,.34q-91.81,0-183.62-.07a47.6,47.6,0,0,1-5.48-.11c-5.91-.69-9.75-5-9.7-10.71s3.95-10,9.89-10.52c2.81-.26,5.65-.1,8.48-.1Z"/><path class="cls-1" d="M316.36,71.13c-1.61,5.51,1.21,7.47,6.56,9.12a32.77,32.77,0,0,1,23.28,32.43c-.19,4.36-2.06,7.7-6,9.64-3.73,1.85-7.77,1.81-10.73-1-2.1-2-4.16-5.2-4.27-8-.37-8.88-6.29-13.85-16-14.37A40.05,40.05,0,0,0,297,100.39c-5.7,1.54-8.69,5.73-9.2,11.7-.47,5.46,1.86,9.35,6.57,11.8,9,4.69,18.09,9.15,27,13.9a105,105,0,0,1,13.19,8c8.68,6.43,12.31,15.41,11.9,26.08a10.5,10.5,0,0,1-10.05,10.39c-5.47.29-10.92-3.86-10.85-9.46.1-7.22-3.84-10.92-9.5-13.78-8.15-4.12-16.33-8.19-24.46-12.36q-4.65-2.39-9.13-5.09c-12.25-7.43-17.3-18.54-15.77-32.52,1.57-14.27,9.64-23.87,23-28.57,4.13-1.44,5.42-3.35,5.05-7.39a38.65,38.65,0,0,1,.16-8.93c.87-6,4.73-9.34,10.37-9.41s9.54,3.2,10.59,9.15A62.49,62.49,0,0,1,316.36,71.13Z"/><path class="cls-1" d="M288,278.2c31.1,0,62.2-.08,93.3.13a17.89,17.89,0,0,1,9.59,3c3.52,2.44,4.24,6.59,2.81,10.79s-4.46,6.5-8.74,7.23a21.22,21.22,0,0,1-3.48.09H193.85c-7.1,0-11.55-3.32-12.29-9.05-.9-6.93,3.67-12.07,11.11-12.12,14.47-.11,28.94,0,43.41,0Z"/><path class="cls-1" d="M266,256.67H194.65c-8.8,0-13.22-3.59-13.15-10.64.07-6.67,4.74-10.48,12.95-10.48q72.32,0,144.63,0c7.72,0,12.37,4,12.43,10.53s-4.36,10.56-11.73,10.57Q302.88,256.71,266,256.67Z"/></g></g></g></svg>