<svg xmlns="http://www.w3.org/2000/svg" viewBox="0 0 978.56 795.11"><defs><style>.cls-1{fill:#fff;}</style></defs><g id="Layer_2" data-name="Layer 2"><g id="Layer_1-2" data-name="Layer 1"><path class="cls-1" d="M342.75,424.2l88.35-67.76c5.44,6.37,10,11.77,14.66,17.16,4.11,4.79,8.32,9.6,15.61,6.79,8-3.05,14.32-8,16.37-16.73.46-2-.48-4.65-1.62-6.49-4.2-6.78-8.71-13.38-13.2-20-1.64-2.41-1.95-4.28.64-6.37,15.78-12.76,31.49-25.62,47.39-38.59,5.4,6.57,10.31,12.85,15.57,18.84,7.61,8.66,12.57,9,21.76,1.92l1.18-.93c10.42-8.6,11.07-12.06,3.94-23.46-3.86-6.19-8-12.19-12.51-19l50.74-40.24c1.81,2.06,3,3.4,4.19,4.79,3.4,4.11,6.66,8.33,10.16,12.35,9.38,10.78,18.43,10.68,28-.18,5.5-6.23,6.1-10.94,1.84-18-3.69-6.13-7.63-12.11-11.58-18.07-2-3.06-1.73-5.19,1.31-7.56q72.81-56.9,145.57-113.84c2.29-1.79,5.76-2.43,8.79-2.84,53.86-7.37,102.51-28.69,148.88-55.91,14.77-8.66,29-18.28,43.45-27.46A15,15,0,0,1,978.56,0c-1.68,5.32-3.19,10.7-5,16-12.15,34.42-29.75,66.11-49,96.93-46.15,74-101.39,140.63-161.88,203.17-80.43,83.17-167.93,158.22-259.81,228.3-14.42,11-28.9,21.9-44,33.37ZM447,502.2c7.56,9.78,14.63,19.24,22.06,28.4,4.47,5.5,4.8,5.3,10.32.84,55.19-44.6,109.63-90.07,162.11-137.86,71.26-64.88,139.79-132.42,201.2-206.88,29.49-35.77,57.06-72.9,79.26-113.77.8-1.48,1.49-3,2.23-4.55a32.86,32.86,0,0,0-5.94,6.3c-18.73,23-36.52,46.77-56.4,68.69-65.26,72-137.17,136.94-212.9,197.67C588,389.89,526.69,438.27,465.58,486.88,459.48,491.73,453.54,496.79,447,502.2Z"/><path class="cls-1" d="M334.41,623c-16.8,17.36-32.56,34.81-49.54,51-44,41.85-92.66,77-148.56,101.31C111.49,786.05,85.83,793.7,58.45,795c-16.28.79-28.93-4.38-38.05-18-4.9-7.33-10.35-14.32-14.85-21.89-8.3-13.95-7.49-28.25,3.8-40a375.35,375.35,0,0,1,35.88-32.45c59.63-47.81,119.56-95.22,179.31-142.86,8.33-6.64,16.24-13.81,24.45-20.6,2.43-2,2.49-3.8.83-6.34-4.47-6.82-8.69-13.8-13.11-20.65-4.68-7.24-4.27-14.56-.15-21.71,8.19-14.25,19.58-24.23,36.54-26.48,7.55-1,13.71.28,18.83,7,35.51,46.63,71.35,93,106.94,139.59a168.72,168.72,0,0,1,11.21,17.69c3.9,6.71,3.82,13.58.08,20.46-8.08,14.85-20,24.25-37.09,26.24-7.77.91-14.47-1.18-19.47-7.62s-9.9-12.55-14.85-18.82C337.23,626.62,335.74,624.66,334.41,623Z"/></g></g></svg>