<svg xmlns="http://www.w3.org/2000/svg" viewBox="0 0 23.35 23.35"><defs><style>.cls-1{fill:#fff;}</style></defs><title>laying-person</title><g id="Layer_2" data-name="Layer 2"><g id="layer"><path class="cls-1" d="M7.5,9.93a6.16,6.16,0,0,1,1,.53c.91.7,1.78,1.44,2.69,2.15a.67.67,0,0,0,.57.05c1-.55,2.07-1.14,3.1-1.71a1.56,1.56,0,0,1,2.14.26c1.12,1,2.26,2.06,3.38,3.09a1.42,1.42,0,0,1,.48,1.53,1.45,1.45,0,0,1-1.15,1.06,1.51,1.51,0,0,1-1.36-.44c-.82-.76-1.65-1.5-2.46-2.26a.47.47,0,0,0-.66-.08c-1,.58-2,1.13-3,1.68a1.57,1.57,0,0,1-2-.18c-1.21-1-2.43-1.95-3.64-2.94A1.44,1.44,0,0,1,6.09,11,1.68,1.68,0,0,1,7.5,9.93Z"/><path class="cls-1" d="M4.34,10.44a2,2,0,0,1,.11-4,2,2,0,1,1-.11,4Z"/><path class="cls-1" d="M11.67,1A10.68,10.68,0,1,1,1,11.67,10.69,10.69,0,0,1,11.67,1m0-1A11.68,11.68,0,1,0,23.35,11.67,11.68,11.68,0,0,0,11.67,0Z"/></g></g></svg>