<svg xmlns="http://www.w3.org/2000/svg" viewBox="0 0 249.63 509.32"><defs><style>.cls-1{fill:#fff;}</style></defs><g id="Layer_2" data-name="Layer 2"><g id="Layer_1-2" data-name="Layer 1"><path class="cls-1" d="M120.92,186c-.11,8.72-.67,18.19-.63,27.68,0,10,.56,19.87,1.34,29.79.32,4.14,1,8.24,1.33,12.37a101.17,101.17,0,0,0,2.1,11.49c1.25,6.17,3.13,12.19,4.6,18.31,1.61,6.77,4,13.34,6.15,20q4.27,13.43,8.61,26.81c2.86,8.86,5.77,17.7,8.63,26.55q5.25,16.23,10.47,32.47l13.95,43.37c4.3,13.36,8.63,26.7,12.89,40.08a26.46,26.46,0,0,1-16.7,33.28c-11.89,4-25.73-2.57-30.51-12.56-2.78-5.84-4.26-12.05-6.29-18.1-2.85-8.5-5.46-17.08-8.25-25.59-2.25-6.86-4.38-13.75-6.7-20.58-3.19-9.35-6-18.81-9-28.23-2.89-9.1-5.76-18.21-8.7-27.3-2.86-8.85-5.81-17.67-8.71-26.51-1.21-3.71-2.42-7.43-3.54-11.17a3.69,3.69,0,0,0-2.62-2.68c-4.72-1.57-9.64-2.5-14.13-4.76a86,86,0,0,1-25.43-19.73c-4.54-5.05-8.13-10.71-11.88-16.29-1.61-2.38-1.37-3,1.26-4.21,7.44-3.5,14.81-7.15,22.29-10.58,9.74-4.47,19.24-9.44,29.15-13.54,1.46-.61,2.87-1.31,4.28-2a3.41,3.41,0,0,0,2-3.19c0-2-.73-2.71-2.56-1.94-2.75,1.16-5.47,2.42-8.13,3.8a2.88,2.88,0,0,1-4-.74q-10.05-11.4-20.11-22.79c-2.53-2.87-5-5.75-7.71-8.49-1.43-1.47-1.32-2.5,0-4q16.65-18,33.17-36.2,6-6.54,11.75-13.24c6-7,8.07-15.22,4.4-23.7-6.1-14.06-24-17.57-34.38-7.1-6.84,6.91-13.22,14.26-19.79,21.42-.54.59-.94,1.62-1.94,1.16s-.68-1.46-.52-2.24c3.17-15.59,11-28.12,24.73-36.44a34.29,34.29,0,0,1,23.11-5c5.15.73,9.9,2.65,14.86,3.86,7.27,1.79,14.32,4.25,21.52,6.23,8.71,2.4,17.34,5.09,26,7.63,1.91.56,3.88.91,5.77,1.52,2.33.75,3.49-.08,4.29-2.32,2.85-8,5.84-15.9,8.8-23.84,3.22-8.64,6.48-17.27,9.72-25.91.25-.67.91-1.37.35-2.09s-1.38-.22-2.09-.08c-3.75.7-5.76-1.6-4.74-5.4A1.57,1.57,0,0,1,181.11,84c2.54.09,4.85-1.18,7.38-1.11a5.48,5.48,0,0,0,3.56-1.6c5.1-4.13,10.88-5.48,17-3.1,3.85,1.51,7.62,1,11.24.4,5.06-.88,10.18-1.37,15.2-2.52a13.92,13.92,0,0,1,3.48-.12c2.43.08,3.5,1.27,3.64,3.78.13,2.32-1.5,3-3.18,3-5.85,0-11.43,2-17.25,2.24-3.42.16-4,1.18-3,4.47,1.05,3.49.48,6.86-.76,10.24-6.89,18.71-13.68,37.47-20.59,56.18-1.81,4.9-3.66,9.79-5.44,14.71-3.93,10.88-12.48,13.67-22.67,10.84C157.4,178,145.18,174.3,133,170.6c-2.7-.81-5.39-1.61-8.1-2.37-2.11-.6-2.84,0-3.18,2A79.27,79.27,0,0,0,120.92,186Z"/><path class="cls-1" d="M83.65,115.8c-9.25.64-17.5-2.19-25-6.92a45.63,45.63,0,0,1-19.25-24.1,47.34,47.34,0,0,1-1.74-23.31c2-12.4,8.33-21.92,18-29.42A37.88,37.88,0,0,1,75.14,23.8c2.62-.29,5.21-.8,7.87-.9,10.68-.37,20,3.2,28.55,9.35a7.91,7.91,0,0,0,5.29,1.7c4-.18,8-.17,12-.36a70.74,70.74,0,0,1,14.34,1c4.18.67,8.4,1,12.41,2.42a29.47,29.47,0,0,1,9.27,4.77c3.91,3.31,3.8,6.63,0,10.09a32.69,32.69,0,0,1-13.13,6.89A111.18,111.18,0,0,1,124.78,63a128.41,128.41,0,0,1-18.63-.34c-8.24-.83-16.73-1.82-23.77-7.11-.56-.42-1.32-1.23-1.95-.52s.12,1.58.65,2.16A28.41,28.41,0,0,0,89.2,62.9a78.62,78.62,0,0,0,22.16,7.15c5.22,1,10.45,1.81,15.72,2.28,2.42.21,3,1.42,2.67,3.46-1.23,6.57-3.23,12.82-7,18.48a50.64,50.64,0,0,1-18,16.57C98.2,114.42,91.1,116.46,83.65,115.8Z"/><path class="cls-1" d="M0,454.84c.26-6.62,2.44-12.52,7.22-17.2,8.72-8.55,18-16.53,27-24.7,6.05-5.44,12-11,18-16.45Q64.12,385.8,76,375.15c1.05-.95,2-2,3.07-2.93,1.74-1.46,2-3.23,1.7-5.38-1-8.06-2.56-16-2.86-24.17a26.17,26.17,0,0,0-.69-3.66c-.28-1.43.41-2,1.65-1.43a17.63,17.63,0,0,0,5,1.32c2.88.35,4.08,2.15,4.88,4.76,3,9.84,6.29,19.6,9.3,29.44,3.57,11.65,7.56,23.17,11.14,34.81,1.08,3.51.53,5.4-2,7.6-7.72,6.69-15.34,13.5-22.92,20.35C71.54,447.39,58.9,459,46.1,470.51c-3.26,2.92-6.3,6.12-10.47,7.95C25.5,482.93,12,479.71,5.28,470.34A25.91,25.91,0,0,1,0,454.84Z"/><path class="cls-1" d="M100.88,162.28a21.45,21.45,0,0,1-5.77,12.57q-16,17.63-31.88,35.33c-4.95,5.48-9.91,11-14.92,16.4-1.65,1.79-1.39,3.2.18,4.95,7.54,8.39,15,16.88,22.46,25.33q3.06,3.45,6.17,6.84c1.83,2,1.72,2.81-.7,3.81-9,3.71-17.5,8.45-26.35,12.47-1.31.59-2.29.71-3.31-.46q-10.08-11.53-20.2-23c-5-5.73-10.15-11.41-15.17-17.16C5.87,233,6.26,223.1,12.48,216.47c10.46-11.14,20.61-22.56,30.89-33.87,9.71-10.7,19.23-21.58,29.19-32a16.18,16.18,0,0,1,26.72,5.36A48.52,48.52,0,0,1,100.88,162.28Z"/><path class="cls-1" d="M237.65,55c-.29,3-1.33,6.19-.62,9.56a1.56,1.56,0,0,1-1.24,1.91A2,2,0,0,1,233.45,65a13.07,13.07,0,0,1-.79-4.65c0-3.07-.21-6.17,0-9.22.32-3.8-1.7-5.85-4.7-7.42-4.21-2.22-8.83-2.06-13.36-2.29-8.49-.42-14.93-4.23-19-11.68a19.88,19.88,0,0,1-1.95-9.15,19.64,19.64,0,0,0-2.24-8.84c-2.13-4-5.74-6.06-10.15-6.81-1.55-.26-3.1-.59-4.64-.91a2,2,0,0,1-1.84-2.25A1.84,1.84,0,0,1,177.09,0c8.58.78,17,3.55,19.87,14.24,1,3.83.18,7.76,1.6,11.53,2.27,6,7.35,10.48,13.72,11.13,4.28.45,8.71.29,12.85,1.3C234.76,40.58,236.85,45.5,237.65,55Z"/><path class="cls-1" d="M245.62,50.83c0-4,0-8,0-12,0-4.9-1.23-6.18-5.92-7.2a49.17,49.17,0,0,0-10.41-.72c-1.82,0-3.61-.25-4.38-2.16s.62-2.91,1.72-4.07c1.9-2,4-3.79,5.69-5.94,2.17-2.71,3.29-5.66,2-9-1.36-3.57-4.78-4-7.94-4.75-1.94-.43-3.91-.73-5.88-1-1.18-.17-1.81-.73-1.77-2s.65-2,1.81-1.95c6.37.31,12.67.9,16.9,6.65,2.23,3,2.17,8.85,0,12.06A44.8,44.8,0,0,1,232,24.9c-.4.4-1,.81-.7,1.47s1,.55,1.54.55a38.83,38.83,0,0,1,9.88.9c3.73,1,6.85,4.15,6.89,8.1.11,9.31,0,18.63,0,27.94,0,1.39-.27,2.51-2,2.49s-2-1.19-2-2.55c0-4.32,0-8.65,0-13Z"/></g></g></svg>