<?xml version="1.0" encoding="utf-8"?>
<!-- Generator: Adobe Illustrator 25.0.1, SVG Export Plug-In . SVG Version: 6.00 Build 0)  -->
<svg version="1.1" id="Layer_1" xmlns="http://www.w3.org/2000/svg" xmlns:xlink="http://www.w3.org/1999/xlink" x="0px" y="0px"
	 viewBox="0 0 403.6 489.3" style="enable-background:new 0 0 403.6 489.3;" xml:space="preserve">
<style type="text/css">
	.st0{fill:#FFFFFF;}
</style>
<g id="Layer_2_1_">
	<g id="Layer_1-2">
		<g id="EgWOKH">
			<path class="st0" d="M272.7,205c16.6-1,29.2,12.7,28.8,30c-0.4,12.9,0.1,25.9-0.2,38.9c-0.1,8-3.1,14.8-11,18
				c-3,1.2-3.5,2.7-3.5,5.5c0.1,10.2,0,20.3,0,30.5c0,18.5,0.2,37,0,55.5c-0.1,8.6-4,15.1-12,18.6c-7.8,3.3-14.6,1.2-20.5-4.7
				c-0.5-0.4-1-0.7-1.5-1c-8.3,7.5-15.5,9.2-23.2,5.1s-10.7-11-10.7-19.5c0-28,0-55.9,0-83.9c0-2.2,0.7-4.5-2.6-5.6
				c-7.6-2.6-11.4-8.7-11.6-16.4c-0.4-15.3-0.7-30.7,0-45.9c0.7-14.3,11.9-24.2,26.4-24.8c2.3-0.1,4.6-0.3,6.7-0.4
				c1.1-6.7,1.1-6.7-3.2-10.3c-12.8-11-13.9-29.8-2.4-41.8c0.5-0.5,1-1,1.5-1.4c11.7-10.6,29.8-9.8,40.4,1.9c0.6,0.6,1.2,1.3,1.7,2
				c9.5,12.3,7.2,30.1-5.1,39.6c-3.7,2.9-3.2,6-2.8,9.9C269.4,204.9,271.1,205,272.7,205z M246.9,200.8c-0.2,0.6-0.4,1.2-0.5,1.8
				c-0.5,9.9-0.5,9.9-10.3,10.4c-3.9,0.2-8.2,0.2-11.8,1.5c-7.4,2.7-11.5,8.8-11.7,16.5c-0.4,14.7-0.1,29.4,0,44
				c0,3.9,1.4,7.4,6.3,9.5v-22.4c0-1.2,0-2.3,0-3.5c0.1-2.8,1.4-5.4,4.4-4.7c1.5,0.4,3.4,3.2,3.4,4.9c0.3,15.4,0.3,30.7,0.3,46
				c0,25.2,0,50.3,0,75.5c-0.1,1.7,0,3.3,0.2,5c1,5.9,5.6,10.1,10.8,10c5.4-0.1,10-4.6,10.7-10.6c0.2-1.8,0.2-3.7,0.1-5.5
				c0-30.2,0-60.3,0-90.5c0-1.5-0.4-3.3,0.2-4.4c0.8-1.5,2.2-2.6,3.9-3c1.1-0.1,2.9,1.3,3.5,2.7c0.7,1.4,0.4,3.2,0.4,4.9
				c0,30.5,0,61,0,91.5c0,9.3,4.3,15,11,15c6.7,0,10.8-5.8,10.8-15.1c0-39.5,0-79,0-118.5c0-1.2-0.4-2.6,0.1-3.5
				c1.1-1.6,2.3-3.1,3.7-4.5c1.4,1.5,3.9,3,4,4.6c0.5,7.5,0.3,15,0.3,22.5c0,1.1,0.1,2.2,0.2,3.8c5.5-2.6,6.4-7.3,6.5-11.8
				c0.2-13.2,0.1-26.3-0.2-39.5c-0.2-12.5-7.5-19.8-19.9-20.2c-12.7-0.5-12.7-0.5-14.5-12.3L246.9,200.8z M253.1,151.9
				c-0.1,0-0.1,0-0.2,0c-11.3,0-20.5,9.2-20.5,20.5c0,11.2,8.9,20.3,20.1,20.7c11.3,0,20.6-9,21-20.3
				C273.5,161.4,264.4,152.1,253.1,151.9L253.1,151.9z"/>
			<path class="st0" d="M132.7,155.8c-0.7-0.5-1.3-1.1-1.9-1.7c-11.3-10.8-11.6-28.7-0.8-40c0.3-0.3,0.7-0.7,1-1
				c11.4-10.9,29.6-10.5,40.5,0.9c11.5,12.1,10.6,31.2-2.4,41.7c-3.8,3.1-4.3,6.1-3,10.8c2.4,0,4.7-0.1,7,0
				c13.4,0.5,25,10,25.8,23.3c1,16.3,0.5,32.6,0.1,48.9c-0.1,6.1-3.3,11.5-9.1,13.9c-4.1,1.7-5.8,3.8-5,8.1c0.1,1.3,0.1,2.7,0,4
				c0,26.5,0.1,53,0,79.5c0,8.7-3.7,15.7-11.9,19.2c-7.9,3.4-15,1.3-20.9-4.9c-0.3-0.3-0.8-0.5,0,0c-5.3,2.3-9.6,5.3-14.2,6
				c-11.6,1.7-20.9-7.7-20.9-20.6c-0.1-28.3,0-56.6-0.1-84.9c0-1.7-1.1-4.4-2.4-4.9c-8.4-3.4-11.8-10.2-12-18.5c-0.3-14-0.4-28,0-42
				c0.5-16.2,11.6-26.6,28-27.1c1.8-0.1,3.6-0.2,5.4-0.3C136.5,161.9,136.5,158.9,132.7,155.8z M191,236c0.4-14.5,0.5-29,0-43.5
				c-0.3-10.4-8.1-17.5-18.5-17.9c-2.8-0.1-5.7-0.3-8.5-0.2c-4.9,0.2-7.1-2-6.8-6.9c0.1-1.6,0-3.3,0-5.1h-12.4
				c-0.3,0.6-0.4,1.2-0.5,1.8c0.6,11.7-2.1,10.1-10.9,10.3c-6.3,0.1-12.3,0.5-17.1,5.3c-4,3.9-6.1,9.3-6,14.9
				c-0.1,13.2,0,26.3,0,39.5c0,4.6,1,8.9,6.5,12.4v-8.5c0-5.5,0-11,0-16.5c0-3,0.1-6.1,4.1-6s4,3.3,4,6.2c0,16.7-0.1,33.4-0.1,50
				c0,23.7,0,47.3,0.1,71c0,2.2,0.2,4.3,0.8,6.4c1.4,4.5,4.4,7.4,9.4,7.7c5.2,0.4,8.6-2.4,10.5-6.9c0.8-2,1.1-4.2,1.1-6.3
				c0.1-31.7,0.1-63.4,0.1-95c0-2.8-0.1-5.7,3.7-5.8c3.8-0.1,4.4,2.6,4.4,5.8c-0.1,31.1-0.1,62.3,0.1,93.4c0,3.1,0.6,6.2,1.9,9.1
				c1.9,4.1,5.6,6.1,10.2,5.6c4.5-0.5,7.3-3.3,8.7-7.3c0.7-2.6,1.1-5.2,1-7.9c0-39.5,0-79,0-118.4c0-1-0.4-2.3,0.1-3
				c1.2-1.7,2.5-3.3,3.9-4.8c1.4,1.5,3.8,3,3.9,4.7c0.5,6.7,0.2,13.3,0.2,20v5.2l2.5,0.8C188.5,242.6,190.9,239.3,191,236z
				 M130.6,133.4c-0.3,11.3,8.7,20.8,20,21.1c0.3,0,0.6,0,0.9,0c11.3-0.2,20.4-9.6,20.2-20.9s-9.6-20.4-20.9-20.2
				C139.7,113.5,130.8,122.4,130.6,133.4z"/>
			<path class="st0" d="M0.1,187.9c-0.2-13.5-0.2-27,0-40.5c0.2-16.1,11.4-27.2,27.4-27.8c2.1-0.1,4.2-0.2,6.2-0.3
				c0.7-6.7,0.7-6.7-3.8-10.7c-1.2-1.1-2.3-2.2-3.4-3.5C16.5,93,18.3,75,30.5,65s30.2-8.2,40.2,4s8.2,30.2-4,40.2
				c-3.8,3-3.9,6-2.9,10.1c1.6,0.1,3.1,0.3,4.5,0.3c18.5,0.7,28.8,11.4,28.9,29.8c0,11.7-0.2,23.3,0,35c0.2,11.1-2.6,20.2-14.6,23.7
				v6.3c0,27.5,0.1,54.9,0,82.4c-0.1,11.6-6.8,20-17.1,21.2c-6.9,0.9-12.2-2.4-16.7-7.1c-2.4,1.8-4.5,3.8-6.9,5.1
				c-12.4,6.5-26.9-3-27.1-17.8c-0.2-19.8-0.1-39.6-0.1-59.5v-30.7C4.6,204.3,0.3,198.3,0.1,187.9z M88.9,190c0.2-15,0.4-30-0.1-45
				c-0.3-9.3-7.9-16.3-17.2-17.1c-3.3-0.3-6.7-0.4-10-0.3c-4.8,0.2-6.7-2-6.5-6.6c0.1-1.6,0-3.3,0-5.2H42.8
				c-0.2,0.7-0.4,1.4-0.5,2.1c-0.4,9.6-0.4,9.5-10.2,9.9c-3.3,0-6.7,0.3-9.9,0.9c-8.4,2-13.8,9.9-13.9,20.2c-0.1,12.7-0.1,25.3,0,38
				c0,4.8,0.7,9.5,6.6,12.7c0-8.3-0.1-15.7,0-23.1c0-3.2-1.1-7.6,3.9-7.7s4.1,4.3,4.1,7.5c0,39.7,0,79.3,0.1,119
				c0,2.8,0.4,5.6,1.3,8.3c1.4,4.1,5.4,6.8,9.7,6.6c4.3,0.1,8.2-2.7,9.5-6.8c0.8-2.5,1.2-5.2,1.2-7.8c0-29.8,0-59.7,0-89.5
				c0-1.5,0-3,0-4.5c-0.1-3,0.7-5.7,4.2-5.5s4,2.9,3.9,5.8c0,1.3,0,2.7,0,4c0,29.8,0.2,59.7-0.1,89.5c-0.1,10.7,6.1,15,11.1,15
				c6.7,0,10.9-5.8,10.9-15.2c0-39.3,0-78.6,0-117.9c0-1.4-0.4-2.9,0.1-4c0.9-1.7,2.4-3,3.7-4.5c1.4,1.5,3.9,3,4,4.6
				c0.5,6.8,0.2,13.6,0.2,20.5v5.8C87.4,197.1,88.8,193.7,88.9,190z M48.6,107.6c11.3,0,20.5-9.2,20.6-20.5
				c0-11.3-9.1-20.5-20.4-20.5C37.4,66.5,28.2,75.6,28.1,87S37.2,107.6,48.6,107.6L48.6,107.6z"/>
			<path class="st0" d="M353,431.1c-11.7,10.5-28.2,5.1-31.5-10.3c-0.4-2.3-0.6-4.6-0.5-7c0-27.6,0-55.3-0.1-82.9
				c-0.1-1.7-0.9-4.4-2-4.8c-9.8-3.9-12.5-11.7-12.5-21.2c0.1-12.2,0.8-24.4,0-36.5c-1-15.6,11-31.4,29-30c4.5,0.4,5.9-1.8,4.9-5.5
				c-0.6-1.9-1.8-3.6-3.5-4.9c-0.5-0.4-0.9-0.8-1.4-1.2c-11.6-10.8-12.2-29-1.4-40.6c11.1-12,30.4-12,41.9,0.1
				c0.5,0.5,0.9,1,1.4,1.5c9.9,12.1,8.1,29.9-4,39.8c-3.9,3.1-4.2,6.2-3.2,10.5c1.5,0.2,3,0.4,4.5,0.3c14.8-1.4,29.5,10.8,29,30.2
				c-0.3,11.7-0.1,23.4,0,35c0.1,11-3,19.7-14.8,23.2v5.2c0,27-0.1,54,0.1,81c0.1,9.6-2.2,17.7-11.4,22c-8.6,4-16.2,1.3-22.6-5.6
				L353,431.1z M395.1,308.4c0.4-14.8,0.7-29.7,0-44.5c-0.5-10.9-8.3-17.2-19.3-17.6h-1.5c-11.9-0.4-11.9-0.4-13.2-12.1h-12.2
				c-0.1,1.3-0.3,2.8-0.3,4.4c-0.1,6.5-1,7.4-7.6,7.6c-3,0.1-6,0-9,0.3c-9.7,0.8-17.1,8.3-17.3,18.1c-0.3,14.2-0.1,28.3-0.1,42.5
				c0,4.3,1.4,8,6.4,11.1v-20.6c0-2.2-0.5-4.5,0.2-6.4c0.8-1.8,2.3-3.1,4.2-3.7c0.9-0.2,2.7,2.2,3.5,3.8c0.6,1.2,0.2,3,0.2,4.5
				c0,39.2,0,78.3,0,117.5c-0.1,2.3,0.2,4.6,0.6,6.9c1,4.7,5.1,8.2,9.9,8.5c4.9,0.1,9.2-3,10.6-8.2c0.5-2.1,0.7-4.3,0.7-6.4
				c0-30.5,0-61,0-91.5c0-1.5-0.4-3.3,0.2-4.4c0.9-1.5,2.7-3.4,4-3.4s2.9,2.1,3.7,3.6c0.6,1.2,0.2,2.9,0.2,4.4c0,30.3,0,60.7,0.1,91
				c-0.1,2.7,0.3,5.3,1.1,7.8c1.7,4.4,5,7,9.9,7c4.3,0.1,8.2-2.7,9.5-6.8c0.9-2.7,1.3-5.5,1.2-8.3c0-39.5,0.1-79,0.1-118.5
				c0-1-0.4-2.2,0.1-3c1.2-1.7,2.5-3.3,3.9-4.8c1.3,1.6,3.7,3,3.8,4.7c0.5,6.8,0.2,13.7,0.2,20.5c0,1.6,0.1,3.2,0.2,4.8l2.1,0.8
				C392.6,314.8,395,311.6,395.1,308.4z M355,226.3c11.4,0,20.6-9.2,20.6-20.5c0-11.4-9.2-20.6-20.5-20.6c-0.1,0-0.2,0-0.3,0
				c-11.3,0.1-20.4,9.3-20.3,20.6C334.5,217.1,343.7,226.3,355,226.3z"/>
			<path class="st0" d="M337.3,137.3L54.7,9.2c-1.5-0.7-3.5-1.1-4.4-2.2c-1-1.3-1.8-3.6-1.4-5.1c0.3-1,2.8-1.7,4.4-1.9
				c1-0.1,2.2,0.8,3.2,1.2l279,126.3c3.1,1.4,6.2,2.8,10.8,4.9l-10.8-26.4l6.6-2.6l16.3,38.9l-40.2,13.4l-2.1-6.7l26.8-9.2
				C340.3,138.8,338.8,138,337.3,137.3z"/>
			<path class="st0" d="M16.3,334.3h65v155h-65V334.3z"/>
			<path class="st0" d="M183.5,380.9v108.3h-65V380.9H183.5z"/>
			<path class="st0" d="M220.5,419.8h64.9v69.5h-64.9V419.8z"/>
			<path class="st0" d="M387.5,449.9v39.2h-65v-39.2H387.5z"/>
		</g>
	</g>
</g>
</svg>
