<svg xmlns="http://www.w3.org/2000/svg" viewBox="0 0 671.97 680.37"><defs><style>.cls-1{fill:#fff;}</style></defs><g id="Layer_2" data-name="Layer 2"><g id="Layer_1-2" data-name="Layer 1"><path class="cls-1" d="M0,355.31c7.4-3.1,14.55-7.82,22.24-9C44.36,342.93,65.72,338,83.1,323c8.82-7.59,15.74-7.69,24.92-.1,36.75,30.36,97.26,31.1,134.24,1.25,11.51-9.29,17.69-9.14,30.14.85,27.81,22.32,61.27,26.82,95.34,16,13.51-4.29,26.14-12.17,38.22-19.89,8.36-5.34,15.1-7.33,22.68.14,32.49,32,96.87,32.76,133.39,3.64,11.86-9.46,18.22-9.23,31.73-.11C610.37,336,632,340.61,652.11,345.5c10.2,2.48,19.77,3.4,19.22,15.75-.57,13.12-11.06,13.23-21.17,12.86-24.77-.9-44.21-7.19-72.68-24.14-53.16,32.75-107,33.13-160.78.19-51.1,30.71-102.64,33.58-155,3.15-2.94-1.7-8.63-1.53-11.63.21C198.09,383.45,147,380.9,95.22,350c-21.93,14-46.33,24.31-73.59,23.67-7.28-.17-14.42-6-21.63-9.3Z"/><path class="cls-1" d="M0,195.47c6.82-3.17,13.36-8.1,20.5-9.2,23.58-3.62,46.24-8.67,64.68-25.26,7.53-6.77,14.55-6,22.62.59a108.87,108.87,0,0,0,136.16.75c10.8-8.62,18.31-8.67,28,1.88,5.75,6.27,14.76,11.56,23.07,13.08,20.62,3.75,21.57,17.94,21.66,37.95C298.12,208,281.36,201.17,264.36,195c-4.41-1.6-10.76-3.2-14.22-1.25-52.07,29.37-103.1,26.92-154.84-4C73.44,203.66,49.08,214,21.88,213.47c-7.34-.14-14.59-5.82-21.88-8.95Z"/><path class="cls-1" d="M0,518.17c6.82-4,13.31-10.74,20.51-11.6C43.43,503.83,65,498.23,83,483.37c10-8.3,16.82-6.68,27.47.62,14.94,10.24,32.64,16.46,50.58,25.08l-10.39,25.2c-15.84-6.43-31-13.18-46.71-18.63-5.1-1.77-11.69-1.31-17.06.12-22,5.86-43.61,13.58-65.86,18.12-6.09,1.25-13.95-6.21-21-9.68Z"/><path class="cls-1" d="M250.11,409.94c33.78,49,68.5,97.6,83,156.76,13,53-18.6,102.88-70,112.34-47.93,8.83-95.52-27.37-100.6-76.09-2.58-24.72,1.65-48.56,12.82-70,21.86-42,45.77-83,68.83-124.43Zm-1.37,50c-26.1,38.82-48.92,77.45-58,122.36-4.75,23.56,8.36,49.92,29,61.65s41.38,11,61.11-2.09C301,628.43,311.67,602,306.13,578.47,296,535.37,274.3,497.77,248.74,459.9Z"/><path class="cls-1" d="M424.2,0c36.73,56.37,79,108,85.95,176.31,4.67,46.26-27.73,87.76-70.26,94.72-47.41,7.75-89.94-19.35-100-67.41-3.73-17.83-2.21-38.47,2.9-56.1C358.52,93.38,390.28,47.47,424.2,0Zm-.39,52c-25.59,38.1-47,75.21-57.06,117.8-5.62,23.85,4.69,50,24.2,63.66a56.36,56.36,0,0,0,63.57,1.38c20.73-13.25,32.56-39.66,26.85-64C471.27,127.83,449.86,90.1,423.81,52Z"/><path class="cls-1" d="M335.37,506.7c27.36-1.58,50.79-8.26,71.36-24.73,4.13-3.31,15.72-3.26,19.69.13,37.13,31.69,105,32.53,142-1.4,3.67-3.36,16-3.32,19.38.06C605.74,499,628.33,503,651.86,506.41c6.51.95,14.78,4.49,18.09,9.56,6,9.22-2.11,18.43-15.08,18.74-23.44.54-46.49-6.7-77.68-24.4-51,30.94-102.56,33.53-155.11,3.52-3.11-1.78-9,0-13.07,1.43-13.59,4.86-26.67,11.4-40.5,15.35-20.72,5.91-20.93,5.21-29.4-14.55C337.94,513.33,336.9,510.54,335.37,506.7Z"/><path class="cls-1" d="M578.32,190.31l-46.83,21.23c.83-18.51,1.92-30.65,20-41.28,19.61-11.52,31.42-13.77,50.77-.06,14.09,10,34.42,11.93,52.36,15.4,9.73,1.89,17,4.52,16.78,14.89-.24,10.56-7.75,13.62-17.71,13.62C629.75,214.1,606.4,207,578.32,190.31Z"/></g></g></svg>