<svg xmlns="http://www.w3.org/2000/svg" viewBox="0 0 488.4 488.26"><defs><style>.cls-1{fill:#fff;}</style></defs><g id="Layer_2" data-name="Layer 2"><g id="Layer_1-2" data-name="Layer 1"><g id="HkP0Vs"><path class="cls-1" d="M369.46,34.43,360.74,3.58l7.62-2.49c2.3,8,4.51,15.63,6.7,23.27,2.14,7.48,4.26,15,6.55,23l-46.94,9.89c-.57-2.55-1.1-4.87-1.77-7.83L366,42.34c-2.8-1.75-4.5-2.9-6.29-3.92C221.48-40.07,44.21,41.05,13.1,197c-26.17,131.16,59.18,256.18,191,279.78C330,499.34,453.25,413.72,476.28,287.71a237.52,237.52,0,0,0,.82-82c-.49-3-1.56-6.49,2.66-7.31,4.62-.9,4.83,3.05,5.34,6.13,19.75,118.7-50.88,234.94-165.1,271.74-124,40-255.82-22.56-303.42-144C-36.19,197.65,41.86,44.45,181.84,8.35c64.29-16.58,125.55-8.41,183.54,24C366.39,32.9,367.43,33.39,369.46,34.43Z"/><path class="cls-1" d="M462,178c6.48,0,12.27,0,18.06,0,2.88,0,5.71.31,5.73,3.9,0,3.43-2.56,4.18-5.58,4.18q-70.47,0-140.93,0c-3,0-5.64-.75-5.6-4.16s2.87-4,5.77-3.93c4.33.06,8.68-.22,13,.1,3.89.28,4.77-1.25,4.68-4.89-.23-9.82-.07-19.65-.06-29.48,0-3.06-.18-6.58,4.18-6.45,3.92.11,3.88,3.37,3.88,6.3q0,14.25,0,28.49v5.65h23.92c.09-1.82.26-3.57.26-5.33q0-23,0-46c0-1.33-.43-2.9.12-3.94a32.39,32.39,0,0,1,3.86-4.89c1.36,1.57,3.5,3,3.88,4.74.65,3,.2,6.29.2,9.45v45.84h24c.09-1.71.24-3.31.24-4.92q0-32.24,0-64.47c0-1.67-.41-3.57.26-4.93.75-1.54,2.5-3.57,3.83-3.58s3.08,2.07,3.74,3.62.27,3.6.27,5.43q0,32.49,0,65c0,1.14.15,2.29.26,3.86h24v-5.9q0-41.48,0-83c0-1.17-.4-2.6.12-3.44A30.62,30.62,0,0,1,457.93,81c1.35,1.4,3.05,2.62,3.93,4.27.63,1.17.17,2.93.17,4.43q0,41.24,0,82.46Z"/><path class="cls-1" d="M455.25,29.87C452,46,449,61.16,445.77,77l-7.83-1.58c2.1-10.72,4.13-21.1,6.37-32.51-2.35,1.59-4,2.63-5.51,3.74L363.41,101c-.94.68-1.89,1.87-2.86,1.9-1.79,0-4.35,0-5.2-1.1s-.19-3.67.61-5.16c.71-1.33,2.52-2.08,3.87-3.06Q396.93,66.85,434,40.15c1.44-1,2.8-2.18,5.2-4.06l-32.58-4.23c.27-2.54.5-4.79.84-7.94Z"/><path class="cls-1" d="M96.61,283C85.13,270.89,74,259.22,62.9,247.53c-1-1.09-2.53-2.12-2.82-3.4a6.16,6.16,0,0,1,.83-4.8c.73-.84,3-.81,4.43-.45,1.13.3,2,1.63,3,2.59,11.72,12.26,23.38,24.6,35.19,36.79,3.14,3.24,3.55,5.83.2,9.28-12.17,12.53-24.14,25.25-36.19,37.9-2,2.07-4.17,3.86-6.8,1.34s-1.12-4.79.9-6.9q15.34-16,30.66-32.14C93.61,286.31,94.91,284.82,96.61,283Z"/><path class="cls-1" d="M138.05,283c-6.44-6.81-12.56-13.31-18.73-19.77-5.38-5.66-10.81-11.27-16.23-16.88-2.17-2.24-3.74-4.73-.83-7.26,2.7-2.34,4.86-.37,6.8,1.67,11.91,12.52,23.77,25.08,35.79,37.5,3.2,3.3,3.37,6,.12,9.33-12.14,12.56-24.14,25.25-36.17,37.92-2,2.14-4.29,3.67-6.81,1.16s-1-4.8,1-6.91C114.51,307.78,126,295.73,138.05,283Z"/><path class="cls-1" d="M257.39,113.24c0,4.09.11,8.88,0,13.66-.12,4,1.64,5.83,5.6,5.9,5.33.09,10.66.33,16,.51,19.6.66,33.24,14.41,33.74,34.11.15,6,.06,12,.08,18,0,16.31.16,32.63,0,49-.05,6.11-1.48,12.06-6.07,16.42-2.35,2.24-5.6,3.53-9.66,6V238.64q0-13.5,0-27c0-3,.29-6.72-3.84-6.89-4.62-.19-4.25,3.73-4.25,6.9q0,84,0,167.93c0,10.49.1,21-.07,31.49a33,33,0,0,1-1.41,9.81c-3.11,9.39-11.58,15.1-20.51,14.29-9.28-.84-17-8.68-18.41-18.95a50.74,50.74,0,0,1-.28-7q-.08-76.47-.11-152.94c0-3.11.91-7.07-3.77-7.22s-4.11,3.93-4.12,7q-.06,42.74,0,85.47c0,23.49.05,47,0,70.48,0,9.8-3.88,17.61-13.18,21.67-11.19,4.89-24-2.38-26.66-15a46.43,46.43,0,0,1-.78-9.43q-.06-98.21-.07-196.42c0-3.27,1.23-8.1-4-8.07s-4,4.79-4,8.11c-.06,14,0,27.92,0,42.4-5.8-.23-9.81-3-11.81-7.42s-3.58-9.47-3.66-14.28c-.39-22-.37-44-.12-66,.22-20,14-33.68,34-34.35,5.33-.17,10.66-.36,16-.52,3.72-.12,5.37-2,5.3-5.72-.09-4.65,0-9.31,0-13.82Z"/><path class="cls-1" d="M280.33,69.63A36.48,36.48,0,0,1,244.64,106c-19.46.27-36.17-16.14-36.38-35.7a36,36,0,0,1,72.07-.69Z"/></g></g></g></svg>