<svg xmlns="http://www.w3.org/2000/svg" viewBox="0 0 31.63 20"><defs><style>.cls-1{fill:#fff;}</style></defs><g id="Layer_2" data-name="Layer 2"><g id="layer"><path class="cls-1" d="M4.9,1.63l-1.17.78c-.19-.2-.35-.4-.54-.57a1.6,1.6,0,0,0-.44-.29A.81.81,0,0,0,1.56,2a2.49,2.49,0,0,0-.11,1.24,14.2,14.2,0,0,0,1.08,4,36.19,36.19,0,0,0,2.74,5.28.17.17,0,0,0,.1.08c0-.33-.07-.66-.11-1q-.4-3.56-.83-7.13c0-.42-.1-.85-.16-1.27A.23.23,0,0,1,4.42,3,22.18,22.18,0,0,1,8.66,1.48,29,29,0,0,1,17.6.64a28.29,28.29,0,0,1,8.17,1.71c.48.18.94.41,1.42.6a.23.23,0,0,1,.15.27L26.83,7.5c-.15,1.31-.3,2.63-.46,3.95,0,.4-.09.8-.1,1.22.15-.25.31-.49.45-.74A29.69,29.69,0,0,0,29.8,5.2a8.61,8.61,0,0,0,.37-2.53A2.08,2.08,0,0,0,30,2a.81.81,0,0,0-1.16-.45,2.27,2.27,0,0,0-.83.71l-.13.17-1.19-.79A3.29,3.29,0,0,1,29,0,2.28,2.28,0,0,1,31.46,1.7,4.88,4.88,0,0,1,31.52,4a17.41,17.41,0,0,1-1.46,4.66,45.34,45.34,0,0,1-3.41,6.13c-.28.42-.54.86-.83,1.27a2.32,2.32,0,0,1-.5.43,19.12,19.12,0,0,1-5.54,2.88,12.88,12.88,0,0,1-5,.61,14,14,0,0,1-3.57-.81,19.16,19.16,0,0,1-5.18-2.86,4,4,0,0,1-.78-1c-.7-1.09-1.39-2.17-2-3.29A27.15,27.15,0,0,1,.3,5.1,9.52,9.52,0,0,1,0,2.67,2.91,2.91,0,0,1,.5,1,2.22,2.22,0,0,1,3.26.2,3.6,3.6,0,0,1,4.9,1.63Zm.92,2.29a.22.22,0,0,0,0,.08c.1.92.2,1.85.31,2.77.14,1.18.29,2.37.43,3.55.2,1.62.38,3.23.58,4.85a.38.38,0,0,0,.12.21,18,18,0,0,0,4.33,2.36,11.3,11.3,0,0,0,6.87.49,17.14,17.14,0,0,0,5.77-2.74.67.67,0,0,0,.3-.54c.12-1.09.25-2.18.37-3.27.16-1.32.31-2.63.47-3.95.11-.92.23-1.84.34-2.76,0-.35.07-.7.11-1A27.42,27.42,0,0,0,5.82,3.92Z"/><polygon class="cls-1" points="17.12 9.88 20.97 4.5 18.5 4.5 15.87 8.26 15.81 8.39 13.14 4.5 10.64 4.5 14.44 9.82 10.42 15.5 12.9 15.5 15.77 11.4 15.8 11.32 18.73 15.5 21.22 15.5 17.12 9.88"/></g></g></svg>