<svg xmlns="http://www.w3.org/2000/svg" viewBox="0 0 865.32 979.16"><defs><style>.cls-1{fill:#fff;}</style></defs><g id="Layer_2" data-name="Layer 2"><g id="Layer_1-2" data-name="Layer 1"><path class="cls-1" d="M453.6,0,272.17,302.54H483.91L91.7,785.38l-.61-.32q54.16-180.43,108.48-361.4H0c4.2-12,8.19-23.43,12.27-34.87q25.8-72.23,51.65-144.44,34.24-95.88,68.43-191.78Q141.71,26.31,150.94,0Z"/><path class="cls-1" d="M499.42,637.37q0-157.57-.09-315.16c0-9.95,2.66-18.24,11.59-23a29.82,29.82,0,0,1,13.29-3.2c23.8-.3,47.59-.18,71.39-.12,15,0,24.82,10.05,24.82,25V953.71c0,15.85-9.5,25.29-25.45,25.29-23.14,0-46.29-.43-69.42.15-15.61.39-26.36-10.37-26.31-26.11C499.58,847.82,499.42,742.59,499.42,637.37Z"/><path class="cls-1" d="M865.15,751.24c0,68.09-.14,136.19.14,204.28,0,11.15-9,23.5-23.18,23.49-25,0-49.94.08-74.91,0a23,23,0,0,1-22.91-22.73c0-1,0-2,0-3q0-202.54-.12-405.07c0-14.67,10.12-26.2,25.59-25.84,23.79.56,47.61.42,71.41,0,14.4-.23,24.22,12.07,24.16,24.08C865,614.71,865.15,683,865.15,751.24Z"/><path class="cls-1" d="M375.64,808.68c0,38.87.06,77.74,0,116.61,0,11.4.13,22.86-.9,34.2s-10.56,19.41-22,19.47c-25,.13-49.92.07-74.88,0-11.83,0-22.95-8.41-23.46-22.66-.05-1.66-.11-3.33-.11-5q0-143.54,0-287.07c0-10.39,2.93-19.12,12.62-24a29.06,29.06,0,0,1,12.37-2.82c23.63-.26,47.26-.14,70.89-.13,15.68,0,25.58,10,25.59,26q0,56.07,0,112.12Z"/></g></g></svg>