<svg xmlns="http://www.w3.org/2000/svg" viewBox="0 0 644.92 796.27"><defs><style>.cls-1{fill:#fff;}</style></defs><g id="Layer_2" data-name="Layer 2"><g id="Layer_1-2" data-name="Layer 1"><path class="cls-1" d="M317.05,490.18q0-137.25,0-274.5c0-24.36,5.44-29.82,29.53-30,15.65-.12,31.3-.07,46.95,0,27.38.1,31.92,4.78,31.93,33q0,155.31,0,310.62,0,118.29,0,236.57c0,24.2-5.8,30.06-29.48,30.22-15.65.1-31.31.06-47,0-26.38-.09-31.95-5.52-32-31.43Q317,627.43,317.05,490.18Z"/><path class="cls-1" d="M537,592.23q0-88.38,0-176.77c0-21.29,5.5-26.84,26.35-27.06,18.64-.19,37.28-.25,55.92,0s24.62,6.25,25.35,24.88c.43,10.8.11,21.64.11,32.46q0,157.83,0,315.67c0,30.09-4.54,34.64-34.21,34.68-16.23,0-32.47.27-48.7-.09-18.63-.41-24.72-6.49-24.78-25.22C536.92,711.29,537,651.76,537,592.23Z"/><path class="cls-1" d="M304.19,320.77c-4.36,67.6-32.27,113.74-87.6,139.79-55.92,26.32-110.88,20.32-159.1-18.72C9.49,403-11.93,350.74,6.65,290.93c17-54.69,40.93-107.46,64.76-159.73,18.4-40.36,41.08-78.79,62.45-117.76,9.67-17.65,26-18,35.8-.56C216.92,96.6,262.77,181.07,293.2,272.75,299,290.22,301.51,308.78,304.19,320.77ZM152,52.43C109.45,133.34,66.14,209.53,41.08,294c-4.62,15.55-6.08,33.64-3.25,49.54,12,67.49,75.6,108.52,140.08,94C233.05,425.12,286.8,363.71,262,288.6,235,206.75,194.1,131.4,152,52.43Z"/><path class="cls-1" d="M205.61,645.54c0,41.47.12,82.94-.06,124.4-.08,19.95-5.92,25.82-25.67,26.11q-27.94.42-55.9,0c-18.88-.31-25.44-6.25-25.5-24.76q-.39-128,0-256c.06-17.66,7.53-24.38,25.91-24.74,18-.36,36.06-.29,54.09,0,20.22.3,27,7,27.07,27C205.72,560.2,205.61,602.87,205.61,645.54Z"/><path class="cls-1" d="M231.42,329.35C229.76,369,194.9,403,156.51,403.73c-11.85.23-20.32-3.56-21.25-16.34-.93-13,7.9-17.22,19-19.31,27.85-5.24,38.88-15.77,42.75-42.64,1.74-12,6.89-20,19-19C229.65,307.65,232.58,318.2,231.42,329.35Z"/></g></g></svg>