<svg xmlns="http://www.w3.org/2000/svg" viewBox="0 0 23.35 34.74"><defs><style>.cls-1{fill:#fff;}</style></defs><title>planogram</title><g id="Layer_2" data-name="Layer 2"><g id="layer"><path class="cls-1" d="M6.65,13.36A1.79,1.79,0,0,1,5.28,12a1.67,1.67,0,0,1,1.86-2c.29.05.4,0,.56-.27a5.39,5.39,0,0,0,1-3.88,14,14,0,0,1,0-1.94c0-.46.19-.66.64-.66h4.07c.46,0,.64.19.64.65,0,1.21,0,2.41,0,3.61a1.42,1.42,0,0,0,.23.69c.27.44.59.84.95,1.33-.51,0-.93,0-1.36,0-.07,0-.17-.1-.21-.17-.22-.36-.44-.72-.62-1.09A1.89,1.89,0,0,1,13,7.64c0-.36,0-.73,0-1.12H9.82c0,.43,0,.87,0,1.31a2,2,0,0,1-.21.75c-.34.66-.74,1.29-1.09,1.95a.67.67,0,0,0,0,.48,1.71,1.71,0,0,1-.54,2,.68.68,0,0,0-.23.42q0,7.22,0,14.42a2.06,2.06,0,0,0,0,.21,1.87,1.87,0,0,1,1.25,1,.39.39,0,0,0,.29.12c1.45,0,2.91,0,4.37,0,.12,0,.25-.12.35-.21a10.06,10.06,0,0,1,.92-.81c.16-.11.23-.18.23-.36,0-.7,0-1.39,0-2.12h1.11c0,.71,0,1.41,0,2.1a.65.65,0,0,0,.29.63,1.65,1.65,0,0,1-.8,3A1.59,1.59,0,0,1,14,30.58a.47.47,0,0,0-.47-.28c-1.42,0-2.84,0-4.26,0a.41.41,0,0,0-.44.25,1.6,1.6,0,0,1-1.65.84,1.65,1.65,0,0,1-1.43-1.19,1.69,1.69,0,0,1,.59-1.81A.72.72,0,0,0,6.59,28q0-7.21.07-14.42C6.66,13.5,6.65,13.44,6.65,13.36Zm3.21-9v1H13v-1Z"/><path class="cls-1" d="M14.27,17.58V12.89c0-1,.06-1,1-1s1.75,0,2.62,0c.52,0,.68.16.68.69s0,1.24,0,1.86c0,.25.08.33.33.32h2.21c.7,0,.79.1.79.78v6.83h.73c.47,0,.72.17.71.5s-.24.47-.69.47H14.48c-.42,0-.84,0-1.26,0a.42.42,0,0,0-.48.35,1.65,1.65,0,0,1-1.59,1.07,1.67,1.67,0,0,1-1.53-1.17,1.62,1.62,0,0,1,1-2,.44.44,0,0,0,.34-.52c0-.91,0-1.83,0-2.74,0-.53.17-.7.7-.7Zm1,4.78c.63,0,1.25,0,1.87,0,.35,0,.45-.09.44-.45,0-2.87,0-5.75,0-8.62l0-.39H15.3Zm5.58,0V15.72c-.66,0-1.3,0-1.93,0-.32,0-.38.12-.37.4,0,1.17,0,2.33,0,3.5,0,.81,0,1.62,0,2.43,0,.11.14.3.21.3C19.48,22.37,20.17,22.36,20.88,22.36Zm-6.63,0V18.62H11.94c0,.76,0,1.49,0,2.22,0,.43,0,.86.44,1.09.09.05.14.18.22.26s.15.16.23.16Z"/><path class="cls-1" d="M1.13,1.1v2a2,2,0,0,1,0,.42A.52.52,0,0,1,.57,4,.51.51,0,0,1,0,3.48c0-.33,0-.66,0-1C0,1.88,0,1.27,0,.67S.21,0,.69,0H3.35C3.76,0,4,.23,4,.57s-.27.52-.67.53Z"/><path class="cls-1" d="M1.13,33.64h2a2.38,2.38,0,0,1,.38,0,.53.53,0,0,1,.49.54.49.49,0,0,1-.49.53c-1,0-2,0-3,0-.32,0-.46-.26-.47-.55q0-1.43,0-2.85a.54.54,0,0,1,.58-.57.55.55,0,0,1,.53.62C1.14,32.1,1.13,32.84,1.13,33.64Z"/><path class="cls-1" d="M21.81,33.64c0-.81,0-1.56,0-2.32a.53.53,0,0,1,.53-.57.56.56,0,0,1,.56.58v0c0,.92,0,1.85,0,2.77,0,.41-.2.6-.62.6H19.59c-.45,0-.68-.2-.68-.55s.25-.55.71-.55Z"/><path class="cls-1" d="M21.79,1.1h-2a1.85,1.85,0,0,1-.41,0A.51.51,0,0,1,18.92.5.48.48,0,0,1,19.4,0h3a.5.5,0,0,1,.5.53c0,1,0,2,0,2.92a.5.5,0,0,1-.53.53.52.52,0,0,1-.55-.55c0-.64,0-1.29,0-1.93C21.8,1.38,21.79,1.26,21.79,1.1Z"/></g></g></svg>