<svg xmlns="http://www.w3.org/2000/svg" viewBox="0 0 445.02 630.43"><defs><style>.cls-1{fill:#fff;}</style></defs><g id="Layer_2" data-name="Layer 2"><g id="Layer_1-2" data-name="Layer 1"><path class="cls-1" d="M445,405.67c-.09,42.33-10,78-28.62,111.35a218.25,218.25,0,0,1-60.44,69,223.39,223.39,0,0,1-199.49,34.49A211.66,211.66,0,0,1,69.78,569.6C15.63,517-6.88,453,1.81,378c3.87-33.34,14.56-64.8,27.23-95.65a576.26,576.26,0,0,1,29.39-60.65,939.35,939.35,0,0,1,49.35-80q27.75-40,58.24-78c17.25-21.38,35.41-41.91,53.89-62.2,2.51-2.75,3.62-1.4,5.38.5,24.14,26.2,47.26,53.23,69.1,81.41,16.11,20.78,31.81,41.86,46.44,63.67,29.22,43.57,55.8,88.69,75.95,137.3,8.73,21.07,16.17,42.64,21.25,64.89C442.55,369.15,445.42,389.26,445,405.67ZM313.41,456.41l.84.63a7.34,7.34,0,0,0,3.72,2.49l1.32,1,1,.9,15.14,15.72.15.16a12.25,12.25,0,0,0,5.58,6.31l-.06-.05a8,8,0,0,0,7.68,4.45c9.09-.41,17.51-3,24.89-8.49a.46.46,0,0,0,.63-.33c7.44-3.42,13.25-8.07,15.69-16.56,4.08-14.17,7.82-28.35,7.86-43.23a6,6,0,0,0,.17-4.1c1.47-6.65.61-13.27-.23-19.89a3,3,0,0,0-.28-3,130.82,130.82,0,0,0-6.39-36.91,3.58,3.58,0,0,0-.73-3,97.3,97.3,0,0,0-7.86-25.68c-.1-.52-.2-1.05-.29-1.57l.27-.21h-.33a.31.31,0,0,0-.17-.5c-4.68-15.38-11.19-30-18-44.53-3.21-6.85-5.88-14-10.52-20.14l.06-.25-.21-.16a77.91,77.91,0,0,0-10.82-19.61,2.15,2.15,0,0,0-1.2-2.4,22.58,22.58,0,0,0-5-9,3.22,3.22,0,0,0-1.76-3.08c-4.57-10-10.81-19-17.17-28l0,0a41.33,41.33,0,0,0-7.06-11h0a3.7,3.7,0,0,0-2-3.07l0,0a3.86,3.86,0,0,0-2-3l0,0a13.45,13.45,0,0,0-4.05-6l0,0a3.56,3.56,0,0,0-2-3l0,0a3.32,3.32,0,0,0-2.11-2.85l0-.08a5.55,5.55,0,0,0-2.83-4.13l0,0a4.29,4.29,0,0,0-2-3l0,0a35.26,35.26,0,0,0-7.09-9.93v0l-.89-1.3a11.9,11.9,0,0,0-4.06-5.71,6.16,6.16,0,0,0-3-4.05l0,0a9,9,0,0,0-3.92-5.14l.06,0a3.89,3.89,0,0,0-2.13-3l0,0a6.4,6.4,0,0,0-3-4.1l.05,0a3.69,3.69,0,0,0-2.21-2.82l0,0-.9-1.13.07,0c-3.5-6.32-8.26-11.67-13.07-17v0l-1-1.31c-.79-2.37-2.7-3.89-4.32-5.64C244,95,240.22,89.15,234.83,84.66L234,83.32c-.83-1.88-1.61-3.79-3.58-4.83h0l-1-1.1-.78-1c-6.33-8.74-6.33-8.74-11.32-.93l-6,6.9-.91,1.14A2,2,0,0,0,209,85.37c-1.18.8-2.32,1.63-2.62,3.16-1.65.81-2.4,2.33-3.09,3.91l-.94,1.07a1.74,1.74,0,0,0-1.18,1.62,36.64,36.64,0,0,0-8.15,10.25l-.78.93a4.83,4.83,0,0,0-2.28,3,2.54,2.54,0,0,0-1.66,2.07,36.32,36.32,0,0,0-7.81,10.08c-1.74,1.76-3.58,3.44-4.48,5.85a7.31,7.31,0,0,0-3,4,1.22,1.22,0,0,0-.92,1.5,2.87,2.87,0,0,0-2,2.48l.05-.05a44.39,44.39,0,0,0-8.05,11l.06,0a100.67,100.67,0,0,0-14.06,20l.09,0c-.31.39-.62.78-.92,1.18A2.22,2.22,0,0,0,146,169.3c-5.68,6.74-10.26,14.24-15,21.63-7.19,11.32-14.89,22.34-20.79,34.43l.05,0c-1.83,1.21-2.45,3.14-3,5.1a1.57,1.57,0,0,0-1,1.67,102.54,102.54,0,0,0-11,20.28l.06,0-.75,1.16a1.82,1.82,0,0,0-1.08,2,1.83,1.83,0,0,0-1.07,2,2.07,2.07,0,0,0-1,2,30.15,30.15,0,0,0-5.07,10l0,0a11.47,11.47,0,0,0-3,6.07,1.8,1.8,0,0,0-1,2,93.84,93.84,0,0,0-9.06,20l0,0-.51,1-.66,2a15.44,15.44,0,0,0-3,7,2,2,0,0,0-.82,2,66.29,66.29,0,0,0-6,16,.37.37,0,0,0-.17.59,2.33,2.33,0,0,0-.85,2.4,2.06,2.06,0,0,0-.4,2.24c-3.85,6.78-5.2,14.33-6.78,21.81a.64.64,0,0,0-.28.85,28.88,28.88,0,0,0-2.4,10.1c-.48,1.65-1.26,3.24-1,5a5,5,0,0,0-.69,4l-.45,3c-1.4,1.83-1.12,3.92-.93,6l-.35,2.88a46.38,46.38,0,0,0-1.4,14.13,49.83,49.83,0,0,0-.1,14c-.35,3.07-.61,6.13.56,9.1l.37,6.91a1.89,1.89,0,0,0,.52,2.14,5.83,5.83,0,0,0,.49,3.85c-.18,1.43-.4,2.87.75,4l.41,3a5,5,0,0,0,1.42,4.65,6.81,6.81,0,0,0,1,5.46c.22,2-.12,4.13,1.73,5.61l.38,2.27a9,9,0,0,0,2.09,6c.12,2.11.7,4,2.67,5.12a2.61,2.61,0,0,0,2.24,2.17A22,22,0,0,0,71,479.57a13.65,13.65,0,0,0,7.38,4,2,2,0,0,0,2,.9c12,6,19.42,4.73,27.49-5.38,9.45-11.83,20-22.17,34.51-27.68a7,7,0,0,0,4-1,81.29,81.29,0,0,1,26,0c2.45.78,4.75,2.07,7.4,2.17l7.53,4a1.71,1.71,0,0,0,1.74,1,5.14,5.14,0,0,0,3.18,2.28,27.19,27.19,0,0,0,6.4,5.51,6.23,6.23,0,0,0,3.48,3.39l0-.05a8.06,8.06,0,0,0,3.25,3.9c1.48,2.14,2.83,4.38,5.1,5.83a21.38,21.38,0,0,0,6.14,7.09c5,4,8.79,3.44,13.11-1.82l0,.05c2.42-1,3.47-3.26,4.81-5.26l0,0a6.57,6.57,0,0,0,3.24-4,2.87,2.87,0,0,0,1.78-2,137.58,137.58,0,0,1,20.67-17.81,3.87,3.87,0,0,0,3.26-1.34l1.61-.84,1.39-.31a1.7,1.7,0,0,0,2-.8l2-.54a12.23,12.23,0,0,0,6.09-1.3l1.93-.29c9.91-.41,19.64.48,29,4.06a3.53,3.53,0,0,0,3.29,1.31,2.93,2.93,0,0,0,2.71,1.65ZM223.08,583.77a145.18,145.18,0,0,0,31.77-2.91,174.39,174.39,0,0,0,85.89-43c.94-.86,2.56-1.65,2.16-3.09s-2.23-1.13-3.46-1.33a53.8,53.8,0,0,1-28.55-14.32c-5.74-5.36-10.73-11.37-15.82-17.31-7-8.2-11.52-8.28-18.78-.5-6.45,6.92-12,14.6-19.43,20.7-18.7,15.46-46.92,16.32-66.31,1.93-9.22-6.83-15.87-16.06-23.63-24.27-5.14-5.44-10.25-5.54-15.41-.05-3.76,4-7.27,8.23-10.91,12.34-8.66,9.8-18.74,17.38-31.67,20.72-2.27.58-6-.41-6.5,2.36s2.9,4.18,4.84,5.83C140.67,569.24,179.24,583.66,223.08,583.77Z"/><path class="cls-1" d="M173.12,369.43c7.21,0,14-.29,20.84.1,4.56.25,5.54-1.43,5.53-5.7q-.19-72.43-.08-144.87c0-6.64,0-6.66,6.84-6.67,11.33,0,22.65.16,34-.09,4.07-.09,5.43,1,5.42,5.26-.15,38.8-.09,77.6-.09,116.4,0,10.16.22,20.32-.09,30.47-.13,4.37,1.52,5.36,5.49,5.21,6.8-.27,13.62-.08,20.9-.08-1,3.82-3.79,5.89-5.79,8.33C252.75,394,239.2,410,225.91,426.19c-2.76,3.37-4.21,3.38-7-.06-14.1-17.27-28.47-34.32-42.74-51.45C175,373.31,173.5,372.16,173.12,369.43Z"/></g></g></svg>