<svg xmlns="http://www.w3.org/2000/svg" viewBox="0 0 23.35 20.55"><defs><style>.cls-1{fill:#fff;}</style></defs><title>rack-refill</title><g id="Layer_2" data-name="Layer 2"><g id="layer"><path class="cls-1" d="M1,20.55H0V5.94H1v.89h16.2V5.89h1V20.55h-1v-.91H1Zm0-7.82H17.14V7.84H1Zm0,1v4.87H17.14V13.74Z"/><path class="cls-1" d="M6.06,3V6.16H2.27V3Z"/><path class="cls-1" d="M7.06,6.16V3.85H9.82V6.16Z"/><path class="cls-1" d="M6.06,12.09H2.28V8.88H6.06Z"/><path class="cls-1" d="M7.08,8.87h3.79v3.21H7.08Z"/><path class="cls-1" d="M14.65,12.09H11.88V9.75h2.77Z"/><path class="cls-1" d="M6.06,18H2.27V14.78H6.06Z"/><path class="cls-1" d="M10.88,14.78V18H7.07v-3.2Z"/><path class="cls-1" d="M11.88,14.77h3.79V18H11.88Z"/><path class="cls-1" d="M22.8,7.54a5.15,5.15,0,0,1-2.21,2.27.81.81,0,0,1-1.11-.29.84.84,0,0,1,.25-1.12,5.92,5.92,0,0,0,.92-.71,3.41,3.41,0,0,0,.71-3.89,3.35,3.35,0,0,0-3.13-2.14,3.39,3.39,0,0,0-3.3,2,1.23,1.23,0,0,0-.06.17l1.07-.32c.38-.1.54,0,.66.36,0,.08,0,.17.08.25.14.48.06.63-.42.77l-2.9.86c-.46.13-.61,0-.75-.41-.29-1-.58-2-.86-2.94-.13-.43-.05-.57.37-.7.79-.24.82-.23,1.05.55l.2.7c.1-.14.17-.21.22-.3A5,5,0,0,1,18.46,0,5,5,0,0,1,23,3.27a5.11,5.11,0,0,1-.15,4.27"/></g></g></svg>