<svg xmlns="http://www.w3.org/2000/svg" viewBox="0 0 943.61 1069.36"><defs><style>.cls-1{fill:#fff;}</style></defs><g id="Layer_2" data-name="Layer 2"><g id="Layer_1-2" data-name="Layer 1"><path class="cls-1" d="M501.66,76.63c52.47,0,103.12,0,153.77,0,30.37,0,45.08,14.87,45.11,45.44,0,36.68,0,73.36,0,110.83H623.37V154.62h-121V915.31H622.66V830.93c26.63,7.86,51.83,8,77.89-.07v50.43c0,23.9.28,47.81-.11,71.7-.38,24.1-16.72,39.91-40.86,40-52.07.1-104.14,0-157.88,0,0,10.92,0,21.45,0,32,0,32.84-20.14,49.8-51.86,42.87q-207.24-45.28-414.39-91C10,971.19,0,958.34,0,932.4Q0,534.81,0,137.24c0-25.94,10.09-38.8,35.46-44.39Q244.74,46.76,454.07,1c25-5.46,46.75,11.77,47.53,37.31C502,50.71,501.66,63.11,501.66,76.63ZM429.39,534.72c.42-36.39-22.64-66.85-56.63-74.77-32.64-7.62-65.06,8.92-79.88,40.75-24,51.61,12.16,112.24,66.32,111.12C398.25,611,428.91,577.35,429.39,534.72Z"/><path class="cls-1" d="M564,375V304.89c21-3.11,42.19-7.68,63.6-9.18C740,287.8,840.45,318.83,927.7,390.5a47.81,47.81,0,0,1,14.77,22.41c4.12,14.33-3.27,28.38-15.54,35.58-12.5,7.33-26.21,5.64-39.09-3.06-25-16.92-49.16-35.87-76.05-49.18-76.07-37.66-156.1-44.26-238.38-23.46C570.7,373.48,568,374.06,564,375Z"/><path class="cls-1" d="M563.67,514c0-23.68-.22-45.78.29-67.86.06-2.71,3.5-6.89,6.21-7.76q146.15-46.67,268.4,46.26c15.12,11.51,17.21,32.25,6.23,46.84-11.42,15.18-31.5,18.57-47.51,6.66-31.19-23.2-65.33-38.93-104-44.37-42.37-6-83.1-.49-122.12,17.24C569.28,511.9,567.32,512.59,563.67,514Z"/><path class="cls-1" d="M666.44,546.52a160.07,160.07,0,0,1,79,23.25c17.28,10.47,22.89,29.5,13.78,46-9.33,16.83-29.23,22.83-47,13.07-33.7-18.5-67-19-100.66-.09-11,6.17-22.38,6.77-33.65.59-9.33-5.12-13.48-12.31-14.79-23.75-2.56-22.47,7.77-34.11,26.77-42.61C614.41,552,639.65,546,666.44,546.52Z"/><path class="cls-1" d="M662,775.06a54,54,0,1,1-1.07-108c30.42-.29,54.72,23.34,54.94,53.45A53.78,53.78,0,0,1,662,775.06Z"/></g></g></svg>