<svg xmlns="http://www.w3.org/2000/svg" viewBox="0 0 377.5 511.05"><defs><style>.cls-1{fill:#fefefe;}</style></defs><g id="Layer_2" data-name="Layer 2"><g id="Layer_1-2" data-name="Layer 1"><path class="cls-1" d="M341.7,43.4a1.56,1.56,0,0,1,1.74,1.21,23,23,0,0,1,1.1,5.35c0,4.73,1.93,9.06,2.45,13.68s1.9,9.25,2.53,13.92c.88,6.41,2.33,12.71,3.39,19.09,1.44,8.58,2.92,17.17,4.69,25.69,1.4,6.74,2.08,13.6,3.75,20.3,1,4.17,1.35,8.52,2.23,12.73,1.44,6.81,2.35,13.71,3.79,20.52,1.7,8.1,2.84,16.32,4.29,24.48,1.14,6.37,2.47,12.7,3.58,19.07.64,3.67,1.23,7.34,2.16,11,.57,2.2-1.39,2.71-2.89,2.93-2.22.31-4.4.87-6.61,1.11-6.95.77-13.64,2.88-20.54,3.71-6.44.78-12.73,2.27-19.07,3.49s-12.76,2-19.09,3.37c-5,1.07-10,2-15.15,2.61-4,.47-8,1.54-11.95,2.27-5.05.92-10.1,1.89-15.19,2.56-1.5.2-3.22,1.63-4.48.45-1.06-1-1.38-2.77-2-4.22A20.69,20.69,0,0,0,250.35,238c-8.3-4.19-16.68-8.22-25-12.27-5.75-2.79-11.55-5.48-17.32-8.24-9-4.3-17.85-8.88-27-12.84-4.28-1.85-5.62-4.9-6.13-9-.87-6.83-2.69-13.51-3.56-20.32s-2.95-13.44-3.58-20.32c-.38-4.11-1.54-8.14-2.31-12.22-.87-4.64-1.71-9.29-2.57-13.94s-1.74-9.28-2.56-13.93-1.41-9.19-2.39-13.73c-1.47-6.82-2.13-13.78-3.84-20.55-.65-2.58.2-3.52,2.86-4,6.45-1.15,12.87-2.45,19.31-3.61,4.57-.83,9.19-1.4,13.74-2.31,8-1.59,16-2.75,23.95-4.25,5.93-1.12,11.84-2.58,17.79-3.41,6.42-.9,12.67-2.53,19.08-3.44s12.69-2.45,19.07-3.47c5-.81,9.91-2,15-2.51,3.95-.4,7.76-1.7,11.7-2.33,6.79-1.08,13.55-2.36,20.31-3.6,4.55-.83,9.09-1.77,13.65-2.58C334.15,44.53,337.84,44,341.7,43.4Z"/><path class="cls-1" d="M61.87,509.31c-11.68.58-22.63-9.2-25.4-20.65-2.48-10.24-.2-19.78,7.48-27.58,8.81-8.95,17.63-17.89,26.32-26.95C84.14,419.67,98.11,405.3,112,390.88c6.17-6.41,12.67-12.5,18.45-19.28.86-1,1.47-1.9,1.14-3.33-1.45-6.41-1.62-13-2.74-19.45-1.14-6.62-1.64-13.31-2.65-19.94a100,100,0,0,1-1.35-11.11,77.46,77.46,0,0,0-2-13c-.31-1.5-1.25-1.67-2.6-1.55a37,37,0,0,1-10.66-.33c-5.36-1.05-8.35-4.77-10.56-9.09-2.62-5.14-3.23-10.92-4.19-16.58-1.36-8-1.25-16.16-2.66-24.2a304,304,0,0,0-8-33.32c-2.85-9.73-6.15-19.29-9.69-28.78-3.6-9.65-7.22-19.29-11-28.85-3-7.55-5.29-15.25-5.46-23.4-.21-10.4,2.46-20,9.67-27.76a27.58,27.58,0,0,1,16.44-8.2c2.55-.39,5.17-1.18,7.65-.89,7.13.85,14.16,1.91,20.83,5.21,12.07,6,20.64,15.34,26.8,26.89,3.11,5.83,6.19,11.73,8.94,17.79,3.47,7.65,6.89,15.31,9.82,23.17,1.93,5.21,3.47,10.56,5.18,15.85.23.7.77,1.63.07,2.08-.86.55-1.24-.56-1.63-1.09-4.27-5.73-8.49-11.5-12.74-17.24-4.7-6.35-9.45-12.65-14.13-19-4.19-5.68-8.17-11.53-12.53-17.07s-9.94-9.55-17.65-9.8c-6.8-.22-12.66,1.65-17.58,6.24-6.22,5.8-9.86,17.65-4.82,26.53,4.61,8.14,10.71,15.2,16.18,22.71,6.65,9.13,13.45,18.16,20.16,27.25q6.06,8.23,12,16.52c4.51,6.28,11,9.64,17.85,12.67,6.53,2.88,12.85,6.21,19.27,9.35.3.14.56.41.87.46,4.48.76,4.86,4.35,5,7.74.36,7.15,2.07,14.11,2.72,21.21.6,6.68,2.1,13.27,2.3,20,.07,2.36.92,4.52,1.13,6.86.53,6.1,1.48,12.17,2.27,18.25.87,6.75,1.61,13.52,2.69,20.24.65,4,.8,8.06,1.61,12.06a56.12,56.12,0,0,1,1.18,9.36c.12,4.51,1.32,8.86,1.47,13.33a25.93,25.93,0,0,1-6.26,18.17c-5.53,6.55-11.65,12.55-17.57,18.73q-12.33,12.89-24.6,25.82c-.86.9-1.71,1.81-2.58,2.71-8.68,8.85-17.46,17.59-26,26.57Q98,486.27,83.54,501C78,506.67,71.31,509.31,61.87,509.31Z"/><path class="cls-1" d="M287.72,482.51c-.37,13.67-9.49,25.05-22,27.79-11.24,2.46-20.06-1.27-27.51-9.64-3.71-4.17-5.15-9.15-6.51-14.32-1.86-7-2.91-14.27-4.61-21.37-1.63-6.83-3-13.76-4.4-20.66-1.81-8.67-3.78-17.32-5.62-26-1.5-7.05-2.91-14.12-4.38-21.17-1.07-5.11-2.2-10.21-3.28-15.32-.77-3.63-3.51-5.75-6.14-7.89s-5.13-4.23-7.66-6.38c-2.82-2.38-3.45-5.53-3.83-8.87-.52-4.6-1.15-9.2-1.7-13.79-.44-3.61-1.49-7.18-1.29-10.85.18-3.12-.85-6.07-1.2-9.12-1-9-2.6-17.88-3.64-26.85-.54-4.61-1.24-9.2-1.7-13.82-.06-.57-.29-1.22.45-1.5a1.59,1.59,0,0,1,1.57.54L196,293.42c7.21,6.27,14.44,12.51,21.63,18.8q12.93,11.29,25.82,22.68c2.3,2,4.82,3.8,7.07,5.92,3.47,3.26,6.81,6.59,8.88,10.94,2.37,5,3.16,10.45,4.32,15.79,1.19,5.5,2.65,11,3.51,16.52,1.16,7.55,3.36,14.86,4.7,22.37,1.13,6.34,2.65,12.67,4.11,19,1,4.52,2.08,9,2.76,13.64.5,3.43,1.7,6.75,2.35,10.17,1.39,7.41,3.48,14.67,4.63,22.14C286.38,475.28,288.1,479,287.72,482.51Z"/><path class="cls-1" d="M50,100.72C23.52,101.72-1.49,77.5.07,48.17,1.44,22.36,22.1-.47,52,0c25,.39,49.95,21,49,52.78C100.27,77.41,79,101.86,50,100.72Z"/><path class="cls-1" d="M102.4,133.59c6.23.46,11.23,2.13,14.94,7.07,8.88,11.82,17.63,23.74,26.42,35.62,4.3,5.81,9.12,11.31,12.83,17.44,4.84,8,12.67,11.05,20.33,14.75,7.11,3.44,14.3,6.68,21.32,10.3,6.64,3.43,13.52,6.37,20.26,9.6s13.45,6.55,20.19,9.8c1.79.86,3.6,1.71,5.47,2.4a21,21,0,0,1,10.24,8A16.33,16.33,0,0,1,256.56,263c-2.75,9.69-9.29,12.25-17.25,13.33-2.87.39-5.73-1-8.36-2.2-8.94-4.2-17.83-8.53-26.74-12.8Q185.1,252.23,166,243.09q-11.79-5.66-23.55-11.4a14.49,14.49,0,0,1-5.36-4.37q-15.15-20.41-30.27-40.85c-6.13-8.28-12.46-16.42-18.31-24.89-3.91-5.65-4.15-12-1.1-18.22S96,134.17,102.4,133.59Z"/></g></g></svg>