<svg xmlns="http://www.w3.org/2000/svg" viewBox="0 0 23.35 26.41"><defs><style>.cls-1{fill:#fff;}</style></defs><title>restricted-area</title><g id="Layer_2" data-name="Layer 2"><g id="layer"><path class="cls-1" d="M10,0a1.88,1.88,0,0,1,1.13,1.94c0,2.83,0,5.66,0,8.49v.67l.66.07v-.7c0-2.56,0-5.13,0-7.69a1.49,1.49,0,0,1,2.09-1.51,1.33,1.33,0,0,1,.88,1.22c0,2.73,0,5.47,0,8.2,0,0,0,.07,0,.08-3.78.93-6.27,3.17-6.88,7.06-.57,3.61,1,6.41,4,8.56-.67,0-1.34.05-2,0A9.34,9.34,0,0,1,1.4,19.16c-.38-2-.85-3.94-1.29-5.9A1,1,0,0,0,0,13v-.8a.6.6,0,0,0,.09-.13,1.47,1.47,0,0,1,1.48-1A1.49,1.49,0,0,1,3,12.2c.31.81.64,1.61,1,2.42.12.3.25.59.37.89a19.44,19.44,0,0,0,.12-2.62c0-3.09,0-6.18,0-9.27A1.93,1.93,0,0,1,5,2.46a1.29,1.29,0,0,1,1.53-.19,1.37,1.37,0,0,1,.86,1.34q0,3.9,0,7.8c0,.2,0,.39,0,.59.55-.06.65-.34.65-.78,0-3.09,0-6.19,0-9.28A1.85,1.85,0,0,1,9.17,0Z"/><path class="cls-1" d="M8.76,19.08A7.3,7.3,0,1,1,16,26.37,7.31,7.31,0,0,1,8.76,19.08Zm1.08,0a6.23,6.23,0,1,0,6.31-6.24A6.22,6.22,0,0,0,9.84,19.08Z"/><path class="cls-1" d="M18.29,10.91l-3-.27c0-.79-.05-1.66,0-2.51a1.48,1.48,0,0,1,2.95,0C18.33,9.09,18.29,10,18.29,10.91Z"/><path class="cls-1" d="M13.38,18.25c0-.51,0-1,0-1.49a2.72,2.72,0,0,1,1.86-2.57,2.55,2.55,0,0,1,2.94,1,5,5,0,0,1,.54,1.68,3.43,3.43,0,0,1,0,1c0,.31.06.48.42.5a.84.84,0,0,1,.82.92c0,.94,0,1.88,0,2.82,0,.64-.37.94-1,1H13.18a.94.94,0,0,1-1-1.06c0-.77,0-1.54,0-2.31C12.14,18.64,12.33,18.41,13.38,18.25Zm4.62,0a16.4,16.4,0,0,0-.1-1.9A1.86,1.86,0,0,0,16,14.84a1.92,1.92,0,0,0-1.82,1.7c0,.55,0,1.12,0,1.72Zm-1.27,1.82a.69.69,0,0,0-.69-.7.79.79,0,0,0-.63,1,11.71,11.71,0,0,0,.28,1.17.69.69,0,0,0,.38.35c.07,0,.3-.12.33-.23C16.53,21.19,16.61,20.68,16.73,20.08Z"/></g></g></svg>