<svg xmlns="http://www.w3.org/2000/svg" viewBox="0 0 888.06 910.77"><defs><style>.cls-1{fill:#fff;}</style></defs><g id="Layer_2" data-name="Layer 2"><g id="Layer_1-2" data-name="Layer 1"><path class="cls-1" d="M301.92,525.68c-1.55-30.09-11.1-56.58-29.36-79-8.53,4.21-16.38,9-24.84,12.07-16,5.83-32.33,4.29-48.47-.34-27.5-7.91-48.27-25.41-66.17-46.77-7.67-9.15-14.52-19-22.17-29.06V459C76.13,424.26,44.63,387.18,0,366.15H100.87c-17.38-28-15.7-53.43,10.36-74.47,16.56-13.37,42.47-20.23,67.05-3.34,4.67-9.88,8.61-20.3,14.22-29.72,15.13-25.38,36.53-42.92,66.17-48.68,24-4.65,45.9,1.68,66.07,14.41,39.22,24.76,74.18,54.56,103.78,90.4,38.85,47,64.87,100.17,75.49,160.47,4.66,26.46,7.8,53.34,3.74,79.9-2.92,19.13,2.27,36.18,7.22,53.51,21.53,75.26,60.58,140.56,113.62,197.81,6.53,7,13.52,14,18.35,22.21,14.23,24.07,5,55.48-20.42,72.6-21.39,14.41-47.16,12.48-65.08-6C499.66,831.7,450.92,759.64,420.5,675.87c-3-8.26-5.68-16.63-8.28-25-.8-2.57-2-3.36-4.64-3.21-16.84,1-32.89-2.31-48.85-7.72-7.36-2.49-15.69-2.38-23.61-2.88-25.1-1.57-50.18-1.65-75.2,1.62-3.5.45-4.39,1.64-4.33,4.94a127.15,127.15,0,0,0,19.53,66.15c13.64,21.62,28.9,42.21,43.61,63.14,5.55,7.9,11.68,15.43,13.77,25.17,3.88,18.05-2.21,32.6-15.62,44.7-21,19-54.23,21.49-75.85,4.59-7.18-5.61-13-13.3-18.47-20.72-18.13-24.44-35.59-49.33-50-76.22-14.21-26.45-24.37-54.26-27.64-84.19-3.09-28.3-.36-56.16,9.8-82.91,9.37-24.67,27.94-39.52,52.87-46.63,27.85-7.94,56.4-10.79,85.27-11C295.78,525.66,298.73,525.68,301.92,525.68Z"/><path class="cls-1" d="M341.06,208.76c23-6.3,45.21-13.13,67.76-18.37,36.66-8.51,73.38-17,110.41-23.65,48.52-8.67,97.56-13.3,146.95-11.3C702.7,156.93,738.69,162,773,175.26c61.54,23.86,99.26,67.75,110.83,133.13,8.25,46.58,4,92.73-9.86,137.46-19.48,62.71-51,119-97.38,166.16-21.8,22.21-47.09,39.42-76.84,49.55C643,680.89,582,663,548.78,613.76c-20.87-31-25.51-64.85-14.44-100.51,5.24-16.91,5.59-34,4.26-51.3-4.38-56.66-30.46-103.6-66.61-145.7s-79-75.92-126.54-104.17c-1-.59-2-1.17-3-1.8A14.63,14.63,0,0,1,341.06,208.76Zm348.81,78.41v15.38c0,11.15-.07,11-10,15.35-15.89,7-26,18.94-28.74,36.21-3,18.44,3.45,33.55,18.65,44.28,7,4.93,15,8.4,22.55,12.58,8.36,4.65,17.54,8.32,24.82,14.3,9.62,7.89,7,22.13-4.11,27.8a29.57,29.57,0,0,1-10.93,3.06,57.58,57.58,0,0,1-35.23-8.65l-9.17-5.7c-3.49,9.71-6.92,19-10.1,28.41a4,4,0,0,0,1.49,3.47c4.83,2.88,9.62,6.09,14.86,8,7.72,2.78,15.8,4.53,24.13,6.83v25.23H718V486.43c5.15-2.27,10-4.1,14.53-6.46,25.77-13.37,34.71-46.72,19.07-71.16-7.27-11.35-18.17-18.2-30.11-23.76-9.16-4.27-18.33-8.55-27.2-13.38-6.19-3.37-8.61-9.3-7.08-16.17,1.4-6.23,5.85-10,12.07-11.24,12.39-2.43,24.1-.17,35.16,5.75,3,1.61,6,3.29,9.27,5.12L755,325.23c-10.71-7.19-22.33-11.15-35.23-12.77V287.17Z"/><path class="cls-1" d="M89.19,125.25c-6.89,2.13-13.37,4.9-20.12,6-10,1.69-15-3.57-14.17-13.79.75-8.61,4.93-15.77,10.45-22.15,2.5-2.89,5-6.06,8.16-8,4.9-3,4.56-6.92,3.85-11.54-1.49-9.68-3.17-19.38-.23-29.13,5.78-19.13,20.77-30.75,41.62-33.39C149.22,9.43,179.67,5.34,210,.68c27.67-4.24,50.51,11.59,55,39.15,1.25,7.69,2.53,15.42,3.11,23.18.24,3.22-1.49,6.55-2.06,9.88a9.18,9.18,0,0,0,.27,4.78c14.95,36.21,10.4,69.77-14.83,99.68-34.08,40.4-97.13,42.66-134.67,5.46C100.57,166.69,92.69,150.28,89.19,125.25Z"/></g></g></svg>