<svg xmlns="http://www.w3.org/2000/svg" viewBox="0 0 50 50"><defs><style>.cls-1{fill:#fff;}</style></defs><title>sbp-counting</title><g id="Layer_2" data-name="Layer 2"><g id="layer"><path class="cls-1" d="M25,0A25,25,0,1,1,0,25,25,25,0,0,1,25,0ZM20.87,32.76h-.31A1.44,1.44,0,0,1,19,31.22V22.84a1.43,1.43,0,0,1,1.5-1.5h9.29a1.43,1.43,0,0,1,1.5,1.5v8.4a1.44,1.44,0,0,1-1.51,1.52h-.43a5.4,5.4,0,0,1,.11.73c0,3,0,6,0,9a1.44,1.44,0,0,1-.29.89s-.05.09-.08.14H39.54a.58.58,0,0,0,.33-.12,21.87,21.87,0,0,0,3-2.92A23.29,23.29,0,0,0,48.3,21.07a22.85,22.85,0,0,0-5.81-12A23.6,23.6,0,0,0,20.26,1.84,22.82,22.82,0,0,0,7.14,9.54,23,23,0,0,0,1.78,29.35a23,23,0,0,0,8.33,14,.69.69,0,0,0,.41.15h10.7a1.72,1.72,0,0,1-.43-1.36c0-2.68,0-5.36,0-8C20.8,33.67,20.84,33.22,20.87,32.76Zm-9.54,11.5a23.54,23.54,0,0,0,27.33,0Z"/><path class="cls-1" d="M12.16,32.16c-.22,0-.46,0-.69,0a1.32,1.32,0,0,1-1.14-1.31q0-4.07,0-8.13a1.3,1.3,0,0,1,1.26-1.32c2.27,0,4.54,0,6.82,0,0,0,0,.06,0,.07a1.76,1.76,0,0,0-.51,1.4c0,2.92,0,5.83,0,8.75,0,.72,1,1.83,1.68,1.77h.11c0,.09,0,.17,0,.25q0,4.3,0,8.63a.35.35,0,0,1-.3.39,2.42,2.42,0,0,1-.46.06H13.42a1.31,1.31,0,0,1-1.37-1.36c0-2.83,0-5.67,0-8.5A3.65,3.65,0,0,1,12.16,32.16Z"/><path class="cls-1" d="M30.65,33.35a2,2,0,0,0,1.79-1.42.92.92,0,0,0,.06-.33V22.53a1.65,1.65,0,0,0-.58-1.17l.2,0c2.06,0,4.11,0,6.17,0a1.34,1.34,0,0,1,1.38,1.38c0,2.67,0,5.35,0,8a1.35,1.35,0,0,1-1.36,1.4h-.49a6.79,6.79,0,0,1,.12,2.15c0,2.3,0,4.61,0,6.91a1.33,1.33,0,0,1-1.48,1.47H31.11c-.46,0-.46,0-.46-.46V33.35Z"/><path class="cls-1" d="M25,20.45a4,4,0,1,1,0-8,4,4,0,1,1,0,8Z"/><path class="cls-1" d="M20.4,16.62a3.52,3.52,0,1,1-3.51-3.51A3.52,3.52,0,0,1,20.4,16.62Z"/><path class="cls-1" d="M36.68,16.62a3.52,3.52,0,1,1-3.51-3.51A3.51,3.51,0,0,1,36.68,16.62Z"/><path class="cls-1" d="M26.49,8.53h1.19V9.68H23.81V8.54h1.32V5.75c-.33.16-.66.33-1,.47a3.29,3.29,0,0,1-.52.13V5.13a3.26,3.26,0,0,0,1.46-.84.23.23,0,0,1,.14-.08h1.27Z"/><path class="cls-1" d="M21.88,7.88H20.71V6.82h-1V5.77h1V4.69h1.17V5.75h1v1h-1Z"/></g></g></svg>