<svg xmlns="http://www.w3.org/2000/svg" viewBox="0 0 23.35 26.91"><defs><style>.cls-1{fill:#fff;}</style></defs><title>slip-and-fall</title><g id="Layer_2" data-name="Layer 2"><g id="layer"><path class="cls-1" d="M12.92,12.49H13a2.47,2.47,0,0,1,2.27,1c.54.67,1.05,1.35,1.52,2.06.74,1.13,1.44,2.28,2.15,3.43a1.07,1.07,0,1,1-1.82,1.12c-.54-.88-1.06-1.78-1.63-2.65s-1.11-1.58-1.67-2.37c-.05-.08-.13-.15-.19-.23a.55.55,0,0,0-.55-.22c-.55.07-1.1.15-1.65.2a6.49,6.49,0,0,1-1.08,0,2.54,2.54,0,0,1-1.51-.67A7.57,7.57,0,0,1,7.19,12,18.66,18.66,0,0,1,5.9,8.73l-.07-.19-.22.14a5.11,5.11,0,0,0-2.24,4.37c0,.13,0,.27,0,.41a.86.86,0,0,1-.79,1,.85.85,0,0,1-.91-.84A6.93,6.93,0,0,1,5.15,7a12.87,12.87,0,0,1,2-.94,8.26,8.26,0,0,0,3.51-2.58A6.57,6.57,0,0,0,12,.69.86.86,0,0,1,13,0a.83.83,0,0,1,.65,1,8.36,8.36,0,0,1-3.29,5.06,10.84,10.84,0,0,1-1.22.76c-.08,0-.11.09-.08.19a18.36,18.36,0,0,0,1.29,3.45,7.55,7.55,0,0,0,.52.78s0,0,.06.05l.19-.16c.75-.62,1.5-1.24,2.26-1.85a6.35,6.35,0,0,1,2.95-1.24c1.42-.22,2.85-.36,4.29-.44a1.07,1.07,0,0,1,.09,2.14c-1.07.09-2.14.18-3.21.29-.41,0-.82.13-1.23.2a3.18,3.18,0,0,0-1.37.6c-.68.51-1.35,1-2,1.55Z"/><path class="cls-1" d="M0,25.63H23.34V26c0,.26,0,.51,0,.77s-.05.16-.17.16H.23c-.23,0-.23,0-.23-.22Z"/><path class="cls-1" d="M18.56,24.8A23.92,23.92,0,0,1,12.92,24,31.66,31.66,0,0,1,7.1,21.87a.65.65,0,1,1,.58-1.15c.73.39,1.46.79,2.21,1.14a27.7,27.7,0,0,0,6.87,2.21,18.2,18.2,0,0,0,3.68.27h.18c.12,0,.22,0,.23.16s-.09.19-.21.2L19,24.8Z"/><path class="cls-1" d="M16.58,22.43a14.92,14.92,0,0,1-3.86-.81,25.12,25.12,0,0,1-6.07-3.13C6.1,18.11,5.56,17.7,5,17.3a.65.65,0,1,1,.83-1,27.51,27.51,0,0,0,4.72,3.46,17.66,17.66,0,0,0,4.57,1.92c.57.14,1.16.21,1.75.31L17,22c.14,0,.23.07.22.22s-.12.18-.26.18Z"/><path class="cls-1" d="M5.76,2.51A1.74,1.74,0,0,1,7.51,4.28,1.75,1.75,0,1,1,5.76,2.51Z"/></g></g></svg>