<svg xmlns="http://www.w3.org/2000/svg" viewBox="0 0 39.95 40"><defs><style>.cls-1{fill:#fff;}</style></defs><g id="Layer_2" data-name="Layer 2"><g id="Layer_1-2" data-name="Layer 1"><path class="cls-1" d="M40,7.07c-.08.43-.14.87-.25,1.29a6.55,6.55,0,0,1-5.55,4.76,6.43,6.43,0,0,1-6-2.57L28,10.41l0,0L12.82,18a6.54,6.54,0,0,1,0,4.08L27.93,29.6a18.57,18.57,0,0,1,1.35-1.32,6.56,6.56,0,0,1,10.55,3.93c.05.24.08.48.12.72v1l0,.16a6.55,6.55,0,0,1-4.8,5.7c-.41.11-.84.16-1.25.24h-1c-.43-.08-.87-.13-1.29-.25A6.58,6.58,0,0,1,26.82,34a7.11,7.11,0,0,1,.28-2.64L12,23.79a6.59,6.59,0,1,1,0-7.58L27.11,8.62a6.88,6.88,0,0,1-.32-2.15A6.61,6.61,0,0,1,31.93.16c.31-.07.63-.11,1-.16h1L34,0A6.59,6.59,0,0,1,39.7,4.81c.11.42.17.86.25,1.29Zm-2-.48a4.63,4.63,0,1,0-4.64,4.63A4.65,4.65,0,0,0,38,6.59ZM6.56,15.37A4.63,4.63,0,1,0,11.2,20,4.63,4.63,0,0,0,6.56,15.37ZM38,33.42a4.63,4.63,0,1,0-4.64,4.63A4.65,4.65,0,0,0,38,33.42Z"/></g></g></svg>