<svg xmlns="http://www.w3.org/2000/svg" viewBox="0 0 782.64 424.04"><defs><style>.cls-1{fill:#fff;}</style></defs><g id="Layer_2" data-name="Layer 2"><g id="Layer_1-2" data-name="Layer 1"><path class="cls-1" d="M17.33,306.4H318.54c8.17,42.2,29.59,71.33,77.3,69.94,34.37-1,54.05-21.78,67.69-69.87H764.35c0,36.37.32,71.82-.51,107.24-.08,3.36-6.86,7.63-11.35,9.49-3.88,1.61-8.93.41-13.47.41H43.1c-25.68,0-25.72,0-25.76-25.34C17.3,368,17.33,337.72,17.33,306.4Z"/><path class="cls-1" d="M330.75,223.27h120.4c0,31.18,1.68,61.55-.48,91.64-2.13,29.68-31.15,53.25-60.25,52.7-29.69-.55-57.44-24.24-59.27-53.89S330.75,254.31,330.75,223.27Z"/><path class="cls-1" d="M508.3,151.4c1,1.56,1.65,2,1.68,2.57,2.71,45.49,4.38,60.92-51,58.54-49.79-2.14-99.75-.25-149.63-.23-31.81,0-38.17-6.53-38.22-38.92v-22Z"/><path class="cls-1" d="M273.56,79.91c-.94-2.18-1.76-3.28-1.86-4.44-4.26-50.3,1.19-56.25,51.38-56.25q73.77,0,147.54,0c34.57,0,40.35,5.87,40.19,40.76,0,6.31-.53,12.61-.86,19.92Z"/><path class="cls-1" d="M474.52,138.91h-167V93.07h167Z"/><path class="cls-1" d="M64.85,27.63c-14.33,3.45-24.51,8.22-34.3,7.53-8.08-.57-17.74-6-22.71-12.39-2.76-3.54.81-17.9,4.76-19.52,7.56-3.11,18.8-3.34,26,.27C47.8,8.16,54.53,17.76,64.85,27.63Z"/><path class="cls-1" d="M717.23,27.53C728,17.35,734.86,8,744.12,3c6.69-3.57,18.25-4.18,24.41-.59,4.73,2.77,8.17,16.24,5.42,21.16-3.48,6.22-13.73,11.62-21.25,11.87C742.27,35.79,731.66,31,717.23,27.53Z"/><path class="cls-1" d="M66.43,223.23C55.56,233,49,241.88,40.18,245.84c-8,3.6-19.31,4.25-27.44,1.36-3.83-1.36-7.44-16.9-4.4-20.95,4.64-6.17,15-10.54,23.17-10.91C41.21,214.89,51.14,219.48,66.43,223.23Z"/><path class="cls-1" d="M717.14,222.89c14.14-3.48,24.67-8.4,34.88-7.83,7.91.44,17.51,6.2,22.31,12.62,2.77,3.7-.65,17.84-4.55,19.47-7.52,3.15-18.73,3.53-25.89,0C734.62,242.53,727.82,233,717.14,222.89Z"/><path class="cls-1" d="M240.78,75.72c-11.88,3.07-22.62,8.26-33.1,7.77-8.07-.37-17.84-6.31-22.89-12.84-2.69-3.47,1.19-17.75,5.38-19.57,7.44-3.21,18.94-3.53,25.89.22C225.23,56.24,231.65,66.28,240.78,75.72Z"/><path class="cls-1" d="M539.65,75.44C550,65.73,557.75,55.69,567.92,50c6.19-3.45,17.58-2.69,23.92.93,4.49,2.56,8.1,15.22,5.57,19.54-3.76,6.41-13.24,13-20.39,13.11C565.45,83.81,553.79,78.83,539.65,75.44Z"/><path class="cls-1" d="M58,125.14c-9.87,5.67-18.21,13-27.74,15.2-8.72,2-20.43,1-27.45-3.73C-1,134.07-.88,116.25,3,113.72c7.11-4.65,18.82-5.49,27.61-3.49C40,112.38,48.31,119.62,58,125.14Z"/><path class="cls-1" d="M723.72,125c11.66-6.39,20.71-13.9,30.9-16.12,8-1.73,19.38.75,25.42,5.88,3.75,3.18,3.35,18.68-.58,21.75-6.24,4.89-17.68,6.81-25.67,4.85C743.64,138.87,734.73,131.28,723.72,125Z"/><path class="cls-1" d="M241.76,175c-9.42,9.24-16.09,19-25.33,23.83-7.14,3.73-18.89,4.08-25.93.58-4.5-2.23-8.09-17.27-5.09-21.13,4.9-6.33,15.41-11,23.74-11.3C219,166.63,229.09,171.62,241.76,175Z"/><path class="cls-1" d="M539.56,175.33c12.63-3.5,22.1-8.49,31.27-8s19.61,4.71,25.85,10.95c2.93,2.93-.88,19.56-4.87,21-8.14,2.93-19.64,2.24-27.58-1.53C555.4,193.56,549,184.27,539.56,175.33Z"/><path class="cls-1" d="M152.3,51.68c-12.16,3.18-22.23,8.11-32.07,7.67C112,59,101.73,54.11,97,47.78c-3-4,.5-18.81,4.81-20.83,7.18-3.37,18.84-3.14,25.88.65C136.77,32.53,143.22,42.43,152.3,51.68Z"/><path class="cls-1" d="M631.58,52.21C640,43,646.53,32.53,655.93,26.68c6.06-3.78,17.61-3.35,24.26,0,4.49,2.27,8.61,15.72,6.06,19.24-4.84,6.72-14.36,13.24-22.32,13.74C653.53,60.34,642.75,55.07,631.58,52.21Z"/><path class="cls-1" d="M153.5,198.94c-10.07,9.68-16.84,19.33-26.11,24.06-7.15,3.64-18.41,3.44-26,.34-4.1-1.68-8-15.82-5.37-19.32,5-6.57,14.57-12.69,22.57-13.13C129,190.32,139.76,195.46,153.5,198.94Z"/><path class="cls-1" d="M629,198.94c12.38-3.22,22.39-8.28,32-7.6,8.78.63,19,5.77,24.8,12.31,2.71,3.06-1.72,18.61-6.23,20.47-7.33,3-18.65,1.87-26-2C644.87,217.59,638.58,208.35,629,198.94Z"/><path class="cls-1" d="M150,125c-11.74,6.7-20.67,14.44-30.83,16.73-7.85,1.77-18.75-1.28-25.34-6.17-3.53-2.62-3.76-17.34-.32-20.06,6.43-5.07,17.26-8.48,25.09-6.88C128.76,110.71,137.82,118.34,150,125Z"/><path class="cls-1" d="M632.4,125c10.22-5.78,18.53-13.1,28-15.07,8.75-1.82,20-.11,27.53,4.41,3.46,2.07,3.62,19.12.09,21.41-7.27,4.73-18.59,6.81-27.19,5C651.25,138.76,642.91,131.17,632.4,125Z"/><path class="cls-1" d="M241.82,125.09c-10.59,6-19.56,13.74-29.8,16.2-8,1.92-19.47-.25-25.75-5.22-3.79-3-3.71-18.76.13-21.76,6.32-5,17.76-7,25.82-5.13C222.42,111.59,231.39,119.2,241.82,125.09Z"/><path class="cls-1" d="M540.12,125.15c9.81-5.53,17.8-12.71,26.8-14.36a50.35,50.35,0,0,1,29.28,4.1c2.91,1.4,2.45,20.28-.5,21.51-8.84,3.69-20.05,4.6-29.61,2.79C557.68,137.6,550.24,130.88,540.12,125.15Z"/></g></g></svg>