<?xml version="1.0" encoding="utf-8"?>
<!-- Generator: Adobe Illustrator 25.0.1, SVG Export Plug-In . SVG Version: 6.00 Build 0)  -->
<svg version="1.1" id="Layer_1" xmlns="http://www.w3.org/2000/svg" xmlns:xlink="http://www.w3.org/1999/xlink" x="0px" y="0px"
	 viewBox="0 0 89.2 78.7" style="enable-background:new 0 0 89.2 78.7;" xml:space="preserve">
<style type="text/css">
	.st0{fill:#FFFFFF;}
</style>
<g>
	<path class="st0" d="M89.2,22.1c-0.9,4.3-4.1,6.4-7.7,8.1c-0.2,0.1-0.5,0-0.6-0.1c-2.6-3.3-6.3-5.2-10-6.8
		c-6.1-2.7-12.5-4.3-19.1-5.4c-6.9-1.2-14-1.7-21-1.6c-6.2,0.1-12.2,0.7-18.1,2.7c-2.3,0.8-4.5,1.8-6.4,3.5c-2.6-2-5-4.1-6-7.5
		c-0.1-0.4-0.2-0.7-0.3-1.1c0-0.4,0-0.8,0-1.3c0.4-2.1,1.4-3.7,3-5.1c2.1-1.9,4.6-3.1,7.2-4c5.2-1.9,10.6-2.7,16.1-3.2
		c1.3-0.1,2.6-0.2,3.8-0.3c2.7,0,5.4,0,8,0c0.3,0,0.6,0.1,0.8,0.1c1.6,0.1,3.2,0.2,4.9,0.3C51.1,1,58.2,2.3,65.1,4.3
		c5.8,1.7,11.5,3.8,16.5,7.1c3.5,2.3,6.7,5,7.6,9.4C89.2,21.2,89.2,21.7,89.2,22.1z"/>
	<path class="st0" d="M71.5,39.6c-2.7-2.7-6-4-9.4-5C56.9,33,51.4,32.1,46,31.9c-4.2-0.2-8.5-0.2-12.7,0c-5.1,0.3-10.2,1.1-15,3.1
		c-1.4,0.6-2.7,1.5-4.3,2.4c-1.5-0.9-3.1-2.1-4.2-3.9c-1.1-1.9-1-3.7,0.3-5.4c1.2-1.6,2.7-2.6,4.4-3.4c3.6-1.8,7.6-2.8,11.5-3.5
		c6.6-1.1,13.2-1.4,19.9-0.9c7.9,0.5,15.6,1.7,23,4.9c2.5,1.1,5,2.4,6.8,4.6c1.9,2.4,1.8,4.9-0.3,7.1c-0.5,0.5-1,0.9-1.5,1.3
		C73.1,38.6,72.3,39.1,71.5,39.6z"/>
	<path class="st0" d="M66.2,47.6c-2.3-2.2-4.9-3-7.6-3.7c-4.1-1.1-8.3-1.6-12.6-1.7c-4.1-0.1-8.2,0-12.2,0.7c-2.7,0.5-5.4,1.2-8,2.1
		c-1.5,0.5-2.8,1.5-4.4,2.3c-0.6-0.4-1.4-1-2.2-1.6c-2.2-2-2.3-4.6,0.1-6.6c1.5-1.2,3.2-2.1,4.9-2.8c4-1.7,8.2-2.4,12.5-2.8
		c4.3-0.4,8.5-0.5,12.8-0.1c4.3,0.4,8.6,1,12.7,2.4c2.4,0.8,4.8,1.9,6.6,3.8c1.5,1.5,1.7,3.6,0.4,5.2C68.4,45.8,67.2,46.6,66.2,47.6
		z"/>
	<path class="st0" d="M60.7,52.2c-1.9-1.3-4-1.6-6-1.7c-7.3-0.4-14.3,0.8-20.9,3.8c-1.7,0.7-3.2,1.6-4.4,3.1
		c-0.1,0.1-0.4,0.2-0.5,0.2c-0.9-0.5-1.9-1-2.6-1.6c-0.9-0.8-1-2-0.3-3.1c0.6-0.9,1.4-1.8,2.3-2.5c3-2.3,6.6-3.5,10.2-4.5
		c4.6-1.2,9.3-1.9,14.2-1.8c2.5,0.1,5,0.3,7.3,1.3c0.7,0.3,1.5,0.7,2.1,1.3c1,0.9,1.3,2.1,0.6,3.3C62.1,50.7,61.4,51.4,60.7,52.2z"
		/>
	<path class="st0" d="M57.7,62.8c-0.2,1.5-0.5,3-0.7,4.5c-0.2,1.7-0.1,3.4,0.5,5c1,3.2,3.4,4.7,6.6,5.2c0.2,0,0.4,0,0.5,0.1
		c0,0,0,0,0.1,0.2c-1,0.2-2,0.5-3,0.6c-4.2,0.7-8.3,0.6-12.3-0.9c-2.6-1-4.8-2.5-6.6-4.6C44.9,68.3,53.7,62.5,57.7,62.8z"/>
	<path class="st0" d="M58.8,57c-3.5-0.9-6.6-0.1-9.8,0.8c-4.4,1.4-8.5,3.2-12,6.3c-0.7,0.6-1.1,1.4-1.7,2c-0.2,0.2-0.5,0.3-0.7,0.3
		c-0.2,0-0.5-0.1-0.7-0.1c-2.1-0.6-2.7-2.1-1.6-4c0.9-1.6,2.3-2.8,3.8-3.9c5.1-3.6,10.8-5.9,17-6.7c1.4-0.2,2.9,0,4.4,0.1
		c0.5,0,1,0.3,1.4,0.6c0.9,0.6,1.3,1.5,0.9,2.5C59.5,55.7,59.1,56.3,58.8,57z"/>
	<path class="st0" d="M41.5,72.2c-0.1,0-0.4,0-0.7,0c-1.6-0.1-2.4-1.2-1.8-2.6c0.5-1.1,1.1-2.2,1.9-3c3.7-4,8.1-6.9,13.4-8.2
		c1-0.2,2-0.2,3-0.1c0.7,0,1.3,0.5,1.3,1.2c0,0.7-0.3,1.5-0.5,2.2c0,0.1-0.2,0.1-0.3,0.1c-2.2-0.2-4.1,0.7-5.9,1.5
		c-3.2,1.5-6.1,3.5-8.5,6.2C42.7,70.2,42.2,71.2,41.5,72.2z"/>
</g>
</svg>
