<svg xmlns="http://www.w3.org/2000/svg" viewBox="0 0 790.13 989.65"><defs><style>.cls-1{fill:#fff;}</style></defs><g id="Layer_2" data-name="Layer 2"><g id="Layer_1-2" data-name="Layer 1"><path class="cls-1" d="M0,989.65V933.82H66v-18q0-141.24,0-282.48c0-34.36,9.59-44.85,45.41-48.09V567.74c0-103.73.27-207.46-.27-311.18-.09-16.71,6-26.82,20.35-35.07C254.44,150.84,377,79.5,500.05,8.94A66.65,66.65,0,0,1,531.19.48c68-.75,135.93-.41,203.9-.37,21.21,0,24.67,4.3,25.55,25.74,1.61,39.41-8.24,74-40.41,99.24-63.46,49.81-155.1,13.58-168.44-66.34-.57-3.43-1.51-6.8-3.16-14C537,47.78,524.59,48.49,515,54,399.24,120.12,284,187,168.47,253.52c-6.91,4-11.4,7.69-11.36,17.15.43,101.71.26,203.43.31,305.15,0,2.94.5,5.89.8,9.19,2.39.45,4.27,1,6.19,1.14,27.31,2.29,38.33,14,38.44,41.76.19,52.36.06,104.73.06,157.1V933H790.13v56.65Z"/></g></g></svg>