<svg xmlns="http://www.w3.org/2000/svg" viewBox="0 0 23.35 20"><defs><style>.cls-1{fill:#fff;}</style></defs><title>unattended-object</title><g id="Layer_2" data-name="Layer 2"><g id="layer"><path class="cls-1" d="M3.72,20A3,3,0,0,1,0,16.81c0-3.35.08-6.7,0-10A3.12,3.12,0,0,1,3.72,3.38Z"/><path class="cls-1" d="M19.62,20V3.45a2.9,2.9,0,0,1,3.7,2.7c0,3.69,0,7.38,0,11.07C23.31,19,21.76,20.16,19.62,20Z"/><path class="cls-1" d="M16.77,3.36a1.49,1.49,0,0,1-.06-.23c0-.54,0-1.08,0-1.62A1.32,1.32,0,0,0,15.18,0h-7a1.32,1.32,0,0,0-1.52,1.5c0,.6,0,1.2,0,1.85H5.08V20H18.29V3.36ZM15,2.42a8.4,8.4,0,0,0,0,.88H8.42c-.21-1.6-.21-1.6,1.29-1.6s3.06,0,4.59,0C14.89,1.67,15.08,1.86,15,2.42Z"/></g></g></svg>