<svg xmlns="http://www.w3.org/2000/svg" viewBox="0 0 425.59 425.3"><defs><style>.cls-1{fill:#fff;}</style></defs><g id="Layer_2" data-name="Layer 2"><g id="Layer_1-2" data-name="Layer 1"><g id="a4PMBr.tif"><path class="cls-1" d="M62.1,182.46c-18.35-3.93-35.87-7.75-53.42-11.41-4.46-.93-7.93-2.67-8.58-7.6-.68-5.16,2.33-7.82,6.64-9.86,40.82-19.33,81.58-38.81,122.46-58a17.65,17.65,0,0,1,10-1.28c23.71,4.2,47.35,8.78,71,13.21a11.18,11.18,0,0,0,3.93.27c18-3.32,35.89-6.71,54.45-10.2-8.27-22.56-5.75-43.9,7.14-63.82A73,73,0,0,1,314.82,3.48C346.35-7.07,381.2,7,399.05,37.26,415.51,65.17,412.46,106,375.53,133l27.11,12.93c5.39,2.57,10.75,5.24,16.21,7.67,4.36,1.93,7.32,4.7,6.64,9.85-.64,4.94-4.13,6.68-8.58,7.6-17.55,3.66-35.07,7.48-53.22,11.37,1.1,1.76,2,3.3,3,4.73q15.09,21.71,30.22,43.38c5.53,7.94,4.3,12.48-4.41,16.34-10.18,4.5-20.28,9.17-30.57,13.38-3.56,1.46-4.45,3.38-4.43,7,.15,28.94,0,57.88.19,86.82.05,6.24-2.29,9.73-7.93,12.2-44.11,19.32-88.11,38.88-132.25,58.12a13,13,0,0,1-9.34,0c-44-19.17-87.83-38.7-131.8-57.91-6-2.64-8.47-6.25-8.41-12.91.29-28.44,0-56.88.24-85.32,0-4.77-1.45-6.93-5.81-8.66-10-4-19.81-8.56-29.68-12.94-8.1-3.6-9.39-8.36-4.25-15.75q15.09-21.7,30.23-43.37C59.67,186.1,60.66,184.6,62.1,182.46ZM98,176.67c1.61.85,2.29,1.26,3,1.58,36.16,15.95,72.3,31.95,108.53,47.72a10.33,10.33,0,0,0,7.39-.29q53.42-23.3,106.69-46.94c1.15-.51,2.19-1.24,3.43-2a7.68,7.68,0,0,0-1.11-.83q-55.37-24.47-110.78-48.8a7.92,7.92,0,0,0-5.51.3c-6.61,2.69-13.09,5.71-19.62,8.59ZM203.49,403.84V265.22l-24.32,34.84c-5.1,7.31-7.43,8-15.39,4.48q-36.69-16.2-73.37-32.4c-1.61-.72-3.27-1.33-5.36-2.17,0,26.12.07,51.55-.08,77,0,3.51,1,5.2,4.3,6.62,29.69,12.91,59.29,26,88.92,39.09C186.51,396.33,194.82,400,203.49,403.84ZM340.54,270c-2.3.93-4,1.56-5.63,2.29Q297.76,288.63,260.6,305c-6.19,2.72-9.23,2-12.93-3.15-2.34-3.23-4.58-6.53-6.86-9.8-6-8.66-12.07-17.32-18.85-27.07v138.9l16.14-7.12q49-21.6,98-43.22c2.16-.95,4.56-1.33,4.54-4.9C340.47,322.72,340.54,296.78,340.54,270Zm51-197.53c0-31.83-23.22-55.25-54.93-55.37-32-.11-55.91,23.38-55.72,55.17.18,31.12,22.6,55.66,55.52,55.41C370.24,127.42,391.72,102.4,391.56,72.46ZM199.88,240.53C160.25,223.06,121.36,206,82.54,188.72c-3.1-1.38-4.1.19-5.49,2.2q-13.78,19.86-27.63,39.67c-.8,1.16-1.45,2.42-2.25,3.77,2,.94,3.7,1.71,5.36,2.45q51.69,22.83,103.39,45.65c11.27,5,11.26,5,18.26-5.06Zm178.84-6.25c-10.15-14.56-20.1-28.65-29.81-42.91-2.06-3-3.67-3.69-7.19-2.12-32.57,14.56-65.24,28.91-97.88,43.32l-17.92,7.91c1.07,1.67,1.81,2.93,2.65,4.13,9,13,18.13,25.84,27,38.91,2.09,3.08,3.79,3.61,7.23,2.07,26.2-11.74,52.5-23.27,78.76-34.87Zm-195.25-114c-2.05-.63-2.8-1-3.58-1.09-13-2.42-26.08-5-39.17-7.1a16.1,16.1,0,0,0-8.9,1.12c-30.34,14.19-60.57,28.62-90.83,43-1.54.73-3,1.61-5.71,3.08C48.39,162.07,60.14,164.68,72,167a12.75,12.75,0,0,0,7-.71c19.49-8.4,38.89-17,58.31-25.57C152.31,134.07,167.3,127.43,183.47,120.27ZM389,159.54l.09-1.19c-10.92-5.18-21.83-10.39-32.79-15.47a6.32,6.32,0,0,0-3.76-.08c-25.66,5.76-48.36-.85-66-19.55-8.07-8.55-15-10.15-25.11-7.13-5.89,1.76-12.08,2.48-18.67,3.78a10.84,10.84,0,0,0,1.41,1.21Q296,144,347.91,166.93a6,6,0,0,0,3.3.68C363.81,165,376.39,162.25,389,159.54Z"/><path class="cls-1" d="M344.33,76.38H328.11v-42h16.22Z"/><path class="cls-1" d="M328,110.4V94H344.3V110.4Z"/></g></g></g></svg>