<svg xmlns="http://www.w3.org/2000/svg" viewBox="0 0 416.94 511.61"><defs><style>.cls-1{fill:#fff;}</style></defs><title>vandalism</title><g id="Layer_2" data-name="Layer 2"><g id="layer"><path class="cls-1" d="M360.94,511.61c-1.91-.49-3.84-.92-5.73-1.5-9.46-2.93-15.34-9.31-18.69-18.58C318,440.43,312.15,388,320.05,334.2c1.68-11.48,4.4-22.81,6.76-34.83-7-1.18-14.18-2.44-21.33-3.57-15.79-2.51-31.61-4.81-47.35-7.55-3.31-.58-5.3.55-7.56,2.37q-35.85,28.81-71.76,57.54c-16.72,13.31-40,5.54-44.35-14.86-2.19-10.27.73-19.44,8.89-26.06q43.28-35.12,87-69.74A25.5,25.5,0,0,1,251,232.26q40.92,6.6,81.86,13.05c1.47.23,3,.3,5,.51.62-22.3-3.45-43.85-7.15-65.71,5.54-2.23,11.13-3.94,16.2-6.64a247.72,247.72,0,0,0,24.88-14.66,21.23,21.23,0,0,0,5.35-30.39c-7.14-9.87-20-11.66-30.62-4.71-7.14,4.66-14.66,8.75-22.65,13.47-1-26.06,17.27-41.29,40.8-35.6,13.32,3.22,24,10.85,30.23,22.79a162.31,162.31,0,0,1,12.8,33.37c3.77,14.26,5.7,29,8.44,43.53.22,1.13.56,2.23.84,3.34v31c-.66,5.6-1.39,11.19-2,16.8-1.89,18.59-8.12,34.29-27.15,41.83-1.35.54-2.43,2.58-3,4.15-13.87,38.54-16.91,78.12-11.35,118.53A283.53,283.53,0,0,0,388,474.36c3.22,9,2.08,17.3-3.13,25.21-4.74,7.2-12.07,10.05-19.93,12Z"/><path class="cls-1" d="M310.82,97.62a48.81,48.81,0,1,1,48.9-48.49A48.85,48.85,0,0,1,310.82,97.62Z"/><path class="cls-1" d="M295.4,180.75c-30.54-.4-56.49-12.33-79.27-31.95a203.47,203.47,0,0,1-16.06-15.71c-7.36-7.91-7.11-18.67.2-25.41,7.16-6.59,17.4-5.82,25.06,1.57,6.58,6.35,13,13,20.24,18.5,31.4,23.71,68.4,24.13,100.61,1.52,4.73-3.33,9.47-6.28,15.57-5.43a17.16,17.16,0,0,1,14.61,13.24c1.76,7.44-.81,13.5-6.73,18-11.31,8.71-23.7,15.67-37.45,19.41-11.95,3.25-24.28,5.1-36.45,7.57Z"/><path class="cls-1" d="M19.54,236.07l28.38,5.19c7,1.27,13.92,2.58,20.9,3.77,5.23.89,6.76,3.54,4.51,8.43-3.86,8.41-7.63,16.87-12.2,27,9.14-3.46,16.8-6.34,24.44-9.25,1.45-.55,3-1.83,4.27-1.62,2.07.34,4,1.65,6,2.55-.88,1.8-1.33,4.66-2.71,5.23-12.88,5.3-25.89,10.29-39,15.11-1.26.47-4-.34-4.56-1.38a7,7,0,0,1-.21-5.48c3.53-8.35,7.38-16.57,11.11-24.83,1-2.21,2-4.44,3.25-7.4-2.1-.56-3.86-1.15-5.68-1.48-17-3.11-34-6-50.91-9.38C4.56,242,2.37,239.61,0,238.08c1.81-2,3.27-4.56,5.49-5.79,12.75-7.1,25.68-13.88,39-21A43.91,43.91,0,0,0,41.12,208c-12-9.45-24-18.76-35.84-28.4-1.9-1.55-2.6-4.54-3.86-6.86,2.28-1,4.53-2.65,6.86-2.75,15.61-.73,31.24-1.12,47.64-1.65-6.83-17-13.43-33-19.71-49.24-.91-2.34-.31-5.25-.41-7.9,2.8.45,6.05.13,8.32,1.47,13.32,7.87,26.41,16.13,39.6,24.24,1.83,1.12,3.74,2.1,6.48,3.62,1.7-12.69,3.3-24.65,4.89-36.61.27-2,.15-4.11.91-5.87s2.11-3.48,3.63-4c1.1-.38,3.47.86,4.29,2,8.24,12,16.39,24.16,24.21,36.48.88,1.39-.45,4.19-.75,6.33-2.2-.82-5.29-1-6.46-2.57-5.84-7.95-11.18-16.28-17.81-26.12-1.52,11.19-2.83,20.66-4.09,30.13-1.93,14.58-2.22,14.72-15,6.91L47.91,125.09c4.08,10.24,7.41,18.68,10.81,27.1,2.07,5.12,4.25,10.2,6.38,15.31,2.89,7,1.49,9.16-6.23,9.45-11,.42-22.09.73-33.13,1.11-2.12.07-4.23.25-8,.48l31.76,25c1.56,1.23,3.14,2.44,4.67,3.72,5,4.16,4.8,6.86-.88,9.86-9.39,5-18.88,9.75-28.32,14.61-1.88,1-3.73,2-5.6,3Z"/></g></g></svg>