<svg xmlns="http://www.w3.org/2000/svg" viewBox="0 0 50 33.73"><defs><style>.cls-1{fill:#fff;}</style></defs><title>vbp-counting</title><g id="Layer_2" data-name="Layer 2"><g id="layer"><path class="cls-1" d="M16.62,19.19C11,18.7,0,21.49,0,27v6.71H33.25V27c0-5.53-11.15-7.83-16.62-7.83Zm-.07-2.57a8.29,8.29,0,0,0,8.31-8.3h0A8.29,8.29,0,0,0,16.62,0h-.07A8.32,8.32,0,0,0,8.23,8.3h0a8.32,8.32,0,0,0,8.31,8.32h0Zm27.9,8.12V16.8H40.69v7.94H35l7.51,7.88L50,24.74ZM34.84,18.2v-9h-5.7l7.57-7.51,7.43,7.51H38.59v9H34.84Z"/></g></g></svg>