<svg xmlns="http://www.w3.org/2000/svg" viewBox="0 0 427.03 381.41"><defs><style>.cls-1{fill:#fff;}</style></defs><g id="Layer_2" data-name="Layer 2"><g id="Layer_1-2" data-name="Layer 1"><path class="cls-1" d="M297.55,176.61h17.83v74.15c-5.37,0-10.63.14-15.87-.13-.86,0-2.06-1.77-2.32-2.89-.39-1.72-.1-3.59-.1-6-2.11-.12-3.85-.29-5.6-.29q-30.69,0-61.38,0c-9,0-10.34-2.22-6.36-10.36.93-1.92,1.8-3.86,3.09-6.62-13.46-3.28-11-13.37-9.05-23.21l-1.41.06c-3.64,5.42-7.28,10.83-11.19,16.63l10.57,9.15-6.1,7.82-4.93-2.51c-.47.3-1.08.46-1.26.83-3.64,7.55-9.83,8.66-17.61,8.39-16.62-.57-33.27-.17-49.91-.17h-5.76c-.18,3.08-.34,5.69-.52,8.7h-18V176.67h18c.21,2.93.39,5.54.6,8.56h55v-54.9l-8.41-.67V111.47h73.51v18.17l-8.61.7V185.4c1.75.08,3.5.24,5.25.24q21.69,0,43.37,0c6.83,0,6.83,0,7-7C297.35,178.17,297.44,177.68,297.55,176.61Z"/><path class="cls-1" d="M83.75,176.1h17.9v73.82H83.93c-1.46-8.8-1.46-8.8-10.84-8.8H0V185.31H76.16c8.19,0,7.25.34,7.24-6.74A21.2,21.2,0,0,1,83.75,176.1Z"/><path class="cls-1" d="M427,241.24H344c-.24,3.07-.47,5.82-.72,8.89H325.5V176.32h17.27c.29.42.62.67.65,1,.81,8,.81,8,9.09,8H427Z"/><path class="cls-1" d="M250.39,101.71H176.73V83.83l8.86-.82V0h55.74V83.08l9.06.62Z"/><path class="cls-1" d="M222.39,308.63c17.87,8.62,31,33.33,28,51.52-2,12.23-14.71,22.2-27,21.19-14.23-1.18-23.78-10.61-23.54-24.06a25.57,25.57,0,0,1,3.54-11.64c2.28-4,5.61-7.41,8.87-10.7C219.35,327.79,224.57,320,222.39,308.63Zm3.84,66.13c7.48-.65,12.87-3.87,16.25-10.09,3.21-5.89,3.24-15.45-.52-21.59C245,358.42,237.06,367.27,226.23,374.76Z"/><path class="cls-1" d="M195.8,280.49c-1.48,9,4.11,14.24,9.14,20,2.83,3.27,5.64,7.3,6.46,11.38,1.92,9.56-4.65,17.23-14.79,18.65a18.05,18.05,0,0,1-20.14-15.05C174.67,302.76,183.26,286.77,195.8,280.49Zm-14.52,27.33c-1.84,10.63,2.57,17.38,12.71,18.29C186.64,321.32,181.51,316.16,181.28,307.82Z"/><path class="cls-1" d="M218.33,255.47c9.78,7.13,15.9,15.33,15.67,27a14.41,14.41,0,0,1-15.88,14.18c-8.23-.66-14-6.77-12.64-14.64.63-3.62,3.13-7.24,5.63-10.12C215.09,267.3,218.93,262.91,218.33,255.47Zm11.54,23c-.27,6.39-3.93,10.62-9.1,13.95C228.46,291.39,231.32,286.85,229.87,278.43Z"/></g></g></svg>