<?xml version="1.0" encoding="utf-8"?>
<!-- Generator: Adobe Illustrator 25.0.1, SVG Export Plug-In . SVG Version: 6.00 Build 0)  -->
<svg version="1.1" id="Layer_1" xmlns="http://www.w3.org/2000/svg" xmlns:xlink="http://www.w3.org/1999/xlink" x="0px" y="0px"
	 viewBox="0 0 174.1 162.1" style="enable-background:new 0 0 174.1 162.1;" xml:space="preserve">
<style type="text/css">
	.st0{fill:#FFFFFF;}
</style>
<g>
	<path class="st0" d="M100.7,36.1c1-1.6,2-3.1,3-4.6c1.3-2,3.4-2,4.7,0c5.3,8.2,10.6,16.4,15.7,24.7c7.7,12.5,0.5,29.2-13.7,32.2
		c-6.4,1.3-12.3,0-17.5-4.2c-0.7-0.6-1.1-0.6-1.9-0.2C72.7,93.8,50.2,83.4,45.9,63c-1.9-8.9-0.5-17.1,4.5-24.8
		c7.7-11.9,15.3-24,23-35.9c0.4-0.6,0.8-1.3,1.3-1.7c1.2-1,3-0.5,4,1c3.8,5.9,7.6,11.9,11.4,17.8c3.3,5.2,6.6,10.3,9.9,15.5
		C100.1,35.2,100.4,35.6,100.7,36.1z M76.2,7.3c-0.3,0.4-0.4,0.6-0.6,0.8c-7.2,11.2-14.4,22.3-21.4,33.7c-5.8,9.4-5.5,19.2,0.2,28.5
		c5.5,9.2,14,12.9,24.6,12.1c3.4-0.3,6.6-1.2,9.6-3c-0.3-0.6-0.6-1.1-0.9-1.5c-1.9-3.4-2.8-7-2.8-10.8c0-1.6,1-2.7,2.5-2.8
		c1.5-0.1,2.6,1.1,2.7,2.7c0.1,1.1,0.1,2.3,0.3,3.4c2.1,11.5,15.1,17.1,24.6,10.6c7.1-4.8,9.3-15,4.7-22.3c-3-4.9-6.1-9.6-9.2-14.4
		c-1.4-2.2-2.9-4.5-4.4-6.9c-2.3,3.6-4.5,7.1-6.8,10.6c-2.2,3.4-4.3,6.8-6.5,10.1c-0.6,1-1.6,1.6-2.7,1.2c-0.8-0.3-1.7-1-1.9-1.7
		c-0.2-0.7,0-1.8,0.5-2.5c2.7-4.4,5.5-8.7,8.3-13c0.5-0.8,0.5-1.4,0-2.2c-5.2-8.1-10.4-16.2-15.5-24.3C79.7,12.8,78,10.2,76.2,7.3z"
		/>
	<path class="st0" d="M170.6,119c-3.5-0.2-6.6-1.3-9.3-3.4c-2.9-2.2-4.7-2.1-7.7,0c-6.2,4.5-14.5,4.5-20.6-0.1c-2.7-2-4.7-2-7.4,0
		c-6.2,4.6-14.5,4.7-20.7,0.1c-2.8-2.1-4.7-2.1-7.5,0c-6.2,4.6-14.4,4.6-20.6,0.1c-2.9-2.2-4.8-2.2-7.7,0c-3.2,2.4-6.9,3.5-10.9,3.3
		c-1.8-0.1-2.8-1-2.7-2.6c0-1.5,1.1-2.5,2.9-2.5c3.1,0.1,5.8-0.9,8.3-2.8c3.9-3,8.7-2.9,12.7,0c5.1,3.8,10.4,3.8,15.5,0
		c3.9-2.9,8.8-2.9,12.7,0c4.9,3.7,10.5,3.8,15.4,0c3.8-2.9,8.8-3.1,12.5-0.1c4.8,3.9,11.4,3.7,15.9,0c3.7-3,8.7-2.8,12.5,0.2
		c2.2,1.7,4.6,2.7,7.4,2.8c1.8,0.1,2.9,1.1,2.9,2.6c0,1.5-1.2,2.5-3,2.5C170.9,119,170.7,119,170.6,119z"/>
	<path class="st0" d="M44.8,130.4c2.3,0,4.4,0.8,6.3,2.2c5.1,3.8,10.4,3.8,15.5,0c4-3,8.8-2.9,12.8,0.1c4.8,3.7,10.4,3.7,15.3,0
		c4-3,8.9-3,12.9,0c4.8,3.7,10.4,3.7,15.3-0.1c3.9-3,8.9-3,12.8,0c2.2,1.7,4.7,2.7,7.5,2.8c1.7,0.1,2.8,1.1,2.7,2.6
		c0,1.5-1.2,2.5-2.9,2.5c-3.7-0.1-7-1.2-10-3.5c-2.8-2.1-4.7-2.1-7.5,0c-6,4.6-14.5,4.6-20.6,0c-2.9-2.1-4.7-2.1-7.6,0
		c-6.2,4.6-14.5,4.6-20.7-0.1c-2.6-2-4.7-2-7.3,0c-6.3,4.7-14.6,4.7-20.9,0c-2.6-1.9-4.7-1.9-7.3,0c-3,2.2-6.3,3.4-10,3.5
		c-1.8,0-3-0.9-3-2.5c0-1.5,1-2.5,2.8-2.6c2.8-0.1,5.2-1,7.4-2.7C40.2,131.2,42.4,130.4,44.8,130.4z"/>
	<path class="st0" d="M72.9,152c2.5,0,4.6,0.8,6.5,2.3c4.9,3.7,10.4,3.7,15.3,0c4-3,8.9-3.1,12.8,0c2.3,1.8,4.8,2.7,7.6,2.8
		c1.6,0.1,2.6,1.1,2.6,2.6c0,1.5-1.1,2.5-2.7,2.5c-3.8,0-7.1-1.2-10.1-3.4c-2.8-2.1-4.7-2.1-7.5,0c-6.1,4.6-14.6,4.6-20.7,0
		c-2.7-2-4.7-2-7.4,0c-3,2.3-6.4,3.5-10.1,3.5c-1.7,0-2.7-0.9-2.8-2.4c-0.1-1.5,1-2.6,2.7-2.7c2.8-0.1,5.3-1,7.5-2.8
		C68.4,152.7,70.6,151.9,72.9,152z"/>
	<path class="st0" d="M30.8,119c-3.8,0-7.2-1.1-10.3-3.4c-2.8-2.1-4.8-2.1-7.6,0c-2.9,2.1-6,3.3-9.6,3.4c-2,0.1-3.1-0.8-3.2-2.4
		c-0.1-1.6,1-2.6,3-2.7c2.6-0.1,4.8-1,6.9-2.5c4.5-3.4,9-3.4,13.6,0c4.5,3.3,10.1,3.3,14.6,0c1.8-1.3,3.7-2.3,5.9-2.4
		c1.6-0.1,2.8,0.8,3,2.2c0.2,1.4-0.8,2.4-2.4,2.9c-1.2,0.3-2.4,0.8-3.3,1.5C38,117.8,34.6,119,30.8,119z"/>
	<path class="st0" d="M73.1,74.5c-5.4-0.6-10-3.2-13-8.1c-4.1-6.6-4.4-13.5-0.4-20.4c0.9-1.6,2.4-2,3.7-1.3c1.3,0.8,1.6,2.3,0.7,3.8
		c-0.1,0.2-0.2,0.3-0.3,0.5c-3.6,6.2-1.7,14.6,4.4,18.4c1.7,1.1,3.8,1.5,5.8,2c1.5,0.4,2.4,1.4,2.3,2.8C76.1,73.6,75,74.5,73.1,74.5
		z"/>
</g>
</svg>
