<svg xmlns="http://www.w3.org/2000/svg" viewBox="0 0 55.02 34.5"><defs><style>.cls-1{fill:#fff;}</style></defs><g id="Layer_2" data-name="Layer 2"><g id="Layer_1-2" data-name="Layer 1"><path class="cls-1" d="M55,8.45a12.26,12.26,0,0,1-1.23,4c-1.67,3.48-3.52,6.88-5.31,10.3-.45.87-1.27.88-1.72,0-2-3.82-3.95-7.64-5.81-11.52a7.9,7.9,0,0,1-.77-5A7.58,7.58,0,0,1,48.1,0a7.78,7.78,0,0,1,6.15,4.3A7.36,7.36,0,0,1,55,8.45ZM43.33,7.56a4.26,4.26,0,1,0,8.52.06,4.36,4.36,0,0,0-4.24-4.31A4.31,4.31,0,0,0,43.33,7.56Z"/><path class="cls-1" d="M0,18.79a8,8,0,0,1,.44-3.12,7.2,7.2,0,0,1,3.89-4.24,7.1,7.1,0,0,1,8,1.12,6.94,6.94,0,0,1,2.32,7.77A47.78,47.78,0,0,1,12,26.57c-1.12,2.3-2.39,4.51-3.59,6.76-.52,1-1.31,1.07-1.78.17-1.87-3.56-3.77-7.11-5.52-10.74A10.65,10.65,0,0,1,0,18.79Zm7.54-4.74a4.25,4.25,0,1,0,4.19,4.3A4.26,4.26,0,0,0,7.55,14.05Z"/><path class="cls-1" d="M8.88,34.09c1.89-3.36,3.35-7,5.92-9.92s5.91-4.05,9.68-2.65a72.4,72.4,0,0,1,6.64,3.21,66.06,66.06,0,0,0,6.09,3c2.66,1,4.79.26,6.55-2,.71-.9,1.29-1.91,2-2.95a5.4,5.4,0,0,0,.73,1,6,6,0,0,0,1.16.57c-1,4.22-5.79,7.48-9.9,6.28a52.25,52.25,0,0,1-7.59-3.37c-1.94-.92-3.76-2.11-5.76-2.87-3.56-1.34-6.49-.25-8.59,2.91a50.94,50.94,0,0,1-3.33,4.91A16.38,16.38,0,0,1,9.27,34.5Z"/><path class="cls-1" d="M20.4,16.21c1.29-2.23,2.47-4.31,3.69-6.37a1,1,0,0,0,0-1.15c-1-1.71-2-3.46-3-5.19-.16-.27-.3-.55-.5-.93,1.92,0,3.72,0,5.52,0a.89.89,0,0,1,.58.42c.55.85,1.06,1.72,1.63,2.65.56-.93,1.06-1.81,1.6-2.66a.91.91,0,0,1,.59-.41c1.75,0,3.5,0,5.39,0L35.13,4C34.25,5.49,33.39,7,32.48,8.53a1.2,1.2,0,0,0,0,1.43c1.11,1.82,2.15,3.68,3.22,5.53.11.2.21.41.37.72-1.95,0-3.81,0-5.66,0-.19,0-.42-.29-.55-.49-.55-.87-1.07-1.77-1.64-2.72-.57.95-1.1,1.81-1.6,2.7a.93.93,0,0,1-.94.54C24,16.19,22.25,16.21,20.4,16.21Z"/></g></g></svg>