<svg xmlns="http://www.w3.org/2000/svg" viewBox="0 0 204.52 156.89"><defs><style>.cls-1{fill:#fff;}</style></defs><title>image</title><g id="Layer_2" data-name="Layer 2"><g id="layer"><path class="cls-1" d="M157,37.31q-46.26.09-92.54,0c-3.53,0-4.54,1.14-4.52,4.53C60,57.7,60,73.6,60,89.51c0,.88.17,1.76.33,3.38,5.28-6.33,10.06-12.11,14.91-17.84,2.91-3.45,5.77-3.49,8.68-.1s5.63,6.82,8.45,10.23c3.57,4.31,6.26,4.33,9.82,0C109.1,76.61,116,68,122.91,59.49c3.51-4.32,6.28-4.33,9.83-.06q9.18,11,18.32,22.08c3.09,3.71,6.2,7.42,9.81,11.73.15-1.5.27-2.15.27-2.81,0-16.5,0-33,.06-49.5C161.22,37.66,159.63,37.31,157,37.31ZM97.61,64.42a10,10,0,0,1-10-10.06,9.82,9.82,0,0,1,10-10,10.05,10.05,0,0,1,10.07,10A10.22,10.22,0,0,1,97.61,64.42Z"/><path class="cls-1" d="M202.76,25.85h0a24.63,24.63,0,0,0-23.34-23L141.84,1A785.75,785.75,0,0,0,62.68,1L25.1,2.9a24.64,24.64,0,0,0-23.34,23h0A785.63,785.63,0,0,0,1.76,131h0A24.64,24.64,0,0,0,25.1,154l37.58,1.9a785.75,785.75,0,0,0,79.16,0l37.58-1.9a24.63,24.63,0,0,0,23.34-23h0A785.63,785.63,0,0,0,202.76,25.85Zm-154.24,69c-.6-1.55-1-2.35-1.22-3.18C44.43,82.12,41.94,72.4,38.61,63c-3-8.55,1-13.3,9.91-14.16Zm38.55,34.27q-8.4,2.52-16.8,5c-7.55,2.24-11.82-.79-12.46-8.94H98.07l.12.52C94.48,126.88,90.78,128,87.07,129.16ZM166.9,56q0,27.08,0,54.17c0,7.34-2.55,9.84-9.94,9.84H110.32q-23.31,0-46.63,0c-6.61,0-9.45-2.74-9.46-9.32q-.06-35,0-69.95c0-6.35,2.92-9.16,9.25-9.17,12.56,0,25.11.05,37.67-.05a26.89,26.89,0,0,0,7-1C117,28,125.79,25.32,134.6,22.7c6.27-1.85,9.72-.06,11.63,6.3.58,1.93,1.34,2.79,3.43,2.65,2.74-.18,5.5-.06,8.25,0,6.15,0,8.91,2.78,9,9C166.94,45.76,166.9,50.9,166.9,56Z"/></g></g></svg>