<svg xmlns="http://www.w3.org/2000/svg" viewBox="0 0 204.52 156.89"><defs><style>.cls-1{fill:#fff;}</style></defs><title>text</title><g id="Layer_2" data-name="Layer 2"><g id="layer"><path class="cls-1" d="M120,44.92V28.21H67.74a1.1,1.1,0,0,0-1.1,1.1v98.26a1.11,1.11,0,0,0,1.1,1.11h69a1.11,1.11,0,0,0,1.11-1.11V47.8h-15A2.88,2.88,0,0,1,120,44.92Zm5.83,61.16h-49a2.16,2.16,0,0,1,0-4.32h49a2.16,2.16,0,0,1,0,4.32Zm0-14.28h-49a2.16,2.16,0,0,1,0-4.32h49a2.16,2.16,0,0,1,0,4.32Zm0-14h-49a2.16,2.16,0,0,1,0-4.32h49a2.16,2.16,0,0,1,0,4.32ZM128,61.07a2.16,2.16,0,0,1-2.16,2.16h-49a2.16,2.16,0,0,1,0-4.32h49A2.16,2.16,0,0,1,128,61.07Z"/><polygon class="cls-1" points="125.73 32.72 125.73 42.03 134.29 42.03 125.73 32.72"/><path class="cls-1" d="M202.76,25.85h0a24.63,24.63,0,0,0-23.34-23L141.84,1A785.75,785.75,0,0,0,62.68,1L25.1,2.9a24.64,24.64,0,0,0-23.34,23h0A785.63,785.63,0,0,0,1.76,131h0A24.64,24.64,0,0,0,25.1,154l37.58,1.9a785.75,785.75,0,0,0,79.16,0l37.58-1.9a24.63,24.63,0,0,0,23.34-23h0A785.63,785.63,0,0,0,202.76,25.85Zm-135,111.59a9.88,9.88,0,0,1-9.87-9.87V29.31a9.88,9.88,0,0,1,9.87-9.87h57.68l21.23,23.07v85.06a9.87,9.87,0,0,1-9.86,9.87Z"/></g></g></svg>