<svg xmlns="http://www.w3.org/2000/svg" viewBox="0 0 204.52 156.89"><defs><style>.cls-1{fill:#fff;}</style></defs><title>video</title><g id="Layer_2" data-name="Layer 2"><g id="layer"><path class="cls-1" d="M202.76,25.85h0a24.63,24.63,0,0,0-23.34-23L141.84,1A785.75,785.75,0,0,0,62.68,1L25.1,2.9a24.64,24.64,0,0,0-23.34,23h0A785.63,785.63,0,0,0,1.76,131h0A24.64,24.64,0,0,0,25.1,154l37.58,1.9a785.75,785.75,0,0,0,79.16,0l37.58-1.9a24.63,24.63,0,0,0,23.34-23h0A785.63,785.63,0,0,0,202.76,25.85ZM141.49,85q-35.58,21.57-71.28,42.9c-7.68,4.58-12.3,1.72-12.34-7.47-.06-14,0-28,0-42,0-14.23-.07-28.46,0-42.68.06-8.68,4.69-11.26,12.23-6.76q35.72,21.33,71.31,42.85C148.43,76.1,148.45,80.78,141.49,85Z"/></g></g></svg>