<?xml version="1.0" encoding="utf-8"?>
<!-- Generator: Adobe Illustrator 24.2.3, SVG Export Plug-In . SVG Version: 6.00 Build 0)  -->
<svg version="1.1" id="Layer_1" xmlns="http://www.w3.org/2000/svg" xmlns:xlink="http://www.w3.org/1999/xlink" x="0px" y="0px"
	 viewBox="0 0 48.7 48.7" style="enable-background:new 0 0 48.7 48.7;" xml:space="preserve">
<style type="text/css">
	.st0{fill:#FFFFFF;}
</style>
<g>
	<path class="st0" d="M25.2,48.7v-6.1H10.3l21-20.9l-4.2-4.2l-21,20.9V23.5h-6v20.4c0,2.7,2.2,4.8,4.8,4.8H25.2z"/>
	<path class="st0" d="M7.5,0h33.7c4.1,0,7.5,3.4,7.5,7.5v33.7c0,4.1-3.4,7.5-7.5,7.5h-7.7v-5h7.7c1.4,0,2.5-1.1,2.5-2.5V7.5
		c0-1.4-1.1-2.5-2.5-2.5H7.5C6.1,5,5,6.1,5,7.5v7.7H0V7.5C0,3.4,3.4,0,7.5,0z"/>
</g>
</svg>
