<?xml version="1.0" encoding="utf-8"?>
<!-- Generator: Adobe Illustrator 22.0.0, SVG Export Plug-In . SVG Version: 6.00 Build 0)  -->
<svg version="1.1" id="Layer_1" xmlns="http://www.w3.org/2000/svg" xmlns:xlink="http://www.w3.org/1999/xlink" x="0px" y="0px"
	 viewBox="0 0 25 25" style="enable-background:new 0 0 25 25;" xml:space="preserve">
<style type="text/css">
	.st0{fill:#FFFFFF;}
</style>
<title>export</title>
<g>
	<path class="st0" d="M24.9,11c-0.7,0.7-1.4,1.4-2,2.1v8.5c0,0.7-0.6,1.3-1.3,1.3H3.3c-0.7,0-1.3-0.6-1.3-1.3V3.3
		C2.1,2.6,2.6,2,3.3,2h11.5c0-0.7,0-1.4,0-2c-4,0-8,0-12,0C2.6,0.1,2.4,0.1,2.2,0.2c-1,0.3-1.7,1-2.1,2.1C0.1,2.5,0,2.7,0,2.9
		c0,6.4,0,12.8,0,19.2c0,0.1,0.1,0.3,0.1,0.4c0.3,1.2,1,2,2.2,2.4C2.5,25,2.8,25,3.1,25c6.3,0,12.6,0,18.9,0c1.2,0,2.1-0.6,2.7-1.7
		c0.1-0.3,0.2-0.6,0.3-0.8c0,0,0-0.1,0-0.1C25,18.6,25,14.7,24.9,11C25,10.9,24.9,10.9,24.9,11z"/>
	<path class="st0" d="M25,6.7c0,0.1-0.1,0.2-0.1,0.3c-0.1,0.3-0.4,0.6-0.7,0.8c-1.4,1.4-2.9,2.8-4.3,4.3c-0.7,0.7-1.9,0.6-2.4-0.2
		c-0.2-0.3-0.3-0.6-0.3-0.9c0-1,0-1.9,0-2.9c0-0.1,0-0.2,0-0.3c-0.4,0-0.7,0-1.1,0.1c-0.7,0.1-1.4,0.2-2,0.4
		c-0.6,0.2-1.1,0.4-1.6,0.6C11,9.6,9.7,10.6,8.6,12c-0.5,0.6-0.9,1.2-1.3,1.9c-0.4,0.5-0.7,1.1-1,1.6c0,0,0,0-0.1,0.1
		c0.1-3,1.1-5.6,3.2-7.7c2.1-2.1,4.7-3.1,7.7-3.2c0-0.1,0-0.1,0-0.2c0-1,0-1.9,0-2.9c0-0.7,0.3-1.2,1-1.5c0.1,0,0.2-0.1,0.3-0.1
		c0.2,0,0.3,0,0.5,0c0,0,0.1,0,0.1,0c0.3,0.1,0.5,0.2,0.8,0.4c1.2,1.2,2.3,2.3,3.5,3.5c0.4,0.4,0.8,0.8,1.2,1.2
		c0.2,0.2,0.3,0.5,0.4,0.7C25,6.1,25,6.4,25,6.7z"/>
</g>
</svg>
