<?xml version="1.0" encoding="utf-8"?>
<!-- Generator: Adobe Illustrator 23.0.1, SVG Export Plug-In . SVG Version: 6.00 Build 0)  -->
<svg version="1.1" id="Layer_1" xmlns="http://www.w3.org/2000/svg" xmlns:xlink="http://www.w3.org/1999/xlink" x="0px" y="0px"
	 viewBox="0 0 48.7 48.7" style="enable-background:new 0 0 48.7 48.7;" xml:space="preserve">
<style type="text/css">
	.st0{fill:#FFFFFF;}
</style>
<title>full-screen-icon</title>
<g>
	<path class="st0" d="M26.7,7.7v4.4h6.8l-8.1,8.1l3.1,3.1l8.1-8.1V22H41V11.2c0-1.9-1.6-3.5-3.5-3.5H26.7z"/>
	<path class="st0" d="M21.9,41v-4.4h-6.8l8.1-8.1l-3.1-3.1l-8.1,8.1v-6.8H7.7v10.7c0,1.9,1.6,3.5,3.5,3.5H21.9z"/>
	<path class="st0" d="M41.2,0H7.5C3.4,0,0,3.4,0,7.5v33.7c0,4.1,3.4,7.5,7.5,7.5h33.7c4.1,0,7.5-3.4,7.5-7.5V7.5
		C48.7,3.4,45.3,0,41.2,0z M43.7,41.2c0,1.4-1.1,2.5-2.5,2.5H7.5c-1.4,0-2.5-1.1-2.5-2.5V7.5C5,6.1,6.1,5,7.5,5h33.7
		c1.4,0,2.5,1.1,2.5,2.5V41.2z"/>
</g>
</svg>
