<?xml version="1.0" encoding="utf-8"?>
<!-- Generator: Adobe Illustrator 23.0.1, SVG Export Plug-In . SVG Version: 6.00 Build 0)  -->
<svg version="1.1" id="Layer_1" xmlns="http://www.w3.org/2000/svg" xmlns:xlink="http://www.w3.org/1999/xlink" x="0px" y="0px"
	 viewBox="0 0 48.7 48.7" style="enable-background:new 0 0 48.7 48.7;" xml:space="preserve">
<style type="text/css">
	.st0{fill:#FFFFFF;}
</style>
<title>minimize-window</title>
<g>
	<path class="st0" d="M23.5,0v6.1h14.9l-21,20.9l4.2,4.2l21-20.9v14.9h6V4.8c0-2.7-2.2-4.8-4.8-4.8H23.5z"/>
	<path class="st0" d="M41.2,48.7H7.5c-4.1,0-7.5-3.4-7.5-7.5V7.5C0,3.4,3.4,0,7.5,0h7.7v5H7.5C6.1,5,5,6.1,5,7.5v33.7
		c0,1.4,1.1,2.5,2.5,2.5h33.7c1.4,0,2.5-1.1,2.5-2.5v-7.7h5v7.7C48.7,45.3,45.3,48.7,41.2,48.7z"/>
</g>
</svg>
