<svg xmlns="http://www.w3.org/2000/svg" viewBox="0 0 17.98 18"><defs><style>.cls-1{fill:#fff;}</style></defs><title>save</title><g id="Layer_2" data-name="Layer 2"><g id="layer"><path class="cls-1" d="M9,18c-2.34,0-4.68,0-7,0a2.07,2.07,0,0,1-2-1.95c0-1.33,0-2.66,0-4,0-3.3,0-6.59,0-9.89A2.16,2.16,0,0,1,2.18,0C6,0,9.89,0,13.75,0A1.82,1.82,0,0,1,15,.36a14.15,14.15,0,0,1,2.8,2.88A1.29,1.29,0,0,1,18,4q0,6,0,12a1.91,1.91,0,0,1-2,2Zm6.19-1.82c.57,0,.82-.21.82-.76,0-2.31,0-3.41,0-5.73A.73.73,0,0,0,15.26,9H2.92C2.24,9,2,9.23,2,9.91c0,2.19,0,3.17,0,5.36,0,.68.23.9.89.91ZM8.64.62h0c-1.48,0-3,0-4.44,0a.74.74,0,0,0-.81.75c0,1.56,0,3.12,0,4.68,0,.68.27.91,1,.91h8.72A.79.79,0,0,0,14,6.09c0-1.53,0-3.07,0-4.6,0-.66-.22-.87-.88-.87C11.57.61,10.11.62,8.64.62Z"/><path class="cls-1" d="M12.39,6.15c-.6,0-1.17,0-1.74,0-.08,0-.21-.17-.21-.26,0-1.4,0-2.79,0-4.19,0-.1.15-.28.23-.28.56,0,1.12,0,1.71,0Z"/></g></g></svg>