<svg xmlns="http://www.w3.org/2000/svg" viewBox="0 0 25 26.79"><defs><style>.cls-1{fill:#fff;}</style></defs><title>nav-opened-icon</title><g id="Layer_2" data-name="Layer 2"><g id="layer"><path class="cls-1" d="M12.39,1.52c3.3,0,6.59,0,9.89,0C23.72,1.53,25,1.4,25,.75S23.69,0,22.25,0H2.72C1.31,0,0,.08,0,.76s1.33.76,2.73.76C6,1.51,9.17,1.52,12.39,1.52Z"/><path class="cls-1" d="M12.43,14.12h9.88c1.42,0,2.87-.12,2.61-.76a4.39,4.39,0,0,0-2.48-.72c-6.67-.07-13.34,0-20,0-1.34,0-2.46.17-2.43.79s1.23.73,2.54.72Z"/><path class="cls-1" d="M12.33,25.27H2.69c-1.37,0-2.9.07-2.59.75a4.35,4.35,0,0,0,2.43.73q10,.09,20,0a4.14,4.14,0,0,0,2.4-.76c.23-.57-1.12-.73-2.47-.72C19.08,25.28,15.71,25.27,12.33,25.27Z"/></g></g></svg>