<?xml version="1.0" encoding="utf-8"?>
<!-- Generator: Adobe Illustrator 24.2.3, SVG Export Plug-In . SVG Version: 6.00 Build 0)  -->
<svg version="1.1" id="Layer_1" xmlns="http://www.w3.org/2000/svg" xmlns:xlink="http://www.w3.org/1999/xlink" x="0px" y="0px"
	 viewBox="0 0 33.8 23.3" style="enable-background:new 0 0 33.8 23.3;" xml:space="preserve">
<style type="text/css">
	.st0{fill:#0C6D72;}
	.st1{fill:#FFFFFF;}
</style>
<g>
	<g>
		<path class="st0" d="M16.7,16c0.2,0.2,0.4,0.4,0.6,0.6c0.1,0.1,0.2,0.1,0.3,0.1c0.5-0.1,1,0,1.4,0.4c1.3,1.3,2.6,2.6,3.9,3.9
			c0.6,0.6,0.6,1.4,0.1,2c-0.5,0.5-1.4,0.5-2-0.1c-1.3-1.3-2.6-2.6-3.9-3.9c-0.4-0.4-0.6-0.8-0.4-1.4c0-0.1,0-0.2-0.1-0.3
			c-0.2-0.2-0.4-0.4-0.6-0.6c-2.4,2-5.2,2.8-8.2,2.2c-2.4-0.4-4.3-1.7-5.8-3.6C-0.9,11.5-0.5,6,3,2.7c3.6-3.5,9.3-3.6,13-0.3
			S20.4,11.8,16.7,16z M17.5,9.6c0-4.4-3.5-8-7.9-8s-8,3.5-8,7.9s3.5,8,7.8,8C13.9,17.5,17.5,14,17.5,9.6z"/>
		<path class="st0" d="M2.8,10.4c-0.3-4.1,3.5-7.9,7.5-7.6C6.8,4.3,4.3,6.8,2.8,10.4z"/>
	</g>
	<path class="st1" d="M32.5,18c-0.4,0.6-1.2,0.7-1.8,0.3l0,0l-4.2-3.1l-4.2,3.1c-0.6,0.4-1.4,0.3-1.8-0.3c-0.4-0.6-0.3-1.4,0.3-1.8
		l0,0l4.9-3.7c0.3-0.2,0.5-0.3,0.8-0.3s0.5,0.1,0.8,0.3l4.9,3.7C32.8,16.7,32.9,17.4,32.5,18L32.5,18z"/>
</g>
</svg>
