<svg xmlns="http://www.w3.org/2000/svg" viewBox="0 0 20.65 20.6"><defs><style>.cls-1{fill:#0c6d72;}</style></defs><title>pin</title><g id="Layer_2" data-name="Layer 2"><g id="layer"><path class="cls-1" d="M12.74,15.52a16.19,16.19,0,0,0-.92-1.36.92.92,0,0,1,0-1.38c.36-.39.66-.82,1-1.23,1.24-1.58,2.5-3.15,3.72-4.74.46-.61.94-.77,1.59-.32a4,4,0,0,0,.9.46c.67.24,1.11-.16,1.46-.63s-.12-.71-.37-1C18.47,3.67,16.78,2,15.11.3c-.41-.42-.7-.38-1.1,0-.72.72-.35,1.36,0,2,.52.94.5,1.07-.3,1.7-2,1.6-4,3.16-6,4.76a.86.86,0,0,1-1.19,0C6,8.47,5.47,8.09,4.91,7.76s-1.15-.12-1.61.52.13.75.39,1c.85.87,1.71,1.72,2.57,2.58a1.35,1.35,0,0,0-.43.31C4.75,13.57,3.69,15,2.64,16.39Q1.32,18.16,0,20c-.09.13,0,.4,0,.6.21,0,.47.07.6,0,.59-.38,1.14-.81,1.69-1.22,2.08-1.56,4.17-3.11,6.23-4.68a.61.61,0,0,0,.18-.3c.9.9,1.81,1.81,2.72,2.7.19.18.58.36.77.28A1.16,1.16,0,0,0,12.74,15.52Z"/></g></g></svg>