<svg xmlns="http://www.w3.org/2000/svg" viewBox="0 0 16.13 25"><defs><style>.cls-1{fill:#0c6d72;}</style></defs><title>unpin</title><g id="Layer_2" data-name="Layer 2"><g id="layer"><path class="cls-1" d="M2.66,14.45H2.8l7.61-7.61c-.13-1.09-.26-2.18-.4-3.26-.1-.76.12-1.21.9-1.36a4,4,0,0,0,1-.3c.64-.31.67-.9.58-1.48S11.87,0,11.51,0C9.13,0,6.76,0,4.38,0c-.6,0-.77.22-.78.78,0,1,.72,1.21,1.47,1.42,1,.29,1.12.39,1,1.41-.29,2.54-.61,5.08-.9,7.62a.86.86,0,0,1-.81.87c-.65.11-1.29.22-1.92.38s-.9.73-.77,1.51S2.29,14.44,2.66,14.45Z"/><path class="cls-1" d="M13.46,12.44c-.54-.11-1.07-.25-1.61-.31a.92.92,0,0,1-.94-1l0-.28-4.6,4.6c.2,1.59.42,3.18.65,4.76s.44,2.92.7,4.37c0,.15.27.29.42.43.14-.14.38-.28.41-.43.14-.69.24-1.37.33-2.06q.57-3.86,1.1-7.71a.62.62,0,0,0-.09-.34c1.28,0,2.56,0,3.84,0,.26,0,.66-.15.74-.34A1.17,1.17,0,0,0,13.46,12.44Z"/><rect class="cls-1" x="-2.76" y="10.84" width="21.65" height="1.16" transform="translate(-5.71 9.05) rotate(-45)"/></g></g></svg>