<svg xmlns="http://www.w3.org/2000/svg" viewBox="0 0 109.94 188.21"><defs><style>.cls-1{fill:#fff;}</style></defs><title>access-control</title><g id="Layer_2" data-name="Layer 2"><g id="layer"><g id="layer-2" data-name="layer"><path class="cls-1" d="M45,159.88H8.63C2,160,0,158.1,0,151.52V49.81c0-6.59,1.84-8.63,8.43-8.63H68.84c7.31,0,8.69,1.58,8.76,9v53.42c0,2-.73,2.3-2.51,2.3H53.42c-5.79,0-8.23,2.64-8.3,8.44v31.94ZM21,101.52V94.93A3.28,3.28,0,0,0,18,91.32a2.56,2.56,0,0,0-.62,0,48.64,48.64,0,0,0-5.4,0,3.23,3.23,0,0,0-3.51,2.93,3.19,3.19,0,0,0,0,.69v12.39a3.28,3.28,0,0,0,3,3.54,1.9,1.9,0,0,0,.34,0,54.76,54.76,0,0,0,5.73,0,3.36,3.36,0,0,0,3.5-3.21c0-.14,0-.27,0-.41Zm0-32.21V62.72a3.29,3.29,0,0,0-3.15-3.43,2.81,2.81,0,0,0-.41,0H11.92a3.28,3.28,0,0,0-3.49,3.08,3.68,3.68,0,0,0,0,.47V75.24a3.36,3.36,0,0,0,3,3.68,4.3,4.3,0,0,0,.62,0h5.47a3.23,3.23,0,0,0,3.37-3.09,2.67,2.67,0,0,0,0-.4q.14-3,0-6.13Z"/><path class="cls-1" d="M109.94,150.79V181c0,5-2.24,7.25-7.25,7.25H58.43c-5.14,0-7.38-2.24-7.38-7.38V121.55c0-6.59,2-8.24,8.3-8.24h42.82c5.79,0,7.77,2,7.77,7.91ZM102.3,180.7V121H80.76V180.7Zm-34.45,0V121.41H58.69V181Z"/><path class="cls-1" d="M40.12,0A48.12,48.12,0,0,1,73.78,14.5a16.57,16.57,0,0,1,1.78,2.38,4.29,4.29,0,0,1,0,5.66,4.81,4.81,0,0,1-6-1.12A40.11,40.11,0,0,0,41.76,7.79a35.87,35.87,0,0,0-27.6,9c-2.37,2-4.48,4.41-6.58,6.59C6.32,24.58,4.81,26,3,24.65a4.09,4.09,0,0,1-1-5.4,27.64,27.64,0,0,1,4-6.06A47.83,47.83,0,0,1,40.12,0Z"/><path class="cls-1" d="M37.74,16.48A30.88,30.88,0,0,1,60.08,26.89c2.17,2.5,2.23,4.81.39,6.59S56,34.73,53.88,32.09a18.09,18.09,0,0,0-26.94-2.44c-.85.86-1.51,1.91-2.37,2.84s-1.25,1.58-2,1.64a9.23,9.23,0,0,1-5.07-.39c-1.38-.79-1-4.22.46-6.13a27.18,27.18,0,0,1,12.26-9.29Q33.95,17.21,37.74,16.48Z"/></g></g></g></svg>