<svg xmlns="http://www.w3.org/2000/svg" viewBox="0 0 44.63 50"><defs><style>.cls-1{fill:#fff;}</style></defs><title>alarms</title><g id="Layer_2" data-name="Layer 2"><g id="layer"><path class="cls-1" d="M21.27,50a8,8,0,0,1-5.85-4.46c-.28-.6-.48-1.24-.76-2H10.11c-2.89,0-5.77,0-8.66-.05A1.83,1.83,0,0,1,0,42.6,1.74,1.74,0,0,1,.58,41c3-1.64,4.18-4.43,4.84-7.48A43.9,43.9,0,0,0,6.19,27c.2-3.05-.05-6.17.44-9.17.83-5,3.84-8.63,8.3-11A2.06,2.06,0,0,0,16.2,5.08,5.94,5.94,0,0,1,20.66.22c.21-.06.41-.15.61-.22h2a23.33,23.33,0,0,1,3.16,1.7,5.57,5.57,0,0,1,2,3.72,1.82,1.82,0,0,0,.8,1.11c6,3.17,9,8.15,9.1,14.88.07,3.26,0,6.53.36,9.75a25.81,25.81,0,0,0,1.76,6.13,6.59,6.59,0,0,0,3.24,3.52,1.41,1.41,0,0,1,.9,1.7c-.19.82-.83,1.05-1.61,1.05-4,0-7.92,0-11.88,0H29.82a8,8,0,0,1-4.09,5.53,20.66,20.66,0,0,1-2.46.91ZM35.76,33.06c-.09-4-.2-7.87-.25-11.78A13.24,13.24,0,0,0,9,20.34c-.1,4.23-.18,8.46-.27,12.72ZM5.46,40.68H39.07c-.68-1.38-1.29-2.72-2-4a1.45,1.45,0,0,0-1-.72q-13.83-.06-27.65,0a1.31,1.31,0,0,0-.95.62C6.77,37.9,6.15,39.27,5.46,40.68Zm21.33,3H17.72a4.79,4.79,0,0,0,4.62,3.54A4.75,4.75,0,0,0,26.79,43.65ZM25.41,5.09a3.25,3.25,0,0,0-3.24-2.28,3.13,3.13,0,0,0-3,2.28Z" transform="translate(0 0)"/><path class="cls-1" d="M11.27,20.22A11,11,0,0,1,21.78,9.77c1.16,0,1.8.41,1.88,1.27s-.5,1.36-1.65,1.5c-4.12.48-6.75,2.61-7.7,6.23a13,13,0,0,0-.24,1.64c-.12,1.2-.57,1.75-1.44,1.72S11.25,21.4,11.27,20.22Z" transform="translate(0 0)"/></g></g></svg>