<svg xmlns="http://www.w3.org/2000/svg" viewBox="0 0 477.58 495.94"><defs><style>.cls-1{fill:#fff;}</style></defs><title>announcement-integration</title><g id="Layer_2" data-name="Layer 2"><g id="layer"><path class="cls-1" d="M112.34,351.37C111,330.07,114.51,310,123.63,291c4.27-8.91,6.06-18,2.85-27.55-4.43-13.24-13.76-21.27-27.45-23.14s-25,3.38-32.59,15c-8.69,13.31-20.31,22.13-36.17,24-8.19,1-16.59.17-25.62.17C3.19,272.12,1.68,264.5,0,256c7.69,0,14.59.14,21.48-.06a40.77,40.77,0,0,0,10.83-1.38c9.51-3,15.85-9.41,19-19,3-9,6.28-11.36,15.62-11.65,28.06-.85,52.43-25.48,53.08-53.76.18-8.13,0-16.27,0-24.74,15.65,2.32,29.27,8.15,42,16.4,1.62,1,4.55,1.75,6.08,1,27.48-13.5,54.83-27.25,82.64-41.15-5.28-18.18-3-35.27,8.15-50.72,8-11.1,18.87-18.14,32.15-21.44,26-6.46,53.31,7.09,64.26,31.93a56.12,56.12,0,0,1-19.88,69c-20.73,14.13-54.79,14.91-77.62-14.34l-78.6,39.28c.37,1.1.71,2.11,1.11,3.28l-14,2.18c-14.53,2.3-26.08,12.29-29.14,25.94-3.45,15.39-.16,29,13,38.71,7,5.14,10.06,11.39,9.95,20-.34,27.55-1.41,24.78,18.41,44.33,1.54,1.52,3.3,2.81,5.19,4.41-1.85,2.34-3.24,4.08-4.71,5.92a9.75,9.75,0,0,0,1.32,1C206.1,334,231.84,346.87,258,360c11.58-15.1,26.68-23.76,46-24a53.91,53.91,0,0,1,35.89,12.93,56,56,0,0,1-54.62,95.81c-28-9.87-40.56-35.29-34.71-70.56-9.23-4.64-18.57-9.35-27.92-14-17.71-8.85-35.46-17.61-53.1-26.62-2.92-1.49-4.9-1.41-7.62.46A99,99,0,0,1,112.34,351.37ZM320.08,103.9a16,16,0,1,0-15.83,16A16.06,16.06,0,0,0,320.08,103.9Zm-16,304a16,16,0,1,0-16-16.26A16,16,0,0,0,304.08,407.94Z"/><path class="cls-1" d="M455.9,81.39V40.32h15.88v71.37H400.47V96.08h46C389.57,23.83,255.52-21,140.48,56.5l-9-13C183.1,9.07,239.24-5.23,300.53,1.7S413.2,35.74,455.9,81.39Z"/><path class="cls-1" d="M88,414.12V455.7H72.44V384.25h71.39V399.7h-46C153.53,470.87,283,515.3,398.14,442.87l8.68,13.37c-51.36,32.34-106.72,45.17-166.55,37.57S130.08,459.33,88,414.12Z"/><path class="cls-1" d="M103.2,144.29c0,10.82,1.26,21.45-.28,31.66-2.8,18.63-19,31.53-37.92,32-14,.34-24.14,7.94-28.52,21.46-2.42,7.49-6.48,10.5-14.32,10.54-6.66,0-13.31,0-20-.05a3.57,3.57,0,0,1-.93-.25C1.87,192.69,47,143,103.2,144.29Z"/><path class="cls-1" d="M95.38,351.6C58.49,347.43,31,329.13,11.73,296c3.56,0,6.26,0,9,0,25.35.3,45-10.09,58.79-31.4,5.38-8.29,14.79-10.9,23.06-6.63,7.95,4.11,12.22,14,8.28,22.15A148.49,148.49,0,0,0,96,350.17C96,350.47,95.76,350.76,95.38,351.6Z"/><path class="cls-1" d="M192.63,301.56c-4.94-5.09-9.77-9.68-14.09-14.71a12,12,0,0,1-2.34-6.78c-.34-5.48-.15-11-.1-16.49.1-12.59-4.91-22.7-15.15-29.9-8-5.65-10.3-13.34-8.37-22.31s8.19-13.77,17.17-15.06c6.59-.95,13.18-1.94,19.79-2.63a4.84,4.84,0,0,1,3.94,1.68C212.59,226.92,213.37,268.62,192.63,301.56Z"/><path class="cls-1" d="M429.94,439.44,419.78,427.1,436,412.33l11.23,11.35Z"/><path class="cls-1" d="M463.61,405.74l-12.39-10.12L464.39,378,477.58,387Z"/><path class="cls-1" d="M81.88,88.57c4.28,3.57,8.06,6.74,12.24,10.24l-13,17.12L68,106.82Z"/><path class="cls-1" d="M113,57.48c3.64,4.33,6.81,8.12,10.33,12.32-2.65,2.37-5.23,4.63-7.75,6.94s-4.8,4.5-7.3,6.85L97.13,72.1Z"/></g></g></svg>