<svg xmlns="http://www.w3.org/2000/svg" viewBox="0 0 45 33.74"><defs><style>.cls-1{fill:#fff;}</style></defs><title>bi-dashboards</title><g id="Layer_2" data-name="Layer 2"><g id="layer"><path class="cls-1" d="M45,29.17a1.13,1.13,0,0,1-1.26.83Q22.46,30,1.18,30A1.2,1.2,0,0,1,0,29.34V.69A1.21,1.21,0,0,1,1.25,0H43.73A1.21,1.21,0,0,1,45,.78Zm-1.94-1.08V1.94H1.89V28.09Z"/><path class="cls-1" d="M22.5,31.88h7.69a.92.92,0,0,1,1,.65.94.94,0,0,1-1,1.21H14.67a.94.94,0,0,1-.95-.94.92.92,0,0,1,1-.92H22.5Z"/><path class="cls-1" d="M33.7,16a5.79,5.79,0,0,1-5.55-5.65,5.6,5.6,0,1,1,11.2.15A5.77,5.77,0,0,1,33.7,16Zm.93-9.21a3.61,3.61,0,0,0-4.5,2.75,3.62,3.62,0,0,0,2.7,4.48c2,.42,4-.6,4.34-2.2a1.17,1.17,0,0,0-.2-.06c-1-.13-2-.26-3-.37s-1.46-.72-.91-1.74S34.1,7.8,34.63,6.82Zm.6,2.86,2.22.27a3.55,3.55,0,0,0-1.14-2.29Z"/><path class="cls-1" d="M20.58,15.06q0-4.12,0-8.25c0-.63.28-1,.77-1.11a.94.94,0,0,1,1.11,1c0,1.22,0,2.43,0,3.65q0,6.34,0,12.69c0,.1,0,.2,0,.31a.95.95,0,1,1-1.88,0c0-1.91,0-3.83,0-5.75V15.06Z"/><path class="cls-1" d="M16.85,17.88c0-1.86,0-3.72,0-5.58a.91.91,0,0,1,1.1-1,1,1,0,0,1,.76,1.08V23.33a1,1,0,0,1-.94,1.09c-.57,0-.93-.42-.93-1.1V17.88Z"/><path class="cls-1" d="M9.34,18.8c0-1.52,0-3.05,0-4.57a.94.94,0,0,1,1.42-.92,1,1,0,0,1,.46,1v8.87c0,.81-.34,1.26-1,1.26s-.94-.45-.94-1.28Z"/><path class="cls-1" d="M33.7,20.66H29.18c-.69,0-1.08-.35-1.08-.93s.41-.93,1.09-.93c3,0,6.08,0,9.12,0a.93.93,0,0,1,1,.66.89.89,0,0,1-.37,1,1.37,1.37,0,0,1-.66.16C36.74,20.67,35.22,20.66,33.7,20.66Z"/><path class="cls-1" d="M33.71,24.42H29.1a.92.92,0,0,1-.93-.59.81.81,0,0,1,.21-1,1.22,1.22,0,0,1,.7-.27c3.09,0,6.18,0,9.26,0a.92.92,0,0,1,1,.94.94.94,0,0,1-1,.93Z"/><path class="cls-1" d="M13.1,19.68c0-1.19,0-2.37,0-3.56a1,1,0,0,1,1-1.08A1,1,0,0,1,15,16.11q0,3.63,0,7.25A1,1,0,0,1,14,24.42a1,1,0,0,1-.94-1.09C13.09,22.11,13.1,20.9,13.1,19.68Z"/><path class="cls-1" d="M7.47,21.61c0,.59,0,1.19,0,1.79a.93.93,0,1,1-1.86,0V19.79a.93.93,0,1,1,1.86,0c0,.3,0,.61,0,.92Z"/></g></g></svg>