<svg xmlns="http://www.w3.org/2000/svg" viewBox="0 0 496.27 479.55"><defs><style>.cls-1{fill:#fff;}</style></defs><title>buying-behaviour</title><g id="Layer_2" data-name="Layer 2"><g id="layer"><path class="cls-1" d="M173.66,340.68H135.44c-8.21,0-10.62-2.46-10.62-10.79q0-62.25,0-124.5v-6.31H43.32v52.09H28.13c-.07-1-.26-2.43-.26-3.85q0-27.25,0-54.5c0-7.53,2.25-9.75,9.92-9.76q39.75,0,79.5,0h7c.51-4.93.57-9.44,1.48-13.78,5.12-24.66,26.69-43.11,51.82-43.39q55.74-.61,111.49,0c28.69.37,52.37,24.86,52.89,53.51,0,1.3.11,2.6.19,4.44H428.3c8.15,0,10.71,2.55,10.72,10.78q0,30.75,0,61.5c0,1.31-.11,2.62-.19,4.27H423.39v-60.6H342.83V329.17c0,8.92-2.63,11.51-11.67,11.5H294v6.59q0,60.51,0,121c0,8.92-2.35,11.29-11.24,11.29h-98c-9.11,0-11-1.94-11-11.23q0-59.76,0-119.5Z"/><path class="cls-1" d="M366.67,18.72c-5.56-1.2-9.75-2-13.91-3C347.48,14.5,345,10.77,346,5.87,347,1.54,351.12-.87,356.1.29c10.37,2.4,20.74,4.84,31.07,7.43,6.21,1.56,7.94,4.72,5.73,10.79-3.86,10.63-7.94,21.18-12,31.72-1.75,4.48-5.52,6.38-9.46,5.13C367,54,364.74,49.71,366.1,45c.91-3.15,2.1-6.22,3.48-10.27-1.92,1-3,1.49-4.06,2.12Q345.11,49.43,324.71,62c-5.8,3.59-8.52,3-12.29-2.81-5-7.85-10-15.76-14.95-23.64-.88-1.38-1.83-2.73-2.93-4.37l-10.61,6a48.29,48.29,0,0,1,1.75,28.42c-4.81,19.69-16.86,33.18-36.24,39.07s-36.72,1.15-51.79-12.47c-7.51-6.79-15.37-13.21-23.26-19.56-6.74-5.42-13.76-10.51-20.92-15.94-10,12.95-19.75,25.78-29.71,38.49-1.46,1.86-3.74,4.38-5.59,4.34-3.16-.07-7.1-1.12-9.19-3.25-2.63-2.66-1.36-6.52,1-9.56q13.86-18,27.69-36.07c2.34-3,4.57-6.17,7-9.09,3.73-4.39,6.56-4.63,11.16-1.19,7.84,5.87,15.65,11.76,24.37,18.3.77-25.83,11.6-44.63,35.63-53C239.72-2.73,260,4.51,276.27,23.88c5.14-3.15,10.2-6.3,15.31-9.37s8.16-2.29,11.32,2.64c6,9.37,11.92,18.81,18.14,28.63Z"/><path class="cls-1" d="M431,276.2c35.69-.2,65.17,28.9,65.3,64.46.14,36.16-29,65.76-65,66-35.21.19-65-29.49-65.16-64.85C365.94,306,395.22,276.41,431,276.2Zm.33,114.72c27.14,0,49.71-22.59,49.62-49.66s-22.68-49.52-49.83-49.51-49.66,22.65-49.57,49.72A49.87,49.87,0,0,0,431.29,390.92Z"/><path class="cls-1" d="M44.09,288.27c20.69,5,32.78,17.74,34.81,36.48.73,6.84-1.68,10.7-6.93,11.07-4.67.34-7.66-2-8.41-6.6-.42-2.62-.35-5.36-1-7.91-2.9-11.18-13.74-18.64-24.83-17.28a24.41,24.41,0,0,0-21.57,23.22c-.38,11.08,8,21.11,19.36,23.39a123.45,123.45,0,0,1,16,3.91c18.4,6.34,26.64,18.09,25.85,36.23-.76,17.63-12.49,32.48-29.48,36.54-3.76.9-5,2.23-4.65,5.87a77.45,77.45,0,0,1,0,10c-.21,4.73-3.07,7.51-7.52,7.56s-7.47-2.63-7.71-7.34a107.42,107.42,0,0,1,0-11.49c.2-3.14-1-4.55-3.89-5.86C9.2,419.41,1.13,407.79,0,391.54c-.41-6.08,2.45-9.57,7.39-9.78s7.32,2.55,7.9,8.73c1.73,18.72,19.69,28.76,35.52,19.87,9-5.07,13.28-14.71,11.29-25.59-1.74-9.56-9.86-16.37-21.38-18-4.6-.66-9.35-.94-13.73-2.35-14.84-4.75-24.68-17.91-25.67-33.59s8.33-31.51,22.73-38c3.52-1.59,4.77-3.37,4.47-7.05a80.63,80.63,0,0,1,0-11c.3-5.06,3.31-7.95,7.84-7.88s7.48,3.06,7.62,8.08C44.18,279.27,44.09,283.6,44.09,288.27Z"/><path class="cls-1" d="M406.74,418c16.85,5.42,32.78,4.89,49.62,0,1.22,12.22,3.45,23.92,3.26,35.59-.23,14.95-13.69,26.37-28.29,25.88-15.44-.52-27.56-12.68-27.16-28.13C404.46,440.48,405.81,429.59,406.74,418Z"/></g></g></svg>