<svg xmlns="http://www.w3.org/2000/svg" viewBox="0 0 180.68 129.58"><defs><style>.cls-1{fill:#fff;}</style></defs><title>camera-tampering</title><g id="Layer_2" data-name="Layer 2"><g id="layer"><path class="cls-1" d="M36.84,0c1.64,13.09,6.23,25.81,4.42,39.36-.33,2.5,1.11,5.48,2.38,7.89,1.42,2.67,1.46,4.39-1,6.41a5.87,5.87,0,0,0-1.89,4.53c2.1,15.65,4.51,31.26,6.67,46.91.4,2.92,0,5.94,0,8.92l-2.2.33A69.6,69.6,0,0,1,43,106C40.52,89.54,38.24,73.06,35.9,56.6c0-.32-.18-.63-.42-1.49-5.69.59-6.4-2.35-5-7.36.61-2.19-.27-4.87-.73-7.27C27.52,28.8,25.08,17.15,23,5.44,22.74,3.78,24.19,1.82,24.84,0Z"/><path class="cls-1" d="M115.25,129.17c-15,0-30,.15-45-.14a13.09,13.09,0,0,1-7.83-3C50.91,115.65,51,115.54,51,100.19c0-16.32-.13-32.65.14-49,0-2.44,1.6-5.12,3.1-7.24,9.44-13.35,24.06-14.22,38.46-16,22.74-2.85,45.19-.87,67.48,3.59,3.62.72,7,3.31,10.17,5.46,8.12,5.46,10.8,12.89,10.25,22.91-.93,17.11-.13,34.3-.39,51.45,0,2.46-1.46,5.24-3,7.25-6.83,8.8-15.72,11.79-27,10.79C138.64,128.37,126.91,129.17,115.25,129.17ZM55.84,77.24c0,8.2.53,15.9-.14,23.5-.74,8.44,1.24,15,8.26,20.28,3,2.24,5.52,3.59,9.26,3.57,26-.13,52-.56,77.91.19,9.58.27,16.72-2.37,22.54-9.49.88-1.08,1.89-2.48,1.9-3.74.15-11.31.09-22.62.09-33.93l-1.06.63c-1.64-2-4.74-4-4.56-5.81.27-2.59,2.88-4.93,4.5-7.38,1.13-2.89,1.13-6.38,1.13-9.88,0-7.21-8.81-17.57-16-19.06-28.89-6-57.78-6.34-86.69-.21-7.74,1.64-11.48,8.55-16.85,13.3-.37.33-.28,1.26-.29,1.91,0,5.14,0,10.28,0,15.6,3.83,0,6.71,1.15,6.73,5.14S59.57,77,55.84,77.24Z"/><path class="cls-1" d="M0,106.7,19.77,99c1.77,3.68,3.39,7.07,5.26,11,7.37-6.65,10.5.82,15,4.45-5.72-3.33-11.06-1.8-16.48.56-.65.29-2.78-1.08-3.12-2.06-2.08-6-6-7.49-11.9-6.05-2.65.65-5.52.43-8.28.61Z"/><path class="cls-1" d="M23.24,94.79c-1-5.84-3-11-10.37-13.07,8.54-.82,9.9,0,14.79,7.94l7.85-1.27,3.31,15.28A18.49,18.49,0,0,1,37,101.46C32.62,93.46,32.63,93.45,23.24,94.79Z"/><path class="cls-1" d="M90.84,36.25V96.91a50.21,50.21,0,0,0,.09,5.49c.61,5.65,3.42,9.3,9,9.66,10.11.67,20.28.93,30.4.6,6.07-.2,9.95-5.47,10-12.22.19-19.82.24-39.64.35-59.47,0-1.79,0-3.59,0-5.25,3.52-1.22,4.73-.24,4.7,3-.2,21.32-.21,42.63-.46,63.94-.09,7-5.31,13.89-12.28,14.26a266.71,266.71,0,0,1-35.31-.52c-6.9-.56-11.18-7-11.24-15-.18-20.66,0-41.33-.12-62C85.94,36,87.36,35.34,90.84,36.25Z"/><path class="cls-1" d="M94.67,85.16c0-5.82-.35-11.68.19-17.45.2-2.15,2-5.1,3.9-6,11.13-5.19,22.56-5.37,33.69,0,1.94.93,4.12,3.77,4.19,5.8.39,12,.22,24,.18,35.94,0,3.78-2,6-5.82,6q-15.23.09-30.45,0c-4.17,0-6-2.26-5.9-6.33C94.73,97.14,94.67,91.15,94.67,85.16Zm36.7,19.41a5.87,5.87,0,0,0,.53-1.37Q132,90,132,76.79c0-11.26-2.06-13.43-13.48-13.92a50.35,50.35,0,0,0-8,.18c-9.76,1.11-11.22,2.8-11.25,12.51v29Z"/><path class="cls-1" d="M115.8,41c-5,0-10,.13-14.93-.1-1.14,0-2.22-1.35-3.33-2.07,1.14-.88,2.26-2.5,3.41-2.52q14.68-.31,29.37,0c1.2,0,2.38,1.55,3.57,2.38-1.22.77-2.4,2.15-3.66,2.22C125.43,41.15,120.61,41,115.8,41Z"/><path class="cls-1" d="M115.72,56c-4.81,0-9.63.15-14.43-.11-1.28-.07-2.5-1.39-3.76-2.14,1.17-.86,2.32-2.43,3.5-2.46q14.67-.3,29.36,0c1.18,0,2.33,1.6,3.5,2.45-1.25.75-2.46,2.08-3.74,2.15C125.35,56.15,120.54,56,115.72,56Z"/><path class="cls-1" d="M115.56,43.83c4.83,0,9.66-.15,14.48.1,1.3.07,2.54,1.33,3.81,2-1.17.84-2.33,2.38-3.52,2.4-9.82.19-19.65.16-29.47,0-1.11,0-2.21-1.4-3.32-2.15,1.18-.79,2.33-2.19,3.54-2.26C105.9,43.68,110.73,43.84,115.56,43.83Z"/><path class="cls-1" d="M129.66,80.15a13.86,13.86,0,0,1-13.91,14,13.7,13.7,0,0,1-14-13.81,14,14,0,1,1,28-.2Zm-4.83.35A9.58,9.58,0,0,0,115.77,71a9.34,9.34,0,0,0-9.23,9.25,9.2,9.2,0,0,0,8.75,9.17A9.43,9.43,0,0,0,124.83,80.5Z"/></g></g></svg>