<svg xmlns="http://www.w3.org/2000/svg" viewBox="0 0 186.07 164.02"><defs><style>.cls-1{fill:#fff;}</style></defs><title>cash-register</title><g id="Layer_2" data-name="Layer 2"><g id="layer"><path class="cls-1" d="M168.24,92v9.72c1.3.11,2.56.19,3.81.33,6.79.75,11.79,5.73,11.9,12.57q.31,18.23,0,36.47c-.13,8-5.83,12.9-14.63,12.9Q93.16,164,17,164c-1.16,0-2.33,0-3.49,0C5.38,163.75.13,158.51.06,150.35c-.1-11,0-22,0-33C.05,107,5,102,15.24,102q60.45,0,120.91,0h5.62V92.38c-1.17-.12-2.43-.32-3.68-.36-8.84-.28-13.94-5.33-14-14-.06-5-.13-10,0-15,.23-7.52,5.51-12.85,13.06-12.94,12-.15,24-.17,36,0,7.49.1,12.68,5.52,12.9,13.1.13,4.66.05,9.32,0,14Q185.95,91.71,171.29,92C170.46,92,169.63,92,168.24,92ZM92.05,158q38.48,0,77,0c6.62,0,9-2.41,9-9q.06-16.25,0-32.48c0-6-2.55-8.46-8.57-8.46Q92,108,14.54,108c-6,0-8.46,2.51-8.49,8.52-.06,10.66,0,21.32,0,32,0,7.25,2.24,9.47,9.56,9.48Q53.84,158,92.05,158Zm62.81-72c5.66,0,11.31.07,17,0,5.45-.08,8-2.56,8.17-7.84.12-4.82.13-9.65,0-14.47-.13-5-2.72-7.59-7.84-7.63q-17.21-.15-34.43,0c-5,.05-7.55,2.7-7.66,7.81-.11,4.65-.09,9.31,0,14,.1,5.62,2.62,8.09,8.34,8.17C143.88,86.07,149.37,86,154.86,86Zm-6.47,6.21v9.39h13.37V92.22Z"/><path class="cls-1" d="M65.1,0c11.49,0,23,0,34.46,0,9.3,0,14.44,5.22,14.46,14.6q0,34.47,0,68.93C114,92.83,108.78,98,99.41,98q-34.47.06-68.93,0C21.19,98,16.05,92.77,16,83.39q0-34.45,0-68.92C16.06,5.16,21.25.06,30.64,0,42.13,0,53.61,0,65.1,0Zm0,6c-11.33,0-22.65,0-34,0-6.65,0-9,2.37-9,9Q22,49,22,83c0,6.63,2.38,9,9,9Q65,92,99,92c6.63,0,9-2.4,9-9q0-34,0-67.94c0-6.65-2.39-9-9-9C87.69,6,76.37,6,65.05,6Z"/><path class="cls-1" d="M20.25,145.68v-7.41H165.81v7.41Z"/><path class="cls-1" d="M33.48,124.2c-2.2,1.48-4.45,4.19-6.58,4.09-1.92-.09-4.81-3-5.29-5.11a4.61,4.61,0,0,1,5.26-5.61c2.35.31,4.42,2.75,6.61,4.24Z"/><path class="cls-1" d="M171.23,67.91H136.6C135.51,65.34,135.79,64,139,64c10,.08,20-.05,30,.13,1.16,0,2.29,1.51,3.43,2.31Z"/><path class="cls-1" d="M136.84,74.12h22.61c1.16,2.63.79,4-2.44,3.92-6-.1-12,.1-18-.14-1.16-.05-2.27-1.51-3.41-2.32Z"/><path class="cls-1" d="M32,48c0-7.16-.06-14.32,0-21.48.07-6.91,3.58-10.47,10.48-10.5q21.48-.1,43,0C92.38,16.07,96,19.63,96,26.52q.1,21.47,0,43C96,76.35,92.38,80,85.51,80Q64,80.1,42.56,80c-6.9,0-10.44-3.61-10.51-10.49C32,62.34,32,55.18,32,48ZM64,74c7,0,14-.08,21,0,3.58.06,5.13-1.42,5.11-5q-.12-21,0-41.92c0-3.58-1.43-5.12-5-5.1q-21,.12-41.91,0C39.51,22,38,23.39,38,27q.12,21,0,41.91c0,3.58,1.41,5.17,5,5.11C50,73.93,57,74,64,74Z"/></g></g></svg>