<svg xmlns="http://www.w3.org/2000/svg" viewBox="0 0 597.6 488"><defs><style>.cls-1{fill:#fff;}</style></defs><title>contextual-data</title><g id="Layer_2" data-name="Layer 2"><g id="layer"><path class="cls-1" d="M400,488c-7.7-7.79-15.58-15.41-23.07-23.4-18.66-19.9-35.47-41.17-46.54-66.36-13.45-30.58-12.06-60.11,9.89-86.21C361.34,287,389.32,277.68,421.13,285c32.26,7.38,52.85,28.36,61.21,60.55,4.19,16.17.77,31.75-5.69,46.75-9.47,22-23.39,41.1-39.34,58.67C425.69,463.73,413.12,475.67,401,488Zm3.22-162.31a40.71,40.71,0,1,0,40.64,40.8A40.8,40.8,0,0,0,403.19,325.69Z"/><path class="cls-1" d="M286,0c1.38.53,2.75,1.07,4.14,1.57C302.46,6.05,309.35,18.25,307,31.41c-2.19,12-13.11,20.93-25.64,20.88-13,0-23.4-9-25.69-22C253.47,18,260.78,5.79,272.79,1.52L277,0Z"/><path class="cls-1" d="M297.39,303.5H265.92c-1.31-11-2.47-21.94-3.93-32.8-3.6-26.88-7.12-53.79-11.2-80.6-.85-5.6-3.49-11.09-6.09-16.24-19.75-39-16.09-28.59-14.65-66.48.33-8.65.44-17.36,1.69-25.9,1.86-12.76,8.74-19.66,21.59-20.18,18.95-.77,38-.81,56.91,0C323.57,61.88,331,69.69,332,83q2,25.4,2.61,50.89c.12,4.81-1.62,9.83-3.31,14.45a83.24,83.24,0,0,1-7.17,14.81c-9.48,15.41-13.21,32.42-15.29,50.12C305.32,243.18,301.29,273,297.39,303.5Z"/><path class="cls-1" d="M49.72,385.68C31.19,368.12,14.26,350.25,4.53,327c-13.09-31.23,3.21-63.07,35.67-70.46,29.62-6.74,59.52,14.16,62.09,44.39.64,7.59-1.42,16-4.26,23.2-8,20.37-22.62,36.26-37.75,51.61C57,379,53.54,382.09,49.72,385.68Zm1.66-103.07a25.81,25.81,0,1,0,25.69,26.17A25.84,25.84,0,0,0,51.38,282.61Z"/><path class="cls-1" d="M92.28,361.23c5.94-10.11,10.82-18.6,16-26.92a4.77,4.77,0,0,1,4.21-1.57c60.78,18.53,123.18,22.35,186.19,20.71,2.3-.06,4.6,0,7.77,0,0,7.9.09,15.65,0,23.4-.13,9.77,1.73,8.84-9.15,8.88A966.3,966.3,0,0,1,155,375.61C134.19,372.58,113.9,366.3,92.28,361.23Z"/><path class="cls-1" d="M501.65,350.4c-6.28-13-12.11-24.55-17.4-36.35-1.51-3.38-1.22-7.52-2.12-11.23a30,30,0,0,0-12.49-18c-14.32-10.09-30.8-14.06-47.59-16.76-31.89-5.13-64.09-4.15-96.24-4-1.8,0-3.6,0-5.86,0,.78-4.73,1.23-9,2.35-13.12.26-.95,2.81-1.83,4.29-1.82,23.15.19,46.31.23,69.45.93,24,.73,47.79,3.58,71,10,17.71,4.92,34,12.56,47.68,25.14,14.52,13.34,16.42,30.72,4.37,46.31C514.06,338,507.91,343.68,501.65,350.4Z"/><path class="cls-1" d="M554,312.4c-15.08-14.1-28.61-28.57-36.75-47.08-11.2-25.49.9-51.63,26.79-58.67a42.3,42.3,0,0,1,53.32,35.72c.91,7.7-1.23,14.89-4.48,21.73C583.85,283.1,569.62,298,554,312.4Zm1.33-42.3A21.27,21.27,0,1,0,533.93,249,21.3,21.3,0,0,0,555.36,270.1Z"/><path class="cls-1" d="M115.74,289.41c-2.19-5.33-4-9.75-6-14.72,43.8-17.4,89.23-23.64,136-25.16l2.34,16.52C202.76,267,158.4,272.25,115.74,289.41Z"/><path class="cls-1" d="M177.34,237.41c-8.93-8.21-16.94-16.79-20.73-28.39a21.39,21.39,0,0,1,8.78-24.5,22.79,22.79,0,0,1,27,1.43c7.74,6.49,10,15.75,5.8,25.2C193.58,221.58,185.91,229.6,177.34,237.41Zm11.83-33.73A11.21,11.21,0,1,0,177.9,215.1,11,11,0,0,0,189.17,203.68Z"/><path class="cls-1" d="M391.07,237.49c-8.74-8.2-16.54-16.52-20.47-27.68a21.3,21.3,0,0,1,6.25-23.56,23,23,0,0,1,24.79-3.2c8,4,12.9,12,12.27,20.57a20.88,20.88,0,0,1-1.45,6.28C407.94,221,399.88,229.24,391.07,237.49ZM392,215.1a11.24,11.24,0,1,0-11.55-11.25A11.26,11.26,0,0,0,392,215.1Z"/></g></g></svg>