<svg xmlns="http://www.w3.org/2000/svg" viewBox="0 0 50 45.11"><defs><style>.cls-1{fill:#fff;}</style></defs><title>crowd-detection</title><g id="Layer_2" data-name="Layer 2"><g id="layer"><path class="cls-1" d="M29.42,17a5.79,5.79,0,0,0-.12.82q0,12.74,0,25.48A1.56,1.56,0,0,1,28,45a1.53,1.53,0,0,1-1.85-.85,2.09,2.09,0,0,1-.19-.87q-.3-6.69-.59-13.38a1.39,1.39,0,0,0,0-.5,4.26,4.26,0,0,0-.35-.62c-.13.22-.37.43-.39.66-.16,3.15-.28,6.31-.42,9.46-.06,1.44-.13,2.88-.19,4.33a1.75,1.75,0,0,1-1.7,1.85c-1,0-1.59-.73-1.59-1.91,0-5,0-10.08,0-15.11,0-3.49,0-7,0-10.47a2.19,2.19,0,0,0-.17-.59l-.26,0c-.15,1.27-.3,2.54-.44,3.81-.21,2.11-.42,4.21-.62,6.32-.09.95-.54,1.45-1.32,1.42S16.6,28,16.63,27.05c0-1.44.11-2.88.18-4.32.1-2.15.34-4.29.29-6.43C17,11.2,22.15,7.55,27.19,9a7.41,7.41,0,0,1,5.68,7.37c.1,3.59.27,7.18.43,10.77a1.27,1.27,0,0,1-.93,1.46c-.77.23-1.43-.27-1.54-1.26-.23-1.93-.39-3.87-.59-5.81-.14-1.48-.31-2.95-.46-4.43Z"/><path class="cls-1" d="M10.62,18c-.11.76-.25,1.52-.33,2.28-.21,2.1-.34,4.21-.63,6.3a1.57,1.57,0,0,1-1,1c-.6.13-1-.33-1-1,.15-3.56.14-7.13.52-10.65.32-2.93,3.35-5,6.57-4.88a23.41,23.41,0,0,1,3,.53c-1.85,2.64-1.37,5.48-1.59,8.18-.2,2.47-.19,5-.28,7.44,0,1.28.59,2,2.27,2.35,0,3.47,0,7,0,10.44a1.26,1.26,0,0,1-1.35,1.32,1.41,1.41,0,0,1-1.44-1.48c-.15-3.58-.29-7.17-.44-10.76,0-.43-.11-.86-.17-1.29H14.4c-.05.33-.13.66-.15,1Q14,34.17,13.74,39.6c-.06,1.13-.51,1.69-1.4,1.71S11,40.71,11,39.59q0-10.12,0-20.24V18Z"/><path class="cls-1" d="M39,18c0,2,0,4,0,6q0,7.7,0,15.4c0,.42,0,1-.24,1.23a2.17,2.17,0,0,1-1.47.56c-.67-.07-1-.63-1-1.38-.15-3.72-.35-7.44-.53-11.16,0-.31,0-.63-.06-.94l-.34-.06a4.2,4.2,0,0,0-.22.88c-.16,3.65-.29,7.31-.44,11,0,.3,0,.72-.16.86a3.17,3.17,0,0,1-1.52.86c-.68,0-1.12-.53-1.12-1.28V29.56c.35-.12.79-.13,1-.35.47-.5,1.2-1.12,1.19-1.68q-.16-6.53-.61-13a11.45,11.45,0,0,0-.93-2.75c3.32-2.26,9.1.49,9.39,4.62.23,3.25.3,6.5.43,9.76,0,.72-.06,1.42-1,1.46s-1-.57-1.1-1.27c-.24-2.47-.5-4.93-.76-7.4,0-.3-.08-.6-.12-.91Z"/><path class="cls-1" d="M44.1,26.85a4.15,4.15,0,0,0-.15.7c-.14,3.05-.29,6.1-.39,9.15,0,.82-.28,1.41-1.16,1.43s-1.15-.6-1.14-1.41c0-2.72,0-5.43,0-8.14,1.78-.78,1.93-.95,1.87-2.93-.1-3.09-.21-6.17-.43-9.25a14.67,14.67,0,0,0-.81-2.9c2.87-1.78,7.39.39,7.7,3.89.23,2.68.27,5.36.39,8,0,.66-.05,1.32-.85,1.31s-.89-.69-1-1.31c-.2-2.11-.41-4.21-.61-6.31,0-.11-.07-.23-.32-.35,0,.34-.06.67-.06,1q0,8.25,0,16.51c0,.2,0,.4,0,.6a1.05,1.05,0,0,1-1.1,1.26c-.75,0-1.14-.42-1.17-1.21-.1-2.71-.23-5.43-.36-8.14,0-.65-.09-1.3-.14-1.94Z"/><path class="cls-1" d="M8,13.44A25.63,25.63,0,0,0,7.24,17C7,20,7,22.92,6.86,25.87c-.07,1.68.23,2.1,1.85,2.67q0,4.25,0,8.52a1,1,0,0,1-1.07,1.07A1.08,1.08,0,0,1,6.44,37c-.11-3-.25-5.9-.38-8.84,0-.42-.08-.83-.12-1.24l-.29,0a5.33,5.33,0,0,0-.17.85q-.21,4.43-.4,8.85c0,1.13-.41,1.64-1.2,1.6-1.1-.07-1.08-.87-1.08-1.69,0-5.57,0-11.14,0-16.71,0-.31,0-.63-.06-.94l-.25,0c-.14,1.26-.29,2.52-.42,3.78-.1,1-.16,1.93-.26,2.9-.07.61-.18,1.31-1,1.28S0,26,0,25.39c.09-2.45.13-4.9.28-7.34A5.35,5.35,0,0,1,8,13.44Z"/><path class="cls-1" d="M25,7.86a3.9,3.9,0,0,1-3.92-4A4,4,0,0,1,25,0a4,4,0,0,1,4,4A3.85,3.85,0,0,1,25,7.86Z"/><path class="cls-1" d="M35.42,10.32A3.26,3.26,0,1,1,38.71,7,3.23,3.23,0,0,1,35.42,10.32Z"/><path class="cls-1" d="M11.3,7a3.26,3.26,0,0,1,6.51.12,3.19,3.19,0,0,1-3.37,3.21A3.17,3.17,0,0,1,11.3,7Z"/><path class="cls-1" d="M3,9.64a2.72,2.72,0,1,1,2.73,2.75A2.71,2.71,0,0,1,3,9.64Z"/><path class="cls-1" d="M41.52,9.64a2.71,2.71,0,0,1,2.65-2.71,2.73,2.73,0,1,1,0,5.45A2.68,2.68,0,0,1,41.52,9.64Z"/></g></g></svg>