<?xml version="1.0" encoding="utf-8"?>
<!-- Generator: Adobe Illustrator 23.0.1, SVG Export Plug-In . SVG Version: 6.00 Build 0)  -->
<svg version="1.1" id="Layer_1" xmlns="http://www.w3.org/2000/svg" xmlns:xlink="http://www.w3.org/1999/xlink" x="0px" y="0px"
	 viewBox="0 0 309.7 285" style="enable-background:new 0 0 309.7 285;" xml:space="preserve">
<style type="text/css">
	.st0{fill:#FFFFFF;}
</style>
<title>ecosystem</title>
<g>
	<g id="Layer_1-2">
		<path class="st0" d="M288.2,0c3.4,1.6,7.1,2.7,10.2,4.8c12,7.9,15.4,24.1,7.4,36.1c-7.7,11.8-23.4,15.3-35.4,7.9
			c-0.4-0.2-0.9-0.4-1.4-0.7c-0.5,0.4-1.1,0.8-1.6,1.3l-44.1,39c34,29.5,34.1,74.3,14.1,103.5c-17.6,25.7-59.6,47.1-104.4,22
			l-24.7,34.7c8.7,12.9,5.1,30.7-14.1,36.4h-8c-4.4-2.8-9.5-4.9-13-8.5c-6.7-6.9-7-17.9-2-25.9c5.1-8.3,15.1-12.3,24.5-9.8
			c0.6,0.1,1.2,0.1,1.8,0.1l24.6-34.5c-4.6-5.8-9.4-11-13.3-16.9c-11.6-17.8-14.4-37.4-10.3-58.1c0.6-3.3-0.4-4.1-2.7-5.1
			c-15.3-7-30.7-14.1-46.2-21.2c-6.5,6.7-14.1,10.6-23.8,10.2C12.2,114.6-0.6,101.9,0,87c0.6-14.4,12-26.8,26-27
			c17.3-0.3,29.4,11.5,29.1,28.7c-0.1,3.4,1.1,5,4,6.3c14.7,6.5,29.2,13.3,43.8,20c0.2,0,0.3,0,0.5,0c23.2-45.8,75-53.5,108.6-34.2
			l48.2-42.7c-4.6-9.6-3.6-18.7,2.2-27.3c4.1-6,10.3-8.6,16.8-10.8H288.2z M217.5,194c18.4-14.7,25.4-44.9,16.4-68.5
			c-10-26.9-36.9-43.8-65.5-41.3c-26.8,2.2-50,22.1-56.9,49.1c-5.8,22.6,4.3,52.3,21.2,62.8c-0.9-9.1,1.6-16.9,8.2-23.5
			s15.1-7.9,24.8-7.7c-13.5-8.6-18.1-17.6-15.4-29.2c2.3-9.8,11.8-18,22.8-18.3c8.4-0.3,18.5,3.6,22.8,14.7
			c5.8,14.6-0.3,25.1-13.6,32.7C207.6,166.3,216.8,173.9,217.5,194z M27.5,102c8,0.1,14.6-6.3,14.7-14.4c0,0,0,0,0,0
			c-0.1-8-6.5-14.5-14.4-14.6c-8,0.2-14.3,6.9-14.1,14.9C13.9,95.5,19.9,101.7,27.5,102z M296.2,26c0-7.1-5.7-12.9-12.8-12.9
			c0,0-0.1,0-0.1,0c-6.7,0.1-13.1,6.7-13,13.2c0.3,7.1,6.1,12.7,13.3,12.7C290.9,39,296.3,33.5,296.2,26z M99.4,262.5
			c0.2-5-3.6-9.3-8.7-9.5c-5-0.2-9.3,3.6-9.5,8.7c0,0.3,0,0.6,0,0.9c0.1,5,4.1,9.1,9.2,9.3C95.2,271.9,99.3,267.6,99.4,262.5z"/>
	</g>
</g>
</svg>
