<?xml version="1.0" encoding="utf-8"?>
<!-- Generator: Adobe Illustrator 23.0.1, SVG Export Plug-In . SVG Version: 6.00 Build 0)  -->
<svg version="1.1" id="Layer_1" xmlns="http://www.w3.org/2000/svg" xmlns:xlink="http://www.w3.org/1999/xlink" x="0px" y="0px"
	 viewBox="0 0 42.8 42.8" style="enable-background:new 0 0 42.8 42.8;" xml:space="preserve">
<style type="text/css">
	.st0{fill:#FFFFFF;}
</style>
<title>Asset 23</title>
<g>
	<path class="st0" d="M14.2,24.9c0-7.9,6.4-14.3,14.3-14.3S42.8,17,42.8,24.9s-6.4,14.3-14.3,14.3C20.5,39.2,14.2,32.8,14.2,24.9z
		 M28.4,36.8c6.6,0,11.9-5.3,11.9-11.9S35,13,28.4,13c-6.5,0-11.9,5.3-11.9,11.9C16.5,31.5,21.9,36.8,28.4,36.8z"/>
	<path class="st0" d="M35.6,10.6c-0.4,0-0.8,0-1.2,0c0-0.4,0-0.7,0-1c0-0.3,0-0.7,0-1c0-0.2-0.1-0.3-0.3-0.3c-3,0-6,0-9,0
		c-0.5,0-1-0.1-1.4-0.3c-0.8-0.5-1.2-1.2-1.2-2.1c0-1.4,0-2.9,0-4.3c0-0.1,0-0.2,0-0.4c-0.1,0-0.2,0-0.3,0c-6.6,0-13.2,0-19.8,0
		c-0.8,0-1.3,0.5-1.3,1.3c0,12.6,0,25.2,0,37.8c0,0.8,0.5,1.3,1.3,1.3c10.2,0,20.5,0,30.7,0c0.8,0,1.3-0.5,1.3-1.3
		c0-0.3,0-0.6,0-0.9c0-0.2,0-0.2,0.2-0.2c0.3,0,0.5,0,0.8,0c0.1,0,0.2,0.1,0.2,0.2c0,0.5,0,1,0,1.4c-0.1,1.1-1.1,2-2.3,2
		c-1.8,0-3.7,0-5.5,0c-6.1,0-12.1,0-18.2,0c-2.4,0-4.8,0-7.2,0c-1.4,0-2.4-1-2.4-2.4c0-5.3,0-10.5,0-15.8c0-6.1,0-12.1,0-18.2
		c0-1.3,0-2.7,0-4C0,1,1,0,2.4,0C8,0,13.7,0,19.3,0c1.3,0,2.5,0,3.8,0c0.5,0,1,0.1,1.4,0.4c3.4,2,6.7,4,10.1,6
		c0.7,0.4,1.1,1,1.2,1.8C35.6,9,35.6,9.8,35.6,10.6z"/>
	<path class="st0" d="M4.6,8.2c0-0.8,0-1.6,0-2.3c5.2,0,10.3,0,15.5,0c0,0.8,0,1.5,0,2.3C15,8.2,9.8,8.2,4.6,8.2z"/>
	<path class="st0" d="M4.6,34.5c3.6,0,7.1,0,10.7,0c0,0.8,0,1.6,0,2.4c-3.6,0-7.1,0-10.7,0C4.6,36,4.6,35.3,4.6,34.5z"/>
	<path class="st0" d="M14.1,17.8c-3.2,0-6.3,0-9.5,0c0-0.8,0-1.5,0-2.3c3.2,0,6.3,0,9.5,0C14.1,16.2,14.1,17,14.1,17.8z"/>
	<path class="st0" d="M11.8,25c0,0.8,0,1.5,0,2.3c-2.4,0-4.7,0-7.1,0c0-0.8,0-1.5,0-2.3C7,25,9.4,25,11.8,25z"/>
	<path class="st0" d="M27.3,20.8c0-1.4,0-2.8,0-4.2c0-0.9,1-1.5,1.8-1.1c0.3,0.2,0.5,0.5,0.6,0.9c0,0.2,0,0.3,0,0.5
		c0,2.2,0,4.4,0,6.5c0,0.2,0.1,0.3,0.3,0.3c1.9,0,3.7,0,5.6,0c0.6,0,1.1,0.3,1.2,0.8c0.2,0.8-0.3,1.5-1.2,1.5c-1.9,0-3.8,0-5.7,0
		c-0.5,0-0.9,0-1.4,0c-0.7,0-1.2-0.5-1.2-1.2C27.2,23.5,27.2,22.2,27.3,20.8C27.2,20.8,27.2,20.8,27.3,20.8z"/>
</g>
</svg>
