<?xml version="1.0" encoding="utf-8"?>
<!-- Generator: Adobe Illustrator 24.2.2, SVG Export Plug-In . SVG Version: 6.00 Build 0)  -->
<svg version="1.1" id="Layer_1" xmlns="http://www.w3.org/2000/svg" xmlns:xlink="http://www.w3.org/1999/xlink" x="0px" y="0px"
	 viewBox="0 0 105.5 87.5" style="enable-background:new 0 0 105.5 87.5;" xml:space="preserve">
<style type="text/css">
	.st0{fill:#FFFFFF;}
</style>
<g>
	<path class="st0" d="M15.5,62c-0.8-0.1-1.6-0.1-2.3-0.2c-1.8-0.2-3.2-1.6-3.5-3.3c-0.3-1.5-0.3-3.1-0.1-4.6
		c0.2-1.6,1.2-2.4,2.7-2.4c1.5,0,2.3,0.8,2.7,2.4c0.2,0.8-0.3,1.8,0.4,2.3c0.6,0.4,1.5,0.2,2.3,0.3c1.5,0.2,2.4,1.2,2.3,2.6
		c0,1.4-0.9,2.4-2.4,2.7C16.8,61.9,16.1,61.9,15.5,62z"/>
	<path class="st0" d="M97.1,56c0,0.6,0,1.2,0,1.8c-0.2,2.2-1.8,3.8-4,4.1c-1.3,0.1-2.7,0.2-4,0c-1.5-0.2-2.5-1.3-2.5-2.7
		c0-1.3,0.9-2.4,2.4-2.7c0.6-0.1,1.2-0.1,1.8-0.1c0.6,0,0.9-0.3,0.9-0.9c0-0.4,0-0.8,0-1.2c0.1-1.8,1.1-2.8,2.7-2.8
		c1.6,0,2.6,1.1,2.7,2.8C97.1,54.8,97.1,55.4,97.1,56C97.1,56,97.1,56,97.1,56z"/>
	<path class="st0" d="M15.4,0c0.6,0,1.3,0,1.9,0c1.6,0.1,2.6,1.2,2.6,2.6c0,1.5-1,2.6-2.6,2.8c-0.7,0.1-1.7-0.4-2.2,0.3
		c-0.4,0.6-0.2,1.5-0.3,2.3c-0.2,1.4-1.2,2.4-2.6,2.4c-1.4,0-2.5-0.9-2.7-2.4C9.3,6.8,9.3,5.5,9.4,4.2C9.8,1.6,11.4,0.1,14,0
		C14.4,0,14.9,0,15.4,0C15.4,0,15.4,0,15.4,0z"/>
	<path class="st0" d="M91.2,0c0.5,0,1,0,1.5,0c2.5,0.1,4.2,1.7,4.4,4.1c0.1,1.2,0.1,2.4,0,3.6c-0.1,1.7-1.2,2.7-2.9,2.7
		c-1.5,0-2.5-1.1-2.6-2.8c-0.1-2-0.1-2-2.1-2.2c-1.8-0.1-2.9-1.2-2.9-2.7c0-1.6,1.2-2.6,3-2.7C90.1,0,90.6,0,91.2,0z"/>
	<path class="st0" d="M94.5,73c-4.4-2.5-8.8-5-13.5-6.9c-3.6-1.4-7.2-2.8-10.8-4.3c-2.2-0.9-2.6-3.1-1-4.9c0.3-0.3,0.5-0.5,0.8-0.8
		c1.4-1.3,1.6-2.5,0.7-3.4c-0.9-1-2-0.8-3.4,0.5c-2.9,2.6-5.3,5.6-7.5,8.6c-0.9,1.2-2,1.9-3.6,2c-2.1,0-4.2,0-6.3,0
		c-2,0-3.5-0.8-4.7-2.4c-0.8-1-1.6-2.1-2.5-3c-1.8-1.9-3.5-3.8-5.4-5.7c-0.8-0.8-1.9-0.8-2.7-0.1c-0.7,0.6-0.8,1.8-0.2,2.7
		c0.3,0.4,0.7,0.8,1.1,1.1c0.5,0.4,0.9,0.8,1.2,1.3c0.6,1.2,0.3,2.9-0.8,3.5c-2.7,1.4-5.5,2.9-8.5,3.8c-6.3,1.8-11.8,5.4-17.5,8.5
		c-1.5,0.8-2.3,2.3-2.3,4c0,1.2,0,2.3,0,3.5c0.1,4.1,2.2,6.1,6.3,6.3c0.4,0.1,0.8,0.1,1.3,0.1c24.8,0,49.7,0,74.5,0
		c0.4,0,0.8-0.1,1.2,0.1c0.2,0,0.4,0,0.6,0c0.2-0.2,0.5-0.2,0.8-0.3c2.9-0.6,4.4-2.2,5-5.1c0.2-1,0-2.1,0.1-3.2
		C97.9,76.3,96.8,74.3,94.5,73z M33,83.4c-3.1,0-6.2,0-9.3,0c-2.8,0-5.6,0-8.3,0c-0.4,0-0.8,0-1.3-0.1c-1.7-0.2-2.2-0.7-2.4-2.5
		c-0.1-0.7-0.1-1.5-0.1-2.2c0-1.4,1-2.1,2-2.7c3.3-1.8,6.7-3.5,10-5.3c1.8-0.9,3.7-1.6,5.6-2.2c0.9-0.3,1,0,1,0.8
		c0.1,3,0.2,6,1.1,8.8c0.5,1.5,1.1,3,2.1,4.4C34,83.2,33.9,83.5,33,83.4z M67.9,81.2c-1.2,1.5-2.6,2.3-4.5,2.3c-5.8,0-11.5,0-17.3,0
		c-1.4,0-2.7,0-4.1,0c-1.8,0-3.2-0.7-4.4-2c-2.2-2.4-3-5.3-3.2-8.4c-0.1-1.7-0.1-3.4-0.1-5.1c0-1.1,1.1-2.3,2.3-2.4
		c0.4,0,0.4,0.3,0.5,0.5c0,0.6,0,1.2,0.1,1.8c0.1,1.1,0.9,1.8,1.9,1.7c1,0,1.8-0.8,1.9-1.8c0.1-1.4,0-2.8,0.1-4.2
		c0-0.2-0.1-0.6,0.2-0.7c0.3-0.1,0.4,0.2,0.5,0.4c0.6,0.6,1.1,1.3,1.7,1.9c1.6,1.5,3.4,2.4,5.7,2.3c2.2,0,4.4-0.1,6.5,0
		c3.2,0.1,5.6-1.2,7.5-3.6c0.3-0.4,0.6-0.8,1.3-1.2c0,1.5,0,2.7,0,4c0,0.5,0.1,1,0.2,1.5c0.2,0.9,0.9,1.2,1.7,1.3
		c0.9,0.1,1.5-0.4,1.8-1.2c0.2-0.5,0.2-1.1,0.2-1.7c0-1.3,0.3-1.4,1.4-0.9c0.9,0.4,1.2,1.1,1.3,2C71.6,72.8,70.9,77.3,67.9,81.2z
		 M93.7,79.3c0,0.2,0,0.4,0,0.6c0,2.9-0.5,3.4-3.4,3.5c-2.8,0-5.7,0-8.5,0c0,0,0,0,0,0c-3.1,0-6.2,0-9.3,0c-0.7,0-1-0.2-0.5-0.9
		c2.1-2.9,2.7-6.2,3-9.6c0.1-1,0.2-2.1,0.3-3.1c0.2-1.4,0.2-1.4,1.5-1.1c1.7,0.4,3.3,1,4.8,1.8c3.4,1.8,6.8,3.7,10.2,5.4
		C93.1,76.7,94,77.7,93.7,79.3z"/>
	<path class="st0" d="M102.6,44.3c-8.9,0-17.7,0-26.6,0c-0.4,0-1.1,0.2-1.2-0.5c-0.1-0.6,0.4-0.9,0.8-1.1c5.2-3.1,7.2-7.7,6.4-13.6
		c-0.5-3.1-1.5-4.2-4.7-4.3c-0.9,0-1.1-0.4-1.1-1.2c0.1-1.9,0.1-3.7-0.1-5.6c-0.6-5.1-2.9-9.2-7.3-12C58.6-0.3,48.3-0.3,38,5.1
		c-4.8,2.6-7.6,6.7-8.4,12.2c-0.3,2.1-0.2,4.1-0.2,6.2c0,0.9-0.3,1.3-1.2,1.3c-0.2,0-0.5,0-0.7,0c-1.8,0-3,1-3.5,2.7
		c-1.4,5-0.5,9.4,3.2,13.2c0.9,0.9,2,1.6,3.1,2.2c0.3,0.2,0.6,0.5,0.5,0.9c-0.1,0.5-0.6,0.4-0.9,0.5c-0.3,0-0.6,0-0.9,0
		c-8.6,0-17.2,0-25.8,0c-0.6,0-1.2,0-1.8,0.2C0.4,44.8,0,45.4,0,46.2c0,0.9,0.3,1.5,1.1,1.8c0.5,0.2,1.1,0.2,1.7,0.2
		c33.3,0,66.6,0,99.9,0c1.2,0,2.1-0.3,2.8-1.3c0-0.4,0-0.8,0-1.3C105,44.4,103.8,44.3,102.6,44.3z M75.6,32.3
		c0.1-0.8,0.2-1.6,0.4-2.4c0.1-0.7,0.5-1.1,1.2-1.1c0.7,0,0.7,0.6,0.8,1c0.5,3.2-0.2,6-3.1,8C75.1,36.1,75.4,34.2,75.6,32.3z
		 M27.9,35c-0.7-1.7-0.8-3.5-0.4-5.3c0.1-0.4,0.2-0.8,0.7-0.8c0.5,0,0.9,0.1,1.1,0.6c0.2,0.6,0.3,1.2,0.4,1.8c0.3,2.2,0.6,4.3,1,6.8
		C29.2,37.3,28.4,36.2,27.9,35z M70.9,37.4c-0.4,1.8-0.2,3.7-0.3,5.6c-0.1,1-0.4,1.3-1.4,1.3c-5.6,0-11.1,0-16.7,0
		c-5.5,0-11,0-16.4,0c-1,0-1.4-0.3-1.3-1.3c0.2-3.7-0.6-7.3-1.1-11c-0.7-4.9-0.8-9.9-0.1-14.8c0.6-4,2.9-6.9,6.4-8.7
		c8.3-4.4,16.7-4.4,25-0.1c4.6,2.4,6.8,6.3,7,11.4C72.4,25.7,72.1,31.6,70.9,37.4z"/>
</g>
</svg>
