<svg xmlns="http://www.w3.org/2000/svg" viewBox="0 0 10.19 20"><defs><style>.cls-1{fill:#fff;}</style></defs><g id="Layer_2" data-name="Layer 2"><g id="layer"><path class="cls-1" d="M6.89,0A3,3,0,0,1,7.4.16,1.79,1.79,0,0,1,8.51,1.87v11.5a.19.19,0,0,0,.09.18,3.43,3.43,0,0,1,1.58,3.07A3.47,3.47,0,0,1,7.82,19.8,7.49,7.49,0,0,1,7,20L7,20H6.39c-.22,0-.45-.07-.67-.13A3.38,3.38,0,0,1,3.21,17a3.37,3.37,0,0,1,1.53-3.48.2.2,0,0,0,.09-.19V1.87A1.85,1.85,0,0,1,6,.11c.14,0,.29-.07.43-.11ZM8,7s0,0,0-.06V1.83a1.31,1.31,0,1,0-2.62,0V7Z"/><path class="cls-1" d="M1.79,7,0,8.09V5.86Z"/><path class="cls-1" d="M2.5,7.23V6.71H4.11v.52Z"/><path class="cls-1" d="M4.12,1.58V2.1H2.5V1.58Z"/><path class="cls-1" d="M4.11,12.37H2.5v-.51H4.11Z"/><path class="cls-1" d="M3,4.67V4.15h1.1v.52Z"/><path class="cls-1" d="M3,9.8V9.29h1.1V9.8Z"/></g></g></svg>