<svg xmlns="http://www.w3.org/2000/svg" viewBox="0 0 177.92 195.84"><defs><style>.cls-1{fill:#fff;}</style></defs><title>gender-id</title><g id="Layer_2" data-name="Layer 2"><g id="layer"><path class="cls-1" d="M68.05,64.16c5.79,23.16,11.53,46.08,17.3,69.14H68.18c0,.6-.08,1.11-.08,1.61,0,18.36,0,36.71,0,55.07a4.64,4.64,0,0,1-2.88,4.66,11.44,11.44,0,0,1-10.61-.21,4.57,4.57,0,0,1-2.47-4.55q.06-27.18,0-54.35v-2.19H47.68v1.25q0,27.78,0,55.55a4.45,4.45,0,0,1-2.58,4.35,11.47,11.47,0,0,1-10.29.25,4.8,4.8,0,0,1-3.09-4.9c.06-12,0-24.08,0-36.12V133.29H14.33c1.64-4.64,2.29-9.28,3.88-13.74s2.09-9.19,3.17-13.79S23.66,96.61,24.81,92s2.33-9.22,3.49-13.84,2.31-9.2,3.51-14a23.8,23.8,0,0,0-3,0c-.29,0-.62.54-.75.89Q22.78,79.72,17.51,94.32c-1.37,3.79-2.9,7.54-4.06,11.4-1.59,5.25-7.12,5.46-10.32,3.43a6.24,6.24,0,0,1-2.7-7.65c4.15-11,8.15-21.94,12.21-32.92,1.93-5.21,3.88-10.41,5.78-15.63a12,12,0,0,0,.43-2.1c.77-4,3.26-6.78,6.39-9.09A17,17,0,0,1,35.93,38.2c9.28.15,18.56.18,27.83,0a17.75,17.75,0,0,1,12.5,4.89,14.2,14.2,0,0,1,5,9c.3,2.17,1.41,4.22,2.19,6.32Q91.31,79.72,99.25,101c1,2.72.86,5.14-1.28,7.15a7.37,7.37,0,0,1-8.1,1.67,5.41,5.41,0,0,1-3.21-3.51q-4-11.16-8.07-22.32c-2.27-6.27-4.56-12.54-6.8-18.82-.28-.76-.64-1.11-1.47-1C69.65,64.22,69,64.16,68.05,64.16Z"/><path class="cls-1" d="M65.13,19.09A15.2,15.2,0,1,1,50,3.87,15.19,15.19,0,0,1,65.13,19.09Z"/><path class="cls-1" d="M164.39,60.35h-3.67v1.93q0,61.25,0,122.51a6.4,6.4,0,0,1-3.85,6.21c-3.4,1.7-8.1,1-10.46-1.61a5.71,5.71,0,0,1-1.58-4q0-18.54,0-37.08t0-37.32c0-.35,0-.71-.06-1.15h-4.41c0,.41,0,.83,0,1.26q0,36.83,0,73.67a6.44,6.44,0,0,1-5.37,6.77,13.35,13.35,0,0,1-5,0c-3.73-.73-5.55-3.2-5.55-7V81.37l0-19.2V60.4h-3.69v1.5q0,22.14,0,44.27c0,2.89-1.12,5.07-3.77,6.27a6.88,6.88,0,0,1-7.55-.92,5.83,5.83,0,0,1-2.27-4.81q.09-16.78.16-33.59c0-7.84.15-15.68.1-23.52a12.45,12.45,0,0,1,3.44-8.93,19.45,19.45,0,0,1,10.23-6.11,9.82,9.82,0,0,1,2-.17c13,0,26,0,39,0,4.1,0,7.39,2.12,10.39,4.67a13.69,13.69,0,0,1,5.07,11.12c0,18.64.21,37.28.26,55.92a6.75,6.75,0,0,1-1,3.94c-1.82,2.33-4.56,3.81-7.88,2.77a6.36,6.36,0,0,1-4.63-6.51q0-22,0-43.92Z"/><path class="cls-1" d="M142.6,0a15.19,15.19,0,1,1-15.2,15.11A15.17,15.17,0,0,1,142.6,0Z"/></g></g></svg>