<svg xmlns="http://www.w3.org/2000/svg" viewBox="0 0 189.06 381"><defs><style>.cls-1{fill:#fff;}</style></defs><title>graffiti-detection</title><g id="Layer_2" data-name="Layer 2"><g id="layer"><path class="cls-1" d="M17.3,381c-2.09-1.31-4.29-2.47-6.25-3.95-8-6.08-11-14.5-11-24.26q0-57.56,0-115.09c0-31.74-.24-63.49,0-95.22.27-31.32,14.1-54.78,42.16-69.2,11.53-5.93,24.06-8,37-7.4,2.72.13,5.44,0,8.32,0V59.26c-3.81,0-7.63,0-11.45,0-6-.06-8.62-2.68-8.63-8.75q0-21.93,0-43.86C67.54,1.07,68.6,0,74,0h41.62c4.51,0,5.91,1.29,5.94,6,.08,12.62,0,25.25,0,37.87,0,2.62.06,5.25,0,7.87-.17,4.9-2.57,7.33-7.47,7.45-4.1.1-8.21,0-12.54,0V66c3.75,0,7.57,0,11.39,0,32.08.14,55.23,14.75,69.37,43.38,5,10.07,6.69,21.1,6.7,32.34q0,85.85,0,171.7c0,12.62-.1,25.24.05,37.86.15,13-4.27,23.16-16.52,29-.3.15-.5.5-.74.76Zm-3.49-25.48C14.51,363.91,20,369,28.15,369H159.73c10.17,0,15.76-5.49,15.77-15.68q0-24.36,0-48.73V295c-1.47-.07-2.22-.15-3-.15l-96.7-.11c-6.15,0-8.29-2.13-8.29-8.33q0-52.3,0-104.59c0-5.85,2.27-8.18,8.12-8.34,3.24-.08,6.49.14,9.74.14h89.9V147.08H13.82V315h3.9c5.13,0,10.25-.07,15.37.06,4.38.11,6.92,2.09,7.44,5.42.72,4.65-2.08,8-7,8.06-6.57.09-13.15,0-19.65,0V342H18c9.12,0,18.24,0,27.36,0a14.35,14.35,0,0,1,4.76.72A6.39,6.39,0,0,1,54,350.4c-.82,3.24-2.93,5.12-6.45,5.12Zm161.46-74.36V187.47h-94v93.69Zm-.16-147.93c-2.78-29.51-28.78-53.51-57.89-53.7-14-.1-28-.18-42,0-24.13.32-42.23,11.12-54,32.13a49.11,49.11,0,0,0-6.58,21.57ZM107.94,12.28H81.28V45.43h26.66Z"/></g></g></svg>