<?xml version="1.0" encoding="utf-8"?>
<!-- Generator: Adobe Illustrator 25.0.1, SVG Export Plug-In . SVG Version: 6.00 Build 0)  -->
<svg version="1.1" id="Layer_1" xmlns="http://www.w3.org/2000/svg" xmlns:xlink="http://www.w3.org/1999/xlink" x="0px" y="0px"
	 viewBox="0 0 58.9 49.1" style="enable-background:new 0 0 58.9 49.1;" xml:space="preserve">
<style type="text/css">
	.st0{fill:#FFFFFF;}
</style>
<path class="st0" d="M40.5,42.4c0,1.6,0,2.9,0,4.4c0.8,0,1.6,0,2.3,0c0.8,0,1.5,0.1,1.6,1.1c0,1.1-0.7,1.2-1.6,1.2
	c-6.6,0-13.1,0-19.7,0c-2.3,0-4.6,0-6.9,0c-0.8,0-1.7-0.1-1.7-1.2c0-1.1,0.8-1.2,1.6-1.2c0.7,0,1.5,0,2.2,0c0-1.5,0-2.9,0-4.4
	c-0.6,0-1,0-1.5,0c-3.9,0-7.8,0-11.7,0C2,42.3,0,40.4,0,37.3C0,26.5,0,15.8,0,5c0-3.1,2-5,5.1-5c16.2,0,32.4,0,48.7,0
	c3.1,0,5,1.9,5,5c0,10.8,0,21.6,0,32.4c0,3.1-1.9,4.9-5,5c-3.9,0-7.7,0-11.6,0C41.7,42.4,41.1,42.4,40.5,42.4z M2.5,22.4
	c0,0.5-0.1,0.8-0.1,1.2c0,4.5,0,9.1,0,13.6c0,2,0.9,2.8,2.9,2.8c16.1,0,32.2,0,48.4,0c2,0,2.8-0.8,2.8-2.8c0-4.5,0-9,0-13.5
	c0-0.4-0.1-0.8-0.1-1.3c-3.8,0-7.6,0-11.4,0c-0.3,0-0.8,0.4-0.9,0.8c-0.9,2-1.3,4.4-3.1,5.8c-0.1,0.1-0.2,0.1-0.3,0.1
	c-0.1,0-0.2-0.1-0.2-0.1c-1.2-1.1-1.5-2.7-2-4.2c-0.6-1.9-1.2-3.8-1.7-5.7c-0.3-1.1-0.7-2.1-1.1-3.4c-1.4,2-2.6,3.7-3.8,5.5
	c-0.6,0.9-1.3,1.3-2.4,1.2c-1.3-0.1-2.7,0.1-4,0c-1.1-0.1-1.7,0.3-2.1,1.4c-0.5,1.5-1.1,2.9-1.8,4.3c-0.2,0.5-0.8,1.1-1.2,1
	c-0.4,0-1-0.6-1.2-1.1c-0.7-1.7-1.3-3.4-2-5.1c-1.1-2.8-2.2-5.6-3.3-8.7c-1.3,2.5-2.5,4.7-3.6,6.9c-0.5,1-1.1,1.3-2.2,1.3
	C6.3,22.3,4.4,22.4,2.5,22.4z M2.4,20c1.7,0,3.2-0.1,4.6,0c0.9,0,1.4-0.3,1.8-1.1c1.3-2.6,2.6-5.1,4-7.7c0.3-0.5,0.9-1.1,1.3-1
	c0.5,0.1,1,0.7,1.3,1.2c0.4,0.6,0.6,1.4,0.8,2c1.4,3.7,2.8,7.3,4.3,11.3c0.5-1.2,0.9-2.1,1.2-3.1c0.4-1.2,1.1-1.8,2.4-1.7
	c1.6,0.1,3.1,0.1,4.7,0c0.5,0,1.2-0.4,1.5-0.8c1.6-2.1,3-4.3,4.5-6.4c0.3-0.4,1-0.9,1.5-0.9c0.4,0,0.8,0.7,1,1.2
	c0.4,1.2,0.8,2.4,1.1,3.5c0.8,2.5,1.5,5,2.4,7.9c0.5-1.2,0.9-2.1,1.2-3c0.4-1.1,1.1-1.5,2.3-1.5c3.5,0.1,7,0,10.5,0
	c0.5,0,1-0.1,1.5-0.1c0-4.8,0-9.5,0-14.2c0-2.7-0.7-3.4-3.4-3.4c-5.8,0-11.6,0-17.4,0c-10.1,0-20.1,0-30.2,0c-2.4,0-3.1,0.7-3.1,3.1
	c0,2.1,0,4.1,0,6.2C2.4,14.4,2.4,17.1,2.4,20z"/>
</svg>
