<svg xmlns="http://www.w3.org/2000/svg" viewBox="0 0 626 626"><defs><style>.cls-1{fill:#fff;}</style></defs><title>heat-map</title><g id="Layer_2" data-name="Layer 2"><g id="layer"><path class="cls-1" d="M29,0c2.47,1.25,5,2.35,7.39,3.77,8,4.83,11.24,12.4,11.69,21.37.19,3.82.05,7.66.05,11.5v533.9c0,7.32,0,7.33,7.22,7.33q271,0,541.91,0c9.23,0,17.61,1.87,23.45,9.64,2.16,2.87,3.55,6.32,5.29,9.51v10c-4,9.68-10.41,16.63-21,19H19c-9.65-4-16.67-10.38-19-21V20C2.26,14.29,4.59,8.56,10,5c2.87-1.87,6-3.37,9-5Z"/><path class="cls-1" d="M626,115c-3.36,6-5.86,12.77-10.24,17.92-11.48,13.47-32,15.05-47.13,4.48-14.16-9.94-18.85-30.21-10.62-45.5,7.29-13.55,18.89-20.26,33.9-19.34,15.87,1,26.86,9.61,32.18,24.91.54,1.55,1.27,3,1.91,4.53Z"/><path class="cls-1" d="M626,307c-3.1,8.85-6.81,17.21-14.85,23a36.28,36.28,0,0,1-49.9-7.23,35.9,35.9,0,0,1,5.61-49.3c15.43-12.64,37.44-11.12,49.94,4.18,4.06,5,6.19,11.53,9.2,17.37Z"/><path class="cls-1" d="M505.5,300.86c.11,32.81-27.16,60.18-60,60.21s-60.15-27.26-60.27-60,27.09-60,60-60.21C478.06,240.72,505.38,267.93,505.5,300.86Z"/><path class="cls-1" d="M277,433.51c32.9,0,60,27.22,59.93,60.17s-27.32,60.16-60.09,60.09-60-27.4-59.89-60.27A60.21,60.21,0,0,1,277,433.51Z"/><path class="cls-1" d="M276.77,168.34a60,60,0,0,1-59.86-60.08c0-32.93,27.2-60.11,60.07-60s60,27.31,59.92,60.21A60.07,60.07,0,0,1,276.77,168.34Z"/><path class="cls-1" d="M517.79,493.71c-.12-26.21,21.79-48.32,47.9-48.31s48.61,22,48.13,48c-.51,27.58-20.76,48-47.89,48C538.16,541.51,518.49,520.34,517.79,493.71Z"/><path class="cls-1" d="M132.64,144.27a36,36,0,1,1,35.66-36A35.92,35.92,0,0,1,132.64,144.27Z"/><path class="cls-1" d="M445.11,144.23c-20.3-.41-36.22-16.79-35.59-36.6.65-20.08,16.91-35.84,36.49-35.36,19.78.49,35.66,16.92,35.29,36.5C480.93,128.85,464.81,144.64,445.11,144.23Z"/><path class="cls-1" d="M457.17,494.6c-1,20.28-17.38,35.83-36.75,34.89-20.47-1-36.12-17.59-35.1-37.21,1-20.18,17.85-35.59,37.66-34.52S458.13,475.21,457.17,494.6Z"/><path class="cls-1" d="M132.56,457.69a35.92,35.92,0,1,1-36,35.63A35.65,35.65,0,0,1,132.56,457.69Z"/><path class="cls-1" d="M168.3,301.06a35.89,35.89,0,0,1-71.78,0C96.59,281,112.8,264.78,132.64,265A35.91,35.91,0,0,1,168.3,301.06Z"/></g></g></svg>