<svg xmlns="http://www.w3.org/2000/svg" viewBox="0 0 44.16 50"><defs><style>.cls-1{fill:#fff;}</style></defs><title>Asset 23</title><g id="Layer_2" data-name="Layer 2"><g id="layer"><path class="cls-1" d="M19.57,50a8.2,8.2,0,0,1-2.81-2.28,1,1,0,0,0-.74-.33H4A3.75,3.75,0,0,1,.1,44.46,5.45,5.45,0,0,1,0,43.25Q0,27.77,0,12.3a8.29,8.29,0,0,1,.14-1.93A3.54,3.54,0,0,1,3.53,7.62c1.46-.06,2.92,0,4.39,0a1.18,1.18,0,0,0,.71-.29,5.08,5.08,0,0,1,2.08-1.12,1.44,1.44,0,0,0,.95-.7c.61-.94,1.21-1.89,1.87-2.8a6.28,6.28,0,0,1,10.31.07c.64.9,1.23,1.84,1.9,2.71a2.3,2.3,0,0,0,1,.71,5.79,5.79,0,0,1,2,1.13,1.16,1.16,0,0,0,.67.26c1.34,0,2.68,0,4,.08a3.56,3.56,0,0,1,3.37,3.68c0,2.61,0,5.21,0,7.81a1.21,1.21,0,1,1-2.42,0c0-2.49,0-5,0-7.47,0-1.23-.45-1.68-1.67-1.68H30.12c-.06.5-.07,1-.16,1.39a4.56,4.56,0,0,1-4.37,3.41q-6.93.06-13.86,0a4.48,4.48,0,0,1-4.47-4.49c0-.08,0-.16,0-.27s-.17,0-.24,0H3.69a1.27,1.27,0,0,0-1.31,1.34V43.49a1.29,1.29,0,0,0,1.24,1.37c.21,0,.42,0,.63,0h12a1,1,0,0,0,.81-.34q3.06-3.18,6.14-6.35c-.27-.67-.57-1.32-.79-2a11.16,11.16,0,1,1,14.82,6.94.58.58,0,0,0-.43.59,3.71,3.71,0,0,1-3.86,3.59c-3,0-6,0-9.08,0a1,1,0,0,0-.8.34,16.15,16.15,0,0,1-1.22,1.26c-.43.39-.9.72-1.36,1.07Zm4.65-17.22a8.89,8.89,0,0,0,8.91,8.83,8.79,8.79,0,0,0,8.68-8.88A8.88,8.88,0,0,0,32.93,24,8.72,8.72,0,0,0,24.22,32.78ZM18.73,12.41h6.74a2.24,2.24,0,0,0,2.27-1.88A2.07,2.07,0,0,0,26,8.47a4,4,0,0,1-2.31-1.62c-.61-.9-1.23-1.79-1.86-2.68a3.92,3.92,0,0,0-6.55.11c-.54.81-1.09,1.61-1.6,2.45a3.76,3.76,0,0,1-2.47,1.82,2,2,0,0,0-1.51,1.73,1.83,1.83,0,0,0,1.15,1.86,3.24,3.24,0,0,0,1.27.26C14.34,12.42,16.54,12.41,18.73,12.41Zm5.89,27.82-5.78,6L20,47.47l5.76-6Zm3.43,2.63-2.23,2.07c2.53,0,5,0,7.49,0a1.1,1.1,0,0,0,1-1A11.35,11.35,0,0,1,28.05,42.86Z"/><path class="cls-1" d="M16.43,21.59h-8A1.1,1.1,0,0,1,7.27,21a1.24,1.24,0,0,1,.14-1.34,1.36,1.36,0,0,1,1.18-.45H21c1.17,0,2.35,0,3.52,0a1.16,1.16,0,0,1,1.18,1.07,1.19,1.19,0,0,1-.86,1.31,2.27,2.27,0,0,1-.58,0C21.66,21.6,19,21.59,16.43,21.59Z"/><path class="cls-1" d="M13.15,28.63c-1.56,0-3.12,0-4.68,0-.83,0-1.31-.43-1.32-1.16a1.17,1.17,0,0,1,1.3-1.25H18a1.21,1.21,0,1,1,0,2.41C16.33,28.64,14.74,28.63,13.15,28.63Z"/><path class="cls-1" d="M12.09,33.89h3.6a1.21,1.21,0,1,1,0,2.42q-3.68,0-7.35,0a1.21,1.21,0,1,1,0-2.42Z"/><path class="cls-1" d="M18.53,7.75a1.88,1.88,0,1,1,1.9-1.87A1.88,1.88,0,0,1,18.53,7.75Z"/></g></g></svg>