<svg xmlns="http://www.w3.org/2000/svg" viewBox="0 0 37.01 50"><defs><style>.cls-1{fill:#fff;}</style></defs><title>maps</title><g id="Layer_2" data-name="Layer 2"><g id="layer"><path class="cls-1" d="M18.47,24.31a12,12,0,0,0,5.48-1,4.7,4.7,0,0,0,1.6-1.11,1.8,1.8,0,0,0,0-2.61,4.92,4.92,0,0,0-2-1.3c-.65-.24-.68-.32-.35-.91.45-.78.89-1.57,1.33-2.35.26-.47.38-.52.85-.28l9,4.67c.71.36,1.41.73,2.11,1.1.18.09.45.14.44.38s-.28.28-.46.37l-7.32,3.8q-5.14,2.66-10.28,5.32a.8.8,0,0,1-.82,0L5.7,24c-1.76-.91-3.52-1.84-5.28-2.76-.15-.08-.38-.12-.39-.33s.18-.26.33-.34Q6,17.66,11.64,14.73c.36-.19.55-.11.73.22.51.89,1,1.78,1.55,2.66.19.32,0,.48-.23.58a6.71,6.71,0,0,0-1.35.65A3.05,3.05,0,0,0,11,20.35a1.71,1.71,0,0,0,.38,1.74,5.32,5.32,0,0,0,2.29,1.47A12.19,12.19,0,0,0,18.47,24.31Z"/><path class="cls-1" d="M18.49,40.32l-.31-.13q-3.61-1.89-7.24-3.77L3,32.29.33,30.93c-.13-.07-.32-.11-.32-.3s.2-.25.34-.32c1.76-.92,3.53-1.83,5.28-2.76a.86.86,0,0,1,.89,0l6.54,3.4q2.52,1.3,5,2.62a.83.83,0,0,0,.86,0l10.17-5.26c.49-.26,1-.51,1.47-.78a.58.58,0,0,1,.62,0l5.55,2.87c.34.18.34.36,0,.55-1.21.64-2.44,1.26-3.66,1.9l-8.46,4.39-5.8,3A3,3,0,0,1,18.49,40.32Z"/><path class="cls-1" d="M6.19,37.11l.25.11,11.6,6a.93.93,0,0,0,.95,0l11.53-6a.73.73,0,0,1,.74,0L36.65,40c.15.07.34.13.35.33s-.22.23-.36.3L26.26,46.06l-7.4,3.84a.68.68,0,0,1-.7,0q-4-2.11-8-4.19l-8-4.13-1.85-1c-.36-.19-.37-.34,0-.53,1.12-.6,2.24-1.17,3.36-1.76l2.15-1.1A.69.69,0,0,1,6.19,37.11Z"/><path class="cls-1" d="M24.75,3.84A6.83,6.83,0,0,0,17.2.11a6.54,6.54,0,0,0-4.9,3.64,6.08,6.08,0,0,0-.72,4.07A17.21,17.21,0,0,0,13.12,12a72.64,72.64,0,0,0,3.63,6.37,3.53,3.53,0,0,0,.76,1h0a4.25,4.25,0,0,0,.63,1.07c.28.42.46.41.74,0,.67-1,1.34-2,2-3.08a51,51,0,0,0,4.07-7.78A6.56,6.56,0,0,0,24.75,3.84ZM18.51,10.6a3.73,3.73,0,1,1,3.73-3.73A3.73,3.73,0,0,1,18.51,10.6Z"/></g></g></svg>