<?xml version="1.0" encoding="utf-8"?>
<!-- Generator: Adobe Illustrator 25.0.1, SVG Export Plug-In . SVG Version: 6.00 Build 0)  -->
<svg version="1.1" id="Layer_1" xmlns="http://www.w3.org/2000/svg" xmlns:xlink="http://www.w3.org/1999/xlink" x="0px" y="0px"
	 viewBox="0 0 164.8 197.9" style="enable-background:new 0 0 164.8 197.9;" xml:space="preserve">
<style type="text/css">
	.st0{fill:#FFFFFF;}
</style>
<g id="FrbVCA_1_">
	<g>
		<path class="st0" d="M46.3,183.7c-3,4.5-5.7,8.9-8.8,12.9c-0.7,0.9-2.8,0.6-4.2,0.9c0.3-1.3,0.2-2.8,0.8-3.9
			c0.9-1.6,2.4-2.8,3.4-4.3c5.1-7.7,4.8-11.1-1.7-17.6c-8.7-8.7-13.8-19-15-31.3c-0.1-1.3-0.5-2.6-0.7-3.9
			c-11.4-1.8-16.3-6.3-18.6-19.2C-0.2,108-2.6,98.1,6.6,91c-0.7-9.7-1.3-19.5-2.3-29.2c-2-20.4,7.7-34.9,23.4-46.1
			C47.1,1.9,69.1-1.3,92.1,0.4c19.4,1.4,37.2,7.3,51.8,20.8c10.8,10,17.8,21.9,16.5,37.4c-0.9,10.7-1.4,21.5-2,32.5
			c9.5,7.4,6.3,18,4.4,27.8c-2.3,11.8-7.7,16.4-18,17.3c-0.9,4.4-1.5,8.8-2.6,13.1c-2.3,9.1-7.5,16.6-14.2,23.1
			c-5.6,5.4-5.9,6.3-2.5,13.4c1.3,2.8,3.6,5.1,5.2,7.8c0.6,1.1,0.6,2.6,0.9,3.9c-1.4-0.2-3.6,0.1-4.2-0.8c-3.1-4-5.8-8.4-9.3-13.8
			c-0.1,0.4-0.2,1.4-0.6,2c-5.5,7.2-12.6,12.1-21.8,12.6c-8.8,0.6-17.6,0.6-26.4,0C59.2,196.9,51.9,191.1,46.3,183.7z M144.9,97.5
			c-2.4-6.6-4.8-12.4-6.5-18.4c-2.2-7.7-4-15.5-5.9-23.2c-0.9-3.7-2.8-4.9-6.9-4.3c-18.3,2.8-36.8,4.6-55.2,2.3
			c-8.9-1.1-17.6-3.5-26.3-5.6c-4.8-1.2-8.2-0.1-9.8,4.8c-1.4,4.1-2.8,8.2-4,12.3C27,76,25.8,87.2,19.1,96.7
			c6,6.3,11.9,12.4,17.6,18.7c2.2,2.5,4.3,3,7.4,1.8c4.6-1.8,9.5-3,14.2-4.8c15.2-5.6,30.5-6.4,45.9-0.7c5.6,2.1,11.3,3.9,17.1,5.5
			c1.6,0.5,4.3,0.3,5.3-0.8C133.2,110.1,139.3,103.3,144.9,97.5z M13.5,93.1c0.7,0,1.5,0,2.2,0c1.2-2.3,2.7-4.5,3.5-6.9
			C21,80.9,22.4,75.4,24,70c2-6.5,3.6-13.2,6.2-19.5c2.8-7.1,6.4-8.6,13.8-7c1.6,0.3,3.3,0.7,4.9,1.1c24.2,7.4,48.7,6.2,73.2,2.4
			c10.4-1.6,12.5-0.5,15.6,9.5c0.5,1.7,1,3.5,1.4,5.3c2,7.9,3.8,15.8,6.1,23.7c0.8,2.7,2.5,5.1,3.8,7.7c0.6,0,1.1,0,1.7-0.1
			c0.9-2.4,2.4-4.7,2.6-7.1c0.9-11.9,1.8-23.9,1.8-35.8c0-4.2-2.1-8.8-4.2-12.6c-6.8-12.2-17.5-20.4-30.2-25.7
			c-19-7.9-38.7-9-58.8-5.3c-17.8,3.3-33.1,11-44.4,25.5c-4.5,5.7-8.2,12-8.2,19.4c0,9.8,0.4,19.6,1.2,29.4
			C10.8,85.1,12.4,89.1,13.5,93.1z M141.4,127.9c7.2,5,11.8,4.2,14.8-4.9c2.2-6.9,2.7-14.5,2.9-21.9c0.1-5.3-2.5-6.2-7.2-3.3
			c-0.8,0.5-1.6,1.2-2.3,1.9c-6.3,6.6-12.6,13.2-18.9,19.9c-0.9,0.9-1.9,2.2-2,3.3c-0.2,6.2-0.1,12.5-0.1,18.7
			c0.4,0.1,0.8,0.3,1.2,0.4C133.6,137.3,137.4,132.7,141.4,127.9z M35.7,142.9c1.3-12.6,2.2-23.4-8.7-31.2c-4.3-3-7.4-7.6-11.1-11.4
			c-1-1-2.2-2.1-3.5-2.8c-4.3-2.3-6.7-1.5-6.6,3.3c0.1,7.3,0.5,15,2.7,21.9c3,9.4,7.6,10.2,15.6,4.7c0.2-0.1,0.5,0,0.7,0
			C25.9,134,31.8,136.9,35.7,142.9z M38.8,167.4c-1.2-11-2.5-21.4-13-27.7C26.7,150.5,30.7,159.5,38.8,167.4z M126.3,167
			c7.9-8,11.8-16.9,12.9-27.5C128.8,145.8,127,155.8,126.3,167z"/>
	</g>
</g>
</svg>
