<svg xmlns="http://www.w3.org/2000/svg" viewBox="0 0 450.22 515.1"><defs><style>.cls-1{fill:#fff;}</style></defs><title>mobile-app</title><g id="Layer_2" data-name="Layer 2"><g id="layer"><path class="cls-1" d="M289.76,434V322.31h16.18V328c0,50.33-.42,100.66.2,151,.26,21.81-15.27,36.15-35.56,36.08-79-.27-157.93,0-236.9-.07C13.73,515,0,500.91,0,480.77q-.06-82,0-164Q0,175.59,0,34.4C0,17.12,9.35,4.66,25.46.72A35.84,35.84,0,0,1,33.88,0q58.5-.08,117,0h121c20.17,0,34,13.09,34,33.09.2,47,.07,94,.07,140.93,0,.82-.12,1.63-.21,2.77h-16v-5.32c0-28.48-.07-57,.08-85.46,0-4.17-.92-5.77-5.51-5.76q-131.14.28-262.3.25H16.82V434Zm-273-370.2h273c0-9.83,0-19.3,0-28.78,0-12.67-6.31-18.91-19.1-18.91H35.75c-1.5,0-3-.08-4.49,0-7.18.58-14.1,6.23-14.4,13C16.36,40.65,16.73,52.12,16.73,63.84Zm273,386.89H16.48c0,9.82,0,19.28,0,28.74,0,13.52,5.92,19.31,19.58,19.31H213.43c19.47,0,38.94,0,58.41,0,10.14,0,17.43-6,17.8-15.12C290.06,472.83,289.74,462,289.74,450.73Z"/><path class="cls-1" d="M251.89,193.36c.41,6.8-4,11.78-7.77,17-4.62,6.37-1.47,13.82,6.25,14.86a79.5,79.5,0,0,1,8.82,1.6c8.68,2.2,14.33,9.14,14.51,18q.24,12.5,0,25c-.17,9.26-6.23,16.44-15.35,18.39-2.59.56-5.25.78-7.88,1.22-8,1.33-10.24,7-5.33,13.41,1.52,2,3.12,3.91,4.51,6,5.18,7.68,4.74,17.13-1.5,23.94-5.73,6.26-11.67,12.35-17.84,18.17-6.85,6.48-16.47,7.05-24.39,1.9-1.54-1-3-2.17-4.42-3.26-6.06-4.48-7.52-4.6-14-.6a5,5,0,0,0-1.8,3c-.75,3.58-1.13,7.23-1.86,10.81a18.76,18.76,0,0,1-18.41,15.31c-8.16.12-16.32.08-24.48,0-9.72-.08-17.14-6.36-18.93-15.9a35.57,35.57,0,0,1-1.09-7.39c.13-4.26-1.92-6.61-5.78-7.28-1.81-.31-4.28-.23-5.65.77-18.08,13.18-22.5,12.94-38.85-2.6-3.5-3.32-7-6.64-10.38-10.09-7.56-7.73-8.33-17-2.25-25.83a19.37,19.37,0,0,1,3-4c5.2-4.38,3.24-9.08.64-13.67A5.66,5.66,0,0,0,58.13,290c-3.4-.76-6.9-1.08-10.32-1.77-8.66-1.75-14.59-7.53-15.08-16.23a229.22,229.22,0,0,1,.11-30.9c.51-6.45,5.21-11.09,11.36-13.38a37.39,37.39,0,0,1,11.62-2.62c3.8-.11,5.4-1.32,6.79-4.84,1.22-3.07,1.27-5-1-7.42a51.38,51.38,0,0,1-5.42-7.16c-5-7.51-4.74-16.35,1.26-23.08a267.66,267.66,0,0,1,18.85-19.26c8.26-7.58,15.08-7.63,24.17-1.07a24,24,0,0,1,4,3c3.94,4.38,8.28,4.12,12.71,1.15a10.07,10.07,0,0,0,3.35-4.21c.71-1.61.61-3.58.93-5.37,2.81-15.7,8.23-20.21,24.24-20.22,6,0,12-.09,18,0,12.08.23,18.39,5.67,20.49,17.53.38,2.13.54,4.29.92,6.42,1.25,7.13,7.07,9.4,12.79,5,1.72-1.31,3.43-2.64,5.18-3.91,8.94-6.5,18.82-5.82,26.72,1.83q7.69,7.48,15.35,15C249.17,182.52,252,187.09,251.89,193.36Zm-29.65,19.31c3.76-5.16,7.79-10.87,12-16.43,1.77-2.33,1.59-4.07-.47-6-5.06-4.82-10.08-9.69-15-14.66-2.18-2.21-4.15-2.28-6.54-.4a166.74,166.74,0,0,1-13.56,10.2,8.83,8.83,0,0,1-6.64.54,168.37,168.37,0,0,1-17.53-7,7.18,7.18,0,0,1-3.62-4.36c-1.23-5.85-2-11.81-2.75-17.75-.35-2.56-1.34-3.69-4.2-3.63-7.15.16-14.31,0-21.46-.18-3.17-.09-4.44,1.24-4.79,4.3-.69,5.93-1.48,11.87-2.67,17.71a6.8,6.8,0,0,1-3.51,3.94c-6.15,2.88-12.56,5.2-18.67,8.16-2.61,1.26-4.36,1.36-6.69-.5-4.42-3.52-9.19-6.61-13.71-10-2.54-1.91-4.63-2-7,.44-4.56,4.85-9.19,9.66-14,14.23-2.86,2.7-2.49,4.86-.22,7.62,3.38,4.1,6.34,8.55,9.77,12.6,2,2.42,2,4.28.64,7.11-2.67,5.5-4.49,11.41-7.09,16.94a7.91,7.91,0,0,1-4.62,4,151.94,151.94,0,0,1-16.76,2.55c-3.28.35-4.72,1.68-4.65,5.06.15,6.83.2,13.67,0,20.5-.1,3.44,1.42,4.75,4.58,5.14,5.61.69,11.26,1.32,16.77,2.53a7.86,7.86,0,0,1,4.66,3.91c2.91,6.13,5.1,12.61,8,18.71,1.29,2.67,1.29,4.41-.53,6.71-3.5,4.44-6.61,9.19-10.07,13.66-1.88,2.43-1.9,4.23.42,6.41,5,4.68,9.8,9.52,14.57,14.41,2.28,2.33,4.34,2.56,6.93.47,4.28-3.45,8.78-6.62,13.07-10.05,2.37-1.9,4.42-2,7.25-.68a116.76,116.76,0,0,0,16.59,6.75c3.16,1,4.23,2.55,4.59,5.45.7,5.44,1.68,10.85,2.27,16.31.35,3.27,1.8,4.76,5.1,4.73q10.25-.12,20.5,0c3,0,4.58-1.21,5-4.27.74-5.77,1.83-11.51,2.42-17.29.28-2.78,1.42-3.77,4-4.71,6.53-2.36,12.79-5.5,19.3-7.95a7.28,7.28,0,0,1,5.69.42c4.9,3.13,9.54,6.69,14.16,10.24,2.43,1.86,4.33,1.8,6.47-.47,4.69-5,9.42-9.9,14.35-14.61,2.69-2.57,2.35-4.63.2-7.26-3.58-4.39-7.1-8.84-10.22-13.55a7.17,7.17,0,0,1-.44-5.61c2.19-6.08,5.09-11.91,7.19-18,.93-2.69,2.14-3.66,4.83-3.94,5.62-.6,11.2-1.63,16.81-2.32,3.19-.4,4.7-1.82,4.62-5.19-.14-6.66-.12-13.33,0-20,.06-3.46-1.23-5.14-4.84-5.5-5.79-.59-11.57-1.47-17.28-2.59a5.89,5.89,0,0,1-3.73-3C228.54,228.9,225.6,221.15,222.24,212.67Z"/><path class="cls-1" d="M378.29,257.36q-31.25,0-62.49,0c-6.44,0-9.9-2.76-10-7.83-.09-5.32,3.47-8.23,10.15-8.23q62.49,0,125,0c3.8,0,7.37.74,8.66,4.45.82,2.36.94,6.11-.42,7.8a11.52,11.52,0,0,1-7.92,3.7C420.28,257.49,399.28,257.36,378.29,257.36Z"/><path class="cls-1" d="M345.76,305.85c-15,0-30,0-44.94,0-2,0-4.54.3-5.78-.77-2.18-1.86-4.81-4.63-4.9-7.11s2.31-5.45,4.35-7.47c1.14-1.14,3.76-1.07,5.71-1.08q45.94-.09,91.88,0c8,0,12.42,5.42,9.64,11.59-1.85,4.1-5.43,4.92-9.52,4.91C376.72,305.82,361.24,305.85,345.76,305.85Z"/><path class="cls-1" d="M346.09,193.06H392c6.62,0,10.44,2.92,10.51,7.92s-3.79,8.17-10.28,8.17q-46.67,0-93.33,0c-3.86,0-7.37-1.08-8.32-4.88-.63-2.55-.26-6.2,1.23-8.19,1.36-1.83,4.81-2.88,7.36-2.92C314.81,192.94,330.45,193.06,346.09,193.06Z"/><path class="cls-1" d="M152.54,48.22c-10.15,0-20.3,0-30.45,0-5.83,0-9.32-3-9.38-8s3.5-8.11,9.24-8.12q30.95-.06,61.9,0c5.91,0,9.29,3,9.34,8s-3.35,8.08-9.2,8.11C173.51,48.26,163,48.22,152.54,48.22Z"/><path class="cls-1" d="M153,483c-12.16,0-24.32.05-36.48,0a21.59,21.59,0,0,1-6.86-.94c-3.51-1.24-5.69-4.29-4.71-7.79.73-2.66,3-5.12,5.24-7,1.13-1,3.5-.73,5.3-.73q37.74-.08,75.46,0c1.8,0,4.2-.14,5.26.88,2.1,2,4.88,4.9,4.74,7.27-.15,2.63-2.87,5.53-5.19,7.46-1.39,1.15-4.14.87-6.28.88C177.34,483,165.18,483,153,483Z"/><path class="cls-1" d="M153,307.36a50,50,0,0,1-50.12-50.16,50.48,50.48,0,0,1,50.05-50c27.57-.1,49.93,22.47,49.95,50.4A49.59,49.59,0,0,1,153,307.36Zm-.16-16.2A33.73,33.73,0,1,0,119.2,257.4,33.92,33.92,0,0,0,152.87,291.16Z"/></g></g></svg>