<svg xmlns="http://www.w3.org/2000/svg" viewBox="0 0 126.52 136.72"><defs><style>.cls-1{fill:#fff;}</style></defs><g id="Layer_2" data-name="Layer 2"><g id="layer"><path class="cls-1" d="M63.26,133.63h0a60.9,60.9,0,0,1-7.89-.51l-.4,3.06a63.53,63.53,0,0,0,8.29.54h0a63.38,63.38,0,0,0,8.28-.54l-.4-3.06A60.75,60.75,0,0,1,63.26,133.63Z"/><path class="cls-1" d="M86.69,128.9l-.32.13,1.18,2.85.34-.14a63.05,63.05,0,0,0,14-8.18L100,121.12A60.79,60.79,0,0,1,86.69,128.9Z"/><path class="cls-1" d="M26.49,121.1l-1.88,2.44a62.65,62.65,0,0,0,14,8.2l.32.13L40.13,129l-.3-.12A60,60,0,0,1,26.49,121.1Z"/><path class="cls-1" d="M7.54,96.22,4.69,97.39c.09.23.19.47.29.7a63.08,63.08,0,0,0,7.94,13.69l2.45-1.87a60.32,60.32,0,0,1-7.55-13C7.73,96.66,7.63,96.44,7.54,96.22Z"/><path class="cls-1" d="M118.7,96.89a60.13,60.13,0,0,1-7.57,13l2.45,1.87a62.89,62.89,0,0,0,8-13.71c.09-.23.19-.45.28-.68L119,96.24Z"/><path class="cls-1" d="M123,81l3.06.38a64.78,64.78,0,0,0,.49-7.89h-3.09A60.57,60.57,0,0,1,123,81Z"/><path class="cls-1" d="M44.94,16.13c1.78-.57,3.6-1.06,5.43-1.46l1.15,11.44L63.26,11.75,48.9,0l1.16,11.58C48,12,46,12.55,44,13.19Z"/><path class="cls-1" d="M7.82,50a60.47,60.47,0,0,1,5.09-9.53l-2.59-1.69A63.65,63.65,0,0,0,5,48.83c-.39.92-.76,1.86-1.11,2.79l2.9,1.07C7.1,51.8,7.45,50.91,7.82,50Z"/><path class="cls-1" d="M32.49,21.73l-1.57-2.65a63.25,63.25,0,0,0-11.42,8.7L21.64,30A60.32,60.32,0,0,1,32.49,21.73Z"/><path class="cls-1" d="M.49,65.58a63.69,63.69,0,0,0,0,15.77L3.55,81a61.45,61.45,0,0,1,0-15Z"/><rect class="cls-1" x="46.88" y="57.71" width="32.75" height="21.83"/><path class="cls-1" d="M63.26,28.9a45.29,45.29,0,1,0,45.29,45.29A45.29,45.29,0,0,0,63.26,28.9ZM90.5,79.7,79.64,90.5H46.88v11H35.94l.16-43.82H46.88V46.92H79.64v-.07L90.58,57.71Z"/><circle class="cls-1" cx="114.59" cy="7.1" r="7.1"/><circle class="cls-1" cx="90.77" cy="4.97" r="4.97"/><path class="cls-1" d="M74.07,7a3.48,3.48,0,1,0-3.48-3.47A3.47,3.47,0,0,0,74.07,7Z"/><path class="cls-1" d="M123.81,19.25H105.37A2.71,2.71,0,0,0,102.66,22V37.52a53,53,0,0,1,4.66,5.73,2.63,2.63,0,0,1,.5.73,53.44,53.44,0,0,1,9.07,25.54h1.49a2.71,2.71,0,0,0,2.71-2.71V45.14a2.72,2.72,0,0,1,2.72-2.72,2.71,2.71,0,0,0,2.71-2.71V22A2.71,2.71,0,0,0,123.81,19.25Z"/><path class="cls-1" d="M95.41,31a1.91,1.91,0,0,1,1.81-1.31,1.9,1.9,0,0,0,1.9-1.9V15.37a1.9,1.9,0,0,0-1.9-1.9H84.32a1.9,1.9,0,0,0-1.9,1.9v8.5q.9.35,1.8.72A53.25,53.25,0,0,1,95.41,31Z"/><path class="cls-1" d="M69,20.66a52.61,52.61,0,0,1,8.27,1.54v-.08a1.32,1.32,0,0,1,1.33-1.33,1.33,1.33,0,0,0,1.32-1.33v-8.7a1.33,1.33,0,0,0-1.32-1.33h-9a1.33,1.33,0,0,0-1.32,1.33v8.7A1.32,1.32,0,0,0,69,20.66Z"/></g></g></svg>