<?xml version="1.0" encoding="utf-8"?>
<!-- Generator: Adobe Illustrator 23.0.1, SVG Export Plug-In . SVG Version: 6.00 Build 0)  -->
<svg version="1.1" id="Layer_1" xmlns="http://www.w3.org/2000/svg" xmlns:xlink="http://www.w3.org/1999/xlink" x="0px" y="0px"
	 viewBox="0 0 100 100" style="enable-background:new 0 0 100 100;" xml:space="preserve">
<style type="text/css">
	.st0{fill:#FFFFFF;}
</style>
<path class="st0" d="M12.5,30.6v40.1c0,4.7,3.9,8.5,8.7,8.5h59.4c4.8,0,8.7-3.8,8.7-8.5V30.6c0-4.7-3.9-8.5-8.7-8.5H21.2
	C16.4,22.1,12.5,25.9,12.5,30.6z M83.6,30.6v40.1c0,1.6-1.3,2.8-2.9,2.8H21.2c-1.6,0-2.9-1.3-2.9-2.8V30.6c0-1.6,1.3-2.8,2.9-2.8
	h59.4C82.3,27.8,83.6,29,83.6,30.6z M55.7,40.4h16.6V46H55.7V40.4z M55.7,53.1h16.6v5.7H55.7V53.1z M32.1,59.8h13.1
	c2.6,0,4.7-2,4.7-4.5V43.8c0-2.5-2.1-4.5-4.7-4.5H32.1c-2.6,0-4.7,2-4.7,4.5v11.5C27.5,57.8,29.6,59.8,32.1,59.8L32.1,59.8z
	 M33.3,45H44v9.2H33.3V45L33.3,45z M5.8,91.5v-21H0v21c0,4.7,3.9,8.5,8.7,8.5h19.5v-5.7H8.7C7.1,94.3,5.8,93.1,5.8,91.5z M5.8,8.5
	c0-1.6,1.3-2.8,2.9-2.8h19.5V0H8.7C3.9,0,0,3.8,0,8.5v19.8h5.8V8.5z M91.3,0H71.8v5.7h19.5c1.6,0,2.9,1.3,2.9,2.8v19.4h5.8V8.5
	C100,3.8,96.1,0,91.3,0z M94.2,91.5c0,1.6-1.3,2.8-2.9,2.8H71.8v5.7h19.5c4.8,0,8.7-3.8,8.7-8.5V70h-5.8V91.5z"/>
</svg>
