<svg xmlns="http://www.w3.org/2000/svg" viewBox="0 0 50 41.36"><defs><style>.cls-1{fill:#fff;}</style></defs><title>parking-management</title><g id="Layer_2" data-name="Layer 2"><g id="layer"><path class="cls-1" d="M40.59,39.48h2.25c.52,0,1,0,1.57,0a.91.91,0,0,1,.88.7,1.12,1.12,0,0,1-.48,1.11.66.66,0,0,1-.28,0H.84a1,1,0,0,1-.82-.8c-.08-.49.1-.85.56-.93a11.78,11.78,0,0,1,1.68-.15c.72,0,1.45,0,2.17,0H4.8c0-.72,0-1.41,0-2.1,0-.12-.15-.26-.27-.35s-.52-.37-.75-.58A2.21,2.21,0,0,1,3,34.78C3,32.84,3,30.9,3,29a2.18,2.18,0,0,1,1.23-2,2.32,2.32,0,0,0,1-1.19l2.22-5.45c.42-1,.86-2,1.28-3A.54.54,0,0,1,9.32,17c1.65,0,3.3-.08,4.95-.09,3,0,6,0,9,0,1.75,0,3.49.05,5.24.08a.52.52,0,0,1,.55.37c.81,1.94,1.62,3.87,2.42,5.81.42,1,.82,2,1.24,3.05a.84.84,0,0,0,.37.4,4,4,0,0,1,1.49,1.22,2.94,2.94,0,0,1,.35,1.69c0,1.75,0,3.5,0,5.24A2.56,2.56,0,0,1,33.46,37a.67.67,0,0,0-.38.63v1.87h5.61V20.73a17.94,17.94,0,0,1-1.76-.41,10.15,10.15,0,0,1-7.49-8.51A10.34,10.34,0,0,1,34.5,1.35,9.63,9.63,0,0,1,38.16.08,10.47,10.47,0,0,1,49.48,7,10.39,10.39,0,0,1,50,11.29a9.52,9.52,0,0,1-3,6.29,9.52,9.52,0,0,1-2.35,1.84,11.31,11.31,0,0,1-3.75,1.22c-.24,0-.29.11-.29.34v18.5ZM7.2,26.14a3.09,3.09,0,0,0,.4.07c1.37,0,2.75.07,4.12.07,3.85,0,7.7,0,11.54,0,2.3,0,4.6-.05,6.91-.08a3.93,3.93,0,0,0,.48-.06c0-.07,0-.1,0-.11q-1.41-3.52-2.81-7a.33.33,0,0,0-.36-.24h-17a.48.48,0,0,0-.52.37c-.62,1.57-1.25,3.13-1.86,4.69C7.8,24.58,7.51,25.34,7.2,26.14ZM37.88,13.07c1,0,1.86,0,2.77,0a3.74,3.74,0,0,0,2-.45A3.89,3.89,0,0,0,44.55,9a3.63,3.63,0,0,0-3-3.32c-1.53-.14-3.09-.07-4.63-.06-.5,0-.7.23-.75.74s-.06,1-.06,1.46c0,2.7,0,5.39,0,8.09a.77.77,0,0,0,.35.72.82.82,0,0,0,.86.15.81.81,0,0,0,.56-.78c0-.24,0-.49,0-.73ZM10.49,39.45h16.9V37.63H10.49Zm-1.18-6a1.68,1.68,0,0,0,1.63-1.53,1.76,1.76,0,0,0-1.64-1.7,1.72,1.72,0,0,0-1.63,1.65A1.6,1.6,0,0,0,9.31,33.42Zm19.31,0a1.63,1.63,0,0,0,1.61-1.51,1.72,1.72,0,0,0-1.65-1.71A1.64,1.64,0,0,0,27,32,1.45,1.45,0,0,0,28.62,33.42Z" transform="translate(0 0)"/><path class="cls-1" d="M37.92,11.21V7.46h.49c.86,0,1.72,0,2.58,0a1.77,1.77,0,0,1,1.69,1.66,1.73,1.73,0,0,1-1.42,1.94c-.75.1-1.51.07-2.26.1Z" transform="translate(0 0)"/></g></g></svg>