<svg xmlns="http://www.w3.org/2000/svg" viewBox="0 0 214.97 318.34"><defs><style>.cls-1{fill:#fff;}</style></defs><title>pixilation</title><g id="Layer_2" data-name="Layer 2"><g id="layer"><path class="cls-1" d="M28.38,267.48v14.66H14.21V295H0V0H14.15V14.88H28.84v14l.05-.06H14.12V267.56H28.47Z"/><path class="cls-1" d="M138.66,221.23H124.13V187.56H185.4c-.3-5-.57-9.58-.83-14.13l-.06,0h17.25v13.77H215v14.56h-76.4v19.51Z"/><path class="cls-1" d="M167.44,304.64c-.12-4.05-.31-8.09-.36-12.14-.07-5.17,0-10.34,0-15.94H152.79V249.14H167v27.27H181.1V304.6H167.39Z"/><path class="cls-1" d="M129.3,304.43l38.14.2-.05,0c0,4.52,0,9,0,13.75h-38v-14Z"/><path class="cls-1" d="M119.24,114.89c-3.21.19-6.4.44-9.61.57-2.31.09-4.63,0-7.33,0v-14.3H86V86.46l-.07.07h16.23v14.53h16.37c.23,4.84.45,9.34.67,13.84Z"/><path class="cls-1" d="M72,225.12v14.13H57.41v14.19H43.25V239.29h14V225.22H72.11Z"/><path class="cls-1" d="M57.48,57.62H43.14V43.79H28.88c0-5.15,0-10,0-14.95l-.05.06H43V43.6H57.42c0,4.87,0,9.48,0,14.1Z"/><path class="cls-1" d="M129.38,304.35H114.8c0-6.92,0-13.47,0-20,0-2.2-.23-4.4-.35-6.61,0,0-.07.08-.07.08H129.3v26.63Z"/><path class="cls-1" d="M138.57,221.32h13.84v27.37H138.34c0-1.74,0-3.52,0-5.29q.14-11.09.3-22.17S138.57,221.32,138.57,221.32Z"/><path class="cls-1" d="M100.85,250.45c3.17.15,6.34.33,9.52.46,1.29.05,2.59,0,4.08,0a15.26,15.26,0,0,1,.32,2.14q0,11.37,0,22.72a9.57,9.57,0,0,1-.41,2l.07-.07H100.9V250.39Z"/><path class="cls-1" d="M100.9,250.39l-15.07.77V225.21l-.07.09h15.08v25.15Z"/><path class="cls-1" d="M168.14,158.72H185.4l-.88,14.75,0,0c-3.92-.12-7.83-.27-11.75-.39-1.29,0-2.58,0-4.59,0V158.62Z"/><path class="cls-1" d="M151.76,144.66c-4-.12-8-.26-12.07-.37-1.29,0-2.59,0-4.18,0V129.76l-.09.09h16.25v14.89Z"/><path class="cls-1" d="M135.51,129.76H119.23V114.89h0c2.15.19,4.3.49,6.46.56,3.11.09,6.24,0,9.75,0v14.37Z"/><path class="cls-1" d="M168.23,158.62H151.77c0-4.79,0-9.38,0-14l-.09.08h16.48v14Z"/><path class="cls-1" d="M72.15,72.28H57.47c0-5,0-9.83,0-14.66l-.07.08H72.08c0,5.25,0,10,0,14.67Z"/><path class="cls-1" d="M72.11,225.22V210.8H85.77v14.49l.06-.08L72,225.11Z"/><path class="cls-1" d="M28.47,267.56V253.64H42.78v14.48l-14.39-.63Z"/><path class="cls-1" d="M86,86.46c-2.31.07-4.61.18-6.91.21s-4.58,0-7,0c0-5.17,0-9.78,0-14.4l-.08.09H85.94V86.53Z"/></g></g></svg>