<svg xmlns="http://www.w3.org/2000/svg" viewBox="0 0 33.6 50"><defs><style>.cls-1{fill:#fff;}</style></defs><title>planogram</title><g id="Layer_2" data-name="Layer 2"><g id="layer"><path class="cls-1" d="M9.57,19.23a2.58,2.58,0,0,1-2-1.91,2.41,2.41,0,0,1,2.67-2.92c.43.08.58-.07.81-.39a7.67,7.67,0,0,0,1.49-5.58,23.6,23.6,0,0,1,0-2.79c0-.66.27-.94.92-.94h5.86c.66,0,.92.26.93.93,0,1.73,0,3.46,0,5.2a2.11,2.11,0,0,0,.32,1c.4.62.86,1.2,1.38,1.91-.74,0-1.35,0-2,0-.11,0-.24-.14-.31-.25a17.39,17.39,0,0,1-.88-1.57,2.27,2.27,0,0,1-.14-.9c0-.53,0-1.05,0-1.62H14.14c0,.62,0,1.26,0,1.88a2.84,2.84,0,0,1-.29,1.08c-.5.95-1.07,1.87-1.58,2.81a.92.92,0,0,0-.06.69,2.48,2.48,0,0,1-.78,2.9.91.91,0,0,0-.33.6q0,10.38,0,20.75c0,.09,0,.18,0,.3a2.74,2.74,0,0,1,1.81,1.46.54.54,0,0,0,.41.17c2.09,0,4.19,0,6.29,0,.17,0,.35-.17.5-.3.45-.38.84-.83,1.32-1.16.23-.16.34-.26.34-.53,0-1,0-2,0-3h1.59c0,1,0,2,0,3a.94.94,0,0,0,.42.91,2.38,2.38,0,0,1-1.16,4.27A2.3,2.3,0,0,1,20.19,44a.68.68,0,0,0-.67-.4c-2.05,0-4.09,0-6.13,0a.63.63,0,0,0-.64.36,2.27,2.27,0,0,1-2.38,1.21,2.36,2.36,0,0,1-2.06-1.71,2.45,2.45,0,0,1,.85-2.6.9.9,0,0,0,.32-.61q.07-10.36.11-20.74C9.59,19.43,9.58,19.34,9.57,19.23ZM14.18,6.3V7.72h4.46V6.3Z"/><path class="cls-1" d="M20.54,25.31V18.55c0-1.38.08-1.46,1.45-1.46h3.77c.75,0,1,.23,1,1,0,.9,0,1.79,0,2.69,0,.36.12.47.47.46,1.06,0,2.12,0,3.18,0s1.15.13,1.15,1.12v9.83h1.05c.67,0,1,.25,1,.71s-.35.68-1,.68H20.84c-.61,0-1.21,0-1.81,0-.39,0-.56.12-.7.5A2.36,2.36,0,0,1,16,35.6a2.41,2.41,0,0,1-2.2-1.68A2.33,2.33,0,0,1,15.26,31a.65.65,0,0,0,.48-.76c0-1.31,0-2.63,0-3.94,0-.77.24-1,1-1ZM22,32.18c.92,0,1.81,0,2.69,0,.51,0,.65-.13.65-.64,0-4.14,0-8.27,0-12.41,0-.19,0-.38,0-.56H22Zm8,0V22.62c-1,0-1.87,0-2.77,0-.47,0-.55.17-.54.58,0,1.67,0,3.35,0,5,0,1.17,0,2.34,0,3.5,0,.16.19.43.3.43C28,32.19,29,32.17,30.05,32.17Zm-9.54,0V26.79H17.18c0,1.09,0,2.15,0,3.2,0,.62-.07,1.24.64,1.57.13.07.19.26.31.37s.22.23.34.23C19.14,32.18,19.81,32.17,20.51,32.17Z"/><path class="cls-1" d="M1.62,1.58V4.44a4,4,0,0,1,0,.6.75.75,0,0,1-.78.7A.73.73,0,0,1,0,5c0-.47,0-1,0-1.43C0,2.71,0,1.83,0,1,0,.27.3,0,1,0H4.82c.59,0,1,.32,1,.8s-.38.76-1,.77C3.79,1.59,2.75,1.58,1.62,1.58Z"/><path class="cls-1" d="M1.62,48.41H4.53a3.25,3.25,0,0,1,.54,0,.77.77,0,0,1,.7.79.71.71,0,0,1-.71.76c-1.45,0-2.91,0-4.37,0C.23,50,0,49.6,0,49.17c0-1.36,0-2.73,0-4.1a.77.77,0,0,1,.83-.82.82.82,0,0,1,.77.9C1.63,46.2,1.62,47.26,1.62,48.41Z"/><path class="cls-1" d="M31.38,48.41c0-1.16,0-2.25,0-3.34a.78.78,0,0,1,.77-.82.81.81,0,0,1,.81.84v0c0,1.33,0,2.67,0,4,0,.59-.28.85-.88.85H28.19c-.64,0-1-.28-1-.78s.35-.8,1-.8Z"/><path class="cls-1" d="M31.35,1.58H28.44a2.39,2.39,0,0,1-.6,0,.73.73,0,0,1-.62-.83.69.69,0,0,1,.7-.7c1.44,0,2.88,0,4.32,0A.7.7,0,0,1,33,.77C33,2.18,33,3.58,33,5a.78.78,0,0,1-1.56,0c0-.92,0-1.85,0-2.78C31.38,2,31.36,1.81,31.35,1.58Z"/></g></g></svg>