<svg xmlns="http://www.w3.org/2000/svg" viewBox="0 0 139.61 186.99"><defs><style>.cls-1{fill:#fff;}</style></defs><title>pos-integration</title><g id="Layer_2" data-name="Layer 2"><g id="layer"><path class="cls-1" d="M69.05,42.78H73.7C80,42.79,84.15,47,84.15,53.21q0,47,0,93.94,0,14.68,0,29.39c0,6.23-4.21,10.44-10.46,10.44q-31.61,0-63.2,0C4.29,187,0,182.69,0,176.51Q0,158.27,0,140q0-36.6,0-73.18c0-4.6,0-9.19,0-13.78a9.93,9.93,0,0,1,10.26-10.3c1,0,2.08,0,3.12,0,.65,0,.91-.17.9-.88q-.06-19.26,0-38.51A1.58,1.58,0,0,1,15,2.3c1.33-.73,2.74-1.3,4.08-2a1.93,1.93,0,0,1,2.09.06Q25,2.55,29,4.64a2.44,2.44,0,0,0,1.66.16C33.3,4,35.89,3,38.51,2.2A2.24,2.24,0,0,1,40,2.3c1.83.89,3.59,1.91,5.42,2.8a2.15,2.15,0,0,0,1.44.08c3.63-1.09,7.23-2.24,10.85-3.34A1.91,1.91,0,0,1,59,1.92C62,3.42,65,5,68.06,6.5a1.55,1.55,0,0,1,1,1.64c0,11,0,22.07,0,33.1Zm-4.8,11.45V23.09c0-4.07,0-8.15,0-12.22,0-.38-.14-1-.41-1.11-1.85-1-3.76-1.94-5.65-2.89a.54.54,0,0,0-.33-.06c-1.25.31-2.52.58-3.75,1-2.57.83-5.12,1.76-7.7,2.57a2.5,2.5,0,0,1-1.65-.2c-1.69-.83-3.3-1.8-5-2.62a2.44,2.44,0,0,0-1.66-.14c-2.63.83-5.21,1.78-7.83,2.62a2.19,2.19,0,0,1-1.53-.13c-2.66-1.37-5.28-2.82-7.92-4.23C19.49,4.94,19,5.26,19,6.76q0,16.14-.09,32.28c0,4.71.05,9.42.08,14.14,0,.34-.06.68-.1,1.12H14.22v2.88H69v-3ZM10.44,69.44V89.53h63.4V69.44Zm15.77,72.43H10.6v15.55H26.21Zm-15.62-5.54H26.2V120.79H10.59Zm0-21.15H26.19V99.65H10.62Zm0,47.85v15.53H26.21V163Zm63-63.41H58v15.55H73.61ZM34.27,115.17H49.84V99.62H34.27ZM49.88,163H34.31v15.58H49.88ZM58,163v15.53H73.57V163Zm0-26.74H73.55V120.83H58ZM34.32,120.77v15.56H49.81V120.77Zm0,21.12v15.54H49.81V141.89Zm39.19,15.54V141.91H58v15.52Z"/><path class="cls-1" d="M139.31,97.77a4.8,4.8,0,0,1,.26,1.09c0,19.48,0,39,0,58.43a4,4,0,0,1-4.27,4.28c-13.27-.1-26.55,0-39.82,0H94.05v5.83H86.68V73.3H94v5.77c.54,0,.93.07,1.32.07h30c3.43,0,6.87,0,10.3,0,2.62,0,3.93,1.29,3.95,3.88s0,5.28,0,7.92a3.93,3.93,0,0,1-.25,1c-.77-.79-1.54-1.58-2.32-2.36-.06-2-.13-4.06-.17-6.08,0-1.58-.06-1.63-1.61-1.63h-29.6c-.38,0-.77,0-1.22.07v76.81c.43,0,.74.06,1.06.06l29.5,0c1.86,0,1.86,0,1.86-1.83q0-27.72,0-55.43a11.37,11.37,0,0,1,.17-1.4ZM94.06,81.93v76.76h2.1V81.93Z"/><path class="cls-1" d="M139.31,97.77,137,100.12a7.4,7.4,0,0,1-.16-1.15c0-2.47,0-4.94,0-7.42,0-.66.11-1.32.17-2,.78.78,1.55,1.57,2.32,2.36C139.32,93.88,139.32,95.82,139.31,97.77Z"/><path class="cls-1" d="M60.14,45.34v2.91h-38V45.34Z"/><path class="cls-1" d="M60.17,31.38v2.91h-38V31.38Z"/><path class="cls-1" d="M22.11,41.28V38.46h38c0,.38.06.84.07,1.3s0,1,0,1.52Z"/><path class="cls-1" d="M22.1,20.43v-3h20c.54,2.47-.34,3.07-2.33,3-5.44-.09-10.88,0-16.32,0Z"/><path class="cls-1" d="M34.49,27.21a4.33,4.33,0,0,1-.92.2c-3.64,0-7.28,0-10.92,0a3.65,3.65,0,0,1-.53-.09V24.41c.38,0,.72-.05,1.07-.05q6.48,0,13,0a4.44,4.44,0,0,1,1,.22Z"/><path class="cls-1" d="M34.49,27.21l2.64-2.64,5.06-.31v3.17c-1.85,0-3.74,0-5.63,0C35.87,27.4,35.18,27.28,34.49,27.21Z"/><path class="cls-1" d="M47.54,84,45,82.15l2.88-2.5L44.15,79l1-2.78,3.2,1.53c-.14-1.19-.27-2.27-.41-3.45h2.88l-.42,3.5,3.27-1.59L54.54,79,51,79.64c.79.85,1.54,1.67,2.33,2.54L51,84l-1.72-3.16C48.7,81.88,48.15,82.87,47.54,84Z"/><path class="cls-1" d="M32.88,77.67l-.38-3.4h2.84L35,77.79l1.76-.9c1.16-.6,1.47-.49,2,.73.16.41.27.83.45,1.4l-3.51.62L38,82.19,35.6,84l-1.71-3.13L32.15,84l-2.51-1.79,2.71-2.54L28.75,79c.31-.91.58-1.73.92-2.75Z"/><path class="cls-1" d="M20.28,77.8l3.31-1.61,1,2.81L21,79.65l2.36,2.53L20.94,84l-1.67-3.22L17.56,84l-2.62-1.91,3-2.44L14.09,79l1-2.75,3.19,1.51-.38-3.44h2.83Z"/><path class="cls-1" d="M65.67,82.14l-1.06-1.23c-.52,1-1.06,2-1.65,3.08l-2.53-1.83,2.71-2.23L63,79.58,59.53,79l1-2.79,3.2,1.55-.42-3.48h2.9l-.48,3.52,3.15-1.52c1.12,2,1.27,2.91-2.4,3.37l.73,1Z"/><path class="cls-1" d="M65.67,82.14l1.52-1.48,1.6,1.5-2.5,1.9Z"/><path class="cls-1" d="M116.39,157.49h-4.54c-.23,0-.47,0-.79-.05,0-.53-.06-1-.06-1.46q0-12.47,0-24.93,0-6.71-.08-13.41c0-1,.3-1.32,1.29-1.27,1.34.08,2.7,0,4.13,0Z"/><path class="cls-1" d="M127.85,99.15a6.82,6.82,0,0,1-6.79-6.89,6.74,6.74,0,0,1,6.87-6.79,6.86,6.86,0,0,1,6.84,6.86A7,7,0,0,1,127.85,99.15Z"/><path class="cls-1" d="M133.67,98.33a6.82,6.82,0,0,1-1.66,9,6.92,6.92,0,0,1-8.8-.45,6.73,6.73,0,0,1-1.06-8.61C126,101.36,129.84,101.31,133.67,98.33Z"/><path class="cls-1" d="M127.08,157.43h-2v-40.9c2-.33,2-.3,2,1.48v39.42Z"/><path class="cls-1" d="M129.89,116.46h1.91v41h-1.91Z"/><path class="cls-1" d="M116.4,99.94V113.5h-5.34V99.94Z"/></g></g></svg>