<svg xmlns="http://www.w3.org/2000/svg" viewBox="0 0 340.12 279.33"><defs><style>.cls-1{fill:#fff;}</style></defs><title>queue-length</title><g id="Layer_2" data-name="Layer 2"><g id="layer"><path class="cls-1" d="M110.47,155.15l14.11-4.41c.61,1.44,1.22,2.9,2.08,4.95-4.4,1.38-8.58,3-12.91,3.95-2.57.58-3.31,1.64-3.28,4.13.12,7.68,0,15.36,0,23,0,8.76,0,8.76-8.57,9.84v82.26c-1.44.16-2.48.38-3.52.38q-20.37,0-40.73,0c-6,0-7.61-1.57-7.64-7,0-8.56,1-10,7.51-10.08,5-.07,10.09,0,15.29,0V196.77c-8.74-1.51-8.74-1.51-8.74-10.81V162.5c0-2.61.79-5.65-4.93-5.52a53.8,53.8,0,0,0,4.23-5.32,7,7,0,0,0,.66-3.39q.08-29,0-58c0-6.29.66-7,7.06-7q16,0,32.1,0c6.77,0,7.27.47,7.28,7.16q0,29.82,0,59.66Z"/><path class="cls-1" d="M209.09,156.14c-.19,1.61-.37,3.17-.61,5.2l-14.82-3.47c-.08,1.52-.22,2.94-.22,4.35,0,9.61-.12,19.22,0,28.82.06,3.59-1,5.66-4.9,5.18-3.26-.41-3.84,1.1-3.82,4,.1,24.42.06,48.84.06,73.26v5.82H173c-10.84,0-21.68,0-32.52,0-5.83,0-7.31-1.51-7.33-7.24,0-1.1,0-2.19,0-3.29,0-4.53,1.92-6.54,6.47-6.63,5.33-.1,10.67,0,16.26,0V196.94c-.3-.17-.63-.5-1-.53-7.82-.8-7.74-.79-7.7-8.91.06-13,0-26.07,0-39.1,0-.78-.13-1.57-.24-2.83l-13.5,7.13-2.39-4.78,16.15-8.63V89.83c0-5.93.66-6.6,6.6-6.6,11.39,0,22.78,0,34.17,0,4.73,0,5.43.73,5.44,5.55,0,19.76.08,39.51-.09,59.27,0,2.91.89,4.32,3.57,5C200.87,154,204.82,155.05,209.09,156.14Z"/><path class="cls-1" d="M268,279.3c-16.11,0-31.46,0-46.81,0a4.86,4.86,0,0,1-2.31-.73c-2.5-1.43-3.73-7.53-2.42-12.19.88-3.12,3.23-4.22,6.28-4.2,2.74,0,5.49,0,8.23,0h8.19V196.93c-.59-.32-.82-.54-1.06-.56-7.73-.39-7.73-.39-7.73-8.36V162.39H215.56c.33-2.17.57-3.73.87-5.69h13.92v-7.78q0-29.83,0-59.68c0-5.26.72-6,5.88-6h34.15c5.69,0,6.19.48,6.19,6,0,14.68-.09,29.36.1,44,0,3.51,1.1,7,1.68,10.48-.55,2.27-1.66,4.81-1.69,7.37-.19,12.74-.1,25.48-.07,38.21,0,6.52,0,6.56-6.54,6.92-.53,0-1.06.15-2.06.3Z"/><path class="cls-1" d="M86.73,0c19.14-.3,35.27,15.65,35.56,35.14.28,19.07-15.54,35.47-34.53,35.8C67.71,71.31,51.29,55.78,51,36.2,50.68,16.26,66.41.34,86.73,0Z"/><path class="cls-1" d="M169.74,71a35.49,35.49,0,1,1,35.57-35.54A35.61,35.61,0,0,1,169.74,71Z"/><path class="cls-1" d="M288.24,35.52A35.52,35.52,0,1,1,252.85,0,35.08,35.08,0,0,1,288.24,35.52Z"/><path class="cls-1" d="M287.82,144.64c-7.54-4.5-9.85-8.59-8.26-14.42a11.44,11.44,0,0,1,22.12-.44c1.5,5.11-.4,10.56-5.24,13-2.68,1.36-2.83,3.12-2.83,5.55q0,61.27,0,122.54a23.72,23.72,0,0,1-.82,6.05,3.56,3.56,0,0,1-2.16,2c-.45.13-1.61-1-1.89-1.78a13,13,0,0,1-.84-4.36q-.08-48.13-.06-96.26C287.81,165.89,287.82,155.21,287.82,144.64Z"/><path class="cls-1" d="M25.91,250.32c0-17.66.06-35.32,0-53q-.11-25.08-.54-50.15a5.87,5.87,0,0,0-2.4-4c-4.74-3.21-7.07-8.42-5.56-13.41a12,12,0,0,1,11-8.39,11.87,11.87,0,0,1,11.28,9.14c1.25,4.93-1,10-6.12,12.62-2.24,1.13-2.34,2.6-2.34,4.59q0,60.89,0,121.75a31.61,31.61,0,0,1-.45,6.54c-.24,1.12-1.5,2-2.29,3-.83-1-2-1.8-2.4-2.92a17.79,17.79,0,0,1-.66-5.26c-.06-6.86,0-13.71,0-20.57Z"/><path class="cls-1" d="M37.86,145.14l3.26-4.35,14.43,8.32c-.65,1.42-1.29,2.85-2.23,4.91Z"/><path class="cls-1" d="M2.45,152.86,0,148l14.65-8.18,3,4.35Z"/><path class="cls-1" d="M300.14,145.24l3.06-4.57,14.32,8.47c-.46,1.18-1,2.55-1.86,4.85Z"/><path class="cls-1" d="M322.36,157l1.87-5.09,15.89,4.33c-.17,1.51-.33,3-.58,5.27Z"/></g></g></svg>