<svg xmlns="http://www.w3.org/2000/svg" viewBox="0 0 45 39.61"><defs><style>.cls-1{fill:#fff;}</style></defs><title>rack-refill</title><g id="Layer_2" data-name="Layer 2"><g id="layer"><path class="cls-1" d="M1.86,39.61H0V11.45H1.89v1.71H33.1V11.35H35V39.61H33.11V37.86H1.86Zm.06-15.08H33V15.11H1.92Zm0,1.95v9.4H33v-9.4Z"/><path class="cls-1" d="M11.69,5.68v6.18H4.38V5.68Z"/><path class="cls-1" d="M13.62,11.87V7.42h5.3v4.45Z"/><path class="cls-1" d="M11.68,23.3H4.39V17.11h7.29Z"/><path class="cls-1" d="M13.64,17.1H21v6.18H13.64Z"/><path class="cls-1" d="M28.23,23.3H22.9V18.79h5.33Z"/><path class="cls-1" d="M11.68,34.67H4.38V28.49h7.3Z"/><path class="cls-1" d="M21,28.48v6.17H13.63V28.48Z"/><path class="cls-1" d="M22.91,28.47h7.3v6.19h-7.3Z"/><path class="cls-1" d="M44,14.54a10.09,10.09,0,0,1-4.26,4.37,1.56,1.56,0,0,1-2.14-.55A1.63,1.63,0,0,1,38,16.19a11.57,11.57,0,0,0,1.78-1.38,6.58,6.58,0,0,0,1.37-7.49,6.45,6.45,0,0,0-6-4.11A6.53,6.53,0,0,0,28.77,7s0,.11-.12.31l2.08-.61c.72-.2,1,0,1.27.7.06.15.1.32.15.48.26.92.11,1.21-.8,1.48L25.74,11c-.88.26-1.16.11-1.43-.78q-.84-2.84-1.67-5.67c-.24-.83-.09-1.1.72-1.35,1.52-.47,1.58-.44,2,1.07.12.39.24.79.4,1.34.19-.26.31-.41.41-.57a9.69,9.69,0,0,1,9.38-5A9.53,9.53,0,0,1,44.23,6.3,9.84,9.84,0,0,1,44,14.54"/></g></g></svg>