<svg xmlns="http://www.w3.org/2000/svg" viewBox="0 0 44.2 50"><defs><style>.cls-1{fill:#fff;}</style></defs><title>restricted-area</title><g id="Layer_2" data-name="Layer 2"><g id="layer"><path class="cls-1" d="M18.86,0A3.53,3.53,0,0,1,21,3.68C20.92,9,21,14.39,21,19.74V21l1.23.14V19.83c0-4.86,0-9.72,0-14.57,0-2.32,2-3.72,3.95-2.85a2.53,2.53,0,0,1,1.68,2.3c0,5.18,0,10.35,0,15.53,0,.06,0,.12-.06.15-7.15,1.76-11.87,6-13,13.36C13.67,40.6,16.54,45.9,22.23,50c-1.26,0-2.54.1-3.8,0-6.95-.65-14.25-5.7-15.78-13.67C1.93,32.53,1,28.82.21,25.1A2.11,2.11,0,0,0,0,24.64v-1.5a1,1,0,0,0,.17-.25A2.77,2.77,0,0,1,3,21,2.83,2.83,0,0,1,5.61,23.1c.59,1.53,1.2,3,1.81,4.58.23.56.47,1.12.71,1.69a40,40,0,0,0,.21-5c0-5.85,0-11.7,0-17.56A3.6,3.6,0,0,1,9.46,4.66a2.42,2.42,0,0,1,2.89-.36A2.62,2.62,0,0,1,14,6.84q0,7.38,0,14.77c0,.37,0,.74.06,1.11,1-.11,1.23-.65,1.23-1.48,0-5.86,0-11.71,0-17.56A3.53,3.53,0,0,1,17.36,0Z"/><path class="cls-1" d="M16.58,36.13a13.81,13.81,0,1,1,13.74,13.8A13.86,13.86,0,0,1,16.58,36.13Zm2,0a11.79,11.79,0,1,0,12-11.82A11.79,11.79,0,0,0,18.62,36.12Z"/><path class="cls-1" d="M34.62,20.65,29,20.14c0-1.5-.09-3.13,0-4.75a2.81,2.81,0,0,1,5.59.09C34.7,17.21,34.62,19,34.62,20.65Z"/><path class="cls-1" d="M25.33,34.55c0-1,0-1.89,0-2.81a5.18,5.18,0,0,1,3.53-4.87,4.83,4.83,0,0,1,5.58,1.87,9.85,9.85,0,0,1,1,3.19,6.45,6.45,0,0,1,0,1.81c0,.59.11.9.8.95a1.59,1.59,0,0,1,1.54,1.73c0,1.78.06,3.56,0,5.35,0,1.2-.69,1.78-1.94,1.79H25a1.79,1.79,0,0,1-2-2c0-1.47,0-2.93,0-4.39C23,35.29,23.35,34.86,25.33,34.55Zm8.75,0a31.7,31.7,0,0,0-.19-3.6,3.51,3.51,0,0,0-3.6-2.87,3.6,3.6,0,0,0-3.44,3.21c-.09,1.05,0,2.12,0,3.26ZM31.68,38a1.34,1.34,0,0,0-1.31-1.33,1.5,1.5,0,0,0-1.19,1.92,16.68,16.68,0,0,0,.53,2.22,1.28,1.28,0,0,0,.71.66c.14.05.57-.23.62-.43C31.29,40.11,31.45,39.15,31.68,38Z"/></g></g></svg>