<svg xmlns="http://www.w3.org/2000/svg" viewBox="0 0 45 41.4"><defs><style>.cls-1{fill:#fff;}</style></defs><title>retail-data-sources</title><g id="Layer_2" data-name="Layer 2"><g id="layer"><path class="cls-1" d="M38.85,22.43A11.33,11.33,0,0,1,37,28.77a5.26,5.26,0,0,1-.49.65c-.15.17-.12.28,0,.43.81.89,1.61,1.79,2.42,2.69L44,38.21l.79.88a.53.53,0,0,1-.05.85c-.42.38-.85.75-1.26,1.13s-.67.45-1.12,0c-1.66-1.85-3.32-3.71-5-5.56-.8-.88-1.6-1.76-2.39-2.65-.28-.31-.56-.61-.83-.93a.23.23,0,0,0-.36-.06,10.63,10.63,0,0,1-9.78,1A10.35,10.35,0,0,1,18,27,10.53,10.53,0,0,1,18.65,17a10.27,10.27,0,0,1,7.68-5.12,10.55,10.55,0,0,1,10.12,3.94A10.19,10.19,0,0,1,38.85,22.43Zm-1,.26a9.87,9.87,0,1,0-9.91,9.84A9.84,9.84,0,0,0,37.82,22.69Zm5.94,16.77L35.62,30.4l-.78.71,8.14,9Z" transform="translate(0 0)"/><path class="cls-1" d="M4.08,15.05V29.52a.52.52,0,0,1-.52.58.47.47,0,0,1-.49-.49c0-1,0-2,0-3,0-.29,0-.58,0-.88V.72c0-.5.17-.72.52-.71s.5.24.5.7V15.05Z" transform="translate(0 0)"/><path class="cls-1" d="M6.12,15V.77c0-.54.14-.76.49-.76s.52.23.52.78v28.5a1.53,1.53,0,0,1,0,.37.48.48,0,0,1-.51.43.44.44,0,0,1-.48-.45c0-.1,0-.2,0-.31V15Z" transform="translate(0 0)"/><path class="cls-1" d="M9.19,15V8.45q0-3.91,0-7.81c0-.3.07-.54.39-.62a.48.48,0,0,1,.61.49c0,.34,0,.68,0,1V29.38a1.58,1.58,0,0,1,0,.31.47.47,0,0,1-.54.4.44.44,0,0,1-.45-.45c0-.23,0-.47,0-.71V15Z" transform="translate(0 0)"/><path class="cls-1" d="M12.22,15V.72a1.61,1.61,0,0,1,0-.31.47.47,0,0,1,.5-.4.48.48,0,0,1,.49.43,1.9,1.9,0,0,1,0,.34c0,1.81,0,3.62,0,5.44q0,11.6,0,23.19a1.77,1.77,0,0,1,0,.23.46.46,0,0,1-.49.45.45.45,0,0,1-.5-.44,5.42,5.42,0,0,1,0-.57Z" transform="translate(0 0)"/><path class="cls-1" d="M16.28,15v14.4c0,.45-.16.65-.5.66s-.51-.23-.51-.68q0-8,0-16.06,0-6.36,0-12.72c0-.25,0-.5.3-.57a.6.6,0,0,1,.51.08.66.66,0,0,1,.19.5c0,1.09,0,2.18,0,3.27V15Z" transform="translate(0 0)"/><path class="cls-1" d="M.05,23.41c0-.13,0-.27,0-.4V.7A.67.67,0,0,1,.07.31.71.71,0,0,1,.51,0,.65.65,0,0,1,1,.31.83.83,0,0,1,1,.76V24a2.17,2.17,0,0,1-.07.35Z" transform="translate(0 0)"/><path class="cls-1" d="M18.91.06c.27,0,.38.16.41.4a1.58,1.58,0,0,1,0,.31V13.34c0,.57-.14.79-.51.79s-.51-.23-.51-.79V1A2.26,2.26,0,0,1,18.38.6Z" transform="translate(0 0)"/><path class="cls-1" d="M21.36,5.75V.61A.5.5,0,0,1,21.73,0a.73.73,0,0,1,.55.2c.11.1.11.33.11.5,0,1.42,0,2.84,0,4.26v5.72c0,.12,0,.25,0,.37a.48.48,0,0,1-.49.43.49.49,0,0,1-.52-.43,1.22,1.22,0,0,1,0-.27Z" transform="translate(0 0)"/><path class="cls-1" d="M34.6,6v5.3c0,.51-.38.76-.77.5a.46.46,0,0,1-.2-.35q0-1.37-.06-2.73v-8c0-.31.08-.56.42-.63a.48.48,0,0,1,.57.32.83.83,0,0,1,0,.32Z" transform="translate(0 0)"/><path class="cls-1" d="M25.45,5.36c0,1.55,0,3.11,0,4.67a.82.82,0,0,1-.19.53.5.5,0,0,1-.48.1c-.15-.06-.25-.25-.36-.4s0-.11,0-.16q0-4.74,0-9.47a.55.55,0,0,1,.39-.6.45.45,0,0,1,.57.24,1,1,0,0,1,.09.45Z" transform="translate(0 0)"/><path class="cls-1" d="M31.55,5.24v4.5a.54.54,0,0,1-.49.61.47.47,0,0,1-.52-.38,1.31,1.31,0,0,1,0-.34v-9c0-.39.21-.61.54-.6a.54.54,0,0,1,.5.6c0,.5,0,1,0,1.49Z" transform="translate(0 0)"/><path class="cls-1" d="M28.43,2.33a2.29,2.29,0,0,1,.07.36c0,2.22,0,4.43,0,6.65,0,.41-.19.65-.51.66s-.53-.25-.53-.64c0-2.54,0-5.09,0-7.63a1.09,1.09,0,0,1,.07-.3Z" transform="translate(0 0)"/><path class="cls-1" d="M.05,23.41l.91.9a2.57,2.57,0,0,1,.06.4c0,1.57,0,3.15,0,4.73,0,.1,0,.23,0,.3s-.29.33-.44.33a.86.86,0,0,1-.5-.3c-.07-.07,0-.23,0-.36V23.7A2.5,2.5,0,0,1,.05,23.41Z" transform="translate(0 0)"/><path class="cls-1" d="M28.43,2.33l-.9-.9a9.38,9.38,0,0,1,0-1.06A.44.44,0,0,1,28,0a.46.46,0,0,1,.48.44c0,.61,0,1.23,0,1.85C28.48,2.31,28.45,2.32,28.43,2.33Z" transform="translate(0 0)"/><path class="cls-1" d="M18.91.06,18.38.6c0-.14,0-.34.08-.42S18.76.1,18.91.06Z" transform="translate(0 0)"/><path class="cls-1" d="M28.05,15.22c.33-.07.38.19.45.41a1.5,1.5,0,0,1,0,.3V29.48c0,.44-.19.69-.52.69s-.52-.25-.52-.68q0-6.7,0-13.41c0-.11.05-.22.07-.33Z" transform="translate(0 0)"/><path class="cls-1" d="M31.78,22.66c0-1.78,0-3.56,0-5.34a.83.83,0,0,1,.2-.53.48.48,0,0,1,.81.26,1.5,1.5,0,0,1,0,.37V28c0,.38-.2.63-.5.64s-.54-.24-.54-.63C31.78,26.25,31.78,24.45,31.78,22.66Z" transform="translate(0 0)"/><path class="cls-1" d="M24.17,22.67c0,1.74,0,3.49,0,5.24,0,.13,0,.3,0,.39a.81.81,0,0,1-.47.34c-.15,0-.35-.16-.46-.3s-.07-.28-.07-.42q0-3.9,0-7.8c0-.9,0-1.8,0-2.7a1.47,1.47,0,0,1,0-.21.54.54,0,0,1,.51-.56.52.52,0,0,1,.53.58c0,.82,0,1.64,0,2.46Z" transform="translate(0 0)"/><path class="cls-1" d="M28.05,15.22l-.53.53c0-.15,0-.34.11-.44S27.9,15.24,28.05,15.22Z" transform="translate(0 0)"/></g></g></svg>