<?xml version="1.0" encoding="utf-8"?>
<!-- Generator: Adobe Illustrator 25.0.1, SVG Export Plug-In . SVG Version: 6.00 Build 0)  -->
<svg version="1.1" id="Layer_1" xmlns="http://www.w3.org/2000/svg" xmlns:xlink="http://www.w3.org/1999/xlink" x="0px" y="0px"
	 viewBox="0 0 40 40.7" style="enable-background:new 0 0 40 40.7;" xml:space="preserve">
<style type="text/css">
	.st0{fill:#FFFFFF;}
</style>
<g>
	<path class="st0" d="M29.4,40.7c-0.1-0.3-0.3-0.7-0.4-1c-0.2-0.7-0.3-1.2-1.2-1.3c-0.8-0.1-1,0.4-1.3,0.8c-0.5,0.8-1,0.7-1.7,0.3
		c-0.5-0.3-0.7-0.5-0.5-1.1c0.1-0.4,0.2-0.8,0.3-1.1c0-0.6-1-1.2-1.6-1c-1.6,0.6-1.6,0.6-2.5-1c0.3-0.3,0.5-0.6,0.8-0.9
		c0.4-0.4,0.7-0.7,0.4-1.4c-0.2-0.6-0.5-0.7-1.1-0.8c-0.5-0.1-1.3,0.1-1.4-0.9c-0.1-0.8,0.1-1.3,1-1.4c0.5-0.1,1.2-0.1,1.2-1
		c0-0.6,0-0.9-0.5-1.2c-0.3-0.2-0.6-0.6-1-0.9c0.1-0.2,0.2-0.4,0.3-0.7c0.3-0.8,0.8-1.1,1.6-0.8c0.5,0.2,1,0.3,1.5-0.3
		c0.5-0.6,0.3-1,0.1-1.5c-0.4-1.2-0.4-1.2,1.1-2c0.9,0.1,1,1.6,2.3,1.2c1.4-0.4,0.7-1.6,1.2-2.4c0.2,0,0.4-0.1,0.7-0.1
		c0.8-0.2,1.2,0.1,1.4,1c0.1,0.5,0,1.1,0.8,1.2c0.7,0.1,1.1,0.1,1.5-0.5c0.2-0.3,0.5-0.6,0.8-0.9c0.2,0.1,0.4,0.2,0.6,0.3
		c0.9,0.3,1.2,0.8,0.8,1.7c-0.2,0.5-0.3,1,0.3,1.5c0.6,0.5,1,0.3,1.5,0.1c1.2-0.4,1.2-0.4,2.1,1.2c-0.2,0.3-0.5,0.6-0.8,0.9
		c-0.4,0.4-0.8,0.6-0.5,1.4c0.2,0.8,0.7,0.9,1.3,0.9c0.6,0,1.2,0.1,1.2,0.9c0,0.4,0,0.7,0,1.1c-0.5,0.2-1,0.4-1.5,0.5
		c-0.5,0.1-0.6,0.3-0.8,0.8c-0.3,1,0.3,1.3,0.9,1.6c0.5,0.4,0.6,0.7,0.3,1.4c-0.4,0.9-0.9,0.9-1.6,0.6c-0.6-0.2-1-0.2-1.5,0.3
		c-0.5,0.5-0.3,1-0.1,1.5c0.5,0.9,0.2,1.4-0.6,1.8c-0.2,0.1-0.4,0.2-0.4,0.3c-1-0.2-1.1-1.6-2.4-1.2c-1.3,0.4-0.6,1.6-1.1,2.3
		c-0.2,0.1-0.5,0.1-0.8,0.2C30,40.7,29.7,40.7,29.4,40.7z M29.7,24.5c-3.2,0-5.9,2.6-5.9,5.8c0,3.3,2.6,6.1,5.8,6.1
		c3.3,0,6-2.5,6.1-5.8C35.6,27.1,33.1,24.5,29.7,24.5z"/>
	<path class="st0" d="M14.5,16.1c-2.9-2.1-3.9-4.4-3-7.2c0.8-2.4,3-4.1,5.5-4.1c2.5,0,4.9,1.7,5.6,4.1c0.9,2.7-0.1,5.1-2.9,7
		c1.4,0.8,2.8,1.6,4.4,2.5c-0.7,0.5-1.1,0.8-1.5,1c-0.2,0.1-0.6-0.1-0.8-0.2c-4.6-3.3-10.8-1.2-12.3,4.3c-0.1,0.3-0.1,0.6-0.2,1
		c1.6,0,3.1,0,4.7,0c1.5,0,3.1,0,4.8,0c-0.4,0.7-0.7,1.3-1.1,1.8c-0.1,0.2-0.5,0.2-0.7,0.2c-2.8,0-5.6-0.1-8.4-0.1
		c-1,0-1.2-0.3-1.2-1.3c0-3.8,2.7-7.5,6.5-8.9C14.1,16.2,14.2,16.2,14.5,16.1z"/>
	<path class="st0" d="M32.3,30.4c0,1.4-1.2,2.5-2.6,2.5c-1.4,0-2.5-1.2-2.5-2.5c0-1.4,1.2-2.5,2.6-2.5
		C31.2,27.9,32.3,29.1,32.3,30.4z"/>
	<path class="st0" d="M15.2,32.1H5c-2.8,0-5-2.3-5-5V5c0-2.8,2.3-5,5-5h23.2c2.8,0,5,2.3,5,5v10.2l-2-1.8V5c0-1.7-1.4-3-3-3H5
		C3.4,2,2,3.4,2,5v22.1c0,1.7,1.4,3,3,3h8.3L15.2,32.1z"/>
</g>
</svg>
