<svg xmlns="http://www.w3.org/2000/svg" viewBox="0 0 469.03 511.85"><defs><style>.cls-1{fill:#fff;}</style></defs><title>time-in-store</title><g id="Layer_2" data-name="Layer 2"><g id="layer"><path class="cls-1" d="M122.61,511.85c-2.36-.7-4.73-1.37-7.09-2.09a42.37,42.37,0,0,1,11.27-82.92c21.46-.36,39.22,14.08,42.86,34.87a42.41,42.41,0,0,1-32.35,48.94c-1.26.29-2.46.79-3.69,1.2Z"/><path class="cls-1" d="M378.61,511.85a27.88,27.88,0,0,0-3.23-1.09c-21.94-4.6-36.27-24.79-33.56-47.32,2.64-22,22.05-37.56,45.46-36.53,20.76.91,38.31,19.16,39.16,40.72a42.8,42.8,0,0,1-33.14,43c-1.26.29-2.46.79-3.69,1.2Z"/><path class="cls-1" d="M115.2,362.81H412.63c10.44,0,13.83,3.3,13.83,13.63,0,5.34.05,10.67,0,16-.07,8.64-3.85,12.44-12.58,12.44q-91.72,0-183.46,0l-113.48,0c-18.52,0-33.72-9.65-40.43-25.67-7-16.77-3.41-34.21,10-47.73,9.26-9.36,18.51-18.73,27.88-28,2.06-2,2.45-3.77,1.57-6.57q-32.68-104-65.1-208.08c-1-3.16-2.47-4.09-5.63-4-11,.18-22,.13-33,.07C4.06,84.83.27,81.12.11,73,0,66.83,0,60.66.11,54.5c.22-7.93,4-11.63,11.78-11.66q26.49-.11,53,0c9.65,0,16.88,5.25,20,14.39Q89,69,92.57,81c1,3.21,2.44,4.57,6,4.42,6.66-.28,13.34-.29,20,0,7.66.34,11.69,5.61,10.54,13.15C119,164.46,161.86,231.27,226.16,250,304.92,273,383.83,226.77,402.23,146.87a116.55,116.55,0,0,0,1.26-48.1c-1.42-7.6,2.61-13.11,10.09-13.37a191.64,191.64,0,0,1,24,.25c19.56,1.82,32.68,17.22,31.39,36.83a43.83,43.83,0,0,1-3.73,15.36q-36.61,78.48-73.75,156.72c-7.9,16.66-21.53,25.05-39.89,25.09q-94,.18-188,0a12.17,12.17,0,0,0-9.6,3.92c-11.41,11.68-23,23.14-34.59,34.69C118.29,359.34,117.26,360.56,115.2,362.81Z"/><path class="cls-1" d="M266.19,234.31c-64.69-.25-116.84-53-116.59-117.88A117,117,0,0,1,267.05,0c64.31.23,116.79,52.83,116.57,116.84C383.4,182.28,331.12,234.57,266.19,234.31ZM255.63,85c0,10-.41,20,.21,30a19,19,0,0,0,4.47,11c9.38,10.14,19.37,19.71,29.17,29.46,5.52,5.49,12.07,5.95,16.73,1.26s4.23-11.08-1.38-16.73c-8.1-8.14-16.37-16.13-24.29-24.45a11.16,11.16,0,0,1-2.83-6.88c-.23-17.82-.1-35.63-.14-53.45,0-7.85-4.28-12.76-10.9-12.8s-11,4.83-11,12.66C255.59,65.06,255.63,75.05,255.63,85Z"/></g></g></svg>