<svg xmlns="http://www.w3.org/2000/svg" viewBox="0 0 45 38.55"><defs><style>.cls-1{fill:#fff;}</style></defs><title>unattended-object</title><g id="Layer_2" data-name="Layer 2"><g id="layer"><path class="cls-1" d="M7.17,38.46C2.94,39.07.06,36.59.06,32.39.06,26,.21,19.5,0,13.06-.13,8.94,2.77,5.88,7.17,6.52Z"/><path class="cls-1" d="M37.82,38.5V6.65A5.6,5.6,0,0,1,45,11.86C45,19,45,26.09,45,33.2,44.92,36.66,42,38.85,37.82,38.5Z"/><path class="cls-1" d="M32.32,6.47A2.81,2.81,0,0,1,32.21,6c0-1,0-2.08,0-3.12,0-2-.94-2.9-2.93-2.91H15.77c-2,0-2.89.92-2.92,2.91,0,1.15,0,2.29,0,3.55H9.78V38.52H35.25V6.47ZM28.93,4.66a13.63,13.63,0,0,0,0,1.7H16.24c-.42-3.08-.42-3.08,2.47-3.08s5.91.05,8.85,0C28.69,3.22,29.07,3.58,28.93,4.66Z"/></g></g></svg>