<?xml version="1.0" encoding="utf-8"?>
<!-- Generator: Adobe Illustrator 23.0.1, SVG Export Plug-In . SVG Version: 6.00 Build 0)  -->
<svg version="1.1" id="Layer_1" xmlns="http://www.w3.org/2000/svg" xmlns:xlink="http://www.w3.org/1999/xlink" x="0px" y="0px"
	 viewBox="0 0 701.4 608.7" style="enable-background:new 0 0 701.4 608.7;" xml:space="preserve">
<style type="text/css">
	.st0{fill:#FFFFFF;}
</style>
<title>vca</title>
<g>
	<g id="Layer_1-2">
		<g id="Layer_1-2-2">
			<path class="st0" d="M411,0H101.2v198.4c-12.6,8.4-24.4,18-35.1,28.7c-87.5,86.7-88.2,227.9-1.5,315.5s227.9,88.2,315.5,1.5
				l1.5-1.5c37.3-37.1,60.2-86.3,64.5-138.7h255.3V0H411z M360.1,111.4c0.7,2.1,1.7,4,2.9,5.8l-42.6,66.4
				c-26.8-12.9-55.8-20.2-85.5-21.6c3.7-13.4-4.1-27.2-17.5-31c-8.3-2.3-17.2-0.2-23.6,5.5l-55.2-25.2L360.1,111.4z M338.1,193.1
				l41.8-65c1.3,0.2,2.7,0.3,4.1,0.3c2.4,0,4.7-0.3,7-1l54.7,66.3H339.1L338.1,193.1z M120.1,187.3V125l65.5,29.8v0.5
				c0,3.2,0.6,6.5,1.9,9.5C163.9,168.6,141.1,176.2,120.1,187.3L120.1,187.3z M223.8,587.9c-112,0-203.1-91.1-203.1-203.1
				s91.1-203.1,203.1-203.1s203.1,91.1,203.1,203.1S335.8,587.9,223.8,587.9z M682.6,385H542.9v-48.6h-21.5V385h-74.5v-0.2
				c0-25.9-4.4-51.7-13.2-76.1h248.9V385z M427,292.4c-11.1-24.3-26.5-46.4-45.4-65.3c-6-6-12.4-11.7-19-17h96.5l22.3,27
				c-6.3,12.4-1.5,27.5,10.9,33.9c12.4,6.3,27.5,1.5,33.9-10.9c4.3-8.3,3.6-18.2-1.7-25.9l15-24.1h94.2l49,44.1v38.3L427,292.4z
				 M507.4,223.7c-1.2-0.2-2.4-0.3-3.6-0.3c-2.4,0-4.7,0.3-7,1l-11.8-14.3h30.9L507.4,223.7z M567.2,165.2c1.2,0.2,2.4,0.3,3.7,0.3
				c3.6,0,7.2-0.8,10.5-2.3l34,30.6h-65.8L567.2,165.2z M682.6,227.3l-19.2-17.2h19.1L682.6,227.3z M682.6,193.8h-37.4l-50.6-45.5
				c4.4-13.2-2.7-27.4-15.8-31.8c-13.2-4.4-27.4,2.7-31.8,15.8c-2.5,7.5-1.3,15.8,3.2,22.4l-24.2,39.1h-54.5l-65.1-79
				c0.5-1.1,1-2.1,1.4-3.3h274.8L682.6,193.8z M407.8,95.1c-4.5-13.1-18.8-20.1-32-15.6c-7.3,2.5-13.1,8.3-15.6,15.6H120.1V18.8
				h236.8v21L383.9,67L411,39.9v-21h271.6v76.2H407.8z"/>
			<path class="st0" d="M337.9,365.5l-176.3-95.1c-12-6.5-27.1-2-33.5,10c-1.9,3.6-3,7.6-3,11.7V477c0,13.7,11,24.8,24.7,24.8
				c3.9,0,7.8-0.9,11.3-2.7l176.3-89.6c12.2-6.2,17.1-21.1,10.9-33.3C346,371.7,342.4,368,337.9,365.5L337.9,365.5z"/>
		</g>
	</g>
</g>
</svg>
