<svg xmlns="http://www.w3.org/2000/svg" viewBox="0 0 45 34.85"><defs><style>.cls-1{fill:#fff;}</style></defs><title>Asset 22</title><g id="Layer_2" data-name="Layer 2"><g id="layer"><path class="cls-1" d="M40.81,0H4.19A4.2,4.2,0,0,0,0,4.19V30.66a4.2,4.2,0,0,0,4.19,4.19H40.81A4.2,4.2,0,0,0,45,30.66V4.19A4.2,4.2,0,0,0,40.81,0Zm2.28,30.63A2.06,2.06,0,0,1,41,32.69H4a2.05,2.05,0,0,1-2-2.06V9.84A2.05,2.05,0,0,1,4,7.78H41a2.06,2.06,0,0,1,2.06,2.06Z"/><path class="cls-1" d="M22.5,13.5a6.74,6.74,0,1,1-6.73,6.73A6.74,6.74,0,0,1,22.5,13.5m0-2.23a9,9,0,1,0,9,9,9,9,0,0,0-9-9Z"/><path class="cls-1" d="M20.06,23.35V17.12l6.34,3.07Z"/></g></g></svg>