<svg xmlns="http://www.w3.org/2000/svg" viewBox="0 0 71.08 77.32"><defs><style>.cls-1{fill:#fff;}</style></defs><g id="Layer_2" data-name="Layer 2"><g id="Layer_1-2" data-name="Layer 1"><path class="cls-1" d="M6.69,0l10,5q6.48,3.22,13,6.41a1.08,1.08,0,0,1,.71,1.14q0,11.81,0,23.63v1c1.05,0,2,0,3,0s1.45.44,1.46,1.48q0,1.32,0,2.64a1.22,1.22,0,0,1-1.36,1.36c-1,0-2,0-3.1,0,0,1.5,0,2.93,0,4.35a2.42,2.42,0,0,1-.59,1.71Q18.35,62.76,7,76.85c-.16.19-.41.45-.62.45-2.09,0-4.17,0-6.31,0,0-.33,0-.59,0-.86V.75C0,.5,0,.25.05,0ZM9.62,4.8V68.9l.24-.29Q18.47,58,27.07,47.29a1.73,1.73,0,0,0,.3-1c0-10.65,0-21.29,0-31.94a1,1,0,0,0-.65-1.09q-8.23-4-16.43-8.11l-.7-.32"/><path class="cls-1" d="M71.07,24.34c0,1.71,0,3.42,0,5.13a4,4,0,0,1-4,4.24c-3.69.11-7.39.09-11.09,0a3.82,3.82,0,0,1-3.69-3.86c-.06-3.64-.07-7.29,0-10.94a4,4,0,0,1,4-3.92q5.4-.08,10.79,0a4,4,0,0,1,4,3.87c0,.13,0,.25,0,.38v5.13"/><path class="cls-1" d="M52.32,40.78c0,1.26,0,2.52,0,3.78a2.94,2.94,0,0,1-2.91,3.2c-2.73.1-5.48.1-8.22,0a2.94,2.94,0,0,1-2.89-3.08q-.07-3.88,0-7.77a3,3,0,0,1,3.1-3.12q3.9-.07,7.78,0A3,3,0,0,1,52.31,37c0,1.26,0,2.51,0,3.77"/><path class="cls-1" d="M39.5,28.56c-1.08,0-2.16,0-3.24,0A2.5,2.5,0,0,1,33.72,26q0-3.24,0-6.49A2.39,2.39,0,0,1,36.05,17q3.42-.12,6.86,0a2.37,2.37,0,0,1,2.38,2.44c.06,2.21.07,4.43,0,6.64a2.46,2.46,0,0,1-2.62,2.45c-1.06,0-2.11,0-3.17,0Z"/><path class="cls-1" d="M32.05,56.17c0-1.06,0-2.12,0-3.17a2.48,2.48,0,0,1,2.56-2.59c2.16,0,4.32,0,6.49,0a2.37,2.37,0,0,1,2.49,2.32q.15,3.42,0,6.86A2.39,2.39,0,0,1,41.07,62q-3.26.06-6.49,0a2.48,2.48,0,0,1-2.53-2.62c0-1,0-2.11,0-3.16"/><path class="cls-1" d="M61.64,45.17c-.61,0-1.21,0-1.81,0a1.29,1.29,0,0,1-1.37-1.24,37.93,37.93,0,0,1,0-4,1.27,1.27,0,0,1,1.34-1.26c1.23,0,2.47,0,3.7,0a1.28,1.28,0,0,1,1.36,1.24,37.93,37.93,0,0,1,0,4,1.29,1.29,0,0,1-1.41,1.26c-.61,0-1.21,0-1.81,0Z"/><path class="cls-1" d="M55.49,7.72c0,.58,0,1.15,0,1.73A1.44,1.44,0,0,1,54,11c-1.16,0-2.32,0-3.47,0A1.46,1.46,0,0,1,49,9.42C49,8.29,49,7.16,49,6a1.42,1.42,0,0,1,1.5-1.53c1.18,0,2.37,0,3.55,0A1.4,1.4,0,0,1,55.49,6c0,.58,0,1.16,0,1.74"/><path class="cls-1" d="M54.07,50.4c.47,0,1,0,1.43,0a1.21,1.21,0,0,1,1.31,1.26c0,1,0,2,0,2.94a1.23,1.23,0,0,1-1.36,1.29H52.66a1.19,1.19,0,0,1-1.34-1.23c0-1,0-2,0-3a1.19,1.19,0,0,1,1.31-1.25c.48,0,1,0,1.44,0"/><path class="cls-1" d="M27.13,30.13c0,.83,0,1.66,0,2.49a2.12,2.12,0,0,1-2.22,2.24c-1.71,0-3.43,0-5.14,0a2.1,2.1,0,0,1-2.23-2.22c0-1.74,0-3.47,0-5.21a2.09,2.09,0,0,1,2.18-2.2c1.73,0,3.47,0,5.21,0a2.11,2.11,0,0,1,2.2,2.18c0,.91,0,1.81,0,2.72Z"/></g></g></svg>