<?xml version="1.0" encoding="utf-8"?>
<!-- Generator: Adobe Illustrator 22.0.0, SVG Export Plug-In . SVG Version: 6.00 Build 0)  -->
<svg version="1.1" id="Layer_1" xmlns="http://www.w3.org/2000/svg" xmlns:xlink="http://www.w3.org/1999/xlink" x="0px" y="0px"
	 viewBox="0 0 130.1 130.1" style="enable-background:new 0 0 130.1 130.1;" xml:space="preserve">
<style type="text/css">
	.st0{opacity:0.2;}
	.st1{fill:#063332;}
</style>
<title>Asset 10</title>
<g id="Layer_2_1_" class="st0">
	<g id="Layer_1-2">
		<path class="st1" d="M64,97.5C47.8,97.4,32.3,92,18.3,82c-6.3-4.6-12-9.9-16.9-15.8c-1.2-1.5-1.2-1.6,0-3
			C10.4,52.5,21,44,33.9,38.4c16.2-7.3,34.5-8.6,51.6-3.8c12.8,3.5,24.5,10,34.3,19c3.3,3,6.3,6.4,9.4,9.6c0.8,0.6,1,1.7,0.4,2.5
			c-0.1,0.1-0.2,0.3-0.3,0.4c-8,9.5-17.7,17.2-28.7,22.9C89.2,94.6,76.7,97.6,64,97.5z M69.7,88.9c19.8-1.3,36-9.9,49.4-24.2
			c-10.9-13-36.9-25.6-49.9-24.3c12.9,3,20.1,13.3,20.2,24C89.5,76.3,81.3,86.5,69.7,88.9L69.7,88.9z M60.1,89.2
			c-13-3.6-19.5-14.1-19.5-24.1c0-9.3,5.8-20.6,19.3-24.2C47.1,39.7,19.5,53.4,11,65.2C24.6,78.9,40.6,87.6,60.1,89.2L60.1,89.2z
			 M65,56.9c-4.5,0-8.1,3.7-8.1,8.2s3.7,8.1,8.2,8.1s8.1-3.7,8.1-8.1s-3.6-8.1-8-8.1C65.1,56.9,65,56.9,65,56.9z"/>
		<path class="st1" d="M24.3,0v8H8.1v16.3H0V0H24.3z"/>
		<path class="st1" d="M130.1,24.3h-8V8.1h-16.3V0H130L130.1,24.3z"/>
		<path class="st1" d="M8.1,105.8V122h16.2v8H0v-24.2H8.1z"/>
		<path class="st1" d="M105.8,130.1v-8h16.3v-16.3h8v24.3H105.8z"/>
	</g>
</g>
</svg>
