<?xml version="1.0" encoding="utf-8"?>
<!-- Generator: Adobe Illustrator 22.0.0, SVG Export Plug-In . SVG Version: 6.00 Build 0)  -->
<svg version="1.1" id="Layer_1" xmlns="http://www.w3.org/2000/svg" xmlns:xlink="http://www.w3.org/1999/xlink" x="0px" y="0px"
	 viewBox="0 0 31 22.3" style="enable-background:new 0 0 31 22.3;" xml:space="preserve">
<style type="text/css">
	.st0{fill:#0C6D72;}
	.st1{fill:#FFFFFF;}
</style>
<title>openFilters</title>
<g id="Layer_2_1_">
	<g id="Layer_1-2">
		<g id="Layer_2-2">
			<g id="layer">
				<path class="st0" d="M23.1,0.1C22.9,0,22.6,0,22.4,0H1.4C1.2,0,1,0,0.8,0.1C0.4,0.1,0,0.4,0,0.9c0,0.5,0.4,0.8,0.9,0.9
					c0.3,0.1,0.5,0.3,0.7,0.5c2.3,2.6,4.5,5.2,6.7,7.8c0.2,0.2,0.4,0.4,0.7,0.5c-0.1,0.3-0.2,0.6-0.2,0.9v10.8l6-4.1v-6.8
					c0-0.3,0-0.5-0.2-0.8c0.3-0.1,0.5-0.2,0.7-0.4C17.5,7.6,19.8,5,22,2.5c0.3-0.4,0.7-0.7,1.1-0.8c0.3-0.1,0.6-0.4,0.6-0.8
					C23.8,0.6,23.4,0.3,23.1,0.1z"/>
			</g>
		</g>
		<path class="st1" d="M30.7,11.2c0.5,0.7,0.4,1.6-0.3,2.1l-5.8,4.4C24.3,17.9,24,18,23.7,18c-0.3,0-0.6-0.1-0.9-0.3L17,13.3
			c0,0,0,0,0,0c-0.7-0.5-0.8-1.4-0.3-2.1c0.5-0.7,1.4-0.8,2.1-0.3l4.9,3.7l4.9-3.7l0,0C29.3,10.4,30.2,10.6,30.7,11.2
			C30.7,11.2,30.7,11.2,30.7,11.2z"/>
	</g>
</g>
</svg>
