<?xml version="1.0" encoding="utf-8"?>
<!-- Generator: Adobe Illustrator 23.0.1, SVG Export Plug-In . SVG Version: 6.00 Build 0)  -->
<svg version="1.1" id="Layer_1" xmlns="http://www.w3.org/2000/svg" xmlns:xlink="http://www.w3.org/1999/xlink" x="0px" y="0px"
	 viewBox="0 0 20 20" style="enable-background:new 0 0 20 20;" xml:space="preserve">
<style type="text/css">
	.st0{fill:#0C6D72;}
</style>
<title>addfav-dim</title>
<g>
	<g id="layer">
		<path class="st0" d="M2.2,2.1v14.5l2.4-2c0.8-0.7,1.7-1.4,2.5-2c0.4-0.4,1.1-0.4,1.5,0c0,0,0,0,0,0l6.5,5.3c0.5,0.3,0.7,1,0.4,1.5
			c0,0-0.1,0.1-0.1,0.1c-0.4,0.5-1.1,0.5-1.6,0.1c0,0-0.1-0.1-0.1-0.1l-6-4.9l-2.5,2c-1.2,0.9-2.3,1.9-3.5,2.8
			C1.5,19.9,1,20,0.6,19.8c-0.4-0.2-0.6-0.6-0.6-1V1.2C0,0.4,0.4,0,1.3,0h13.3c0.9,0,1.4,0.7,1.1,1.5c-0.2,0.5-0.7,0.7-1.2,0.7H2.2z
			"/>
		<path class="st0" d="M15.8,8.5c1,0,2.1,0,3.1,0c0.6-0.1,1.1,0.3,1.2,0.9c0,0.2,0,0.3-0.1,0.5c-0.1,0.4-0.5,0.7-1,0.7
			c-1,0-2.1,0-3.2,0c0,0.2,0,0.4,0,0.6v2.5c0.1,0.5-0.3,1.1-0.8,1.2c-0.1,0-0.1,0-0.2,0c-0.6,0-1.1-0.4-1.1-1c0,0,0-0.1,0-0.1
			c0-0.9,0-1.7,0-2.6v-0.6h-2.6c-0.2,0-0.4,0-0.6,0c-0.5,0.1-1-0.3-1.1-0.9c0,0,0-0.1,0-0.1c-0.1-0.5,0.3-1,0.9-1.1c0,0,0.1,0,0.1,0
			c0.6,0,1.3,0,1.9,0h1.3V5.7c0-0.2,0-0.4,0-0.5c0.1-0.6,0.6-1,1.2-0.9c0.6,0.1,1,0.6,0.9,1.1v2.8C15.8,8.3,15.8,8.3,15.8,8.5z"/>
	</g>
</g>
</svg>
