<?xml version="1.0" encoding="utf-8"?>
<!-- Generator: Adobe Illustrator 23.0.1, SVG Export Plug-In . SVG Version: 6.00 Build 0)  -->
<svg version="1.1" id="Layer_1" xmlns="http://www.w3.org/2000/svg" xmlns:xlink="http://www.w3.org/1999/xlink" x="0px" y="0px"
	 viewBox="0 0 20 20" style="enable-background:new 0 0 20 20;" xml:space="preserve">
<style type="text/css">
	.st0{fill:#13A8BC;}
	.st1{fill:#E52033;}
</style>
<title>discard-act</title>
<g>
	<g id="layer">
		<path class="st0" d="M4.4,8.1l1.2,1.2c0,0.1,0,0.2,0,0.2c0,2.9,0,5.9,0,8.8v0.4h13.2V6.9h-5.6V1.2H8.9c-0.1,0-0.2,0-0.3-0.1
			C8.3,0.8,8,0.5,7.7,0.2L7.5,0h5.8c0.4,0,0.7,0.2,1,0.4l5.2,5.3C19.8,6,20,6.3,20,6.7c0,2,0,4,0,5.9v6c0.1,0.7-0.4,1.3-1.1,1.4
			c-0.1,0-0.2,0-0.3,0H5.7c-0.7,0.1-1.3-0.4-1.3-1.1c0-0.1,0-0.1,0-0.2c0-3.5,0-6.9,0-10.4V8.1z M13.8,1.3v5h4.9L13.8,1.3z"/>
		<path class="st1" d="M7.9,6.5L6.2,8.3L4,6.2L1.8,8.3L0,6.6l2.2-2.2L0,2.2l1.8-1.8l2.1,2.2l2.2-2.2l1.8,1.8L5.8,4.3L7.9,6.5z"/>
		<path class="st0" d="M16.8,12.5v0.6H7.5v-0.6H16.8z"/>
		<path class="st0" d="M7.5,15v-0.6h9.4V15H7.5z"/>
		<path class="st0" d="M7.5,16.9v-0.6h9.3v0.6H7.5z"/>
	</g>
</g>
</svg>
