<?xml version="1.0" encoding="utf-8"?>
<!-- Generator: Adobe Illustrator 23.0.1, SVG Export Plug-In . SVG Version: 6.00 Build 0)  -->
<svg version="1.1" id="Layer_1" xmlns="http://www.w3.org/2000/svg" xmlns:xlink="http://www.w3.org/1999/xlink" x="0px" y="0px"
	 viewBox="0 0 353.1 62.5" style="enable-background:new 0 0 353.1 62.5;" xml:space="preserve">
<style type="text/css">
	.st0{fill:none;}
	.st1{fill:#FFFFFF;}
	.st2{fill:#E52033;}
</style>
<title>event2</title>
<g>
	<g>
		<line class="st0" x1="0" y1="33.5" x2="101" y2="33.5"/>
		<g>
			<rect y="33" class="st1" width="94.9" height="1"/>
			<g>
				<path class="st1" d="M101,33.5c-2.8,1.1-6.4,2.9-8.5,4.8l1.7-4.8l-1.7-4.8C94.6,30.7,98.1,32.5,101,33.5z"/>
			</g>
		</g>
	</g>
	<g>
		<line class="st0" x1="163.5" y1="31.3" x2="353.1" y2="31.3"/>
		<g>
			<rect x="163.5" y="30.8" class="st1" width="183.6" height="1"/>
			<g>
				<path class="st1" d="M353.1,31.3c-2.8,1.1-6.4,2.9-8.5,4.8l1.7-4.8l-1.7-4.8C346.8,28.4,350.3,30.2,353.1,31.3z"/>
			</g>
		</g>
	</g>
	<g>
		<circle class="st2" cx="132.2" cy="31.3" r="31.3"/>
		<g>
			<path class="st1" d="M116.3,23.4c3.7,1.4,7.3,2.8,11,4.1c1.9,0.7,3.9,1.5,5.8,2.2c0.5-1.1,1-2.1,1.5-3.1s1-2,1.4-3
				c0.4-0.8,1-1.3,2-1.4c2.6-0.3,5.3-0.6,7.9-1c-1.2-0.2-2.5-0.3-3.7-0.5c-5.2-0.6-10.3-1.3-15.5-1.9c-1.3-0.1-2.6-0.1-3.8-0.1
				c-1.1,0-2.2,0.1-3.2,0c-1.7-0.1-2.8,0.5-3.4,2.1C116.3,21.7,116.3,22.5,116.3,23.4z"/>
			<path class="st1" d="M116.3,43.7c0.2,0,0.4,0.1,0.6,0c1.7-0.4,3.5-0.9,5.2-1.4c0.2-0.1,0.4-0.2,0.8-0.3c-0.3-0.2-0.4-0.3-0.6-0.3
				c-1.4-0.7-2.7-1.3-4.1-2c-0.4-0.2-0.5-0.4-0.5-0.8c0-0.8,0-1.6,0-2.4c1.7-0.3,3.4-1,5.1,0.3c0-1.2,0-2.1,0-3
				c0-0.1-0.3-0.3-0.4-0.2c-1.8,0.4-3.6,0.8-5.4,1.2c-0.2,0.1-0.4,0.2-0.6,0.4C116.3,38,116.3,40.9,116.3,43.7z"/>
			<path class="st1" d="M148.1,22.4c-0.3-0.7-0.8-0.8-1.5-0.7c-2.8,0.4-5.7,0.7-8.5,1.1c-0.5,0.1-0.9,0.3-1.4,0.5
				c0,0.1,0,0.2,0.1,0.3c0.4,0,0.8,0,1.1-0.1c1.3-0.1,2.7-0.3,4-0.4c1.2-0.1,1.9,0.6,1.9,1.7s0,2.2,0,3.3c0,0.5,0.2,0.6,0.6,0.7
				c0.4,0.1,0.5-0.1,0.7-0.4c1-1.8,2-3.6,3-5.3C148.1,22.9,148.1,22.6,148.1,22.4z"/>
			<path class="st1" d="M118.4,37.3c0,0.1-0.1,0.2-0.1,0.2c-0.1,1.6-0.1,1.6,1.4,2.3c2.1,1,4.2,2,6.4,3.1c1,0.5,2.1,0.7,3.3,0.4
				c1-0.3,1.4-0.9,1.5-1.9c0-2.3,0-4.6,0-7c0-0.5-0.1-0.7-0.6-0.9c-1.2-0.6-2.4-1.2-3.5-1.8c-0.2-0.1-0.3-0.1-0.6-0.3c0,3,0,6,0,9.1
				C123.5,39.5,120.9,38.5,118.4,37.3z"/>
			<path class="st1" d="M116.8,24.1c-0.2,1.5,0.1,2.2,1.4,2.9c4.5,2.3,9.1,4.6,13.6,6.9c0.1,0.1,0.3,0.1,0.5,0.2c0-1.3,0-2.6,0-3.9
				c0-0.1-0.3-0.3-0.5-0.4c-4.2-1.6-8.4-3.2-12.6-4.8C118.4,24.7,117.6,24.4,116.8,24.1z"/>
			<path class="st1" d="M135.6,25.8c1.9-0.2,3.6-0.4,5.4-0.6c0.7-0.1,0.8,0,0.8,0.7c0,1.8,0,3.7,0,5.5c0,0.5-0.2,0.7-0.7,0.8
				c-2,0.2-4.1,0.5-6.1,0.7c-0.9,0.1-0.9,0.1-0.9-0.8c0-0.9,0-1.8-0.1-2.8c-0.2,0.3-0.3,0.7-0.5,1c-0.2,0-0.4-0.1-0.6-0.1
				c0,1.3,0,2.6,0,3.8c0,0.6,0.5,0.6,0.9,0.5c1.6-0.2,3.1-0.3,4.7-0.5c1-0.1,2-0.2,3-0.3c1.3-0.1,1.9-0.8,1.9-2.1c0-2.2,0-4.4,0-6.6
				c0-1.1-0.4-1.5-1.5-1.4c-1.6,0.1-3.2,0.3-4.8,0.4c-0.4,0-0.7,0.2-0.9,0.6C136,25,135.9,25.3,135.6,25.8z"/>
			<path class="st1" d="M139.8,28.8c0-0.1,0-0.3,0-0.4c-0.1-0.8-0.6-1.3-1.3-1.5c-0.6-0.1-1.3,0.2-1.7,0.9c-0.5,0.9-0.6,1.8,0,2.7
				c0.5,0.8,1.4,1,2.2,0.3C139.6,30.3,139.8,29.6,139.8,28.8z"/>
			<path class="st1" d="M125.5,39.8C125.6,39.7,125.6,39.7,125.5,39.8c0.2-1.3,0.2-1.3-0.9-1.7c-0.9-0.4-1.8-0.7-2.6-1.1
				c-1-0.5-1.9-0.2-3,0C121.2,37.9,123.3,38.9,125.5,39.8z"/>
		</g>
	</g>
	<g>
		<path class="st1" d="M0,12.4h7.5v1.2H1.4v4.1h5.7v1.2H1.4v4.2h6.2v1.2H0V12.4z"/>
		<path class="st1" d="M8.5,15.8v-0.2H10l2.2,6.2l0.4,1.3h0.2l0.4-1.3l2.3-6.2h1.4v0.2l-3.3,8.4h-1.8L8.5,15.8z"/>
		<path class="st1" d="M21.7,24.4c-1.3,0-2.3-0.4-3-1.1c-0.7-0.7-1-1.8-1-3.3c0-1.5,0.3-2.6,1-3.4c0.7-0.8,1.6-1.2,2.9-1.2
			c2.2,0,3.3,1.3,3.3,3.9c0,0.5,0,0.9-0.1,1.1h-5.7c0.1,1,0.3,1.7,0.7,2.2c0.4,0.4,1.1,0.7,2,0.7c0.4,0,0.8,0,1.3-0.1
			c0.5-0.1,0.9-0.2,1.4-0.3l0.1,1.1c-0.4,0.2-0.9,0.3-1.4,0.4C22.7,24.4,22.2,24.4,21.7,24.4z M21.6,16.6c-1.5,0-2.4,1-2.5,2.9h4.5
			c0-1-0.2-1.8-0.5-2.2C22.8,16.8,22.3,16.6,21.6,16.6z"/>
		<path class="st1" d="M26.9,15.6H28l0.1,1h0.1c0.4-0.2,0.8-0.4,1.2-0.5c0.3-0.1,0.7-0.3,1-0.4c0.3-0.1,0.6-0.2,0.8-0.2
			s0.5-0.1,0.8-0.1c0.7,0,1.3,0.2,1.7,0.6c0.4,0.4,0.6,1,0.6,1.8v6.4h-1.4v-6c0-0.6-0.1-1-0.3-1.3c-0.2-0.3-0.6-0.4-1.1-0.4
			c-0.4,0-0.9,0.1-1.4,0.3s-1.1,0.4-1.7,0.7v6.7h-1.4V15.6z"/>
		<path class="st1" d="M39.9,24.4c-0.8,0-1.4-0.2-1.9-0.6c-0.4-0.4-0.6-1-0.6-1.8v-5.1h-1.8v-1.2h1.9l0.2-2.2l1.1-0.1v2.3h2.6v1.2
			h-2.5v4.8c0,0.5,0.1,0.9,0.4,1.2c0.2,0.3,0.6,0.4,1.1,0.4c0.2,0,0.3,0,0.5,0c0.2,0,0.4-0.1,0.6-0.1v1.1c-0.2,0.1-0.5,0.1-0.8,0.2
			S40.1,24.4,39.9,24.4z"/>
		<path class="st1" d="M45.2,14.1L45.2,14.1l-2.8,1.4h-0.1l-0.2-0.8v-0.1l3.5-2.1h1.1v11.8h-1.4V14.1z"/>
	</g>
	<g>
		<path class="st1" d="M199.7,24.5c-3.6,0-5.4-2-5.4-6c0-2.1,0.4-3.6,1.3-4.6c0.9-1,2.2-1.5,4-1.5c0.4,0,0.8,0,1.2,0.1
			c0.5,0,0.9,0.1,1.4,0.2v1.2c-0.5-0.1-1-0.1-1.4-0.2c-0.4,0-0.8-0.1-1.1-0.1c-1.4,0-2.4,0.4-3.1,1.2c-0.7,0.8-1,2-1,3.7
			c0,1.7,0.3,2.9,1,3.7c0.6,0.8,1.6,1.2,3,1.2c0.2,0,0.4,0,0.6,0c0.2,0,0.5,0,0.7-0.1c0.2,0,0.5-0.1,0.7-0.1s0.4-0.1,0.6-0.1v1.2
			c-0.4,0.1-0.8,0.2-1.3,0.2C200.5,24.4,200.1,24.5,199.7,24.5z"/>
		<path class="st1" d="M203.1,24.2l4.3-11.7h2.2l4.3,11.7v0.1h-1.4l-1.3-3.5h-5.3l-1.3,3.5h-1.4V24.2z M210.6,19.6l-1.5-4l-0.7-2.1
			h-0.1l-0.7,2.1l-1.5,4H210.6z"/>
		<path class="st1" d="M215.3,12.5h2l3,7.2l1,2.6h0.1l1-2.6l3-7.2h2v11.8H226v-10h-0.1l-1.3,3.3l-2.6,6.2h-1.3l-2.6-6.2l-1.3-3.3
			h-0.1v10h-1.3V12.5z"/>
		<path class="st1" d="M230.6,24.4c-0.3,0-0.5-0.1-0.7-0.2c-0.2-0.1-0.2-0.4-0.2-0.7c0-0.3,0.1-0.5,0.2-0.7c0.2-0.1,0.4-0.2,0.7-0.2
			s0.5,0.1,0.7,0.2s0.2,0.4,0.2,0.6s-0.1,0.5-0.2,0.7C231.1,24.3,230.9,24.4,230.6,24.4z"/>
		<path class="st1" d="M233.9,12.5h1.4v5.2h6.6v-5.2h1.4v11.8h-1.4v-5.5h-6.6v5.5h-1.4V12.5z"/>
		<path class="st1" d="M244.9,24.2l4.3-11.7h2.2l4.3,11.7v0.1h-1.4l-1.3-3.5h-5.3l-1.3,3.5h-1.4V24.2z M252.5,19.6l-1.5-4l-0.7-2.1
			h-0.1l-0.7,2.1l-1.5,4H252.5z"/>
		<path class="st1" d="M257.1,12.5h1.4v10.7h5.4v1.2h-6.8V12.5z"/>
		<path class="st1" d="M265.6,12.5h1.4v10.7h5.4v1.2h-6.8V12.5z"/>
		<path class="st1" d="M273.3,22.7c0-0.5,0.1-1,0.2-1.4c0.1-0.4,0.4-0.8,0.6-1.1c0.3-0.3,0.6-0.7,1.1-1c0.4-0.3,0.9-0.6,1.5-0.9
			c0.8-0.5,1.5-0.9,1.8-1.3c0.4-0.4,0.6-0.9,0.6-1.4c0-1.3-0.8-2-2.4-2c-0.4,0-0.9,0-1.4,0.1c-0.5,0.1-1,0.2-1.5,0.3l-0.2-1.2
			c0.6-0.1,1.2-0.3,1.7-0.3s1-0.1,1.5-0.1c2.4,0,3.6,1,3.6,3.1c0,0.4-0.1,0.8-0.2,1.1c-0.1,0.3-0.3,0.7-0.5,0.9
			c-0.2,0.3-0.5,0.6-0.9,0.8c-0.4,0.3-0.8,0.5-1.3,0.8c-1,0.6-1.7,1.1-2.1,1.6s-0.7,1-0.7,1.6v0.7h5.7v1.2h-7.2V22.7z"/>
		<path class="st1" d="M283.3,24.4c-0.3,0-0.5-0.1-0.7-0.2c-0.2-0.1-0.2-0.4-0.2-0.7c0-0.3,0.1-0.5,0.2-0.7c0.2-0.1,0.4-0.2,0.7-0.2
			s0.5,0.1,0.7,0.2s0.2,0.4,0.2,0.6s-0.1,0.5-0.2,0.7C283.8,24.3,283.6,24.4,283.3,24.4z"/>
		<path class="st1" d="M291.1,24.5c-3.6,0-5.4-2-5.4-6c0-2.1,0.4-3.6,1.3-4.6c0.9-1,2.2-1.5,4-1.5c0.4,0,0.8,0,1.2,0.1
			c0.5,0,0.9,0.1,1.4,0.2v1.2c-0.5-0.1-1-0.1-1.4-0.2c-0.4,0-0.8-0.1-1.1-0.1c-1.4,0-2.4,0.4-3.1,1.2c-0.7,0.8-1,2-1,3.7
			c0,1.7,0.3,2.9,1,3.7c0.6,0.8,1.6,1.2,3,1.2c0.2,0,0.4,0,0.6,0c0.2,0,0.5,0,0.7-0.1c0.2,0,0.5-0.1,0.7-0.1s0.4-0.1,0.6-0.1v1.2
			c-0.4,0.1-0.8,0.2-1.3,0.2C291.9,24.4,291.4,24.5,291.1,24.5z"/>
		<path class="st1" d="M295.7,12.5h7.4v1.2h-6v4.2h5.5V19h-5.5v5.3h-1.4V12.5z"/>
		<path class="st1" d="M309,24.5c-1.5,0-2.6-0.5-3.3-1.5c-0.8-1-1.1-2.5-1.1-4.6c0-2,0.4-3.5,1.1-4.6s1.9-1.5,3.3-1.5
			c1.4,0,2.5,0.5,3.3,1.5s1.1,2.5,1.1,4.6c0,2-0.4,3.5-1.1,4.6C311.6,24,310.5,24.5,309,24.5z M309,23.3c1,0,1.8-0.4,2.2-1.2
			c0.5-0.8,0.7-2,0.7-3.7c0-1.7-0.2-2.9-0.7-3.7s-1.2-1.2-2.2-1.2c-1,0-1.8,0.4-2.3,1.2c-0.5,0.8-0.8,2-0.8,3.7
			c0,1.7,0.2,2.9,0.7,3.7C307.2,22.9,308,23.3,309,23.3z"/>
		<path class="st1" d="M315.1,22.7c0-0.5,0.1-1,0.2-1.4c0.1-0.4,0.4-0.8,0.6-1.1c0.3-0.3,0.6-0.7,1.1-1c0.4-0.3,0.9-0.6,1.5-0.9
			c0.8-0.5,1.5-0.9,1.8-1.3s0.6-0.9,0.6-1.4c0-1.3-0.8-2-2.4-2c-0.4,0-0.9,0-1.4,0.1c-0.5,0.1-1,0.2-1.5,0.3l-0.2-1.2
			c0.6-0.1,1.2-0.3,1.7-0.3c0.5-0.1,1-0.1,1.5-0.1c2.4,0,3.6,1,3.6,3.1c0,0.4-0.1,0.8-0.2,1.1c-0.1,0.3-0.3,0.7-0.5,0.9
			s-0.5,0.6-0.9,0.8c-0.4,0.3-0.8,0.5-1.3,0.8c-1,0.6-1.7,1.1-2.1,1.6c-0.5,0.5-0.7,1-0.7,1.6v0.7h5.7v1.2h-7.2V22.7z"/>
	</g>
</g>
</svg>
