<?xml version="1.0" encoding="utf-8"?>
<!-- Generator: Adobe Illustrator 22.0.0, SVG Export Plug-In . SVG Version: 6.00 Build 0)  -->
<svg version="1.1" id="Layer_1" xmlns="http://www.w3.org/2000/svg" xmlns:xlink="http://www.w3.org/1999/xlink" x="0px" y="0px"
	 viewBox="0 0 25 25" style="enable-background:new 0 0 25 25;" xml:space="preserve">
<style type="text/css">
	.st0{fill:#13BCD0;}
</style>
<title>tooltip</title>
<g id="Layer_2_1_">
	<g id="bg">
		<path class="st0" d="M12.5,20.5c-0.4,0-0.8-0.1-1.2-0.4c-0.3-0.3-0.4-0.7-0.4-1.1s0.1-0.8,0.4-1.1c0.3-0.3,0.7-0.4,1.2-0.4
			c0.4,0,0.8,0.1,1.2,0.4c0.3,0.3,0.4,0.7,0.4,1.1s-0.1,0.8-0.4,1.1C13.3,20.4,12.9,20.5,12.5,20.5z M11.5,15.5L11,4.7V4.5h3v0.2
			l-0.6,10.8v0.3h-1.9V15.5z"/>
		<path class="st0" d="M12.5,25C5.6,25,0,19.4,0,12.5S5.6,0,12.5,0S25,5.6,25,12.5S19.4,25,12.5,25z M12.5,1.3
			c-6.2,0-11.2,5-11.2,11.2s5,11.2,11.2,11.2s11.2-5,11.2-11.2l0,0C23.7,6.3,18.7,1.3,12.5,1.3z"/>
	</g>
</g>
</svg>
