<?xml version="1.0" encoding="utf-8"?>
<!-- Generator: Adobe Illustrator 22.0.0, SVG Export Plug-In . SVG Version: 6.00 Build 0)  -->
<svg version="1.1" id="Layer_1" xmlns="http://www.w3.org/2000/svg" xmlns:xlink="http://www.w3.org/1999/xlink" x="0px" y="0px"
	 viewBox="0 0 83 22" style="enable-background:new 0 0 83 22;" xml:space="preserve">
<style type="text/css">
	.st0{fill:#102023;}
	.st1{fill:#0C6D72;}
	.st2{fill:#999999;}
</style>
<title>zoom</title>
<g id="Layer_2_1_">
	<g id="bg">
		<g>
			<path class="st0" d="M33,9.6H1.5C0.7,9.6,0,10.3,0,11.1s0.7,1.5,1.5,1.5h32.7C33.6,11.7,33.1,10.7,33,9.6z"/>
			<path class="st0" d="M81.5,9.6h-36c-0.1,1.1-0.6,2.1-1.2,3h37.2c0.8,0,1.5-0.7,1.5-1.5S82.3,9.6,81.5,9.6z"/>
		</g>
		<path class="st1" d="M46.1,14.2c3-3.8,2.3-9.3-1.5-12.3s-9.3-2.3-12.3,1.5s-2.3,9.3,1.5,12.3c3.2,2.5,7.6,2.5,10.8,0l0.3,0.2
			l5.8,5.8c0.3,0.3,0.7,0.4,1.1,0.2c0.4-0.2,0.7-0.6,0.7-1.1c0-0.2-0.2-0.5-0.3-0.6c-1.9-1.9-3.8-3.9-5.8-5.8L46.1,14.2z M34,8.9
			c0-2.9,2.4-5.3,5.2-5.3s5.3,2.4,5.3,5.2c0,2.9-2.4,5.3-5.2,5.3l0,0C36.4,14.1,34,11.7,34,8.9z"/>
		<path class="st2" d="M33.4,8.9C33.4,5.6,36,3,39.2,3s5.9,2.6,5.9,5.8c0,3.3-2.6,5.9-5.8,5.9l0,0C36,14.7,33.4,12.1,33.4,8.9z"/>
	</g>
</g>
</svg>
