<?xml version="1.0" encoding="utf-8"?>
<!-- Generator: Adobe Illustrator 25.0.1, SVG Export Plug-In . SVG Version: 6.00 Build 0)  -->
<svg version="1.1" id="Layer_1" xmlns="http://www.w3.org/2000/svg" xmlns:xlink="http://www.w3.org/1999/xlink" x="0px" y="0px"
	 viewBox="0 0 1343.1 611" style="enable-background:new 0 0 1343.1 611;" xml:space="preserve">
<style type="text/css">
	.st0{fill:#0C6D72;}
	.st1{fill:#30721E;}
	.st2{fill:#F4F4F4;}
	.st3{fill:#E52033;}
	.st4{fill:#063739;}
	.st5{fill:#FFFFFF;}
</style>
<g>
	<rect x="72" y="95" class="st0" width="32.5" height="1"/>
	<polygon class="st0" points="103,100.4 111.7,95.5 103,90.5 	"/>
	<rect x="318.7" y="95" class="st0" width="36.5" height="1"/>
	<polygon class="st0" points="353.7,100.4 362.4,95.5 353.7,90.5 	"/>
	<circle class="st1" cx="36" cy="95.5" r="36"/>
	<path class="st2" d="M20.5,101.5c-0.3,0-0.6,0-1,0s-0.7-0.1-1.1-0.1s-0.7-0.1-1.1-0.2s-0.7-0.2-1.1-0.2v-1.4
		c0.7,0.2,1.4,0.3,2.2,0.4c0.6,0.1,1.3,0.2,2,0.2c0.8,0.1,1.7-0.1,2.4-0.6c0.5-0.4,0.9-1,0.8-1.7c0-0.3-0.1-0.7-0.2-1
		c-0.2-0.3-0.4-0.5-0.6-0.7c-0.3-0.2-0.6-0.4-1-0.5s-0.8-0.3-1.2-0.4c-0.6-0.2-1.2-0.4-1.8-0.6c-0.5-0.2-0.9-0.5-1.2-0.8
		c-0.3-0.3-0.6-0.7-0.7-1.1c-0.2-0.4-0.2-0.9-0.2-1.4s0.1-1,0.3-1.5c0.2-0.5,0.5-0.9,0.9-1.2c0.4-0.3,1-0.6,1.5-0.8
		c0.6-0.2,1.3-0.3,1.9-0.3c0.5,0,1.1,0,1.6,0.1c0.6,0.1,1.2,0.2,1.9,0.3l-0.1,1.3C24.1,89.1,23.5,89,23,89c-0.5-0.1-1.1-0.1-1.6-0.1
		c-0.8,0-1.6,0.2-2.2,0.6c-0.5,0.4-0.8,1-0.8,1.7c0,0.3,0,0.6,0.2,0.9c0.1,0.3,0.3,0.5,0.5,0.7c0.3,0.2,0.6,0.4,0.9,0.6
		c0.5,0.2,0.9,0.4,1.4,0.5c0.6,0.2,1.1,0.3,1.6,0.5s0.9,0.4,1.3,0.7c0.4,0.3,0.6,0.7,0.8,1.1c0.2,0.5,0.3,1,0.3,1.6
		c0.1,1-0.4,2.1-1.2,2.7C23,101.3,21.7,101.6,20.5,101.5z"/>
	<path class="st2" d="M30.8,101.5c-0.8,0.1-1.5-0.2-2.1-0.7c-0.5-0.5-0.7-1.3-0.7-2V93h-2v-1.4h2.1l0.2-2.4l1.2-0.2v2.6h2.9V93h-2.9
		v5.4c0,0.5,0.1,1,0.4,1.3s0.8,0.5,1.3,0.4c0.2,0,0.4,0,0.6-0.1c0.2,0,0.5-0.1,0.7-0.2v1.3c-0.3,0.1-0.6,0.1-0.9,0.2
		C31.4,101.5,31.1,101.5,30.8,101.5z"/>
	<path class="st2" d="M36.1,101.4c-0.7,0-1.4-0.2-1.9-0.7s-0.7-1.2-0.7-1.9c0-0.8,0.3-1.6,0.9-2.1c0.8-0.6,1.8-0.9,2.8-0.9l2.3-0.2
		v-0.7c0-0.4,0-0.7-0.1-1.1c-0.1-0.3-0.2-0.5-0.4-0.7s-0.5-0.3-0.8-0.4c-0.4-0.1-0.8-0.1-1.2-0.1s-0.9,0-1.3,0.1
		c-0.5,0-1,0.1-1.5,0.2l-0.1-1.2c0.6-0.1,1.2-0.2,1.7-0.3s1-0.1,1.6-0.1c1-0.1,2,0.2,2.8,0.8c0.6,0.6,1,1.5,0.9,2.4v6.6h-1.3
		l-0.2-1.2h-0.1c-0.5,0.4-1.1,0.7-1.7,1C37.3,101.3,36.7,101.4,36.1,101.4z M36.7,100.2c0.5,0,1-0.1,1.4-0.3c0.5-0.2,1-0.5,1.5-0.8
		v-2.5l-1.9,0.2c-0.7,0-1.4,0.2-2,0.6c-0.4,0.3-0.6,0.8-0.6,1.4C35.2,99.7,35.7,100.2,36.7,100.2z"/>
	<path class="st2" d="M43.8,91.6h1.3l0.1,1.3h0.1c0.7-0.4,1.3-0.7,1.8-1s1-0.4,1.6-0.5h0.5v1.5h-0.6c-0.6,0.1-1.1,0.2-1.7,0.4
		c-0.6,0.2-1.1,0.5-1.6,0.7v7.2h-1.6v-9.6H43.8z"/>
	<path class="st2" d="M54.6,101.5c-0.8,0.1-1.5-0.2-2.1-0.7c-0.5-0.5-0.8-1.3-0.7-2V93h-2v-1.4h2.1l0.2-2.4l1.2-0.2v2.6h2.9V93h-2.9
		v5.4c0,0.5,0.1,1,0.4,1.3c0.3,0.3,0.8,0.5,1.3,0.4c0.2,0,0.4,0,0.6-0.1c0.2,0,0.5-0.1,0.7-0.2v1.3c-0.3,0.1-0.6,0.1-0.9,0.2
		C55.2,101.5,54.9,101.5,54.6,101.5z"/>
	<g>
		<rect x="421.8" y="213" class="st0" width="72" height="54"/>
		<path class="st2" d="M448.6,241.4l-4.9-8.9h1.7l3.3,6.2l0.5,1.2h0.2l0.5-1.2l3.4-6.2h1.7l-4.8,8.8v4.5h-1.6L448.6,241.4z"/>
		<path class="st2" d="M459,246c-1.2,0.1-2.5-0.4-3.4-1.2c-0.8-1-1.2-2.3-1.1-3.7c-0.1-1.4,0.3-2.7,1.1-3.8c0.8-0.9,2-1.4,3.3-1.3
			c2.5,0,3.7,1.4,3.7,4.3c0,0.4,0,0.8-0.1,1.3h-6.4c0,0.9,0.3,1.8,0.8,2.4c0.6,0.5,1.4,0.8,2.3,0.7c0.5,0,1,0,1.5-0.1s1-0.2,1.5-0.4
			l0.1,1.2c-0.5,0.2-1,0.3-1.6,0.4C460.2,245.9,459.6,246,459,246z M458.9,237.2c-1.7,0-2.7,1.1-2.8,3.3h5.1
			c0.1-0.9-0.1-1.7-0.6-2.5C460.2,237.4,459.6,237.1,458.9,237.2z"/>
		<path class="st2" d="M467.6,246c-0.5,0-0.9,0-1.4-0.1s-1.1-0.2-1.9-0.3v-1.3c0.6,0.1,1.2,0.3,1.7,0.4c0.5,0.1,1,0.1,1.5,0.1
			c0.6,0,1.1-0.1,1.6-0.4c0.4-0.3,0.6-0.7,0.5-1.2c0-0.2,0-0.5-0.1-0.7s-0.2-0.4-0.4-0.5c-0.2-0.1-0.4-0.2-0.7-0.3
			c-0.3-0.1-0.5-0.2-0.8-0.2l-1.1-0.2c-0.4-0.1-0.7-0.2-1-0.4s-0.6-0.5-0.8-0.8c-0.2-0.4-0.3-0.9-0.3-1.4c0-0.8,0.4-1.5,1-2
			c0.8-0.5,1.7-0.8,2.6-0.7c0.2,0,0.4,0,0.6,0l0.6,0.1l0.7,0.1l0.9,0.2l-0.2,1.3c-0.6-0.1-1.1-0.2-1.5-0.3s-0.8-0.1-1.1-0.1
			c-1.5,0-2.2,0.5-2.2,1.5c0,0.2,0,0.5,0.2,0.7c0.1,0.2,0.3,0.3,0.5,0.5c0.2,0.1,0.5,0.2,0.7,0.3c0.3,0.1,0.6,0.1,0.9,0.2
			c0.4,0.1,0.8,0.2,1.2,0.3c0.4,0.1,0.7,0.3,1,0.5s0.5,0.5,0.6,0.8c0.2,0.4,0.2,0.8,0.2,1.2c0,0.8-0.3,1.6-1,2.1
			C469.5,245.8,468.5,246.1,467.6,246z"/>
	</g>
	<g>
		<rect x="585.9" y="68.4" class="st3" width="72" height="54"/>
		<path class="st2" d="M611.2,88h1.4l6.8,9.3l1,1.6h0.1V88h1.5v13.3h-1.4l-6.9-9.3l-1-1.6h-0.1v10.8h-1.5V88H611.2z"/>
		<path class="st2" d="M628.9,101.5c-1.3,0.1-2.5-0.4-3.4-1.3c-1.5-2.3-1.5-5.2,0-7.5c1.9-1.7,4.8-1.7,6.7,0c1.5,2.3,1.5,5.2,0,7.5
			C631.4,101.1,630.1,101.6,628.9,101.5z M628.9,100.2c0.8,0.1,1.7-0.3,2.2-0.9c0.9-1.8,0.9-3.9,0-5.7c-1.2-1.2-3.2-1.2-4.4,0
			c-0.9,1.8-0.9,3.9,0,5.7C627.2,99.9,628,100.3,628.9,100.2L628.9,100.2z"/>
	</g>
	<rect x="553.3" y="95" class="st0" width="25.5" height="1"/>
	<polygon class="st0" points="577.3,100.4 585.9,95.5 577.3,90.5 	"/>
	<rect x="657.9" y="95" class="st0" width="36.7" height="1"/>
	<polygon class="st0" points="693.1,100.4 701.7,95.5 693.1,90.5 	"/>
	<polygon class="st0" points="1195,100.4 1203.6,95.5 1195,90.5 	"/>
	<rect x="457.3" y="190.1" class="st0" width="1" height="15.6"/>
	<polygon class="st0" points="452.8,204.3 457.8,213 462.8,204.3 	"/>
	<rect x="1136.1" y="521" class="st4" width="207" height="90"/>
	<path class="st0" d="M1342.1,522v88h-205v-88H1342.1 M1343.1,521h-207v90h207V521z"/>
	<rect x="501.2" y="566.1" class="st0" width="634.9" height="1"/>
	<polygon class="st0" points="502.7,561.6 494,566.6 502.7,571.5 	"/>
	<rect x="1239.1" y="95.4" class="st0" width="1" height="92.3"/>
	<polygon class="st0" points="1234.6,186.3 1239.6,195 1244.6,186.3 	"/>
	<polygon class="st0" points="1071.7,285.4 1063.1,290.4 1071.7,295.4 	"/>
	<rect x="891.2" y="94.9" class="st0" width="348.4" height="1"/>
	<rect x="1239.1" y="384.7" class="st0" width="1" height="129.1"/>
	<polygon class="st0" points="1234.6,512.3 1239.6,521 1244.6,512.3 	"/>
	<g>
		<rect x="111.7" y="50.5" class="st4" width="207" height="90"/>
		<path class="st0" d="M317.7,51.5v88h-205v-88H317.7 M318.7,50.5h-207v90h207V50.5z"/>
		<g>
			<path class="st5" d="M140.4,88.8c-3.7,0-5.5-2-5.5-6c0-2.1,0.5-3.6,1.4-4.6s2.3-1.5,4.1-1.5c0.4,0,0.8,0,1.2,0.1
				c0.5,0,0.9,0.1,1.4,0.2v1.5c-0.5-0.1-1-0.1-1.4-0.2c-0.4,0-0.7-0.1-1.1-0.1c-0.7,0-1.2,0.1-1.7,0.3c-0.5,0.2-0.9,0.4-1.2,0.8
				s-0.5,0.8-0.7,1.4c-0.1,0.6-0.2,1.3-0.2,2.1c0,1.6,0.3,2.8,0.9,3.5s1.5,1.1,2.8,1.1c0.2,0,0.4,0,0.6,0c0.2,0,0.5,0,0.7-0.1
				c0.2,0,0.5-0.1,0.7-0.1s0.4-0.1,0.6-0.1v1.5c-0.4,0.1-0.8,0.2-1.3,0.2S140.8,88.8,140.4,88.8z"/>
			<path class="st5" d="M144.7,75.7h1.8V81c0.8-0.4,1.5-0.7,2-0.8c0.6-0.2,1.1-0.3,1.6-0.3c0.7,0,1.3,0.2,1.7,0.6s0.6,1,0.6,1.8v6.4
				h-1.8v-5.8c0-0.5-0.1-0.9-0.3-1.2c-0.2-0.2-0.5-0.4-1-0.4c-0.4,0-0.8,0.1-1.3,0.2c-0.5,0.2-1,0.4-1.6,0.6v6.5h-1.8V75.7H144.7z"
				/>
			<path class="st5" d="M158.4,88.8c-1.4,0-2.4-0.4-3.1-1.1c-0.7-0.7-1-1.8-1-3.3s0.3-2.6,1-3.4s1.7-1.2,3-1.2
				c2.3,0,3.5,1.3,3.5,3.9c0,0.5,0,0.9-0.1,1.2H156c0.1,0.9,0.3,1.5,0.7,1.9s1,0.6,1.9,0.6c0.4,0,0.9,0,1.4-0.1s1-0.2,1.4-0.3
				l0.1,1.3c-0.4,0.2-0.9,0.3-1.5,0.4C159.4,88.8,158.9,88.8,158.4,88.8z M158.3,81.2c-0.7,0-1.2,0.2-1.6,0.6s-0.6,1.1-0.6,2h4.1
				c0-0.9-0.2-1.6-0.5-2S158.9,81.2,158.3,81.2z"/>
			<path class="st5" d="M167.4,88.8c-2.8,0-4.2-1.5-4.2-4.4c0-3,1.4-4.5,4.2-4.5c0.4,0,0.7,0,1.1,0.1c0.4,0,0.8,0.1,1.1,0.2v1.5
				c-0.3-0.1-0.7-0.1-1-0.2c-0.3,0-0.7-0.1-1-0.1c-0.9,0-1.6,0.2-2,0.7s-0.6,1.2-0.6,2.3c0,1,0.2,1.8,0.6,2.3c0.4,0.5,1.1,0.7,2,0.7
				c0.4,0,0.7,0,1.1,0c0.3,0,0.6-0.1,1-0.2v1.4c-0.3,0.1-0.6,0.1-1,0.2C168.2,88.8,167.8,88.8,167.4,88.8z"/>
			<path class="st5" d="M171.4,75.7h1.8v7.9h1.3l2.7-3.6h2l-3.1,4l-0.3,0.1l0,0l0.3,0.1l3.4,4.3h-2l-3-3.8h-1.3v3.8h-1.8L171.4,75.7
				L171.4,75.7z"/>
			<path class="st5" d="M187.7,88.8c-0.9,0-1.5-0.2-2-0.6c-0.4-0.4-0.7-1.1-0.7-1.9v-4.7h-1.7V80h1.8l0.3-2.3l1.4-0.2V80h2.4v1.5
				h-2.4v4.3c0,0.5,0.1,0.9,0.3,1.1s0.6,0.4,1.1,0.4c0.1,0,0.3,0,0.5,0s0.4-0.1,0.6-0.1v1.4c-0.2,0.1-0.5,0.1-0.8,0.2
				C188.2,88.8,188,88.8,187.7,88.8z"/>
			<path class="st5" d="M190.8,75.7h1.8V81c0.8-0.4,1.5-0.7,2-0.8c0.6-0.2,1.1-0.3,1.6-0.3c0.7,0,1.3,0.2,1.7,0.6s0.6,1,0.6,1.8v6.4
				h-1.8v-5.8c0-0.5-0.1-0.9-0.3-1.2c-0.2-0.2-0.5-0.4-1-0.4c-0.4,0-0.8,0.1-1.3,0.2c-0.5,0.2-1,0.4-1.6,0.6v6.5h-1.8V75.7H190.8z"
				/>
			<path class="st5" d="M204.5,88.8c-1.4,0-2.4-0.4-3.1-1.1c-0.7-0.7-1-1.8-1-3.3s0.3-2.6,1-3.4s1.7-1.2,3-1.2
				c2.3,0,3.5,1.3,3.5,3.9c0,0.5,0,0.9-0.1,1.2h-5.6c0.1,0.9,0.3,1.5,0.7,1.9s1,0.6,1.9,0.6c0.4,0,0.9,0,1.4-0.1s1-0.2,1.4-0.3
				l0.1,1.3c-0.4,0.2-0.9,0.3-1.5,0.4C205.5,88.8,205,88.8,204.5,88.8z M204.3,81.2c-0.7,0-1.2,0.2-1.6,0.6s-0.6,1.1-0.6,2h4.1
				c0-0.9-0.2-1.6-0.5-2S205,81.2,204.3,81.2z"/>
			<path class="st5" d="M213.3,80h1.5l0.1,1.2h0.1c0.5-0.3,1.1-0.6,1.6-0.9c0.5-0.2,1-0.4,1.4-0.5h0.6v1.6H218
				c-0.5,0.1-1,0.2-1.4,0.4c-0.5,0.2-0.9,0.4-1.4,0.6v6.2h-1.8V80H213.3z"/>
			<path class="st5" d="M223.6,88.8c-1.4,0-2.4-0.4-3.1-1.1c-0.7-0.7-1-1.8-1-3.3s0.3-2.6,1-3.4s1.7-1.2,3-1.2
				c2.3,0,3.5,1.3,3.5,3.9c0,0.5,0,0.9-0.1,1.2h-5.6c0.1,0.9,0.3,1.5,0.7,1.9s1,0.6,1.9,0.6c0.4,0,0.9,0,1.4-0.1s1-0.2,1.4-0.3
				l0.1,1.3c-0.4,0.2-0.9,0.3-1.5,0.4C224.6,88.8,224.1,88.8,223.6,88.8z M223.5,81.2c-0.7,0-1.2,0.2-1.6,0.6s-0.6,1.1-0.6,2h4.1
				c0-0.9-0.2-1.6-0.5-2S224.1,81.2,223.5,81.2z"/>
			<path class="st5" d="M232.6,88.8c-2.8,0-4.2-1.5-4.2-4.4c0-3,1.4-4.5,4.2-4.5c0.4,0,0.7,0,1.1,0.1c0.4,0,0.8,0.1,1.1,0.2v1.5
				c-0.3-0.1-0.7-0.1-1-0.2c-0.3,0-0.7-0.1-1-0.1c-0.9,0-1.6,0.2-2,0.7s-0.6,1.2-0.6,2.3c0,1,0.2,1.8,0.6,2.3c0.4,0.5,1.1,0.7,2,0.7
				c0.4,0,0.7,0,1.1,0c0.3,0,0.6-0.1,1-0.2v1.4c-0.3,0.1-0.6,0.1-1,0.2C233.4,88.8,233,88.8,232.6,88.8z"/>
			<path class="st5" d="M240.4,88.8c-1.4,0-2.4-0.4-3.1-1.1c-0.7-0.8-1.1-1.9-1.1-3.3s0.4-2.6,1.1-3.3c0.7-0.8,1.8-1.1,3.1-1.1
				s2.4,0.4,3.1,1.1c0.7,0.8,1.1,1.9,1.1,3.3s-0.4,2.6-1.1,3.3C242.8,88.4,241.7,88.8,240.4,88.8z M240.4,87.4
				c0.8,0,1.4-0.2,1.8-0.7c0.4-0.5,0.6-1.3,0.6-2.3c0-1.1-0.2-1.9-0.6-2.3c-0.4-0.5-1-0.7-1.8-0.7s-1.4,0.2-1.8,0.7
				c-0.4,0.5-0.6,1.3-0.6,2.3c0,1.1,0.2,1.9,0.6,2.3C238.9,87.2,239.5,87.4,240.4,87.4z"/>
			<path class="st5" d="M249.6,92.2c-0.5,0-1.1,0-1.6-0.1s-1-0.1-1.4-0.3l0.1-1.4c0.4,0.1,0.8,0.2,1.3,0.2s0.9,0.1,1.4,0.1
				c0.4,0,0.8,0,1.2-0.1s0.7-0.2,1-0.5s0.5-0.5,0.6-0.9s0.2-0.8,0.2-1.4v-0.6h-0.1c-0.6,0.8-1.5,1.2-2.7,1.2s-2.1-0.3-2.7-1
				c-0.6-0.7-0.9-1.7-0.9-3.2c0-0.8,0.1-1.4,0.3-2s0.5-1,0.9-1.4s0.9-0.7,1.4-0.8c0.5-0.2,1.2-0.3,1.8-0.3c0.5,0,1.1,0,1.6,0.1
				s1.3,0.2,2,0.4v7.3c0,0.9-0.1,1.6-0.4,2.1c-0.2,0.6-0.6,1-1,1.4c-0.4,0.3-0.9,0.6-1.4,0.7C250.8,92.1,250.2,92.2,249.6,92.2z
				 M250,87.2c0.3,0,0.6,0,0.9-0.1c0.3-0.1,0.5-0.2,0.7-0.4s0.4-0.4,0.5-0.6s0.2-0.5,0.2-0.8v-4c-0.3-0.1-0.6-0.1-0.9-0.1
				c-0.3,0-0.7,0-1,0c-0.9,0-1.5,0.2-2,0.7s-0.6,1.3-0.6,2.4s0.2,1.8,0.5,2.3C248.6,87,249.2,87.2,250,87.2z"/>
			<path class="st5" d="M256.3,80h1.5l0.1,1h0.1c0.8-0.4,1.5-0.7,2.1-0.9c0.6-0.2,1.1-0.3,1.6-0.3c0.7,0,1.3,0.2,1.7,0.6
				s0.6,1,0.6,1.8v6.4h-1.8v-5.8c0-0.5-0.1-0.9-0.3-1.2c-0.2-0.2-0.5-0.4-1-0.4c-0.4,0-0.8,0.1-1.3,0.2c-0.5,0.2-1,0.4-1.6,0.6v6.5
				h-1.8L256.3,80L256.3,80z"/>
			<path class="st5" d="M267.1,78.4c-0.4,0-0.6-0.1-0.8-0.2c-0.2-0.2-0.2-0.4-0.2-0.8s0.1-0.6,0.2-0.8c0.2-0.2,0.4-0.2,0.8-0.2
				s0.6,0.1,0.8,0.3c0.2,0.2,0.2,0.4,0.2,0.8s-0.1,0.6-0.2,0.8C267.8,78.3,267.5,78.4,267.1,78.4z M266.2,80h1.8v8.6h-1.8V80z"/>
			<path class="st5" d="M269.8,87.5l4.6-6v-0.1H270V80h6.7v1.1l-4.5,6v0.1h4.7v1.4h-7v-1.1H269.8z"/>
			<path class="st5" d="M282.2,88.8c-1.4,0-2.4-0.4-3.1-1.1s-1-1.8-1-3.3s0.3-2.6,1-3.4s1.7-1.2,3-1.2c2.3,0,3.5,1.3,3.5,3.9
				c0,0.5,0,0.9-0.1,1.2h-5.6c0.1,0.9,0.3,1.5,0.7,1.9c0.4,0.4,1,0.6,1.9,0.6c0.4,0,0.9,0,1.4-0.1s1-0.2,1.4-0.3l0.1,1.3
				c-0.4,0.2-0.9,0.3-1.5,0.4S282.8,88.8,282.2,88.8z M282.1,81.2c-0.7,0-1.2,0.2-1.6,0.6s-0.6,1.1-0.6,2h4.1c0-0.9-0.2-1.6-0.5-2
				S282.8,81.2,282.1,81.2z"/>
			<path class="st5" d="M290.6,88.8c-1.2,0-2.1-0.4-2.7-1.1s-0.9-1.8-0.9-3.3c0-0.8,0.1-1.4,0.3-2c0.2-0.6,0.5-1.1,0.9-1.4
				c0.4-0.4,0.9-0.7,1.4-0.9c0.5-0.2,1.2-0.3,1.8-0.3c0.3,0,0.7,0,1,0s0.6,0.1,0.9,0.1v-4.3h1.8v12.9h-1.6l-0.1-1.1h-0.1
				C292.7,88.4,291.8,88.8,290.6,88.8z M291.1,87.4c0.3,0,0.6,0,0.9-0.1s0.5-0.2,0.7-0.4s0.4-0.4,0.5-0.6s0.2-0.5,0.2-0.8v-4.2
				c-0.3-0.1-0.6-0.1-0.9-0.1s-0.7,0-1,0c-0.9,0-1.5,0.2-2,0.7c-0.4,0.5-0.6,1.3-0.6,2.5c0,1.1,0.2,1.9,0.5,2.4
				C289.7,87.2,290.3,87.4,291.1,87.4z"/>
			<path class="st5" d="M180.4,112.7c-0.8,0-1.4-0.2-1.8-0.6c-0.4-0.4-0.6-1-0.6-1.7c0-0.8,0.3-1.5,0.8-1.9s1.4-0.7,2.5-0.8l2-0.2
				V107c0-0.4,0-0.6-0.1-0.9c-0.1-0.2-0.2-0.4-0.3-0.6c-0.2-0.1-0.4-0.2-0.6-0.3s-0.6-0.1-1-0.1s-0.8,0-1.2,0.1
				c-0.4,0-0.9,0.1-1.4,0.2l-0.1-1.3c1.1-0.2,2.1-0.3,3.1-0.3c1.2,0,2.1,0.2,2.6,0.7c0.6,0.5,0.9,1.2,0.9,2.2v5.9h-1.5l-0.2-1.1
				h-0.1c-0.5,0.4-1,0.7-1.5,0.9C181.4,112.6,180.9,112.7,180.4,112.7z M181.1,111.4c0.4,0,0.7-0.1,1.1-0.2c0.4-0.2,0.8-0.4,1.1-0.6
				v-2l-1.5,0.1c-0.7,0.1-1.3,0.2-1.6,0.4c-0.3,0.2-0.4,0.6-0.4,1.1C179.9,111,180.3,111.4,181.1,111.4z"/>
			<path class="st5" d="M190.6,116.2c-0.5,0-1.1,0-1.6-0.1s-1-0.1-1.4-0.3l0.1-1.4c0.4,0.1,0.8,0.2,1.3,0.2s0.9,0.1,1.4,0.1
				c0.4,0,0.8,0,1.2-0.1s0.7-0.2,1-0.5s0.5-0.5,0.6-0.9s0.2-0.8,0.2-1.4v-0.6h-0.1c-0.6,0.8-1.5,1.2-2.7,1.2s-2.1-0.3-2.7-1
				c-0.6-0.7-0.9-1.7-0.9-3.2c0-0.8,0.1-1.4,0.3-2s0.5-1,0.9-1.4s0.9-0.7,1.4-0.8c0.5-0.2,1.2-0.3,1.8-0.3c0.5,0,1.1,0,1.6,0.1
				s1.3,0.2,2,0.4v7.3c0,0.9-0.1,1.6-0.4,2.1c-0.2,0.6-0.6,1-1,1.4c-0.4,0.3-0.9,0.6-1.4,0.7C191.8,116.1,191.2,116.2,190.6,116.2z
				 M191,111.2c0.3,0,0.6,0,0.9-0.1c0.3-0.1,0.5-0.2,0.7-0.4s0.4-0.4,0.5-0.6s0.2-0.5,0.2-0.8v-4c-0.3-0.1-0.6-0.1-0.9-0.1
				c-0.3,0-0.7,0-1,0c-0.9,0-1.5,0.2-2,0.7s-0.6,1.3-0.6,2.4s0.2,1.8,0.5,2.3C189.6,111,190.2,111.2,191,111.2z"/>
			<path class="st5" d="M201,112.8c-1.4,0-2.4-0.4-3.1-1.1c-0.7-0.7-1-1.8-1-3.3s0.3-2.6,1-3.4s1.7-1.2,3-1.2c2.3,0,3.5,1.3,3.5,3.9
				c0,0.5,0,0.9-0.1,1.2h-5.6c0.1,0.9,0.3,1.5,0.7,1.9s1,0.6,1.9,0.6c0.4,0,0.9,0,1.4-0.1s1-0.2,1.4-0.3l0.1,1.3
				c-0.4,0.2-0.9,0.3-1.5,0.4C202.1,112.8,201.5,112.8,201,112.8z M200.9,105.2c-0.7,0-1.2,0.2-1.6,0.6s-0.6,1.1-0.6,2h4.1
				c0-0.9-0.2-1.6-0.5-2S201.5,105.2,200.9,105.2z"/>
			<path class="st5" d="M209.9,104h1.5l0.1,1.2h0.1c0.5-0.3,1.1-0.6,1.6-0.9c0.5-0.2,1-0.4,1.4-0.5h0.6v1.6h-0.6
				c-0.5,0.1-1,0.2-1.4,0.4c-0.5,0.2-0.9,0.4-1.4,0.6v6.2H210V104H209.9z"/>
			<path class="st5" d="M218.3,112.7c-0.8,0-1.4-0.2-1.8-0.6c-0.4-0.4-0.6-1-0.6-1.7c0-0.8,0.3-1.5,0.8-1.9s1.4-0.7,2.5-0.8l2-0.2
				V107c0-0.4,0-0.6-0.1-0.9c-0.1-0.2-0.2-0.4-0.3-0.6c-0.2-0.1-0.4-0.2-0.6-0.3s-0.6-0.1-1-0.1s-0.8,0-1.2,0.1
				c-0.4,0-0.9,0.1-1.4,0.2l-0.1-1.3c1.1-0.2,2.1-0.3,3.1-0.3c1.2,0,2.1,0.2,2.6,0.7c0.6,0.5,0.9,1.2,0.9,2.2v5.9h-1.5l-0.2-1.1
				h-0.1c-0.5,0.4-1,0.7-1.5,0.9C219.3,112.6,218.8,112.7,218.3,112.7z M218.9,111.4c0.4,0,0.7-0.1,1.1-0.2c0.4-0.2,0.8-0.4,1.1-0.6
				v-2l-1.5,0.1c-0.7,0.1-1.3,0.2-1.6,0.4c-0.3,0.2-0.4,0.6-0.4,1.1C217.7,111,218.1,111.4,218.9,111.4z"/>
			<path class="st5" d="M225.2,104h1.5l0.1,1h0.1c0.8-0.4,1.5-0.7,2.1-0.9c0.6-0.2,1.1-0.3,1.6-0.3c0.7,0,1.3,0.2,1.7,0.6
				s0.6,1,0.6,1.8v6.4h-1.8v-5.8c0-0.5-0.1-0.9-0.3-1.2c-0.2-0.2-0.5-0.4-1-0.4c-0.4,0-0.8,0.1-1.3,0.2c-0.5,0.2-1,0.4-1.6,0.6v6.5
				h-1.8L225.2,104L225.2,104z"/>
			<path class="st5" d="M238.4,116.2c-0.5,0-1.1,0-1.6-0.1s-1-0.1-1.4-0.3l0.1-1.4c0.4,0.1,0.8,0.2,1.3,0.2s0.9,0.1,1.4,0.1
				c0.4,0,0.8,0,1.2-0.1s0.7-0.2,1-0.5s0.5-0.5,0.6-0.9s0.2-0.8,0.2-1.4v-0.6H241c-0.6,0.8-1.5,1.2-2.7,1.2s-2.1-0.3-2.7-1
				c-0.6-0.7-0.9-1.7-0.9-3.2c0-0.8,0.1-1.4,0.3-2s0.5-1,0.9-1.4s0.9-0.7,1.4-0.8c0.5-0.2,1.2-0.3,1.8-0.3c0.5,0,1.1,0,1.6,0.1
				s1.3,0.2,2,0.4v7.3c0,0.9-0.1,1.6-0.4,2.1c-0.2,0.6-0.6,1-1,1.4c-0.4,0.3-0.9,0.6-1.4,0.7C239.6,116.1,239,116.2,238.4,116.2z
				 M238.8,111.2c0.3,0,0.6,0,0.9-0.1c0.3-0.1,0.5-0.2,0.7-0.4s0.4-0.4,0.5-0.6s0.2-0.5,0.2-0.8v-4c-0.3-0.1-0.6-0.1-0.9-0.1
				c-0.3,0-0.7,0-1,0c-0.9,0-1.5,0.2-2,0.7s-0.6,1.3-0.6,2.4s0.2,1.8,0.5,2.3C237.4,111,238,111.2,238.8,111.2z"/>
			<path class="st5" d="M248.8,112.8c-1.4,0-2.4-0.4-3.1-1.1c-0.7-0.7-1-1.8-1-3.3s0.3-2.6,1-3.4s1.7-1.2,3-1.2
				c2.3,0,3.5,1.3,3.5,3.9c0,0.5,0,0.9-0.1,1.2h-5.6c0.1,0.9,0.3,1.5,0.7,1.9s1,0.6,1.9,0.6c0.4,0,0.9,0,1.4-0.1s1-0.2,1.4-0.3
				l0.1,1.3c-0.4,0.2-0.9,0.3-1.5,0.4C249.8,112.8,249.3,112.8,248.8,112.8z M248.7,105.2c-0.7,0-1.2,0.2-1.6,0.6s-0.6,1.1-0.6,2
				h4.1c0-0.9-0.2-1.6-0.5-2S249.3,105.2,248.7,105.2z"/>
		</g>
	</g>
	<g>
		
			<rect x="390.3" y="28" transform="matrix(0.7071 -0.7071 0.7071 0.7071 66.5669 351.7032)" class="st4" width="135" height="135"/>
		<path class="st0" d="M457.8,1.4l94,94.1l-94,94l-94-94L457.8,1.4 M457.8,0.1l-95.5,95.4l95.5,95.5l95.5-95.5L457.8,0.1L457.8,0.1z
			"/>
		<g>
			<path class="st5" d="M438.8,84.8l-4.4-7.9h2l2.7,5.1l0.5,1.1h0.1l0.5-1.1l2.7-5.1h2l-4.3,7.9v4h-1.8L438.8,84.8L438.8,84.8z"/>
			<path class="st5" d="M449.8,88.8c-1.4,0-2.4-0.4-3.1-1.1c-0.7-0.8-1.1-1.9-1.1-3.3s0.4-2.6,1.1-3.3c0.7-0.8,1.8-1.1,3.1-1.1
				s2.4,0.4,3.1,1.1c0.7,0.8,1.1,1.9,1.1,3.3s-0.4,2.6-1.1,3.3C452.2,88.4,451.2,88.8,449.8,88.8z M449.8,87.4
				c0.8,0,1.4-0.2,1.8-0.7s0.6-1.3,0.6-2.3c0-1.1-0.2-1.9-0.6-2.3c-0.4-0.5-1-0.7-1.8-0.7s-1.4,0.2-1.8,0.7s-0.6,1.3-0.6,2.3
				c0,1.1,0.2,1.9,0.6,2.3C448.4,87.2,449,87.4,449.8,87.4z"/>
			<path class="st5" d="M458.1,88.8c-0.8,0-1.3-0.2-1.7-0.6c-0.4-0.4-0.6-1-0.6-1.8V80h1.8v5.9c0,0.5,0.1,0.9,0.3,1.1
				c0.2,0.2,0.5,0.3,1,0.3s0.9-0.1,1.4-0.3c0.5-0.2,1-0.4,1.5-0.6V80h1.8v8.6H462l-0.1-1h-0.1c-0.4,0.2-0.8,0.4-1.1,0.5
				c-0.3,0.1-0.6,0.3-0.9,0.4s-0.6,0.2-0.8,0.2C458.7,88.8,458.4,88.8,458.1,88.8z"/>
			<path class="st5" d="M469.3,88.8c-0.9,0-1.5-0.2-2-0.6c-0.4-0.4-0.7-1.1-0.7-1.9v-4.7h-1.7V80h1.8l0.3-2.3l1.4-0.2V80h2.4v1.5
				h-2.4v4.3c0,0.5,0.1,0.9,0.3,1.1c0.2,0.2,0.6,0.4,1.1,0.4c0.1,0,0.3,0,0.5,0s0.4-0.1,0.6-0.1v1.4c-0.2,0.1-0.5,0.1-0.8,0.2
				C469.8,88.8,469.6,88.8,469.3,88.8z"/>
			<path class="st5" d="M472.4,75.7h1.8V81c0.8-0.4,1.5-0.7,2-0.8c0.6-0.2,1.1-0.3,1.6-0.3c0.7,0,1.3,0.2,1.7,0.6s0.6,1,0.6,1.8v6.4
				h-1.8v-5.8c0-0.5-0.1-0.9-0.3-1.2c-0.2-0.2-0.5-0.4-1-0.4c-0.4,0-0.8,0.1-1.3,0.2c-0.5,0.2-1,0.4-1.6,0.6v6.5h-1.8L472.4,75.7
				L472.4,75.7z"/>
			<path class="st5" d="M428.3,112.8c-1.2,0-2.1-0.4-2.7-1.1s-0.9-1.8-0.9-3.3c0-0.8,0.1-1.4,0.3-2c0.2-0.6,0.5-1.1,0.9-1.4
				c0.4-0.4,0.9-0.7,1.4-0.9c0.5-0.2,1.2-0.3,1.8-0.3c0.3,0,0.7,0,1,0s0.6,0.1,0.9,0.1v-4.3h1.8v12.9h-1.6l-0.1-1.1H431
				C430.4,112.4,429.5,112.8,428.3,112.8z M428.8,111.4c0.3,0,0.6,0,0.9-0.1s0.5-0.2,0.7-0.4s0.4-0.4,0.5-0.6s0.2-0.5,0.2-0.8v-4.2
				c-0.3-0.1-0.6-0.1-0.9-0.1s-0.7,0-1,0c-0.9,0-1.5,0.2-2,0.7c-0.4,0.5-0.6,1.3-0.6,2.5c0,1.1,0.2,1.9,0.5,2.4
				C427.4,111.2,428,111.4,428.8,111.4z"/>
			<path class="st5" d="M438.8,112.8c-1.4,0-2.4-0.4-3.1-1.1s-1-1.8-1-3.3s0.3-2.6,1-3.4s1.7-1.2,3-1.2c2.3,0,3.5,1.3,3.5,3.9
				c0,0.5,0,0.9-0.1,1.2h-5.6c0.1,0.9,0.3,1.5,0.7,1.9c0.4,0.4,1,0.6,1.9,0.6c0.4,0,0.9,0,1.4-0.1s1-0.2,1.4-0.3l0.1,1.3
				c-0.4,0.2-0.9,0.3-1.5,0.4C439.8,112.8,439.3,112.8,438.8,112.8z M438.6,105.2c-0.7,0-1.2,0.2-1.6,0.6s-0.6,1.1-0.6,2h4.1
				c0-0.9-0.2-1.6-0.5-2S439.3,105.2,438.6,105.2z"/>
			<path class="st5" d="M447.5,112.8c-0.9,0-1.5-0.2-2-0.6c-0.4-0.4-0.7-1.1-0.7-1.9v-4.7h-1.7V104h1.8l0.3-2.3l1.4-0.2v2.4h2.4v1.5
				h-2.4v4.3c0,0.5,0.1,0.9,0.3,1.1c0.2,0.2,0.6,0.4,1.1,0.4c0.1,0,0.3,0,0.5,0s0.4-0.1,0.6-0.1v1.4c-0.2,0.1-0.5,0.1-0.8,0.2
				C448,112.8,447.7,112.8,447.5,112.8z"/>
			<path class="st5" d="M454.3,112.8c-1.4,0-2.4-0.4-3.1-1.1s-1-1.8-1-3.3s0.3-2.6,1-3.4s1.7-1.2,3-1.2c2.3,0,3.5,1.3,3.5,3.9
				c0,0.5,0,0.9-0.1,1.2H452c0.1,0.9,0.3,1.5,0.7,1.9c0.4,0.4,1,0.6,1.9,0.6c0.4,0,0.9,0,1.4-0.1s1-0.2,1.4-0.3l0.1,1.3
				c-0.4,0.2-0.9,0.3-1.5,0.4C455.3,112.8,454.8,112.8,454.3,112.8z M454.2,105.2c-0.7,0-1.2,0.2-1.6,0.6s-0.6,1.1-0.6,2h4.1
				c0-0.9-0.2-1.6-0.5-2S454.8,105.2,454.2,105.2z"/>
			<path class="st5" d="M463.3,112.8c-2.8,0-4.2-1.5-4.2-4.4c0-3,1.4-4.5,4.2-4.5c0.4,0,0.7,0,1.1,0.1c0.4,0,0.8,0.1,1.1,0.2v1.5
				c-0.3-0.1-0.7-0.1-1-0.2c-0.3,0-0.7-0.1-1-0.1c-0.9,0-1.6,0.2-2,0.7s-0.6,1.2-0.6,2.3c0,1,0.2,1.8,0.6,2.3s1.1,0.7,2,0.7
				c0.4,0,0.7,0,1.1,0c0.3,0,0.6-0.1,1-0.2v1.4c-0.3,0.1-0.6,0.1-1,0.2C464.1,112.8,463.7,112.8,463.3,112.8z"/>
			<path class="st5" d="M470.8,112.8c-0.9,0-1.5-0.2-2-0.6c-0.4-0.4-0.7-1.1-0.7-1.9v-4.7h-1.7V104h1.8l0.3-2.3l1.4-0.2v2.4h2.4v1.5
				H470v4.3c0,0.5,0.1,0.9,0.3,1.1c0.2,0.2,0.6,0.4,1.1,0.4c0.1,0,0.3,0,0.5,0s0.4-0.1,0.6-0.1v1.4c-0.2,0.1-0.5,0.1-0.8,0.2
				C471.4,112.8,471.1,112.8,470.8,112.8z"/>
			<path class="st5" d="M477.6,112.8c-1.4,0-2.4-0.4-3.1-1.1s-1-1.8-1-3.3s0.3-2.6,1-3.4s1.7-1.2,3-1.2c2.3,0,3.5,1.3,3.5,3.9
				c0,0.5,0,0.9-0.1,1.2h-5.6c0.1,0.9,0.3,1.5,0.7,1.9c0.4,0.4,1,0.6,1.9,0.6c0.4,0,0.9,0,1.4-0.1s1-0.2,1.4-0.3l0.1,1.3
				c-0.4,0.2-0.9,0.3-1.5,0.4C478.7,112.8,478.2,112.8,477.6,112.8z M477.5,105.2c-0.7,0-1.2,0.2-1.6,0.6s-0.6,1.1-0.6,2h4.1
				c0-0.9-0.2-1.6-0.5-2S478.2,105.2,477.5,105.2z"/>
			<path class="st5" d="M486,112.8c-1.2,0-2.1-0.4-2.7-1.1s-0.9-1.8-0.9-3.3c0-0.8,0.1-1.4,0.3-2c0.2-0.6,0.5-1.1,0.9-1.4
				c0.4-0.4,0.9-0.7,1.4-0.9c0.5-0.2,1.2-0.3,1.8-0.3c0.3,0,0.7,0,1,0s0.6,0.1,0.9,0.1v-4.3h1.8v12.9h-1.6l-0.1-1.1h-0.1
				C488.1,112.4,487.2,112.8,486,112.8z M486.5,111.4c0.3,0,0.6,0,0.9-0.1s0.5-0.2,0.7-0.4s0.4-0.4,0.5-0.6s0.2-0.5,0.2-0.8v-4.2
				c-0.3-0.1-0.6-0.1-0.9-0.1s-0.7,0-1,0c-0.9,0-1.5,0.2-2,0.7c-0.4,0.5-0.6,1.3-0.6,2.5c0,1.1,0.2,1.9,0.5,2.4
				C485.1,111.2,485.7,111.4,486.5,111.4z"/>
		</g>
	</g>
	<rect x="457.5" y="267" class="st0" width="1" height="84.2"/>
	<g>
		<rect x="354.5" y="359.8" class="st4" width="207" height="90"/>
		<path class="st0" d="M560.5,360.8v88h-205v-88H560.5 M561.5,359.8h-207v90h207V359.8z"/>
		<g>
			<path class="st5" d="M370.9,410.2c-0.6,0-1.2,0-1.9-0.1s-1.4-0.2-2-0.4v-1.5c0.7,0.2,1.3,0.3,2,0.4s1.3,0.1,1.8,0.1
				c1.8,0,2.7-0.6,2.7-1.8c0-0.3-0.1-0.6-0.2-0.8s-0.3-0.4-0.5-0.6s-0.5-0.3-0.8-0.4s-0.7-0.2-1-0.3c-0.6-0.2-1.2-0.3-1.6-0.5
				c-0.5-0.2-0.8-0.4-1.1-0.7c-0.3-0.3-0.5-0.6-0.7-1c-0.1-0.4-0.2-0.8-0.2-1.3s0.1-1,0.3-1.4c0.2-0.4,0.5-0.8,0.8-1
				c0.4-0.3,0.8-0.5,1.3-0.7s1.1-0.2,1.8-0.2c0.5,0,1,0,1.5,0.1s1.1,0.2,1.8,0.3v1.5c-0.5-0.1-1-0.2-1.6-0.3
				c-0.6-0.1-1.1-0.1-1.5-0.1c-0.8,0-1.4,0.2-1.9,0.5c-0.4,0.3-0.7,0.8-0.7,1.3s0.2,1,0.6,1.3s1.1,0.6,2,0.8
				c0.6,0.1,1.1,0.3,1.5,0.5s0.8,0.4,1.2,0.7c0.3,0.3,0.6,0.6,0.7,1c0.2,0.4,0.3,0.8,0.3,1.4c0,1.1-0.4,1.9-1.1,2.5
				C373.4,409.9,372.3,410.2,370.9,410.2z"/>
			<path class="st5" d="M377,397.1h1.8v5.2c0.8-0.4,1.5-0.7,2-0.8c0.6-0.2,1.1-0.3,1.6-0.3c0.7,0,1.3,0.2,1.7,0.6s0.6,1,0.6,1.8v6.4
				h-1.8v-5.8c0-0.5-0.1-0.9-0.3-1.2s-0.5-0.4-1-0.4c-0.4,0-0.8,0.1-1.3,0.2c-0.5,0.2-1,0.4-1.6,0.6v6.5H377V397.1z"/>
			<path class="st5" d="M390.6,410.2c-1.4,0-2.4-0.4-3.1-1.1c-0.7-0.8-1.1-1.9-1.1-3.3c0-1.5,0.4-2.6,1.1-3.3
				c0.7-0.8,1.8-1.1,3.1-1.1s2.4,0.4,3.1,1.1c0.7,0.8,1.1,1.9,1.1,3.3c0,1.5-0.4,2.6-1.1,3.3S392,410.2,390.6,410.2z M390.6,408.8
				c0.8,0,1.4-0.2,1.8-0.7s0.6-1.3,0.6-2.3s-0.2-1.9-0.6-2.3c-0.4-0.5-1-0.7-1.8-0.7s-1.4,0.2-1.8,0.7s-0.6,1.3-0.6,2.3
				s0.2,1.9,0.6,2.3C389.2,408.5,389.8,408.8,390.6,408.8z"/>
			<path class="st5" d="M395.8,401.5L395.8,401.5l1.7-0.1l1.4,5.7l0.3,1.2h0.1l0.3-1.2l1.6-5.7h1.6l1.6,5.7l0.3,1.2h0.1l0.3-1.2
				l1.3-5.7h1.7v0.1l-2.3,8.5h-2l-1.6-5.4l-0.2-1.1h-0.1l-0.2,1.1l-1.5,5.4h-2L395.8,401.5z"/>
			<path class="st5" d="M414.6,413.3v-0.2l1.3-3.2l-3.6-8.4v-0.2h1.9l2.1,5.4l0.4,1.3h0.1l0.4-1.3l2.1-5.4h1.9v0.2l-5,12
				L414.6,413.3z"/>
			<path class="st5" d="M426.4,410.2c-1.4,0-2.4-0.4-3.1-1.1c-0.7-0.8-1.1-1.9-1.1-3.3c0-1.5,0.4-2.6,1.1-3.3
				c0.7-0.8,1.8-1.1,3.1-1.1s2.4,0.4,3.1,1.1c0.7,0.8,1.1,1.9,1.1,3.3c0,1.5-0.4,2.6-1.1,3.3S427.7,410.2,426.4,410.2z M426.4,408.8
				c0.8,0,1.4-0.2,1.8-0.7s0.6-1.3,0.6-2.3s-0.2-1.9-0.6-2.3c-0.4-0.5-1-0.7-1.8-0.7s-1.4,0.2-1.8,0.7s-0.6,1.3-0.6,2.3
				s0.2,1.9,0.6,2.3C424.9,408.5,425.5,408.8,426.4,408.8z"/>
			<path class="st5" d="M434.6,410.2c-0.8,0-1.3-0.2-1.7-0.6c-0.4-0.4-0.6-1-0.6-1.8v-6.4h1.8v5.9c0,0.5,0.1,0.9,0.3,1.1
				c0.2,0.2,0.5,0.3,1,0.3s0.9-0.1,1.4-0.3c0.5-0.2,1-0.4,1.5-0.6v-6.4h1.8v8.6h-1.5l-0.1-1h-0.1c-0.4,0.2-0.8,0.4-1.1,0.5
				c-0.3,0.1-0.6,0.3-0.9,0.4s-0.6,0.2-0.8,0.2S434.9,410.2,434.6,410.2z"/>
			<path class="st5" d="M445.8,410.2c-0.9,0-1.5-0.2-2-0.6c-0.4-0.4-0.7-1.1-0.7-1.9V403h-1.7v-1.5h1.8l0.3-2.3l1.4-0.2v2.4h2.4v1.5
				H445v4.3c0,0.5,0.1,0.9,0.3,1.1c0.2,0.2,0.6,0.4,1.1,0.4c0.1,0,0.3,0,0.5,0s0.4-0.1,0.6-0.1v1.4c-0.2,0.1-0.5,0.1-0.8,0.2
				C446.4,410.2,446.1,410.2,445.8,410.2z"/>
			<path class="st5" d="M448.9,397.1h1.8v5.2c0.8-0.4,1.5-0.7,2-0.8c0.6-0.2,1.1-0.3,1.6-0.3c0.7,0,1.3,0.2,1.7,0.6s0.6,1,0.6,1.8
				v6.4h-1.8v-5.8c0-0.5-0.1-0.9-0.3-1.2s-0.5-0.4-1-0.4c-0.4,0-0.8,0.1-1.3,0.2c-0.5,0.2-1,0.4-1.6,0.6v6.5h-1.8L448.9,397.1
				L448.9,397.1z"/>
			<path class="st5" d="M462.5,401.4h1.5l0.1,1.2h0.1c0.5-0.3,1.1-0.6,1.6-0.9s1-0.4,1.4-0.5h0.6v1.6h-0.6c-0.5,0.1-1,0.2-1.4,0.4
				s-0.9,0.4-1.4,0.6v6.2h-1.8v-8.6H462.5z"/>
			<path class="st5" d="M472.8,410.2c-1.4,0-2.4-0.4-3.1-1.1s-1-1.8-1-3.3s0.3-2.6,1-3.4s1.7-1.2,3-1.2c2.3,0,3.5,1.3,3.5,3.9
				c0,0.5,0,0.9-0.1,1.2h-5.6c0.1,0.9,0.3,1.5,0.7,1.9c0.4,0.4,1,0.6,1.9,0.6c0.4,0,0.9,0,1.4-0.1s1-0.2,1.4-0.3l0.1,1.3
				c-0.4,0.2-0.9,0.3-1.5,0.4C473.8,410.1,473.3,410.2,472.8,410.2z M472.7,402.6c-0.7,0-1.2,0.2-1.6,0.6s-0.6,1.1-0.6,2h4.1
				c0-0.9-0.2-1.6-0.5-2C473.8,402.8,473.3,402.6,472.7,402.6z"/>
			<path class="st5" d="M478,397.1h1.8V410H478V397.1z"/>
			<path class="st5" d="M484,410.1c-0.8,0-1.4-0.2-1.8-0.6s-0.6-1-0.6-1.7c0-0.8,0.3-1.5,0.8-1.9s1.4-0.7,2.5-0.8l2-0.2v-0.5
				c0-0.4,0-0.6-0.1-0.9s-0.2-0.4-0.3-0.6c-0.2-0.1-0.4-0.2-0.6-0.3s-0.6-0.1-1-0.1s-0.8,0-1.2,0.1c-0.4,0-0.9,0.1-1.4,0.2l-0.1-1.3
				c1.1-0.2,2.1-0.3,3.1-0.3c1.2,0,2.1,0.2,2.6,0.7c0.6,0.5,0.9,1.2,0.9,2.2v5.9h-1.5l-0.2-1.1H487c-0.5,0.4-1,0.7-1.5,0.9
				C485,410,484.5,410.1,484,410.1z M484.6,408.8c0.4,0,0.7-0.1,1.1-0.2c0.4-0.2,0.8-0.4,1.1-0.6v-2l-1.5,0.1
				c-0.7,0.1-1.3,0.2-1.6,0.4s-0.4,0.6-0.4,1.1C483.4,408.4,483.8,408.8,484.6,408.8z"/>
			<path class="st5" d="M494.4,410.2c-0.9,0-1.5-0.2-2-0.6c-0.4-0.4-0.7-1.1-0.7-1.9V403H490v-1.5h1.8l0.3-2.3l1.4-0.2v2.4h2.4v1.5
				h-2.4v4.3c0,0.5,0.1,0.9,0.3,1.1c0.2,0.2,0.6,0.4,1.1,0.4c0.1,0,0.3,0,0.5,0s0.4-0.1,0.6-0.1v1.4c-0.2,0.1-0.5,0.1-0.8,0.2
				C495,410.2,494.7,410.2,494.4,410.2z"/>
			<path class="st5" d="M501.3,410.2c-1.4,0-2.4-0.4-3.1-1.1s-1-1.8-1-3.3s0.3-2.6,1-3.4s1.7-1.2,3-1.2c2.3,0,3.5,1.3,3.5,3.9
				c0,0.5,0,0.9-0.1,1.2H499c0.1,0.9,0.3,1.5,0.7,1.9c0.4,0.4,1,0.6,1.9,0.6c0.4,0,0.9,0,1.4-0.1s1-0.2,1.4-0.3l0.1,1.3
				c-0.4,0.2-0.9,0.3-1.5,0.4C502.3,410.1,501.8,410.2,501.3,410.2z M501.1,402.6c-0.7,0-1.2,0.2-1.6,0.6s-0.6,1.1-0.6,2h4.1
				c0-0.9-0.2-1.6-0.5-2C502.2,402.8,501.8,402.6,501.1,402.6z"/>
			<path class="st5" d="M509.6,410.2c-1.2,0-2.1-0.4-2.7-1.1s-0.9-1.8-0.9-3.3c0-0.8,0.1-1.4,0.3-2c0.2-0.6,0.5-1.1,0.9-1.4
				c0.4-0.4,0.9-0.7,1.4-0.9c0.5-0.2,1.2-0.3,1.8-0.3c0.3,0,0.7,0,1,0s0.6,0.1,0.9,0.1V397h1.8v13h-1.6l-0.1-1.1h-0.1
				C511.7,409.8,510.8,410.2,509.6,410.2z M510.1,408.8c0.3,0,0.6,0,0.9-0.1s0.5-0.2,0.7-0.4s0.4-0.4,0.5-0.6s0.2-0.5,0.2-0.8v-4.2
				c-0.3-0.1-0.6-0.1-0.9-0.1s-0.7,0-1,0c-0.9,0-1.5,0.2-2,0.7c-0.4,0.5-0.6,1.3-0.6,2.5c0,1.1,0.2,1.9,0.5,2.4
				C508.7,408.6,509.3,408.8,510.1,408.8z"/>
			<path class="st5" d="M519,409.9l4.1-11.7h2.7l4.1,11.7v0.1h-1.8l-1.2-3.3h-5.1l-1.2,3.3H519V409.9z M526.6,405.2l-1.3-3.6
				l-0.7-2.1h-0.2l-0.7,2.1l-1.3,3.6H526.6z"/>
			<path class="st5" d="M534.5,410.2c-0.6,0-1.2,0-1.8-0.1c-0.6,0-1-0.1-1.3-0.2v-11.8c0.6-0.1,1.3-0.1,1.9-0.1c0.6,0,1.2,0,1.6,0
				c2.2,0,3.7,0.5,4.7,1.5s1.5,2.5,1.5,4.6c0,1.1-0.1,2-0.4,2.8c-0.3,0.8-0.7,1.4-1.2,1.9s-1.2,0.9-2.1,1.1
				C536.7,410.1,535.7,410.2,534.5,410.2z M535.2,408.7c0.7,0,1.4-0.1,1.9-0.3c0.5-0.2,1-0.4,1.3-0.8s0.6-0.8,0.7-1.4
				c0.2-0.6,0.2-1.3,0.2-2.1c0-0.8-0.1-1.5-0.2-2.1c-0.2-0.6-0.4-1-0.7-1.4s-0.8-0.6-1.3-0.8c-0.5-0.2-1.2-0.3-1.9-0.3
				c-0.3,0-0.6,0-0.9,0s-0.7,0-1,0.1v8.9c0.4,0.1,0.7,0.1,1,0.1C534.5,408.7,534.8,408.7,535.2,408.7z"/>
			<path class="st5" d="M545.7,410.2c-0.4,0-0.9,0-1.4-0.1s-1.1-0.2-1.7-0.3v-1.4c0.6,0.1,1.1,0.2,1.6,0.3c0.5,0.1,1,0.1,1.4,0.1
				c1.2,0,1.8-0.4,1.8-1.2c0-0.4-0.2-0.7-0.5-0.9c-0.3-0.2-0.7-0.3-1.2-0.4c-0.3-0.1-0.7-0.1-1-0.2s-0.7-0.2-1-0.4
				c-0.3-0.2-0.5-0.4-0.7-0.7s-0.3-0.7-0.3-1.3c0-0.8,0.3-1.4,0.9-1.9c0.6-0.5,1.4-0.7,2.5-0.7c0.2,0,0.4,0,0.6,0s0.4,0,0.6,0.1
				c0.2,0,0.4,0.1,0.7,0.1s0.5,0.1,0.9,0.2l-0.1,1.4c-0.6-0.1-1-0.2-1.4-0.3c-0.4-0.1-0.8-0.1-1.1-0.1c-0.6,0-1,0.1-1.3,0.3
				c-0.3,0.2-0.4,0.5-0.4,0.9c0,0.2,0,0.4,0.1,0.6c0.1,0.1,0.2,0.3,0.4,0.4s0.4,0.2,0.6,0.2c0.2,0.1,0.5,0.1,0.8,0.2
				c0.4,0.1,0.8,0.2,1.1,0.3s0.6,0.3,0.9,0.5c0.2,0.2,0.4,0.4,0.6,0.7c0.1,0.3,0.2,0.7,0.2,1.1c0,0.8-0.3,1.5-0.9,1.9
				C547.7,410,546.8,410.2,545.7,410.2z"/>
		</g>
	</g>
	<g>
		<rect x="729.7" y="28" transform="matrix(0.7071 -0.7071 0.7071 0.7071 165.979 591.688)" class="st4" width="135" height="135"/>
		<path class="st0" d="M797.2,1.4l94,94.1l-94,94l-94-94L797.2,1.4 M797.2,0.1l-95.5,95.4l95.5,95.5l95.5-95.5L797.2,0.1L797.2,0.1z
			"/>
		<g>
			<path class="st5" d="M740.7,100.5l4.1-11.7h2.7l4.1,11.7v0.1H750l-1.2-3.3h-5.1l-1.2,3.3L740.7,100.5L740.7,100.5z M748.3,95.9
				l-1.3-3.6l-0.7-2.1h-0.2l-0.7,2.1l-1.3,3.6H748.3z"/>
			<path class="st5" d="M756.1,100.8c-1.2,0-2.1-0.4-2.7-1.1c-0.6-0.7-0.9-1.8-0.9-3.3c0-0.8,0.1-1.4,0.3-2s0.5-1.1,0.9-1.4
				c0.4-0.4,0.9-0.7,1.4-0.9c0.5-0.2,1.2-0.3,1.8-0.3c0.3,0,0.7,0,1,0s0.6,0.1,0.9,0.1v-4.3h1.8v12.9H759l-0.1-1.1h-0.1
				C758.2,100.4,757.3,100.8,756.1,100.8z M756.6,99.4c0.3,0,0.6,0,0.9-0.1c0.3-0.1,0.5-0.2,0.7-0.4c0.2-0.2,0.4-0.4,0.5-0.6
				s0.2-0.5,0.2-0.8v-4.2c-0.3-0.1-0.6-0.1-0.9-0.1c-0.3,0-0.7,0-1,0c-0.9,0-1.5,0.2-2,0.7s-0.6,1.3-0.6,2.5c0,1.1,0.2,1.9,0.5,2.4
				C755.2,99.2,755.8,99.4,756.6,99.4z"/>
			<path class="st5" d="M765.1,100.8c-0.8,0-1.3-0.2-1.7-0.6s-0.6-1-0.6-1.8V92h1.8v5.9c0,0.5,0.1,0.9,0.3,1.1s0.5,0.3,1,0.3
				s0.9-0.1,1.4-0.3c0.5-0.2,1-0.4,1.5-0.6V92h1.8v8.6h-1.5l-0.1-1h-0.1c-0.4,0.2-0.8,0.4-1.1,0.5s-0.6,0.3-0.9,0.4
				c-0.3,0.1-0.6,0.2-0.8,0.2C765.8,100.8,765.5,100.8,765.1,100.8z"/>
			<path class="st5" d="M772.9,87.7h1.8v12.9h-1.8V87.7z"/>
			<path class="st5" d="M780.5,100.8c-0.9,0-1.5-0.2-2-0.6c-0.4-0.4-0.7-1.1-0.7-1.9v-4.7h-1.7V92h1.8l0.3-2.3l1.4-0.2V92h2.4v1.5
				h-2.4v4.3c0,0.5,0.1,0.9,0.3,1.1s0.6,0.4,1.1,0.4c0.1,0,0.3,0,0.5,0s0.4-0.1,0.6-0.1v1.4c-0.2,0.1-0.5,0.1-0.8,0.2
				C781,100.8,780.7,100.8,780.5,100.8z"/>
			<path class="st5" d="M790.4,100.8c-1.2,0-2.1-0.4-2.7-1.1s-0.9-1.8-0.9-3.3c0-0.8,0.1-1.4,0.3-2s0.5-1.1,0.9-1.4
				c0.4-0.4,0.9-0.7,1.4-0.9c0.5-0.2,1.2-0.3,1.8-0.3c0.3,0,0.7,0,1,0s0.6,0.1,0.9,0.1v-4.3h1.8v12.9h-1.6l-0.1-1.1h-0.1
				C792.5,100.4,791.6,100.8,790.4,100.8z M790.9,99.4c0.3,0,0.6,0,0.9-0.1c0.3-0.1,0.5-0.2,0.7-0.4c0.2-0.2,0.4-0.4,0.5-0.6
				s0.2-0.5,0.2-0.8v-4.2c-0.3-0.1-0.6-0.1-0.9-0.1c-0.3,0-0.7,0-1,0c-0.9,0-1.5,0.2-2,0.7c-0.4,0.5-0.6,1.3-0.6,2.5
				c0,1.1,0.2,1.9,0.5,2.4C789.5,99.2,790.1,99.4,790.9,99.4z"/>
			<path class="st5" d="M800.9,100.8c-1.4,0-2.4-0.4-3.1-1.1c-0.7-0.7-1-1.8-1-3.3s0.3-2.6,1-3.4s1.7-1.2,3-1.2
				c2.3,0,3.5,1.3,3.5,3.9c0,0.5,0,0.9-0.1,1.2h-5.6c0.1,0.9,0.3,1.5,0.7,1.9s1,0.6,1.9,0.6c0.4,0,0.9,0,1.4-0.1s1-0.2,1.4-0.3
				l0.1,1.3c-0.4,0.2-0.9,0.3-1.5,0.4C801.9,100.8,801.4,100.8,800.9,100.8z M800.7,93.2c-0.7,0-1.2,0.2-1.6,0.6s-0.6,1.1-0.6,2h4.1
				c0-0.9-0.2-1.6-0.5-2C801.9,93.4,801.4,93.2,800.7,93.2z"/>
			<path class="st5" d="M809.6,100.8c-0.9,0-1.5-0.2-2-0.6c-0.4-0.4-0.7-1.1-0.7-1.9v-4.7h-1.7V92h1.8l0.3-2.3l1.4-0.2V92h2.4v1.5
				h-2.4v4.3c0,0.5,0.1,0.9,0.3,1.1s0.6,0.4,1.1,0.4c0.1,0,0.3,0,0.5,0s0.4-0.1,0.6-0.1v1.4c-0.2,0.1-0.5,0.1-0.8,0.2
				C810.1,100.8,809.8,100.8,809.6,100.8z"/>
			<path class="st5" d="M816.4,100.8c-1.4,0-2.4-0.4-3.1-1.1c-0.7-0.7-1-1.8-1-3.3s0.3-2.6,1-3.4s1.7-1.2,3-1.2
				c2.3,0,3.5,1.3,3.5,3.9c0,0.5,0,0.9-0.1,1.2H814c0.1,0.9,0.3,1.5,0.7,1.9s1,0.6,1.9,0.6c0.4,0,0.9,0,1.4-0.1s1-0.2,1.4-0.3
				l0.1,1.3c-0.4,0.2-0.9,0.3-1.5,0.4C817.4,100.8,816.9,100.8,816.4,100.8z M816.3,93.2c-0.7,0-1.2,0.2-1.6,0.6s-0.6,1.1-0.6,2h4.1
				c0-0.9-0.2-1.6-0.5-2C817.4,93.4,816.9,93.2,816.3,93.2z"/>
			<path class="st5" d="M825.4,100.8c-2.8,0-4.2-1.5-4.2-4.4c0-3,1.4-4.5,4.2-4.5c0.4,0,0.7,0,1.1,0.1c0.4,0,0.8,0.1,1.1,0.2v1.5
				c-0.3-0.1-0.7-0.1-1-0.2c-0.3,0-0.7-0.1-1-0.1c-0.9,0-1.6,0.2-2,0.7s-0.6,1.2-0.6,2.3c0,1,0.2,1.8,0.6,2.3c0.4,0.5,1.1,0.7,2,0.7
				c0.4,0,0.7,0,1.1,0c0.3,0,0.6-0.1,1-0.2v1.4c-0.3,0.1-0.6,0.1-1,0.2C826.2,100.8,825.8,100.8,825.4,100.8z"/>
			<path class="st5" d="M832.9,100.8c-0.9,0-1.5-0.2-2-0.6c-0.4-0.4-0.7-1.1-0.7-1.9v-4.7h-1.7V92h1.8l0.3-2.3l1.4-0.2V92h2.4v1.5
				H832v4.3c0,0.5,0.1,0.9,0.3,1.1s0.6,0.4,1.1,0.4c0.1,0,0.3,0,0.5,0s0.4-0.1,0.6-0.1v1.4c-0.2,0.1-0.5,0.1-0.8,0.2
				C833.5,100.8,833.2,100.8,832.9,100.8z"/>
			<path class="st5" d="M839.7,100.8c-1.4,0-2.4-0.4-3.1-1.1c-0.7-0.7-1-1.8-1-3.3s0.3-2.6,1-3.4s1.7-1.2,3-1.2
				c2.3,0,3.5,1.3,3.5,3.9c0,0.5,0,0.9-0.1,1.2h-5.6c0.1,0.9,0.3,1.5,0.7,1.9s1,0.6,1.9,0.6c0.4,0,0.9,0,1.4-0.1s1-0.2,1.4-0.3
				l0.1,1.3c-0.4,0.2-0.9,0.3-1.5,0.4C840.8,100.8,840.3,100.8,839.7,100.8z M839.6,93.2c-0.7,0-1.2,0.2-1.6,0.6s-0.6,1.1-0.6,2h4.1
				c0-0.9-0.2-1.6-0.5-2C840.7,93.4,840.3,93.2,839.6,93.2z"/>
			<path class="st5" d="M848.1,100.8c-1.2,0-2.1-0.4-2.7-1.1s-0.9-1.8-0.9-3.3c0-0.8,0.1-1.4,0.3-2s0.5-1.1,0.9-1.4
				c0.4-0.4,0.9-0.7,1.4-0.9c0.5-0.2,1.2-0.3,1.8-0.3c0.3,0,0.7,0,1,0s0.6,0.1,0.9,0.1v-4.3h1.8v12.9H851l-0.1-1.1h-0.1
				C850.2,100.4,849.3,100.8,848.1,100.8z M848.6,99.4c0.3,0,0.6,0,0.9-0.1c0.3-0.1,0.5-0.2,0.7-0.4c0.2-0.2,0.4-0.4,0.5-0.6
				s0.2-0.5,0.2-0.8v-4.2c-0.3-0.1-0.6-0.1-0.9-0.1c-0.3,0-0.7,0-1,0c-0.9,0-1.5,0.2-2,0.7c-0.4,0.5-0.6,1.3-0.6,2.5
				c0,1.1,0.2,1.9,0.5,2.4C847.2,99.2,847.8,99.4,848.6,99.4z"/>
		</g>
	</g>
	<g>
		
			<rect x="1172.1" y="222.9" transform="matrix(0.7071 -0.7071 0.7071 0.7071 157.6981 961.5839)" class="st4" width="135" height="135"/>
		<path class="st0" d="M1239.6,196.4l94,94.1l-94,94l-94-94L1239.6,196.4 M1239.6,195l-95.5,95.4l95.5,95.5l95.5-95.5L1239.6,195
			L1239.6,195z"/>
		<g>
			<path class="st5" d="M1174.1,295.8c-0.6,0-1.2,0-1.9-0.1c-0.7-0.1-1.4-0.2-2-0.4v-1.5c0.7,0.2,1.3,0.3,2,0.4s1.3,0.1,1.8,0.1
				c1.8,0,2.7-0.6,2.7-1.8c0-0.3-0.1-0.6-0.2-0.8c-0.1-0.2-0.3-0.4-0.5-0.6s-0.5-0.3-0.8-0.4s-0.7-0.2-1-0.3
				c-0.6-0.2-1.2-0.3-1.6-0.5c-0.5-0.2-0.8-0.4-1.1-0.7c-0.3-0.3-0.5-0.6-0.7-1c-0.1-0.4-0.2-0.8-0.2-1.3s0.1-1,0.3-1.4
				c0.2-0.4,0.5-0.8,0.8-1c0.4-0.3,0.8-0.5,1.3-0.7s1.1-0.2,1.8-0.2c0.5,0,1,0,1.5,0.1s1.1,0.2,1.8,0.3v1.5c-0.5-0.1-1-0.2-1.6-0.3
				s-1.1-0.1-1.5-0.1c-0.8,0-1.4,0.2-1.9,0.5c-0.4,0.3-0.7,0.8-0.7,1.3s0.2,1,0.6,1.3s1.1,0.6,2,0.8c0.6,0.1,1.1,0.3,1.5,0.5
				s0.8,0.4,1.2,0.7s0.6,0.6,0.7,1s0.3,0.8,0.3,1.4c0,1.1-0.4,1.9-1.1,2.5C1176.7,295.5,1175.6,295.8,1174.1,295.8z"/>
			<path class="st5" d="M1184,295.8c-1.4,0-2.4-0.4-3.1-1.1s-1-1.8-1-3.3s0.3-2.6,1-3.4s1.7-1.2,3-1.2c2.3,0,3.5,1.3,3.5,3.9
				c0,0.5,0,0.9-0.1,1.2h-5.6c0.1,0.9,0.3,1.5,0.7,1.9c0.4,0.4,1,0.6,1.9,0.6c0.4,0,0.9,0,1.4-0.1s1-0.2,1.4-0.3l0.1,1.3
				c-0.4,0.2-0.9,0.3-1.5,0.4C1185,295.7,1184.5,295.8,1184,295.8z M1183.8,288.1c-0.7,0-1.2,0.2-1.6,0.6s-0.6,1.1-0.6,2h4.1
				c0-0.9-0.2-1.6-0.5-2C1185,288.3,1184.5,288.1,1183.8,288.1z"/>
			<path class="st5" d="M1189.2,287h1.5l0.1,1h0.1c0.8-0.4,1.5-0.7,2.1-0.9c0.6-0.2,1.1-0.3,1.6-0.3c0.7,0,1.3,0.2,1.7,0.6
				c0.4,0.4,0.6,1,0.6,1.8v6.4h-1.8v-5.8c0-0.5-0.1-0.9-0.3-1.2c-0.2-0.2-0.5-0.4-1-0.4c-0.4,0-0.8,0.1-1.3,0.2
				c-0.5,0.2-1,0.4-1.6,0.6v6.5h-1.8V287H1189.2z"/>
			<path class="st5" d="M1200,285.3c-0.4,0-0.6-0.1-0.8-0.2c-0.2-0.2-0.2-0.4-0.2-0.8s0.1-0.6,0.2-0.8c0.2-0.2,0.4-0.2,0.8-0.2
				s0.6,0.1,0.8,0.3c0.2,0.2,0.2,0.4,0.2,0.8s-0.1,0.6-0.2,0.8C1200.6,285.3,1200.4,285.3,1200,285.3z M1199.1,287h1.8v8.6h-1.8V287
				z"/>
			<path class="st5" d="M1206.9,295.8c-1.4,0-2.4-0.4-3.1-1.1c-0.7-0.8-1.1-1.9-1.1-3.3s0.4-2.6,1.1-3.3c0.7-0.8,1.8-1.1,3.1-1.1
				s2.4,0.4,3.1,1.1s1.1,1.9,1.1,3.3s-0.4,2.6-1.1,3.3S1208.3,295.8,1206.9,295.8z M1206.9,294.4c0.8,0,1.4-0.2,1.8-0.7
				s0.6-1.3,0.6-2.3c0-1.1-0.2-1.9-0.6-2.3s-1-0.7-1.8-0.7s-1.4,0.2-1.8,0.7s-0.6,1.3-0.6,2.3c0,1.1,0.2,1.9,0.6,2.3
				S1206.1,294.4,1206.9,294.4z"/>
			<path class="st5" d="M1213,287h1.5l0.1,1.2h0.1c0.5-0.3,1.1-0.6,1.6-0.9c0.5-0.2,1-0.4,1.4-0.5h0.6v1.6h-0.6
				c-0.5,0.1-1,0.2-1.4,0.4c-0.5,0.2-0.9,0.4-1.4,0.6v6.2h-1.8L1213,287L1213,287z"/>
			<path class="st5" d="M1220.4,285.3c-0.4,0-0.6-0.1-0.8-0.2c-0.2-0.2-0.2-0.4-0.2-0.8s0.1-0.6,0.2-0.8c0.2-0.2,0.4-0.2,0.8-0.2
				s0.6,0.1,0.8,0.3c0.2,0.2,0.2,0.4,0.2,0.8s-0.1,0.6-0.2,0.8C1221.1,285.3,1220.8,285.3,1220.4,285.3z M1219.5,287h1.8v8.6h-1.8
				V287z"/>
			<path class="st5" d="M1227.1,295.8c-0.9,0-1.5-0.2-2-0.6c-0.4-0.4-0.7-1.1-0.7-1.9v-4.7h-1.7V287h1.8l0.3-2.3l1.4-0.2v2.4h2.4
				v1.5h-2.4v4.3c0,0.5,0.1,0.9,0.3,1.1c0.2,0.2,0.6,0.4,1.1,0.4c0.1,0,0.3,0,0.5,0s0.4-0.1,0.6-0.1v1.4c-0.2,0.1-0.5,0.1-0.8,0.2
				C1227.7,295.8,1227.4,295.8,1227.1,295.8z"/>
			<path class="st5" d="M1231.5,298.9v-0.2l1.3-3.2l-3.6-8.4V287h1.9l2.1,5.4l0.4,1.3h0.1l0.4-1.3l2.1-5.4h1.9v0.2l-5,12
				L1231.5,298.9z"/>
			<path class="st5" d="M1246.4,295.8c-1.2,0-2.1-0.4-2.7-1.1s-0.9-1.8-0.9-3.3c0-0.8,0.1-1.4,0.3-2c0.2-0.6,0.5-1.1,0.9-1.4
				c0.4-0.4,0.9-0.7,1.4-0.9c0.5-0.2,1.2-0.3,1.8-0.3c0.3,0,0.7,0,1,0s0.6,0.1,0.9,0.1v-4.3h1.8v12.9h-1.6l-0.1-1.1h-0.1
				C1248.4,295.4,1247.6,295.8,1246.4,295.8z M1246.8,294.4c0.3,0,0.6,0,0.9-0.1s0.5-0.2,0.7-0.4c0.2-0.2,0.4-0.4,0.5-0.6
				s0.2-0.5,0.2-0.8v-4.2c-0.3-0.1-0.6-0.1-0.9-0.1s-0.7,0-1,0c-0.9,0-1.5,0.2-2,0.7c-0.4,0.5-0.6,1.3-0.6,2.5
				c0,1.1,0.2,1.9,0.5,2.4C1245.5,294.2,1246,294.4,1246.8,294.4z"/>
			<path class="st5" d="M1256.8,295.8c-1.4,0-2.4-0.4-3.1-1.1s-1-1.8-1-3.3s0.3-2.6,1-3.4s1.7-1.2,3-1.2c2.3,0,3.5,1.3,3.5,3.9
				c0,0.5,0,0.9-0.1,1.2h-5.6c0.1,0.9,0.3,1.5,0.7,1.9c0.4,0.4,1,0.6,1.9,0.6c0.4,0,0.9,0,1.4-0.1s1-0.2,1.4-0.3l0.1,1.3
				c-0.4,0.2-0.9,0.3-1.5,0.4C1257.9,295.7,1257.3,295.8,1256.8,295.8z M1256.7,288.1c-0.7,0-1.2,0.2-1.6,0.6s-0.6,1.1-0.6,2h4.1
				c0-0.9-0.2-1.6-0.5-2C1257.8,288.3,1257.4,288.1,1256.7,288.1z"/>
			<path class="st5" d="M1265.5,295.8c-0.9,0-1.5-0.2-2-0.6c-0.4-0.4-0.7-1.1-0.7-1.9v-4.7h-1.7V287h1.8l0.3-2.3l1.4-0.2v2.4h2.4
				v1.5h-2.4v4.3c0,0.5,0.1,0.9,0.3,1.1c0.2,0.2,0.6,0.4,1.1,0.4c0.1,0,0.3,0,0.5,0s0.4-0.1,0.6-0.1v1.4c-0.2,0.1-0.5,0.1-0.8,0.2
				C1266.1,295.8,1265.8,295.8,1265.5,295.8z"/>
			<path class="st5" d="M1272.4,295.8c-1.4,0-2.4-0.4-3.1-1.1s-1-1.8-1-3.3s0.3-2.6,1-3.4s1.7-1.2,3-1.2c2.3,0,3.5,1.3,3.5,3.9
				c0,0.5,0,0.9-0.1,1.2h-5.6c0.1,0.9,0.3,1.5,0.7,1.9c0.4,0.4,1,0.6,1.9,0.6c0.4,0,0.9,0,1.4-0.1s1-0.2,1.4-0.3l0.1,1.3
				c-0.4,0.2-0.9,0.3-1.5,0.4C1273.4,295.7,1272.9,295.8,1272.4,295.8z M1272.2,288.1c-0.7,0-1.2,0.2-1.6,0.6s-0.6,1.1-0.6,2h4.1
				c0-0.9-0.2-1.6-0.5-2C1273.4,288.3,1272.9,288.1,1272.2,288.1z"/>
			<path class="st5" d="M1281.3,295.8c-2.8,0-4.2-1.5-4.2-4.4c0-3,1.4-4.5,4.2-4.5c0.4,0,0.7,0,1.1,0.1c0.4,0,0.8,0.1,1.1,0.2v1.5
				c-0.3-0.1-0.7-0.1-1-0.2c-0.3,0-0.7-0.1-1-0.1c-0.9,0-1.6,0.2-2,0.7s-0.6,1.2-0.6,2.3c0,1,0.2,1.8,0.6,2.3s1.1,0.7,2,0.7
				c0.4,0,0.7,0,1.1,0c0.3,0,0.6-0.1,1-0.2v1.4c-0.3,0.1-0.6,0.1-1,0.2C1282.1,295.7,1281.7,295.8,1281.3,295.8z"/>
			<path class="st5" d="M1288.9,295.8c-0.9,0-1.5-0.2-2-0.6c-0.4-0.4-0.7-1.1-0.7-1.9v-4.7h-1.7V287h1.8l0.3-2.3l1.4-0.2v2.4h2.4
				v1.5h-2.4v4.3c0,0.5,0.1,0.9,0.3,1.1c0.2,0.2,0.6,0.4,1.1,0.4c0.1,0,0.3,0,0.5,0s0.4-0.1,0.6-0.1v1.4c-0.2,0.1-0.5,0.1-0.8,0.2
				C1289.4,295.8,1289.1,295.8,1288.9,295.8z"/>
			<path class="st5" d="M1295.7,295.8c-1.4,0-2.4-0.4-3.1-1.1s-1-1.8-1-3.3s0.3-2.6,1-3.4s1.7-1.2,3-1.2c2.3,0,3.5,1.3,3.5,3.9
				c0,0.5,0,0.9-0.1,1.2h-5.6c0.1,0.9,0.3,1.5,0.7,1.9c0.4,0.4,1,0.6,1.9,0.6c0.4,0,0.9,0,1.4-0.1s1-0.2,1.4-0.3l0.1,1.3
				c-0.4,0.2-0.9,0.3-1.5,0.4C1296.8,295.7,1296.2,295.8,1295.7,295.8z M1295.6,288.1c-0.7,0-1.2,0.2-1.6,0.6s-0.6,1.1-0.6,2h4.1
				c0-0.9-0.2-1.6-0.5-2C1296.7,288.3,1296.2,288.1,1295.6,288.1z"/>
			<path class="st5" d="M1304.1,295.8c-1.2,0-2.1-0.4-2.7-1.1s-0.9-1.8-0.9-3.3c0-0.8,0.1-1.4,0.3-2c0.2-0.6,0.5-1.1,0.9-1.4
				c0.4-0.4,0.9-0.7,1.4-0.9c0.5-0.2,1.2-0.3,1.8-0.3c0.3,0,0.7,0,1,0s0.6,0.1,0.9,0.1v-4.3h1.8v12.9h-1.6l-0.1-1.1h-0.1
				C1306.2,295.4,1305.3,295.8,1304.1,295.8z M1304.5,294.4c0.3,0,0.6,0,0.9-0.1s0.5-0.2,0.7-0.4c0.2-0.2,0.4-0.4,0.5-0.6
				s0.2-0.5,0.2-0.8v-4.2c-0.3-0.1-0.6-0.1-0.9-0.1s-0.7,0-1,0c-0.9,0-1.5,0.2-2,0.7c-0.4,0.5-0.6,1.3-0.6,2.5
				c0,1.1,0.2,1.9,0.5,2.4C1303.2,294.2,1303.8,294.4,1304.5,294.4z"/>
		</g>
	</g>
	<g>
		<rect x="457.5" y="449.8" class="st0" width="1" height="47.1"/>
		<polygon class="st0" points="453,495.5 458,504.1 463,495.5 		"/>
	</g>
	<rect x="796.5" y="449.8" class="st0" width="1" height="73.5"/>
	<rect x="502.7" y="522.4" class="st0" width="294.8" height="1"/>
	<polygon class="st0" points="502.7,517.9 494,522.9 502.7,527.9 	"/>
	<g>
		<rect x="1026.6" y="449.8" class="st0" width="1" height="96.5"/>
		<rect x="502.7" y="545.4" class="st0" width="524.9" height="1"/>
		<polygon class="st0" points="502.7,540.9 494,545.9 502.7,550.9 		"/>
	</g>
	<polygon class="st0" points="453,351.2 458,359.8 463,351.2 	"/>
	<g>
		<rect x="1203.6" y="68.4" class="st3" width="72" height="54"/>
		<path class="st2" d="M1228.9,88h1.4l6.8,9.3l1,1.6h0.1V88h1.5v13.3h-1.4l-6.8-9.3l-1-1.6h-0.1v10.8h-1.5V88z"/>
		<path class="st2" d="M1246.6,101.5c-1.3,0.1-2.5-0.4-3.3-1.3c-1.5-2.3-1.5-5.2,0-7.5c1.9-1.7,4.8-1.7,6.7,0c1.5,2.3,1.5,5.2,0,7.5
			C1249.1,101.1,1247.9,101.6,1246.6,101.5z M1246.6,100.2c0.8,0.1,1.7-0.3,2.2-0.9c0.9-1.8,0.9-3.9,0-5.7c-1.2-1.2-3.2-1.2-4.4,0
			c-0.9,1.8-0.9,3.9,0,5.7C1244.9,99.9,1245.8,100.3,1246.6,100.2L1246.6,100.2z"/>
	</g>
	<rect x="1063.1" y="289.9" class="st0" width="82.5" height="1"/>
	<g>
		<g>
			<rect x="761" y="213" class="st0" width="72" height="54"/>
			<path class="st2" d="M787.8,241.4l-4.9-8.9h1.7l3.3,6.2l0.5,1.2h0.2l0.5-1.2l3.4-6.2h1.7l-4.8,8.8v4.5h-1.6L787.8,241.4z"/>
			<path class="st2" d="M798.2,246c-1.2,0.1-2.5-0.4-3.4-1.2c-0.8-1-1.2-2.3-1.1-3.7c-0.1-1.4,0.3-2.7,1.1-3.8
				c0.8-0.9,2-1.4,3.3-1.3c2.5,0,3.7,1.4,3.7,4.3c0,0.4,0,0.8-0.1,1.3h-6.4c0,0.9,0.3,1.8,0.8,2.4c0.6,0.5,1.4,0.8,2.3,0.7
				c0.5,0,1,0,1.5-0.1s1-0.2,1.5-0.4l0.1,1.2c-0.5,0.2-1,0.3-1.6,0.4C799.4,245.9,798.8,246,798.2,246z M798.1,237.2
				c-1.7,0-2.7,1.1-2.8,3.3h5.1c0.1-0.9-0.1-1.7-0.6-2.5C799.4,237.4,798.8,237.1,798.1,237.2z"/>
			<path class="st2" d="M806.8,246c-0.5,0-0.9,0-1.4-0.1s-1.1-0.2-1.9-0.3v-1.3c0.6,0.1,1.2,0.3,1.7,0.4c0.5,0.1,1,0.1,1.5,0.1
				c0.6,0,1.1-0.1,1.6-0.4c0.4-0.3,0.6-0.7,0.5-1.2c0-0.2,0-0.5-0.1-0.7s-0.2-0.4-0.4-0.5s-0.4-0.2-0.7-0.3s-0.5-0.2-0.8-0.2
				l-1.1-0.2c-0.4-0.1-0.7-0.2-1-0.4s-0.6-0.5-0.8-0.8c-0.2-0.4-0.3-0.9-0.3-1.4c0-0.8,0.4-1.5,1-2c0.8-0.5,1.7-0.8,2.6-0.7
				c0.2,0,0.4,0,0.6,0l0.6,0.1l0.7,0.1l0.9,0.2l-0.2,1.3c-0.6-0.1-1.1-0.2-1.5-0.3s-0.8-0.1-1.1-0.1c-1.5,0-2.2,0.5-2.2,1.5
				c0,0.2,0,0.5,0.2,0.7c0.1,0.2,0.3,0.3,0.5,0.5c0.2,0.1,0.5,0.2,0.7,0.3c0.3,0.1,0.6,0.1,0.9,0.2c0.4,0.1,0.8,0.2,1.2,0.3
				s0.7,0.3,1,0.5s0.5,0.5,0.6,0.8c0.2,0.4,0.2,0.8,0.2,1.2c0,0.8-0.3,1.6-1,2.1C808.7,245.8,807.7,246.1,806.8,246z"/>
		</g>
		<rect x="796.5" y="190.1" class="st0" width="1" height="15.6"/>
		<polygon class="st0" points="792,204.3 797,213 802,204.3 		"/>
		<rect x="796.7" y="267" class="st0" width="1" height="84.2"/>
		<g>
			<rect x="693.7" y="359.8" class="st4" width="207" height="90"/>
			<path class="st0" d="M899.7,360.8v88h-205v-88H899.7 M900.7,359.8h-207v90h207V359.8z"/>
			<g>
				<path class="st5" d="M713.1,410.2c-0.6,0-1.2,0-1.9-0.1s-1.4-0.2-2-0.4v-1.5c0.7,0.2,1.3,0.3,2,0.4s1.3,0.1,1.8,0.1
					c1.8,0,2.7-0.6,2.7-1.8c0-0.3-0.1-0.6-0.2-0.8s-0.3-0.4-0.5-0.6s-0.5-0.3-0.8-0.4c-0.3-0.1-0.7-0.2-1-0.3
					c-0.6-0.2-1.2-0.3-1.6-0.5c-0.5-0.2-0.8-0.4-1.1-0.7c-0.3-0.3-0.5-0.6-0.7-1c-0.1-0.4-0.2-0.8-0.2-1.3c0-0.5,0.1-1,0.3-1.4
					c0.2-0.4,0.5-0.8,0.8-1s0.8-0.5,1.3-0.7c0.5-0.2,1.1-0.2,1.8-0.2c0.5,0,1,0,1.5,0.1c0.5,0.1,1.1,0.2,1.8,0.3v1.5
					c-0.5-0.1-1-0.2-1.6-0.3c-0.6-0.1-1.1-0.1-1.5-0.1c-0.8,0-1.4,0.2-1.9,0.5c-0.4,0.3-0.7,0.8-0.7,1.3c0,0.5,0.2,1,0.6,1.3
					s1.1,0.6,2,0.8c0.6,0.1,1.1,0.3,1.5,0.5c0.4,0.2,0.8,0.4,1.2,0.7c0.3,0.3,0.6,0.6,0.7,1c0.2,0.4,0.3,0.8,0.3,1.4
					c0,1.1-0.4,1.9-1.1,2.5C715.6,409.9,714.6,410.2,713.1,410.2z"/>
				<path class="st5" d="M719.2,397.1h1.8v5.2c0.8-0.4,1.5-0.7,2-0.8c0.6-0.2,1.1-0.3,1.6-0.3c0.7,0,1.3,0.2,1.7,0.6
					c0.4,0.4,0.6,1,0.6,1.8v6.4h-1.8v-5.8c0-0.5-0.1-0.9-0.3-1.2c-0.2-0.2-0.5-0.4-1-0.4c-0.4,0-0.8,0.1-1.3,0.2
					c-0.5,0.2-1,0.4-1.6,0.6v6.5h-1.8V397.1z"/>
				<path class="st5" d="M732.9,410.2c-1.4,0-2.4-0.4-3.1-1.1c-0.7-0.8-1.1-1.9-1.1-3.3c0-1.5,0.4-2.6,1.1-3.3
					c0.7-0.8,1.8-1.1,3.1-1.1s2.4,0.4,3.1,1.1s1.1,1.9,1.1,3.3c0,1.5-0.4,2.6-1.1,3.3S734.3,410.2,732.9,410.2z M732.9,408.7
					c0.8,0,1.4-0.2,1.8-0.7s0.6-1.3,0.6-2.3s-0.2-1.9-0.6-2.3s-1-0.7-1.8-0.7s-1.4,0.2-1.8,0.7s-0.6,1.3-0.6,2.3s0.2,1.9,0.6,2.3
					S732.1,408.7,732.9,408.7z"/>
				<path class="st5" d="M738.1,401.5L738.1,401.5l1.7-0.1l1.4,5.7l0.3,1.2h0.1l0.3-1.2l1.6-5.7h1.6l1.6,5.7l0.3,1.2h0.1l0.3-1.2
					l1.3-5.7h1.7v0.1l-2.3,8.5h-2l-1.6-5.4l-0.2-1.1h-0.1l-0.2,1.1l-1.5,5.4h-2L738.1,401.5z"/>
				<path class="st5" d="M757.4,410.1c-0.8,0-1.4-0.2-1.8-0.6c-0.4-0.4-0.6-1-0.6-1.7c0-0.8,0.3-1.5,0.8-1.9
					c0.5-0.4,1.4-0.7,2.5-0.8l2-0.2v-0.5c0-0.4,0-0.6-0.1-0.9s-0.2-0.4-0.3-0.6c-0.2-0.1-0.4-0.2-0.6-0.3s-0.6-0.1-1-0.1
					c-0.4,0-0.8,0-1.2,0.1s-0.9,0.1-1.4,0.2l-0.1-1.3c1.1-0.2,2.1-0.3,3.1-0.3c1.2,0,2.1,0.2,2.6,0.7s0.9,1.2,0.9,2.2v5.9h-1.5
					l-0.2-1.1h-0.1c-0.5,0.4-1,0.7-1.5,0.9S757.9,410.1,757.4,410.1z M758.1,408.8c0.4,0,0.7-0.1,1.1-0.2c0.4-0.2,0.8-0.4,1.1-0.6
					v-2l-1.5,0.1c-0.7,0.1-1.3,0.2-1.6,0.4c-0.3,0.2-0.4,0.6-0.4,1.1C756.8,408.4,757.2,408.8,758.1,408.8z"/>
				<path class="st5" d="M767.5,410.2c-1.2,0-2.1-0.4-2.7-1.1c-0.6-0.7-0.9-1.8-0.9-3.3c0-0.8,0.1-1.4,0.3-2
					c0.2-0.6,0.5-1.1,0.9-1.4c0.4-0.4,0.9-0.7,1.4-0.9c0.5-0.2,1.2-0.3,1.8-0.3c0.3,0,0.7,0,1,0c0.3,0,0.6,0.1,0.9,0.1v-4.3h1.8V410
					h-1.6l-0.1-1.1h-0.1C769.6,409.8,768.7,410.2,767.5,410.2z M768,408.8c0.3,0,0.6,0,0.9-0.1c0.3-0.1,0.5-0.2,0.7-0.4
					c0.2-0.2,0.4-0.4,0.5-0.6c0.1-0.2,0.2-0.5,0.2-0.8v-4.2c-0.3-0.1-0.6-0.1-0.9-0.1c-0.3,0-0.7,0-1,0c-0.9,0-1.5,0.2-2,0.7
					s-0.6,1.3-0.6,2.5c0,1.1,0.2,1.9,0.5,2.4C766.6,408.5,767.2,408.8,768,408.8z"/>
				<path class="st5" d="M776.5,410.2c-0.8,0-1.3-0.2-1.7-0.6c-0.4-0.4-0.6-1-0.6-1.8v-6.4h1.8v5.9c0,0.5,0.1,0.9,0.3,1.1
					c0.2,0.2,0.5,0.3,1,0.3c0.5,0,0.9-0.1,1.4-0.3c0.5-0.2,1-0.4,1.5-0.6v-6.4h1.8v8.6h-1.5l-0.1-1h-0.1c-0.4,0.2-0.8,0.4-1.1,0.5
					c-0.3,0.1-0.6,0.3-0.9,0.4c-0.3,0.1-0.6,0.2-0.8,0.2C777.1,410.1,776.8,410.2,776.5,410.2z"/>
				<path class="st5" d="M784.2,397.1h1.8V410h-1.8V397.1z"/>
				<path class="st5" d="M791.8,410.2c-0.9,0-1.5-0.2-2-0.6c-0.4-0.4-0.7-1.1-0.7-1.9v-4.7h-1.7v-1.5h1.8l0.3-2.3l1.4-0.2v2.4h2.4
					v1.5H791v4.3c0,0.5,0.1,0.9,0.3,1.1c0.2,0.2,0.6,0.4,1.1,0.4c0.1,0,0.3,0,0.5,0c0.2,0,0.4-0.1,0.6-0.1v1.4
					c-0.2,0.1-0.5,0.1-0.8,0.2S792.1,410.2,791.8,410.2z"/>
				<path class="st5" d="M798.6,401.4h1.5l0.1,1.2h0.1c0.5-0.3,1.1-0.6,1.6-0.9s1-0.4,1.4-0.5h0.6v1.6h-0.6c-0.5,0.1-1,0.2-1.4,0.4
					s-0.9,0.4-1.4,0.6v6.2h-1.8V401.4z"/>
				<path class="st5" d="M808.9,410.1c-1.4,0-2.4-0.4-3.1-1.1c-0.7-0.7-1-1.8-1-3.3c0-1.5,0.3-2.6,1-3.4c0.7-0.8,1.7-1.2,3-1.2
					c2.3,0,3.5,1.3,3.5,3.9c0,0.5,0,0.9-0.1,1.2h-5.6c0.1,0.9,0.3,1.5,0.7,1.9s1,0.6,1.9,0.6c0.4,0,0.9,0,1.4-0.1
					c0.5-0.1,1-0.2,1.4-0.3l0.1,1.3c-0.4,0.2-0.9,0.3-1.5,0.4C809.9,410.1,809.4,410.1,808.9,410.1z M808.7,402.5
					c-0.7,0-1.2,0.2-1.6,0.6c-0.4,0.4-0.6,1.1-0.6,2h4.1c0-0.9-0.2-1.6-0.5-2C809.9,402.7,809.4,402.5,808.7,402.5z"/>
				<path class="st5" d="M814.1,397.1h1.8V410h-1.8V397.1z"/>
				<path class="st5" d="M820,410.1c-0.8,0-1.4-0.2-1.8-0.6c-0.4-0.4-0.6-1-0.6-1.7c0-0.8,0.3-1.5,0.8-1.9s1.4-0.7,2.5-0.8l2-0.2
					v-0.5c0-0.4,0-0.6-0.1-0.9s-0.2-0.4-0.3-0.6c-0.2-0.1-0.4-0.2-0.6-0.3s-0.6-0.1-1-0.1c-0.4,0-0.8,0-1.2,0.1
					c-0.4,0-0.9,0.1-1.4,0.2l-0.1-1.3c1.1-0.2,2.1-0.3,3.1-0.3c1.2,0,2.1,0.2,2.6,0.7c0.6,0.5,0.9,1.2,0.9,2.2v5.9h-1.5l-0.2-1.1
					H823c-0.5,0.4-1,0.7-1.5,0.9C821,410,820.5,410.1,820,410.1z M820.7,408.8c0.4,0,0.7-0.1,1.1-0.2c0.4-0.2,0.8-0.4,1.1-0.6v-2
					l-1.5,0.1c-0.7,0.1-1.3,0.2-1.6,0.4c-0.3,0.2-0.4,0.6-0.4,1.1C819.5,408.4,819.9,408.8,820.7,408.8z"/>
				<path class="st5" d="M830.5,410.2c-0.9,0-1.5-0.2-2-0.6c-0.4-0.4-0.7-1.1-0.7-1.9v-4.7h-1.7v-1.5h1.8l0.3-2.3l1.4-0.2v2.4h2.4
					v1.5h-2.4v4.3c0,0.5,0.1,0.9,0.3,1.1c0.2,0.2,0.6,0.4,1.1,0.4c0.1,0,0.3,0,0.5,0c0.2,0,0.4-0.1,0.6-0.1v1.4
					c-0.2,0.1-0.5,0.1-0.8,0.2S830.8,410.2,830.5,410.2z"/>
				<path class="st5" d="M837.3,410.1c-1.4,0-2.4-0.4-3.1-1.1c-0.7-0.7-1-1.8-1-3.3c0-1.5,0.3-2.6,1-3.4c0.7-0.8,1.7-1.2,3-1.2
					c2.3,0,3.5,1.3,3.5,3.9c0,0.5,0,0.9-0.1,1.2H835c0.1,0.9,0.3,1.5,0.7,1.9s1,0.6,1.9,0.6c0.4,0,0.9,0,1.4-0.1
					c0.5-0.1,1-0.2,1.4-0.3l0.1,1.3c-0.4,0.2-0.9,0.3-1.5,0.4C838.4,410.1,837.8,410.1,837.3,410.1z M837.2,402.5
					c-0.7,0-1.2,0.2-1.6,0.6c-0.4,0.4-0.6,1.1-0.6,2h4.1c0-0.9-0.2-1.6-0.5-2C838.3,402.7,837.8,402.5,837.2,402.5z"/>
				<path class="st5" d="M845.7,410.2c-1.2,0-2.1-0.4-2.7-1.1c-0.6-0.7-0.9-1.8-0.9-3.3c0-0.8,0.1-1.4,0.3-2
					c0.2-0.6,0.5-1.1,0.9-1.4c0.4-0.4,0.9-0.7,1.4-0.9c0.5-0.2,1.2-0.3,1.8-0.3c0.3,0,0.7,0,1,0c0.3,0,0.6,0.1,0.9,0.1v-4.3h1.8V410
					h-1.6l-0.1-1.1h-0.1C847.8,409.8,846.9,410.2,845.7,410.2z M846.2,408.8c0.3,0,0.6,0,0.9-0.1c0.3-0.1,0.5-0.2,0.7-0.4
					c0.2-0.2,0.4-0.4,0.5-0.6c0.1-0.2,0.2-0.5,0.2-0.8v-4.2c-0.3-0.1-0.6-0.1-0.9-0.1c-0.3,0-0.7,0-1,0c-0.9,0-1.5,0.2-2,0.7
					s-0.6,1.3-0.6,2.5c0,1.1,0.2,1.9,0.5,2.4C844.8,408.5,845.4,408.8,846.2,408.8z"/>
				<path class="st5" d="M855,409.9l4.1-11.7h2.7l4.1,11.7v0.1h-1.8l-1.2-3.3H858l-1.2,3.3H855V409.9z M862.6,405.2l-1.3-3.6
					l-0.7-2.1h-0.2l-0.7,2.1l-1.3,3.6H862.6z"/>
				<path class="st5" d="M870.6,410.2c-0.6,0-1.2,0-1.8-0.1c-0.6,0-1-0.1-1.3-0.2v-11.8c0.6-0.1,1.3-0.1,1.9-0.1c0.6,0,1.2,0,1.6,0
					c2.2,0,3.7,0.5,4.7,1.5c1,1,1.5,2.5,1.5,4.6c0,1.1-0.1,2-0.4,2.8c-0.3,0.8-0.7,1.4-1.2,1.9s-1.2,0.9-2.1,1.1
					C872.8,410.1,871.8,410.2,870.6,410.2z M871.2,408.7c0.7,0,1.4-0.1,1.9-0.3s1-0.4,1.3-0.8c0.3-0.4,0.6-0.8,0.7-1.4
					c0.2-0.6,0.2-1.3,0.2-2.1c0-0.8-0.1-1.5-0.2-2.1s-0.4-1-0.7-1.4s-0.8-0.6-1.3-0.8c-0.5-0.2-1.2-0.3-1.9-0.3c-0.3,0-0.6,0-0.9,0
					s-0.7,0-1,0.1v8.9c0.4,0.1,0.7,0.1,1,0.1C870.6,408.7,870.9,408.7,871.2,408.7z"/>
				<path class="st5" d="M881.8,410.2c-0.4,0-0.9,0-1.4-0.1c-0.5-0.1-1.1-0.2-1.7-0.3v-1.4c0.6,0.1,1.1,0.2,1.6,0.3s1,0.1,1.4,0.1
					c1.2,0,1.8-0.4,1.8-1.2c0-0.4-0.2-0.7-0.5-0.9c-0.3-0.2-0.7-0.3-1.2-0.4c-0.3-0.1-0.7-0.1-1-0.2s-0.7-0.2-1-0.4
					c-0.3-0.2-0.5-0.4-0.7-0.7c-0.2-0.3-0.3-0.7-0.3-1.3c0-0.8,0.3-1.4,0.9-1.9s1.4-0.7,2.5-0.7c0.2,0,0.4,0,0.6,0s0.4,0,0.6,0.1
					c0.2,0,0.4,0.1,0.7,0.1s0.5,0.1,0.9,0.2l-0.1,1.4c-0.6-0.1-1-0.2-1.4-0.3c-0.4-0.1-0.8-0.1-1.1-0.1c-0.6,0-1,0.1-1.3,0.3
					s-0.4,0.5-0.4,0.9c0,0.2,0,0.4,0.1,0.6c0.1,0.1,0.2,0.3,0.4,0.4s0.4,0.2,0.6,0.2c0.2,0.1,0.5,0.1,0.8,0.2
					c0.4,0.1,0.8,0.2,1.1,0.3c0.3,0.1,0.6,0.3,0.9,0.5c0.2,0.2,0.4,0.4,0.6,0.7c0.1,0.3,0.2,0.7,0.2,1.1c0,0.8-0.3,1.5-0.9,1.9
					C883.8,409.9,882.9,410.2,881.8,410.2z"/>
			</g>
		</g>
		<polygon class="st0" points="792.2,351.2 797.2,359.8 802.2,351.2 		"/>
	</g>
	<g>
		<circle class="st0" cx="458" cy="546.3" r="36"/>
		<path class="st2" d="M443.2,538.8h8.5v1.3h-6.9v4.6h6.4v1.4h-6.4v4.8h7v1.3h-8.6V538.8z"/>
		<path class="st2" d="M454,542.4h1.3l0.1,1.1h0.1l1.3-0.6c0.4-0.2,0.7-0.3,1.1-0.4c0.3-0.1,0.6-0.2,0.9-0.2s0.6-0.1,0.8-0.1
			c0.7,0,1.4,0.2,1.9,0.7s0.7,1.3,0.7,2v7.2h-1.6v-6.7c0-0.5-0.1-1-0.4-1.4c-0.3-0.3-0.8-0.5-1.2-0.4c-0.5,0-1.1,0.1-1.6,0.3
			c-0.7,0.2-1.3,0.5-1.9,0.8v7.5H454V542.4z"/>
		<path class="st2" d="M468.4,552.3c-1.1,0.1-2.2-0.4-3-1.2c-0.8-1.1-1.1-2.4-1-3.8c0-0.8,0.1-1.5,0.3-2.3c0.2-0.6,0.6-1.1,1-1.6
			c0.4-0.4,0.9-0.8,1.5-1s1.3-0.3,2-0.3c0.4,0,0.8,0,1.2,0.1l1.1,0.1v-4.8h1.5V552h-1.4l-0.1-1.2h-0.1
			C470.7,551.9,469.6,552.4,468.4,552.3z M468.8,551.1c0.3,0,0.7-0.1,1-0.2c0.3-0.1,0.6-0.2,0.9-0.4c0.2-0.2,0.5-0.4,0.6-0.7
			s0.2-0.6,0.2-0.9v-5.2c-0.4-0.1-0.7-0.1-1.1-0.1s-0.8-0.1-1.2-0.1c-0.9-0.1-1.8,0.3-2.4,0.9c-0.6,0.9-0.9,1.9-0.8,2.9
			c-0.1,1,0.1,2,0.7,2.9C467.2,550.8,468,551.2,468.8,551.1L468.8,551.1z"/>
	</g>
	<g>
		<rect x="1203.6" y="422.3" class="st0" width="72" height="54"/>
		<path class="st2" d="M1230.4,450.7l-4.9-8.9h1.7l3.3,6.2l0.5,1.2h0.2l0.5-1.2l3.4-6.2h1.7l-4.8,8.8v4.5h-1.6L1230.4,450.7z"/>
		<path class="st2" d="M1240.9,455.3c-1.2,0.1-2.5-0.4-3.4-1.2c-0.8-1-1.2-2.3-1.1-3.7c-0.1-1.4,0.3-2.7,1.1-3.8
			c0.8-0.9,2-1.4,3.3-1.3c2.5,0,3.7,1.4,3.7,4.3c0,0.4,0,0.8-0.1,1.3h-6.4c0,0.9,0.3,1.8,0.8,2.4c0.6,0.5,1.4,0.8,2.3,0.7
			c0.5,0,1,0,1.5-0.1s1-0.2,1.5-0.4l0.1,1.2c-0.5,0.2-1,0.3-1.6,0.4C1242,455.2,1241.4,455.3,1240.9,455.3z M1240.7,446.4
			c-1.7,0-2.7,1.1-2.8,3.3h5.1c0.1-0.9-0.1-1.7-0.6-2.5C1242,446.7,1241.4,446.4,1240.7,446.4z"/>
		<path class="st2" d="M1249.4,455.3c-0.5,0-0.9,0-1.4-0.1s-1.1-0.2-1.9-0.3v-1.3c0.6,0.1,1.2,0.3,1.7,0.4s1,0.1,1.5,0.1
			c0.6,0,1.1-0.1,1.6-0.4c0.4-0.3,0.6-0.7,0.5-1.2c0-0.2,0-0.5-0.1-0.7s-0.2-0.4-0.4-0.5c-0.2-0.1-0.4-0.2-0.7-0.3
			c-0.3-0.1-0.5-0.2-0.8-0.2l-1.1-0.2c-0.4-0.1-0.7-0.2-1-0.4c-0.3-0.2-0.6-0.5-0.8-0.8c-0.2-0.4-0.3-0.9-0.3-1.4c0-0.8,0.4-1.5,1-2
			c0.8-0.5,1.7-0.8,2.6-0.7c0.2,0,0.4,0,0.6,0l0.6,0.1l0.7,0.1l0.9,0.2l-0.2,1.3c-0.6-0.1-1.1-0.2-1.5-0.3c-0.4-0.1-0.8-0.1-1.1-0.1
			c-1.4,0-2.2,0.5-2.2,1.5c0,0.2,0,0.5,0.2,0.7c0.1,0.2,0.3,0.3,0.5,0.5c0.2,0.1,0.5,0.2,0.7,0.3c0.3,0.1,0.6,0.1,0.9,0.2
			c0.4,0.1,0.8,0.2,1.2,0.3c0.4,0.1,0.7,0.3,1,0.5s0.5,0.5,0.6,0.8c0.2,0.4,0.2,0.8,0.2,1.2c0,0.8-0.3,1.6-1,2.1
			C1251.3,455.1,1250.4,455.4,1249.4,455.3z"/>
	</g>
	<rect x="1026.6" y="289.3" class="st0" width="1" height="62.2"/>
	<polygon class="st0" points="1022.1,350.1 1027.1,358.7 1032.1,350.1 	"/>
	<rect x="923.6" y="358.7" class="st4" width="207" height="90"/>
	<path class="st0" d="M1129.6,359.7v88h-205v-88H1129.6 M1130.6,358.7h-207v90h207V358.7z"/>
	<g>
		<rect x="991.1" y="262.3" class="st3" width="72" height="54"/>
		<path class="st2" d="M1016.4,281.8h1.4l6.8,9.3l1,1.6h0.1v-10.9h1.5v13.3h-1.4l-6.9-9.3l-1-1.6h-0.1V295h-1.5L1016.4,281.8
			L1016.4,281.8z"/>
		<path class="st2" d="M1034.1,295.4c-1.3,0.1-2.5-0.4-3.3-1.3c-1.5-2.3-1.5-5.2,0-7.5c1.9-1.7,4.8-1.7,6.7,0c1.5,2.3,1.5,5.2,0,7.5
			C1036.6,295,1035.3,295.4,1034.1,295.4z M1034.1,294.1c0.8,0.1,1.7-0.3,2.2-0.9c0.9-1.8,0.9-3.9,0-5.7c-1.2-1.2-3.2-1.2-4.4,0
			c-0.9,1.8-0.9,3.9,0,5.7C1032.4,293.8,1033.2,294.1,1034.1,294.1L1034.1,294.1z"/>
	</g>
	<g>
		<path class="st5" d="M962.9,409.1c-0.6,0-1.2,0-1.9-0.1s-1.4-0.2-2-0.4v-1.5c0.7,0.2,1.3,0.3,2,0.4s1.3,0.1,1.8,0.1
			c1.8,0,2.7-0.6,2.7-1.8c0-0.3-0.1-0.6-0.2-0.8c-0.1-0.2-0.3-0.4-0.5-0.6s-0.5-0.3-0.8-0.4s-0.7-0.2-1-0.3
			c-0.6-0.2-1.2-0.3-1.6-0.5c-0.5-0.2-0.8-0.4-1.1-0.7c-0.3-0.3-0.5-0.6-0.7-1c-0.1-0.4-0.2-0.8-0.2-1.3s0.1-1,0.3-1.4
			s0.5-0.8,0.8-1c0.4-0.3,0.8-0.5,1.3-0.7s1.1-0.2,1.8-0.2c0.5,0,1,0,1.5,0.1s1.1,0.2,1.8,0.3v1.5c-0.5-0.1-1-0.2-1.6-0.3
			c-0.6-0.1-1.1-0.1-1.5-0.1c-0.8,0-1.4,0.2-1.9,0.5c-0.4,0.3-0.7,0.8-0.7,1.3s0.2,1,0.6,1.3c0.4,0.3,1.1,0.6,2,0.8
			c0.6,0.1,1.1,0.3,1.5,0.5s0.8,0.4,1.2,0.7c0.3,0.3,0.6,0.6,0.7,1c0.2,0.4,0.3,0.8,0.3,1.4c0,1.1-0.4,1.9-1.1,2.5
			S964.3,409.1,962.9,409.1z"/>
		<path class="st5" d="M969,396h1.8v5.2c0.8-0.4,1.5-0.7,2-0.8s1.1-0.3,1.6-0.3c0.7,0,1.3,0.2,1.7,0.6s0.6,1,0.6,1.8v6.4h-1.8v-5.8
			c0-0.5-0.1-0.9-0.3-1.2c-0.2-0.2-0.5-0.4-1-0.4c-0.4,0-0.8,0.1-1.3,0.2c-0.5,0.2-1,0.4-1.6,0.6v6.5H969V396z"/>
		<path class="st5" d="M982.7,409.1c-1.4,0-2.4-0.4-3.1-1.1s-1.1-1.9-1.1-3.3c0-1.5,0.4-2.6,1.1-3.3s1.8-1.1,3.1-1.1
			s2.4,0.4,3.1,1.1c0.7,0.8,1.1,1.9,1.1,3.3c0,1.5-0.4,2.6-1.1,3.3C985.1,408.7,984,409.1,982.7,409.1z M982.7,407.7
			c0.8,0,1.4-0.2,1.8-0.7c0.4-0.5,0.6-1.3,0.6-2.3c0-1.1-0.2-1.9-0.6-2.3c-0.4-0.5-1-0.7-1.8-0.7s-1.4,0.2-1.8,0.7
			c-0.4,0.5-0.6,1.3-0.6,2.3c0,1.1,0.2,1.9,0.6,2.3C981.2,407.4,981.8,407.7,982.7,407.7z"/>
		<path class="st5" d="M987.9,400.4L987.9,400.4l1.7-0.1l1.4,5.7l0.3,1.2h0.1l0.3-1.2l1.6-5.7h1.6l1.6,5.7l0.3,1.2h0.1l0.3-1.2
			l1.3-5.7h1.7v0.1l-2.3,8.5h-2l-1.6-5.4l-0.2-1.1H994l-0.2,1.1l-1.5,5.4h-2L987.9,400.4z"/>
		<path class="st5" d="M1008.6,412.4c-0.5,0-1.1,0-1.6-0.1s-1-0.1-1.4-0.3l0.1-1.4c0.4,0.1,0.8,0.2,1.3,0.2s0.9,0.1,1.4,0.1
			c0.4,0,0.8,0,1.2-0.1s0.7-0.2,1-0.5s0.5-0.5,0.6-0.9s0.2-0.8,0.2-1.4v-0.6h-0.1c-0.6,0.8-1.5,1.2-2.7,1.2s-2.1-0.3-2.7-1
			s-0.9-1.7-0.9-3.2c0-0.8,0.1-1.4,0.3-2s0.5-1,0.9-1.4s0.9-0.7,1.4-0.8s1.2-0.3,1.8-0.3c0.5,0,1.1,0,1.6,0.1c0.6,0.1,1.3,0.2,2,0.4
			v7.3c0,0.9-0.1,1.6-0.4,2.1s-0.6,1-1,1.4s-0.9,0.6-1.4,0.7S1009.2,412.4,1008.6,412.4z M1009,407.5c0.3,0,0.6,0,0.9-0.1
			c0.3-0.1,0.5-0.2,0.7-0.4s0.4-0.4,0.5-0.6s0.2-0.5,0.2-0.8v-4c-0.3-0.1-0.6-0.1-0.9-0.1c-0.3,0-0.7,0-1,0c-0.9,0-1.5,0.2-2,0.7
			c-0.4,0.5-0.6,1.3-0.6,2.4s0.2,1.8,0.5,2.3C1007.6,407.3,1008.2,407.5,1009,407.5z"/>
		<path class="st5" d="M1019,409.1c-1.4,0-2.4-0.4-3.1-1.1c-0.7-0.7-1-1.8-1-3.3s0.3-2.6,1-3.4s1.7-1.2,3-1.2c2.3,0,3.5,1.3,3.5,3.9
			c0,0.5,0,0.9-0.1,1.2h-5.6c0.1,0.9,0.3,1.5,0.7,1.9s1,0.6,1.9,0.6c0.4,0,0.9,0,1.4-0.1s1-0.2,1.4-0.3l0.1,1.3
			c-0.4,0.2-0.9,0.3-1.5,0.4C1020,409,1019.5,409.1,1019,409.1z M1018.8,401.4c-0.7,0-1.2,0.2-1.6,0.6c-0.4,0.4-0.6,1.1-0.6,2h4.1
			c0-0.9-0.2-1.6-0.5-2C1020,401.6,1019.5,401.4,1018.8,401.4z"/>
		<path class="st5" d="M1024.2,400.3h1.5l0.1,1h0.1c0.8-0.4,1.5-0.7,2.1-0.9c0.6-0.2,1.1-0.3,1.6-0.3c0.7,0,1.3,0.2,1.7,0.6
			c0.4,0.4,0.6,1,0.6,1.8v6.4h-1.8v-5.8c0-0.5-0.1-0.9-0.3-1.2c-0.2-0.2-0.5-0.4-1-0.4c-0.4,0-0.8,0.1-1.3,0.2
			c-0.5,0.2-1,0.4-1.6,0.6v6.5h-1.8v-8.5H1024.2z"/>
		<path class="st5" d="M1037.8,409.1c-1.4,0-2.4-0.4-3.1-1.1s-1-1.8-1-3.3s0.3-2.6,1-3.4s1.7-1.2,3-1.2c2.3,0,3.5,1.3,3.5,3.9
			c0,0.5,0,0.9-0.1,1.2h-5.6c0.1,0.9,0.3,1.5,0.7,1.9c0.4,0.4,1,0.6,1.9,0.6c0.4,0,0.9,0,1.4-0.1s1-0.2,1.4-0.3l0.1,1.3
			c-0.4,0.2-0.9,0.3-1.5,0.4C1038.9,409,1038.4,409.1,1037.8,409.1z M1037.7,401.4c-0.7,0-1.2,0.2-1.6,0.6s-0.6,1.1-0.6,2h4.1
			c0-0.9-0.2-1.6-0.5-2C1038.8,401.6,1038.4,401.4,1037.7,401.4z"/>
		<path class="st5" d="M1043,400.3h1.5l0.1,1.2h0.1c0.5-0.3,1.1-0.6,1.6-0.9c0.5-0.2,1-0.4,1.4-0.5h0.6v1.6h-0.6
			c-0.5,0.1-1,0.2-1.4,0.4c-0.5,0.2-0.9,0.4-1.4,0.6v6.2h-1.8L1043,400.3L1043,400.3z"/>
		<path class="st5" d="M1051.4,409c-0.8,0-1.4-0.2-1.8-0.6s-0.6-1-0.6-1.7c0-0.8,0.3-1.5,0.8-1.9s1.4-0.7,2.5-0.8l2-0.2v-0.5
			c0-0.4,0-0.6-0.1-0.9c-0.1-0.2-0.2-0.4-0.3-0.6c-0.2-0.1-0.4-0.2-0.6-0.3s-0.6-0.1-1-0.1s-0.8,0-1.2,0.1c-0.4,0-0.9,0.1-1.4,0.2
			l-0.1-1.3c1.1-0.2,2.1-0.3,3.1-0.3c1.2,0,2.1,0.2,2.6,0.7c0.6,0.5,0.9,1.2,0.9,2.2v5.9h-1.5l-0.2-1.1h-0.1c-0.5,0.4-1,0.7-1.5,0.9
			C1052.4,408.9,1051.9,409,1051.4,409z M1052.1,407.7c0.4,0,0.7-0.1,1.1-0.2s0.8-0.4,1.1-0.6v-2l-1.5,0.1c-0.7,0.1-1.3,0.2-1.6,0.4
			c-0.3,0.2-0.4,0.6-0.4,1.1C1050.9,407.3,1051.3,407.7,1052.1,407.7z"/>
		<path class="st5" d="M1058.4,396h1.8v12.9h-1.8V396z"/>
		<path class="st5" d="M1065.1,408.8l4.1-11.7h2.7l4.1,11.7v0.1h-1.8l-1.2-3.3h-5.1l-1.2,3.3h-1.8v-0.1H1065.1z M1072.7,404.1
			l-1.3-3.6l-0.7-2.1h-0.2l-0.7,2.1l-1.3,3.6H1072.7z"/>
		<path class="st5" d="M1080.7,409.1c-0.6,0-1.2,0-1.8-0.1s-1-0.1-1.3-0.2V397c0.6-0.1,1.3-0.1,1.9-0.1s1.2,0,1.6,0
			c2.2,0,3.7,0.5,4.7,1.5s1.5,2.5,1.5,4.6c0,1.1-0.1,2-0.4,2.8s-0.7,1.4-1.2,1.9s-1.2,0.9-2.1,1.1S1081.9,409.1,1080.7,409.1z
			 M1081.3,407.6c0.7,0,1.4-0.1,1.9-0.3c0.5-0.2,1-0.4,1.3-0.8s0.6-0.8,0.7-1.4c0.2-0.6,0.2-1.3,0.2-2.1c0-0.8-0.1-1.5-0.2-2.1
			s-0.4-1-0.7-1.4s-0.8-0.6-1.3-0.8s-1.2-0.3-1.9-0.3c-0.3,0-0.6,0-0.9,0s-0.7,0-1,0.1v8.9c0.4,0.1,0.7,0.1,1,0.1
			C1080.6,407.6,1081,407.6,1081.3,407.6z"/>
		<path class="st5" d="M1091.9,409.1c-0.4,0-0.9,0-1.4-0.1s-1.1-0.2-1.7-0.3v-1.4c0.6,0.1,1.1,0.2,1.6,0.3c0.5,0.1,1,0.1,1.4,0.1
			c1.2,0,1.8-0.4,1.8-1.2c0-0.4-0.2-0.7-0.5-0.9c-0.3-0.2-0.7-0.3-1.2-0.4c-0.3-0.1-0.7-0.1-1-0.2c-0.4-0.1-0.7-0.2-1-0.4
			c-0.3-0.2-0.5-0.4-0.7-0.7c-0.2-0.3-0.3-0.7-0.3-1.3c0-0.8,0.3-1.4,0.9-1.9s1.4-0.7,2.5-0.7c0.2,0,0.4,0,0.6,0s0.4,0,0.6,0.1
			c0.2,0,0.4,0.1,0.7,0.1c0.2,0,0.5,0.1,0.9,0.2l-0.1,1.4c-0.6-0.1-1-0.2-1.4-0.3c-0.4-0.1-0.8-0.1-1.1-0.1c-0.6,0-1,0.1-1.3,0.3
			c-0.3,0.2-0.4,0.5-0.4,0.9c0,0.2,0,0.4,0.1,0.6c0.1,0.1,0.2,0.3,0.4,0.4c0.2,0.1,0.4,0.2,0.6,0.2s0.5,0.1,0.8,0.2
			c0.4,0.1,0.8,0.2,1.1,0.3c0.3,0.1,0.6,0.3,0.9,0.5s0.4,0.4,0.6,0.7c0.1,0.3,0.2,0.7,0.2,1.1c0,0.8-0.3,1.5-0.9,1.9
			C1093.8,408.9,1093,409.1,1091.9,409.1z"/>
	</g>
	<g>
		<path class="st5" d="M1187.7,561.8c-0.6,0-1.2,0-1.9-0.1c-0.7-0.1-1.4-0.2-2-0.4v-1.5c0.7,0.2,1.3,0.3,2,0.4
			c0.7,0.1,1.3,0.1,1.8,0.1c1.8,0,2.7-0.6,2.7-1.8c0-0.3-0.1-0.6-0.2-0.8c-0.1-0.2-0.3-0.4-0.5-0.6s-0.5-0.3-0.8-0.4
			c-0.3-0.1-0.7-0.2-1-0.3c-0.6-0.2-1.2-0.3-1.6-0.5c-0.5-0.2-0.8-0.4-1.1-0.7c-0.3-0.3-0.5-0.6-0.7-1c-0.1-0.4-0.2-0.8-0.2-1.3
			c0-0.5,0.1-1,0.3-1.4c0.2-0.4,0.5-0.8,0.8-1s0.8-0.5,1.3-0.7c0.5-0.2,1.1-0.2,1.8-0.2c0.5,0,1,0,1.5,0.1s1.1,0.2,1.8,0.3v1.5
			c-0.5-0.1-1-0.2-1.6-0.3c-0.6-0.1-1.1-0.1-1.5-0.1c-0.8,0-1.4,0.2-1.9,0.5s-0.7,0.8-0.7,1.3c0,0.5,0.2,1,0.6,1.3
			c0.4,0.3,1.1,0.6,2,0.8c0.6,0.1,1.1,0.3,1.5,0.5c0.4,0.2,0.8,0.4,1.2,0.7c0.3,0.3,0.6,0.6,0.7,1c0.2,0.4,0.3,0.8,0.3,1.4
			c0,1.1-0.4,1.9-1.1,2.5S1189.2,561.8,1187.7,561.8z"/>
		<path class="st5" d="M1193.8,548.7h1.8v5.2c0.8-0.4,1.5-0.7,2-0.8s1.1-0.3,1.6-0.3c0.7,0,1.3,0.2,1.7,0.6c0.4,0.4,0.6,1,0.6,1.8
			v6.4h-1.8v-5.8c0-0.5-0.1-0.9-0.3-1.2c-0.2-0.2-0.5-0.4-1-0.4c-0.4,0-0.8,0.1-1.3,0.2c-0.5,0.2-1,0.4-1.6,0.6v6.5h-1.8V548.7z"/>
		<path class="st5" d="M1207.5,561.8c-1.4,0-2.4-0.4-3.1-1.1c-0.7-0.8-1.1-1.9-1.1-3.3c0-1.5,0.4-2.6,1.1-3.3
			c0.7-0.8,1.8-1.1,3.1-1.1s2.4,0.4,3.1,1.1s1.1,1.9,1.1,3.3c0,1.5-0.4,2.6-1.1,3.3S1208.9,561.8,1207.5,561.8z M1207.5,560.3
			c0.8,0,1.4-0.2,1.8-0.7s0.6-1.3,0.6-2.3c0-1.1-0.2-1.9-0.6-2.3s-1-0.7-1.8-0.7s-1.4,0.2-1.8,0.7s-0.6,1.3-0.6,2.3
			c0,1.1,0.2,1.9,0.6,2.3S1206.7,560.3,1207.5,560.3z"/>
		<path class="st5" d="M1212.7,553.1L1212.7,553.1l1.7-0.1l1.4,5.7l0.3,1.2h0.1l0.3-1.2l1.6-5.7h1.6l1.6,5.7l0.3,1.2h0.1l0.3-1.2
			l1.3-5.7h1.7v0.1l-2.3,8.5h-2l-1.6-5.4l-0.2-1.1h-0.1l-0.2,1.1l-1.5,5.4h-2L1212.7,553.1z"/>
		<path class="st5" d="M1232.8,561.8c-0.4,0-0.9,0-1.4-0.1c-0.5-0.1-1.1-0.2-1.7-0.3V560c0.6,0.1,1.1,0.2,1.6,0.3
			c0.5,0.1,1,0.1,1.4,0.1c1.2,0,1.8-0.4,1.8-1.2c0-0.4-0.2-0.7-0.5-0.9c-0.3-0.2-0.7-0.3-1.2-0.4c-0.3-0.1-0.7-0.1-1-0.2
			c-0.4-0.1-0.7-0.2-1-0.4c-0.3-0.2-0.5-0.4-0.7-0.7c-0.2-0.3-0.3-0.7-0.3-1.3c0-0.8,0.3-1.4,0.9-1.9c0.6-0.5,1.4-0.7,2.5-0.7
			c0.2,0,0.4,0,0.6,0s0.4,0,0.6,0.1c0.2,0,0.4,0.1,0.7,0.1c0.2,0,0.5,0.1,0.9,0.2l-0.1,1.4c-0.6-0.1-1-0.2-1.4-0.3
			c-0.4-0.1-0.8-0.1-1.1-0.1c-0.6,0-1,0.1-1.3,0.3c-0.3,0.2-0.4,0.5-0.4,0.9c0,0.2,0,0.4,0.1,0.6c0.1,0.1,0.2,0.3,0.4,0.4
			c0.2,0.1,0.4,0.2,0.6,0.2s0.5,0.1,0.8,0.2c0.4,0.1,0.8,0.2,1.1,0.3c0.3,0.1,0.6,0.3,0.9,0.5s0.4,0.4,0.6,0.7
			c0.1,0.3,0.2,0.7,0.2,1.1c0,0.8-0.3,1.5-0.9,1.9C1234.8,561.5,1233.9,561.8,1232.8,561.8z"/>
		<path class="st5" d="M1241.8,561.7c-1.4,0-2.4-0.4-3.1-1.1c-0.7-0.7-1-1.8-1-3.3c0-1.5,0.3-2.6,1-3.4c0.7-0.8,1.7-1.2,3-1.2
			c2.3,0,3.5,1.3,3.5,3.9c0,0.5,0,0.9-0.1,1.2h-5.6c0.1,0.9,0.3,1.5,0.7,1.9c0.4,0.4,1,0.6,1.9,0.6c0.4,0,0.9,0,1.4-0.1
			c0.5-0.1,1-0.2,1.4-0.3l0.1,1.3c-0.4,0.2-0.9,0.3-1.5,0.4C1242.8,561.7,1242.3,561.7,1241.8,561.7z M1241.6,554.1
			c-0.7,0-1.2,0.2-1.6,0.6c-0.4,0.4-0.6,1.1-0.6,2h4.1c0-0.9-0.2-1.6-0.5-2C1242.8,554.3,1242.3,554.1,1241.6,554.1z"/>
		<path class="st5" d="M1247,553h1.5l0.1,1h0.1c0.8-0.4,1.5-0.7,2.1-0.9c0.6-0.2,1.1-0.3,1.6-0.3c0.7,0,1.3,0.2,1.7,0.6
			c0.4,0.4,0.6,1,0.6,1.8v6.4h-1.8v-5.8c0-0.5-0.1-0.9-0.3-1.2c-0.2-0.2-0.5-0.4-1-0.4c-0.4,0-0.8,0.1-1.3,0.2
			c-0.5,0.2-1,0.4-1.6,0.6v6.5h-1.8V553z"/>
		<path class="st5" d="M1257.8,551.3c-0.4,0-0.6-0.1-0.8-0.2s-0.2-0.4-0.2-0.8c0-0.4,0.1-0.6,0.2-0.8c0.2-0.2,0.4-0.2,0.8-0.2
			c0.4,0,0.6,0.1,0.8,0.3c0.2,0.2,0.2,0.4,0.2,0.8c0,0.3-0.1,0.6-0.2,0.8C1258.5,551.2,1258.2,551.3,1257.8,551.3z M1256.9,553h1.8
			v8.6h-1.8V553z"/>
		<path class="st5" d="M1264.7,561.8c-1.4,0-2.4-0.4-3.1-1.1s-1.1-1.9-1.1-3.3c0-1.5,0.4-2.6,1.1-3.3s1.8-1.1,3.1-1.1
			s2.4,0.4,3.1,1.1c0.7,0.8,1.1,1.9,1.1,3.3c0,1.5-0.4,2.6-1.1,3.3C1267.1,561.4,1266.1,561.8,1264.7,561.8z M1264.7,560.3
			c0.8,0,1.4-0.2,1.8-0.7c0.4-0.5,0.6-1.3,0.6-2.3c0-1.1-0.2-1.9-0.6-2.3c-0.4-0.5-1-0.7-1.8-0.7s-1.4,0.2-1.8,0.7
			c-0.4,0.5-0.6,1.3-0.6,2.3c0,1.1,0.2,1.9,0.6,2.3C1263.3,560.1,1263.9,560.3,1264.7,560.3z"/>
		<path class="st5" d="M1270.8,553h1.5l0.1,1.2h0.1c0.5-0.3,1.1-0.6,1.6-0.9c0.5-0.2,1-0.4,1.4-0.5h0.6v1.6h-0.6
			c-0.5,0.1-1,0.2-1.4,0.4c-0.5,0.2-0.9,0.4-1.4,0.6v6.2h-1.8V553z"/>
		<path class="st5" d="M1278.2,551.3c-0.4,0-0.6-0.1-0.8-0.2s-0.2-0.4-0.2-0.8c0-0.4,0.1-0.6,0.2-0.8c0.2-0.2,0.4-0.2,0.8-0.2
			c0.4,0,0.6,0.1,0.8,0.3c0.2,0.2,0.2,0.4,0.2,0.8c0,0.3-0.1,0.6-0.2,0.8C1278.9,551.2,1278.6,551.3,1278.2,551.3z M1277.3,553h1.8
			v8.6h-1.8V553z"/>
		<path class="st5" d="M1284.9,561.8c-0.9,0-1.5-0.2-2-0.6c-0.4-0.4-0.7-1.1-0.7-1.9v-4.7h-1.7V553h1.8l0.3-2.3l1.4-0.2v2.4h2.4v1.5
			h-2.4v4.3c0,0.5,0.1,0.9,0.3,1.1c0.2,0.2,0.6,0.4,1.1,0.4c0.1,0,0.3,0,0.5,0s0.4-0.1,0.6-0.1v1.4c-0.2,0.1-0.5,0.1-0.8,0.2
			C1285.5,561.7,1285.2,561.8,1284.9,561.8z"/>
		<path class="st5" d="M1289.3,564.8l0-0.2l1.3-3.2l-3.6-8.4V553h1.9l2.1,5.4l0.4,1.3h0.1l0.4-1.3l2.1-5.4h1.9v0.2l-5,12
			L1289.3,564.8z"/>
		<path class="st5" d="M1196.6,572.2h1.5l0.1,1.2h0.1c0.5-0.3,1.1-0.6,1.6-0.9s1-0.4,1.4-0.5h0.6v1.6h-0.6c-0.5,0.1-1,0.2-1.4,0.4
			s-0.9,0.4-1.4,0.6v6.2h-1.8V572.2z"/>
		<path class="st5" d="M1206.9,580.9c-1.4,0-2.4-0.4-3.1-1.1c-0.7-0.7-1-1.8-1-3.3c0-1.5,0.3-2.6,1-3.4c0.7-0.8,1.7-1.2,3-1.2
			c2.3,0,3.5,1.3,3.5,3.9c0,0.5,0,0.9-0.1,1.2h-5.6c0.1,0.9,0.3,1.5,0.7,1.9s1,0.6,1.9,0.6c0.4,0,0.9,0,1.4-0.1
			c0.5-0.1,1-0.2,1.4-0.3l0.1,1.3c-0.4,0.2-0.9,0.3-1.5,0.4C1208,580.9,1207.4,580.9,1206.9,580.9z M1206.8,573.3
			c-0.7,0-1.2,0.2-1.6,0.6c-0.4,0.4-0.6,1.1-0.6,2h4.1c0-0.9-0.2-1.6-0.5-2C1207.9,573.5,1207.4,573.3,1206.8,573.3z"/>
		<path class="st5" d="M1212.1,567.9h1.8v12.9h-1.8V567.9z"/>
		<path class="st5" d="M1218.1,580.9c-0.8,0-1.4-0.2-1.8-0.6c-0.4-0.4-0.6-1-0.6-1.7c0-0.8,0.3-1.5,0.8-1.9s1.4-0.7,2.5-0.8l2-0.2
			v-0.5c0-0.4,0-0.6-0.1-0.9s-0.2-0.4-0.3-0.6c-0.2-0.1-0.4-0.2-0.6-0.3s-0.6-0.1-1-0.1c-0.4,0-0.8,0-1.2,0.1
			c-0.4,0-0.9,0.1-1.4,0.2l-0.1-1.3c1.1-0.2,2.1-0.3,3.1-0.3c1.2,0,2.1,0.2,2.6,0.7c0.6,0.5,0.9,1.2,0.9,2.2v5.9h-1.5l-0.2-1.1h-0.1
			c-0.5,0.4-1,0.7-1.5,0.9C1219.1,580.8,1218.6,580.9,1218.1,580.9z M1218.8,579.6c0.4,0,0.7-0.1,1.1-0.2s0.8-0.4,1.1-0.6v-2
			l-1.5,0.1c-0.7,0.1-1.3,0.2-1.6,0.4c-0.3,0.2-0.4,0.6-0.4,1.1C1217.5,579.2,1217.9,579.6,1218.8,579.6z"/>
		<path class="st5" d="M1228.5,581c-0.9,0-1.5-0.2-2-0.6c-0.4-0.4-0.7-1.1-0.7-1.9v-4.7h-1.7v-1.5h1.8l0.3-2.3l1.4-0.2v2.4h2.4v1.5
			h-2.4v4.3c0,0.5,0.1,0.9,0.3,1.1c0.2,0.2,0.6,0.4,1.1,0.4c0.1,0,0.3,0,0.5,0s0.4-0.1,0.6-0.1v1.4c-0.2,0.1-0.5,0.1-0.8,0.2
			C1229.1,580.9,1228.8,581,1228.5,581z"/>
		<path class="st5" d="M1235.4,580.9c-1.4,0-2.4-0.4-3.1-1.1c-0.7-0.7-1-1.8-1-3.3c0-1.5,0.3-2.6,1-3.4c0.7-0.8,1.7-1.2,3-1.2
			c2.3,0,3.5,1.3,3.5,3.9c0,0.5,0,0.9-0.1,1.2h-5.6c0.1,0.9,0.3,1.5,0.7,1.9s1,0.6,1.9,0.6c0.4,0,0.9,0,1.4-0.1
			c0.5-0.1,1-0.2,1.4-0.3l0.1,1.3c-0.4,0.2-0.9,0.3-1.5,0.4C1236.4,580.9,1235.9,580.9,1235.4,580.9z M1235.2,573.3
			c-0.7,0-1.2,0.2-1.6,0.6c-0.4,0.4-0.6,1.1-0.6,2h4.1c0-0.9-0.2-1.6-0.5-2C1236.4,573.5,1235.9,573.3,1235.2,573.3z"/>
		<path class="st5" d="M1243.7,581c-1.2,0-2.1-0.4-2.7-1.1c-0.6-0.7-0.9-1.8-0.9-3.3c0-0.8,0.1-1.4,0.3-2c0.2-0.6,0.5-1.1,0.9-1.4
			c0.4-0.4,0.9-0.7,1.4-0.9c0.5-0.2,1.2-0.3,1.8-0.3c0.3,0,0.7,0,1,0c0.3,0,0.6,0.1,0.9,0.1v-4.3h1.8v12.9h-1.6l-0.1-1.1h-0.1
			C1245.8,580.6,1244.9,581,1243.7,581z M1244.2,579.6c0.3,0,0.6,0,0.9-0.1c0.3-0.1,0.5-0.2,0.7-0.4c0.2-0.2,0.4-0.4,0.5-0.6
			c0.1-0.2,0.2-0.5,0.2-0.8v-4.2c-0.3-0.1-0.6-0.1-0.9-0.1c-0.3,0-0.7,0-1,0c-0.9,0-1.5,0.2-2,0.7c-0.4,0.5-0.6,1.3-0.6,2.5
			c0,1.1,0.2,1.9,0.5,2.4S1243.4,579.6,1244.2,579.6z"/>
		<path class="st5" d="M1253.1,580.7l4.1-11.7h2.7l4.1,11.7v0.1h-1.8l-1.2-3.3h-5.1l-1.2,3.3h-1.8V580.7z M1260.7,576l-1.3-3.6
			l-0.7-2.1h-0.2l-0.7,2.1l-1.3,3.6H1260.7z"/>
		<path class="st5" d="M1268.7,581c-0.6,0-1.2,0-1.8-0.1c-0.6,0-1-0.1-1.3-0.2V569c0.6-0.1,1.3-0.1,1.9-0.1c0.6,0,1.2,0,1.6,0
			c2.2,0,3.7,0.5,4.7,1.5c1,1,1.5,2.5,1.5,4.6c0,1.1-0.1,2-0.4,2.8c-0.3,0.8-0.7,1.4-1.2,1.9c-0.5,0.5-1.2,0.9-2.1,1.1
			S1269.8,581,1268.7,581z M1269.3,579.5c0.7,0,1.4-0.1,1.9-0.3s1-0.4,1.3-0.8c0.3-0.4,0.6-0.8,0.7-1.4c0.2-0.6,0.2-1.3,0.2-2.1
			c0-0.8-0.1-1.5-0.2-2.1s-0.4-1-0.7-1.4s-0.8-0.6-1.3-0.8c-0.5-0.2-1.2-0.3-1.9-0.3c-0.3,0-0.6,0-0.9,0s-0.7,0-1,0.1v8.9
			c0.4,0.1,0.7,0.1,1,0.1C1268.6,579.5,1268.9,579.5,1269.3,579.5z"/>
		<path class="st5" d="M1279.8,581c-0.4,0-0.9,0-1.4-0.1c-0.5-0.1-1.1-0.2-1.7-0.3v-1.4c0.6,0.1,1.1,0.2,1.6,0.3s1,0.1,1.4,0.1
			c1.2,0,1.8-0.4,1.8-1.2c0-0.4-0.2-0.7-0.5-0.9c-0.3-0.2-0.7-0.3-1.2-0.4c-0.3-0.1-0.7-0.1-1-0.2c-0.4-0.1-0.7-0.2-1-0.4
			s-0.5-0.4-0.7-0.7c-0.2-0.3-0.3-0.7-0.3-1.3c0-0.8,0.3-1.4,0.9-1.9c0.6-0.5,1.4-0.7,2.5-0.7c0.2,0,0.4,0,0.6,0
			c0.2,0,0.4,0,0.6,0.1c0.2,0,0.4,0.1,0.7,0.1c0.3,0,0.5,0.1,0.9,0.2l-0.1,1.4c-0.6-0.1-1-0.2-1.4-0.3c-0.4-0.1-0.8-0.1-1.1-0.1
			c-0.6,0-1,0.1-1.3,0.3s-0.4,0.5-0.4,0.9c0,0.2,0,0.4,0.1,0.6c0.1,0.1,0.2,0.3,0.4,0.4c0.2,0.1,0.4,0.2,0.6,0.2
			c0.2,0.1,0.5,0.1,0.8,0.2c0.4,0.1,0.8,0.2,1.1,0.3s0.6,0.3,0.9,0.5c0.2,0.2,0.4,0.4,0.6,0.7s0.2,0.7,0.2,1.1
			c0,0.8-0.3,1.5-0.9,1.9C1281.8,580.7,1280.9,581,1279.8,581z"/>
	</g>
</g>
</svg>
