<?xml version="1.0" encoding="utf-8"?>
<!-- Generator: Adobe Illustrator 25.0.1, SVG Export Plug-In . SVG Version: 6.00 Build 0)  -->
<svg version="1.1" id="Layer_1" xmlns="http://www.w3.org/2000/svg" xmlns:xlink="http://www.w3.org/1999/xlink" x="0px" y="0px"
	 viewBox="0 0 1219.1 396.3" style="enable-background:new 0 0 1219.1 396.3;" xml:space="preserve">
<style type="text/css">
	.st0{fill:#0C6D72;}
	.st1{fill:#063739;}
	.st2{fill:#30721E;}
	.st3{fill:#F4F4F4;}
	.st4{fill:#E52033;}
	.st5{fill:#FFFFFF;}
</style>
<rect x="187.9" y="95" class="st0" width="32.5" height="1"/>
<polygon class="st0" points="218.9,100.4 227.6,95.5 218.9,90.5 "/>
<rect x="434.6" y="95" class="st0" width="36.5" height="1"/>
<polygon class="st0" points="469.6,100.4 478.3,95.5 469.6,90.5 "/>
<rect x="896.2" y="50.5" class="st1" width="207" height="90"/>
<path class="st0" d="M1102.2,51.5v88h-205v-88H1102.2 M1103.2,50.4h-207v90h207V50.4z"/>
<circle class="st2" cx="151.9" cy="95.5" r="36"/>
<path class="st3" d="M136.4,101.5c-0.3,0-0.6,0-1,0s-0.7-0.1-1.1-0.1c-0.4,0-0.7-0.1-1.1-0.2c-0.4-0.1-0.7-0.2-1.1-0.2v-1.4
	c0.7,0.2,1.4,0.3,2.2,0.4c0.6,0.1,1.3,0.2,2,0.2c0.8,0.1,1.7-0.1,2.4-0.6c0.5-0.4,0.9-1,0.8-1.7c0-0.3-0.1-0.7-0.2-1
	c-0.2-0.3-0.4-0.5-0.6-0.7c-0.3-0.2-0.6-0.4-1-0.5s-0.8-0.3-1.2-0.4c-0.6-0.2-1.2-0.4-1.8-0.6c-0.5-0.2-0.9-0.5-1.2-0.8
	s-0.6-0.7-0.7-1.1c-0.2-0.4-0.2-0.9-0.2-1.4s0.1-1,0.3-1.5s0.5-0.9,0.9-1.2s1-0.6,1.5-0.8c0.6-0.2,1.3-0.3,1.9-0.3
	c0.5,0,1.1,0,1.6,0.1c0.6,0.1,1.2,0.2,1.9,0.3l-0.1,1.3c-0.6-0.2-1.2-0.3-1.7-0.3c-0.5-0.1-1.1-0.1-1.6-0.1c-0.8,0-1.6,0.2-2.2,0.6
	c-0.5,0.4-0.8,1-0.8,1.7c0,0.3,0,0.6,0.2,0.9c0.1,0.3,0.3,0.5,0.5,0.7c0.3,0.2,0.6,0.4,0.9,0.6c0.5,0.2,0.9,0.4,1.4,0.5
	c0.6,0.2,1.1,0.3,1.6,0.5s0.9,0.4,1.3,0.7c0.4,0.3,0.6,0.7,0.8,1.1c0.2,0.5,0.3,1,0.3,1.6c0.1,1-0.4,2.1-1.2,2.7
	C138.9,101.3,137.6,101.6,136.4,101.5z"/>
<path class="st3" d="M146.7,101.5c-0.8,0.1-1.5-0.2-2.1-0.7c-0.5-0.5-0.7-1.3-0.7-2V93h-2v-1.4h2.1l0.2-2.4l1.2-0.2v2.6h2.9V93h-2.9
	v5.4c0,0.5,0.1,1,0.4,1.3c0.3,0.3,0.8,0.5,1.3,0.4c0.2,0,0.4,0,0.6-0.1c0.2,0,0.5-0.1,0.7-0.2v1.3c-0.3,0.1-0.6,0.1-0.9,0.2
	C147.3,101.5,147,101.5,146.7,101.5z"/>
<path class="st3" d="M152,101.4c-0.7,0-1.4-0.2-1.9-0.7s-0.7-1.2-0.7-1.9c0-0.8,0.3-1.6,0.9-2.1c0.8-0.6,1.8-0.9,2.8-0.9l2.3-0.2
	v-0.7c0-0.4,0-0.7-0.1-1.1c-0.1-0.3-0.2-0.5-0.4-0.7s-0.5-0.3-0.8-0.4c-0.4-0.1-0.8-0.1-1.2-0.1s-0.9,0-1.3,0.1
	c-0.5,0-1,0.1-1.5,0.2l-0.1-1.2c0.6-0.1,1.2-0.2,1.7-0.3s1-0.1,1.6-0.1c1-0.1,2,0.2,2.8,0.8c0.6,0.6,1,1.5,0.9,2.4v6.6h-1.3
	l-0.2-1.2h-0.1c-0.5,0.4-1.1,0.7-1.7,1C153.2,101.3,152.6,101.4,152,101.4z M152.6,100.2c0.5,0,1-0.1,1.4-0.3c0.5-0.2,1-0.5,1.5-0.8
	v-2.5l-1.9,0.2c-0.7,0-1.4,0.2-2,0.6c-0.4,0.3-0.6,0.8-0.6,1.4C151.1,99.7,151.6,100.2,152.6,100.2z"/>
<path class="st3" d="M159.7,91.6h1.3l0.1,1.3h0.1c0.7-0.4,1.3-0.7,1.8-1s1-0.4,1.6-0.5h0.5v1.5h-0.6c-0.6,0.1-1.1,0.2-1.7,0.4
	c-0.6,0.2-1.1,0.5-1.6,0.7v7.2h-1.6L159.7,91.6L159.7,91.6L159.7,91.6z"/>
<path class="st3" d="M170.5,101.5c-0.8,0.1-1.5-0.2-2.1-0.7c-0.5-0.5-0.8-1.3-0.7-2V93h-2v-1.4h2.1l0.2-2.4l1.2-0.2v2.6h2.9V93h-2.9
	v5.4c0,0.5,0.1,1,0.4,1.3s0.8,0.5,1.3,0.4c0.2,0,0.4,0,0.6-0.1c0.2,0,0.5-0.1,0.7-0.2v1.3c-0.3,0.1-0.6,0.1-0.9,0.2
	C171.1,101.5,170.8,101.5,170.5,101.5z"/>
<rect x="773.4" y="68.4" class="st0" width="72" height="54"/>
<path class="st3" d="M800.2,96.9l-4.9-8.9h1.7l3.3,6.2l0.5,1.2h0.2l0.5-1.2l3.4-6.2h1.7l-4.8,8.8v4.5h-1.6L800.2,96.9z"/>
<path class="st3" d="M810.6,101.5c-1.2,0.1-2.5-0.4-3.4-1.2c-0.8-1-1.2-2.3-1.1-3.7c-0.1-1.4,0.3-2.7,1.1-3.8c0.8-0.9,2-1.4,3.3-1.3
	c2.5,0,3.7,1.4,3.7,4.3c0,0.4,0,0.8-0.1,1.3h-6.4c0,0.9,0.3,1.8,0.8,2.4c0.6,0.5,1.4,0.8,2.3,0.7c0.5,0,1,0,1.5-0.1s1-0.2,1.5-0.4
	l0.1,1.2c-0.5,0.2-1,0.3-1.6,0.4C811.7,101.4,811.2,101.5,810.6,101.5z M810.4,92.6c-1.7,0-2.7,1.1-2.8,3.3h5.1
	c0.1-0.9-0.1-1.7-0.6-2.5C811.8,92.9,811.1,92.6,810.4,92.6z"/>
<path class="st3" d="M819.1,101.5c-0.5,0-0.9,0-1.4-0.1s-1.1-0.2-1.9-0.3v-1.3c0.6,0.1,1.2,0.3,1.7,0.3c0.5,0.1,1,0.1,1.5,0.1
	c0.6,0,1.1-0.1,1.6-0.4c0.4-0.3,0.6-0.7,0.5-1.2c0-0.2,0-0.5-0.1-0.7s-0.2-0.4-0.4-0.5s-0.4-0.2-0.7-0.3s-0.5-0.2-0.8-0.2l-1.1-0.2
	c-0.4-0.1-0.7-0.2-1-0.4s-0.6-0.5-0.8-0.8c-0.2-0.4-0.3-0.9-0.3-1.4c0-0.8,0.4-1.5,1-2c0.8-0.5,1.7-0.8,2.6-0.7c0.2,0,0.4,0,0.6,0
	l0.6,0.1l0.7,0.1l0.9,0.2l-0.2,1.3c-0.6-0.1-1.1-0.2-1.5-0.3s-0.8-0.1-1.1-0.1c-1.5,0-2.2,0.5-2.2,1.5c0,0.2,0,0.5,0.2,0.7
	c0.1,0.2,0.3,0.3,0.5,0.5c0.2,0.1,0.5,0.2,0.7,0.3c0.3,0.1,0.6,0.1,0.9,0.2c0.4,0.1,0.8,0.2,1.2,0.3s0.7,0.3,1,0.5s0.5,0.5,0.6,0.8
	c0.2,0.4,0.2,0.8,0.2,1.2c0,0.8-0.3,1.6-1,2.1C821,101.3,820.1,101.6,819.1,101.5z"/>
<rect x="227.6" y="50.5" class="st1" width="207" height="90"/>
<path class="st0" d="M433.6,51.5v88h-205v-88H433.6 M434.6,50.5h-207v90h207V50.5z"/>
<g>
	<circle class="st0" cx="331.1" cy="351.3" r="36"/>
	<path class="st3" d="M316.3,343.8h8.5v1.3h-6.9v4.6h6.4v1.4h-6.4v4.8h7v1.3h-8.6V343.8z"/>
	<path class="st3" d="M327.1,347.3h1.3l0.1,1.1h0.1l1.3-0.6c0.4-0.2,0.7-0.3,1.1-0.4c0.3-0.1,0.6-0.2,0.9-0.2s0.6-0.1,0.8-0.1
		c0.7,0,1.4,0.2,1.9,0.7s0.7,1.3,0.7,2v7.2h-1.6v-6.7c0-0.5-0.1-1-0.4-1.4c-0.3-0.3-0.8-0.5-1.2-0.4c-0.5,0-1.1,0.1-1.6,0.3
		c-0.7,0.2-1.3,0.5-1.9,0.8v7.5H327L327.1,347.3L327.1,347.3z"/>
	<path class="st3" d="M341.5,357.3c-1.1,0.1-2.2-0.4-3-1.2c-0.8-1.1-1.1-2.4-1-3.8c0-0.8,0.1-1.5,0.3-2.3c0.2-0.6,0.6-1.1,1-1.6
		c0.4-0.4,0.9-0.8,1.5-1s1.3-0.3,2-0.3c0.4,0,0.8,0,1.2,0.1l1.1,0.1v-4.8h1.5V357h-1.4l-0.1-1.2h-0.1
		C343.7,356.8,342.6,357.3,341.5,357.3z M341.8,356c0.3,0,0.7-0.1,1-0.1c0.3-0.1,0.6-0.2,0.9-0.4c0.2-0.2,0.5-0.4,0.6-0.7
		c0.1-0.3,0.2-0.6,0.2-0.9v-5.2c-0.4-0.1-0.7-0.1-1.1-0.1s-0.8-0.1-1.2-0.1c-0.9-0.1-1.8,0.3-2.4,0.9c-0.6,0.9-0.9,1.9-0.8,2.9
		c-0.1,1,0.1,2,0.7,2.9C340.2,355.8,341,356.1,341.8,356L341.8,356z"/>
</g>
<rect x="537.7" y="213" class="st4" width="72" height="54"/>
<path class="st3" d="M563,232.5h1.4l6.8,9.3l1,1.6h0.1v-10.9h1.5v13.3h-1.4l-6.9-9.3l-1-1.6h-0.1v10.8h-1.5L563,232.5L563,232.5z"/>
<path class="st3" d="M580.7,246c-1.3,0.1-2.5-0.4-3.4-1.3c-1.5-2.3-1.5-5.2,0-7.5c1.9-1.7,4.8-1.7,6.7,0c1.5,2.3,1.5,5.2,0,7.5
	C583.2,245.6,581.9,246.1,580.7,246z M580.7,244.8c0.8,0.1,1.7-0.3,2.2-0.9c0.9-1.8,0.9-3.9,0-5.7c-1.2-1.2-3.2-1.2-4.4,0
	c-0.9,1.8-0.9,3.9,0,5.7C579,244.4,579.8,244.9,580.7,244.8L580.7,244.8z"/>
<rect x="669.2" y="95" class="st0" width="97" height="1"/>
<polygon class="st0" points="764.7,100.4 773.4,95.5 764.7,90.5 "/>
<rect x="845.4" y="95" class="st0" width="43.6" height="1"/>
<polygon class="st0" points="887.5,100.4 896.2,95.5 887.5,90.5 "/>
<rect x="573.2" y="190.1" class="st0" width="1" height="15.6"/>
<polygon class="st0" points="568.7,204.4 573.7,213 578.7,204.4 "/>
<rect x="506.2" y="28" transform="matrix(0.7071 -0.7071 0.7071 0.7071 100.5112 433.6438)" class="st1" width="135" height="135"/>
<path class="st0" d="M573.7,1.4l94,94.1l-94,94l-94-94L573.7,1.4 M573.7,0.1l-95.5,95.4l95.5,95.5l95.5-95.5L573.7,0.1L573.7,0.1z"
	/>
<path class="st3" d="M515.1,101.2l4.8-13.2h2.4l4.8,13.2v0.1h-1.6l-1.5-4h-6l-1.4,4L515.1,101.2L515.1,101.2L515.1,101.2z M523.6,96
	l-1.6-4.5l-0.8-2.3h-0.1l-0.8,2.3l-1.6,4.5H523.6z"/>
<path class="st3" d="M528.6,86.8h1.6v14.5h-1.6V86.8z"/>
<path class="st3" d="M534.9,101.4c-0.7,0-1.4-0.2-1.9-0.7s-0.7-1.2-0.7-1.9c-0.1-0.8,0.3-1.6,0.9-2.1c0.8-0.6,1.8-0.9,2.8-0.9
	l2.3-0.2v-0.7c0-0.4,0-0.7-0.1-1.1c-0.1-0.3-0.2-0.5-0.4-0.7s-0.5-0.3-0.7-0.4c-0.4-0.1-0.8-0.1-1.2-0.1s-0.9,0-1.3,0.1
	c-0.5,0-1,0.1-1.5,0.2l-0.1-1.2c0.6-0.1,1.2-0.2,1.7-0.3s1-0.1,1.6-0.1c1-0.1,2,0.2,2.8,0.8c0.6,0.6,1,1.5,0.9,2.4v6.6h-1.3
	l-0.2-1.2h-0.1c-0.5,0.4-1.1,0.7-1.7,1C536.1,101.3,535.5,101.4,534.9,101.4z M535.5,100.2c0.5,0,1-0.1,1.4-0.3
	c0.5-0.2,1-0.5,1.5-0.8v-2.5l-1.9,0.2c-0.7,0-1.4,0.2-2,0.6c-0.4,0.3-0.6,0.8-0.6,1.4C533.9,99.7,534.4,100.2,535.5,100.2z"/>
<path class="st3" d="M542.6,91.6h1.3l0.1,1.3h0.1c0.7-0.4,1.3-0.7,1.9-1c0.5-0.2,1-0.4,1.6-0.5h0.5v1.5h-0.6
	c-0.6,0.1-1.1,0.2-1.7,0.4c-0.6,0.2-1.1,0.5-1.6,0.7v7.2h-1.6V91.6z"/>
<path class="st3" d="M549.6,91.6h1.3l0.1,1.1h0.1c0.6-0.4,1.3-0.7,2-1c0.5-0.2,1-0.3,1.6-0.3c1-0.1,1.9,0.4,2.3,1.3h0.1
	c0.6-0.4,1.3-0.7,2-1c0.5-0.2,1-0.3,1.6-0.3c0.7,0,1.4,0.2,1.9,0.7s0.7,1.3,0.7,2v7.2h-1.6v-6.7c0-0.5-0.1-1-0.4-1.4
	c-0.3-0.3-0.8-0.5-1.2-0.4c-0.4,0-0.9,0.1-1.3,0.3c-0.5,0.2-1,0.5-1.5,0.7v7.5h-1.6v-6.7c0-0.5-0.1-1-0.4-1.4
	c-0.3-0.3-0.8-0.5-1.2-0.4c-0.4,0-0.9,0.1-1.3,0.3c-0.5,0.2-1,0.5-1.5,0.8v7.5h-1.6L549.6,91.6L549.6,91.6z"/>
<path class="st3" d="M570.8,89.6c-0.5,0.1-0.9-0.2-1-0.7c0-0.1,0-0.2,0-0.3c-0.1-0.5,0.2-0.9,0.7-1c0.1,0,0.2,0,0.3,0
	c0.7,0,1,0.3,1,1S571.5,89.6,570.8,89.6z M570,91.6h1.6v9.7H570V91.6z"/>
<path class="st3" d="M577.1,101.5c-0.5,0-0.9,0-1.4-0.1s-1.1-0.2-1.9-0.3v-1.3c0.6,0.1,1.2,0.3,1.7,0.3c0.5,0.1,1,0.1,1.5,0.1
	c0.6,0,1.1-0.1,1.6-0.4c0.4-0.3,0.6-0.7,0.5-1.2c0-0.2,0-0.5-0.1-0.7s-0.2-0.4-0.4-0.5s-0.4-0.2-0.6-0.3c-0.3-0.1-0.5-0.1-0.8-0.2
	s-0.8-0.2-1.1-0.3c-0.4-0.1-0.7-0.2-1-0.4s-0.6-0.5-0.8-0.8c-0.2-0.4-0.3-0.9-0.3-1.4c0-0.8,0.3-1.6,0.9-2.1
	c0.8-0.5,1.7-0.8,2.6-0.7h0.6l0.6,0.1l0.7,0.1c0.3,0,0.6,0.1,0.9,0.2l-0.1,1.3c-0.6-0.1-1.1-0.2-1.5-0.3s-0.8-0.1-1.1-0.1
	c-1.5,0-2.2,0.5-2.2,1.5c0,0.2,0.1,0.5,0.2,0.7c0.1,0.2,0.3,0.4,0.5,0.5s0.5,0.2,0.7,0.3c0.3,0.1,0.6,0.1,0.9,0.2
	c0.4,0.1,0.8,0.2,1.2,0.3s0.7,0.3,1,0.5s0.5,0.5,0.6,0.8c0.2,0.4,0.2,0.8,0.2,1.2c0,0.8-0.3,1.6-0.9,2.1
	C579.1,101.3,578.1,101.6,577.1,101.5z"/>
<path class="st3" d="M585.6,91.8v-0.2h1.6l2.5,7l0.4,1.5h0.2l0.4-1.5l2.5-7h1.6v0.2l-3.7,9.5h-2L585.6,91.8z"/>
<path class="st3" d="M598.5,101.4c-0.7,0-1.4-0.2-1.9-0.7s-0.7-1.2-0.7-1.9c0-0.8,0.3-1.6,0.9-2.1c0.8-0.6,1.8-0.9,2.8-0.9l2.3-0.2
	v-0.7c0-0.4,0-0.7-0.1-1.1c-0.1-0.3-0.2-0.5-0.4-0.7s-0.5-0.3-0.8-0.4c-0.4-0.1-0.8-0.1-1.2-0.1s-0.9,0-1.3,0.1
	c-0.5,0-1,0.1-1.5,0.2l-0.1-1.2c0.6-0.1,1.2-0.2,1.7-0.3s1-0.1,1.6-0.1c1-0.1,2,0.2,2.8,0.8c0.6,0.6,1,1.5,0.9,2.4v6.6h-1.3L602,100
	h-0.1c-0.5,0.4-1.1,0.7-1.7,1S599.1,101.4,598.5,101.4z M599,100.2c0.5,0,1-0.1,1.4-0.3c0.5-0.2,1-0.5,1.5-0.8v-2.4l-1.9,0.2
	c-0.7,0-1.4,0.2-2,0.6c-0.4,0.3-0.6,0.8-0.6,1.4C597.5,99.7,598,100.2,599,100.2z"/>
<path class="st3" d="M606.2,86.8h1.6v14.5h-1.6V86.8z"/>
<path class="st3" d="M611.3,89.6c-0.5,0.1-0.9-0.2-1-0.7c0-0.1,0-0.2,0-0.3c-0.1-0.5,0.2-0.9,0.7-1c0.1,0,0.2,0,0.3,0
	c0.7,0,1,0.3,1,1S612,89.6,611.3,89.6z M610.5,91.6h1.6v9.7h-1.6V91.6z"/>
<path class="st3" d="M618.4,101.5c-1.1,0.1-2.2-0.4-3-1.2c-0.8-1.1-1.1-2.4-1-3.8c0-0.8,0.1-1.5,0.3-2.3c0.2-0.6,0.6-1.1,1-1.6
	c0.4-0.4,0.9-0.8,1.5-1s1.3-0.3,2-0.3c0.4,0,0.8,0,1.2,0.1l1.1,0.1v-4.8h1.6v14.5h-1.4l-0.1-1.2h-0.1
	C620.7,101.1,619.6,101.6,618.4,101.5z M618.7,100.2c0.3,0,0.7-0.1,1-0.2s0.6-0.2,0.9-0.4c0.2-0.2,0.5-0.4,0.6-0.7s0.2-0.6,0.2-0.9
	v-5.2c-0.4-0.1-0.7-0.1-1.1-0.1c-0.4,0-0.8-0.1-1.2-0.1c-0.9-0.1-1.8,0.3-2.4,0.9c-0.6,0.8-0.9,1.9-0.8,2.9c-0.1,1,0.1,2,0.7,2.9
	C617.1,100,617.9,100.3,618.7,100.2L618.7,100.2z"/>
<path class="st3" d="M627,97.8l-0.1-3.4c0.4-0.1,0.8-0.2,1.2-0.3s0.8-0.3,1.1-0.5s0.6-0.5,0.8-0.8c0.2-0.4,0.3-0.8,0.3-1.2
	s-0.1-0.8-0.2-1.1c-0.1-0.3-0.3-0.5-0.6-0.7c-0.2-0.2-0.5-0.3-0.8-0.4s-0.7-0.1-1-0.1c-0.4,0-0.9,0-1.3,0.1
	c-0.4,0.1-0.9,0.2-1.3,0.3l-0.1-1.2c0.5-0.1,1-0.3,1.5-0.3c0.5-0.1,1.1-0.1,1.6-0.1s1,0.1,1.5,0.2c0.4,0.1,0.9,0.3,1.2,0.6
	c0.4,0.3,0.6,0.7,0.8,1.1c0.2,0.5,0.3,1.1,0.3,1.7c0,1-0.4,2-1.1,2.7c-0.3,0.3-0.7,0.5-1.2,0.7c-0.4,0.2-0.8,0.3-1.3,0.4v2.6v0.3
	h-1.2L627,97.8z M627.6,101.3c-0.2,0-0.5-0.1-0.7-0.3s-0.3-0.4-0.3-0.7s0.1-0.5,0.3-0.7s0.4-0.3,0.7-0.2c0.3,0,0.5,0.1,0.7,0.2
	c0.2,0.2,0.3,0.4,0.3,0.7c0,0.2-0.1,0.5-0.3,0.7C628.1,101.3,627.9,101.4,627.6,101.3L627.6,101.3z"/>
<g>
	<rect x="330.6" y="240.4" class="st0" width="1" height="70.3"/>
	<polygon class="st0" points="326.1,306.6 331.1,315.3 336.1,306.6 	"/>
	<rect x="331.1" y="239.5" class="st0" width="206.7" height="1"/>
</g>
<rect x="368.5" y="350.8" class="st0" width="528.6" height="1"/>
<polygon class="st0" points="375.7,346.3 367.1,351.3 375.7,356.3 "/>
<g>
	<rect x="999.2" y="139.4" class="st0" width="1" height="159.6"/>
	<polygon class="st0" points="994.7,297.6 999.7,306.3 1004.6,297.6 	"/>
</g>
<rect x="896.2" y="306.3" class="st1" width="207" height="90"/>
<path class="st0" d="M1102.2,307.3v88h-205v-88H1102.2 M1103.2,306.3h-207v90h207V306.3z"/>
<g>
	<g>
		<path class="st5" d="M248.6,88.9h1.9l2.8,7.7L254,99h0.1l0.8-2.4l2.8-7.7h1.9l-4.2,11.8h-2.4L248.6,88.9z"/>
		<path class="st5" d="M262.6,100.8c-0.8,0-1.4-0.2-1.8-0.6c-0.4-0.4-0.6-1-0.6-1.7c0-0.8,0.3-1.5,0.8-1.9c0.5-0.4,1.4-0.7,2.5-0.8
			l2-0.2v-0.5c0-0.4,0-0.6-0.1-0.9c-0.1-0.2-0.2-0.4-0.3-0.6c-0.2-0.1-0.4-0.2-0.6-0.3s-0.6-0.1-1-0.1c-0.4,0-0.8,0-1.2,0.1
			c-0.4,0-0.9,0.1-1.4,0.2l-0.1-1.3c1.1-0.2,2.1-0.3,3.1-0.3c1.2,0,2.1,0.2,2.6,0.7c0.6,0.5,0.9,1.2,0.9,2.2v5.9h-1.5l-0.2-1.1h-0.1
			c-0.5,0.4-1,0.7-1.5,0.9C263.6,100.7,263.1,100.8,262.6,100.8z M263.3,99.5c0.4,0,0.7-0.1,1.1-0.2c0.4-0.2,0.8-0.4,1.1-0.6v-2
			l-1.5,0.1c-0.7,0.1-1.3,0.2-1.6,0.4c-0.3,0.2-0.4,0.6-0.4,1.1C262,99.1,262.5,99.5,263.3,99.5z"/>
		<path class="st5" d="M269.6,87.8h1.8v12.9h-1.8V87.8z"/>
		<path class="st5" d="M274.6,90.4c-0.4,0-0.6-0.1-0.8-0.2c-0.2-0.2-0.2-0.4-0.2-0.8s0.1-0.6,0.2-0.8c0.2-0.2,0.4-0.2,0.8-0.2
			s0.6,0.1,0.8,0.3c0.2,0.2,0.2,0.4,0.2,0.8s-0.1,0.6-0.2,0.8C275.2,90.3,275,90.4,274.6,90.4z M273.7,92.1h1.8v8.6h-1.8V92.1z"/>
		<path class="st5" d="M281,100.9c-1.2,0-2.1-0.4-2.7-1.1c-0.6-0.7-0.9-1.8-0.9-3.3c0-0.8,0.1-1.4,0.3-2c0.2-0.6,0.5-1.1,0.9-1.4
			c0.4-0.4,0.9-0.7,1.4-0.9c0.5-0.2,1.2-0.3,1.8-0.3c0.3,0,0.7,0,1,0c0.3,0,0.6,0.1,0.9,0.1v-4.3h1.8v12.9h-1.6l-0.1-1.1h-0.1
			C283,100.5,282.2,100.9,281,100.9z M281.4,99.5c0.3,0,0.6,0,0.9-0.1c0.3-0.1,0.5-0.2,0.7-0.4s0.4-0.4,0.5-0.6
			c0.1-0.2,0.2-0.5,0.2-0.8v-4.2c-0.3-0.1-0.6-0.1-0.9-0.1c-0.3,0-0.7,0-1,0c-0.9,0-1.5,0.2-2,0.7c-0.4,0.5-0.6,1.3-0.6,2.5
			c0,1.1,0.2,1.9,0.5,2.4C280.1,99.2,280.6,99.5,281.4,99.5z"/>
		<path class="st5" d="M289.5,100.8c-0.8,0-1.4-0.2-1.8-0.6c-0.4-0.4-0.6-1-0.6-1.7c0-0.8,0.3-1.5,0.8-1.9c0.5-0.4,1.4-0.7,2.5-0.8
			l2-0.2v-0.5c0-0.4,0-0.6-0.1-0.9c-0.1-0.2-0.2-0.4-0.3-0.6c-0.2-0.1-0.4-0.2-0.6-0.3s-0.6-0.1-1-0.1c-0.4,0-0.8,0-1.2,0.1
			c-0.4,0-0.9,0.1-1.4,0.2l-0.1-1.3c1.1-0.2,2.1-0.3,3.1-0.3c1.2,0,2.1,0.2,2.6,0.7c0.6,0.5,0.9,1.2,0.9,2.2v5.9h-1.5l-0.2-1.1h-0.1
			c-0.5,0.4-1,0.7-1.5,0.9C290.5,100.7,290,100.8,289.5,100.8z M290.2,99.5c0.4,0,0.7-0.1,1.1-0.2c0.4-0.2,0.8-0.4,1.1-0.6v-2
			l-1.5,0.1c-0.7,0.1-1.3,0.2-1.6,0.4c-0.3,0.2-0.4,0.6-0.4,1.1C289,99.1,289.4,99.5,290.2,99.5z"/>
		<path class="st5" d="M300,100.9c-0.9,0-1.5-0.2-2-0.6c-0.4-0.4-0.7-1.1-0.7-1.9v-4.7h-1.7v-1.5h1.8l0.3-2.3l1.4-0.2v2.4h2.4v1.5
			h-2.4v4.3c0,0.5,0.1,0.9,0.3,1.1c0.2,0.2,0.6,0.4,1.1,0.4c0.1,0,0.3,0,0.5,0c0.2,0,0.4-0.1,0.6-0.1v1.4c-0.2,0.1-0.5,0.1-0.8,0.2
			C300.5,100.8,300.3,100.9,300,100.9z"/>
		<path class="st5" d="M306.8,100.8c-1.4,0-2.4-0.4-3.1-1.1c-0.7-0.7-1-1.8-1-3.3c0-1.5,0.3-2.6,1-3.4c0.7-0.8,1.7-1.2,3-1.2
			c2.3,0,3.5,1.3,3.5,3.9c0,0.5,0,0.9-0.1,1.2h-5.6c0.1,0.9,0.3,1.5,0.7,1.9c0.4,0.4,1,0.6,1.9,0.6c0.4,0,0.9,0,1.4-0.1
			s1-0.2,1.4-0.3l0.1,1.3c-0.4,0.2-0.9,0.3-1.5,0.4C307.9,100.8,307.3,100.8,306.8,100.8z M306.7,93.2c-0.7,0-1.2,0.2-1.6,0.6
			s-0.6,1.1-0.6,2h4.1c0-0.9-0.2-1.6-0.5-2S307.3,93.2,306.7,93.2z"/>
		<path class="st5" d="M319.2,100.9c-0.9,0-1.5-0.2-2-0.6c-0.4-0.4-0.7-1.1-0.7-1.9v-4.7h-1.7v-1.5h1.8l0.3-2.3l1.4-0.2v2.4h2.4v1.5
			h-2.4v4.3c0,0.5,0.1,0.9,0.3,1.1c0.2,0.2,0.6,0.4,1.1,0.4c0.1,0,0.3,0,0.5,0c0.2,0,0.4-0.1,0.6-0.1v1.4c-0.2,0.1-0.5,0.1-0.8,0.2
			C319.7,100.8,319.4,100.9,319.2,100.9z"/>
		<path class="st5" d="M322.3,87.8h1.8V93c0.8-0.4,1.5-0.7,2-0.8c0.6-0.2,1.1-0.3,1.6-0.3c0.7,0,1.3,0.2,1.7,0.6s0.6,1,0.6,1.8v6.4
			h-1.8v-5.8c0-0.5-0.1-0.9-0.3-1.2c-0.2-0.2-0.5-0.4-1-0.4c-0.4,0-0.8,0.1-1.3,0.2c-0.5,0.2-1,0.4-1.6,0.6v6.5h-1.8V87.8z"/>
		<path class="st5" d="M335.9,100.8c-1.4,0-2.4-0.4-3.1-1.1c-0.7-0.7-1-1.8-1-3.3c0-1.5,0.3-2.6,1-3.4c0.7-0.8,1.7-1.2,3-1.2
			c2.3,0,3.5,1.3,3.5,3.9c0,0.5,0,0.9-0.1,1.2h-5.6c0.1,0.9,0.3,1.5,0.7,1.9c0.4,0.4,1,0.6,1.9,0.6c0.4,0,0.9,0,1.4-0.1
			s1-0.2,1.4-0.3l0.1,1.3c-0.4,0.2-0.9,0.3-1.5,0.4C337,100.8,336.5,100.8,335.9,100.8z M335.8,93.2c-0.7,0-1.2,0.2-1.6,0.6
			s-0.6,1.1-0.6,2h4.1c0-0.9-0.2-1.6-0.5-2C336.9,93.4,336.5,93.2,335.8,93.2z"/>
		<path class="st5" d="M345,88.9c1.1-0.2,2.1-0.2,3.1-0.2c2,0,3.4,0.3,4.3,1c0.9,0.7,1.3,1.7,1.3,3.2c0,1.4-0.4,2.5-1.3,3.2
			c-0.9,0.7-2.3,1-4.2,1c-0.2,0-0.4,0-0.7,0c-0.2,0-0.5,0-0.7,0v3.7H345V88.9z M348.5,95.6c0.6,0,1.1,0,1.6-0.1
			c0.4-0.1,0.8-0.3,1-0.5s0.5-0.5,0.6-0.8c0.1-0.3,0.2-0.8,0.2-1.2c0-0.5-0.1-0.9-0.2-1.2c-0.1-0.3-0.3-0.6-0.6-0.8
			c-0.3-0.2-0.6-0.4-1-0.5c-0.4-0.1-1-0.2-1.6-0.2c-0.3,0-0.6,0-0.9,0c-0.3,0-0.6,0-0.8,0.1v5.1c0.2,0,0.4,0.1,0.8,0.1
			C347.9,95.6,348.2,95.6,348.5,95.6z"/>
		<path class="st5" d="M360.3,100.9c-1.7,0-3-0.5-3.9-1.5c-0.9-1-1.4-2.5-1.4-4.5s0.5-3.5,1.4-4.6c0.9-1,2.2-1.5,3.9-1.5
			c1.7,0,3,0.5,4,1.5c0.9,1,1.4,2.5,1.4,4.6c0,2-0.5,3.5-1.4,4.5C363.4,100.3,362,100.9,360.3,100.9z M360.3,99.4
			c1.2,0,2.1-0.4,2.6-1.1c0.6-0.7,0.8-1.9,0.8-3.5s-0.3-2.7-0.9-3.5c-0.6-0.7-1.4-1.1-2.6-1.1c-1.2,0-2.1,0.4-2.6,1.1
			c-0.6,0.7-0.8,1.9-0.8,3.5c0,1.6,0.3,2.7,0.8,3.5C358.3,99,359.1,99.4,360.3,99.4z"/>
		<path class="st5" d="M371,100.9c-0.6,0-1.2,0-1.9-0.1s-1.4-0.2-2-0.4v-1.5c0.7,0.2,1.3,0.3,2,0.4c0.7,0.1,1.3,0.1,1.8,0.1
			c1.8,0,2.7-0.6,2.7-1.8c0-0.3-0.1-0.6-0.2-0.8c-0.1-0.2-0.3-0.4-0.5-0.6s-0.5-0.3-0.8-0.4s-0.7-0.2-1-0.3
			c-0.6-0.2-1.2-0.3-1.6-0.5c-0.5-0.2-0.8-0.4-1.1-0.7c-0.3-0.3-0.5-0.6-0.7-1c-0.1-0.4-0.2-0.8-0.2-1.3c0-0.5,0.1-1,0.3-1.4
			c0.2-0.4,0.5-0.8,0.8-1s0.8-0.5,1.3-0.7c0.5-0.2,1.1-0.2,1.8-0.2c0.5,0,1,0,1.5,0.1c0.5,0.1,1.1,0.2,1.8,0.3v1.5
			c-0.5-0.1-1-0.2-1.6-0.3s-1.1-0.1-1.5-0.1c-0.8,0-1.4,0.2-1.9,0.5c-0.4,0.3-0.7,0.8-0.7,1.3c0,0.5,0.2,1,0.6,1.3
			c0.4,0.3,1.1,0.6,2,0.8c0.6,0.1,1.1,0.3,1.5,0.5c0.4,0.2,0.8,0.4,1.2,0.7c0.3,0.3,0.6,0.6,0.7,1s0.3,0.8,0.3,1.4
			c0,1.1-0.4,1.9-1.1,2.5C373.5,100.6,372.4,100.9,371,100.9z"/>
		<path class="st5" d="M383.9,100.9c-1.2,0-2.1-0.4-2.7-1.1c-0.6-0.7-0.9-1.8-0.9-3.3c0-0.8,0.1-1.4,0.3-2c0.2-0.6,0.5-1.1,0.9-1.4
			c0.4-0.4,0.9-0.7,1.4-0.9c0.5-0.2,1.2-0.3,1.8-0.3c0.3,0,0.7,0,1,0c0.3,0,0.6,0.1,0.9,0.1v-4.3h1.8v12.9h-1.6l-0.1-1.1h-0.1
			C386,100.5,385.1,100.9,383.9,100.9z M384.4,99.5c0.3,0,0.6,0,0.9-0.1c0.3-0.1,0.5-0.2,0.7-0.4c0.2-0.2,0.4-0.4,0.5-0.6
			c0.1-0.2,0.2-0.5,0.2-0.8v-4.2c-0.3-0.1-0.6-0.1-0.9-0.1c-0.3,0-0.7,0-1,0c-0.9,0-1.5,0.2-2,0.7s-0.6,1.3-0.6,2.5
			c0,1.1,0.2,1.9,0.5,2.4C383,99.2,383.6,99.5,384.4,99.5z"/>
		<path class="st5" d="M392.5,100.8c-0.8,0-1.4-0.2-1.8-0.6s-0.6-1-0.6-1.7c0-0.8,0.3-1.5,0.8-1.9s1.4-0.7,2.5-0.8l2-0.2v-0.5
			c0-0.4,0-0.6-0.1-0.9c-0.1-0.2-0.2-0.4-0.3-0.6s-0.4-0.2-0.6-0.3s-0.6-0.1-1-0.1c-0.4,0-0.8,0-1.2,0.1c-0.4,0-0.9,0.1-1.4,0.2
			l-0.1-1.3c1.1-0.2,2.1-0.3,3.1-0.3c1.2,0,2.1,0.2,2.6,0.7c0.6,0.5,0.9,1.2,0.9,2.2v5.9h-1.5l-0.2-1.1h-0.1c-0.5,0.4-1,0.7-1.5,0.9
			S393,100.8,392.5,100.8z M393.2,99.5c0.4,0,0.7-0.1,1.1-0.2c0.4-0.2,0.8-0.4,1.1-0.6v-2l-1.5,0.1c-0.7,0.1-1.3,0.2-1.6,0.4
			c-0.3,0.2-0.4,0.6-0.4,1.1C391.9,99.1,392.3,99.5,393.2,99.5z"/>
		<path class="st5" d="M402.9,100.9c-0.9,0-1.5-0.2-2-0.6c-0.4-0.4-0.7-1.1-0.7-1.9v-4.7h-1.7v-1.5h1.8l0.3-2.3l1.4-0.2v2.4h2.4v1.5
			h-2.4v4.3c0,0.5,0.1,0.9,0.3,1.1c0.2,0.2,0.6,0.4,1.1,0.4c0.1,0,0.3,0,0.5,0c0.2,0,0.4-0.1,0.6-0.1v1.4c-0.2,0.1-0.5,0.1-0.8,0.2
			C403.5,100.8,403.2,100.9,402.9,100.9z"/>
		<path class="st5" d="M407.9,100.8c-0.8,0-1.4-0.2-1.8-0.6s-0.6-1-0.6-1.7c0-0.8,0.3-1.5,0.8-1.9s1.4-0.7,2.5-0.8l2-0.2v-0.5
			c0-0.4,0-0.6-0.1-0.9c-0.1-0.2-0.2-0.4-0.3-0.6s-0.4-0.2-0.6-0.3s-0.6-0.1-1-0.1c-0.4,0-0.8,0-1.2,0.1c-0.4,0-0.9,0.1-1.4,0.2
			l-0.1-1.3c1.1-0.2,2.1-0.3,3.1-0.3c1.2,0,2.1,0.2,2.6,0.7c0.6,0.5,0.9,1.2,0.9,2.2v5.9h-1.5l-0.2-1.1h-0.1c-0.5,0.4-1,0.7-1.5,0.9
			S408.4,100.8,407.9,100.8z M408.6,99.5c0.4,0,0.7-0.1,1.1-0.2c0.4-0.2,0.8-0.4,1.1-0.6v-2l-1.5,0.1c-0.7,0.1-1.3,0.2-1.6,0.4
			c-0.3,0.2-0.4,0.6-0.4,1.1C407.3,99.1,407.7,99.5,408.6,99.5z"/>
	</g>
</g>
<rect x="450.2" y="306.3" class="st1" width="247" height="90"/>
<path class="st0" d="M696.2,307.3v88h-245v-88H696.2 M697.2,306.3h-247v90h247V306.3z"/>
<g>
	<path class="st5" d="M920.8,91.3c-0.6,0-1.2,0-1.9-0.1c-0.7-0.1-1.4-0.2-2-0.4v-1.5c0.7,0.2,1.3,0.3,2,0.4c0.7,0.1,1.3,0.1,1.8,0.1
		c1.8,0,2.7-0.6,2.7-1.8c0-0.3-0.1-0.6-0.2-0.8c-0.1-0.2-0.3-0.4-0.5-0.6s-0.5-0.3-0.8-0.4c-0.3-0.1-0.7-0.2-1-0.3
		c-0.6-0.2-1.2-0.3-1.6-0.5c-0.5-0.2-0.8-0.4-1.1-0.7c-0.3-0.3-0.5-0.6-0.7-1c-0.1-0.4-0.2-0.8-0.2-1.3c0-0.5,0.1-1,0.3-1.4
		c0.2-0.4,0.5-0.8,0.8-1s0.8-0.5,1.3-0.7c0.5-0.2,1.1-0.2,1.8-0.2c0.5,0,1,0,1.5,0.1c0.5,0.1,1.1,0.2,1.8,0.3V81
		c-0.5-0.1-1-0.2-1.6-0.3c-0.6-0.1-1.1-0.1-1.5-0.1c-0.8,0-1.4,0.2-1.9,0.5c-0.4,0.3-0.7,0.8-0.7,1.3c0,0.5,0.2,1,0.6,1.3
		c0.4,0.3,1.1,0.6,2,0.8c0.6,0.1,1.1,0.3,1.5,0.5s0.8,0.4,1.2,0.7c0.3,0.3,0.6,0.6,0.7,1c0.2,0.4,0.3,0.8,0.3,1.4
		c0,1.1-0.4,1.9-1.1,2.5C923.3,91,922.2,91.3,920.8,91.3z"/>
	<path class="st5" d="M930.6,91.2c-1.4,0-2.4-0.4-3.1-1.1c-0.7-0.7-1-1.8-1-3.3c0-1.5,0.3-2.6,1-3.4c0.7-0.8,1.7-1.2,3-1.2
		c2.3,0,3.5,1.3,3.5,3.9c0,0.5,0,0.9-0.1,1.2h-5.6c0.1,0.9,0.3,1.5,0.7,1.9c0.4,0.4,1,0.6,1.9,0.6c0.4,0,0.9,0,1.4-0.1
		s1-0.2,1.4-0.3l0.1,1.3c-0.4,0.2-0.9,0.3-1.5,0.4C931.7,91.2,931.1,91.2,930.6,91.2z M930.5,83.6c-0.7,0-1.2,0.2-1.6,0.6
		s-0.6,1.1-0.6,2h4.1c0-0.9-0.2-1.6-0.5-2C931.6,83.8,931.1,83.6,930.5,83.6z"/>
	<path class="st5" d="M935.8,82.5h1.5l0.1,1h0.1c0.8-0.4,1.5-0.7,2.1-0.9c0.6-0.2,1.1-0.3,1.6-0.3c0.7,0,1.3,0.2,1.7,0.6
		c0.4,0.4,0.6,1,0.6,1.8v6.4h-1.8v-5.8c0-0.5-0.1-0.9-0.3-1.2c-0.2-0.2-0.5-0.4-1-0.4c-0.4,0-0.8,0.1-1.3,0.2s-1,0.4-1.6,0.6v6.5
		h-1.8V82.5z"/>
	<path class="st5" d="M948.9,91.3c-1.2,0-2.1-0.4-2.7-1.1c-0.6-0.7-0.9-1.8-0.9-3.3c0-0.8,0.1-1.4,0.3-2c0.2-0.6,0.5-1.1,0.9-1.4
		c0.4-0.4,0.9-0.7,1.4-0.9c0.5-0.2,1.2-0.3,1.8-0.3c0.3,0,0.7,0,1,0c0.3,0,0.6,0.1,0.9,0.1v-4.3h1.8v12.9h-1.6l-0.1-1.1h-0.1
		C951,90.9,950.1,91.3,948.9,91.3z M949.4,89.9c0.3,0,0.6,0,0.9-0.1c0.3-0.1,0.5-0.2,0.7-0.4c0.2-0.2,0.4-0.4,0.5-0.6
		c0.1-0.2,0.2-0.5,0.2-0.8v-4.2c-0.3-0.1-0.6-0.1-0.9-0.1c-0.3,0-0.7,0-1,0c-0.9,0-1.5,0.2-2,0.7s-0.6,1.3-0.6,2.5
		c0,1.1,0.2,1.9,0.5,2.4C948,89.6,948.6,89.9,949.4,89.9z"/>
	<path class="st5" d="M961.1,91.2c-0.8,0-1.4-0.2-1.8-0.6c-0.4-0.4-0.6-1-0.6-1.7c0-0.8,0.3-1.5,0.8-1.9c0.5-0.4,1.4-0.7,2.5-0.8
		l2-0.2v-0.5c0-0.4,0-0.6-0.1-0.9c-0.1-0.2-0.2-0.4-0.3-0.6s-0.4-0.2-0.6-0.3s-0.6-0.1-1-0.1c-0.4,0-0.8,0-1.2,0.1s-0.9,0.1-1.4,0.2
		l-0.1-1.3c1.1-0.2,2.1-0.3,3.1-0.3c1.2,0,2.1,0.2,2.6,0.7s0.9,1.2,0.9,2.2v5.9h-1.5l-0.2-1.1h-0.1c-0.5,0.4-1,0.7-1.5,0.9
		S961.7,91.2,961.1,91.2z M961.8,89.9c0.4,0,0.7-0.1,1.1-0.2c0.4-0.2,0.8-0.4,1.1-0.6v-2l-1.5,0.1c-0.7,0.1-1.3,0.2-1.6,0.4
		c-0.3,0.2-0.4,0.6-0.4,1.1C960.6,89.5,961,89.9,961.8,89.9z"/>
	<path class="st5" d="M968.1,82.5h1.5l0.1,1h0.1c0.8-0.4,1.5-0.7,2.1-0.9c0.6-0.2,1.1-0.3,1.6-0.3c0.7,0,1.3,0.2,1.7,0.6
		c0.4,0.4,0.6,1,0.6,1.8v6.4H974v-5.8c0-0.5-0.1-0.9-0.3-1.2c-0.2-0.2-0.5-0.4-1-0.4c-0.4,0-0.8,0.1-1.3,0.2c-0.5,0.2-1,0.4-1.6,0.6
		v6.5h-1.8V82.5z"/>
	<path class="st5" d="M985.1,91.3c-0.6,0-1.2,0-1.9-0.1c-0.7-0.1-1.4-0.2-2-0.4v-1.5c0.7,0.2,1.3,0.3,2,0.4c0.7,0.1,1.3,0.1,1.8,0.1
		c1.8,0,2.7-0.6,2.7-1.8c0-0.3-0.1-0.6-0.2-0.8c-0.1-0.2-0.3-0.4-0.5-0.6s-0.5-0.3-0.8-0.4s-0.7-0.2-1-0.3c-0.6-0.2-1.2-0.3-1.6-0.5
		c-0.5-0.2-0.8-0.4-1.1-0.7c-0.3-0.3-0.5-0.6-0.7-1c-0.1-0.4-0.2-0.8-0.2-1.3c0-0.5,0.1-1,0.3-1.4c0.2-0.4,0.5-0.8,0.8-1
		c0.4-0.3,0.8-0.5,1.3-0.7c0.5-0.2,1.1-0.2,1.8-0.2c0.5,0,1,0,1.5,0.1c0.5,0.1,1.1,0.2,1.8,0.3V81c-0.5-0.1-1-0.2-1.6-0.3
		s-1.1-0.1-1.5-0.1c-0.8,0-1.4,0.2-1.9,0.5c-0.4,0.3-0.7,0.8-0.7,1.3c0,0.5,0.2,1,0.6,1.3c0.4,0.3,1.1,0.6,2,0.8
		c0.6,0.1,1.1,0.3,1.5,0.5c0.4,0.2,0.8,0.4,1.2,0.7s0.6,0.6,0.7,1s0.3,0.8,0.3,1.4c0,1.1-0.4,1.9-1.1,2.5
		C987.7,91,986.6,91.3,985.1,91.3z"/>
	<path class="st5" d="M991.4,79.3h2.5l2.8,6.8l0.9,2.5h0.1l0.9-2.5l2.8-6.8h2.5v11.8h-1.6v-9.6h-0.1l-1.3,3.3l-2.4,5.9h-1.6
		l-2.4-5.9l-1.3-3.3h-0.1v9.6h-1.6V79.3z"/>
	<path class="st5" d="M1009.9,91.3c-0.6,0-1.2,0-1.9-0.1c-0.7-0.1-1.4-0.2-2-0.4v-1.5c0.7,0.2,1.3,0.3,2,0.4
		c0.7,0.1,1.3,0.1,1.8,0.1c1.8,0,2.7-0.6,2.7-1.8c0-0.3-0.1-0.6-0.2-0.8c-0.1-0.2-0.3-0.4-0.5-0.6s-0.5-0.3-0.8-0.4s-0.7-0.2-1-0.3
		c-0.6-0.2-1.2-0.3-1.6-0.5c-0.5-0.2-0.8-0.4-1.1-0.7c-0.3-0.3-0.5-0.6-0.7-1c-0.1-0.4-0.2-0.8-0.2-1.3c0-0.5,0.1-1,0.3-1.4
		c0.2-0.4,0.5-0.8,0.8-1c0.4-0.3,0.8-0.5,1.3-0.7c0.5-0.2,1.1-0.2,1.8-0.2c0.5,0,1,0,1.5,0.1c0.5,0.1,1.1,0.2,1.8,0.3V81
		c-0.5-0.1-1-0.2-1.6-0.3s-1.1-0.1-1.5-0.1c-0.8,0-1.4,0.2-1.9,0.5c-0.4,0.3-0.7,0.8-0.7,1.3c0,0.5,0.2,1,0.6,1.3
		c0.4,0.3,1.1,0.6,2,0.8c0.6,0.1,1.1,0.3,1.5,0.5c0.4,0.2,0.8,0.4,1.2,0.7s0.6,0.6,0.7,1s0.3,0.8,0.3,1.4c0,1.1-0.4,1.9-1.1,2.5
		C1012.4,91,1011.3,91.3,1009.9,91.3z"/>
	<path class="st5" d="M1022.8,94.6c-0.5,0-1.1,0-1.6-0.1s-1-0.1-1.4-0.3l0.1-1.4c0.4,0.1,0.8,0.2,1.3,0.2s0.9,0.1,1.4,0.1
		c0.4,0,0.8,0,1.2-0.1c0.4-0.1,0.7-0.2,1-0.5s0.5-0.5,0.6-0.9s0.2-0.8,0.2-1.4v-0.6h-0.1c-0.6,0.8-1.5,1.2-2.7,1.2s-2.1-0.3-2.7-1
		c-0.6-0.7-0.9-1.7-0.9-3.2c0-0.8,0.1-1.4,0.3-2s0.5-1,0.9-1.4c0.4-0.4,0.9-0.7,1.4-0.8c0.5-0.2,1.2-0.3,1.8-0.3
		c0.5,0,1.1,0,1.6,0.1c0.6,0.1,1.3,0.2,2,0.4v7.3c0,0.9-0.1,1.6-0.4,2.1s-0.6,1-1,1.4c-0.4,0.3-0.9,0.6-1.4,0.7
		S1023.5,94.6,1022.8,94.6z M1023.2,89.7c0.3,0,0.6,0,0.9-0.1s0.5-0.2,0.7-0.4s0.4-0.4,0.5-0.6c0.1-0.2,0.2-0.5,0.2-0.8v-4
		c-0.3-0.1-0.6-0.1-0.9-0.1c-0.3,0-0.7,0-1,0c-0.9,0-1.5,0.2-2,0.7c-0.4,0.5-0.6,1.3-0.6,2.4c0,1.1,0.2,1.8,0.5,2.3
		C1021.9,89.4,1022.4,89.7,1023.2,89.7z"/>
	<path class="st5" d="M1029.5,82.5h1.5l0.1,1.2h0.1c0.5-0.3,1.1-0.6,1.6-0.9c0.5-0.2,1-0.4,1.4-0.5h0.6v1.6h-0.6
		c-0.5,0.1-1,0.2-1.4,0.4c-0.5,0.2-0.9,0.4-1.4,0.6v6.2h-1.8V82.5z"/>
	<path class="st5" d="M1039.8,91.2c-1.4,0-2.4-0.4-3.1-1.1c-0.7-0.7-1-1.8-1-3.3c0-1.5,0.3-2.6,1-3.4c0.7-0.8,1.7-1.2,3-1.2
		c2.3,0,3.5,1.3,3.5,3.9c0,0.5,0,0.9-0.1,1.2h-5.6c0.1,0.9,0.3,1.5,0.7,1.9c0.4,0.4,1,0.6,1.9,0.6c0.4,0,0.9,0,1.4-0.1
		s1-0.2,1.4-0.3l0.1,1.3c-0.4,0.2-0.9,0.3-1.5,0.4C1040.9,91.2,1040.3,91.2,1039.8,91.2z M1039.7,83.6c-0.7,0-1.2,0.2-1.6,0.6
		s-0.6,1.1-0.6,2h4.1c0-0.9-0.2-1.6-0.5-2C1040.8,83.8,1040.3,83.6,1039.7,83.6z"/>
	<path class="st5" d="M1048.7,91.2c-1.4,0-2.4-0.4-3.1-1.1c-0.7-0.7-1-1.8-1-3.3c0-1.5,0.3-2.6,1-3.4c0.7-0.8,1.7-1.2,3-1.2
		c2.3,0,3.5,1.3,3.5,3.9c0,0.5,0,0.9-0.1,1.2h-5.6c0.1,0.9,0.3,1.5,0.7,1.9c0.4,0.4,1,0.6,1.9,0.6c0.4,0,0.9,0,1.4-0.1
		s1-0.2,1.4-0.3l0.1,1.3c-0.4,0.2-0.9,0.3-1.5,0.4C1049.8,91.2,1049.3,91.2,1048.7,91.2z M1048.6,83.6c-0.7,0-1.2,0.2-1.6,0.6
		s-0.6,1.1-0.6,2h4.1c0-0.9-0.2-1.6-0.5-2C1049.7,83.8,1049.3,83.6,1048.6,83.6z"/>
	<path class="st5" d="M1057.4,91.3c-0.9,0-1.5-0.2-2-0.6c-0.4-0.4-0.7-1.1-0.7-1.9V84h-1.7v-1.5h1.8l0.3-2.3l1.4-0.2v2.4h2.4V84
		h-2.4v4.3c0,0.5,0.1,0.9,0.3,1.1c0.2,0.2,0.6,0.4,1.1,0.4c0.1,0,0.3,0,0.5,0c0.2,0,0.4-0.1,0.6-0.1v1.4c-0.2,0.1-0.5,0.1-0.8,0.2
		C1058,91.2,1057.7,91.3,1057.4,91.3z"/>
	<path class="st5" d="M1061.5,80.8c-0.4,0-0.6-0.1-0.8-0.2c-0.2-0.2-0.2-0.4-0.2-0.8s0.1-0.6,0.2-0.8c0.2-0.2,0.4-0.2,0.8-0.2
		c0.4,0,0.6,0.1,0.8,0.3c0.2,0.2,0.2,0.4,0.2,0.8s-0.1,0.6-0.2,0.8C1062.1,80.7,1061.8,80.8,1061.5,80.8z M1060.6,82.5h1.8v8.6h-1.8
		V82.5z"/>
	<path class="st5" d="M1064.7,82.5h1.5l0.1,1h0.1c0.8-0.4,1.5-0.7,2.1-0.9c0.6-0.2,1.1-0.3,1.6-0.3c0.7,0,1.3,0.2,1.7,0.6
		c0.4,0.4,0.6,1,0.6,1.8v6.4h-1.8v-5.8c0-0.5-0.1-0.9-0.3-1.2c-0.2-0.2-0.5-0.4-1-0.4c-0.4,0-0.8,0.1-1.3,0.2
		c-0.5,0.2-1,0.4-1.6,0.6v6.5h-1.8V82.5z"/>
	<path class="st5" d="M1077.8,94.6c-0.5,0-1.1,0-1.6-0.1c-0.5-0.1-1-0.1-1.4-0.3l0.1-1.4c0.4,0.1,0.8,0.2,1.3,0.2s0.9,0.1,1.4,0.1
		c0.4,0,0.8,0,1.2-0.1c0.4-0.1,0.7-0.2,1-0.5s0.5-0.5,0.6-0.9s0.2-0.8,0.2-1.4v-0.6h-0.1c-0.6,0.8-1.5,1.2-2.7,1.2
		c-1.2,0-2.1-0.3-2.7-1c-0.6-0.7-0.9-1.7-0.9-3.2c0-0.8,0.1-1.4,0.3-2s0.5-1,0.9-1.4c0.4-0.4,0.9-0.7,1.4-0.8
		c0.5-0.2,1.2-0.3,1.8-0.3c0.5,0,1.1,0,1.6,0.1c0.6,0.1,1.3,0.2,2,0.4v7.3c0,0.9-0.1,1.6-0.4,2.1c-0.2,0.6-0.6,1-1,1.4
		c-0.4,0.3-0.9,0.6-1.4,0.7C1079,94.5,1078.4,94.6,1077.8,94.6z M1078.2,89.7c0.3,0,0.6,0,0.9-0.1c0.3-0.1,0.5-0.2,0.7-0.4
		s0.4-0.4,0.5-0.6c0.1-0.2,0.2-0.5,0.2-0.8v-4c-0.3-0.1-0.6-0.1-0.9-0.1c-0.3,0-0.7,0-1,0c-0.9,0-1.5,0.2-2,0.7
		c-0.4,0.5-0.6,1.3-0.6,2.4c0,1.1,0.2,1.8,0.5,2.3C1076.8,89.4,1077.4,89.7,1078.2,89.7z"/>
	<path class="st5" d="M905,101.7h1.5l0.1,1h0.1c0.7-0.4,1.2-0.7,1.7-0.9c0.5-0.2,1-0.3,1.4-0.3c1,0,1.7,0.4,2.1,1.2h0.1
		c0.7-0.4,1.3-0.7,1.8-0.9c0.5-0.2,1-0.3,1.4-0.3c0.7,0,1.3,0.2,1.7,0.6c0.4,0.4,0.6,1,0.6,1.8v6.4h-1.8v-5.8c0-0.5-0.1-0.9-0.3-1.2
		s-0.5-0.3-1-0.3c-0.3,0-0.6,0.1-1,0.2s-0.8,0.3-1.2,0.6v6.5h-1.8v-5.8c0-0.5-0.1-0.9-0.3-1.2c-0.2-0.2-0.5-0.3-1-0.3
		c-0.3,0-0.7,0.1-1.1,0.2c-0.4,0.1-0.8,0.3-1.2,0.6v6.5H905V101.7z"/>
	<path class="st5" d="M923.4,110.4c-1.4,0-2.4-0.4-3.1-1.1c-0.7-0.7-1-1.8-1-3.3c0-1.5,0.3-2.6,1-3.4c0.7-0.8,1.7-1.2,3-1.2
		c2.3,0,3.5,1.3,3.5,3.9c0,0.5,0,0.9-0.1,1.2h-5.6c0.1,0.9,0.3,1.5,0.7,1.9c0.4,0.4,1,0.6,1.9,0.6c0.4,0,0.9,0,1.4-0.1
		s1-0.2,1.4-0.3l0.1,1.3c-0.4,0.2-0.9,0.3-1.5,0.4C924.5,110.4,923.9,110.4,923.4,110.4z M923.3,102.8c-0.7,0-1.2,0.2-1.6,0.6
		s-0.6,1.1-0.6,2h4.1c0-0.9-0.2-1.6-0.5-2C924.4,103,923.9,102.8,923.3,102.8z"/>
	<path class="st5" d="M931.3,110.5c-0.4,0-0.9,0-1.4-0.1c-0.5-0.1-1.1-0.2-1.7-0.3v-1.4c0.6,0.1,1.1,0.2,1.6,0.3s1,0.1,1.4,0.1
		c1.2,0,1.8-0.4,1.8-1.2c0-0.4-0.2-0.7-0.5-0.9s-0.7-0.3-1.2-0.4c-0.3-0.1-0.7-0.1-1-0.2c-0.4-0.1-0.7-0.2-1-0.4
		c-0.3-0.2-0.5-0.4-0.7-0.7c-0.2-0.3-0.3-0.7-0.3-1.3c0-0.8,0.3-1.4,0.9-1.9c0.6-0.5,1.4-0.7,2.5-0.7c0.2,0,0.4,0,0.6,0
		s0.4,0,0.6,0.1c0.2,0,0.4,0.1,0.7,0.1c0.3,0,0.5,0.1,0.9,0.2l-0.1,1.4c-0.6-0.1-1-0.2-1.4-0.3c-0.4-0.1-0.8-0.1-1.1-0.1
		c-0.6,0-1,0.1-1.3,0.3s-0.4,0.5-0.4,0.9c0,0.2,0,0.4,0.1,0.6s0.2,0.3,0.4,0.4c0.2,0.1,0.4,0.2,0.6,0.2c0.2,0.1,0.5,0.1,0.8,0.2
		c0.4,0.1,0.8,0.2,1.1,0.3c0.3,0.1,0.6,0.3,0.9,0.5c0.2,0.2,0.4,0.4,0.6,0.7s0.2,0.7,0.2,1.1c0,0.8-0.3,1.5-0.9,1.9
		C933.2,110.2,932.4,110.5,931.3,110.5z"/>
	<path class="st5" d="M939.1,110.5c-0.4,0-0.9,0-1.4-0.1c-0.5-0.1-1.1-0.2-1.7-0.3v-1.4c0.6,0.1,1.1,0.2,1.6,0.3s1,0.1,1.4,0.1
		c1.2,0,1.8-0.4,1.8-1.2c0-0.4-0.2-0.7-0.5-0.9s-0.7-0.3-1.2-0.4c-0.3-0.1-0.7-0.1-1-0.2c-0.4-0.1-0.7-0.2-1-0.4
		c-0.3-0.2-0.5-0.4-0.7-0.7c-0.2-0.3-0.3-0.7-0.3-1.3c0-0.8,0.3-1.4,0.9-1.9c0.6-0.5,1.4-0.7,2.5-0.7c0.2,0,0.4,0,0.6,0
		s0.4,0,0.6,0.1c0.2,0,0.4,0.1,0.7,0.1c0.3,0,0.5,0.1,0.9,0.2l-0.1,1.4c-0.6-0.1-1-0.2-1.4-0.3c-0.4-0.1-0.8-0.1-1.1-0.1
		c-0.6,0-1,0.1-1.3,0.3s-0.4,0.5-0.4,0.9c0,0.2,0,0.4,0.1,0.6s0.2,0.3,0.4,0.4c0.2,0.1,0.4,0.2,0.6,0.2c0.2,0.1,0.5,0.1,0.8,0.2
		c0.4,0.1,0.8,0.2,1.1,0.3c0.3,0.1,0.6,0.3,0.9,0.5c0.2,0.2,0.4,0.4,0.6,0.7s0.2,0.7,0.2,1.1c0,0.8-0.3,1.5-0.9,1.9
		C941.1,110.2,940.2,110.5,939.1,110.5z"/>
	<path class="st5" d="M946.1,110.4c-0.8,0-1.4-0.2-1.8-0.6s-0.6-1-0.6-1.7c0-0.8,0.3-1.5,0.8-1.9s1.4-0.7,2.5-0.8l2-0.2v-0.5
		c0-0.4,0-0.6-0.1-0.9c-0.1-0.2-0.2-0.4-0.3-0.6c-0.2-0.1-0.4-0.2-0.6-0.3s-0.6-0.1-1-0.1c-0.4,0-0.8,0-1.2,0.1
		c-0.4,0-0.9,0.1-1.4,0.2l-0.1-1.3c1.1-0.2,2.1-0.3,3.1-0.3c1.2,0,2.1,0.2,2.6,0.7c0.6,0.5,0.9,1.2,0.9,2.2v5.9h-1.5l-0.2-1.1h-0.1
		c-0.5,0.4-1,0.7-1.5,0.9C947.1,110.3,946.6,110.4,946.1,110.4z M946.8,109.1c0.4,0,0.7-0.1,1.1-0.2c0.4-0.2,0.8-0.4,1.1-0.6v-2
		l-1.5,0.1c-0.7,0.1-1.3,0.2-1.6,0.4c-0.3,0.2-0.4,0.6-0.4,1.1C945.6,108.7,946,109.1,946.8,109.1z"/>
	<path class="st5" d="M956.3,113.8c-0.5,0-1.1,0-1.6-0.1c-0.5-0.1-1-0.1-1.4-0.3l0.1-1.4c0.4,0.1,0.8,0.2,1.3,0.2s0.9,0.1,1.4,0.1
		c0.4,0,0.8,0,1.2-0.1c0.4-0.1,0.7-0.2,1-0.5s0.5-0.5,0.6-0.9s0.2-0.8,0.2-1.4V109H959c-0.6,0.8-1.5,1.2-2.7,1.2
		c-1.2,0-2.1-0.3-2.7-1c-0.6-0.7-0.9-1.7-0.9-3.2c0-0.8,0.1-1.4,0.3-2s0.5-1,0.9-1.4c0.4-0.4,0.9-0.7,1.4-0.8
		c0.5-0.2,1.2-0.3,1.8-0.3c0.5,0,1.1,0,1.6,0.1c0.6,0.1,1.3,0.2,2,0.4v7.3c0,0.9-0.1,1.6-0.4,2.1c-0.2,0.6-0.6,1-1,1.4
		c-0.4,0.3-0.9,0.6-1.4,0.7C957.5,113.7,956.9,113.8,956.3,113.8z M956.7,108.9c0.3,0,0.6,0,0.9-0.1c0.3-0.1,0.5-0.2,0.7-0.4
		s0.4-0.4,0.5-0.6c0.1-0.2,0.2-0.5,0.2-0.8v-4c-0.3-0.1-0.6-0.1-0.9-0.1c-0.3,0-0.7,0-1,0c-0.9,0-1.5,0.2-2,0.7
		c-0.4,0.5-0.6,1.3-0.6,2.4c0,1.1,0.2,1.8,0.5,2.3C955.3,108.6,955.9,108.9,956.7,108.9z"/>
	<path class="st5" d="M966.7,110.4c-1.4,0-2.4-0.4-3.1-1.1c-0.7-0.7-1-1.8-1-3.3c0-1.5,0.3-2.6,1-3.4c0.7-0.8,1.7-1.2,3-1.2
		c2.3,0,3.5,1.3,3.5,3.9c0,0.5,0,0.9-0.1,1.2h-5.6c0.1,0.9,0.3,1.5,0.7,1.9c0.4,0.4,1,0.6,1.9,0.6c0.4,0,0.9,0,1.4-0.1
		s1-0.2,1.4-0.3l0.1,1.3c-0.4,0.2-0.9,0.3-1.5,0.4C967.8,110.4,967.3,110.4,966.7,110.4z M966.6,102.8c-0.7,0-1.2,0.2-1.6,0.6
		s-0.6,1.1-0.6,2h4.1c0-0.9-0.2-1.6-0.5-2C967.7,103,967.3,102.8,966.6,102.8z"/>
	<path class="st5" d="M979.1,110.5c-0.9,0-1.5-0.2-2-0.6c-0.4-0.4-0.7-1.1-0.7-1.9v-4.7h-1.7v-1.5h1.8l0.3-2.3l1.4-0.2v2.4h2.4v1.5
		h-2.4v4.3c0,0.5,0.1,0.9,0.3,1.1c0.2,0.2,0.6,0.4,1.1,0.4c0.1,0,0.3,0,0.5,0c0.2,0,0.4-0.1,0.6-0.1v1.4c-0.2,0.1-0.5,0.1-0.8,0.2
		C979.6,110.4,979.4,110.5,979.1,110.5z"/>
	<path class="st5" d="M985.9,110.5c-1.4,0-2.4-0.4-3.1-1.1c-0.7-0.8-1.1-1.9-1.1-3.3s0.4-2.6,1.1-3.3c0.7-0.8,1.8-1.1,3.1-1.1
		s2.4,0.4,3.1,1.1s1.1,1.9,1.1,3.3s-0.4,2.6-1.1,3.3S987.3,110.5,985.9,110.5z M985.9,109c0.8,0,1.4-0.2,1.8-0.7s0.6-1.3,0.6-2.3
		c0-1.1-0.2-1.9-0.6-2.3s-1-0.7-1.8-0.7s-1.4,0.2-1.8,0.7s-0.6,1.3-0.6,2.3c0,1.1,0.2,1.9,0.6,2.3S985.1,109,985.9,109z"/>
	<path class="st5" d="M999.1,110.5c-0.9,0-1.5-0.2-2-0.6c-0.4-0.4-0.7-1.1-0.7-1.9v-4.7h-1.7v-1.5h1.8l0.3-2.3l1.4-0.2v2.4h2.4v1.5
		h-2.4v4.3c0,0.5,0.1,0.9,0.3,1.1c0.2,0.2,0.6,0.4,1.1,0.4c0.1,0,0.3,0,0.5,0c0.2,0,0.4-0.1,0.6-0.1v1.4c-0.2,0.1-0.5,0.1-0.8,0.2
		C999.7,110.4,999.4,110.5,999.1,110.5z"/>
	<path class="st5" d="M1002.2,97.4h1.8v5.2c0.8-0.4,1.5-0.7,2-0.8c0.6-0.2,1.1-0.3,1.6-0.3c0.7,0,1.3,0.2,1.7,0.6
		c0.4,0.4,0.6,1,0.6,1.8v6.4h-1.8v-5.8c0-0.5-0.1-0.9-0.3-1.2c-0.2-0.2-0.5-0.4-1-0.4c-0.4,0-0.8,0.1-1.3,0.2s-1,0.4-1.6,0.6v6.5
		h-1.8V97.4z"/>
	<path class="st5" d="M1015.9,110.4c-1.4,0-2.4-0.4-3.1-1.1c-0.7-0.7-1-1.8-1-3.3c0-1.5,0.3-2.6,1-3.4c0.7-0.8,1.7-1.2,3-1.2
		c2.3,0,3.5,1.3,3.5,3.9c0,0.5,0,0.9-0.1,1.2h-5.6c0.1,0.9,0.3,1.5,0.7,1.9c0.4,0.4,1,0.6,1.9,0.6c0.4,0,0.9,0,1.4-0.1
		s1-0.2,1.4-0.3l0.1,1.3c-0.4,0.2-0.9,0.3-1.5,0.4C1016.9,110.4,1016.4,110.4,1015.9,110.4z M1015.7,102.8c-0.7,0-1.2,0.2-1.6,0.6
		s-0.6,1.1-0.6,2h4.1c0-0.9-0.2-1.6-0.5-2C1016.9,103,1016.4,102.8,1015.7,102.8z"/>
	<path class="st5" d="M1028.5,110.4c-2.8,0-4.2-1.5-4.2-4.4c0-3,1.4-4.5,4.2-4.5c0.4,0,0.7,0,1.1,0.1c0.4,0,0.8,0.1,1.1,0.2v1.5
		c-0.3-0.1-0.7-0.1-1-0.2c-0.3,0-0.7-0.1-1-0.1c-0.9,0-1.6,0.2-2,0.7c-0.4,0.5-0.6,1.2-0.6,2.3c0,1,0.2,1.8,0.6,2.3
		c0.4,0.5,1.1,0.7,2,0.7c0.4,0,0.7,0,1.1,0c0.3,0,0.6-0.1,1-0.2v1.4c-0.3,0.1-0.6,0.1-1,0.2C1029.3,110.4,1028.9,110.4,1028.5,110.4
		z"/>
	<path class="st5" d="M1034.8,110.5c-0.8,0-1.3-0.2-1.7-0.6c-0.4-0.4-0.6-1-0.6-1.8v-6.4h1.8v5.9c0,0.5,0.1,0.9,0.3,1.1
		c0.2,0.2,0.5,0.3,1,0.3c0.5,0,0.9-0.1,1.4-0.3c0.5-0.2,1-0.4,1.5-0.6v-6.4h1.8v8.6h-1.5l-0.1-1h-0.1c-0.4,0.2-0.8,0.4-1.1,0.5
		c-0.3,0.1-0.6,0.3-0.9,0.4c-0.3,0.1-0.6,0.2-0.8,0.2C1035.4,110.4,1035.1,110.5,1034.8,110.5z"/>
	<path class="st5" d="M1045.1,110.5c-0.4,0-0.9,0-1.4-0.1c-0.5-0.1-1.1-0.2-1.7-0.3v-1.4c0.6,0.1,1.1,0.2,1.6,0.3
		c0.5,0.1,1,0.1,1.4,0.1c1.2,0,1.8-0.4,1.8-1.2c0-0.4-0.2-0.7-0.5-0.9c-0.3-0.2-0.7-0.3-1.2-0.4c-0.3-0.1-0.7-0.1-1-0.2
		c-0.4-0.1-0.7-0.2-1-0.4c-0.3-0.2-0.5-0.4-0.7-0.7c-0.2-0.3-0.3-0.7-0.3-1.3c0-0.8,0.3-1.4,0.9-1.9c0.6-0.5,1.4-0.7,2.5-0.7
		c0.2,0,0.4,0,0.6,0s0.4,0,0.6,0.1c0.2,0,0.4,0.1,0.7,0.1c0.2,0,0.5,0.1,0.9,0.2l-0.1,1.4c-0.6-0.1-1-0.2-1.4-0.3s-0.8-0.1-1.1-0.1
		c-0.6,0-1,0.1-1.3,0.3c-0.3,0.2-0.4,0.5-0.4,0.9c0,0.2,0,0.4,0.1,0.6c0.1,0.1,0.2,0.3,0.4,0.4c0.2,0.1,0.4,0.2,0.6,0.2
		c0.2,0.1,0.5,0.1,0.8,0.2c0.4,0.1,0.8,0.2,1.1,0.3c0.3,0.1,0.6,0.3,0.9,0.5s0.4,0.4,0.6,0.7s0.2,0.7,0.2,1.1c0,0.8-0.3,1.5-0.9,1.9
		C1047.1,110.2,1046.2,110.5,1045.1,110.5z"/>
	<path class="st5" d="M1053.8,110.5c-0.9,0-1.5-0.2-2-0.6c-0.4-0.4-0.7-1.1-0.7-1.9v-4.7h-1.7v-1.5h1.8l0.3-2.3l1.4-0.2v2.4h2.4v1.5
		h-2.4v4.3c0,0.5,0.1,0.9,0.3,1.1c0.2,0.2,0.6,0.4,1.1,0.4c0.1,0,0.3,0,0.5,0c0.2,0,0.4-0.1,0.6-0.1v1.4c-0.2,0.1-0.5,0.1-0.8,0.2
		C1054.4,110.4,1054.1,110.5,1053.8,110.5z"/>
	<path class="st5" d="M1060.7,110.5c-1.4,0-2.4-0.4-3.1-1.1c-0.7-0.8-1.1-1.9-1.1-3.3s0.4-2.6,1.1-3.3c0.7-0.8,1.8-1.1,3.1-1.1
		s2.4,0.4,3.1,1.1s1.1,1.9,1.1,3.3s-0.4,2.6-1.1,3.3S1062,110.5,1060.7,110.5z M1060.7,109c0.8,0,1.4-0.2,1.8-0.7s0.6-1.3,0.6-2.3
		c0-1.1-0.2-1.9-0.6-2.3s-1-0.7-1.8-0.7s-1.4,0.2-1.8,0.7s-0.6,1.3-0.6,2.3c0,1.1,0.2,1.9,0.6,2.3S1059.8,109,1060.7,109z"/>
	<path class="st5" d="M1066.7,101.7h1.5l0.1,1h0.1c0.7-0.4,1.2-0.7,1.7-0.9c0.5-0.2,1-0.3,1.4-0.3c1,0,1.7,0.4,2.1,1.2h0.1
		c0.7-0.4,1.3-0.7,1.8-0.9c0.5-0.2,1-0.3,1.4-0.3c0.7,0,1.3,0.2,1.7,0.6c0.4,0.4,0.6,1,0.6,1.8v6.4h-1.8v-5.8c0-0.5-0.1-0.9-0.3-1.2
		s-0.5-0.3-1-0.3c-0.3,0-0.6,0.1-1,0.2s-0.8,0.3-1.2,0.6v6.5h-1.8v-5.8c0-0.5-0.1-0.9-0.3-1.2c-0.2-0.2-0.5-0.3-1-0.3
		c-0.3,0-0.7,0.1-1.1,0.2c-0.4,0.1-0.8,0.3-1.2,0.6v6.5h-1.8V101.7z"/>
	<path class="st5" d="M1085.1,110.4c-1.4,0-2.4-0.4-3.1-1.1c-0.7-0.7-1-1.8-1-3.3c0-1.5,0.3-2.6,1-3.4c0.7-0.8,1.7-1.2,3-1.2
		c2.3,0,3.5,1.3,3.5,3.9c0,0.5,0,0.9-0.1,1.2h-5.6c0.1,0.9,0.3,1.5,0.7,1.9c0.4,0.4,1,0.6,1.9,0.6c0.4,0,0.9,0,1.4-0.1
		s1-0.2,1.4-0.3l0.1,1.3c-0.4,0.2-0.9,0.3-1.5,0.4C1086.1,110.4,1085.6,110.4,1085.1,110.4z M1085,102.8c-0.7,0-1.2,0.2-1.6,0.6
		s-0.6,1.1-0.6,2h4.1c0-0.9-0.2-1.6-0.5-2C1086.1,103,1085.6,102.8,1085,102.8z"/>
	<path class="st5" d="M1090.3,101.7h1.5l0.1,1.2h0.1c0.5-0.3,1.1-0.6,1.6-0.9c0.5-0.2,1-0.4,1.4-0.5h0.6v1.6h-0.6
		c-0.5,0.1-1,0.2-1.4,0.4c-0.5,0.2-0.9,0.4-1.4,0.6v6.2h-1.8V101.7z"/>
</g>
<g>
	<path class="st5" d="M945,335.1h1.8v11.8H945V335.1z"/>
	<path class="st5" d="M951.9,347.1c-0.4,0-0.9,0-1.4-0.1c-0.5-0.1-1.1-0.2-1.7-0.3v-1.4c0.6,0.1,1.1,0.2,1.6,0.3
		c0.5,0.1,1,0.1,1.4,0.1c1.2,0,1.8-0.4,1.8-1.2c0-0.4-0.2-0.7-0.5-0.9c-0.3-0.2-0.7-0.3-1.2-0.4c-0.3-0.1-0.7-0.1-1-0.2
		c-0.4-0.1-0.7-0.2-1-0.4c-0.3-0.2-0.5-0.4-0.7-0.7c-0.2-0.3-0.3-0.7-0.3-1.3c0-0.8,0.3-1.4,0.9-1.9c0.6-0.5,1.4-0.7,2.5-0.7
		c0.2,0,0.4,0,0.6,0c0.2,0,0.4,0,0.6,0.1s0.4,0.1,0.7,0.1c0.3,0,0.5,0.1,0.9,0.2l-0.1,1.4c-0.6-0.1-1-0.2-1.4-0.3
		c-0.4-0.1-0.8-0.1-1.1-0.1c-0.6,0-1,0.1-1.3,0.3c-0.3,0.2-0.4,0.5-0.4,0.9c0,0.2,0,0.4,0.1,0.6c0.1,0.1,0.2,0.3,0.4,0.4
		c0.2,0.1,0.4,0.2,0.6,0.2c0.2,0.1,0.5,0.1,0.8,0.2c0.4,0.1,0.8,0.2,1.1,0.3c0.3,0.1,0.6,0.3,0.9,0.5s0.4,0.4,0.6,0.7
		c0.1,0.3,0.2,0.7,0.2,1.1c0,0.8-0.3,1.5-0.9,1.9S953,347.1,951.9,347.1z"/>
	<path class="st5" d="M959.8,347.1c-0.4,0-0.9,0-1.4-0.1c-0.5-0.1-1.1-0.2-1.7-0.3v-1.4c0.6,0.1,1.1,0.2,1.6,0.3
		c0.5,0.1,1,0.1,1.4,0.1c1.2,0,1.8-0.4,1.8-1.2c0-0.4-0.2-0.7-0.5-0.9c-0.3-0.2-0.7-0.3-1.2-0.4c-0.3-0.1-0.7-0.1-1-0.2
		c-0.4-0.1-0.7-0.2-1-0.4c-0.3-0.2-0.5-0.4-0.7-0.7c-0.2-0.3-0.3-0.7-0.3-1.3c0-0.8,0.3-1.4,0.9-1.9c0.6-0.5,1.4-0.7,2.5-0.7
		c0.2,0,0.4,0,0.6,0c0.2,0,0.4,0,0.6,0.1s0.4,0.1,0.7,0.1c0.3,0,0.5,0.1,0.9,0.2l-0.1,1.4c-0.6-0.1-1-0.2-1.4-0.3
		c-0.4-0.1-0.8-0.1-1.1-0.1c-0.6,0-1,0.1-1.3,0.3c-0.3,0.2-0.4,0.5-0.4,0.9c0,0.2,0,0.4,0.1,0.6c0.1,0.1,0.2,0.3,0.4,0.4
		c0.2,0.1,0.4,0.2,0.6,0.2c0.2,0.1,0.5,0.1,0.8,0.2c0.4,0.1,0.8,0.2,1.1,0.3c0.3,0.1,0.6,0.3,0.9,0.5s0.4,0.4,0.6,0.7
		c0.1,0.3,0.2,0.7,0.2,1.1c0,0.8-0.3,1.5-0.9,1.9S960.9,347.1,959.8,347.1z"/>
	<path class="st5" d="M967.2,347.1c-0.8,0-1.3-0.2-1.7-0.6c-0.4-0.4-0.6-1-0.6-1.8v-6.4h1.8v5.9c0,0.5,0.1,0.9,0.3,1.1
		c0.2,0.2,0.5,0.3,1,0.3c0.5,0,0.9-0.1,1.4-0.3c0.5-0.2,1-0.4,1.5-0.6v-6.4h1.8v8.6h-1.5l-0.1-1H971c-0.4,0.2-0.8,0.4-1.1,0.5
		c-0.3,0.1-0.6,0.3-0.9,0.4s-0.6,0.2-0.8,0.2C967.8,347,967.5,347.1,967.2,347.1z"/>
	<path class="st5" d="M978.6,347c-1.4,0-2.4-0.4-3.1-1.1c-0.7-0.7-1-1.8-1-3.3c0-1.5,0.3-2.6,1-3.4c0.7-0.8,1.7-1.2,3-1.2
		c2.3,0,3.5,1.3,3.5,3.9c0,0.5,0,0.9-0.1,1.2h-5.6c0.1,0.9,0.3,1.5,0.7,1.9c0.4,0.4,1,0.6,1.9,0.6c0.4,0,0.9,0,1.4-0.1
		c0.5-0.1,1-0.2,1.4-0.3l0.1,1.3c-0.4,0.2-0.9,0.3-1.5,0.4C979.7,347,979.1,347,978.6,347z M978.5,339.4c-0.7,0-1.2,0.2-1.6,0.6
		c-0.4,0.4-0.6,1.1-0.6,2h4.1c0-0.9-0.2-1.6-0.5-2C979.6,339.6,979.2,339.4,978.5,339.4z"/>
	<path class="st5" d="M989.3,347c-0.8,0-1.4-0.2-1.8-0.6c-0.4-0.4-0.6-1-0.6-1.7c0-0.8,0.3-1.5,0.8-1.9c0.5-0.4,1.4-0.7,2.5-0.8
		l2-0.2v-0.5c0-0.4,0-0.6-0.1-0.9c-0.1-0.2-0.2-0.4-0.3-0.6c-0.2-0.1-0.4-0.2-0.6-0.3c-0.3-0.1-0.6-0.1-1-0.1c-0.4,0-0.8,0-1.2,0.1
		c-0.4,0-0.9,0.1-1.4,0.2l-0.1-1.3c1.1-0.2,2.1-0.3,3.1-0.3c1.2,0,2.1,0.2,2.6,0.7c0.6,0.5,0.9,1.2,0.9,2.2v5.9h-1.5l-0.2-1.1h-0.1
		c-0.5,0.4-1,0.7-1.5,0.9S989.8,347,989.3,347z M990,345.7c0.4,0,0.7-0.1,1.1-0.2c0.4-0.2,0.8-0.4,1.1-0.6v-2l-1.5,0.1
		c-0.7,0.1-1.3,0.2-1.6,0.4c-0.3,0.2-0.4,0.6-0.4,1.1C988.7,345.3,989.2,345.7,990,345.7z"/>
	<path class="st5" d="M1003.7,347c-2.8,0-4.2-1.5-4.2-4.4c0-3,1.4-4.5,4.2-4.5c0.4,0,0.7,0,1.1,0.1s0.8,0.1,1.1,0.2v1.5
		c-0.3-0.1-0.7-0.1-1-0.2c-0.3,0-0.7-0.1-1-0.1c-0.9,0-1.6,0.2-2,0.7s-0.6,1.2-0.6,2.3c0,1,0.2,1.8,0.6,2.3c0.4,0.5,1.1,0.7,2,0.7
		c0.4,0,0.7,0,1.1,0c0.3,0,0.6-0.1,1-0.2v1.4c-0.3,0.1-0.6,0.1-1,0.2S1004.1,347,1003.7,347z"/>
	<path class="st5" d="M1011.5,347.1c-1.4,0-2.4-0.4-3.1-1.1s-1.1-1.9-1.1-3.3c0-1.5,0.4-2.6,1.1-3.3s1.8-1.1,3.1-1.1
		s2.4,0.4,3.1,1.1c0.7,0.8,1.1,1.9,1.1,3.3c0,1.5-0.4,2.6-1.1,3.3C1013.9,346.7,1012.8,347.1,1011.5,347.1z M1011.5,345.6
		c0.8,0,1.4-0.2,1.8-0.7s0.6-1.3,0.6-2.3c0-1.1-0.2-1.9-0.6-2.3s-1-0.7-1.8-0.7s-1.4,0.2-1.8,0.7c-0.4,0.5-0.6,1.3-0.6,2.3
		c0,1.1,0.2,1.9,0.6,2.3C1010,345.4,1010.6,345.6,1011.5,345.6z"/>
	<path class="st5" d="M1019.7,347.1c-0.8,0-1.3-0.2-1.7-0.6c-0.4-0.4-0.6-1-0.6-1.8v-6.4h1.8v5.9c0,0.5,0.1,0.9,0.3,1.1
		s0.5,0.3,1,0.3c0.5,0,0.9-0.1,1.4-0.3c0.5-0.2,1-0.4,1.5-0.6v-6.4h1.8v8.6h-1.5l-0.1-1h-0.1c-0.4,0.2-0.8,0.4-1.1,0.5
		c-0.3,0.1-0.6,0.3-0.9,0.4s-0.6,0.2-0.8,0.2C1020.3,347,1020,347.1,1019.7,347.1z"/>
	<path class="st5" d="M1027.4,338.3h1.6l0.1,1h0.1c0.3-0.4,0.7-0.7,1.1-0.9s1-0.3,1.6-0.3c1.2,0,2.1,0.4,2.7,1.1
		c0.6,0.7,0.9,1.8,0.9,3.3c0,1.5-0.4,2.6-1.2,3.4c-0.8,0.8-1.9,1.2-3.3,1.2c-0.3,0-0.7,0-1,0s-0.6-0.1-0.9-0.1v3.5h-1.8V338.3z
		 M1031.1,345.7c0.4,0,0.8-0.1,1.1-0.2c0.3-0.1,0.6-0.3,0.8-0.5c0.2-0.3,0.4-0.6,0.5-1c0.1-0.4,0.2-0.9,0.2-1.5
		c0-1.1-0.2-1.9-0.5-2.4c-0.4-0.5-0.9-0.7-1.7-0.7c-0.3,0-0.6,0-0.9,0.1c-0.3,0.1-0.5,0.2-0.7,0.4s-0.4,0.4-0.5,0.6
		c-0.1,0.2-0.2,0.5-0.2,0.8v4.2c0.3,0.1,0.5,0.1,0.9,0.1C1030.4,345.7,1030.8,345.7,1031.1,345.7z"/>
	<path class="st5" d="M1041.1,347.1c-1.4,0-2.4-0.4-3.1-1.1c-0.7-0.8-1.1-1.9-1.1-3.3c0-1.5,0.4-2.6,1.1-3.3
		c0.7-0.8,1.8-1.1,3.1-1.1s2.4,0.4,3.1,1.1s1.1,1.9,1.1,3.3c0,1.5-0.4,2.6-1.1,3.3S1042.5,347.1,1041.1,347.1z M1041.1,345.6
		c0.8,0,1.4-0.2,1.8-0.7c0.4-0.5,0.6-1.3,0.6-2.3c0-1.1-0.2-1.9-0.6-2.3c-0.4-0.5-1-0.7-1.8-0.7s-1.4,0.2-1.8,0.7s-0.6,1.3-0.6,2.3
		c0,1.1,0.2,1.9,0.6,2.3S1040.3,345.6,1041.1,345.6z"/>
	<path class="st5" d="M1047.1,338.3h1.5l0.1,1h0.1c0.8-0.4,1.5-0.7,2.1-0.9c0.6-0.2,1.1-0.3,1.6-0.3c0.7,0,1.3,0.2,1.7,0.6
		c0.4,0.4,0.6,1,0.6,1.8v6.4h-1.8v-5.8c0-0.5-0.1-0.9-0.3-1.2c-0.2-0.2-0.5-0.4-1-0.4c-0.4,0-0.8,0.1-1.3,0.2
		c-0.5,0.2-1,0.4-1.6,0.6v6.5h-1.8V338.3z"/>
	<path class="st5" d="M938.1,359h-1.9v-1.5h1.9V357c0-0.8,0.1-1.4,0.2-1.9s0.4-0.9,0.7-1.2c0.3-0.3,0.8-0.5,1.3-0.6
		c0.6-0.1,1.3-0.2,2.1-0.2l0.1,1.3c-0.5,0-1,0.1-1.3,0.2c-0.3,0.1-0.6,0.2-0.8,0.4c-0.2,0.2-0.3,0.4-0.4,0.7s-0.1,0.7-0.1,1.1v0.7
		h2.3v1.5h-2.3v7.1h-1.8V359z"/>
	<path class="st5" d="M947.3,366.3c-1.4,0-2.4-0.4-3.1-1.1c-0.7-0.8-1.1-1.9-1.1-3.3c0-1.5,0.4-2.6,1.1-3.3c0.7-0.8,1.8-1.1,3.1-1.1
		s2.4,0.4,3.1,1.1s1.1,1.9,1.1,3.3c0,1.5-0.4,2.6-1.1,3.3S948.6,366.3,947.3,366.3z M947.3,364.8c0.8,0,1.4-0.2,1.8-0.7
		c0.4-0.5,0.6-1.3,0.6-2.3c0-1.1-0.2-1.9-0.6-2.3c-0.4-0.5-1-0.7-1.8-0.7s-1.4,0.2-1.8,0.7s-0.6,1.3-0.6,2.3c0,1.1,0.2,1.9,0.6,2.3
		S946.4,364.8,947.3,364.8z"/>
	<path class="st5" d="M953.3,357.5h1.5l0.1,1.2h0.1c0.5-0.3,1.1-0.6,1.6-0.9c0.5-0.2,1-0.4,1.4-0.5h0.6v1.6h-0.6
		c-0.5,0.1-1,0.2-1.4,0.4c-0.5,0.2-0.9,0.4-1.4,0.6v6.2h-1.8V357.5z"/>
	<path class="st5" d="M967,366.3c-0.9,0-1.5-0.2-2-0.6c-0.4-0.4-0.7-1.1-0.7-1.9V359h-1.7v-1.5h1.8l0.3-2.3l1.4-0.2v2.4h2.4v1.5
		h-2.4v4.3c0,0.5,0.1,0.9,0.3,1.1c0.2,0.2,0.6,0.4,1.1,0.4c0.1,0,0.3,0,0.5,0c0.2,0,0.4-0.1,0.6-0.1v1.4c-0.2,0.1-0.5,0.1-0.8,0.2
		C967.5,366.2,967.3,366.3,967,366.3z"/>
	<path class="st5" d="M970.1,353.2h1.8v5.2c0.8-0.4,1.5-0.7,2-0.8c0.6-0.2,1.1-0.3,1.6-0.3c0.7,0,1.3,0.2,1.7,0.6
		c0.4,0.4,0.6,1,0.6,1.8v6.4H976v-5.8c0-0.5-0.1-0.9-0.3-1.2c-0.2-0.2-0.5-0.4-1-0.4c-0.4,0-0.8,0.1-1.3,0.2c-0.5,0.2-1,0.4-1.6,0.6
		v6.5h-1.8V353.2z"/>
	<path class="st5" d="M983.8,366.2c-1.4,0-2.4-0.4-3.1-1.1c-0.7-0.7-1-1.8-1-3.3c0-1.5,0.3-2.6,1-3.4c0.7-0.8,1.7-1.2,3-1.2
		c2.3,0,3.5,1.3,3.5,3.9c0,0.5,0,0.9-0.1,1.2h-5.6c0.1,0.9,0.3,1.5,0.7,1.9c0.4,0.4,1,0.6,1.9,0.6c0.4,0,0.9,0,1.4-0.1
		c0.5-0.1,1-0.2,1.4-0.3l0.1,1.3c-0.4,0.2-0.9,0.3-1.5,0.4C984.8,366.2,984.3,366.2,983.8,366.2z M983.6,358.6
		c-0.7,0-1.2,0.2-1.6,0.6c-0.4,0.4-0.6,1.1-0.6,2h4.1c0-0.9-0.2-1.6-0.5-2C984.8,358.8,984.3,358.6,983.6,358.6z"/>
	<path class="st5" d="M996.4,366.2c-2.8,0-4.2-1.5-4.2-4.4c0-3,1.4-4.5,4.2-4.5c0.4,0,0.7,0,1.1,0.1s0.8,0.1,1.1,0.2v1.5
		c-0.3-0.1-0.7-0.1-1-0.2c-0.3,0-0.7-0.1-1-0.1c-0.9,0-1.6,0.2-2,0.7s-0.6,1.2-0.6,2.3c0,1,0.2,1.8,0.6,2.3c0.4,0.5,1.1,0.7,2,0.7
		c0.4,0,0.7,0,1.1,0s0.6-0.1,1-0.2v1.4c-0.3,0.1-0.6,0.1-1,0.2S996.8,366.2,996.4,366.2z"/>
	<path class="st5" d="M1002.6,366.3c-0.8,0-1.3-0.2-1.7-0.6c-0.4-0.4-0.6-1-0.6-1.8v-6.4h1.8v5.9c0,0.5,0.1,0.9,0.3,1.1
		c0.2,0.2,0.5,0.3,1,0.3c0.5,0,0.9-0.1,1.4-0.3c0.5-0.2,1-0.4,1.5-0.6v-6.4h1.8v8.6h-1.5l-0.1-1h-0.1c-0.4,0.2-0.8,0.4-1.1,0.5
		c-0.3,0.1-0.6,0.3-0.9,0.4s-0.6,0.2-0.8,0.2C1003.3,366.2,1003,366.3,1002.6,366.3z"/>
	<path class="st5" d="M1013,366.3c-0.4,0-0.9,0-1.4-0.1s-1.1-0.2-1.7-0.3v-1.4c0.6,0.1,1.1,0.2,1.6,0.3s1,0.1,1.4,0.1
		c1.2,0,1.8-0.4,1.8-1.2c0-0.4-0.2-0.7-0.5-0.9c-0.3-0.2-0.7-0.3-1.2-0.4c-0.3-0.1-0.7-0.1-1-0.2c-0.4-0.1-0.7-0.2-1-0.4
		c-0.3-0.2-0.5-0.4-0.7-0.7c-0.2-0.3-0.3-0.7-0.3-1.3c0-0.8,0.3-1.4,0.9-1.9c0.6-0.5,1.4-0.7,2.5-0.7c0.2,0,0.4,0,0.6,0
		s0.4,0,0.6,0.1c0.2,0,0.4,0.1,0.7,0.1c0.3,0,0.5,0.1,0.9,0.2l-0.1,1.4c-0.6-0.1-1-0.2-1.4-0.3c-0.4-0.1-0.8-0.1-1.1-0.1
		c-0.6,0-1,0.1-1.3,0.3s-0.4,0.5-0.4,0.9c0,0.2,0,0.4,0.1,0.6c0.1,0.1,0.2,0.3,0.4,0.4c0.2,0.1,0.4,0.2,0.6,0.2
		c0.2,0.1,0.5,0.1,0.8,0.2c0.4,0.1,0.8,0.2,1.1,0.3c0.3,0.1,0.6,0.3,0.9,0.5c0.2,0.2,0.4,0.4,0.6,0.7c0.1,0.3,0.2,0.7,0.2,1.1
		c0,0.8-0.3,1.5-0.9,1.9C1015,366,1014.1,366.3,1013,366.3z"/>
	<path class="st5" d="M1021.7,366.3c-0.9,0-1.5-0.2-2-0.6c-0.4-0.4-0.7-1.1-0.7-1.9V359h-1.7v-1.5h1.8l0.3-2.3l1.4-0.2v2.4h2.4v1.5
		h-2.4v4.3c0,0.5,0.1,0.9,0.3,1.1c0.2,0.2,0.6,0.4,1.1,0.4c0.1,0,0.3,0,0.5,0c0.2,0,0.4-0.1,0.6-0.1v1.4c-0.2,0.1-0.5,0.1-0.8,0.2
		C1022.2,366.2,1022,366.3,1021.7,366.3z"/>
	<path class="st5" d="M1028.5,366.3c-1.4,0-2.4-0.4-3.1-1.1s-1.1-1.9-1.1-3.3c0-1.5,0.4-2.6,1.1-3.3s1.8-1.1,3.1-1.1
		s2.4,0.4,3.1,1.1c0.7,0.8,1.1,1.9,1.1,3.3c0,1.5-0.4,2.6-1.1,3.3C1031,365.9,1029.9,366.3,1028.5,366.3z M1028.5,364.8
		c0.8,0,1.4-0.2,1.8-0.7s0.6-1.3,0.6-2.3c0-1.1-0.2-1.9-0.6-2.3s-1-0.7-1.8-0.7s-1.4,0.2-1.8,0.7c-0.4,0.5-0.6,1.3-0.6,2.3
		c0,1.1,0.2,1.9,0.6,2.3C1027.1,364.6,1027.7,364.8,1028.5,364.8z"/>
	<path class="st5" d="M1034.6,357.5h1.5l0.1,1h0.1c0.7-0.4,1.2-0.7,1.7-0.9c0.5-0.2,1-0.3,1.4-0.3c1,0,1.7,0.4,2.1,1.2h0.1
		c0.7-0.4,1.3-0.7,1.8-0.9s1-0.3,1.4-0.3c0.7,0,1.3,0.2,1.7,0.6s0.6,1,0.6,1.8v6.4h-1.8v-5.8c0-0.5-0.1-0.9-0.3-1.2s-0.5-0.3-1-0.3
		c-0.3,0-0.6,0.1-1,0.2c-0.4,0.1-0.8,0.3-1.2,0.6v6.5h-1.8v-5.8c0-0.5-0.1-0.9-0.3-1.2s-0.5-0.3-1-0.3c-0.3,0-0.7,0.1-1.1,0.2
		s-0.8,0.3-1.2,0.6v6.5h-1.8V357.5z"/>
	<path class="st5" d="M1053,366.2c-1.4,0-2.4-0.4-3.1-1.1c-0.7-0.7-1-1.8-1-3.3c0-1.5,0.3-2.6,1-3.4c0.7-0.8,1.7-1.2,3-1.2
		c2.3,0,3.5,1.3,3.5,3.9c0,0.5,0,0.9-0.1,1.2h-5.6c0.1,0.9,0.3,1.5,0.7,1.9c0.4,0.4,1,0.6,1.9,0.6c0.4,0,0.9,0,1.4-0.1
		c0.5-0.1,1-0.2,1.4-0.3l0.1,1.3c-0.4,0.2-0.9,0.3-1.5,0.4C1054,366.2,1053.5,366.2,1053,366.2z M1052.9,358.6
		c-0.7,0-1.2,0.2-1.6,0.6c-0.4,0.4-0.6,1.1-0.6,2h4.1c0-0.9-0.2-1.6-0.5-2C1054,358.8,1053.5,358.6,1052.9,358.6z"/>
	<path class="st5" d="M1058.2,357.5h1.5l0.1,1.2h0.1c0.5-0.3,1.1-0.6,1.6-0.9c0.5-0.2,1-0.4,1.4-0.5h0.6v1.6h-0.6
		c-0.5,0.1-1,0.2-1.4,0.4c-0.5,0.2-0.9,0.4-1.4,0.6v6.2h-1.8V357.5z"/>
</g>
<g>
	<path class="st5" d="M474.1,337.5c-0.6,0-1.2,0-1.9-0.1c-0.7-0.1-1.4-0.2-2-0.4v-1.5c0.7,0.2,1.3,0.3,2,0.4
		c0.7,0.1,1.3,0.1,1.8,0.1c1.8,0,2.7-0.6,2.7-1.8c0-0.3-0.1-0.6-0.2-0.8c-0.1-0.2-0.3-0.4-0.5-0.6s-0.5-0.3-0.8-0.4
		c-0.3-0.1-0.7-0.2-1-0.3c-0.6-0.2-1.2-0.3-1.6-0.5c-0.5-0.2-0.8-0.4-1.1-0.7c-0.3-0.3-0.5-0.6-0.7-1c-0.1-0.4-0.2-0.8-0.2-1.3
		c0-0.5,0.1-1,0.3-1.4c0.2-0.4,0.5-0.8,0.8-1c0.4-0.3,0.8-0.5,1.3-0.7c0.5-0.2,1.1-0.2,1.8-0.2c0.5,0,1,0,1.5,0.1
		c0.5,0.1,1.1,0.2,1.8,0.3v1.5c-0.5-0.1-1-0.2-1.6-0.3c-0.6-0.1-1.1-0.1-1.5-0.1c-0.8,0-1.4,0.2-1.9,0.5c-0.4,0.3-0.7,0.8-0.7,1.3
		c0,0.5,0.2,1,0.6,1.3c0.4,0.3,1.1,0.6,2,0.8c0.6,0.1,1.1,0.3,1.5,0.5c0.4,0.2,0.8,0.4,1.2,0.7c0.3,0.3,0.6,0.6,0.7,1
		c0.2,0.4,0.3,0.8,0.3,1.4c0,1.1-0.4,1.9-1.1,2.5S475.5,337.5,474.1,337.5z"/>
	<path class="st5" d="M483.9,337.4c-1.4,0-2.4-0.4-3.1-1.1c-0.7-0.7-1-1.8-1-3.3c0-1.5,0.3-2.6,1-3.4c0.7-0.8,1.7-1.2,3-1.2
		c2.3,0,3.5,1.3,3.5,3.9c0,0.5,0,0.9-0.1,1.2h-5.6c0.1,0.9,0.3,1.5,0.7,1.9c0.4,0.4,1,0.6,1.9,0.6c0.4,0,0.9,0,1.4-0.1
		c0.5-0.1,1-0.2,1.4-0.3l0.1,1.3c-0.4,0.2-0.9,0.3-1.5,0.4C485,337.4,484.4,337.4,483.9,337.4z M483.8,329.8c-0.7,0-1.2,0.2-1.6,0.6
		c-0.4,0.4-0.6,1.1-0.6,2h4.1c0-0.9-0.2-1.6-0.5-2C484.9,330,484.4,329.8,483.8,329.8z"/>
	<path class="st5" d="M489.1,328.7h1.5l0.1,1h0.1c0.8-0.4,1.5-0.7,2.1-0.9c0.6-0.2,1.1-0.3,1.6-0.3c0.7,0,1.3,0.2,1.7,0.6
		s0.6,1,0.6,1.8v6.4h-1.8v-5.8c0-0.5-0.1-0.9-0.3-1.2c-0.2-0.2-0.5-0.4-1-0.4c-0.4,0-0.8,0.1-1.3,0.2c-0.5,0.2-1,0.4-1.6,0.6v6.5
		h-1.8V328.7z"/>
	<path class="st5" d="M502.2,337.5c-1.2,0-2.1-0.4-2.7-1.1c-0.6-0.7-0.9-1.8-0.9-3.3c0-0.8,0.1-1.4,0.3-2s0.5-1.1,0.9-1.4
		c0.4-0.4,0.9-0.7,1.4-0.9s1.2-0.3,1.8-0.3c0.3,0,0.7,0,1,0c0.3,0,0.6,0.1,0.9,0.1v-4.3h1.8v12.9h-1.6l-0.1-1.1h-0.1
		C504.3,337.1,503.4,337.5,502.2,337.5z M502.7,336.1c0.3,0,0.6,0,0.9-0.1c0.3-0.1,0.5-0.2,0.7-0.4s0.4-0.4,0.5-0.6
		c0.1-0.2,0.2-0.5,0.2-0.8V330c-0.3-0.1-0.6-0.1-0.9-0.1c-0.3,0-0.7,0-1,0c-0.9,0-1.5,0.2-2,0.7c-0.4,0.5-0.6,1.3-0.6,2.5
		c0,1.1,0.2,1.9,0.5,2.4S501.9,336.1,502.7,336.1z"/>
	<path class="st5" d="M516.1,337.5c-0.9,0-1.5-0.2-2-0.6c-0.4-0.4-0.7-1.1-0.7-1.9v-4.7h-1.7v-1.5h1.8l0.3-2.3l1.4-0.2v2.4h2.4v1.5
		h-2.4v4.3c0,0.5,0.1,0.9,0.3,1.1c0.2,0.2,0.6,0.4,1.1,0.4c0.1,0,0.3,0,0.5,0s0.4-0.1,0.6-0.1v1.4c-0.2,0.1-0.5,0.1-0.8,0.2
		C516.7,337.4,516.4,337.5,516.1,337.5z"/>
	<path class="st5" d="M519.2,324.4h1.8v5.2c0.8-0.4,1.5-0.7,2-0.8s1.1-0.3,1.6-0.3c0.7,0,1.3,0.2,1.7,0.6s0.6,1,0.6,1.8v6.4h-1.8
		v-5.8c0-0.5-0.1-0.9-0.3-1.2c-0.2-0.2-0.5-0.4-1-0.4c-0.4,0-0.8,0.1-1.3,0.2c-0.5,0.2-1,0.4-1.6,0.6v6.5h-1.8V324.4z"/>
	<path class="st5" d="M532.9,337.4c-1.4,0-2.4-0.4-3.1-1.1c-0.7-0.7-1-1.8-1-3.3c0-1.5,0.3-2.6,1-3.4c0.7-0.8,1.7-1.2,3-1.2
		c2.3,0,3.5,1.3,3.5,3.9c0,0.5,0,0.9-0.1,1.2h-5.6c0.1,0.9,0.3,1.5,0.7,1.9c0.4,0.4,1,0.6,1.9,0.6c0.4,0,0.9,0,1.4-0.1
		c0.5-0.1,1-0.2,1.4-0.3l0.1,1.3c-0.4,0.2-0.9,0.3-1.5,0.4C533.9,337.4,533.4,337.4,532.9,337.4z M532.8,329.8
		c-0.7,0-1.2,0.2-1.6,0.6c-0.4,0.4-0.6,1.1-0.6,2h4.1c0-0.9-0.2-1.6-0.5-2C533.9,330,533.4,329.8,532.8,329.8z"/>
	<path class="st5" d="M545.5,337.4c-2.8,0-4.2-1.5-4.2-4.4c0-3,1.4-4.5,4.2-4.5c0.4,0,0.7,0,1.1,0.1s0.8,0.1,1.1,0.2v1.5
		c-0.3-0.1-0.7-0.1-1-0.2c-0.3,0-0.7-0.1-1-0.1c-0.9,0-1.6,0.2-2,0.7s-0.6,1.2-0.6,2.3c0,1,0.2,1.8,0.6,2.3c0.4,0.5,1.1,0.7,2,0.7
		c0.4,0,0.7,0,1.1,0c0.3,0,0.6-0.1,1-0.2v1.4c-0.3,0.1-0.6,0.1-1,0.2S545.9,337.4,545.5,337.4z"/>
	<path class="st5" d="M553.3,337.5c-1.4,0-2.4-0.4-3.1-1.1c-0.7-0.8-1.1-1.9-1.1-3.3c0-1.5,0.4-2.6,1.1-3.3c0.7-0.8,1.8-1.1,3.1-1.1
		s2.4,0.4,3.1,1.1c0.7,0.8,1.1,1.9,1.1,3.3c0,1.5-0.4,2.6-1.1,3.3C555.7,337.1,554.7,337.5,553.3,337.5z M553.3,336
		c0.8,0,1.4-0.2,1.8-0.7c0.4-0.5,0.6-1.3,0.6-2.3c0-1.1-0.2-1.9-0.6-2.3c-0.4-0.5-1-0.7-1.8-0.7s-1.4,0.2-1.8,0.7
		c-0.4,0.5-0.6,1.3-0.6,2.3c0,1.1,0.2,1.9,0.6,2.3C551.9,335.8,552.5,336,553.3,336z"/>
	<path class="st5" d="M561.5,337.5c-0.8,0-1.3-0.2-1.7-0.6c-0.4-0.4-0.6-1-0.6-1.8v-6.4h1.8v5.9c0,0.5,0.1,0.9,0.3,1.1
		c0.2,0.2,0.5,0.3,1,0.3c0.5,0,0.9-0.1,1.4-0.3c0.5-0.2,1-0.4,1.5-0.6v-6.4h1.8v8.6h-1.5l-0.1-1h-0.1c-0.4,0.2-0.8,0.4-1.1,0.5
		c-0.3,0.1-0.6,0.3-0.9,0.4s-0.6,0.2-0.8,0.2C562.2,337.4,561.9,337.5,561.5,337.5z"/>
	<path class="st5" d="M569.3,328.7h1.6l0.1,1h0.1c0.3-0.4,0.7-0.7,1.1-0.9c0.5-0.2,1-0.3,1.6-0.3c1.2,0,2.1,0.4,2.7,1.1
		c0.6,0.7,0.9,1.8,0.9,3.3c0,1.5-0.4,2.6-1.2,3.4c-0.8,0.8-1.9,1.2-3.3,1.2c-0.3,0-0.7,0-1,0s-0.6-0.1-0.9-0.1v3.5h-1.8V328.7z
		 M572.9,336.1c0.4,0,0.8-0.1,1.1-0.2c0.3-0.1,0.6-0.3,0.8-0.5c0.2-0.3,0.4-0.6,0.5-1c0.1-0.4,0.2-0.9,0.2-1.5
		c0-1.1-0.2-1.9-0.5-2.4c-0.4-0.5-0.9-0.7-1.7-0.7c-0.3,0-0.6,0-0.9,0.1c-0.3,0.1-0.5,0.2-0.7,0.4c-0.2,0.2-0.4,0.4-0.5,0.6
		c-0.1,0.2-0.2,0.5-0.2,0.8v4.2c0.3,0.1,0.5,0.1,0.9,0.1C572.3,336.1,572.6,336.1,572.9,336.1z"/>
	<path class="st5" d="M582.9,337.5c-1.4,0-2.4-0.4-3.1-1.1c-0.7-0.8-1.1-1.9-1.1-3.3c0-1.5,0.4-2.6,1.1-3.3c0.7-0.8,1.8-1.1,3.1-1.1
		s2.4,0.4,3.1,1.1c0.7,0.8,1.1,1.9,1.1,3.3c0,1.5-0.4,2.6-1.1,3.3C585.4,337.1,584.3,337.5,582.9,337.5z M582.9,336
		c0.8,0,1.4-0.2,1.8-0.7c0.4-0.5,0.6-1.3,0.6-2.3c0-1.1-0.2-1.9-0.6-2.3c-0.4-0.5-1-0.7-1.8-0.7s-1.4,0.2-1.8,0.7
		c-0.4,0.5-0.6,1.3-0.6,2.3c0,1.1,0.2,1.9,0.6,2.3C581.5,335.8,582.1,336,582.9,336z"/>
	<path class="st5" d="M589,328.7h1.5l0.1,1h0.1c0.8-0.4,1.5-0.7,2.1-0.9c0.6-0.2,1.1-0.3,1.6-0.3c0.7,0,1.3,0.2,1.7,0.6
		s0.6,1,0.6,1.8v6.4h-1.8v-5.8c0-0.5-0.1-0.9-0.3-1.2c-0.2-0.2-0.5-0.4-1-0.4c-0.4,0-0.8,0.1-1.3,0.2c-0.5,0.2-1,0.4-1.6,0.6v6.5
		H589V328.7z"/>
	<path class="st5" d="M606.3,337.4c-2.8,0-4.2-1.5-4.2-4.4c0-3,1.4-4.5,4.2-4.5c0.4,0,0.7,0,1.1,0.1s0.8,0.1,1.1,0.2v1.5
		c-0.3-0.1-0.7-0.1-1-0.2c-0.3,0-0.7-0.1-1-0.1c-0.9,0-1.6,0.2-2,0.7s-0.6,1.2-0.6,2.3c0,1,0.2,1.8,0.6,2.3c0.4,0.5,1.1,0.7,2,0.7
		c0.4,0,0.7,0,1.1,0c0.3,0,0.6-0.1,1-0.2v1.4c-0.3,0.1-0.6,0.1-1,0.2S606.7,337.4,606.3,337.4z"/>
	<path class="st5" d="M614.1,337.5c-1.4,0-2.4-0.4-3.1-1.1c-0.7-0.8-1.1-1.9-1.1-3.3c0-1.5,0.4-2.6,1.1-3.3c0.7-0.8,1.8-1.1,3.1-1.1
		s2.4,0.4,3.1,1.1s1.1,1.9,1.1,3.3c0,1.5-0.4,2.6-1.1,3.3S615.5,337.5,614.1,337.5z M614.1,336c0.8,0,1.4-0.2,1.8-0.7
		s0.6-1.3,0.6-2.3c0-1.1-0.2-1.9-0.6-2.3s-1-0.7-1.8-0.7s-1.4,0.2-1.8,0.7s-0.6,1.3-0.6,2.3c0,1.1,0.2,1.9,0.6,2.3
		S613.3,336,614.1,336z"/>
	<path class="st5" d="M623.3,337.5c-1.2,0-2.1-0.4-2.7-1.1c-0.6-0.7-0.9-1.8-0.9-3.3c0-0.8,0.1-1.4,0.3-2s0.5-1.1,0.9-1.4
		c0.4-0.4,0.9-0.7,1.4-0.9s1.2-0.3,1.8-0.3c0.3,0,0.7,0,1,0s0.6,0.1,0.9,0.1v-4.3h1.8v12.9h-1.6l-0.1-1.1H626
		C625.4,337.1,624.5,337.5,623.3,337.5z M623.7,336.1c0.3,0,0.6,0,0.9-0.1c0.3-0.1,0.5-0.2,0.7-0.4c0.2-0.2,0.4-0.4,0.5-0.6
		s0.2-0.5,0.2-0.8V330c-0.3-0.1-0.6-0.1-0.9-0.1c-0.3,0-0.7,0-1,0c-0.9,0-1.5,0.2-2,0.7c-0.4,0.5-0.6,1.3-0.6,2.5
		c0,1.1,0.2,1.9,0.5,2.4S623,336.1,623.7,336.1z"/>
	<path class="st5" d="M633.8,337.4c-1.4,0-2.4-0.4-3.1-1.1c-0.7-0.7-1-1.8-1-3.3c0-1.5,0.3-2.6,1-3.4c0.7-0.8,1.7-1.2,3-1.2
		c2.3,0,3.5,1.3,3.5,3.9c0,0.5,0,0.9-0.1,1.2h-5.6c0.1,0.9,0.3,1.5,0.7,1.9c0.4,0.4,1,0.6,1.9,0.6c0.4,0,0.9,0,1.4-0.1
		c0.5-0.1,1-0.2,1.4-0.3l0.1,1.3c-0.4,0.2-0.9,0.3-1.5,0.4C634.8,337.4,634.3,337.4,633.8,337.4z M633.6,329.8
		c-0.7,0-1.2,0.2-1.6,0.6c-0.4,0.4-0.6,1.1-0.6,2h4.1c0-0.9-0.2-1.6-0.5-2C634.8,330,634.3,329.8,633.6,329.8z"/>
	<path class="st5" d="M643.5,327c-0.4,0-0.6-0.1-0.8-0.2s-0.2-0.4-0.2-0.8c0-0.4,0.1-0.6,0.2-0.8c0.2-0.2,0.4-0.2,0.8-0.2
		c0.4,0,0.6,0.1,0.8,0.3c0.2,0.2,0.2,0.4,0.2,0.8c0,0.3-0.1,0.6-0.2,0.8C644.2,326.9,643.9,327,643.5,327z M642.6,328.7h1.8v8.6
		h-1.8V328.7z"/>
	<path class="st5" d="M646.7,328.7h1.5l0.1,1h0.1c0.8-0.4,1.5-0.7,2.1-0.9c0.6-0.2,1.1-0.3,1.6-0.3c0.7,0,1.3,0.2,1.7,0.6
		c0.4,0.4,0.6,1,0.6,1.8v6.4h-1.8v-5.8c0-0.5-0.1-0.9-0.3-1.2c-0.2-0.2-0.5-0.4-1-0.4c-0.4,0-0.8,0.1-1.3,0.2
		c-0.5,0.2-1,0.4-1.6,0.6v6.5h-1.8V328.7z"/>
	<path class="st5" d="M662.1,337.4c-0.8,0-1.4-0.2-1.8-0.6c-0.4-0.4-0.6-1-0.6-1.7c0-0.8,0.3-1.5,0.8-1.9c0.5-0.4,1.4-0.7,2.5-0.8
		l2-0.2v-0.5c0-0.4,0-0.6-0.1-0.9c-0.1-0.2-0.2-0.4-0.3-0.6c-0.2-0.1-0.4-0.2-0.6-0.3s-0.6-0.1-1-0.1c-0.4,0-0.8,0-1.2,0.1
		s-0.9,0.1-1.4,0.2l-0.1-1.3c1.1-0.2,2.1-0.3,3.1-0.3c1.2,0,2.1,0.2,2.6,0.7s0.9,1.2,0.9,2.2v5.9h-1.5l-0.2-1.1h-0.1
		c-0.5,0.4-1,0.7-1.5,0.9S662.6,337.4,662.1,337.4z M662.8,336.1c0.4,0,0.7-0.1,1.1-0.2c0.4-0.2,0.8-0.4,1.1-0.6v-2l-1.5,0.1
		c-0.7,0.1-1.3,0.2-1.6,0.4c-0.3,0.2-0.4,0.6-0.4,1.1C661.6,335.7,662,336.1,662.8,336.1z"/>
	<path class="st5" d="M669.1,328.7h1.5l0.1,1h0.1c0.8-0.4,1.5-0.7,2.1-0.9c0.6-0.2,1.1-0.3,1.6-0.3c0.7,0,1.3,0.2,1.7,0.6
		c0.4,0.4,0.6,1,0.6,1.8v6.4H675v-5.8c0-0.5-0.1-0.9-0.3-1.2c-0.2-0.2-0.5-0.4-1-0.4c-0.4,0-0.8,0.1-1.3,0.2c-0.5,0.2-1,0.4-1.6,0.6
		v6.5h-1.8V328.7z"/>
	<path class="st5" d="M511.9,356.7c-0.6,0-1.2,0-1.9-0.1c-0.7-0.1-1.4-0.2-2-0.4v-1.5c0.7,0.2,1.3,0.3,2,0.4
		c0.7,0.1,1.3,0.1,1.8,0.1c1.8,0,2.7-0.6,2.7-1.8c0-0.3-0.1-0.6-0.2-0.8c-0.1-0.2-0.3-0.4-0.5-0.6s-0.5-0.3-0.8-0.4
		c-0.3-0.1-0.7-0.2-1-0.3c-0.6-0.2-1.2-0.3-1.6-0.5c-0.5-0.2-0.8-0.4-1.1-0.7c-0.3-0.3-0.5-0.6-0.7-1c-0.1-0.4-0.2-0.8-0.2-1.3
		c0-0.5,0.1-1,0.3-1.4c0.2-0.4,0.5-0.8,0.8-1c0.4-0.3,0.8-0.5,1.3-0.7c0.5-0.2,1.1-0.2,1.8-0.2c0.5,0,1,0,1.5,0.1
		c0.5,0.1,1.1,0.2,1.8,0.3v1.5c-0.5-0.1-1-0.2-1.6-0.3c-0.6-0.1-1.1-0.1-1.5-0.1c-0.8,0-1.4,0.2-1.9,0.5c-0.4,0.3-0.7,0.8-0.7,1.3
		c0,0.5,0.2,1,0.6,1.3c0.4,0.3,1.1,0.6,2,0.8c0.6,0.1,1.1,0.3,1.5,0.5c0.4,0.2,0.8,0.4,1.2,0.7c0.3,0.3,0.6,0.6,0.7,1
		c0.2,0.4,0.3,0.8,0.3,1.4c0,1.1-0.4,1.9-1.1,2.5S513.3,356.7,511.9,356.7z"/>
	<path class="st5" d="M518.2,344.7h2.5l2.8,6.8l0.9,2.5h0.1l0.9-2.5l2.8-6.8h2.5v11.8h-1.6v-9.6H529l-1.3,3.3l-2.4,5.9h-1.6
		l-2.4-5.9l-1.3-3.3h-0.1v9.6h-1.6V344.7z"/>
	<path class="st5" d="M536.7,356.7c-0.6,0-1.2,0-1.9-0.1c-0.7-0.1-1.4-0.2-2-0.4v-1.5c0.7,0.2,1.3,0.3,2,0.4
		c0.7,0.1,1.3,0.1,1.8,0.1c1.8,0,2.7-0.6,2.7-1.8c0-0.3-0.1-0.6-0.2-0.8c-0.1-0.2-0.3-0.4-0.5-0.6s-0.5-0.3-0.8-0.4
		c-0.3-0.1-0.7-0.2-1-0.3c-0.6-0.2-1.2-0.3-1.6-0.5c-0.5-0.2-0.8-0.4-1.1-0.7c-0.3-0.3-0.5-0.6-0.7-1c-0.1-0.4-0.2-0.8-0.2-1.3
		c0-0.5,0.1-1,0.3-1.4c0.2-0.4,0.5-0.8,0.8-1c0.4-0.3,0.8-0.5,1.3-0.7c0.5-0.2,1.1-0.2,1.8-0.2c0.5,0,1,0,1.5,0.1
		c0.5,0.1,1.1,0.2,1.8,0.3v1.5c-0.5-0.1-1-0.2-1.6-0.3c-0.6-0.1-1.1-0.1-1.5-0.1c-0.8,0-1.4,0.2-1.9,0.5c-0.4,0.3-0.7,0.8-0.7,1.3
		c0,0.5,0.2,1,0.6,1.3c0.4,0.3,1.1,0.6,2,0.8c0.6,0.1,1.1,0.3,1.5,0.5c0.4,0.2,0.8,0.4,1.2,0.7c0.3,0.3,0.6,0.6,0.7,1
		c0.2,0.4,0.3,0.8,0.3,1.4c0,1.1-0.4,1.9-1.1,2.5S538.1,356.7,536.7,356.7z"/>
	<path class="st5" d="M546.4,347.9h1.5l0.1,1h0.1c0.7-0.4,1.2-0.7,1.7-0.9s1-0.3,1.4-0.3c1,0,1.7,0.4,2.1,1.2h0.1
		c0.7-0.4,1.3-0.7,1.8-0.9s1-0.3,1.4-0.3c0.7,0,1.3,0.2,1.7,0.6s0.6,1,0.6,1.8v6.4h-1.8v-5.8c0-0.5-0.1-0.9-0.3-1.2s-0.5-0.3-1-0.3
		c-0.3,0-0.6,0.1-1,0.2c-0.4,0.1-0.8,0.3-1.2,0.6v6.5h-1.8v-5.8c0-0.5-0.1-0.9-0.3-1.2s-0.5-0.3-1-0.3c-0.3,0-0.7,0.1-1.1,0.2
		s-0.8,0.3-1.2,0.6v6.5h-1.8V347.9z"/>
	<path class="st5" d="M564.8,356.6c-1.4,0-2.4-0.4-3.1-1.1c-0.7-0.7-1-1.8-1-3.3c0-1.5,0.3-2.6,1-3.4c0.7-0.8,1.7-1.2,3-1.2
		c2.3,0,3.5,1.3,3.5,3.9c0,0.5,0,0.9-0.1,1.2h-5.6c0.1,0.9,0.3,1.5,0.7,1.9c0.4,0.4,1,0.6,1.9,0.6c0.4,0,0.9,0,1.4-0.1
		c0.5-0.1,1-0.2,1.4-0.3l0.1,1.3c-0.4,0.2-0.9,0.3-1.5,0.4C565.9,356.6,565.3,356.6,564.8,356.6z M564.7,349c-0.7,0-1.2,0.2-1.6,0.6
		c-0.4,0.4-0.6,1.1-0.6,2h4.1c0-0.9-0.2-1.6-0.5-2C565.8,349.2,565.3,349,564.7,349z"/>
	<path class="st5" d="M572.7,356.7c-0.4,0-0.9,0-1.4-0.1s-1.1-0.2-1.7-0.3v-1.4c0.6,0.1,1.1,0.2,1.6,0.3c0.5,0.1,1,0.1,1.4,0.1
		c1.2,0,1.8-0.4,1.8-1.2c0-0.4-0.2-0.7-0.5-0.9c-0.3-0.2-0.7-0.3-1.2-0.4c-0.3-0.1-0.7-0.1-1-0.2c-0.4-0.1-0.7-0.2-1-0.4
		c-0.3-0.2-0.5-0.4-0.7-0.7c-0.2-0.3-0.3-0.7-0.3-1.3c0-0.8,0.3-1.4,0.9-1.9c0.6-0.5,1.4-0.7,2.5-0.7c0.2,0,0.4,0,0.6,0
		s0.4,0,0.6,0.1s0.4,0.1,0.7,0.1c0.3,0,0.5,0.1,0.9,0.2l-0.1,1.4c-0.6-0.1-1-0.2-1.4-0.3c-0.4-0.1-0.8-0.1-1.1-0.1
		c-0.6,0-1,0.1-1.3,0.3c-0.3,0.2-0.4,0.5-0.4,0.9c0,0.2,0,0.4,0.1,0.6c0.1,0.1,0.2,0.3,0.4,0.4c0.2,0.1,0.4,0.2,0.6,0.2
		c0.2,0.1,0.5,0.1,0.8,0.2c0.4,0.1,0.8,0.2,1.1,0.3c0.3,0.1,0.6,0.3,0.9,0.5c0.2,0.2,0.4,0.4,0.6,0.7c0.1,0.3,0.2,0.7,0.2,1.1
		c0,0.8-0.3,1.5-0.9,1.9C574.6,356.4,573.8,356.7,572.7,356.7z"/>
	<path class="st5" d="M580.5,356.7c-0.4,0-0.9,0-1.4-0.1s-1.1-0.2-1.7-0.3v-1.4c0.6,0.1,1.1,0.2,1.6,0.3c0.5,0.1,1,0.1,1.4,0.1
		c1.2,0,1.8-0.4,1.8-1.2c0-0.4-0.2-0.7-0.5-0.9c-0.3-0.2-0.7-0.3-1.2-0.4c-0.3-0.1-0.7-0.1-1-0.2c-0.4-0.1-0.7-0.2-1-0.4
		c-0.3-0.2-0.5-0.4-0.7-0.7c-0.2-0.3-0.3-0.7-0.3-1.3c0-0.8,0.3-1.4,0.9-1.9c0.6-0.5,1.4-0.7,2.5-0.7c0.2,0,0.4,0,0.6,0
		s0.4,0,0.6,0.1s0.4,0.1,0.7,0.1c0.3,0,0.5,0.1,0.9,0.2l-0.1,1.4c-0.6-0.1-1-0.2-1.4-0.3c-0.4-0.1-0.8-0.1-1.1-0.1
		c-0.6,0-1,0.1-1.3,0.3c-0.3,0.2-0.4,0.5-0.4,0.9c0,0.2,0,0.4,0.1,0.6c0.1,0.1,0.2,0.3,0.4,0.4c0.2,0.1,0.4,0.2,0.6,0.2
		c0.2,0.1,0.5,0.1,0.8,0.2c0.4,0.1,0.8,0.2,1.1,0.3c0.3,0.1,0.6,0.3,0.9,0.5c0.2,0.2,0.4,0.4,0.6,0.7c0.1,0.3,0.2,0.7,0.2,1.1
		c0,0.8-0.3,1.5-0.9,1.9C582.5,356.4,581.6,356.7,580.5,356.7z"/>
	<path class="st5" d="M587.5,356.6c-0.8,0-1.4-0.2-1.8-0.6c-0.4-0.4-0.6-1-0.6-1.7c0-0.8,0.3-1.5,0.8-1.9c0.5-0.4,1.4-0.7,2.5-0.8
		l2-0.2v-0.5c0-0.4,0-0.6-0.1-0.9c-0.1-0.2-0.2-0.4-0.3-0.6c-0.2-0.1-0.4-0.2-0.6-0.3s-0.6-0.1-1-0.1c-0.4,0-0.8,0-1.2,0.1
		c-0.4,0-0.9,0.1-1.4,0.2l-0.1-1.3c1.1-0.2,2.1-0.3,3.1-0.3c1.2,0,2.1,0.2,2.6,0.7c0.6,0.5,0.9,1.2,0.9,2.2v5.9h-1.5l-0.2-1.1h-0.1
		c-0.5,0.4-1,0.7-1.5,0.9C588.5,356.5,588,356.6,587.5,356.6z M588.2,355.3c0.4,0,0.7-0.1,1.1-0.2c0.4-0.2,0.8-0.4,1.1-0.6v-2
		l-1.5,0.1c-0.7,0.1-1.3,0.2-1.6,0.4c-0.3,0.2-0.4,0.6-0.4,1.1C587,354.9,587.4,355.3,588.2,355.3z"/>
	<path class="st5" d="M597.7,360c-0.5,0-1.1,0-1.6-0.1c-0.5-0.1-1-0.1-1.4-0.3l0.1-1.4c0.4,0.1,0.8,0.2,1.3,0.2s0.9,0.1,1.4,0.1
		c0.4,0,0.8,0,1.2-0.1c0.4-0.1,0.7-0.2,1-0.5s0.5-0.5,0.6-0.9c0.1-0.4,0.2-0.8,0.2-1.4v-0.6h-0.1c-0.6,0.8-1.5,1.2-2.7,1.2
		c-1.2,0-2.1-0.3-2.7-1c-0.6-0.7-0.9-1.7-0.9-3.2c0-0.8,0.1-1.4,0.3-2s0.5-1,0.9-1.4c0.4-0.4,0.9-0.7,1.4-0.8s1.2-0.3,1.8-0.3
		c0.5,0,1.1,0,1.6,0.1c0.6,0.1,1.3,0.2,2,0.4v7.3c0,0.9-0.1,1.6-0.4,2.1c-0.2,0.6-0.6,1-1,1.4s-0.9,0.6-1.4,0.7
		C598.9,359.9,598.3,360,597.7,360z M598.1,355.1c0.3,0,0.6,0,0.9-0.1c0.3-0.1,0.5-0.2,0.7-0.4s0.4-0.4,0.5-0.6
		c0.1-0.2,0.2-0.5,0.2-0.8v-4c-0.3-0.1-0.6-0.1-0.9-0.1c-0.3,0-0.7,0-1,0c-0.9,0-1.5,0.2-2,0.7s-0.6,1.3-0.6,2.4
		c0,1.1,0.2,1.8,0.5,2.3S597.3,355.1,598.1,355.1z"/>
	<path class="st5" d="M608.1,356.6c-1.4,0-2.4-0.4-3.1-1.1c-0.7-0.7-1-1.8-1-3.3c0-1.5,0.3-2.6,1-3.4c0.7-0.8,1.7-1.2,3-1.2
		c2.3,0,3.5,1.3,3.5,3.9c0,0.5,0,0.9-0.1,1.2h-5.6c0.1,0.9,0.3,1.5,0.7,1.9c0.4,0.4,1,0.6,1.9,0.6c0.4,0,0.9,0,1.4-0.1
		c0.5-0.1,1-0.2,1.4-0.3l0.1,1.3c-0.4,0.2-0.9,0.3-1.5,0.4C609.2,356.6,608.7,356.6,608.1,356.6z M608,349c-0.7,0-1.2,0.2-1.6,0.6
		c-0.4,0.4-0.6,1.1-0.6,2h4.1c0-0.9-0.2-1.6-0.5-2C609.1,349.2,608.7,349,608,349z"/>
	<path class="st5" d="M616,356.7c-0.4,0-0.9,0-1.4-0.1c-0.5-0.1-1.1-0.2-1.7-0.3v-1.4c0.6,0.1,1.1,0.2,1.6,0.3
		c0.5,0.1,1,0.1,1.4,0.1c1.2,0,1.8-0.4,1.8-1.2c0-0.4-0.2-0.7-0.5-0.9c-0.3-0.2-0.7-0.3-1.2-0.4c-0.3-0.1-0.7-0.1-1-0.2
		c-0.4-0.1-0.7-0.2-1-0.4c-0.3-0.2-0.5-0.4-0.7-0.7c-0.2-0.3-0.3-0.7-0.3-1.3c0-0.8,0.3-1.4,0.9-1.9c0.6-0.5,1.4-0.7,2.5-0.7
		c0.2,0,0.4,0,0.6,0s0.4,0,0.6,0.1c0.2,0,0.4,0.1,0.7,0.1c0.2,0,0.5,0.1,0.9,0.2l-0.1,1.4c-0.6-0.1-1-0.2-1.4-0.3
		c-0.4-0.1-0.8-0.1-1.1-0.1c-0.6,0-1,0.1-1.3,0.3c-0.3,0.2-0.4,0.5-0.4,0.9c0,0.2,0,0.4,0.1,0.6c0.1,0.1,0.2,0.3,0.4,0.4
		c0.2,0.1,0.4,0.2,0.6,0.2s0.5,0.1,0.8,0.2c0.4,0.1,0.8,0.2,1.1,0.3c0.3,0.1,0.6,0.3,0.9,0.5s0.4,0.4,0.6,0.7
		c0.1,0.3,0.2,0.7,0.2,1.1c0,0.8-0.3,1.5-0.9,1.9C617.9,356.4,617.1,356.7,616,356.7z"/>
	<path class="st5" d="M628.3,356.7c-0.9,0-1.5-0.2-2-0.6c-0.4-0.4-0.7-1.1-0.7-1.9v-4.7H624v-1.5h1.8l0.3-2.3l1.4-0.2v2.4h2.4v1.5
		h-2.4v4.3c0,0.5,0.1,0.9,0.3,1.1c0.2,0.2,0.6,0.4,1.1,0.4c0.1,0,0.3,0,0.5,0s0.4-0.1,0.6-0.1v1.4c-0.2,0.1-0.5,0.1-0.8,0.2
		C628.9,356.6,628.6,356.7,628.3,356.7z"/>
	<path class="st5" d="M635.2,356.7c-1.4,0-2.4-0.4-3.1-1.1s-1.1-1.9-1.1-3.3c0-1.5,0.4-2.6,1.1-3.3s1.8-1.1,3.1-1.1s2.4,0.4,3.1,1.1
		c0.7,0.8,1.1,1.9,1.1,3.3c0,1.5-0.4,2.6-1.1,3.3C637.6,356.3,636.5,356.7,635.2,356.7z M635.2,355.2c0.8,0,1.4-0.2,1.8-0.7
		c0.4-0.5,0.6-1.3,0.6-2.3c0-1.1-0.2-1.9-0.6-2.3c-0.4-0.5-1-0.7-1.8-0.7s-1.4,0.2-1.8,0.7c-0.4,0.5-0.6,1.3-0.6,2.3
		c0,1.1,0.2,1.9,0.6,2.3C633.7,355,634.3,355.2,635.2,355.2z"/>
	<path class="st5" d="M527.7,375.9c-0.9,0-1.5-0.2-2-0.6c-0.4-0.4-0.7-1.1-0.7-1.9v-4.7h-1.7v-1.5h1.8l0.3-2.3l1.4-0.2v2.4h2.4v1.5
		h-2.4v4.3c0,0.5,0.1,0.9,0.3,1.1c0.2,0.2,0.6,0.4,1.1,0.4c0.1,0,0.3,0,0.5,0c0.2,0,0.4-0.1,0.6-0.1v1.4c-0.2,0.1-0.5,0.1-0.8,0.2
		C528.3,375.8,528,375.9,527.7,375.9z"/>
	<path class="st5" d="M530.8,362.8h1.8v5.2c0.8-0.4,1.5-0.7,2-0.8c0.6-0.2,1.1-0.3,1.6-0.3c0.7,0,1.3,0.2,1.7,0.6s0.6,1,0.6,1.8v6.4
		h-1.8v-5.8c0-0.5-0.1-0.9-0.3-1.2s-0.5-0.4-1-0.4c-0.4,0-0.8,0.1-1.3,0.2c-0.5,0.2-1,0.4-1.6,0.6v6.5h-1.8V362.8z"/>
	<path class="st5" d="M544.5,375.8c-1.4,0-2.4-0.4-3.1-1.1s-1-1.8-1-3.3c0-1.5,0.3-2.6,1-3.4s1.7-1.2,3-1.2c2.3,0,3.5,1.3,3.5,3.9
		c0,0.5,0,0.9-0.1,1.2h-5.6c0.1,0.9,0.3,1.5,0.7,1.9c0.4,0.4,1,0.6,1.9,0.6c0.4,0,0.9,0,1.4-0.1c0.5-0.1,1-0.2,1.4-0.3l0.1,1.3
		c-0.4,0.2-0.9,0.3-1.5,0.4C545.5,375.8,545,375.8,544.5,375.8z M544.3,368.2c-0.7,0-1.2,0.2-1.6,0.6c-0.4,0.4-0.6,1.1-0.6,2h4.1
		c0-0.9-0.2-1.6-0.5-2C545.5,368.4,545,368.2,544.3,368.2z"/>
	<path class="st5" d="M557.1,375.8c-2.8,0-4.2-1.5-4.2-4.4c0-3,1.4-4.5,4.2-4.5c0.4,0,0.7,0,1.1,0.1c0.4,0,0.8,0.1,1.1,0.2v1.5
		c-0.3-0.1-0.7-0.1-1-0.2s-0.7-0.1-1-0.1c-0.9,0-1.6,0.2-2,0.7s-0.6,1.2-0.6,2.3c0,1,0.2,1.8,0.6,2.3c0.4,0.5,1.1,0.7,2,0.7
		c0.4,0,0.7,0,1.1,0c0.3,0,0.6-0.1,1-0.2v1.4c-0.3,0.1-0.6,0.1-1,0.2C557.9,375.8,557.5,375.8,557.1,375.8z"/>
	<path class="st5" d="M563.4,375.9c-0.8,0-1.3-0.2-1.7-0.6c-0.4-0.4-0.6-1-0.6-1.8v-6.4h1.8v5.9c0,0.5,0.1,0.9,0.3,1.1
		c0.2,0.2,0.5,0.3,1,0.3c0.5,0,0.9-0.1,1.4-0.3c0.5-0.2,1-0.4,1.5-0.6v-6.4h1.8v8.6h-1.5l-0.1-1h-0.1c-0.4,0.2-0.8,0.4-1.1,0.5
		c-0.3,0.1-0.6,0.3-0.9,0.4c-0.3,0.1-0.6,0.2-0.8,0.2S563.7,375.9,563.4,375.9z"/>
	<path class="st5" d="M573.7,375.9c-0.4,0-0.9,0-1.4-0.1s-1.1-0.2-1.7-0.3v-1.4c0.6,0.1,1.1,0.2,1.6,0.3c0.5,0.1,1,0.1,1.4,0.1
		c1.2,0,1.8-0.4,1.8-1.2c0-0.4-0.2-0.7-0.5-0.9c-0.3-0.2-0.7-0.3-1.2-0.4c-0.3-0.1-0.7-0.1-1-0.2s-0.7-0.2-1-0.4
		c-0.3-0.2-0.5-0.4-0.7-0.7s-0.3-0.7-0.3-1.3c0-0.8,0.3-1.4,0.9-1.9c0.6-0.5,1.4-0.7,2.5-0.7c0.2,0,0.4,0,0.6,0s0.4,0,0.6,0.1
		c0.2,0,0.4,0.1,0.7,0.1s0.5,0.1,0.9,0.2l-0.1,1.4c-0.6-0.1-1-0.2-1.4-0.3c-0.4-0.1-0.8-0.1-1.1-0.1c-0.6,0-1,0.1-1.3,0.3
		c-0.3,0.2-0.4,0.5-0.4,0.9c0,0.2,0,0.4,0.1,0.6c0.1,0.1,0.2,0.3,0.4,0.4c0.2,0.1,0.4,0.2,0.6,0.2c0.2,0.1,0.5,0.1,0.8,0.2
		c0.4,0.1,0.8,0.2,1.1,0.3s0.6,0.3,0.9,0.5c0.2,0.2,0.4,0.4,0.6,0.7c0.1,0.3,0.2,0.7,0.2,1.1c0,0.8-0.3,1.5-0.9,1.9
		C575.7,375.6,574.8,375.9,573.7,375.9z"/>
	<path class="st5" d="M582.4,375.9c-0.9,0-1.5-0.2-2-0.6c-0.4-0.4-0.7-1.1-0.7-1.9v-4.7H578v-1.5h1.8l0.3-2.3l1.4-0.2v2.4h2.4v1.5
		h-2.4v4.3c0,0.5,0.1,0.9,0.3,1.1c0.2,0.2,0.6,0.4,1.1,0.4c0.1,0,0.3,0,0.5,0c0.2,0,0.4-0.1,0.6-0.1v1.4c-0.2,0.1-0.5,0.1-0.8,0.2
		C583,375.8,582.7,375.9,582.4,375.9z"/>
	<path class="st5" d="M589.3,375.9c-1.4,0-2.4-0.4-3.1-1.1c-0.7-0.8-1.1-1.9-1.1-3.3c0-1.5,0.4-2.6,1.1-3.3c0.7-0.8,1.8-1.1,3.1-1.1
		s2.4,0.4,3.1,1.1c0.7,0.8,1.1,1.9,1.1,3.3c0,1.5-0.4,2.6-1.1,3.3C591.7,375.5,590.6,375.9,589.3,375.9z M589.3,374.4
		c0.8,0,1.4-0.2,1.8-0.7c0.4-0.5,0.6-1.3,0.6-2.3s-0.2-1.9-0.6-2.3c-0.4-0.5-1-0.7-1.8-0.7s-1.4,0.2-1.8,0.7
		c-0.4,0.5-0.6,1.3-0.6,2.3s0.2,1.9,0.6,2.3C587.8,374.2,588.4,374.4,589.3,374.4z"/>
	<path class="st5" d="M595.3,367.1h1.5l0.1,1h0.1c0.7-0.4,1.2-0.7,1.7-0.9c0.5-0.2,1-0.3,1.4-0.3c1,0,1.7,0.4,2.1,1.2h0.1
		c0.7-0.4,1.3-0.7,1.8-0.9c0.5-0.2,1-0.3,1.4-0.3c0.7,0,1.3,0.2,1.7,0.6s0.6,1,0.6,1.8v6.4H606v-5.8c0-0.5-0.1-0.9-0.3-1.2
		s-0.5-0.3-1-0.3c-0.3,0-0.6,0.1-1,0.2c-0.4,0.1-0.8,0.3-1.2,0.6v6.5h-1.8v-5.8c0-0.5-0.1-0.9-0.3-1.2s-0.5-0.3-1-0.3
		c-0.3,0-0.7,0.1-1.1,0.2s-0.8,0.3-1.2,0.6v6.5h-1.8V367.1z"/>
	<path class="st5" d="M613.7,375.8c-1.4,0-2.4-0.4-3.1-1.1c-0.7-0.7-1-1.8-1-3.3c0-1.5,0.3-2.6,1-3.4c0.7-0.8,1.7-1.2,3-1.2
		c2.3,0,3.5,1.3,3.5,3.9c0,0.5,0,0.9-0.1,1.2h-5.6c0.1,0.9,0.3,1.5,0.7,1.9s1,0.6,1.9,0.6c0.4,0,0.9,0,1.4-0.1
		c0.5-0.1,1-0.2,1.4-0.3l0.1,1.3c-0.4,0.2-0.9,0.3-1.5,0.4C614.7,375.8,614.2,375.8,613.7,375.8z M613.6,368.2
		c-0.7,0-1.2,0.2-1.6,0.6c-0.4,0.4-0.6,1.1-0.6,2h4.1c0-0.9-0.2-1.6-0.5-2C614.7,368.4,614.2,368.2,613.6,368.2z"/>
	<path class="st5" d="M618.9,367.1h1.5l0.1,1.2h0.1c0.5-0.3,1.1-0.6,1.6-0.9s1-0.4,1.4-0.5h0.6v1.6h-0.6c-0.5,0.1-1,0.2-1.4,0.4
		s-0.9,0.4-1.4,0.6v6.2h-1.8V367.1z"/>
</g>
</svg>
