<?xml version="1.0" encoding="utf-8"?>
<!-- Generator: Adobe Illustrator 25.0.1, SVG Export Plug-In . SVG Version: 6.00 Build 0)  -->
<svg version="1.1" id="Layer_1" xmlns="http://www.w3.org/2000/svg" xmlns:xlink="http://www.w3.org/1999/xlink" x="0px" y="0px"
	 viewBox="0 0 1219.1 588.2" style="enable-background:new 0 0 1219.1 588.2;" xml:space="preserve">
<style type="text/css">
	.st0{fill:#0C6D72;}
	.st1{fill:#063739;}
	.st2{fill:#30721E;}
	.st3{fill:#F4F4F4;}
	.st4{fill:#E52033;}
	.st5{fill:#FFFFFF;}
</style>
<g>
	<rect x="187.9" y="95" class="st0" width="32.5" height="1"/>
	<polygon class="st0" points="218.9,100.4 227.6,95.5 218.9,90.5 	"/>
	<rect x="434.6" y="95" class="st0" width="36.5" height="1"/>
	<polygon class="st0" points="469.6,100.4 478.3,95.5 469.6,90.5 	"/>
	<rect x="896.2" y="50.5" class="st1" width="207" height="90"/>
	<path class="st0" d="M1102.2,51.5v88h-205v-88H1102.2 M1103.2,50.4h-207v90h207V50.4z"/>
	<circle class="st2" cx="151.9" cy="95.5" r="36"/>
	<path class="st3" d="M136.4,101.5c-0.3,0-0.6,0-1,0s-0.7-0.1-1.1-0.1c-0.4,0-0.7-0.1-1.1-0.2c-0.4-0.1-0.7-0.2-1.1-0.2v-1.4
		c0.7,0.2,1.4,0.3,2.2,0.4c0.6,0.1,1.3,0.2,2,0.2c0.8,0.1,1.7-0.1,2.4-0.6c0.5-0.4,0.9-1,0.8-1.7c0-0.3-0.1-0.7-0.2-1
		c-0.2-0.3-0.4-0.5-0.6-0.7c-0.3-0.2-0.6-0.4-1-0.5s-0.8-0.3-1.2-0.4c-0.6-0.2-1.2-0.4-1.8-0.6c-0.5-0.2-0.9-0.5-1.2-0.8
		s-0.6-0.7-0.7-1.1c-0.2-0.4-0.2-0.9-0.2-1.4s0.1-1,0.3-1.5s0.5-0.9,0.9-1.2s1-0.6,1.5-0.8c0.6-0.2,1.3-0.3,1.9-0.3
		c0.5,0,1.1,0,1.6,0.1c0.6,0.1,1.2,0.2,1.9,0.3l-0.1,1.3c-0.6-0.2-1.2-0.3-1.7-0.3c-0.5-0.1-1.1-0.1-1.6-0.1c-0.8,0-1.6,0.2-2.2,0.6
		c-0.5,0.4-0.8,1-0.8,1.7c0,0.3,0,0.6,0.2,0.9c0.1,0.3,0.3,0.5,0.5,0.7c0.3,0.2,0.6,0.4,0.9,0.6c0.5,0.2,0.9,0.4,1.4,0.5
		c0.6,0.2,1.1,0.3,1.6,0.5s0.9,0.4,1.3,0.7c0.4,0.3,0.6,0.7,0.8,1.1c0.2,0.5,0.3,1,0.3,1.6c0.1,1-0.4,2.1-1.2,2.7
		C138.9,101.3,137.6,101.6,136.4,101.5z"/>
	<path class="st3" d="M146.7,101.5c-0.8,0.1-1.5-0.2-2.1-0.7c-0.5-0.5-0.7-1.3-0.7-2V93h-2v-1.4h2.1l0.2-2.4l1.2-0.2v2.6h2.9V93
		h-2.9v5.4c0,0.5,0.1,1,0.4,1.3c0.3,0.3,0.8,0.5,1.3,0.4c0.2,0,0.4,0,0.6-0.1c0.2,0,0.5-0.1,0.7-0.2v1.3c-0.3,0.1-0.6,0.1-0.9,0.2
		C147.3,101.5,147,101.5,146.7,101.5z"/>
	<path class="st3" d="M152,101.4c-0.7,0-1.4-0.2-1.9-0.7s-0.7-1.2-0.7-1.9c0-0.8,0.3-1.6,0.9-2.1c0.8-0.6,1.8-0.9,2.8-0.9l2.3-0.2
		v-0.7c0-0.4,0-0.7-0.1-1.1c-0.1-0.3-0.2-0.5-0.4-0.7s-0.5-0.3-0.8-0.4c-0.4-0.1-0.8-0.1-1.2-0.1s-0.9,0-1.3,0.1
		c-0.5,0-1,0.1-1.5,0.2l-0.1-1.2c0.6-0.1,1.2-0.2,1.7-0.3s1-0.1,1.6-0.1c1-0.1,2,0.2,2.8,0.8c0.6,0.6,1,1.5,0.9,2.4v6.6h-1.3
		l-0.2-1.2h-0.1c-0.5,0.4-1.1,0.7-1.7,1C153.2,101.3,152.6,101.4,152,101.4z M152.6,100.2c0.5,0,1-0.1,1.4-0.3
		c0.5-0.2,1-0.5,1.5-0.8v-2.5l-1.9,0.2c-0.7,0-1.4,0.2-2,0.6c-0.4,0.3-0.6,0.8-0.6,1.4C151.1,99.7,151.6,100.2,152.6,100.2z"/>
	<path class="st3" d="M159.7,91.6h1.3l0.1,1.3h0.1c0.7-0.4,1.3-0.7,1.8-1s1-0.4,1.6-0.5h0.5v1.5h-0.6c-0.6,0.1-1.1,0.2-1.7,0.4
		c-0.6,0.2-1.1,0.5-1.6,0.7v7.2h-1.6L159.7,91.6L159.7,91.6L159.7,91.6z"/>
	<path class="st3" d="M170.5,101.5c-0.8,0.1-1.5-0.2-2.1-0.7c-0.5-0.5-0.8-1.3-0.7-2V93h-2v-1.4h2.1l0.2-2.4l1.2-0.2v2.6h2.9V93
		h-2.9v5.4c0,0.5,0.1,1,0.4,1.3s0.8,0.5,1.3,0.4c0.2,0,0.4,0,0.6-0.1c0.2,0,0.5-0.1,0.7-0.2v1.3c-0.3,0.1-0.6,0.1-0.9,0.2
		C171.1,101.5,170.8,101.5,170.5,101.5z"/>
	<rect x="773.4" y="68.4" class="st0" width="72" height="54"/>
	<path class="st3" d="M800.2,96.9l-4.9-8.9h1.7l3.3,6.2l0.5,1.2h0.2l0.5-1.2l3.4-6.2h1.7l-4.8,8.8v4.5h-1.6L800.2,96.9z"/>
	<path class="st3" d="M810.6,101.5c-1.2,0.1-2.5-0.4-3.4-1.2c-0.8-1-1.2-2.3-1.1-3.7c-0.1-1.4,0.3-2.7,1.1-3.8
		c0.8-0.9,2-1.4,3.3-1.3c2.5,0,3.7,1.4,3.7,4.3c0,0.4,0,0.8-0.1,1.3h-6.4c0,0.9,0.3,1.8,0.8,2.4c0.6,0.5,1.4,0.8,2.3,0.7
		c0.5,0,1,0,1.5-0.1s1-0.2,1.5-0.4l0.1,1.2c-0.5,0.2-1,0.3-1.6,0.4C811.7,101.4,811.2,101.5,810.6,101.5z M810.4,92.6
		c-1.7,0-2.7,1.1-2.8,3.3h5.1c0.1-0.9-0.1-1.7-0.6-2.5C811.8,92.9,811.1,92.6,810.4,92.6z"/>
	<path class="st3" d="M819.1,101.5c-0.5,0-0.9,0-1.4-0.1s-1.1-0.2-1.9-0.3v-1.3c0.6,0.1,1.2,0.3,1.7,0.3c0.5,0.1,1,0.1,1.5,0.1
		c0.6,0,1.1-0.1,1.6-0.4c0.4-0.3,0.6-0.7,0.5-1.2c0-0.2,0-0.5-0.1-0.7s-0.2-0.4-0.4-0.5s-0.4-0.2-0.7-0.3s-0.5-0.2-0.8-0.2l-1.1-0.2
		c-0.4-0.1-0.7-0.2-1-0.4s-0.6-0.5-0.8-0.8c-0.2-0.4-0.3-0.9-0.3-1.4c0-0.8,0.4-1.5,1-2c0.8-0.5,1.7-0.8,2.6-0.7c0.2,0,0.4,0,0.6,0
		l0.6,0.1l0.7,0.1l0.9,0.2l-0.2,1.3c-0.6-0.1-1.1-0.2-1.5-0.3s-0.8-0.1-1.1-0.1c-1.5,0-2.2,0.5-2.2,1.5c0,0.2,0,0.5,0.2,0.7
		c0.1,0.2,0.3,0.3,0.5,0.5c0.2,0.1,0.5,0.2,0.7,0.3c0.3,0.1,0.6,0.1,0.9,0.2c0.4,0.1,0.8,0.2,1.2,0.3s0.7,0.3,1,0.5s0.5,0.5,0.6,0.8
		c0.2,0.4,0.2,0.8,0.2,1.2c0,0.8-0.3,1.6-1,2.1C821,101.3,820.1,101.6,819.1,101.5z"/>
	<rect x="227.6" y="50.5" class="st1" width="207" height="90"/>
	<path class="st0" d="M433.6,51.5v88h-205v-88H433.6 M434.6,50.5h-207v90h207V50.5z"/>
	<g>
		<circle class="st0" cx="331.1" cy="543.2" r="36"/>
		<path class="st3" d="M316.3,535.7h8.5v1.3h-6.9v4.6h6.4v1.4h-6.4v4.8h7v1.3h-8.6V535.7z"/>
		<path class="st3" d="M327.1,539.2h1.3l0.1,1.1h0.1l1.3-0.6c0.4-0.2,0.7-0.3,1.1-0.4c0.3-0.1,0.6-0.2,0.9-0.2s0.6-0.1,0.8-0.1
			c0.7,0,1.4,0.2,1.9,0.7s0.7,1.3,0.7,2v7.2h-1.6v-6.7c0-0.5-0.1-1-0.4-1.4c-0.3-0.3-0.8-0.5-1.2-0.4c-0.5,0-1.1,0.1-1.6,0.3
			c-0.7,0.2-1.3,0.5-1.9,0.8v7.5H327L327.1,539.2L327.1,539.2z"/>
		<path class="st3" d="M341.5,549.2c-1.1,0.1-2.2-0.4-3-1.2c-0.8-1.1-1.1-2.4-1-3.8c0-0.8,0.1-1.5,0.3-2.3c0.2-0.6,0.6-1.1,1-1.6
			c0.4-0.4,0.9-0.8,1.5-1s1.3-0.3,2-0.3c0.4,0,0.8,0,1.2,0.1l1.1,0.1v-4.8h1.5v14.5h-1.4l-0.1-1.2h-0.1
			C343.7,548.7,342.6,549.2,341.5,549.2z M341.8,547.9c0.3,0,0.7-0.1,1-0.1c0.3-0.1,0.6-0.2,0.9-0.4c0.2-0.2,0.5-0.4,0.6-0.7
			s0.2-0.6,0.2-0.9v-5.2c-0.4-0.1-0.7-0.1-1.1-0.1s-0.8-0.1-1.2-0.1c-0.9-0.1-1.8,0.3-2.4,0.9c-0.6,0.9-0.9,1.9-0.8,2.9
			c-0.1,1,0.1,2,0.7,2.9C340.2,547.7,341,548,341.8,547.9L341.8,547.9z"/>
	</g>
	<rect x="537.7" y="404.9" class="st4" width="72" height="54"/>
	<path class="st3" d="M563,424.4h1.4l6.8,9.3l1,1.6h0.1v-10.9h1.5v13.3h-1.4l-6.9-9.3l-1-1.6h-0.1v10.8h-1.5L563,424.4L563,424.4z"
		/>
	<path class="st3" d="M580.7,437.9c-1.3,0.1-2.5-0.4-3.4-1.3c-1.5-2.3-1.5-5.2,0-7.5c1.9-1.7,4.8-1.7,6.7,0c1.5,2.3,1.5,5.2,0,7.5
		C583.2,437.5,581.9,438,580.7,437.9z M580.7,436.7c0.8,0.1,1.7-0.3,2.2-0.9c0.9-1.8,0.9-3.9,0-5.7c-1.2-1.2-3.2-1.2-4.4,0
		c-0.9,1.8-0.9,3.9,0,5.7C579,436.3,579.8,436.8,580.7,436.7L580.7,436.7z"/>
	<rect x="669.2" y="95" class="st0" width="97" height="1"/>
	<polygon class="st0" points="764.7,100.4 773.4,95.5 764.7,90.5 	"/>
	<rect x="845.4" y="95" class="st0" width="43.6" height="1"/>
	<polygon class="st0" points="887.5,100.4 896.2,95.5 887.5,90.5 	"/>
	<rect x="573.2" y="190.1" class="st0" width="1" height="207.5"/>
	<polygon class="st0" points="568.7,396.3 573.7,404.9 578.7,396.3 	"/>
	
		<rect x="506.2" y="28" transform="matrix(0.7071 -0.7071 0.7071 0.7071 100.5186 433.6294)" class="st1" width="135" height="135"/>
	<path class="st0" d="M573.7,1.4l94,94.1l-94,94l-94-94L573.7,1.4 M573.7,0.1l-95.5,95.4l95.5,95.5l95.5-95.5L573.7,0.1L573.7,0.1z"
		/>
	<path class="st3" d="M515.1,101.2l4.8-13.2h2.4l4.8,13.2v0.1h-1.6l-1.5-4h-6l-1.4,4L515.1,101.2L515.1,101.2L515.1,101.2z
		 M523.6,96l-1.6-4.5l-0.8-2.3h-0.1l-0.8,2.3l-1.6,4.5H523.6z"/>
	<path class="st3" d="M528.6,86.8h1.6v14.5h-1.6V86.8z"/>
	<path class="st3" d="M534.9,101.4c-0.7,0-1.4-0.2-1.9-0.7s-0.7-1.2-0.7-1.9c-0.1-0.8,0.3-1.6,0.9-2.1c0.8-0.6,1.8-0.9,2.8-0.9
		l2.3-0.2v-0.7c0-0.4,0-0.7-0.1-1.1c-0.1-0.3-0.2-0.5-0.4-0.7s-0.5-0.3-0.7-0.4c-0.4-0.1-0.8-0.1-1.2-0.1s-0.9,0-1.3,0.1
		c-0.5,0-1,0.1-1.5,0.2l-0.1-1.2c0.6-0.1,1.2-0.2,1.7-0.3s1-0.1,1.6-0.1c1-0.1,2,0.2,2.8,0.8c0.6,0.6,1,1.5,0.9,2.4v6.6h-1.3
		l-0.2-1.2h-0.1c-0.5,0.4-1.1,0.7-1.7,1C536.1,101.3,535.5,101.4,534.9,101.4z M535.5,100.2c0.5,0,1-0.1,1.4-0.3
		c0.5-0.2,1-0.5,1.5-0.8v-2.5l-1.9,0.2c-0.7,0-1.4,0.2-2,0.6c-0.4,0.3-0.6,0.8-0.6,1.4C533.9,99.7,534.4,100.2,535.5,100.2z"/>
	<path class="st3" d="M542.6,91.6h1.3l0.1,1.3h0.1c0.7-0.4,1.3-0.7,1.9-1c0.5-0.2,1-0.4,1.6-0.5h0.5v1.5h-0.6
		c-0.6,0.1-1.1,0.2-1.7,0.4c-0.6,0.2-1.1,0.5-1.6,0.7v7.2h-1.6V91.6z"/>
	<path class="st3" d="M549.6,91.6h1.3l0.1,1.1h0.1c0.6-0.4,1.3-0.7,2-1c0.5-0.2,1-0.3,1.6-0.3c1-0.1,1.9,0.4,2.3,1.3h0.1
		c0.6-0.4,1.3-0.7,2-1c0.5-0.2,1-0.3,1.6-0.3c0.7,0,1.4,0.2,1.9,0.7s0.7,1.3,0.7,2v7.2h-1.6v-6.7c0-0.5-0.1-1-0.4-1.4
		c-0.3-0.3-0.8-0.5-1.2-0.4c-0.4,0-0.9,0.1-1.3,0.3c-0.5,0.2-1,0.5-1.5,0.7v7.5h-1.6v-6.7c0-0.5-0.1-1-0.4-1.4
		c-0.3-0.3-0.8-0.5-1.2-0.4c-0.4,0-0.9,0.1-1.3,0.3c-0.5,0.2-1,0.5-1.5,0.8v7.5h-1.6L549.6,91.6L549.6,91.6z"/>
	<path class="st3" d="M570.8,89.6c-0.5,0.1-0.9-0.2-1-0.7c0-0.1,0-0.2,0-0.3c-0.1-0.5,0.2-0.9,0.7-1c0.1,0,0.2,0,0.3,0
		c0.7,0,1,0.3,1,1S571.5,89.6,570.8,89.6z M570,91.6h1.6v9.7H570V91.6z"/>
	<path class="st3" d="M577.1,101.5c-0.5,0-0.9,0-1.4-0.1s-1.1-0.2-1.9-0.3v-1.3c0.6,0.1,1.2,0.3,1.7,0.3c0.5,0.1,1,0.1,1.5,0.1
		c0.6,0,1.1-0.1,1.6-0.4c0.4-0.3,0.6-0.7,0.5-1.2c0-0.2,0-0.5-0.1-0.7s-0.2-0.4-0.4-0.5s-0.4-0.2-0.6-0.3c-0.3-0.1-0.5-0.1-0.8-0.2
		s-0.8-0.2-1.1-0.3c-0.4-0.1-0.7-0.2-1-0.4s-0.6-0.5-0.8-0.8c-0.2-0.4-0.3-0.9-0.3-1.4c0-0.8,0.3-1.6,0.9-2.1
		c0.8-0.5,1.7-0.8,2.6-0.7h0.6l0.6,0.1l0.7,0.1c0.3,0,0.6,0.1,0.9,0.2l-0.1,1.3c-0.6-0.1-1.1-0.2-1.5-0.3s-0.8-0.1-1.1-0.1
		c-1.5,0-2.2,0.5-2.2,1.5c0,0.2,0.1,0.5,0.2,0.7c0.1,0.2,0.3,0.4,0.5,0.5s0.5,0.2,0.7,0.3c0.3,0.1,0.6,0.1,0.9,0.2
		c0.4,0.1,0.8,0.2,1.2,0.3s0.7,0.3,1,0.5s0.5,0.5,0.6,0.8c0.2,0.4,0.2,0.8,0.2,1.2c0,0.8-0.3,1.6-0.9,2.1
		C579.1,101.3,578.1,101.6,577.1,101.5z"/>
	<path class="st3" d="M585.6,91.8v-0.2h1.6l2.5,7l0.4,1.5h0.2l0.4-1.5l2.5-7h1.6v0.2l-3.7,9.5h-2L585.6,91.8z"/>
	<path class="st3" d="M598.5,101.4c-0.7,0-1.4-0.2-1.9-0.7s-0.7-1.2-0.7-1.9c0-0.8,0.3-1.6,0.9-2.1c0.8-0.6,1.8-0.9,2.8-0.9l2.3-0.2
		v-0.7c0-0.4,0-0.7-0.1-1.1c-0.1-0.3-0.2-0.5-0.4-0.7s-0.5-0.3-0.8-0.4c-0.4-0.1-0.8-0.1-1.2-0.1s-0.9,0-1.3,0.1
		c-0.5,0-1,0.1-1.5,0.2l-0.1-1.2c0.6-0.1,1.2-0.2,1.7-0.3s1-0.1,1.6-0.1c1-0.1,2,0.2,2.8,0.8c0.6,0.6,1,1.5,0.9,2.4v6.6h-1.3
		L602,100h-0.1c-0.5,0.4-1.1,0.7-1.7,1S599.1,101.4,598.5,101.4z M599,100.2c0.5,0,1-0.1,1.4-0.3c0.5-0.2,1-0.5,1.5-0.8v-2.4
		l-1.9,0.2c-0.7,0-1.4,0.2-2,0.6c-0.4,0.3-0.6,0.8-0.6,1.4C597.5,99.7,598,100.2,599,100.2z"/>
	<path class="st3" d="M606.2,86.8h1.6v14.5h-1.6V86.8z"/>
	<path class="st3" d="M611.3,89.6c-0.5,0.1-0.9-0.2-1-0.7c0-0.1,0-0.2,0-0.3c-0.1-0.5,0.2-0.9,0.7-1c0.1,0,0.2,0,0.3,0
		c0.7,0,1,0.3,1,1S612,89.6,611.3,89.6z M610.5,91.6h1.6v9.7h-1.6V91.6z"/>
	<path class="st3" d="M618.4,101.5c-1.1,0.1-2.2-0.4-3-1.2c-0.8-1.1-1.1-2.4-1-3.8c0-0.8,0.1-1.5,0.3-2.3c0.2-0.6,0.6-1.1,1-1.6
		c0.4-0.4,0.9-0.8,1.5-1s1.3-0.3,2-0.3c0.4,0,0.8,0,1.2,0.1l1.1,0.1v-4.8h1.6v14.5h-1.4l-0.1-1.2h-0.1
		C620.7,101.1,619.6,101.6,618.4,101.5z M618.7,100.2c0.3,0,0.7-0.1,1-0.2s0.6-0.2,0.9-0.4c0.2-0.2,0.5-0.4,0.6-0.7s0.2-0.6,0.2-0.9
		v-5.2c-0.4-0.1-0.7-0.1-1.1-0.1c-0.4,0-0.8-0.1-1.2-0.1c-0.9-0.1-1.8,0.3-2.4,0.9c-0.6,0.8-0.9,1.9-0.8,2.9c-0.1,1,0.1,2,0.7,2.9
		C617.1,100,617.9,100.3,618.7,100.2L618.7,100.2z"/>
	<path class="st3" d="M627,97.8l-0.1-3.4c0.4-0.1,0.8-0.2,1.2-0.3s0.8-0.3,1.1-0.5s0.6-0.5,0.8-0.8c0.2-0.4,0.3-0.8,0.3-1.2
		s-0.1-0.8-0.2-1.1c-0.1-0.3-0.3-0.5-0.6-0.7c-0.2-0.2-0.5-0.3-0.8-0.4s-0.7-0.1-1-0.1c-0.4,0-0.9,0-1.3,0.1
		c-0.4,0.1-0.9,0.2-1.3,0.3l-0.1-1.2c0.5-0.1,1-0.3,1.5-0.3c0.5-0.1,1.1-0.1,1.6-0.1s1,0.1,1.5,0.2c0.4,0.1,0.9,0.3,1.2,0.6
		c0.4,0.3,0.6,0.7,0.8,1.1c0.2,0.5,0.3,1.1,0.3,1.7c0,1-0.4,2-1.1,2.7c-0.3,0.3-0.7,0.5-1.2,0.7c-0.4,0.2-0.8,0.3-1.3,0.4v2.6v0.3
		h-1.2L627,97.8z M627.6,101.3c-0.2,0-0.5-0.1-0.7-0.3s-0.3-0.4-0.3-0.7s0.1-0.5,0.3-0.7s0.4-0.3,0.7-0.2c0.3,0,0.5,0.1,0.7,0.2
		c0.2,0.2,0.3,0.4,0.3,0.7c0,0.2-0.1,0.5-0.3,0.7C628.1,101.3,627.9,101.4,627.6,101.3L627.6,101.3z"/>
	<g>
		<rect x="330.6" y="432.3" class="st0" width="1" height="70.3"/>
		<polygon class="st0" points="326.1,498.5 331.1,507.2 336.1,498.5 		"/>
		<rect x="331.1" y="431.4" class="st0" width="206.7" height="1"/>
	</g>
	<rect x="368.5" y="542.7" class="st0" width="528.6" height="1"/>
	<polygon class="st0" points="375.7,538.2 367.1,543.2 375.7,548.2 	"/>
	<g>
		<rect x="999.2" y="139.4" class="st0" width="1" height="351.5"/>
		<polygon class="st0" points="994.7,489.5 999.7,498.2 1004.6,489.5 		"/>
	</g>
	<g>
		<g>
			<path class="st3" d="M256.9,76.8h1.7l3.3,9.2l0.9,2.6h0.1l0.9-2.6l3.3-9.2h1.7l-4.9,13.4h-2.2L256.9,76.8z"/>
			<path class="st3" d="M271.4,90.2c-0.8,0-1.5-0.2-1.9-0.7c-0.4-0.4-0.7-1.1-0.7-1.9c0-0.9,0.3-1.6,0.9-2.1s1.5-0.8,2.8-0.9
				l2.3-0.2v-0.7c0-0.4,0-0.8-0.1-1.1c-0.1-0.3-0.2-0.5-0.4-0.7c-0.2-0.2-0.4-0.3-0.7-0.4c-0.3-0.1-0.7-0.1-1.2-0.1
				c-0.4,0-0.8,0-1.3,0.1c-0.5,0-1,0.1-1.5,0.2l-0.1-1.2c0.6-0.1,1.2-0.2,1.7-0.3s1-0.1,1.6-0.1c1.3,0,2.2,0.3,2.8,0.8
				s0.9,1.3,0.9,2.4v6.9h-1.3L275,89h-0.1c-0.6,0.4-1.2,0.7-1.7,1S272,90.2,271.4,90.2z M272,89c0.4,0,0.9-0.1,1.4-0.3
				c0.5-0.2,1-0.5,1.5-0.8v-2.4l-1.9,0.2c-0.9,0.1-1.6,0.3-2,0.5c-0.4,0.3-0.6,0.7-0.6,1.4C270.4,88.5,271,89,272,89z"/>
			<path class="st3" d="M279.1,75.6h1.6v14.6h-1.6V75.6z"/>
			<path class="st3" d="M284.3,78.4c-0.6,0-1-0.3-1-1c0-0.6,0.3-1,1-1s1,0.3,1,1S284.9,78.4,284.3,78.4z M283.5,80.4h1.6v9.8h-1.6
				V80.4z"/>
			<path class="st3" d="M291.3,90.2c-1.3,0-2.3-0.4-3-1.2c-0.7-0.8-1-2.1-1-3.8c0-0.9,0.1-1.6,0.3-2.3c0.2-0.6,0.6-1.2,1-1.6
				c0.4-0.4,0.9-0.7,1.5-1c0.6-0.2,1.3-0.3,2-0.3c0.4,0,0.8,0,1.2,0.1c0.4,0,0.7,0.1,1.1,0.1v-4.8h1.6v14.7h-1.4l-0.1-1.2h-0.1
				C293.7,89.9,292.7,90.2,291.3,90.2z M291.7,89.1c0.4,0,0.7-0.1,1-0.2c0.3-0.1,0.6-0.2,0.9-0.4c0.3-0.2,0.5-0.4,0.6-0.7
				c0.1-0.3,0.2-0.6,0.2-0.9v-5.2c-0.3-0.1-0.7-0.1-1.1-0.1s-0.8-0.1-1.2-0.1c-1.1,0-1.8,0.3-2.4,0.9c-0.5,0.6-0.8,1.6-0.8,2.9
				c0,1.4,0.2,2.3,0.7,2.9C290,88.8,290.7,89.1,291.7,89.1z"/>
			<path class="st3" d="M300.6,90.2c-0.8,0-1.5-0.2-1.9-0.7c-0.4-0.4-0.7-1.1-0.7-1.9c0-0.9,0.3-1.6,0.9-2.1s1.5-0.8,2.8-0.9
				l2.3-0.2v-0.7c0-0.4,0-0.8-0.1-1.1c-0.1-0.3-0.2-0.5-0.4-0.7c-0.2-0.2-0.4-0.3-0.7-0.4c-0.3-0.1-0.7-0.1-1.2-0.1
				c-0.4,0-0.8,0-1.3,0.1c-0.5,0-1,0.1-1.5,0.2l-0.1-1.2c0.6-0.1,1.2-0.2,1.7-0.3s1-0.1,1.6-0.1c1.3,0,2.2,0.3,2.8,0.8
				s0.9,1.3,0.9,2.4v6.9h-1.3l-0.2-1.2h-0.1c-0.6,0.4-1.2,0.7-1.7,1S301.2,90.2,300.6,90.2z M301.2,89c0.4,0,0.9-0.1,1.4-0.3
				c0.5-0.2,1-0.5,1.5-0.8v-2.4l-1.9,0.2c-0.9,0.1-1.6,0.3-2,0.5c-0.4,0.3-0.6,0.7-0.6,1.4C299.6,88.5,300.1,89,301.2,89z"/>
			<path class="st3" d="M311.9,90.2c-0.9,0-1.6-0.2-2.1-0.7s-0.7-1.2-0.7-2.1v-5.7h-2v-1.4h2.1l0.2-2.4l1.2-0.2v2.6h2.9v1.4h-2.9
				v5.4c0,0.6,0.1,1.1,0.4,1.4s0.7,0.4,1.3,0.4c0.2,0,0.4,0,0.6,0s0.4-0.1,0.7-0.2v1.3c-0.3,0.1-0.6,0.1-0.9,0.2
				C312.5,90.2,312.2,90.2,311.9,90.2z"/>
			<path class="st3" d="M319.4,90.2c-1.5,0-2.6-0.4-3.4-1.2c-0.8-0.8-1.1-2-1.1-3.7s0.4-2.9,1.1-3.8c0.8-0.9,1.8-1.3,3.3-1.3
				c2.5,0,3.7,1.4,3.7,4.3c0,0.6,0,1-0.1,1.3h-6.4c0.1,1.1,0.3,1.9,0.8,2.4s1.3,0.7,2.3,0.7c0.5,0,0.9,0,1.5-0.1
				c0.5-0.1,1-0.2,1.5-0.4l0.1,1.2c-0.5,0.2-1,0.3-1.6,0.4C320.5,90.2,319.9,90.2,319.4,90.2z M319.2,81.5c-1.7,0-2.7,1.1-2.8,3.3
				h5.1c0-1.2-0.2-2-0.6-2.5C320.6,81.7,320,81.5,319.2,81.5z"/>
			<path class="st3" d="M332.7,90.2c-0.9,0-1.6-0.2-2.1-0.7s-0.7-1.2-0.7-2.1v-5.7h-2v-1.4h2.1l0.2-2.4l1.2-0.2v2.6h2.9v1.4h-2.9
				v5.4c0,0.6,0.1,1.1,0.4,1.4s0.7,0.4,1.3,0.4c0.2,0,0.4,0,0.6,0s0.4-0.1,0.7-0.2v1.3c-0.3,0.1-0.6,0.1-0.9,0.2
				C333.2,90.5,333,90.2,332.7,90.2z"/>
			<path class="st3" d="M336.2,75.6h1.6v5.9c0.9-0.4,1.7-0.8,2.3-1s1.2-0.3,1.8-0.3c0.8,0,1.5,0.2,1.9,0.7c0.4,0.4,0.7,1.1,0.7,2
				v7.3h-1.6v-6.7c0-0.7-0.1-1.1-0.4-1.4s-0.6-0.4-1.2-0.4c-0.5,0-1,0.1-1.6,0.3c-0.6,0.2-1.2,0.4-1.9,0.8v7.4h-1.6L336.2,75.6
				L336.2,75.6z"/>
			<path class="st3" d="M351.1,90.2c-1.5,0-2.6-0.4-3.4-1.2c-0.8-0.8-1.1-2-1.1-3.7s0.4-2.9,1.1-3.8c0.8-0.9,1.8-1.3,3.3-1.3
				c2.5,0,3.7,1.4,3.7,4.3c0,0.6,0,1-0.1,1.3h-6.4c0.1,1.1,0.3,1.9,0.8,2.4s1.3,0.7,2.3,0.7c0.5,0,0.9,0,1.5-0.1
				c0.5-0.1,1-0.2,1.5-0.4l0.1,1.2c-0.5,0.2-1,0.3-1.6,0.4C352.2,90.2,351.6,90.2,351.1,90.2z M350.9,81.5c-1.7,0-2.7,1.1-2.8,3.3
				h5.1c0-1.2-0.2-2-0.6-2.5C352.3,81.7,351.7,81.5,350.9,81.5z"/>
			<path class="st3" d="M363,90.2c-0.8,0-1.5-0.2-1.9-0.7c-0.4-0.4-0.7-1.1-0.7-1.9c0-0.9,0.3-1.6,0.9-2.1s1.5-0.8,2.8-0.9l2.3-0.2
				v-0.7c0-0.4,0-0.8-0.1-1.1c-0.1-0.3-0.2-0.5-0.4-0.7c-0.2-0.2-0.4-0.3-0.7-0.4c-0.3-0.1-0.7-0.1-1.2-0.1c-0.4,0-0.8,0-1.3,0.1
				c-0.5,0-1,0.1-1.5,0.2l-0.1-1.2c0.6-0.1,1.2-0.2,1.7-0.3s1-0.1,1.6-0.1c1.3,0,2.2,0.3,2.8,0.8s0.9,1.3,0.9,2.4v6.9h-1.3l-0.2-1.2
				h-0.1c-0.6,0.4-1.2,0.7-1.7,1S363.6,90.2,363,90.2z M363.6,89c0.4,0,0.9-0.1,1.4-0.3c0.5-0.2,1-0.5,1.5-0.8v-2.4l-1.9,0.2
				c-0.9,0.1-1.6,0.3-2,0.5c-0.4,0.3-0.6,0.7-0.6,1.4C362,88.5,362.5,89,363.6,89z"/>
			<path class="st3" d="M370.7,75.6h1.6v14.6h-1.6V75.6L370.7,75.6z"/>
			<path class="st3" d="M377,90.2c-0.8,0-1.5-0.2-1.9-0.7c-0.4-0.4-0.7-1.1-0.7-1.9c0-0.9,0.3-1.6,0.9-2.1s1.5-0.8,2.8-0.9l2.3-0.2
				v-0.7c0-0.4,0-0.8-0.1-1.1c-0.1-0.3-0.2-0.5-0.4-0.7c-0.2-0.2-0.4-0.3-0.7-0.4c-0.3-0.1-0.7-0.1-1.2-0.1c-0.4,0-0.8,0-1.3,0.1
				c-0.5,0-1,0.1-1.5,0.2l-0.1-1.2c0.6-0.1,1.2-0.2,1.7-0.3s1-0.1,1.6-0.1c1.3,0,2.2,0.3,2.8,0.8c0.6,0.5,0.9,1.3,0.9,2.4v6.9h-1.3
				l-0.2-1.2h-0.1c-0.6,0.4-1.2,0.7-1.7,1S377.6,90.2,377,90.2z M377.6,89c0.4,0,0.9-0.1,1.4-0.3c0.5-0.2,1-0.5,1.5-0.8v-2.4
				l-1.9,0.2c-0.9,0.1-1.6,0.3-2,0.5c-0.4,0.3-0.6,0.7-0.6,1.4C376,88.5,376.5,89,377.6,89z"/>
			<path class="st3" d="M384.7,80.4h1.3l0.1,1.3h0.1c0.7-0.4,1.3-0.7,1.9-1s1.1-0.4,1.6-0.5h0.5v1.5h-0.6c-0.5,0.1-1.1,0.2-1.7,0.4
				c-0.6,0.2-1.1,0.5-1.6,0.7v7.4h-1.6L384.7,80.4L384.7,80.4z"/>
			<path class="st3" d="M391.7,80.4h1.3l0.1,1.1h0.1c0.8-0.5,1.4-0.8,2-1s1.1-0.3,1.6-0.3c1.2,0,1.9,0.4,2.3,1.3h0.1
				c0.8-0.5,1.4-0.8,2-1s1.1-0.3,1.6-0.3c0.8,0,1.5,0.2,1.9,0.7c0.4,0.4,0.7,1.1,0.7,2v7.3h-1.6v-6.7c0-0.7-0.1-1.1-0.4-1.4
				s-0.7-0.4-1.2-0.4c-0.4,0-0.8,0.1-1.3,0.3c-0.5,0.2-1,0.4-1.5,0.7v7.5h-1.6v-6.7c0-0.7-0.1-1.1-0.4-1.4s-0.7-0.4-1.2-0.4
				c-0.4,0-0.8,0.1-1.3,0.3c-0.5,0.2-1,0.4-1.5,0.8v7.4h-1.6v-9.8H391.7L391.7,80.4z"/>
			<path class="st3" d="M301.1,102.2V102h1.6l2.5,7l0.4,1.5h0.2l0.4-1.5l2.5-7h1.6v0.2l-3.7,9.5h-2.1L301.1,102.2z"/>
			<path class="st3" d="M312.9,100c-0.6,0-1-0.3-1-1c0-0.6,0.3-1,1-1s1,0.3,1,1S313.6,100,312.9,100z M312.2,102h1.6v9.7h-1.6V102z"
				/>
			<path class="st3" d="M319.2,112c-0.4,0-0.9,0-1.4-0.1c-0.5-0.1-1.1-0.2-1.9-0.3v-1.4c0.6,0.1,1.2,0.3,1.7,0.4
				c0.5,0.1,1,0.1,1.5,0.1c0.7,0,1.3-0.1,1.6-0.4c0.4-0.3,0.5-0.7,0.5-1.2c0-0.3,0-0.5-0.1-0.7s-0.2-0.3-0.4-0.5
				c-0.2-0.1-0.4-0.2-0.6-0.3s-0.5-0.1-0.8-0.2c-0.4-0.1-0.8-0.2-1.1-0.2c-0.4-0.1-0.7-0.2-1-0.4c-0.3-0.2-0.6-0.5-0.8-0.8
				c-0.2-0.3-0.3-0.8-0.3-1.4c0-0.9,0.3-1.6,0.9-2.1s1.5-0.7,2.6-0.7c0.2,0,0.4,0,0.6,0s0.4,0,0.6,0.1c0.2,0,0.5,0.1,0.7,0.1
				s0.6,0.1,0.9,0.2l-0.1,1.3c-0.6-0.1-1.1-0.2-1.5-0.3s-0.8-0.1-1.1-0.1c-1.5,0-2.2,0.5-2.2,1.5c0,0.3,0.1,0.5,0.2,0.7
				s0.3,0.3,0.5,0.5c0.2,0.1,0.4,0.2,0.7,0.3c0.3,0.1,0.6,0.1,0.9,0.2c0.4,0.1,0.8,0.2,1.2,0.3c0.4,0.1,0.7,0.3,1,0.5
				s0.5,0.5,0.6,0.8s0.2,0.7,0.2,1.2c0,0.9-0.3,1.6-0.9,2.1C321.3,111.7,320.4,112,319.2,112z"/>
			<path class="st3" d="M327.3,111.9c-1.6,0-2.5-0.9-2.5-2.7V102h1.6v6.7c0,0.6,0.1,1.1,0.3,1.4c0.2,0.3,0.6,0.4,1.2,0.4
				s1.2-0.1,1.8-0.4c0.6-0.2,1.2-0.5,1.8-0.8v-7.4h1.6v9.7h-1.3l-0.1-1.2h-0.1c-0.5,0.2-0.9,0.4-1.3,0.6s-0.7,0.3-1,0.4
				c-0.3,0.1-0.6,0.2-0.9,0.2C328,111.9,327.7,111.9,327.3,111.9z"/>
			<path class="st3" d="M337.8,111.8c-0.8,0-1.5-0.2-1.9-0.7c-0.4-0.4-0.7-1.1-0.7-1.9c0-0.9,0.3-1.7,0.9-2.1
				c0.6-0.5,1.5-0.8,2.8-0.9l2.3-0.2v-0.7c0-0.4,0-0.8-0.1-1.1c-0.1-0.3-0.2-0.5-0.4-0.7c-0.2-0.2-0.4-0.3-0.7-0.4
				c-0.3-0.1-0.7-0.1-1.2-0.1c-0.4,0-0.8,0-1.3,0.1c-0.5,0-1,0.1-1.5,0.2l-0.1-1.2c0.6-0.1,1.2-0.2,1.7-0.3s1-0.1,1.6-0.1
				c1.3,0,2.2,0.3,2.8,0.8s0.9,1.3,0.9,2.4v6.6h-1.3l-0.2-1.2h-0.1c-0.6,0.4-1.2,0.7-1.7,1C338.9,111.7,338.3,111.8,337.8,111.8z
				 M338.3,110.6c0.4,0,0.9-0.1,1.4-0.3c0.5-0.2,1-0.5,1.5-0.8v-2.4l-1.9,0.2c-0.9,0.1-1.6,0.3-2,0.5c-0.4,0.3-0.6,0.7-0.6,1.4
				C336.8,110.1,337.3,110.6,338.3,110.6z"/>
			<path class="st3" d="M345.5,97.2h1.6v14.5h-1.6V97.2z"/>
			<path class="st3" d="M349.8,97.2h1.6v14.5h-1.6V97.2z"/>
			<path class="st3" d="M355.6,115.4v-0.2l1.5-3.6l-4-9.5v-0.2h1.7l2.6,6.6l0.4,1.4h0.1l0.4-1.4l2.7-6.6h1.6v0.2l-5.7,13.5
				L355.6,115.4z"/>
		</g>
	</g>
	<rect x="896.2" y="498.2" class="st1" width="207" height="90"/>
	<path class="st0" d="M1102.2,499.2v88h-205v-88H1102.2 M1103.2,498.2h-207v90h207V498.2z"/>
	<rect x="470.2" y="248.9" class="st1" width="207" height="90"/>
	<path class="st0" d="M676.2,249.9v88h-205v-88H676.2 M677.2,248.9h-207v90h207V248.9z"/>
	<g>
		<g>
			<path class="st3" d="M939.5,90.2c-0.3,0-0.6,0-1,0c-0.3,0-0.7-0.1-1.1-0.1c-0.4,0-0.7-0.1-1.1-0.2c-0.4-0.1-0.7-0.1-1.1-0.2v-1.4
				c0.7,0.2,1.4,0.3,2.2,0.4c0.7,0.1,1.4,0.2,1.9,0.2c1,0,1.8-0.2,2.4-0.6c0.5-0.4,0.8-0.9,0.8-1.7c0-0.4-0.1-0.8-0.2-1
				c-0.2-0.3-0.4-0.5-0.6-0.7c-0.3-0.2-0.6-0.4-1-0.5s-0.8-0.3-1.2-0.4c-0.7-0.2-1.3-0.4-1.8-0.6s-0.9-0.5-1.2-0.8
				c-0.3-0.3-0.6-0.7-0.7-1.1c-0.2-0.4-0.2-0.9-0.2-1.4c0-0.6,0.1-1.1,0.3-1.5c0.2-0.5,0.5-0.8,0.9-1.2c0.4-0.3,0.9-0.6,1.4-0.7
				c0.6-0.2,1.2-0.3,1.9-0.3c0.5,0,1,0,1.6,0.1s1.2,0.2,1.9,0.4l-0.1,1.4c-0.6-0.2-1.2-0.3-1.7-0.4c-0.6-0.1-1.1-0.1-1.6-0.1
				c-0.9,0-1.7,0.2-2.2,0.6s-0.8,1-0.8,1.7c0,0.3,0.1,0.6,0.2,0.9s0.3,0.5,0.5,0.7c0.2,0.2,0.6,0.4,0.9,0.5c0.4,0.2,0.9,0.3,1.4,0.5
				c0.6,0.2,1.1,0.3,1.6,0.5s0.9,0.4,1.3,0.7c0.4,0.3,0.6,0.7,0.8,1.1c0.2,0.4,0.3,0.9,0.3,1.5c0,1.2-0.4,2.1-1.2,2.7
				C942.2,89.9,941.1,90.2,939.5,90.2z"/>
			<path class="st3" d="M950.3,90.2c-1.5,0-2.6-0.4-3.4-1.2c-0.8-0.8-1.1-2-1.1-3.7s0.4-2.9,1.1-3.8c0.8-0.9,1.8-1.3,3.3-1.3
				c2.5,0,3.7,1.4,3.7,4.3c0,0.6,0,1-0.1,1.3h-6.4c0.1,1.1,0.3,1.9,0.8,2.4s1.3,0.7,2.3,0.7c0.5,0,0.9,0,1.5-0.1
				c0.5-0.1,1-0.2,1.5-0.4l0.1,1.2c-0.5,0.2-1,0.3-1.6,0.4S950.9,90.2,950.3,90.2z M950.2,81.4c-1.7,0-2.7,1.1-2.8,3.3h5.1
				c0-1.2-0.2-2-0.6-2.5C951.6,81.6,951,81.4,950.2,81.4z"/>
			<path class="st3" d="M956.1,80.3h1.3l0.1,1.1h0.1c0.5-0.2,0.9-0.4,1.3-0.6s0.8-0.3,1.1-0.4c0.3-0.1,0.6-0.2,0.9-0.2
				c0.3,0,0.6-0.1,0.8-0.1c0.8,0,1.5,0.2,1.9,0.7c0.4,0.4,0.7,1.1,0.7,2V90h-1.6v-6.7c0-0.7-0.1-1.1-0.4-1.4s-0.6-0.4-1.2-0.4
				c-0.5,0-1,0.1-1.6,0.3s-1.2,0.4-1.9,0.8v7.5H956v-9.8H956.1L956.1,80.3z"/>
			<path class="st3" d="M970.5,90.2c-1.3,0-2.3-0.4-3-1.2c-0.7-0.8-1-2.1-1-3.8c0-0.9,0.1-1.6,0.3-2.3c0.2-0.6,0.6-1.2,1-1.6
				s0.9-0.7,1.5-1c0.6-0.2,1.3-0.3,2-0.3c0.4,0,0.8,0,1.2,0.1c0.4,0,0.7,0.1,1.1,0.1v-4.8h1.6v14.5h-1.4l-0.1-1.2h-0.1
				C972.9,89.8,971.9,90.2,970.5,90.2z M970.9,89c0.4,0,0.7-0.1,1-0.2c0.3-0.1,0.6-0.2,0.9-0.4c0.3-0.2,0.5-0.4,0.6-0.7
				s0.2-0.6,0.2-0.9v-5.2c-0.3-0.1-0.7-0.1-1.1-0.1c-0.4,0-0.8-0.1-1.2-0.1c-1.1,0-1.8,0.3-2.4,0.9c-0.5,0.6-0.8,1.6-0.8,2.9
				c0,1.4,0.2,2.3,0.7,2.9C969.2,88.7,969.9,89,970.9,89z"/>
			<path class="st3" d="M984,90.1c-0.8,0-1.5-0.2-1.9-0.7s-0.7-1.1-0.7-1.9c0-0.9,0.3-1.6,0.9-2.1c0.6-0.5,1.5-0.8,2.8-0.9l2.3-0.2
				v-0.7c0-0.4,0-0.8-0.1-1.1s-0.2-0.5-0.4-0.7c-0.2-0.2-0.4-0.3-0.7-0.4c-0.3-0.1-0.7-0.1-1.2-0.1c-0.4,0-0.8,0-1.3,0.1
				c-0.5,0-1,0.1-1.5,0.2l-0.1-1.2c0.6-0.1,1.2-0.2,1.7-0.3s1-0.1,1.6-0.1c1.3,0,2.2,0.3,2.8,0.8s0.9,1.3,0.9,2.4v6.6h-1.3l-0.2-1.2
				h-0.1c-0.6,0.4-1.2,0.7-1.7,1C985.2,90,984.6,90.1,984,90.1z M984.6,88.9c0.4,0,0.9-0.1,1.4-0.3s1-0.5,1.5-0.8v-2.4l-1.9,0.2
				c-0.9,0.1-1.6,0.3-2,0.5c-0.4,0.3-0.6,0.7-0.6,1.4C983.1,88.4,983.6,88.9,984.6,88.9z"/>
			<path class="st3" d="M991.7,80.3h1.3l0.1,1.1h0.1c0.5-0.2,0.9-0.4,1.3-0.6s0.7-0.3,1.1-0.4c0.3-0.1,0.6-0.2,0.9-0.2
				c0.3,0,0.6-0.1,0.8-0.1c0.8,0,1.5,0.2,1.9,0.7c0.4,0.4,0.7,1.1,0.7,2V90h-1.6v-6.7c0-0.7-0.1-1.1-0.4-1.4s-0.6-0.4-1.2-0.4
				c-0.5,0-1,0.1-1.6,0.3s-1.2,0.4-1.9,0.8v7.5h-1.6v-9.8H991.7L991.7,80.3z"/>
			<path class="st3" d="M1008.8,90.1c-0.8,0-1.5-0.2-1.9-0.7c-0.4-0.4-0.7-1.1-0.7-1.9c0-0.9,0.3-1.6,0.9-2.1
				c0.6-0.5,1.5-0.8,2.8-0.9l2.3-0.2v-0.7c0-0.4,0-0.8-0.1-1.1s-0.2-0.5-0.4-0.7c-0.2-0.2-0.4-0.3-0.7-0.4c-0.3-0.1-0.7-0.1-1.2-0.1
				c-0.4,0-0.8,0-1.3,0.1c-0.5,0-1,0.1-1.5,0.2l-0.1-1.2c0.6-0.1,1.2-0.2,1.7-0.3s1-0.1,1.6-0.1c1.3,0,2.2,0.3,2.8,0.8
				s0.9,1.3,0.9,2.4v6.6h-1.3l-0.2-1.2h-0.1c-0.6,0.4-1.2,0.7-1.7,1S1009.3,90.1,1008.8,90.1z M1009.3,88.9c0.4,0,0.9-0.1,1.4-0.3
				s1-0.5,1.5-0.8v-2.4l-1.9,0.2c-0.9,0.1-1.6,0.3-2,0.5c-0.4,0.3-0.6,0.7-0.6,1.4C1007.8,88.4,1008.3,88.9,1009.3,88.9z"/>
			<path class="st3" d="M1016.5,75.5h1.6V90h-1.6V75.5z"/>
			<path class="st3" d="M1024.8,90.2c-1.5,0-2.6-0.4-3.4-1.2c-0.8-0.8-1.1-2-1.1-3.7s0.4-2.9,1.1-3.8c0.8-0.9,1.8-1.3,3.3-1.3
				c2.5,0,3.7,1.4,3.7,4.3c0,0.6,0,1-0.1,1.3h-6.4c0.1,1.1,0.3,1.9,0.8,2.4s1.3,0.7,2.3,0.7c0.5,0,0.9,0,1.5-0.1
				c0.5-0.1,1-0.2,1.5-0.4l0.1,1.2c-0.5,0.2-1,0.3-1.6,0.4C1025.9,90.1,1025.3,90.2,1024.8,90.2z M1024.7,81.4
				c-1.7,0-2.7,1.1-2.8,3.3h5.1c0-1.2-0.2-2-0.6-2.5C1026,81.6,1025.4,81.4,1024.7,81.4z"/>
			<path class="st3" d="M1030.6,80.3h1.3l0.1,1.3h0.1c0.7-0.4,1.3-0.7,1.9-1s1.1-0.4,1.6-0.5h0.5v1.5h-0.6c-0.5,0.1-1.1,0.2-1.7,0.4
				s-1.1,0.5-1.6,0.7v7.2h-1.6L1030.6,80.3L1030.6,80.3z"/>
			<path class="st3" d="M1041.4,90.2c-0.9,0-1.6-0.2-2.1-0.7s-0.7-1.2-0.7-2.1v-5.7h-2v-1.4h2.1l0.2-2.4l1.2-0.2v2.6h2.9v1.4h-2.9
				v5.4c0,0.6,0.1,1.1,0.4,1.4s0.7,0.4,1.3,0.4c0.2,0,0.4,0,0.6,0s0.4-0.1,0.7-0.2V90c-0.3,0.1-0.6,0.1-0.9,0.2
				C1041.9,90.4,1041.7,90.2,1041.4,90.2z"/>
			<path class="st3" d="M1052.3,90.2c-0.9,0-1.6-0.2-2.1-0.7s-0.7-1.2-0.7-2.1v-5.7h-2v-1.4h2.1l0.2-2.4l1.2-0.2v2.6h2.9v1.4h-2.9
				v5.4c0,0.6,0.1,1.1,0.4,1.4s0.7,0.4,1.3,0.4c0.2,0,0.4,0,0.6,0s0.4-0.1,0.7-0.2V90c-0.3,0.1-0.6,0.1-0.9,0.2
				C1052.8,90.4,1052.6,90.2,1052.3,90.2z"/>
			<path class="st3" d="M1059.7,90.2c-1.5,0-2.6-0.4-3.3-1.3c-0.8-0.9-1.2-2.1-1.2-3.7s0.4-2.9,1.2-3.8c0.8-0.9,1.9-1.3,3.3-1.3
				s2.6,0.4,3.3,1.3c0.8,0.9,1.2,2.1,1.2,3.8s-0.4,2.9-1.2,3.8C1062.3,89.8,1061.2,90.2,1059.7,90.2z M1059.7,88.9
				c1,0,1.7-0.3,2.2-0.9s0.7-1.5,0.7-2.9s-0.2-2.3-0.7-2.9s-1.2-0.9-2.2-0.9s-1.7,0.3-2.2,0.9s-0.7,1.5-0.7,2.9s0.2,2.3,0.7,2.9
				S1058.7,88.9,1059.7,88.9z"/>
			<path class="st3" d="M940.1,111.8c-0.4,0-0.9,0-1.4-0.1s-1.1-0.2-1.9-0.3v-1.3c0.6,0.1,1.2,0.3,1.7,0.4s1,0.1,1.5,0.1
				c0.7,0,1.3-0.1,1.6-0.4c0.4-0.3,0.5-0.7,0.5-1.2c0-0.3,0-0.5-0.1-0.7s-0.2-0.3-0.4-0.5c-0.2-0.1-0.4-0.2-0.6-0.3
				s-0.5-0.1-0.8-0.2c-0.4-0.1-0.8-0.2-1.1-0.2c-0.4-0.1-0.7-0.2-1-0.4c-0.3-0.2-0.6-0.5-0.8-0.8c-0.2-0.3-0.3-0.8-0.3-1.4
				c0-0.9,0.3-1.6,0.9-2.1c0.6-0.5,1.5-0.7,2.6-0.7c0.2,0,0.4,0,0.6,0s0.4,0,0.6,0.1c0.2,0,0.5,0.1,0.7,0.1c0.3,0,0.6,0.1,0.9,0.2
				l-0.1,1.3c-0.6-0.1-1.1-0.2-1.5-0.3s-0.8-0.1-1.1-0.1c-1.5,0-2.2,0.5-2.2,1.5c0,0.3,0.1,0.5,0.2,0.7s0.3,0.3,0.5,0.5
				c0.2,0.1,0.4,0.2,0.7,0.3c0.3,0.1,0.6,0.1,0.9,0.2c0.4,0.1,0.8,0.2,1.2,0.3s0.7,0.3,1,0.5c0.3,0.2,0.5,0.5,0.6,0.8
				c0.2,0.3,0.2,0.7,0.2,1.2c0,0.9-0.3,1.6-0.9,2.1C942.2,111.6,941.3,111.8,940.1,111.8z"/>
			<path class="st3" d="M949.9,111.8c-1.5,0-2.6-0.4-3.4-1.2c-0.8-0.8-1.1-2-1.1-3.7s0.4-2.9,1.1-3.8c0.8-0.9,1.8-1.3,3.3-1.3
				c2.5,0,3.7,1.4,3.7,4.3c0,0.6,0,1-0.1,1.3H947c0.1,1.1,0.3,1.9,0.8,2.4s1.3,0.7,2.3,0.7c0.5,0,0.9,0,1.5-0.1
				c0.5-0.1,1-0.2,1.5-0.4l0.1,1.2c-0.5,0.2-1,0.3-1.6,0.4C951,111.7,950.4,111.8,949.9,111.8z M949.7,103c-1.7,0-2.7,1.1-2.8,3.3
				h5.1c0-1.2-0.2-2-0.6-2.5C951,103.3,950.5,103,949.7,103z"/>
			<path class="st3" d="M959.8,111.8c-3.1,0-4.6-1.7-4.6-5c0-3.4,1.5-5,4.6-5c0.4,0,0.8,0,1.2,0.1c0.4,0,0.8,0.1,1.1,0.2v1.3
				c-0.4-0.1-0.7-0.1-1.1-0.2c-0.4,0-0.7-0.1-1.1-0.1c-1.1,0-1.9,0.3-2.4,0.9s-0.8,1.5-0.8,2.8s0.2,2.2,0.7,2.8s1.3,0.9,2.4,0.9
				c0.4,0,0.8,0,1.1,0c0.3,0,0.7-0.1,1.1-0.2v1.3c-0.3,0.1-0.6,0.1-1.1,0.2C960.4,112,960.2,111.8,959.8,111.8z"/>
			<path class="st3" d="M966.6,111.8c-1.6,0-2.5-0.9-2.5-2.7v-7.2h1.6v6.7c0,0.6,0.1,1.1,0.3,1.4c0.2,0.3,0.6,0.4,1.2,0.4
				c0.6,0,1.2-0.1,1.8-0.4c0.6-0.2,1.2-0.5,1.8-0.8v-7.4h1.6v9.7h-1.3l-0.1-1.2h-0.1c-0.5,0.2-0.9,0.4-1.3,0.6s-0.7,0.3-1,0.4
				c-0.3,0.1-0.6,0.2-0.9,0.2C967.3,111.8,967,111.8,966.6,111.8z"/>
			<path class="st3" d="M975.1,101.9h1.3l0.1,1.3h0.1c0.7-0.4,1.3-0.7,1.9-1s1.1-0.4,1.6-0.5h0.5v1.5H980c-0.5,0.1-1.1,0.2-1.7,0.4
				c-0.6,0.2-1.1,0.5-1.6,0.7v7.2h-1.6V101.9L975.1,101.9z"/>
			<path class="st3" d="M982.9,99.9c-0.6,0-1-0.3-1-1c0-0.6,0.3-1,1-1c0.7,0,1,0.3,1,1S983.6,99.9,982.9,99.9z M982.2,101.9h1.6v9.7
				h-1.6V101.9z"/>
			<path class="st3" d="M990.2,111.8c-0.9,0-1.6-0.2-2.1-0.7s-0.7-1.2-0.7-2.1v-5.7h-2v-1.4h2.1l0.2-2.4l1.2-0.2v2.6h2.9v1.4H989
				v5.4c0,0.6,0.1,1.1,0.4,1.3c0.3,0.3,0.7,0.4,1.3,0.4c0.2,0,0.4,0,0.6,0s0.4-0.1,0.7-0.2v1.3c-0.3,0.1-0.6,0.1-0.9,0.2
				C990.8,111.8,990.5,111.8,990.2,111.8z"/>
			<path class="st3" d="M995.1,115.3v-0.2l1.5-3.6l-4-9.5v-0.2h1.7l2.6,6.6l0.4,1.4h0.1l0.4-1.4l2.7-6.6h1.6v0.2l-5.7,13.5
				L995.1,115.3z"/>
			<path class="st3" d="M1011,115.6c-0.6,0-1.1,0-1.7-0.1c-0.6-0.1-1.1-0.2-1.5-0.3l0.1-1.2c0.4,0.1,0.9,0.2,1.4,0.3s1,0.1,1.5,0.1
				s1-0.1,1.4-0.2s0.8-0.3,1.1-0.6c0.3-0.3,0.5-0.6,0.7-1.1c0.2-0.5,0.3-1,0.3-1.7v-0.6h-0.1c-0.7,0.9-1.7,1.4-3,1.4
				c-1.3,0-2.3-0.4-3-1.2c-0.7-0.8-1-2-1-3.7c0-0.9,0.1-1.6,0.3-2.2c0.2-0.6,0.6-1.2,1-1.6s0.9-0.7,1.5-0.9s1.3-0.3,2-0.3
				c0.6,0,1.2,0,1.8,0.1s1.3,0.2,2,0.4v8.4c0,1-0.1,1.8-0.4,2.4c-0.3,0.6-0.6,1.1-1,1.5s-0.9,0.6-1.5,0.8
				C1012.3,115.6,1011.7,115.6,1011,115.6z M1011.5,110.4c0.4,0,0.7-0.1,1-0.2c0.3-0.1,0.6-0.2,0.9-0.4c0.2-0.2,0.4-0.4,0.6-0.7
				c0.1-0.3,0.2-0.6,0.2-0.9v-5c-0.3-0.1-0.7-0.1-1.1-0.1s-0.8-0.1-1.2-0.1c-1.1,0-1.8,0.3-2.4,0.9c-0.5,0.6-0.8,1.5-0.8,2.9
				c0,1.3,0.2,2.3,0.7,2.8C1009.8,110.1,1010.5,110.4,1011.5,110.4z"/>
			<path class="st3" d="M1020.9,111.8c-1.6,0-2.5-0.9-2.5-2.7v-7.2h1.6v6.7c0,0.6,0.1,1.1,0.3,1.4c0.2,0.3,0.6,0.4,1.2,0.4
				s1.2-0.1,1.8-0.4c0.6-0.2,1.2-0.5,1.8-0.8v-7.4h1.6v9.7h-1.3l-0.1-1.2h-0.1c-0.5,0.2-0.9,0.4-1.3,0.6s-0.7,0.3-1,0.4
				c-0.3,0.1-0.6,0.2-0.9,0.2C1021.6,111.8,1021.2,111.8,1020.9,111.8z"/>
			<path class="st3" d="M1031.3,111.7c-0.8,0-1.5-0.2-1.9-0.7c-0.4-0.4-0.7-1.1-0.7-1.9c0-0.9,0.3-1.7,0.9-2.1
				c0.6-0.5,1.5-0.8,2.8-0.9l2.3-0.2v-0.7c0-0.4,0-0.8-0.1-1.1s-0.2-0.5-0.4-0.7c-0.2-0.2-0.4-0.3-0.7-0.4c-0.3-0.1-0.7-0.1-1.2-0.1
				c-0.4,0-0.8,0-1.3,0.1c-0.5,0-1,0.1-1.5,0.2l-0.1-1.2c0.6-0.1,1.2-0.2,1.7-0.3s1-0.1,1.6-0.1c1.3,0,2.2,0.3,2.8,0.8
				s0.9,1.3,0.9,2.4v6.6h-1.4l-0.2-1.2h-0.1c-0.6,0.4-1.2,0.7-1.7,1C1032.4,111.6,1031.9,111.7,1031.3,111.7z M1031.9,110.5
				c0.4,0,0.9-0.1,1.4-0.3s1-0.5,1.5-0.8V107l-1.9,0.2c-0.9,0.1-1.6,0.3-2,0.5c-0.4,0.3-0.6,0.7-0.6,1.4
				C1030.3,110,1030.8,110.5,1031.9,110.5z"/>
			<path class="st3" d="M1039,101.9h1.3l0.1,1.3h0.1c0.7-0.4,1.3-0.7,1.9-1s1.1-0.4,1.6-0.5h0.5v1.5h-0.6c-0.5,0.1-1.1,0.2-1.7,0.4
				s-1.1,0.5-1.6,0.7v7.2h-1.6L1039,101.9L1039,101.9z"/>
			<path class="st3" d="M1049.1,111.8c-1.3,0-2.3-0.4-3-1.2s-1-2.1-1-3.8c0-0.9,0.1-1.6,0.3-2.3c0.2-0.6,0.6-1.2,1-1.6
				s0.9-0.7,1.5-1c0.6-0.2,1.3-0.3,2-0.3c0.4,0,0.8,0,1.2,0.1c0.4,0,0.7,0.1,1.1,0.1v-4.7h1.6v14.5h-1.4l-0.1-1.2h-0.1
				C1051.4,111.4,1050.4,111.8,1049.1,111.8z M1049.4,110.6c0.4,0,0.7-0.1,1-0.2s0.6-0.2,0.9-0.4s0.5-0.4,0.6-0.7s0.2-0.6,0.2-0.9
				v-5.2c-0.3-0.1-0.7-0.1-1.1-0.1s-0.8-0.1-1.2-0.1c-1.1,0-1.8,0.3-2.4,0.9s-0.8,1.6-0.8,2.9c0,1.4,0.2,2.3,0.7,2.9
				C1047.8,110.4,1048.5,110.6,1049.4,110.6z"/>
			<path class="st3" d="M1059.2,111.8c-0.4,0-0.9,0-1.4-0.1s-1.1-0.2-1.9-0.3v-1.3c0.6,0.1,1.2,0.3,1.7,0.4s1,0.1,1.5,0.1
				c0.7,0,1.3-0.1,1.6-0.4c0.4-0.3,0.5-0.7,0.5-1.2c0-0.3,0-0.5-0.1-0.7s-0.2-0.3-0.4-0.5c-0.2-0.1-0.4-0.2-0.6-0.3
				s-0.5-0.1-0.8-0.2c-0.4-0.1-0.8-0.2-1.1-0.2c-0.3,0-0.7-0.2-1-0.4s-0.6-0.5-0.8-0.8c-0.2-0.3-0.3-0.8-0.3-1.4
				c0-0.9,0.3-1.6,0.9-2.1s1.5-0.7,2.6-0.7c0.2,0,0.4,0,0.6,0s0.4,0,0.6,0.1c0.2,0,0.5,0.1,0.7,0.1c0.3,0,0.6,0.1,0.9,0.2l-0.1,1.3
				c-0.6-0.1-1.1-0.2-1.5-0.3s-0.8-0.1-1.1-0.1c-1.5,0-2.2,0.5-2.2,1.5c0,0.3,0.1,0.5,0.2,0.7s0.3,0.3,0.5,0.5
				c0.2,0.1,0.4,0.2,0.7,0.3c0.3,0.1,0.6,0.1,0.9,0.2c0.4,0.1,0.8,0.2,1.2,0.3c0.4,0.1,0.7,0.3,1,0.5s0.5,0.5,0.6,0.8
				c0.2,0.3,0.2,0.7,0.2,1.2c0,0.9-0.3,1.6-0.9,2.1C1061.2,111.6,1060.3,111.8,1059.2,111.8z"/>
		</g>
	</g>
	<g>
		<g>
			<path class="st3" d="M936.3,538c-0.3,0-0.6,0-1,0c-0.3,0-0.7-0.1-1.1-0.1s-0.7-0.1-1.1-0.2c-0.4-0.1-0.7-0.1-1.1-0.2v-1.4
				c0.7,0.2,1.4,0.3,2.2,0.4c0.7,0.1,1.4,0.2,1.9,0.2c1,0,1.8-0.2,2.4-0.6c0.6-0.4,0.8-0.9,0.8-1.7c0-0.4-0.1-0.8-0.2-1
				c-0.2-0.3-0.4-0.5-0.6-0.7c-0.3-0.2-0.6-0.4-1-0.5c-0.4-0.1-0.8-0.3-1.2-0.4c-0.7-0.2-1.3-0.4-1.8-0.6c-0.5-0.2-0.9-0.5-1.2-0.8
				c-0.3-0.3-0.6-0.7-0.7-1.1c-0.2-0.4-0.2-0.9-0.2-1.4c0-0.6,0.1-1.1,0.3-1.5c0.2-0.4,0.5-0.8,0.9-1.2c0.4-0.3,0.9-0.6,1.4-0.7
				c0.6-0.2,1.2-0.3,1.9-0.3c0.5,0,1,0,1.6,0.1s1.2,0.2,1.9,0.4l-0.1,1.4c-0.6-0.2-1.2-0.3-1.7-0.4c-0.6-0.1-1.1-0.1-1.6-0.1
				c-0.9,0-1.7,0.2-2.2,0.6c-0.5,0.4-0.8,1-0.8,1.7c0,0.3,0.1,0.6,0.2,0.9c0.1,0.3,0.3,0.5,0.5,0.7s0.6,0.4,0.9,0.5s0.9,0.3,1.4,0.5
				c0.6,0.2,1.1,0.3,1.6,0.5s0.9,0.4,1.3,0.7c0.4,0.3,0.6,0.7,0.8,1.1c0.2,0.4,0.3,0.9,0.3,1.5c0,1.2-0.4,2.1-1.2,2.7
				C939,537.6,937.8,538,936.3,538z"/>
			<path class="st3" d="M947.1,537.8c-1.5,0-2.6-0.4-3.4-1.2c-0.8-0.8-1.1-2-1.1-3.7c0-1.7,0.4-2.9,1.1-3.8c0.7-0.9,1.8-1.3,3.3-1.3
				c2.5,0,3.7,1.4,3.7,4.3c0,0.6,0,1-0.1,1.3h-6.4c0.1,1.1,0.3,1.9,0.8,2.4s1.3,0.7,2.3,0.7c0.5,0,0.9,0,1.5-0.1
				c0.5-0.1,1-0.2,1.5-0.4l0.1,1.2c-0.5,0.2-1,0.3-1.6,0.4C948.2,537.8,947.6,537.8,947.1,537.8z M947,529.1c-1.7,0-2.7,1.1-2.8,3.3
				h5.1c0-1.2-0.2-2-0.6-2.5C948.3,529.3,947.8,529.1,947,529.1z"/>
			<path class="st3" d="M952.9,528.1h1.3l0.1,1.1h0.1c0.5-0.2,0.9-0.4,1.3-0.6c0.4-0.2,0.7-0.3,1.1-0.4c0.3-0.1,0.6-0.2,0.9-0.2
				c0.3,0,0.6-0.1,0.8-0.1c0.8,0,1.5,0.2,1.9,0.7c0.4,0.4,0.7,1.1,0.7,2v7.2h-1.6v-6.7c0-0.7-0.1-1.1-0.4-1.4s-0.6-0.4-1.2-0.4
				c-0.5,0-1,0.1-1.6,0.3c-0.6,0.2-1.2,0.4-1.9,0.8v7.5h-1.6v-9.8H952.9z"/>
			<path class="st3" d="M967.3,538c-1.3,0-2.3-0.4-3-1.2c-0.7-0.8-1-2.1-1-3.8c0-0.9,0.1-1.6,0.3-2.3c0.2-0.6,0.6-1.2,1-1.6
				c0.4-0.4,0.9-0.7,1.5-1c0.6-0.3,1.3-0.3,2-0.3c0.4,0,0.8,0,1.2,0.1s0.7,0.1,1.1,0.1v-4.8h1.6v14.5h-1.4l-0.1-1.2h-0.1
				C969.6,537.5,968.6,538,967.3,538z M967.7,536.7c0.4,0,0.7-0.1,1-0.2s0.6-0.2,0.9-0.4c0.3-0.2,0.5-0.4,0.6-0.7
				c0.1-0.3,0.2-0.6,0.2-0.9v-5.2c-0.3-0.1-0.7-0.1-1.1-0.1c-0.4,0-0.8-0.1-1.2-0.1c-1.1,0-1.8,0.3-2.4,0.9
				c-0.6,0.6-0.8,1.6-0.8,2.9c0,1.4,0.2,2.3,0.7,2.9C966,536.3,966.7,536.7,967.7,536.7z"/>
			<path class="st3" d="M980.8,537.8c-0.8,0-1.5-0.2-1.9-0.7c-0.4-0.4-0.7-1.1-0.7-1.9c0-0.9,0.3-1.6,0.9-2.1s1.5-0.8,2.8-0.9
				l2.3-0.2v-0.7c0-0.4,0-0.8-0.1-1.1c-0.1-0.3-0.2-0.5-0.4-0.7c-0.2-0.2-0.4-0.3-0.7-0.4s-0.7-0.1-1.2-0.1c-0.4,0-0.8,0-1.3,0.1
				c-0.5,0-1,0.1-1.5,0.2l-0.1-1.2c0.6-0.1,1.2-0.2,1.7-0.3s1-0.1,1.6-0.1c1.3,0,2.2,0.3,2.8,0.8s0.9,1.3,0.9,2.4v6.6h-1.3l-0.2-1.2
				h-0.1c-0.6,0.4-1.2,0.7-1.7,1C982,537.7,981.4,537.8,980.8,537.8z M981.4,536.6c0.4,0,0.9-0.1,1.4-0.3c0.5-0.2,1-0.5,1.5-0.8
				v-2.4l-1.9,0.2c-0.9,0.1-1.6,0.3-2,0.5c-0.4,0.3-0.6,0.7-0.6,1.4C979.8,536.2,980.4,536.6,981.4,536.6z"/>
			<path class="st3" d="M988.5,528.1h1.3l0.1,1.1h0.1c0.5-0.2,0.9-0.4,1.3-0.6c0.4-0.2,0.8-0.3,1.1-0.4s0.6-0.2,0.9-0.2
				c0.3,0,0.6-0.1,0.8-0.1c0.8,0,1.5,0.2,1.9,0.7c0.4,0.4,0.7,1.1,0.7,2v7.2h-1.6v-6.7c0-0.7-0.1-1.1-0.4-1.4s-0.6-0.4-1.2-0.4
				c-0.5,0-1,0.1-1.6,0.3c-0.6,0.2-1.2,0.4-1.9,0.8v7.5h-1.6v-9.8H988.5z"/>
			<path class="st3" d="M1007.6,537.8c-1.5,0-2.6-0.4-3.4-1.2c-0.8-0.8-1.1-2-1.1-3.7c0-1.7,0.4-2.9,1.1-3.8
				c0.7-0.9,1.8-1.3,3.3-1.3c2.5,0,3.7,1.4,3.7,4.3c0,0.6,0,1-0.1,1.3h-6.4c0.1,1.1,0.3,1.9,0.8,2.4s1.3,0.7,2.3,0.7
				c0.5,0,0.9,0,1.5-0.1c0.5-0.1,1-0.2,1.5-0.4l0.1,1.2c-0.5,0.2-1,0.3-1.6,0.4C1008.7,537.8,1008.1,537.8,1007.6,537.8z
				 M1007.5,529.1c-1.7,0-2.7,1.1-2.8,3.3h5.1c0-1.2-0.2-2-0.6-2.5C1008.8,529.3,1008.3,529.1,1007.5,529.1z"/>
			<path class="st3" d="M1013.4,528.1h1.3l0.1,1.1h0.1c0.8-0.5,1.4-0.8,2-1s1.1-0.3,1.6-0.3c1.2,0,1.9,0.4,2.3,1.3h0.1
				c0.8-0.5,1.4-0.8,2-1s1.1-0.3,1.6-0.3c0.8,0,1.5,0.2,1.9,0.7c0.4,0.4,0.7,1.1,0.7,2v7.2h-1.6v-6.7c0-0.7-0.1-1.1-0.4-1.4
				s-0.7-0.4-1.2-0.4c-0.4,0-0.8,0.1-1.3,0.3c-0.5,0.2-1,0.4-1.5,0.7v7.5h-1.6v-6.7c0-0.7-0.1-1.1-0.4-1.4c-0.3-0.3-0.7-0.4-1.2-0.4
				c-0.4,0-0.8,0.1-1.3,0.3c-0.5,0.2-1,0.4-1.5,0.8v7.5h-1.6L1013.4,528.1L1013.4,528.1z"/>
			<path class="st3" d="M1031.5,537.8c-0.8,0-1.5-0.2-1.9-0.7c-0.4-0.4-0.7-1.1-0.7-1.9c0-0.9,0.3-1.6,0.9-2.1
				c0.6-0.5,1.5-0.8,2.8-0.9l2.3-0.2v-0.7c0-0.4,0-0.8-0.1-1.1c-0.1-0.3-0.2-0.5-0.4-0.7c-0.2-0.2-0.4-0.3-0.7-0.4
				c-0.3-0.1-0.7-0.1-1.2-0.1c-0.4,0-0.8,0-1.3,0.1c-0.5,0-1,0.1-1.5,0.2l-0.1-1.2c0.6-0.1,1.2-0.2,1.7-0.3s1-0.1,1.6-0.1
				c1.3,0,2.2,0.3,2.8,0.8s0.9,1.3,0.9,2.4v6.6h-1.3l-0.2-1.2h-0.1c-0.6,0.4-1.2,0.7-1.7,1C1032.7,537.7,1032.1,537.8,1031.5,537.8z
				 M1032.1,536.6c0.4,0,0.9-0.1,1.4-0.3c0.5-0.2,1-0.5,1.5-0.8v-2.4l-1.9,0.2c-0.9,0.1-1.6,0.3-2,0.5c-0.4,0.3-0.6,0.7-0.6,1.4
				C1030.5,536.2,1031.1,536.6,1032.1,536.6z"/>
			<path class="st3" d="M1040,526c-0.6,0-1-0.3-1-1c0-0.6,0.3-1,1-1s1,0.3,1,1S1040.7,526,1040,526z M1039.2,528.1h1.6v9.7h-1.6
				V528.1z"/>
			<path class="st3" d="M1043.6,523.2h1.6v14.5h-1.6V523.2z"/>
			<path class="st3" d="M1055.5,537.8c-0.9,0-1.6-0.2-2.1-0.7s-0.7-1.2-0.7-2.1v-5.7h-2v-1.3h2.1l0.2-2.4l1.2-0.2v2.6h2.9v1.4h-2.9
				v5.4c0,0.6,0.1,1.1,0.4,1.4s0.7,0.4,1.3,0.4c0.2,0,0.4,0,0.6,0s0.4-0.1,0.7-0.2v1.3c-0.3,0.1-0.6,0.1-0.9,0.2
				C1056,538,1055.8,537.8,1055.5,537.8z"/>
			<path class="st3" d="M1062.9,538c-1.5,0-2.6-0.4-3.3-1.3c-0.8-0.9-1.2-2.1-1.2-3.7s0.4-2.9,1.2-3.8c0.8-0.9,1.9-1.3,3.3-1.3
				c1.4,0,2.6,0.4,3.3,1.3c0.8,0.9,1.2,2.1,1.2,3.8c0,1.6-0.4,2.9-1.2,3.8C1065.5,537.5,1064.4,538,1062.9,538z M1062.9,536.7
				c1,0,1.7-0.3,2.2-0.9c0.5-0.6,0.7-1.5,0.7-2.9c0-1.3-0.2-2.3-0.7-2.9c-0.5-0.6-1.2-0.9-2.2-0.9s-1.7,0.3-2.2,0.9
				c-0.5,0.6-0.7,1.5-0.7,2.9c0,1.3,0.2,2.3,0.7,2.9S1061.9,536.7,1062.9,536.7z"/>
			<path class="st3" d="M937.6,559.6c-0.4,0-0.9,0-1.4-0.1s-1.1-0.2-1.9-0.3v-1.3c0.6,0.1,1.2,0.3,1.7,0.4c0.5,0.1,1,0.1,1.5,0.1
				c0.7,0,1.3-0.1,1.6-0.4c0.4-0.3,0.5-0.7,0.5-1.2c0-0.3,0-0.5-0.1-0.7c-0.1-0.2-0.2-0.3-0.4-0.5c-0.2-0.1-0.4-0.2-0.6-0.3
				s-0.5-0.1-0.8-0.2c-0.4-0.1-0.8-0.2-1.1-0.2s-0.7-0.2-1-0.4s-0.6-0.5-0.8-0.8s-0.3-0.8-0.3-1.4c0-0.9,0.3-1.6,0.9-2.1
				c0.6-0.5,1.5-0.7,2.6-0.7c0.2,0,0.4,0,0.6,0c0.2,0,0.4,0,0.6,0.1c0.2,0,0.5,0.1,0.7,0.1c0.3,0,0.6,0.1,0.9,0.2l-0.1,1.3
				c-0.6-0.1-1.1-0.2-1.5-0.3c-0.4-0.1-0.8-0.1-1.1-0.1c-1.5,0-2.2,0.5-2.2,1.5c0,0.3,0.1,0.5,0.2,0.7c0.1,0.2,0.3,0.3,0.5,0.5
				c0.2,0.1,0.4,0.2,0.7,0.3s0.6,0.1,0.9,0.2c0.4,0.1,0.8,0.2,1.2,0.3c0.4,0.1,0.7,0.3,1,0.5c0.3,0.2,0.5,0.5,0.6,0.8
				c0.1,0.3,0.2,0.7,0.2,1.2c0,0.9-0.3,1.6-0.9,2.1C939.7,559.3,938.8,559.6,937.6,559.6z"/>
			<path class="st3" d="M947.4,559.5c-1.5,0-2.6-0.4-3.4-1.2c-0.8-0.8-1.1-2-1.1-3.7s0.4-2.9,1.1-3.8c0.8-0.9,1.8-1.3,3.3-1.3
				c2.5,0,3.7,1.4,3.7,4.3c0,0.6,0,1-0.1,1.3h-6.4c0.1,1.1,0.3,1.9,0.8,2.4s1.3,0.7,2.3,0.7c0.5,0,0.9,0,1.5-0.1s1-0.2,1.5-0.4
				l0.1,1.2c-0.5,0.2-1,0.3-1.6,0.4S947.9,559.5,947.4,559.5z M947.2,550.7c-1.7,0-2.7,1.1-2.8,3.3h5.1c0-1.2-0.2-2-0.6-2.5
				S948,550.7,947.2,550.7z"/>
			<path class="st3" d="M957.3,559.5c-3.1,0-4.6-1.7-4.6-5c0-3.4,1.5-5,4.6-5c0.4,0,0.8,0,1.2,0.1c0.4,0,0.8,0.1,1.1,0.2v1.3
				c-0.4-0.1-0.7-0.1-1.1-0.2c-0.4,0-0.7-0.1-1.1-0.1c-1.1,0-1.9,0.3-2.4,0.9c-0.5,0.6-0.8,1.5-0.8,2.8c0,1.3,0.2,2.2,0.7,2.8
				s1.3,0.9,2.4,0.9c0.4,0,0.8,0,1.1,0s0.7-0.1,1.1-0.2v1.3c-0.3,0.1-0.6,0.1-1.1,0.2S957.7,559.5,957.3,559.5z"/>
			<path class="st3" d="M964.1,559.6c-1.6,0-2.5-0.9-2.5-2.7v-7.2h1.6v6.7c0,0.6,0.1,1.1,0.3,1.4s0.6,0.4,1.2,0.4
				c0.6,0,1.2-0.1,1.8-0.4s1.2-0.5,1.8-0.8v-7.4h1.6v9.7h-1.3l-0.1-1.2h-0.1c-0.5,0.2-0.9,0.4-1.3,0.6c-0.4,0.2-0.7,0.3-1,0.4
				c-0.3,0.1-0.6,0.2-0.9,0.2C964.8,559.5,964.5,559.6,964.1,559.6z"/>
			<path class="st3" d="M972.6,549.7h1.3l0.1,1.3h0.1c0.7-0.4,1.3-0.7,1.9-1c0.6-0.3,1.1-0.4,1.6-0.5h0.5v1.5h-0.6
				c-0.5,0.1-1.1,0.2-1.7,0.4c-0.6,0.2-1.1,0.5-1.6,0.7v7.2h-1.6V549.7z"/>
			<path class="st3" d="M980.4,547.6c-0.6,0-1-0.3-1-1c0-0.6,0.3-1,1-1s1,0.3,1,1C981.4,547.2,981.1,547.6,980.4,547.6z
				 M979.6,549.7h1.6v9.7h-1.6V549.7z"/>
			<path class="st3" d="M987.7,559.5c-0.9,0-1.6-0.2-2.1-0.7s-0.7-1.2-0.7-2.1v-5.7h-2v-1.4h2.1l0.2-2.4l1.2-0.2v2.6h2.9v1.4h-2.9
				v5.4c0,0.6,0.1,1.1,0.4,1.3c0.3,0.3,0.7,0.4,1.3,0.4c0.2,0,0.4,0,0.6,0c0.2,0,0.4-0.1,0.7-0.2v1.3c-0.3,0.1-0.6,0.1-0.9,0.2
				C988.2,559.4,988,559.5,987.7,559.5z"/>
			<path class="st3" d="M992.6,563.1v-0.2l1.5-3.6l-4-9.5v-0.2h1.7l2.6,6.6l0.4,1.4h0.1l0.4-1.4l2.7-6.6h1.6v0.2l-5.7,13.5
				L992.6,563.1z"/>
			<path class="st3" d="M1009.1,559.6c-1.5,0-2.6-0.4-3.3-1.3c-0.8-0.9-1.2-2.1-1.2-3.7c0-1.6,0.4-2.9,1.2-3.8
				c0.8-0.9,1.9-1.3,3.3-1.3s2.6,0.4,3.3,1.3c0.8,0.9,1.2,2.1,1.2,3.8c0,1.6-0.4,2.9-1.2,3.8
				C1011.7,559.1,1010.5,559.6,1009.1,559.6z M1009.1,558.3c1,0,1.7-0.3,2.2-0.9s0.7-1.5,0.7-2.9c0-1.3-0.2-2.3-0.7-2.9
				s-1.2-0.9-2.2-0.9s-1.7,0.3-2.2,0.9s-0.7,1.5-0.7,2.9c0,1.3,0.2,2.3,0.7,2.9C1007.3,558,1008.1,558.3,1009.1,558.3z"/>
			<path class="st3" d="M1016.6,551h-2.1v-1.4h2.1v-0.5c0-0.9,0.1-1.6,0.2-2.1c0.1-0.6,0.4-1,0.7-1.3s0.8-0.6,1.4-0.7
				c0.6-0.1,1.3-0.2,2.2-0.3l0.1,1.2c-0.6,0-1.1,0.1-1.5,0.2s-0.7,0.2-0.9,0.5s-0.4,0.5-0.5,0.8c-0.1,0.4-0.1,0.8-0.1,1.4v0.9h2.6
				v1.4h-2.6v8.4h-1.6L1016.6,551L1016.6,551z M1023.5,551h-2.1v-1.4h2.1v-0.5c0-0.9,0.1-1.6,0.2-2.1c0.1-0.6,0.4-1,0.7-1.3
				s0.8-0.6,1.4-0.7c0.6-0.1,1.3-0.2,2.2-0.3l0.1,1.2c-0.6,0-1.1,0.1-1.5,0.2c-0.4,0.1-0.7,0.2-0.9,0.5s-0.4,0.5-0.5,0.8
				c-0.1,0.4-0.1,0.8-0.1,1.4v0.9h2.6v1.4h-2.6v8.4h-1.6V551L1023.5,551z M1030.3,547.6c-0.6,0-1-0.3-1-1c0-0.6,0.3-1,1-1s1,0.3,1,1
				C1031.3,547.2,1031,547.6,1030.3,547.6z M1029.5,549.7h1.6v9.7h-1.6V549.7z"/>
			<path class="st3" d="M1037.9,559.5c-3.1,0-4.6-1.7-4.6-5c0-3.4,1.5-5,4.6-5c0.4,0,0.8,0,1.2,0.1c0.4,0,0.8,0.1,1.1,0.2v1.3
				c-0.4-0.1-0.7-0.1-1.1-0.2c-0.4,0-0.7-0.1-1.1-0.1c-1.1,0-1.9,0.3-2.4,0.9c-0.5,0.6-0.8,1.5-0.8,2.8c0,1.3,0.2,2.2,0.7,2.8
				s1.3,0.9,2.4,0.9c0.4,0,0.8,0,1.1,0c0.3,0,0.7-0.1,1.1-0.2v1.3c-0.3,0.1-0.6,0.1-1.1,0.2S1038.4,559.5,1037.9,559.5z"/>
			<path class="st3" d="M1046.2,559.5c-1.5,0-2.6-0.4-3.4-1.2c-0.8-0.8-1.1-2-1.1-3.7s0.4-2.9,1.1-3.8c0.8-0.9,1.8-1.3,3.3-1.3
				c2.5,0,3.7,1.4,3.7,4.3c0,0.6,0,1-0.1,1.3h-6.4c0.1,1.1,0.3,1.9,0.8,2.4s1.3,0.7,2.3,0.7c0.5,0,0.9,0,1.5-0.1
				c0.5-0.1,1-0.2,1.5-0.4l0.1,1.2c-0.5,0.2-1,0.3-1.6,0.4C1047.3,559.3,1046.7,559.5,1046.2,559.5z M1046,550.7
				c-1.7,0-2.7,1.1-2.8,3.3h5.1c0-1.2-0.2-2-0.6-2.5C1047.3,551,1046.8,550.7,1046,550.7z"/>
			<path class="st3" d="M1051.9,549.7h1.3l0.1,1.3h0.1c0.7-0.4,1.3-0.7,1.9-1c0.6-0.3,1.1-0.4,1.6-0.5h0.5v1.5h-0.6
				c-0.5,0.1-1.1,0.2-1.7,0.4c-0.6,0.2-1.1,0.5-1.6,0.7v7.2h-1.6L1051.9,549.7L1051.9,549.7z"/>
			<path class="st3" d="M1061.7,559.6c-0.4,0-0.9,0-1.4-0.1s-1.1-0.2-1.9-0.3v-1.3c0.6,0.1,1.2,0.3,1.7,0.4c0.5,0.1,1,0.1,1.5,0.1
				c0.7,0,1.3-0.1,1.6-0.4c0.4-0.3,0.5-0.7,0.5-1.2c0-0.3,0-0.5-0.1-0.7c-0.1-0.2-0.2-0.3-0.4-0.5c-0.2-0.1-0.4-0.2-0.6-0.3
				s-0.5-0.1-0.8-0.2c-0.4-0.1-0.8-0.2-1.1-0.2s-0.7-0.2-1-0.4s-0.6-0.5-0.8-0.8c-0.2-0.3-0.3-0.8-0.3-1.4c0-0.9,0.3-1.6,0.9-2.1
				c0.6-0.5,1.5-0.7,2.6-0.7c0.2,0,0.4,0,0.6,0s0.4,0,0.6,0.1c0.2,0,0.5,0.1,0.7,0.1c0.3,0,0.6,0.1,0.9,0.2l-0.1,1.3
				c-0.6-0.1-1.1-0.2-1.5-0.3c-0.4-0.1-0.8-0.1-1.1-0.1c-1.5,0-2.2,0.5-2.2,1.5c0,0.3,0.1,0.5,0.2,0.7c0.1,0.2,0.3,0.3,0.5,0.5
				c0.2,0.1,0.4,0.2,0.7,0.3c0.3,0.1,0.6,0.1,0.9,0.2c0.4,0.1,0.8,0.2,1.2,0.3c0.4,0.1,0.7,0.3,1,0.5c0.3,0.2,0.5,0.5,0.6,0.8
				c0.2,0.3,0.2,0.7,0.2,1.2c0,0.9-0.3,1.6-0.9,2.1C1063.7,559.3,1062.9,559.6,1061.7,559.6z"/>
		</g>
	</g>
	<g>
		<path class="st5" d="M509.7,277.5l4.8-13.2h2.4l4.8,13.2v0.1h-1.6l-1.5-4h-6l-1.4,4h-1.6V277.5z M518.3,272.3l-1.6-4.5l-0.8-2.3
			h-0.1l-0.8,2.3l-1.6,4.5H518.3z"/>
		<path class="st5" d="M525.6,277.8c-1.6,0-2.5-0.9-2.5-2.7v-7.2h1.6v6.7c0,0.6,0.1,1.1,0.3,1.4c0.2,0.3,0.6,0.4,1.2,0.4
			c0.6,0,1.2-0.1,1.8-0.4c0.6-0.2,1.2-0.5,1.8-0.8v-7.4h1.6v9.7h-1.3l-0.1-1.2h-0.1c-0.5,0.2-0.9,0.4-1.3,0.6s-0.7,0.3-1,0.4
			c-0.3,0.1-0.6,0.2-0.9,0.2C526.3,277.7,526,277.8,525.6,277.8z"/>
		<path class="st5" d="M537.9,277.8c-0.9,0-1.6-0.2-2.1-0.7c-0.5-0.5-0.7-1.2-0.7-2.1v-5.7h-2v-1.4h2.1l0.2-2.4l1.2-0.2v2.6h2.9v1.4
			h-2.9v5.4c0,0.6,0.1,1.1,0.4,1.4s0.7,0.4,1.3,0.4c0.2,0,0.4,0,0.6,0c0.2,0,0.4-0.1,0.7-0.2v1.3c-0.3,0.1-0.6,0.1-0.9,0.2
			C538.4,277.7,538.1,277.8,537.9,277.8z"/>
		<path class="st5" d="M541.3,263h1.6v5.9c0.9-0.4,1.7-0.8,2.3-1c0.6-0.2,1.2-0.3,1.8-0.3c0.8,0,1.5,0.2,1.9,0.7
			c0.4,0.4,0.7,1.1,0.7,2v7.2h-1.6v-6.7c0-0.7-0.1-1.1-0.4-1.4c-0.3-0.3-0.6-0.4-1.2-0.4c-0.5,0-1,0.1-1.6,0.3s-1.2,0.4-1.9,0.8v7.5
			h-1.6V263z"/>
		<path class="st5" d="M556.2,277.8c-1.5,0-2.6-0.4-3.3-1.3c-0.8-0.9-1.2-2.1-1.2-3.7c0-1.6,0.4-2.9,1.2-3.8
			c0.8-0.9,1.9-1.3,3.3-1.3c1.5,0,2.6,0.4,3.3,1.3s1.2,2.1,1.2,3.8s-0.4,2.9-1.2,3.8C558.7,277.3,557.6,277.8,556.2,277.8z
			 M556.2,276.5c1,0,1.7-0.3,2.2-0.9s0.7-1.5,0.7-2.9s-0.2-2.3-0.7-2.9c-0.5-0.6-1.2-0.9-2.2-0.9c-1,0-1.7,0.3-2.2,0.9
			c-0.5,0.6-0.7,1.5-0.7,2.9s0.2,2.3,0.7,2.9C554.4,276.2,555.2,276.5,556.2,276.5z"/>
		<path class="st5" d="M562.9,267.9h1.3l0.1,1.3h0.1c0.7-0.4,1.3-0.7,1.9-1c0.6-0.3,1.1-0.4,1.6-0.5h0.5v1.5h-0.6
			c-0.5,0.1-1.1,0.2-1.7,0.4c-0.6,0.2-1.1,0.5-1.6,0.7v7.2h-1.6V267.9z"/>
		<path class="st5" d="M570.7,265.9c-0.6,0-1-0.3-1-1c0-0.6,0.3-1,1-1c0.7,0,1,0.3,1,1C571.7,265.5,571.4,265.9,570.7,265.9z
			 M569.9,267.9h1.6v9.7h-1.6V267.9z"/>
		<path class="st5" d="M578,277.8c-0.9,0-1.6-0.2-2.1-0.7c-0.5-0.5-0.7-1.2-0.7-2.1v-5.7h-2v-1.4h2.1l0.2-2.4l1.2-0.2v2.6h2.9v1.4
			h-2.9v5.4c0,0.6,0.1,1.1,0.4,1.4c0.3,0.3,0.7,0.4,1.3,0.4c0.2,0,0.4,0,0.6,0s0.4-0.1,0.7-0.2v1.3c-0.3,0.1-0.6,0.1-0.9,0.2
			S578.3,277.8,578,277.8z"/>
		<path class="st5" d="M582.2,265.9c-0.6,0-1-0.3-1-1c0-0.6,0.3-1,1-1c0.7,0,1,0.3,1,1C583.2,265.5,582.9,265.9,582.2,265.9z
			 M581.4,267.9h1.6v9.7h-1.6V267.9z"/>
		<path class="st5" d="M589.8,277.8c-1.5,0-2.6-0.4-3.4-1.2c-0.8-0.8-1.1-2-1.1-3.7c0-1.7,0.4-2.9,1.1-3.8c0.8-0.9,1.8-1.3,3.3-1.3
			c2.5,0,3.7,1.4,3.7,4.3c0,0.6,0,1-0.1,1.3h-6.4c0.1,1.1,0.3,1.9,0.8,2.4s1.3,0.7,2.3,0.7c0.5,0,0.9,0,1.5-0.1
			c0.5-0.1,1-0.2,1.5-0.4l0.1,1.2c-0.5,0.2-1,0.3-1.6,0.4S590.3,277.8,589.8,277.8z M589.6,268.9c-1.7,0-2.7,1.1-2.8,3.3h5.1
			c0-1.2-0.2-2-0.6-2.5C591,269.2,590.4,268.9,589.6,268.9z"/>
		<path class="st5" d="M598.3,277.8c-0.4,0-0.9,0-1.4-0.1c-0.5-0.1-1.1-0.2-1.9-0.3v-1.3c0.6,0.1,1.2,0.3,1.7,0.4
			c0.5,0.1,1,0.1,1.5,0.1c0.7,0,1.3-0.1,1.6-0.4s0.5-0.7,0.5-1.2c0-0.3,0-0.5-0.1-0.7c-0.1-0.2-0.2-0.3-0.4-0.5
			c-0.2-0.1-0.4-0.2-0.6-0.3s-0.5-0.1-0.8-0.2c-0.4-0.1-0.8-0.2-1.1-0.2s-0.7-0.2-1-0.4c-0.3-0.2-0.6-0.5-0.8-0.8
			c-0.2-0.3-0.3-0.8-0.3-1.4c0-0.9,0.3-1.6,0.9-2.1s1.5-0.7,2.6-0.7c0.2,0,0.4,0,0.6,0c0.2,0,0.4,0,0.6,0.1c0.2,0,0.5,0.1,0.7,0.1
			c0.3,0,0.6,0.1,0.9,0.2l-0.1,1.3c-0.6-0.1-1.1-0.2-1.5-0.3c-0.4-0.1-0.8-0.1-1.1-0.1c-1.5,0-2.2,0.5-2.2,1.5
			c0,0.3,0.1,0.5,0.2,0.7s0.3,0.3,0.5,0.5s0.4,0.2,0.7,0.3c0.3,0.1,0.6,0.1,0.9,0.2c0.4,0.1,0.8,0.2,1.2,0.3s0.7,0.3,1,0.5
			c0.3,0.2,0.5,0.5,0.6,0.8c0.2,0.3,0.2,0.7,0.2,1.2c0,0.9-0.3,1.6-0.9,2.1C600.4,277.5,599.5,277.8,598.3,277.8z"/>
		<path class="st5" d="M610.2,277.7c-0.8,0-1.5-0.2-1.9-0.7c-0.4-0.4-0.7-1.1-0.7-1.9c0-0.9,0.3-1.6,0.9-2.1
			c0.6-0.5,1.5-0.8,2.8-0.9l2.3-0.2v-0.7c0-0.4,0-0.8-0.1-1.1c-0.1-0.3-0.2-0.5-0.4-0.7c-0.2-0.2-0.4-0.3-0.7-0.4
			c-0.3-0.1-0.7-0.1-1.2-0.1c-0.4,0-0.8,0-1.3,0.1c-0.5,0-1,0.1-1.5,0.2l-0.1-1.2c0.6-0.1,1.2-0.2,1.7-0.3c0.5-0.1,1-0.1,1.6-0.1
			c1.3,0,2.2,0.3,2.8,0.8c0.6,0.5,0.9,1.3,0.9,2.4v6.6h-1.3l-0.2-1.2h-0.1c-0.6,0.4-1.2,0.7-1.7,1
			C611.3,277.6,610.8,277.7,610.2,277.7z M610.8,276.5c0.4,0,0.9-0.1,1.4-0.3s1-0.5,1.5-0.8v-2.4l-1.9,0.2c-0.9,0.1-1.6,0.3-2,0.5
			c-0.4,0.3-0.6,0.7-0.6,1.4C609.2,276,609.7,276.5,610.8,276.5z"/>
		<path class="st5" d="M617.9,267.9h1.3l0.1,1.1h0.1c0.5-0.2,0.9-0.4,1.3-0.6c0.4-0.2,0.8-0.3,1.1-0.4c0.3-0.1,0.6-0.2,0.9-0.2
			c0.3,0,0.6-0.1,0.8-0.1c0.8,0,1.5,0.2,1.9,0.7c0.4,0.4,0.7,1.1,0.7,2v7.2h-1.6v-6.7c0-0.7-0.1-1.1-0.4-1.4
			c-0.3-0.3-0.6-0.4-1.2-0.4c-0.5,0-1,0.1-1.6,0.3c-0.6,0.2-1.2,0.4-1.9,0.8v7.5h-1.6V267.9z"/>
		<path class="st5" d="M632.3,277.8c-1.3,0-2.3-0.4-3-1.2s-1-2.1-1-3.8c0-0.9,0.1-1.6,0.3-2.2c0.2-0.6,0.6-1.2,1-1.6s0.9-0.7,1.5-1
			c0.6-0.2,1.3-0.3,2-0.3c0.4,0,0.8,0,1.2,0.1c0.4,0,0.7,0.1,1.1,0.1V263h1.6v14.5h-1.4l-0.1-1.2h-0.1
			C634.6,277.3,633.6,277.8,632.3,277.8z M632.6,276.5c0.4,0,0.7-0.1,1-0.2c0.3-0.1,0.6-0.2,0.9-0.4c0.3-0.2,0.5-0.4,0.6-0.7
			c0.1-0.3,0.2-0.6,0.2-0.9v-5.2c-0.3-0.1-0.7-0.1-1.1-0.1c-0.4,0-0.8-0.1-1.2-0.1c-1.1,0-1.8,0.3-2.4,0.9s-0.8,1.6-0.8,2.9
			c0,1.4,0.2,2.3,0.7,2.9C631,276.2,631.7,276.5,632.6,276.5z"/>
		<path class="st5" d="M502.5,299.4c-1.5,0-2.6-0.4-3.3-1.3c-0.8-0.9-1.2-2.1-1.2-3.7c0-1.6,0.4-2.9,1.2-3.8
			c0.8-0.9,1.9-1.3,3.3-1.3c1.5,0,2.6,0.4,3.3,1.3c0.8,0.9,1.2,2.1,1.2,3.8c0,1.6-0.4,2.9-1.2,3.8
			C505.1,298.9,504,299.4,502.5,299.4z M502.5,298.1c1,0,1.7-0.3,2.2-0.9s0.7-1.5,0.7-2.9c0-1.3-0.2-2.3-0.7-2.9s-1.2-0.9-2.2-0.9
			c-1,0-1.7,0.3-2.2,0.9c-0.5,0.6-0.7,1.5-0.7,2.9c0,1.3,0.2,2.3,0.7,2.9C500.8,297.8,501.5,298.1,502.5,298.1z"/>
		<path class="st5" d="M509.2,289.5h1.3l0.1,1.3h0.1c0.7-0.4,1.3-0.7,1.9-1s1.1-0.4,1.6-0.5h0.5v1.5h-0.6c-0.5,0.1-1.1,0.2-1.7,0.4
			c-0.6,0.2-1.1,0.5-1.6,0.7v7.2h-1.6V289.5z"/>
		<path class="st5" d="M519.2,303.1c-0.6,0-1.1,0-1.7-0.1c-0.6-0.1-1.1-0.2-1.5-0.3l0.1-1.2c0.4,0.1,0.9,0.2,1.4,0.3s1,0.1,1.5,0.1
			c0.5,0,1-0.1,1.4-0.2c0.4-0.1,0.8-0.3,1.1-0.6c0.3-0.3,0.5-0.6,0.7-1.1s0.3-1,0.3-1.7v-0.6h-0.1c-0.7,0.9-1.7,1.4-3,1.4
			c-1.3,0-2.3-0.4-3-1.2s-1-2-1-3.7c0-0.9,0.1-1.6,0.3-2.2c0.2-0.6,0.6-1.2,1-1.6c0.4-0.4,0.9-0.7,1.5-0.9c0.6-0.2,1.3-0.3,2-0.3
			c0.6,0,1.2,0,1.8,0.1c0.6,0.1,1.3,0.2,2,0.4v8.4c0,1-0.1,1.8-0.4,2.4s-0.6,1.1-1,1.5c-0.4,0.4-0.9,0.6-1.5,0.8
			S519.9,303.1,519.2,303.1z M519.7,297.9c0.4,0,0.7-0.1,1-0.2c0.3-0.1,0.6-0.2,0.9-0.4c0.2-0.2,0.4-0.4,0.6-0.7
			c0.1-0.3,0.2-0.6,0.2-0.9v-5c-0.3-0.1-0.7-0.1-1.1-0.1c-0.4,0-0.8-0.1-1.2-0.1c-1.1,0-1.8,0.3-2.4,0.9c-0.5,0.6-0.8,1.5-0.8,2.9
			c0,1.3,0.2,2.3,0.7,2.8C518,297.7,518.7,297.9,519.7,297.9z"/>
		<path class="st5" d="M528.6,299.3c-0.8,0-1.5-0.2-1.9-0.7c-0.4-0.4-0.7-1.1-0.7-1.9c0-0.9,0.3-1.7,0.9-2.1
			c0.6-0.5,1.5-0.8,2.8-0.9l2.3-0.2v-0.7c0-0.4,0-0.8-0.1-1.1c-0.1-0.3-0.2-0.5-0.4-0.7c-0.2-0.2-0.4-0.3-0.7-0.4
			c-0.3-0.1-0.7-0.1-1.2-0.1c-0.4,0-0.8,0-1.3,0.1s-1,0.1-1.5,0.2l-0.1-1.2c0.6-0.1,1.2-0.2,1.7-0.3c0.5-0.1,1-0.1,1.6-0.1
			c1.3,0,2.2,0.3,2.8,0.8s0.9,1.3,0.9,2.4v6.6h-1.3l-0.2-1.2h-0.1c-0.6,0.4-1.2,0.7-1.7,1C529.8,299.2,529.2,299.3,528.6,299.3z
			 M529.2,298.1c0.4,0,0.9-0.1,1.4-0.3c0.5-0.2,1-0.5,1.5-0.8v-2.4l-1.9,0.2c-0.9,0.1-1.6,0.3-2,0.5c-0.4,0.3-0.6,0.7-0.6,1.4
			C527.6,297.6,528.2,298.1,529.2,298.1z"/>
		<path class="st5" d="M536.3,289.5h1.3l0.1,1.1h0.1c0.5-0.2,0.9-0.4,1.3-0.6c0.4-0.2,0.7-0.3,1.1-0.4c0.3-0.1,0.6-0.2,0.9-0.2
			s0.6-0.1,0.8-0.1c0.8,0,1.5,0.2,1.9,0.7c0.4,0.4,0.7,1.1,0.7,2v7.2h-1.6v-6.7c0-0.7-0.1-1.1-0.4-1.4c-0.3-0.3-0.6-0.4-1.2-0.4
			c-0.5,0-1,0.1-1.6,0.3c-0.6,0.2-1.2,0.5-1.9,0.8v7.5h-1.6V289.5z"/>
		<path class="st5" d="M548,287.5c-0.6,0-1-0.3-1-1c0-0.6,0.3-1,1-1c0.7,0,1,0.3,1,1C549,287.1,548.6,287.5,548,287.5z M547.2,289.5
			h1.6v9.7h-1.6V289.5z"/>
		<path class="st5" d="M550.8,298.1l5.3-7.3v-0.1H551v-1.3h7.2v1l-5.3,7.3v0.1h5.5v1.3h-7.5V298.1z"/>
		<path class="st5" d="M562.3,299.3c-0.8,0-1.5-0.2-1.9-0.7c-0.4-0.4-0.7-1.1-0.7-1.9c0-0.9,0.3-1.7,0.9-2.1
			c0.6-0.5,1.5-0.8,2.8-0.9l2.3-0.2v-0.7c0-0.4,0-0.8-0.1-1.1c-0.1-0.3-0.2-0.5-0.4-0.7c-0.2-0.2-0.4-0.3-0.7-0.4
			c-0.3-0.1-0.7-0.1-1.2-0.1c-0.4,0-0.8,0-1.3,0.1s-1,0.1-1.5,0.2l-0.1-1.2c0.6-0.1,1.2-0.2,1.7-0.3c0.5-0.1,1-0.1,1.6-0.1
			c1.3,0,2.2,0.3,2.8,0.8s0.9,1.3,0.9,2.4v6.6H566l-0.2-1.2h-0.1c-0.6,0.4-1.2,0.7-1.7,1C563.4,299.2,562.9,299.3,562.3,299.3z
			 M562.9,298.1c0.4,0,0.9-0.1,1.4-0.3c0.5-0.2,1-0.5,1.5-0.8v-2.4l-1.9,0.2c-0.9,0.1-1.6,0.3-2,0.5c-0.4,0.3-0.6,0.7-0.6,1.4
			C561.3,297.6,561.8,298.1,562.9,298.1z"/>
		<path class="st5" d="M573.6,299.4c-0.9,0-1.6-0.2-2.1-0.7c-0.5-0.5-0.7-1.2-0.7-2.1v-5.7h-2v-1.4h2.1l0.2-2.4l1.2-0.2v2.6h2.9v1.4
			h-2.9v5.4c0,0.6,0.1,1.1,0.4,1.3c0.3,0.3,0.7,0.4,1.3,0.4c0.2,0,0.4,0,0.6,0c0.2,0,0.4-0.1,0.7-0.2v1.3c-0.3,0.1-0.6,0.1-0.9,0.2
			S573.9,299.4,573.6,299.4z"/>
		<path class="st5" d="M577.8,287.5c-0.6,0-1-0.3-1-1c0-0.6,0.3-1,1-1c0.7,0,1,0.3,1,1C578.8,287.1,578.5,287.5,577.8,287.5z
			 M577.1,289.5h1.6v9.7h-1.6V289.5z"/>
		<path class="st5" d="M585.4,299.4c-1.5,0-2.6-0.4-3.3-1.3c-0.8-0.9-1.2-2.1-1.2-3.7c0-1.6,0.4-2.9,1.2-3.8
			c0.8-0.9,1.9-1.3,3.3-1.3s2.6,0.4,3.3,1.3c0.8,0.9,1.2,2.1,1.2,3.8c0,1.6-0.4,2.9-1.2,3.8C587.9,298.9,586.8,299.4,585.4,299.4z
			 M585.4,298.1c1,0,1.7-0.3,2.2-0.9s0.7-1.5,0.7-2.9c0-1.3-0.2-2.3-0.7-2.9s-1.2-0.9-2.2-0.9c-1,0-1.7,0.3-2.2,0.9
			c-0.5,0.6-0.7,1.5-0.7,2.9c0,1.3,0.2,2.3,0.7,2.9C583.6,297.8,584.4,298.1,585.4,298.1z"/>
		<path class="st5" d="M592.1,289.5h1.3l0.1,1.1h0.1c0.5-0.2,0.9-0.4,1.3-0.6c0.4-0.2,0.8-0.3,1.1-0.4c0.3-0.1,0.6-0.2,0.9-0.2
			s0.6-0.1,0.8-0.1c0.8,0,1.5,0.2,1.9,0.7c0.4,0.4,0.7,1.1,0.7,2v7.2h-1.6v-6.7c0-0.7-0.1-1.1-0.4-1.4c-0.3-0.3-0.6-0.4-1.2-0.4
			c-0.5,0-1,0.1-1.6,0.3c-0.6,0.2-1.2,0.5-1.9,0.8v7.5h-1.6V289.5z"/>
		<path class="st5" d="M605.7,299.4c-0.4,0-0.9,0-1.4-0.1c-0.5-0.1-1.1-0.2-1.9-0.3v-1.3c0.6,0.1,1.2,0.3,1.7,0.4s1,0.1,1.5,0.1
			c0.7,0,1.3-0.1,1.6-0.4c0.4-0.3,0.5-0.7,0.5-1.2c0-0.3,0-0.5-0.1-0.7c-0.1-0.2-0.2-0.3-0.4-0.5c-0.2-0.1-0.4-0.2-0.6-0.3
			s-0.5-0.1-0.8-0.2c-0.4-0.1-0.8-0.2-1.1-0.2s-0.7-0.2-1-0.4c-0.3-0.2-0.6-0.5-0.8-0.8c-0.2-0.3-0.3-0.8-0.3-1.4
			c0-0.9,0.3-1.6,0.9-2.1s1.5-0.7,2.6-0.7c0.2,0,0.4,0,0.6,0c0.2,0,0.4,0,0.6,0.1c0.2,0,0.5,0.1,0.7,0.1c0.3,0,0.6,0.1,0.9,0.2
			l-0.1,1.3c-0.6-0.1-1.1-0.2-1.5-0.3c-0.4-0.1-0.8-0.1-1.1-0.1c-1.5,0-2.2,0.5-2.2,1.5c0,0.3,0.1,0.5,0.2,0.7
			c0.1,0.2,0.3,0.3,0.5,0.5c0.2,0.1,0.4,0.2,0.7,0.3s0.6,0.1,0.9,0.2c0.4,0.1,0.8,0.2,1.2,0.3c0.4,0.1,0.7,0.3,1,0.5
			c0.3,0.2,0.5,0.5,0.6,0.8c0.2,0.3,0.2,0.7,0.2,1.2c0,0.9-0.3,1.6-0.9,2.1C607.8,299.1,606.9,299.4,605.7,299.4z"/>
		<path class="st5" d="M614.4,289.6v-0.1h1.5l1.7,6.7l0.3,1.4h0.1l0.3-1.4l1.9-6.7h1.5l2,6.7l0.4,1.4h0.1l0.3-1.4l1.7-6.7h1.5v0.1
			l-2.6,9.6h-1.8l-1.9-6.5l-0.3-1.3H621l-0.3,1.3l-1.9,6.5h-1.8L614.4,289.6z"/>
		<path class="st5" d="M630.4,287.5c-0.6,0-1-0.3-1-1c0-0.6,0.3-1,1-1c0.7,0,1,0.3,1,1C631.4,287.1,631.1,287.5,630.4,287.5z
			 M629.7,289.5h1.6v9.7h-1.6V289.5z"/>
		<path class="st5" d="M637.7,299.4c-0.9,0-1.6-0.2-2.1-0.7c-0.5-0.5-0.7-1.2-0.7-2.1v-5.7h-2v-1.4h2.1l0.2-2.4l1.2-0.2v2.6h2.9v1.4
			h-2.9v5.4c0,0.6,0.1,1.1,0.4,1.3c0.3,0.3,0.7,0.4,1.3,0.4c0.2,0,0.4,0,0.6,0s0.4-0.1,0.7-0.2v1.3c-0.3,0.1-0.6,0.1-0.9,0.2
			S638,299.4,637.7,299.4z"/>
		<path class="st5" d="M641.2,284.6h1.6v5.9c0.9-0.4,1.7-0.8,2.3-1s1.2-0.3,1.8-0.3c0.8,0,1.5,0.2,1.9,0.7c0.4,0.4,0.7,1.1,0.7,2
			v7.2h-1.6v-6.7c0-0.7-0.1-1.1-0.4-1.4c-0.3-0.3-0.6-0.4-1.2-0.4c-0.5,0-1,0.1-1.6,0.3c-0.6,0.2-1.2,0.5-1.9,0.8v7.5h-1.6V284.6z"
			/>
		<path class="st5" d="M521.3,321c-0.4,0-0.9,0-1.4-0.1c-0.5-0.1-1.1-0.2-1.9-0.3v-1.3c0.6,0.1,1.2,0.3,1.7,0.4
			c0.5,0.1,1,0.1,1.5,0.1c0.7,0,1.3-0.1,1.6-0.4c0.4-0.3,0.5-0.7,0.5-1.2c0-0.3,0-0.5-0.1-0.7c-0.1-0.2-0.2-0.3-0.4-0.5
			c-0.2-0.1-0.4-0.2-0.6-0.3s-0.5-0.1-0.8-0.2c-0.4-0.1-0.8-0.2-1.1-0.2c-0.4-0.1-0.7-0.2-1-0.4c-0.3-0.2-0.6-0.5-0.8-0.8
			c-0.2-0.3-0.3-0.8-0.3-1.4c0-0.9,0.3-1.6,0.9-2.1c0.6-0.5,1.5-0.7,2.6-0.7c0.2,0,0.4,0,0.6,0c0.2,0,0.4,0,0.6,0.1
			c0.2,0,0.5,0.1,0.7,0.1s0.6,0.1,0.9,0.2l-0.1,1.3c-0.6-0.1-1.1-0.2-1.5-0.3c-0.4-0.1-0.8-0.1-1.1-0.1c-1.5,0-2.2,0.5-2.2,1.5
			c0,0.3,0.1,0.5,0.2,0.7c0.1,0.2,0.3,0.3,0.5,0.5c0.2,0.1,0.4,0.2,0.7,0.3c0.3,0.1,0.6,0.1,0.9,0.2c0.4,0.1,0.8,0.2,1.2,0.3
			c0.4,0.1,0.7,0.3,1,0.5c0.3,0.2,0.5,0.5,0.6,0.8c0.1,0.3,0.2,0.7,0.2,1.2c0,0.9-0.3,1.6-0.9,2.1C523.3,320.7,522.4,321,521.3,321z
			"/>
		<path class="st5" d="M531,321c-1.5,0-2.6-0.4-3.4-1.2c-0.8-0.8-1.1-2-1.1-3.7c0-1.7,0.4-2.9,1.1-3.8c0.8-0.9,1.8-1.3,3.3-1.3
			c2.5,0,3.7,1.4,3.7,4.3c0,0.6,0,1-0.1,1.3h-6.4c0.1,1.1,0.3,1.9,0.8,2.4c0.5,0.5,1.3,0.7,2.3,0.7c0.5,0,0.9,0,1.5-0.1
			c0.5-0.1,1-0.2,1.5-0.4l0.1,1.2c-0.5,0.2-1,0.3-1.6,0.4S531.6,321,531,321z M530.9,312.1c-1.7,0-2.7,1.1-2.8,3.3h5.1
			c0-1.2-0.2-2-0.6-2.5S531.7,312.1,530.9,312.1z"/>
		<path class="st5" d="M540.9,321c-3.1,0-4.6-1.7-4.6-5c0-3.4,1.5-5,4.6-5c0.4,0,0.8,0,1.2,0.1c0.4,0,0.8,0.1,1.1,0.2v1.3
			c-0.4-0.1-0.7-0.1-1.1-0.2c-0.4,0-0.7-0.1-1.1-0.1c-1.1,0-1.9,0.3-2.4,0.9c-0.5,0.6-0.8,1.5-0.8,2.8c0,1.3,0.2,2.2,0.7,2.8
			s1.3,0.9,2.4,0.9c0.4,0,0.8,0,1.1,0c0.3,0,0.7-0.1,1.1-0.2v1.3c-0.3,0.1-0.6,0.1-1.1,0.2S541.3,321,540.9,321z"/>
		<path class="st5" d="M547.8,321c-1.6,0-2.5-0.9-2.5-2.7v-7.2h1.6v6.7c0,0.6,0.1,1.1,0.3,1.4c0.2,0.3,0.6,0.4,1.2,0.4
			c0.6,0,1.2-0.1,1.8-0.4c0.6-0.2,1.2-0.5,1.8-0.8v-7.4h1.6v9.7h-1.3l-0.1-1.2H552c-0.5,0.2-0.9,0.4-1.3,0.6c-0.4,0.2-0.7,0.3-1,0.4
			c-0.3,0.1-0.6,0.2-0.9,0.2C548.4,320.9,548.1,321,547.8,321z"/>
		<path class="st5" d="M556.2,311.1h1.3l0.1,1.3h0.1c0.7-0.4,1.3-0.7,1.9-1s1.1-0.4,1.6-0.5h0.5v1.5h-0.6c-0.5,0.1-1.1,0.2-1.7,0.4
			c-0.6,0.2-1.1,0.5-1.6,0.7v7.2h-1.6V311.1z"/>
		<path class="st5" d="M564.1,309.1c-0.6,0-1-0.3-1-1c0-0.6,0.3-1,1-1c0.7,0,1,0.3,1,1C565.1,308.7,564.8,309.1,564.1,309.1z
			 M563.3,311.1h1.6v9.7h-1.6V311.1z"/>
		<path class="st5" d="M571.4,321c-0.9,0-1.6-0.2-2.1-0.7c-0.5-0.5-0.7-1.2-0.7-2.1v-5.7h-2v-1.4h2.1l0.2-2.4l1.2-0.2v2.6h2.9v1.4
			h-2.9v5.4c0,0.6,0.1,1.1,0.4,1.3c0.3,0.3,0.7,0.4,1.3,0.4c0.2,0,0.4,0,0.6,0c0.2,0,0.4-0.1,0.7-0.2v1.3c-0.3,0.1-0.6,0.1-0.9,0.2
			C571.9,320.9,571.6,321,571.4,321z"/>
		<path class="st5" d="M576.2,324.5l0-0.2l1.5-3.6l-4-9.5v-0.2h1.7l2.6,6.6l0.4,1.4h0.1l0.4-1.4l2.7-6.6h1.6v0.2l-5.7,13.5
			L576.2,324.5z"/>
		<path class="st5" d="M592.1,321c-0.9,0-1.6-0.2-2.1-0.7c-0.5-0.5-0.7-1.2-0.7-2.1v-5.7h-2v-1.4h2.1l0.2-2.4l1.2-0.2v2.6h2.9v1.4
			h-2.9v5.4c0,0.6,0.1,1.1,0.4,1.3c0.3,0.3,0.7,0.4,1.3,0.4c0.2,0,0.4,0,0.6,0s0.4-0.1,0.7-0.2v1.3c-0.3,0.1-0.6,0.1-0.9,0.2
			S592.4,321,592.1,321z"/>
		<path class="st5" d="M597.5,320.9c-0.8,0-1.5-0.2-1.9-0.7c-0.4-0.4-0.7-1.1-0.7-1.9c0-0.9,0.3-1.7,0.9-2.1
			c0.6-0.5,1.5-0.8,2.8-0.9l2.3-0.2v-0.7c0-0.4,0-0.8-0.1-1.1s-0.2-0.5-0.4-0.7c-0.2-0.2-0.4-0.3-0.7-0.4c-0.3-0.1-0.7-0.1-1.2-0.1
			c-0.4,0-0.8,0-1.3,0.1c-0.5,0-1,0.1-1.5,0.2l-0.1-1.2c0.6-0.1,1.2-0.2,1.7-0.3c0.5-0.1,1-0.1,1.6-0.1c1.3,0,2.2,0.3,2.8,0.8
			c0.6,0.5,0.9,1.3,0.9,2.4v6.6h-1.3l-0.2-1.2h-0.1c-0.6,0.4-1.2,0.7-1.7,1C598.6,320.8,598.1,320.9,597.5,320.9z M598.1,319.7
			c0.4,0,0.9-0.1,1.4-0.3c0.5-0.2,1-0.5,1.5-0.8v-2.4l-1.9,0.2c-0.9,0.1-1.6,0.3-2,0.5c-0.4,0.3-0.6,0.7-0.6,1.4
			C596.5,319.2,597,319.7,598.1,319.7z"/>
		<path class="st5" d="M607.9,321c-0.4,0-0.9,0-1.4-0.1c-0.5-0.1-1.1-0.2-1.9-0.3v-1.3c0.6,0.1,1.2,0.3,1.7,0.4s1,0.1,1.5,0.1
			c0.7,0,1.3-0.1,1.6-0.4c0.4-0.3,0.5-0.7,0.5-1.2c0-0.3,0-0.5-0.1-0.7c-0.1-0.2-0.2-0.3-0.4-0.5c-0.2-0.1-0.4-0.2-0.6-0.3
			s-0.5-0.1-0.8-0.2c-0.4-0.1-0.8-0.2-1.1-0.2s-0.7-0.2-1-0.4c-0.3-0.2-0.6-0.5-0.8-0.8c-0.2-0.3-0.3-0.8-0.3-1.4
			c0-0.9,0.3-1.6,0.9-2.1s1.5-0.7,2.6-0.7c0.2,0,0.4,0,0.6,0c0.2,0,0.4,0,0.6,0.1c0.2,0,0.5,0.1,0.7,0.1c0.3,0,0.6,0.1,0.9,0.2
			l-0.1,1.3c-0.6-0.1-1.1-0.2-1.5-0.3c-0.4-0.1-0.8-0.1-1.1-0.1c-1.5,0-2.2,0.5-2.2,1.5c0,0.3,0.1,0.5,0.2,0.7
			c0.1,0.2,0.3,0.3,0.5,0.5c0.2,0.1,0.4,0.2,0.7,0.3s0.6,0.1,0.9,0.2c0.4,0.1,0.8,0.2,1.2,0.3c0.4,0.1,0.7,0.3,1,0.5
			c0.3,0.2,0.5,0.5,0.6,0.8c0.2,0.3,0.2,0.7,0.2,1.2c0,0.9-0.3,1.6-0.9,2.1C610,320.7,609.1,321,607.9,321z"/>
		<path class="st5" d="M613.6,306.2h1.6v9h1.7l3.3-4.2h1.8l-3.6,4.6l-0.3,0.1v0.1l0.3,0.2l3.9,4.8h-1.8l-3.6-4.4h-1.6v4.4h-1.6
			V306.2z"/>
		<path class="st5" d="M626.3,321c-0.4,0-0.9,0-1.4-0.1c-0.5-0.1-1.1-0.2-1.9-0.3v-1.3c0.6,0.1,1.2,0.3,1.7,0.4s1,0.1,1.5,0.1
			c0.7,0,1.3-0.1,1.6-0.4c0.4-0.3,0.5-0.7,0.5-1.2c0-0.3,0-0.5-0.1-0.7c-0.1-0.2-0.2-0.3-0.4-0.5c-0.2-0.1-0.4-0.2-0.6-0.3
			s-0.5-0.1-0.8-0.2c-0.4-0.1-0.8-0.2-1.1-0.2s-0.7-0.2-1-0.4c-0.3-0.2-0.6-0.5-0.8-0.8c-0.2-0.3-0.3-0.8-0.3-1.4
			c0-0.9,0.3-1.6,0.9-2.1s1.5-0.7,2.6-0.7c0.2,0,0.4,0,0.6,0c0.2,0,0.4,0,0.6,0.1c0.2,0,0.5,0.1,0.7,0.1c0.3,0,0.6,0.1,0.9,0.2
			l-0.1,1.3c-0.6-0.1-1.1-0.2-1.5-0.3c-0.4-0.1-0.8-0.1-1.1-0.1c-1.5,0-2.2,0.5-2.2,1.5c0,0.3,0.1,0.5,0.2,0.7
			c0.1,0.2,0.3,0.3,0.5,0.5c0.2,0.1,0.4,0.2,0.7,0.3s0.6,0.1,0.9,0.2c0.4,0.1,0.8,0.2,1.2,0.3c0.4,0.1,0.7,0.3,1,0.5
			c0.3,0.2,0.5,0.5,0.6,0.8c0.2,0.3,0.2,0.7,0.2,1.2c0,0.9-0.3,1.6-0.9,2.1C628.4,320.7,627.5,321,626.3,321z"/>
	</g>
</g>
</svg>
