<?xml version="1.0" encoding="utf-8"?>
<!-- Generator: Adobe Illustrator 23.0.1, SVG Export Plug-In . SVG Version: 6.00 Build 0)  -->
<svg version="1.1" id="Layer_1" xmlns="http://www.w3.org/2000/svg" xmlns:xlink="http://www.w3.org/1999/xlink" x="0px" y="0px"
	 viewBox="0 0 1219.1 396.3" style="enable-background:new 0 0 1219.1 396.3;" xml:space="preserve">
<style type="text/css">
	.st0{fill:#063739;}
	.st1{fill:#0C6D72;}
	.st2{fill:#30721E;}
	.st3{fill:#F4F4F4;}
	.st4{fill:#E52033;}
	.st5{fill:#13A8BC;}
</style>
<g>
	<rect x="470.2" y="306.3" class="st0" width="207" height="90"/>
	<path class="st1" d="M676.2,307.3v88h-205v-88H676.2 M677.2,306.3h-207v90h207V306.3z"/>
	<rect x="187.9" y="95" class="st1" width="32.5" height="1"/>
	<polygon class="st1" points="218.9,100.4 227.6,95.5 218.9,90.5 	"/>
	<rect x="434.6" y="95" class="st1" width="36.5" height="1"/>
	<polygon class="st1" points="469.6,100.4 478.3,95.5 469.6,90.5 	"/>
	<rect x="896.2" y="50.5" class="st0" width="207" height="90"/>
	<path class="st1" d="M1102.2,51.5v88h-205v-88H1102.2 M1103.2,50.4h-207v90h207V50.4z"/>
	<circle class="st2" cx="151.9" cy="95.5" r="36"/>
	<path class="st3" d="M136.4,101.5c-0.3,0-0.6,0-1,0s-0.7-0.1-1.1-0.1c-0.4,0-0.7-0.1-1.1-0.2c-0.4-0.1-0.7-0.2-1.1-0.2v-1.4
		c0.7,0.2,1.4,0.3,2.2,0.4c0.6,0.1,1.3,0.2,2,0.2c0.8,0.1,1.7-0.1,2.4-0.6c0.5-0.4,0.9-1,0.8-1.7c0-0.3-0.1-0.7-0.2-1
		c-0.2-0.3-0.4-0.5-0.6-0.7c-0.3-0.2-0.6-0.4-1-0.5s-0.8-0.3-1.2-0.4c-0.6-0.2-1.2-0.4-1.8-0.6c-0.5-0.2-0.9-0.5-1.2-0.8
		s-0.6-0.7-0.7-1.1c-0.2-0.4-0.2-0.9-0.2-1.4s0.1-1,0.3-1.5s0.5-0.9,0.9-1.2s1-0.6,1.5-0.8c0.6-0.2,1.3-0.3,1.9-0.3
		c0.5,0,1.1,0,1.6,0.1c0.6,0.1,1.2,0.2,1.9,0.3l-0.1,1.3c-0.6-0.2-1.2-0.3-1.7-0.3c-0.5-0.1-1.1-0.1-1.6-0.1c-0.8,0-1.6,0.2-2.2,0.6
		c-0.5,0.4-0.8,1-0.8,1.7c0,0.3,0,0.6,0.2,0.9c0.1,0.3,0.3,0.5,0.5,0.7c0.3,0.2,0.6,0.4,0.9,0.6c0.5,0.2,0.9,0.4,1.4,0.5
		c0.6,0.2,1.1,0.3,1.6,0.5s0.9,0.4,1.3,0.7c0.4,0.3,0.6,0.7,0.8,1.1c0.2,0.5,0.3,1,0.3,1.6c0.1,1-0.4,2.1-1.2,2.7
		C138.9,101.3,137.6,101.6,136.4,101.5z"/>
	<path class="st3" d="M146.7,101.5c-0.8,0.1-1.5-0.2-2.1-0.7c-0.5-0.5-0.7-1.3-0.7-2V93h-2v-1.4h2.1l0.2-2.4l1.2-0.2v2.6h2.9V93
		h-2.9v5.4c0,0.5,0.1,1,0.4,1.3c0.3,0.3,0.8,0.5,1.3,0.4c0.2,0,0.4,0,0.6-0.1c0.2,0,0.5-0.1,0.7-0.2v1.3c-0.3,0.1-0.6,0.1-0.9,0.2
		C147.3,101.5,147,101.5,146.7,101.5z"/>
	<path class="st3" d="M152,101.4c-0.7,0-1.4-0.2-1.9-0.7s-0.7-1.2-0.7-1.9c0-0.8,0.3-1.6,0.9-2.1c0.8-0.6,1.8-0.9,2.8-0.9l2.3-0.2
		v-0.7c0-0.4,0-0.7-0.1-1.1c-0.1-0.3-0.2-0.5-0.4-0.7s-0.5-0.3-0.8-0.4c-0.4-0.1-0.8-0.1-1.2-0.1s-0.9,0-1.3,0.1
		c-0.5,0-1,0.1-1.5,0.2l-0.1-1.2c0.6-0.1,1.2-0.2,1.7-0.3s1-0.1,1.6-0.1c1-0.1,2,0.2,2.8,0.8c0.6,0.6,1,1.5,0.9,2.4v6.6h-1.3
		l-0.2-1.2h-0.1c-0.5,0.4-1.1,0.7-1.7,1C153.2,101.3,152.6,101.4,152,101.4z M152.6,100.2c0.5,0,1-0.1,1.4-0.3
		c0.5-0.2,1-0.5,1.5-0.8v-2.5l-1.9,0.2c-0.7,0-1.4,0.2-2,0.6c-0.4,0.3-0.6,0.8-0.6,1.4C151.1,99.7,151.6,100.2,152.6,100.2z"/>
	<path class="st3" d="M159.7,91.6h1.3l0.1,1.3h0.1c0.7-0.4,1.3-0.7,1.8-1s1-0.4,1.6-0.5h0.5v1.5h-0.6c-0.6,0.1-1.1,0.2-1.7,0.4
		c-0.6,0.2-1.1,0.5-1.6,0.7v7.2h-1.6L159.7,91.6L159.7,91.6L159.7,91.6z"/>
	<path class="st3" d="M170.5,101.5c-0.8,0.1-1.5-0.2-2.1-0.7c-0.5-0.5-0.8-1.3-0.7-2V93h-2v-1.4h2.1l0.2-2.4l1.2-0.2v2.6h2.9V93
		h-2.9v5.4c0,0.5,0.1,1,0.4,1.3s0.8,0.5,1.3,0.4c0.2,0,0.4,0,0.6-0.1c0.2,0,0.5-0.1,0.7-0.2v1.3c-0.3,0.1-0.6,0.1-0.9,0.2
		C171.1,101.5,170.8,101.5,170.5,101.5z"/>
	<rect x="753.2" y="68.4" class="st1" width="72" height="54"/>
	<path class="st3" d="M780,96.9l-4.9-8.9h1.7l3.3,6.2l0.5,1.2h0.2l0.5-1.2l3.4-6.2h1.7l-4.8,8.8v4.5H780V96.9z"/>
	<path class="st3" d="M790.4,101.5c-1.2,0.1-2.5-0.4-3.4-1.2c-0.8-1-1.2-2.3-1.1-3.7c-0.1-1.4,0.3-2.7,1.1-3.8
		c0.8-0.9,2-1.4,3.3-1.3c2.5,0,3.7,1.4,3.7,4.3c0,0.4,0,0.8-0.1,1.3h-6.4c0,0.9,0.3,1.8,0.8,2.4c0.6,0.5,1.4,0.8,2.3,0.7
		c0.5,0,1,0,1.5-0.1s1-0.2,1.5-0.4l0.1,1.2c-0.5,0.2-1,0.3-1.6,0.4S791,101.5,790.4,101.5z M790.2,92.6c-1.7,0-2.7,1.1-2.8,3.3h5.1
		c0.1-0.9-0.1-1.7-0.6-2.5C791.6,92.9,790.9,92.6,790.2,92.6z"/>
	<path class="st3" d="M798.9,101.5c-0.5,0-0.9,0-1.4-0.1s-1.1-0.2-1.9-0.3v-1.3c0.6,0.1,1.2,0.3,1.7,0.3c0.5,0.1,1,0.1,1.5,0.1
		c0.6,0,1.1-0.1,1.6-0.4c0.4-0.3,0.6-0.7,0.5-1.2c0-0.2,0-0.5-0.1-0.7s-0.2-0.4-0.4-0.5s-0.4-0.2-0.7-0.3s-0.5-0.2-0.8-0.2l-1.1-0.2
		c-0.4-0.1-0.7-0.2-1-0.4s-0.6-0.5-0.8-0.8c-0.2-0.4-0.3-0.9-0.3-1.4c0-0.8,0.4-1.5,1-2c0.8-0.5,1.7-0.8,2.6-0.7c0.2,0,0.4,0,0.6,0
		l0.6,0.1l0.7,0.1l0.9,0.2l-0.2,1.3c-0.6-0.1-1.1-0.2-1.5-0.3s-0.8-0.1-1.1-0.1c-1.5,0-2.2,0.5-2.2,1.5c0,0.2,0,0.5,0.2,0.7
		c0.1,0.2,0.3,0.3,0.5,0.5c0.2,0.1,0.5,0.2,0.7,0.3c0.3,0.1,0.6,0.1,0.9,0.2c0.4,0.1,0.8,0.2,1.2,0.3s0.7,0.3,1,0.5s0.5,0.5,0.6,0.8
		c0.2,0.4,0.2,0.8,0.2,1.2c0,0.8-0.3,1.6-1,2.1C800.8,101.3,799.9,101.6,798.9,101.5z"/>
	<rect x="227.6" y="50.5" class="st0" width="207" height="90"/>
	<path class="st1" d="M433.6,51.5v88h-205v-88H433.6 M434.6,50.5h-207v90h207V50.5z"/>
	<g>
		<circle class="st1" cx="151.9" cy="351.3" r="36"/>
		<path class="st3" d="M137.1,343.8h8.5v1.3h-6.9v4.6h6.4v1.4h-6.4v4.8h7v1.3h-8.6V343.8z"/>
		<path class="st3" d="M147.9,347.3h1.3l0.1,1.1h0.1l1.3-0.6c0.4-0.2,0.7-0.3,1.1-0.4c0.3-0.1,0.6-0.2,0.9-0.2s0.6-0.1,0.8-0.1
			c0.7,0,1.4,0.2,1.9,0.7s0.7,1.3,0.7,2v7.2h-1.6v-6.7c0-0.5-0.1-1-0.4-1.4c-0.3-0.3-0.8-0.5-1.2-0.4c-0.5,0-1.1,0.1-1.6,0.3
			c-0.7,0.2-1.3,0.5-1.9,0.8v7.5h-1.6L147.9,347.3L147.9,347.3z"/>
		<path class="st3" d="M162.3,357.3c-1.1,0.1-2.2-0.4-3-1.2c-0.8-1.1-1.1-2.4-1-3.8c0-0.8,0.1-1.5,0.3-2.3c0.2-0.6,0.6-1.1,1-1.6
			c0.4-0.4,0.9-0.8,1.5-1s1.3-0.3,2-0.3c0.4,0,0.8,0,1.2,0.1l1.1,0.1v-4.8h1.5V357h-1.4l-0.1-1.2h-0.1
			C164.5,356.8,163.4,357.3,162.3,357.3z M162.6,356c0.3,0,0.7-0.1,1-0.1c0.3-0.1,0.6-0.2,0.9-0.4c0.2-0.2,0.5-0.4,0.6-0.7
			c0.1-0.3,0.2-0.6,0.2-0.9v-5.2c-0.4-0.1-0.7-0.1-1.1-0.1s-0.8-0.1-1.2-0.1c-0.9-0.1-1.8,0.3-2.4,0.9c-0.6,0.9-0.9,1.9-0.8,2.9
			c-0.1,1,0.1,2,0.7,2.9C161,355.8,161.8,356.1,162.6,356L162.6,356z"/>
	</g>
	<rect x="537.7" y="213" class="st4" width="72" height="54"/>
	<path class="st3" d="M563,232.5h1.4l6.8,9.3l1,1.6h0.1v-10.9h1.5v13.3h-1.4l-6.9-9.3l-1-1.6h-0.1v10.8h-1.5L563,232.5L563,232.5z"
		/>
	<path class="st3" d="M580.7,246c-1.3,0.1-2.5-0.4-3.4-1.3c-1.5-2.3-1.5-5.2,0-7.5c1.9-1.7,4.8-1.7,6.7,0c1.5,2.3,1.5,5.2,0,7.5
		C583.2,245.6,581.9,246.1,580.7,246z M580.7,244.8c0.8,0.1,1.7-0.3,2.2-0.9c0.9-1.8,0.9-3.9,0-5.7c-1.2-1.2-3.2-1.2-4.4,0
		c-0.9,1.8-0.9,3.9,0,5.7C579,244.4,579.8,244.9,580.7,244.8L580.7,244.8z"/>
	<rect x="669.2" y="95" class="st1" width="76.8" height="1"/>
	<polygon class="st1" points="744.5,100.4 753.2,95.5 744.5,90.5 	"/>
	<rect x="825.2" y="95" class="st1" width="63.8" height="1"/>
	<polygon class="st1" points="887.5,100.4 896.2,95.5 887.5,90.5 	"/>
	<rect x="573.2" y="190.1" class="st1" width="1" height="15.6"/>
	<polygon class="st1" points="568.7,204.4 573.7,213 578.7,204.4 	"/>
	
		<rect x="506.2" y="28" transform="matrix(0.7071 -0.7071 0.7071 0.7071 100.5186 433.6294)" class="st0" width="135" height="135"/>
	<path class="st1" d="M573.7,1.4l94,94.1l-94,94l-94-94L573.7,1.4 M573.7,0.1l-95.5,95.4l95.5,95.5l95.5-95.5L573.7,0.1L573.7,0.1z"
		/>
	<path class="st3" d="M515.1,101.2l4.8-13.2h2.4l4.8,13.2v0.1h-1.6l-1.5-4h-6l-1.4,4L515.1,101.2L515.1,101.2L515.1,101.2z
		 M523.6,96l-1.6-4.5l-0.8-2.3h-0.1l-0.8,2.3l-1.6,4.5H523.6z"/>
	<path class="st3" d="M528.6,86.8h1.6v14.5h-1.6V86.8z"/>
	<path class="st3" d="M534.9,101.4c-0.7,0-1.4-0.2-1.9-0.7s-0.7-1.2-0.7-1.9c-0.1-0.8,0.3-1.6,0.9-2.1c0.8-0.6,1.8-0.9,2.8-0.9
		l2.3-0.2v-0.7c0-0.4,0-0.7-0.1-1.1c-0.1-0.3-0.2-0.5-0.4-0.7s-0.5-0.3-0.7-0.4c-0.4-0.1-0.8-0.1-1.2-0.1s-0.9,0-1.3,0.1
		c-0.5,0-1,0.1-1.5,0.2l-0.1-1.2c0.6-0.1,1.2-0.2,1.7-0.3s1-0.1,1.6-0.1c1-0.1,2,0.2,2.8,0.8c0.6,0.6,1,1.5,0.9,2.4v6.6h-1.3
		l-0.2-1.2h-0.1c-0.5,0.4-1.1,0.7-1.7,1C536.1,101.3,535.5,101.4,534.9,101.4z M535.5,100.2c0.5,0,1-0.1,1.4-0.3
		c0.5-0.2,1-0.5,1.5-0.8v-2.5l-1.9,0.2c-0.7,0-1.4,0.2-2,0.6c-0.4,0.3-0.6,0.8-0.6,1.4C533.9,99.7,534.4,100.2,535.5,100.2z"/>
	<path class="st3" d="M542.6,91.6h1.3l0.1,1.3h0.1c0.7-0.4,1.3-0.7,1.9-1c0.5-0.2,1-0.4,1.6-0.5h0.5v1.5h-0.6
		c-0.6,0.1-1.1,0.2-1.7,0.4c-0.6,0.2-1.1,0.5-1.6,0.7v7.2h-1.6V91.6z"/>
	<path class="st3" d="M549.6,91.6h1.3l0.1,1.1h0.1c0.6-0.4,1.3-0.7,2-1c0.5-0.2,1-0.3,1.6-0.3c1-0.1,1.9,0.4,2.3,1.3h0.1
		c0.6-0.4,1.3-0.7,2-1c0.5-0.2,1-0.3,1.6-0.3c0.7,0,1.4,0.2,1.9,0.7s0.7,1.3,0.7,2v7.2h-1.6v-6.7c0-0.5-0.1-1-0.4-1.4
		c-0.3-0.3-0.8-0.5-1.2-0.4c-0.4,0-0.9,0.1-1.3,0.3c-0.5,0.2-1,0.5-1.5,0.7v7.5h-1.6v-6.7c0-0.5-0.1-1-0.4-1.4
		c-0.3-0.3-0.8-0.5-1.2-0.4c-0.4,0-0.9,0.1-1.3,0.3c-0.5,0.2-1,0.5-1.5,0.8v7.5h-1.6L549.6,91.6L549.6,91.6z"/>
	<path class="st3" d="M570.8,89.6c-0.5,0.1-0.9-0.2-1-0.7c0-0.1,0-0.2,0-0.3c-0.1-0.5,0.2-0.9,0.7-1c0.1,0,0.2,0,0.3,0
		c0.7,0,1,0.3,1,1S571.5,89.6,570.8,89.6z M570,91.6h1.6v9.7H570V91.6z"/>
	<path class="st3" d="M577.1,101.5c-0.5,0-0.9,0-1.4-0.1s-1.1-0.2-1.9-0.3v-1.3c0.6,0.1,1.2,0.3,1.7,0.3c0.5,0.1,1,0.1,1.5,0.1
		c0.6,0,1.1-0.1,1.6-0.4c0.4-0.3,0.6-0.7,0.5-1.2c0-0.2,0-0.5-0.1-0.7s-0.2-0.4-0.4-0.5s-0.4-0.2-0.6-0.3c-0.3-0.1-0.5-0.1-0.8-0.2
		s-0.8-0.2-1.1-0.3c-0.4-0.1-0.7-0.2-1-0.4s-0.6-0.5-0.8-0.8c-0.2-0.4-0.3-0.9-0.3-1.4c0-0.8,0.3-1.6,0.9-2.1
		c0.8-0.5,1.7-0.8,2.6-0.7h0.6l0.6,0.1l0.7,0.1c0.3,0,0.6,0.1,0.9,0.2l-0.1,1.3c-0.6-0.1-1.1-0.2-1.5-0.3s-0.8-0.1-1.1-0.1
		c-1.5,0-2.2,0.5-2.2,1.5c0,0.2,0.1,0.5,0.2,0.7c0.1,0.2,0.3,0.4,0.5,0.5s0.5,0.2,0.7,0.3c0.3,0.1,0.6,0.1,0.9,0.2
		c0.4,0.1,0.8,0.2,1.2,0.3s0.7,0.3,1,0.5s0.5,0.5,0.6,0.8c0.2,0.4,0.2,0.8,0.2,1.2c0,0.8-0.3,1.6-0.9,2.1
		C579.1,101.3,578.1,101.6,577.1,101.5z"/>
	<path class="st3" d="M585.6,91.8v-0.2h1.6l2.5,7l0.4,1.5h0.2l0.4-1.5l2.5-7h1.6v0.2l-3.7,9.5h-2L585.6,91.8z"/>
	<path class="st3" d="M598.5,101.4c-0.7,0-1.4-0.2-1.9-0.7s-0.7-1.2-0.7-1.9c0-0.8,0.3-1.6,0.9-2.1c0.8-0.6,1.8-0.9,2.8-0.9l2.3-0.2
		v-0.7c0-0.4,0-0.7-0.1-1.1c-0.1-0.3-0.2-0.5-0.4-0.7s-0.5-0.3-0.8-0.4c-0.4-0.1-0.8-0.1-1.2-0.1s-0.9,0-1.3,0.1
		c-0.5,0-1,0.1-1.5,0.2l-0.1-1.2c0.6-0.1,1.2-0.2,1.7-0.3s1-0.1,1.6-0.1c1-0.1,2,0.2,2.8,0.8c0.6,0.6,1,1.5,0.9,2.4v6.6h-1.3
		L602,100h-0.1c-0.5,0.4-1.1,0.7-1.7,1S599.1,101.4,598.5,101.4z M599,100.2c0.5,0,1-0.1,1.4-0.3c0.5-0.2,1-0.5,1.5-0.8v-2.4
		l-1.9,0.2c-0.7,0-1.4,0.2-2,0.6c-0.4,0.3-0.6,0.8-0.6,1.4C597.5,99.7,598,100.2,599,100.2z"/>
	<path class="st3" d="M606.2,86.8h1.6v14.5h-1.6V86.8z"/>
	<path class="st3" d="M611.3,89.6c-0.5,0.1-0.9-0.2-1-0.7c0-0.1,0-0.2,0-0.3c-0.1-0.5,0.2-0.9,0.7-1c0.1,0,0.2,0,0.3,0
		c0.7,0,1,0.3,1,1S612,89.6,611.3,89.6z M610.5,91.6h1.6v9.7h-1.6V91.6z"/>
	<path class="st3" d="M618.4,101.5c-1.1,0.1-2.2-0.4-3-1.2c-0.8-1.1-1.1-2.4-1-3.8c0-0.8,0.1-1.5,0.3-2.3c0.2-0.6,0.6-1.1,1-1.6
		c0.4-0.4,0.9-0.8,1.5-1s1.3-0.3,2-0.3c0.4,0,0.8,0,1.2,0.1l1.1,0.1v-4.8h1.6v14.5h-1.4l-0.1-1.2h-0.1
		C620.7,101.1,619.6,101.6,618.4,101.5z M618.7,100.2c0.3,0,0.7-0.1,1-0.2s0.6-0.2,0.9-0.4c0.2-0.2,0.5-0.4,0.6-0.7s0.2-0.6,0.2-0.9
		v-5.2c-0.4-0.1-0.7-0.1-1.1-0.1c-0.4,0-0.8-0.1-1.2-0.1c-0.9-0.1-1.8,0.3-2.4,0.9c-0.6,0.8-0.9,1.9-0.8,2.9c-0.1,1,0.1,2,0.7,2.9
		C617.1,100,617.9,100.3,618.7,100.2L618.7,100.2z"/>
	<path class="st3" d="M627,97.8l-0.1-3.4c0.4-0.1,0.8-0.2,1.2-0.3s0.8-0.3,1.1-0.5s0.6-0.5,0.8-0.8c0.2-0.4,0.3-0.8,0.3-1.2
		s-0.1-0.8-0.2-1.1c-0.1-0.3-0.3-0.5-0.6-0.7c-0.2-0.2-0.5-0.3-0.8-0.4s-0.7-0.1-1-0.1c-0.4,0-0.9,0-1.3,0.1
		c-0.4,0.1-0.9,0.2-1.3,0.3l-0.1-1.2c0.5-0.1,1-0.3,1.5-0.3c0.5-0.1,1.1-0.1,1.6-0.1s1,0.1,1.5,0.2c0.4,0.1,0.9,0.3,1.2,0.6
		c0.4,0.3,0.6,0.7,0.8,1.1c0.2,0.5,0.3,1.1,0.3,1.7c0,1-0.4,2-1.1,2.7c-0.3,0.3-0.7,0.5-1.2,0.7c-0.4,0.2-0.8,0.3-1.3,0.4v2.6v0.3
		h-1.2L627,97.8z M627.6,101.3c-0.2,0-0.5-0.1-0.7-0.3s-0.3-0.4-0.3-0.7s0.1-0.5,0.3-0.7s0.4-0.3,0.7-0.2c0.3,0,0.5,0.1,0.7,0.2
		c0.2,0.2,0.3,0.4,0.3,0.7c0,0.2-0.1,0.5-0.3,0.7C628.1,101.3,627.9,101.4,627.6,101.3L627.6,101.3z"/>
	<g>
		<rect x="151.4" y="240.4" class="st1" width="1" height="70.3"/>
		<polygon class="st1" points="146.9,306.6 151.9,315.3 156.9,306.6 		"/>
		<rect x="151.9" y="239.5" class="st1" width="385.9" height="1"/>
	</g>
	<rect x="189.3" y="350.8" class="st1" width="283.9" height="1"/>
	<polygon class="st1" points="196.5,346.3 187.9,351.3 196.5,356.3 	"/>
	<rect x="678.6" y="350.8" class="st1" width="218.6" height="1"/>
	<polygon class="st1" points="685.8,346.3 677.2,351.3 685.8,356.3 	"/>
	<g>
		<rect x="999.2" y="139.4" class="st1" width="1" height="159.6"/>
		<polygon class="st1" points="994.7,297.6 999.7,306.3 1004.6,297.6 		"/>
	</g>
	<g>
		<g>
			<path class="st3" d="M256.9,76.6h1.7l3.3,9.2l0.9,2.6h0.1l0.9-2.6l3.3-9.2h1.7L263.9,90h-2.2L256.9,76.6z"/>
			<path class="st3" d="M271.4,90c-0.8,0-1.5-0.2-1.9-0.7c-0.4-0.4-0.7-1.1-0.7-1.9c0-0.9,0.3-1.6,0.9-2.1s1.5-0.8,2.8-0.9l2.3-0.2
				v-0.7c0-0.4,0-0.8-0.1-1.1s-0.2-0.5-0.4-0.7c-0.2-0.2-0.4-0.3-0.7-0.4c-0.3-0.1-0.7-0.1-1.2-0.1c-0.4,0-0.8,0-1.3,0.1
				c-0.5,0-1,0.1-1.5,0.2l-0.1-1.2c0.6-0.1,1.2-0.2,1.7-0.3s1-0.1,1.6-0.1c1.3,0,2.2,0.3,2.8,0.8s0.9,1.3,0.9,2.4V90h-1.3l-0.2-1.2
				h-0.1c-0.6,0.4-1.2,0.7-1.7,1S272,90,271.4,90z M272,88.8c0.4,0,0.9-0.1,1.4-0.3s1-0.5,1.5-0.8v-2.4l-1.9,0.2
				c-0.9,0.1-1.6,0.3-2,0.5c-0.4,0.3-0.6,0.7-0.6,1.4C270.4,88.3,271,88.8,272,88.8z"/>
			<path class="st3" d="M279.1,75.4h1.6V90h-1.6V75.4z"/>
			<path class="st3" d="M284.3,78.2c-0.6,0-1-0.3-1-1c0-0.6,0.3-1,1-1s1,0.3,1,1S284.9,78.2,284.3,78.2z M283.5,80.2h1.6V90h-1.6
				V80.2z"/>
			<path class="st3" d="M291.3,90.1c-1.3,0-2.3-0.4-3-1.2s-1-2.1-1-3.8c0-0.9,0.1-1.6,0.3-2.3c0.2-0.6,0.6-1.2,1-1.6s0.9-0.7,1.5-1
				c0.6-0.2,1.3-0.3,2-0.3c0.4,0,0.8,0,1.2,0.1c0.4,0,0.7,0.1,1.1,0.1v-4.8h1.6V90h-1.4l-0.1-1.2h-0.1
				C293.7,89.7,292.7,90.1,291.3,90.1z M291.7,88.9c0.4,0,0.7-0.1,1-0.2s0.6-0.2,0.9-0.4s0.5-0.4,0.6-0.7s0.2-0.6,0.2-0.9v-5.2
				c-0.3-0.1-0.7-0.1-1.1-0.1s-0.8-0.1-1.2-0.1c-1.1,0-1.8,0.3-2.4,0.9c-0.5,0.6-0.8,1.6-0.8,2.9c0,1.4,0.2,2.3,0.7,2.9
				C290,88.6,290.7,88.9,291.7,88.9z"/>
			<path class="st3" d="M300.6,90c-0.8,0-1.5-0.2-1.9-0.7c-0.4-0.4-0.7-1.1-0.7-1.9c0-0.9,0.3-1.6,0.9-2.1s1.5-0.8,2.8-0.9l2.3-0.2
				v-0.7c0-0.4,0-0.8-0.1-1.1s-0.2-0.5-0.4-0.7c-0.2-0.2-0.4-0.3-0.7-0.4c-0.3-0.1-0.7-0.1-1.2-0.1c-0.4,0-0.8,0-1.3,0.1
				c-0.5,0-1,0.1-1.5,0.2l-0.1-1.2c0.6-0.1,1.2-0.2,1.7-0.3s1-0.1,1.6-0.1c1.3,0,2.2,0.3,2.8,0.8s0.9,1.3,0.9,2.4V90h-1.3l-0.2-1.2
				h-0.1c-0.6,0.4-1.2,0.7-1.7,1S301.2,90,300.6,90z M301.2,88.8c0.4,0,0.9-0.1,1.4-0.3s1-0.5,1.5-0.8v-2.4l-1.9,0.2
				c-0.9,0.1-1.6,0.3-2,0.5c-0.4,0.3-0.6,0.7-0.6,1.4C299.6,88.3,300.1,88.8,301.2,88.8z"/>
			<path class="st3" d="M311.9,90.1c-0.9,0-1.6-0.2-2.1-0.7s-0.7-1.2-0.7-2.1v-5.7h-2v-1.4h2.1l0.2-2.4l1.2-0.2v2.6h2.9v1.4h-2.9V87
				c0,0.6,0.1,1.1,0.4,1.4s0.7,0.4,1.3,0.4c0.2,0,0.4,0,0.6,0s0.4-0.1,0.7-0.2v1.3c-0.3,0.1-0.6,0.1-0.9,0.2
				C312.5,90.1,312.2,90.1,311.9,90.1z"/>
			<path class="st3" d="M319.4,90.1c-1.5,0-2.6-0.4-3.4-1.2s-1.1-2-1.1-3.7s0.4-2.9,1.1-3.8c0.8-0.9,1.8-1.3,3.3-1.3
				c2.5,0,3.7,1.4,3.7,4.3c0,0.6,0,1-0.1,1.3h-6.4c0.1,1.1,0.3,1.9,0.8,2.4s1.3,0.7,2.3,0.7c0.5,0,0.9,0,1.5-0.1
				c0.5-0.1,1-0.2,1.5-0.4l0.1,1.2c-0.5,0.2-1,0.3-1.6,0.4C320.5,90,319.9,90.1,319.4,90.1z M319.2,81.3c-1.7,0-2.7,1.1-2.8,3.3h5.1
				c0-1.2-0.2-2-0.6-2.5C320.6,81.5,320,81.3,319.2,81.3z"/>
			<path class="st3" d="M332.7,90.1c-0.9,0-1.6-0.2-2.1-0.7s-0.7-1.2-0.7-2.1v-5.7h-2v-1.4h2.1l0.2-2.4l1.2-0.2v2.6h2.9v1.4h-2.9V87
				c0,0.6,0.1,1.1,0.4,1.4s0.7,0.4,1.3,0.4c0.2,0,0.4,0,0.6,0s0.4-0.1,0.7-0.2v1.3c-0.3,0.1-0.6,0.1-0.9,0.2
				C333.2,90.3,333,90.1,332.7,90.1z"/>
			<path class="st3" d="M336.2,75.4h1.6v5.9c0.9-0.4,1.7-0.8,2.3-1s1.2-0.3,1.8-0.3c0.8,0,1.5,0.2,1.9,0.7c0.4,0.4,0.7,1.1,0.7,2V90
				h-1.6v-6.7c0-0.7-0.1-1.1-0.4-1.4s-0.6-0.4-1.2-0.4c-0.5,0-1,0.1-1.6,0.3s-1.2,0.4-1.9,0.8V90h-1.6L336.2,75.4L336.2,75.4z"/>
			<path class="st3" d="M351.1,90.1c-1.5,0-2.6-0.4-3.4-1.2s-1.1-2-1.1-3.7s0.4-2.9,1.1-3.8c0.8-0.9,1.8-1.3,3.3-1.3
				c2.5,0,3.7,1.4,3.7,4.3c0,0.6,0,1-0.1,1.3h-6.4c0.1,1.1,0.3,1.9,0.8,2.4s1.3,0.7,2.3,0.7c0.5,0,0.9,0,1.5-0.1
				c0.5-0.1,1-0.2,1.5-0.4l0.1,1.2c-0.5,0.2-1,0.3-1.6,0.4C352.2,90,351.6,90.1,351.1,90.1z M350.9,81.3c-1.7,0-2.7,1.1-2.8,3.3h5.1
				c0-1.2-0.2-2-0.6-2.5C352.3,81.5,351.7,81.3,350.9,81.3z"/>
			<path class="st3" d="M363,90c-0.8,0-1.5-0.2-1.9-0.7c-0.4-0.4-0.7-1.1-0.7-1.9c0-0.9,0.3-1.6,0.9-2.1s1.5-0.8,2.8-0.9l2.3-0.2
				v-0.7c0-0.4,0-0.8-0.1-1.1s-0.2-0.5-0.4-0.7c-0.2-0.2-0.4-0.3-0.7-0.4c-0.3-0.1-0.7-0.1-1.2-0.1c-0.4,0-0.8,0-1.3,0.1
				c-0.5,0-1,0.1-1.5,0.2l-0.1-1.2c0.6-0.1,1.2-0.2,1.7-0.3s1-0.1,1.6-0.1c1.3,0,2.2,0.3,2.8,0.8s0.9,1.3,0.9,2.4V90h-1.3l-0.2-1.2
				h-0.1c-0.6,0.4-1.2,0.7-1.7,1S363.6,90,363,90z M363.6,88.8c0.4,0,0.9-0.1,1.4-0.3s1-0.5,1.5-0.8v-2.4l-1.9,0.2
				c-0.9,0.1-1.6,0.3-2,0.5c-0.4,0.3-0.6,0.7-0.6,1.4C362,88.3,362.5,88.8,363.6,88.8z"/>
			<path class="st3" d="M370.7,75.4h1.6V90h-1.6V75.4L370.7,75.4z"/>
			<path class="st3" d="M377,90c-0.8,0-1.5-0.2-1.9-0.7c-0.4-0.4-0.7-1.1-0.7-1.9c0-0.9,0.3-1.6,0.9-2.1s1.5-0.8,2.8-0.9l2.3-0.2
				v-0.7c0-0.4,0-0.8-0.1-1.1s-0.2-0.5-0.4-0.7c-0.2-0.2-0.4-0.3-0.7-0.4c-0.3-0.1-0.7-0.1-1.2-0.1c-0.4,0-0.8,0-1.3,0.1
				c-0.5,0-1,0.1-1.5,0.2l-0.1-1.2c0.6-0.1,1.2-0.2,1.7-0.3s1-0.1,1.6-0.1c1.3,0,2.2,0.3,2.8,0.8c0.6,0.5,0.9,1.3,0.9,2.4V90h-1.3
				l-0.2-1.2h-0.1c-0.6,0.4-1.2,0.7-1.7,1S377.6,90,377,90z M377.6,88.8c0.4,0,0.9-0.1,1.4-0.3s1-0.5,1.5-0.8v-2.4l-1.9,0.2
				c-0.9,0.1-1.6,0.3-2,0.5c-0.4,0.3-0.6,0.7-0.6,1.4C376,88.3,376.5,88.8,377.6,88.8z"/>
			<path class="st3" d="M384.7,80.2h1.3l0.1,1.3h0.1c0.7-0.4,1.3-0.7,1.9-1s1.1-0.4,1.6-0.5h0.5v1.5h-0.6c-0.5,0.1-1.1,0.2-1.7,0.4
				s-1.1,0.5-1.6,0.7V90h-1.6L384.7,80.2L384.7,80.2z"/>
			<path class="st3" d="M391.7,80.2h1.3l0.1,1.1h0.1c0.8-0.5,1.4-0.8,2-1s1.1-0.3,1.6-0.3c1.2,0,1.9,0.4,2.3,1.3h0.1
				c0.8-0.5,1.4-0.8,2-1s1.1-0.3,1.6-0.3c0.8,0,1.5,0.2,1.9,0.7c0.4,0.4,0.7,1.1,0.7,2V90h-1.6v-6.7c0-0.7-0.1-1.1-0.4-1.4
				s-0.7-0.4-1.2-0.4c-0.4,0-0.8,0.1-1.3,0.3s-1,0.4-1.5,0.7V90h-1.6v-6.7c0-0.7-0.1-1.1-0.4-1.4s-0.7-0.4-1.2-0.4
				c-0.4,0-0.8,0.1-1.3,0.3s-1,0.4-1.5,0.8V90h-1.6v-9.8H391.7L391.7,80.2z"/>
			<path class="st3" d="M301.1,102v-0.2h1.6l2.5,7l0.4,1.5h0.2l0.4-1.5l2.5-7h1.6v0.2l-3.7,9.5h-2.1L301.1,102z"/>
			<path class="st3" d="M312.9,99.8c-0.6,0-1-0.3-1-1c0-0.6,0.3-1,1-1s1,0.3,1,1S313.6,99.8,312.9,99.8z M312.2,101.8h1.6v9.7h-1.6
				V101.8z"/>
			<path class="st3" d="M319.2,111.8c-0.4,0-0.9,0-1.4-0.1s-1.1-0.2-1.9-0.3V110c0.6,0.1,1.2,0.3,1.7,0.4s1,0.1,1.5,0.1
				c0.7,0,1.3-0.1,1.6-0.4c0.4-0.3,0.5-0.7,0.5-1.2c0-0.3,0-0.5-0.1-0.7s-0.2-0.3-0.4-0.5c-0.2-0.1-0.4-0.2-0.6-0.3
				s-0.5-0.1-0.8-0.2c-0.4-0.1-0.8-0.2-1.1-0.2c-0.4-0.1-0.7-0.2-1-0.4s-0.6-0.5-0.8-0.8c-0.2-0.3-0.3-0.8-0.3-1.4
				c0-0.9,0.3-1.6,0.9-2.1s1.5-0.7,2.6-0.7c0.2,0,0.4,0,0.6,0s0.4,0,0.6,0.1c0.2,0,0.5,0.1,0.7,0.1s0.6,0.1,0.9,0.2l-0.1,1.3
				c-0.6-0.1-1.1-0.2-1.5-0.3s-0.8-0.1-1.1-0.1c-1.5,0-2.2,0.5-2.2,1.5c0,0.3,0.1,0.5,0.2,0.7s0.3,0.3,0.5,0.5
				c0.2,0.1,0.4,0.2,0.7,0.3c0.3,0.1,0.6,0.1,0.9,0.2c0.4,0.1,0.8,0.2,1.2,0.3c0.4,0.1,0.7,0.3,1,0.5s0.5,0.5,0.6,0.8
				s0.2,0.7,0.2,1.2c0,0.9-0.3,1.6-0.9,2.1C321.3,111.5,320.4,111.8,319.2,111.8z"/>
			<path class="st3" d="M327.3,111.7c-1.6,0-2.5-0.9-2.5-2.7v-7.2h1.6v6.7c0,0.6,0.1,1.1,0.3,1.4c0.2,0.3,0.6,0.4,1.2,0.4
				s1.2-0.1,1.8-0.4c0.6-0.2,1.2-0.5,1.8-0.8v-7.4h1.6v9.7h-1.3l-0.1-1.2h-0.1c-0.5,0.2-0.9,0.4-1.3,0.6s-0.7,0.3-1,0.4
				s-0.6,0.2-0.9,0.2C328,111.7,327.7,111.7,327.3,111.7z"/>
			<path class="st3" d="M337.8,111.6c-0.8,0-1.5-0.2-1.9-0.7c-0.4-0.4-0.7-1.1-0.7-1.9c0-0.9,0.3-1.7,0.9-2.1
				c0.6-0.5,1.5-0.8,2.8-0.9l2.3-0.2v-0.7c0-0.4,0-0.8-0.1-1.1s-0.2-0.5-0.4-0.7c-0.2-0.2-0.4-0.3-0.7-0.4c-0.3-0.1-0.7-0.1-1.2-0.1
				c-0.4,0-0.8,0-1.3,0.1c-0.5,0-1,0.1-1.5,0.2l-0.1-1.2c0.6-0.1,1.2-0.2,1.7-0.3s1-0.1,1.6-0.1c1.3,0,2.2,0.3,2.8,0.8
				s0.9,1.3,0.9,2.4v6.6h-1.3l-0.2-1.2h-0.1c-0.6,0.4-1.2,0.7-1.7,1C338.9,111.5,338.3,111.6,337.8,111.6z M338.3,110.4
				c0.4,0,0.9-0.1,1.4-0.3s1-0.5,1.5-0.8v-2.4l-1.9,0.2c-0.9,0.1-1.6,0.3-2,0.5c-0.4,0.3-0.6,0.7-0.6,1.4
				C336.8,109.9,337.3,110.4,338.3,110.4z"/>
			<path class="st3" d="M345.5,97h1.6v14.5h-1.6V97z"/>
			<path class="st3" d="M349.8,97h1.6v14.5h-1.6V97z"/>
			<path class="st3" d="M355.6,115.2V115l1.5-3.6l-4-9.5v-0.2h1.7l2.6,6.6l0.4,1.4h0.1l0.4-1.4l2.7-6.6h1.6v0.2l-5.7,13.5
				L355.6,115.2z"/>
		</g>
	</g>
	<g>
		<g>
			<path class="st3" d="M939.4,90.1c-0.3,0-0.6,0-1,0c-0.3,0-0.7-0.1-1.1-0.1s-0.7-0.1-1.1-0.2c-0.4-0.1-0.7-0.1-1.1-0.2v-1.4
				c0.7,0.2,1.4,0.3,2.2,0.4c0.7,0.1,1.4,0.2,1.9,0.2c1,0,1.8-0.2,2.4-0.6c0.5-0.4,0.8-0.9,0.8-1.7c0-0.4-0.1-0.8-0.2-1
				c-0.2-0.3-0.4-0.5-0.6-0.7c-0.3-0.2-0.6-0.4-1-0.5s-0.8-0.3-1.2-0.4c-0.7-0.2-1.3-0.4-1.8-0.6s-0.9-0.5-1.2-0.8s-0.6-0.7-0.7-1.1
				c-0.2-0.4-0.2-0.9-0.2-1.4c0-0.6,0.1-1.1,0.3-1.5c0.2-0.5,0.5-0.8,0.9-1.2c0.4-0.3,0.9-0.6,1.4-0.7c0.6-0.2,1.2-0.3,1.9-0.3
				c0.5,0,1,0,1.6,0.1s1.2,0.2,1.9,0.4l-0.1,1.4c-0.6-0.2-1.2-0.3-1.7-0.4c-0.6-0.1-1.1-0.1-1.6-0.1c-0.9,0-1.7,0.2-2.2,0.6
				s-0.8,1-0.8,1.7c0,0.3,0.1,0.6,0.2,0.9c0.1,0.3,0.3,0.5,0.5,0.7s0.6,0.4,0.9,0.5c0.4,0.2,0.9,0.3,1.4,0.5
				c0.6,0.2,1.1,0.3,1.6,0.5s0.9,0.4,1.3,0.7c0.4,0.3,0.6,0.7,0.8,1.1s0.3,0.9,0.3,1.5c0,1.2-0.4,2.1-1.2,2.7
				C942.1,89.8,941,90.1,939.4,90.1z"/>
			<path class="st3" d="M950.2,90.1c-1.5,0-2.6-0.4-3.4-1.2c-0.8-0.8-1.1-2-1.1-3.7s0.4-2.9,1.1-3.8c0.8-0.9,1.8-1.3,3.3-1.3
				c2.5,0,3.7,1.4,3.7,4.3c0,0.6,0,1-0.1,1.3h-6.4c0.1,1.1,0.3,1.9,0.8,2.4s1.3,0.7,2.3,0.7c0.5,0,0.9,0,1.5-0.1
				c0.5-0.1,1-0.2,1.5-0.4l0.1,1.2c-0.5,0.2-1,0.3-1.6,0.4S950.8,90.1,950.2,90.1z M950.1,81.3c-1.7,0-2.7,1.1-2.8,3.3h5.1
				c0-1.2-0.2-2-0.6-2.5C951.5,81.5,950.9,81.3,950.1,81.3z"/>
			<path class="st3" d="M956,80.2h1.3l0.1,1.1h0.1c0.5-0.2,0.9-0.4,1.3-0.6c0.4-0.2,0.8-0.3,1.1-0.4s0.6-0.2,0.9-0.2
				c0.3,0,0.6-0.1,0.8-0.1c0.8,0,1.5,0.2,1.9,0.7c0.4,0.4,0.7,1.1,0.7,2v7.2h-1.6v-6.7c0-0.7-0.1-1.1-0.4-1.4
				c-0.3-0.3-0.6-0.4-1.2-0.4c-0.5,0-1,0.1-1.6,0.3s-1.2,0.4-1.9,0.8V90h-1.6v-9.8H956L956,80.2z"/>
			<path class="st3" d="M970.4,90.1c-1.3,0-2.3-0.4-3-1.2s-1-2.1-1-3.8c0-0.9,0.1-1.6,0.3-2.3c0.2-0.6,0.6-1.2,1-1.6s0.9-0.7,1.5-1
				c0.6-0.2,1.3-0.3,2-0.3c0.4,0,0.8,0,1.2,0.1c0.4,0,0.7,0.1,1.1,0.1v-4.8h1.6v14.5h-1.4l-0.1-1.2h-0.1
				C972.8,89.7,971.8,90.1,970.4,90.1z M970.8,88.9c0.4,0,0.7-0.1,1-0.2s0.6-0.2,0.9-0.4c0.3-0.2,0.5-0.4,0.6-0.7s0.2-0.6,0.2-0.9
				v-5.2c-0.3-0.1-0.7-0.1-1.1-0.1s-0.8-0.1-1.2-0.1c-1.1,0-1.8,0.3-2.4,0.9c-0.5,0.6-0.8,1.6-0.8,2.9c0,1.4,0.2,2.3,0.7,2.9
				C969.1,88.6,969.8,88.9,970.8,88.9z"/>
			<path class="st3" d="M983.9,90c-0.8,0-1.5-0.2-1.9-0.7s-0.7-1.1-0.7-1.9c0-0.9,0.3-1.6,0.9-2.1s1.5-0.8,2.8-0.9l2.3-0.2v-0.7
				c0-0.4,0-0.8-0.1-1.1s-0.2-0.5-0.4-0.7s-0.4-0.3-0.7-0.4s-0.7-0.1-1.2-0.1c-0.4,0-0.8,0-1.3,0.1c-0.5,0-1,0.1-1.5,0.2l-0.1-1.2
				c0.6-0.1,1.2-0.2,1.7-0.3s1-0.1,1.6-0.1c1.3,0,2.2,0.3,2.8,0.8s0.9,1.3,0.9,2.4v6.6h-1.3l-0.2-1.2h-0.1c-0.6,0.4-1.2,0.7-1.7,1
				C985.1,89.9,984.5,90,983.9,90z M984.5,88.8c0.4,0,0.9-0.1,1.4-0.3s1-0.5,1.5-0.8v-2.4l-1.9,0.2c-0.9,0.1-1.6,0.3-2,0.5
				c-0.4,0.3-0.6,0.7-0.6,1.4C983,88.3,983.5,88.8,984.5,88.8z"/>
			<path class="st3" d="M991.6,80.2h1.3l0.1,1.1h0.1c0.5-0.2,0.9-0.4,1.3-0.6c0.4-0.2,0.7-0.3,1.1-0.4c0.3-0.1,0.6-0.2,0.9-0.2
				c0.3,0,0.6-0.1,0.8-0.1c0.8,0,1.5,0.2,1.9,0.7c0.4,0.4,0.7,1.1,0.7,2v7.2h-1.6v-6.7c0-0.7-0.1-1.1-0.4-1.4
				c-0.3-0.3-0.6-0.4-1.2-0.4c-0.5,0-1,0.1-1.6,0.3s-1.2,0.4-1.9,0.8V90h-1.6v-9.8H991.6L991.6,80.2z"/>
			<path class="st3" d="M1008.7,90c-0.8,0-1.5-0.2-1.9-0.7c-0.4-0.4-0.7-1.1-0.7-1.9c0-0.9,0.3-1.6,0.9-2.1s1.5-0.8,2.8-0.9l2.3-0.2
				v-0.7c0-0.4,0-0.8-0.1-1.1s-0.2-0.5-0.4-0.7s-0.4-0.3-0.7-0.4s-0.7-0.1-1.2-0.1c-0.4,0-0.8,0-1.3,0.1c-0.5,0-1,0.1-1.5,0.2
				l-0.1-1.2c0.6-0.1,1.2-0.2,1.7-0.3s1-0.1,1.6-0.1c1.3,0,2.2,0.3,2.8,0.8s0.9,1.3,0.9,2.4v6.6h-1.3l-0.2-1.2h-0.1
				c-0.6,0.4-1.2,0.7-1.7,1S1009.2,90,1008.7,90z M1009.2,88.8c0.4,0,0.9-0.1,1.4-0.3s1-0.5,1.5-0.8v-2.4l-1.9,0.2
				c-0.9,0.1-1.6,0.3-2,0.5c-0.4,0.3-0.6,0.7-0.6,1.4C1007.7,88.3,1008.2,88.8,1009.2,88.8z"/>
			<path class="st3" d="M1016.4,75.4h1.6v14.5h-1.6V75.4z"/>
			<path class="st3" d="M1024.7,90.1c-1.5,0-2.6-0.4-3.4-1.2c-0.8-0.8-1.1-2-1.1-3.7s0.4-2.9,1.1-3.8c0.8-0.9,1.8-1.3,3.3-1.3
				c2.5,0,3.7,1.4,3.7,4.3c0,0.6,0,1-0.1,1.3h-6.4c0.1,1.1,0.3,1.9,0.8,2.4s1.3,0.7,2.3,0.7c0.5,0,0.9,0,1.5-0.1
				c0.5-0.1,1-0.2,1.5-0.4l0.1,1.2c-0.5,0.2-1,0.3-1.6,0.4C1025.8,90,1025.2,90.1,1024.7,90.1z M1024.6,81.3c-1.7,0-2.7,1.1-2.8,3.3
				h5.1c0-1.2-0.2-2-0.6-2.5C1025.9,81.5,1025.3,81.3,1024.6,81.3z"/>
			<path class="st3" d="M1030.5,80.2h1.3l0.1,1.3h0.1c0.7-0.4,1.3-0.7,1.9-1s1.1-0.4,1.6-0.5h0.5v1.5h-0.6c-0.5,0.1-1.1,0.2-1.7,0.4
				s-1.1,0.5-1.6,0.7v7.2h-1.6L1030.5,80.2L1030.5,80.2z"/>
			<path class="st3" d="M1041.3,90.1c-0.9,0-1.6-0.2-2.1-0.7s-0.7-1.2-0.7-2.1v-5.7h-2v-1.4h2.1l0.2-2.4l1.2-0.2v2.6h2.9v1.4h-2.9
				V87c0,0.6,0.1,1.1,0.4,1.4s0.7,0.4,1.3,0.4c0.2,0,0.4,0,0.6,0s0.4-0.1,0.7-0.2v1.3c-0.3,0.1-0.6,0.1-0.9,0.2
				C1041.8,90.3,1041.6,90.1,1041.3,90.1z"/>
			<path class="st3" d="M1052.2,90.1c-0.9,0-1.6-0.2-2.1-0.7s-0.7-1.2-0.7-2.1v-5.7h-2v-1.4h2.1l0.2-2.4l1.2-0.2v2.6h2.9v1.4h-2.9
				V87c0,0.6,0.1,1.1,0.4,1.4s0.7,0.4,1.3,0.4c0.2,0,0.4,0,0.6,0s0.4-0.1,0.7-0.2v1.3c-0.3,0.1-0.6,0.1-0.9,0.2
				C1052.7,90.3,1052.5,90.1,1052.2,90.1z"/>
			<path class="st3" d="M1059.6,90.1c-1.5,0-2.6-0.4-3.3-1.3c-0.8-0.9-1.2-2.1-1.2-3.7s0.4-2.9,1.2-3.8c0.8-0.9,1.9-1.3,3.3-1.3
				s2.6,0.4,3.3,1.3c0.8,0.9,1.2,2.1,1.2,3.8s-0.4,2.9-1.2,3.8C1062.2,89.7,1061.1,90.1,1059.6,90.1z M1059.6,88.8
				c1,0,1.7-0.3,2.2-0.9s0.7-1.5,0.7-2.9s-0.2-2.3-0.7-2.9s-1.2-0.9-2.2-0.9s-1.7,0.3-2.2,0.9s-0.7,1.5-0.7,2.9s0.2,2.3,0.7,2.9
				S1058.6,88.8,1059.6,88.8z"/>
			<path class="st3" d="M940,111.7c-0.4,0-0.9,0-1.4-0.1s-1.1-0.2-1.9-0.3V110c0.6,0.1,1.2,0.3,1.7,0.4s1,0.1,1.5,0.1
				c0.7,0,1.3-0.1,1.6-0.4c0.4-0.3,0.5-0.7,0.5-1.2c0-0.3,0-0.5-0.1-0.7s-0.2-0.3-0.4-0.5c-0.2-0.1-0.4-0.2-0.6-0.3
				s-0.5-0.1-0.8-0.2c-0.4-0.1-0.8-0.2-1.1-0.2c-0.4-0.1-0.7-0.2-1-0.4s-0.6-0.5-0.8-0.8s-0.3-0.8-0.3-1.4c0-0.9,0.3-1.6,0.9-2.1
				s1.5-0.7,2.6-0.7c0.2,0,0.4,0,0.6,0c0.2,0,0.4,0,0.6,0.1c0.2,0,0.5,0.1,0.7,0.1c0.3,0,0.6,0.1,0.9,0.2l-0.1,1.3
				c-0.6-0.1-1.1-0.2-1.5-0.3s-0.8-0.1-1.1-0.1c-1.5,0-2.2,0.5-2.2,1.5c0,0.3,0.1,0.5,0.2,0.7c0.1,0.2,0.3,0.3,0.5,0.5
				c0.2,0.1,0.4,0.2,0.7,0.3s0.6,0.1,0.9,0.2c0.4,0.1,0.8,0.2,1.2,0.3s0.7,0.3,1,0.5s0.5,0.5,0.6,0.8c0.2,0.3,0.2,0.7,0.2,1.2
				c0,0.9-0.3,1.6-0.9,2.1S941.2,111.7,940,111.7z"/>
			<path class="st3" d="M949.8,111.7c-1.5,0-2.6-0.4-3.4-1.2c-0.8-0.8-1.1-2-1.1-3.7s0.4-2.9,1.1-3.8c0.8-0.9,1.8-1.3,3.3-1.3
				c2.5,0,3.7,1.4,3.7,4.3c0,0.6,0,1-0.1,1.3h-6.4c0.1,1.1,0.3,1.9,0.8,2.4s1.3,0.7,2.3,0.7c0.5,0,0.9,0,1.5-0.1
				c0.5-0.1,1-0.2,1.5-0.4l0.1,1.2c-0.5,0.2-1,0.3-1.6,0.4C950.9,111.6,950.3,111.7,949.8,111.7z M949.6,102.9
				c-1.7,0-2.7,1.1-2.8,3.3h5.1c0-1.2-0.2-2-0.6-2.5S950.4,102.9,949.6,102.9z"/>
			<path class="st3" d="M959.7,111.7c-3.1,0-4.6-1.7-4.6-5c0-3.4,1.5-5,4.6-5c0.4,0,0.8,0,1.2,0.1c0.4,0,0.8,0.1,1.1,0.2v1.3
				c-0.4-0.1-0.7-0.1-1.1-0.2c-0.4,0-0.7-0.1-1.1-0.1c-1.1,0-1.9,0.3-2.4,0.9s-0.8,1.5-0.8,2.8s0.2,2.2,0.7,2.8s1.3,0.9,2.4,0.9
				c0.4,0,0.8,0,1.1,0s0.7-0.1,1.1-0.2v1.3c-0.3,0.1-0.6,0.1-1.1,0.2C960.3,111.9,960.1,111.7,959.7,111.7z"/>
			<path class="st3" d="M966.5,111.7c-1.6,0-2.5-0.9-2.5-2.7v-7.2h1.6v6.7c0,0.6,0.1,1.1,0.3,1.4s0.6,0.4,1.2,0.4
				c0.6,0,1.2-0.1,1.8-0.4c0.6-0.2,1.2-0.5,1.8-0.8v-7.4h1.6v9.7H971l-0.1-1.2h-0.1c-0.5,0.2-0.9,0.4-1.3,0.6
				c-0.4,0.2-0.7,0.3-1,0.4s-0.6,0.2-0.9,0.2C967.2,111.7,966.9,111.7,966.5,111.7z"/>
			<path class="st3" d="M975,101.8h1.3l0.1,1.3h0.1c0.7-0.4,1.3-0.7,1.9-1c0.6-0.3,1.1-0.4,1.6-0.5h0.5v1.5h-0.6
				c-0.5,0.1-1.1,0.2-1.7,0.4c-0.6,0.2-1.1,0.5-1.6,0.7v7.2H975V101.8L975,101.8z"/>
			<path class="st3" d="M982.8,99.8c-0.6,0-1-0.3-1-1c0-0.6,0.3-1,1-1s1,0.3,1,1S983.5,99.8,982.8,99.8z M982.1,101.8h1.6v9.7h-1.6
				V101.8z"/>
			<path class="st3" d="M990.1,111.7c-0.9,0-1.6-0.2-2.1-0.7s-0.7-1.2-0.7-2.1v-5.7h-2v-1.4h2.1l0.2-2.4l1.2-0.2v2.6h2.9v1.4h-2.8
				v5.4c0,0.6,0.1,1.1,0.4,1.3c0.3,0.3,0.7,0.4,1.3,0.4c0.2,0,0.4,0,0.6,0s0.4-0.1,0.7-0.2v1.3c-0.3,0.1-0.6,0.1-0.9,0.2
				C990.7,111.7,990.4,111.7,990.1,111.7z"/>
			<path class="st3" d="M995,115.2V115l1.5-3.6l-4-9.5v-0.2h1.7l2.6,6.6l0.4,1.4h0.1l0.4-1.4l2.7-6.6h1.6v0.2l-5.7,13.5L995,115.2z"
				/>
			<path class="st3" d="M1010.9,115.5c-0.6,0-1.1,0-1.7-0.1c-0.6-0.1-1.1-0.2-1.5-0.3l0.1-1.2c0.4,0.1,0.9,0.2,1.4,0.3
				s1,0.1,1.5,0.1s1-0.1,1.4-0.2s0.8-0.3,1.1-0.6s0.5-0.6,0.7-1.1s0.3-1,0.3-1.7v-0.6h-0.1c-0.7,0.9-1.7,1.4-3,1.4s-2.3-0.4-3-1.2
				s-1-2-1-3.7c0-0.9,0.1-1.6,0.3-2.2s0.6-1.2,1-1.6s0.9-0.7,1.5-0.9s1.3-0.3,2-0.3c0.6,0,1.2,0,1.8,0.1s1.3,0.2,2,0.4v8.4
				c0,1-0.1,1.8-0.4,2.4c-0.3,0.6-0.6,1.1-1,1.5s-0.9,0.6-1.5,0.8C1012.2,115.5,1011.6,115.5,1010.9,115.5z M1011.4,110.3
				c0.4,0,0.7-0.1,1-0.2s0.6-0.2,0.9-0.4c0.2-0.2,0.4-0.4,0.6-0.7c0.1-0.3,0.2-0.6,0.2-0.9v-5c-0.3-0.1-0.7-0.1-1.1-0.1
				c-0.4,0-0.8-0.1-1.2-0.1c-1.1,0-1.8,0.3-2.4,0.9c-0.5,0.6-0.8,1.5-0.8,2.9c0,1.3,0.2,2.3,0.7,2.8
				C1009.7,110,1010.4,110.3,1011.4,110.3z"/>
			<path class="st3" d="M1020.8,111.7c-1.6,0-2.5-0.9-2.5-2.7v-7.2h1.6v6.7c0,0.6,0.1,1.1,0.3,1.4s0.6,0.4,1.2,0.4
				c0.6,0,1.2-0.1,1.8-0.4c0.6-0.2,1.2-0.5,1.8-0.8v-7.4h1.6v9.7h-1.3l-0.1-1.2h-0.1c-0.5,0.2-0.9,0.4-1.3,0.6
				c-0.4,0.2-0.7,0.3-1,0.4s-0.6,0.2-0.9,0.2C1021.5,111.7,1021.1,111.7,1020.8,111.7z"/>
			<path class="st3" d="M1031.2,111.6c-0.8,0-1.5-0.2-1.9-0.7c-0.4-0.4-0.7-1.1-0.7-1.9c0-0.9,0.3-1.7,0.9-2.1
				c0.6-0.5,1.5-0.8,2.8-0.9l2.3-0.2v-0.7c0-0.4,0-0.8-0.1-1.1s-0.2-0.5-0.4-0.7c-0.2-0.2-0.4-0.3-0.7-0.4c-0.3-0.1-0.7-0.1-1.2-0.1
				c-0.4,0-0.8,0-1.3,0.1c-0.5,0-1,0.1-1.5,0.2l-0.1-1.2c0.6-0.1,1.2-0.2,1.7-0.3s1-0.1,1.6-0.1c1.3,0,2.2,0.3,2.8,0.8
				s0.9,1.3,0.9,2.4v6.6h-1.4l-0.2-1.2h-0.1c-0.6,0.4-1.2,0.7-1.7,1C1032.3,111.5,1031.8,111.6,1031.2,111.6z M1031.8,110.4
				c0.4,0,0.9-0.1,1.4-0.3s1-0.5,1.5-0.8v-2.4l-1.9,0.2c-0.9,0.1-1.6,0.3-2,0.5c-0.4,0.3-0.6,0.7-0.6,1.4
				C1030.2,109.9,1030.7,110.4,1031.8,110.4z"/>
			<path class="st3" d="M1038.9,101.8h1.3l0.1,1.3h0.1c0.7-0.4,1.3-0.7,1.9-1s1.1-0.4,1.6-0.5h0.5v1.5h-0.6
				c-0.5,0.1-1.1,0.2-1.7,0.4s-1.1,0.5-1.6,0.7v7.2h-1.6L1038.9,101.8L1038.9,101.8z"/>
			<path class="st3" d="M1049,111.7c-1.3,0-2.3-0.4-3-1.2s-1-2.1-1-3.8c0-0.9,0.1-1.6,0.3-2.3c0.2-0.6,0.6-1.2,1-1.6s0.9-0.7,1.5-1
				c0.6-0.2,1.3-0.3,2-0.3c0.4,0,0.8,0,1.2,0.1c0.4,0,0.7,0.1,1.1,0.1V97h1.6v14.5h-1.4l-0.1-1.2h-0.1
				C1051.3,111.3,1050.3,111.7,1049,111.7z M1049.3,110.5c0.4,0,0.7-0.1,1-0.2s0.6-0.2,0.9-0.4s0.5-0.4,0.6-0.7s0.2-0.6,0.2-0.9
				v-5.2c-0.3-0.1-0.7-0.1-1.1-0.1s-0.8-0.1-1.2-0.1c-1.1,0-1.8,0.3-2.4,0.9s-0.8,1.6-0.8,2.9c0,1.4,0.2,2.3,0.7,2.9
				C1047.7,110.3,1048.4,110.5,1049.3,110.5z"/>
			<path class="st3" d="M1059.1,111.7c-0.4,0-0.9,0-1.4-0.1s-1.1-0.2-1.9-0.3V110c0.6,0.1,1.2,0.3,1.7,0.4s1,0.1,1.5,0.1
				c0.7,0,1.3-0.1,1.6-0.4c0.4-0.3,0.5-0.7,0.5-1.2c0-0.3,0-0.5-0.1-0.7s-0.2-0.3-0.4-0.5c-0.2-0.1-0.4-0.2-0.6-0.3
				s-0.5-0.1-0.8-0.2c-0.4-0.1-0.8-0.2-1.1-0.2c-0.3,0-0.7-0.2-1-0.4s-0.6-0.5-0.8-0.8c-0.2-0.3-0.3-0.8-0.3-1.4
				c0-0.9,0.3-1.6,0.9-2.1s1.5-0.7,2.6-0.7c0.2,0,0.4,0,0.6,0s0.4,0,0.6,0.1c0.2,0,0.5,0.1,0.7,0.1c0.3,0,0.6,0.1,0.9,0.2l-0.1,1.3
				c-0.6-0.1-1.1-0.2-1.5-0.3s-0.8-0.1-1.1-0.1c-1.5,0-2.2,0.5-2.2,1.5c0,0.3,0.1,0.5,0.2,0.7s0.3,0.3,0.5,0.5
				c0.2,0.1,0.4,0.2,0.7,0.3c0.3,0.1,0.6,0.1,0.9,0.2c0.4,0.1,0.8,0.2,1.2,0.3c0.4,0.1,0.7,0.3,1,0.5s0.5,0.5,0.6,0.8
				c0.2,0.3,0.2,0.7,0.2,1.2c0,0.9-0.3,1.6-0.9,2.1C1061.1,111.5,1060.2,111.7,1059.1,111.7z"/>
		</g>
	</g>
	<rect x="896.2" y="306.3" class="st0" width="207" height="90"/>
	<path class="st1" d="M1102.2,307.3v88h-205v-88H1102.2 M1103.2,306.3h-207v90h207V306.3z"/>
	<g>
		<path class="st3" d="M551,358.7c-4.1,0-6.2-2.3-6.2-6.8c0-2.3,0.5-4.1,1.5-5.2s2.6-1.7,4.6-1.7c0.4,0,0.9,0,1.4,0.1s1,0.1,1.6,0.2
			v1.7c-0.6-0.1-1.1-0.2-1.6-0.2c-0.4,0-0.8-0.1-1.2-0.1c-0.8,0-1.4,0.1-1.9,0.3c-0.5,0.2-1,0.5-1.3,0.9s-0.6,0.9-0.8,1.6
			s-0.2,1.4-0.2,2.3c0,1.8,0.3,3.1,1,3.9s1.7,1.2,3.2,1.2c0.2,0,0.4,0,0.7,0s0.5,0,0.8-0.1c0.3,0,0.5-0.1,0.8-0.1
			c0.2,0,0.5-0.1,0.6-0.1v1.7c-0.4,0.1-0.9,0.2-1.4,0.3C552,358.6,551.5,358.7,551,358.7z"/>
		<path class="st3" d="M558,358.6c-0.9,0-1.5-0.2-2-0.7s-0.7-1.1-0.7-2s0.3-1.7,0.9-2.2c0.6-0.5,1.5-0.8,2.8-0.9l2.3-0.2v-0.5
			c0-0.4,0-0.7-0.1-1s-0.2-0.5-0.4-0.6c-0.2-0.2-0.4-0.3-0.7-0.3c-0.3-0.1-0.7-0.1-1.1-0.1c-0.4,0-0.9,0-1.4,0.1s-1,0.1-1.6,0.2
			l-0.1-1.5c1.2-0.2,2.4-0.3,3.5-0.3c1.3,0,2.3,0.3,3,0.8c0.6,0.5,1,1.3,1,2.4v6.6h-1.7l-0.2-1.2h-0.1c-0.6,0.4-1.1,0.7-1.7,1
			C559.1,358.5,558.6,358.6,558,358.6z M558.8,357.1c0.4,0,0.8-0.1,1.3-0.3c0.4-0.2,0.9-0.4,1.3-0.7v-2.3l-1.7,0.2
			c-0.8,0.1-1.4,0.2-1.8,0.5s-0.5,0.6-0.5,1.2C557.4,356.6,557.8,357.1,558.8,357.1z"/>
		<path class="st3" d="M565.9,343.9h2v14.5h-2V343.9z"/>
		<path class="st3" d="M570.5,343.9h2v14.5h-2V343.9z"/>
		<path class="st3" d="M581.8,347.4L581.8,347.4l-3.1,1.4h-0.2l-0.3-1.2v-0.1l4.1-2.3h1.5v13.3h-2V347.4z"/>
		<path class="st3" d="M589.5,347.4L589.5,347.4l-3.1,1.4h-0.2l-0.3-1.2v-0.1l4.1-2.3h1.5v13.3h-2V347.4z"/>
		<path class="st3" d="M594,356.6c0-0.6,0.1-1.2,0.3-1.6c0.2-0.5,0.4-0.9,0.8-1.3s0.7-0.7,1.2-1.1c0.5-0.3,1-0.6,1.6-1
			c0.4-0.2,0.8-0.5,1.2-0.7c0.3-0.2,0.6-0.4,0.8-0.7c0.2-0.2,0.4-0.5,0.5-0.7c0.1-0.3,0.2-0.5,0.2-0.8c0-1.4-0.9-2.1-2.6-2.1
			c-0.5,0-1,0-1.6,0.1s-1.1,0.2-1.6,0.3l-0.2-1.7c0.8-0.2,1.5-0.3,2.1-0.4s1.2-0.1,1.7-0.1c1.5,0,2.5,0.3,3.2,0.9s1.1,1.5,1.1,2.7
			c0,0.5-0.1,0.9-0.2,1.3c-0.1,0.4-0.3,0.8-0.6,1.1c-0.3,0.3-0.6,0.7-1,1s-0.9,0.6-1.4,0.9s-0.9,0.6-1.3,0.8
			c-0.4,0.3-0.7,0.5-0.9,0.8c-0.3,0.3-0.4,0.5-0.6,0.8s-0.2,0.5-0.2,0.8v0.7h6.3v1.7H594V356.6z"/>
	</g>
	<g>
		<path class="st3" d="M925.6,332.6c1.2-0.2,2.4-0.3,3.5-0.3c2.2,0,3.8,0.4,4.8,1.1s1.5,1.9,1.5,3.6c0,1.6-0.5,2.8-1.5,3.6
			s-2.6,1.1-4.7,1.1c-0.2,0-0.5,0-0.7,0c-0.3,0-0.5,0-0.8,0v4.2h-2.1V332.6z M929.5,340c0.7,0,1.3-0.1,1.8-0.2s0.9-0.3,1.2-0.5
			s0.5-0.6,0.7-0.9s0.2-0.9,0.2-1.4s-0.1-1-0.2-1.4s-0.4-0.7-0.7-0.9c-0.3-0.2-0.7-0.4-1.2-0.5s-1.1-0.2-1.8-0.2c-0.3,0-0.6,0-1,0
			c-0.3,0-0.6,0.1-0.9,0.1v5.8c0.2,0,0.5,0.1,0.8,0.1C928.9,340,929.2,340,929.5,340z"/>
		<path class="st3" d="M937.3,331.3h2v14.5h-2V331.3z"/>
		<path class="st3" d="M944,345.9c-0.9,0-1.5-0.2-2-0.7s-0.7-1.1-0.7-2s0.3-1.7,0.9-2.2c0.6-0.5,1.5-0.8,2.8-0.9l2.3-0.2v-0.5
			c0-0.4,0-0.7-0.1-1s-0.2-0.5-0.4-0.6c-0.2-0.2-0.4-0.3-0.7-0.3c-0.3-0.1-0.7-0.1-1.1-0.1c-0.4,0-0.9,0-1.4,0.1s-1,0.1-1.6,0.2
			l-0.1-1.5c1.2-0.2,2.4-0.3,3.5-0.3c1.3,0,2.3,0.3,3,0.8c0.6,0.5,1,1.3,1,2.4v6.6h-1.7l-0.2-1.2h-0.1c-0.6,0.4-1.1,0.7-1.7,1
			C945.1,345.8,944.5,345.9,944,345.9z M944.7,344.4c0.4,0,0.8-0.1,1.3-0.3c0.4-0.2,0.9-0.4,1.3-0.7v-2.3l-1.7,0.2
			c-0.8,0.1-1.4,0.2-1.8,0.5s-0.5,0.6-0.5,1.2C943.3,344,943.8,344.4,944.7,344.4z"/>
		<path class="st3" d="M953.1,349.5v-0.2l1.5-3.6l-4-9.4v-0.2h2.1l2.3,6.1l0.5,1.5h0.1l0.5-1.5l2.4-6.1h2.1v0.2l-5.7,13.5
			L953.1,349.5z"/>
		<path class="st3" d="M964.5,336.2v-0.1h2l1.6,6.4l0.3,1.4h0.1l0.3-1.4l1.7-6.4h1.8l1.8,6.4l0.3,1.4h0.1l0.3-1.4l1.5-6.4h2v0.1
			l-2.6,9.6h-2.3l-1.7-6.1l-0.3-1.3h-0.1l-0.3,1.3l-1.7,6.1H967L964.5,336.2z"/>
		<path class="st3" d="M982.1,345.9c-0.9,0-1.5-0.2-2-0.7s-0.7-1.1-0.7-2s0.3-1.7,0.9-2.2c0.6-0.5,1.5-0.8,2.8-0.9l2.3-0.2v-0.5
			c0-0.4,0-0.7-0.1-1s-0.2-0.5-0.4-0.6c-0.2-0.2-0.4-0.3-0.7-0.3c-0.3-0.1-0.7-0.1-1.1-0.1c-0.4,0-0.9,0-1.4,0.1s-1,0.1-1.6,0.2
			l-0.1-1.5c1.2-0.2,2.4-0.3,3.5-0.3c1.3,0,2.3,0.3,3,0.8c0.6,0.5,1,1.3,1,2.4v6.6h-1.7l-0.2-1.2h-0.1c-0.6,0.4-1.1,0.7-1.7,1
			C983.2,345.8,982.6,345.9,982.1,345.9z M982.8,344.4c0.4,0,0.8-0.1,1.3-0.3c0.4-0.2,0.9-0.4,1.3-0.7v-2.3l-1.7,0.2
			c-0.8,0.1-1.4,0.2-1.8,0.5s-0.5,0.6-0.5,1.2C981.4,344,981.9,344.4,982.8,344.4z"/>
		<path class="st3" d="M989.9,336.1h1.7l0.1,1.4h0.1c0.6-0.4,1.2-0.7,1.8-1s1.1-0.5,1.6-0.6h0.6v1.8h-0.7c-0.5,0.1-1.1,0.2-1.6,0.4
			c-0.5,0.2-1.1,0.4-1.5,0.7v7h-2L989.9,336.1L989.9,336.1z"/>
		<path class="st3" d="M997.3,336.1h1.7l0.1,1.1h0.1c0.9-0.5,1.7-0.8,2.4-1c0.6-0.2,1.2-0.3,1.8-0.3c0.8,0,1.5,0.2,1.9,0.7
			c0.5,0.4,0.7,1.1,0.7,2v7.2h-2v-6.6c0-0.6-0.1-1-0.4-1.3c-0.2-0.3-0.6-0.4-1.1-0.4c-0.4,0-0.9,0.1-1.5,0.3s-1.1,0.4-1.8,0.7v7.3
			h-2L997.3,336.1L997.3,336.1z"/>
		<path class="st3" d="M1009.5,334.2c-0.4,0-0.7-0.1-0.9-0.3c-0.2-0.2-0.3-0.5-0.3-0.9s0.1-0.7,0.3-0.9c0.2-0.2,0.5-0.3,0.9-0.3
			s0.7,0.1,0.9,0.3c0.2,0.2,0.3,0.5,0.3,0.9s-0.1,0.7-0.3,0.9S1009.9,334.2,1009.5,334.2z M1008.5,336.1h2v9.7h-2V336.1z"/>
		<path class="st3" d="M1013.1,336.1h1.7l0.1,1.1h0.1c0.9-0.5,1.7-0.8,2.4-1c0.6-0.2,1.2-0.3,1.8-0.3c0.8,0,1.5,0.2,1.9,0.7
			c0.4,0.4,0.7,1.1,0.7,2v7.2h-2v-6.6c0-0.6-0.1-1-0.4-1.3c-0.2-0.3-0.6-0.4-1.1-0.4c-0.4,0-0.9,0.1-1.5,0.3
			c-0.6,0.2-1.1,0.4-1.8,0.7v7.3h-2L1013.1,336.1L1013.1,336.1z"/>
		<path class="st3" d="M1027.9,349.7c-0.6,0-1.2,0-1.8-0.1c-0.6-0.1-1.2-0.2-1.6-0.3l0.1-1.5c0.4,0.1,0.9,0.2,1.4,0.3
			c0.5,0.1,1,0.1,1.6,0.1c0.5,0,0.9-0.1,1.4-0.2s0.8-0.3,1.1-0.5c0.3-0.2,0.5-0.6,0.7-1s0.3-0.9,0.3-1.5v-0.7h-0.1
			c-0.7,0.9-1.7,1.4-3,1.4s-2.4-0.4-3-1.1c-0.7-0.8-1-2-1-3.6c0-0.9,0.1-1.6,0.4-2.2c0.2-0.6,0.6-1.2,1-1.6s1-0.7,1.6-0.9
			c0.6-0.2,1.3-0.3,2.1-0.3c0.6,0,1.2,0,1.8,0.1c0.7,0.1,1.4,0.2,2.3,0.5v8.3c0,1-0.1,1.8-0.4,2.4s-0.6,1.1-1.1,1.5s-1,0.7-1.6,0.8
			S1028.6,349.7,1027.9,349.7z M1028.3,344.2c0.4,0,0.7,0,1-0.1s0.6-0.2,0.8-0.4c0.2-0.2,0.4-0.4,0.5-0.7c0.1-0.3,0.2-0.6,0.2-0.9
			v-4.5c-0.3-0.1-0.6-0.1-1-0.1s-0.7-0.1-1.1-0.1c-1,0-1.7,0.3-2.2,0.8s-0.7,1.4-0.7,2.7c0,1.2,0.2,2.1,0.6,2.6
			C1026.8,343.9,1027.4,344.2,1028.3,344.2z"/>
		<path class="st3" d="M942.7,357.7h1.7l0.1,1.1h0.1c0.7-0.4,1.4-0.8,1.9-1s1.1-0.3,1.6-0.3c1.2,0,2,0.4,2.3,1.3h0.1
			c0.8-0.5,1.4-0.8,2-1s1.1-0.3,1.6-0.3c0.8,0,1.5,0.2,1.9,0.7c0.5,0.4,0.7,1.1,0.7,2v7.2h-2v-6.5c0-0.6-0.1-1-0.4-1.3
			s-0.6-0.4-1.1-0.4c-0.3,0-0.7,0.1-1.2,0.2c-0.4,0.2-0.9,0.4-1.4,0.6v7.3h-2v-6.5c0-0.6-0.1-1-0.3-1.3s-0.6-0.4-1.1-0.4
			c-0.3,0-0.7,0.1-1.2,0.3s-0.9,0.4-1.4,0.7v7.3h-2v-9.7H942.7z"/>
		<path class="st3" d="M963.5,367.6c-1.6,0-2.7-0.4-3.5-1.2c-0.8-0.8-1.2-2-1.2-3.7s0.4-2.9,1.2-3.8s1.9-1.3,3.4-1.3
			c2.6,0,3.9,1.4,3.9,4.3c0,0.6,0,1-0.1,1.3h-6.3c0.1,1,0.3,1.7,0.8,2.2c0.4,0.4,1.1,0.6,2.1,0.6c0.5,0,1,0,1.6-0.1s1.1-0.2,1.6-0.4
			l0.1,1.5c-0.5,0.2-1.1,0.3-1.7,0.4S964,367.6,963.5,367.6z M963.3,359c-0.8,0-1.4,0.2-1.8,0.7c-0.4,0.5-0.6,1.2-0.7,2.2h4.6
			c0-1.1-0.2-1.8-0.5-2.3C964.6,359.2,964,359,963.3,359z"/>
		<path class="st3" d="M972.3,367.6c-0.5,0-1,0-1.5-0.1c-0.6-0.1-1.2-0.2-1.9-0.3v-1.5c0.6,0.1,1.2,0.3,1.8,0.4s1.1,0.1,1.6,0.1
			c1.3,0,2-0.5,2-1.4c0-0.5-0.2-0.8-0.5-1s-0.8-0.4-1.4-0.5c-0.4-0.1-0.8-0.1-1.2-0.2s-0.8-0.2-1.1-0.4c-0.3-0.2-0.6-0.5-0.8-0.8
			c-0.2-0.4-0.3-0.8-0.3-1.4c0-0.9,0.3-1.6,1-2.1s1.6-0.8,2.8-0.8c0.2,0,0.4,0,0.6,0s0.4,0,0.7,0.1c0.2,0,0.5,0.1,0.8,0.1
			s0.6,0.1,1,0.2l-0.1,1.6c-0.6-0.1-1.2-0.2-1.6-0.3s-0.9-0.1-1.2-0.1c-0.7,0-1.2,0.1-1.5,0.3c-0.3,0.2-0.5,0.5-0.5,1
			c0,0.3,0.1,0.5,0.2,0.6c0.1,0.2,0.3,0.3,0.5,0.4s0.4,0.2,0.7,0.3c0.3,0.1,0.6,0.1,0.9,0.2c0.4,0.1,0.9,0.2,1.2,0.3s0.7,0.3,1,0.5
			s0.5,0.5,0.6,0.8s0.2,0.7,0.2,1.2c0,0.9-0.3,1.7-1,2.2C974.5,367.3,973.5,367.6,972.3,367.6z"/>
		<path class="st3" d="M981.1,367.6c-0.5,0-1,0-1.5-0.1c-0.6-0.1-1.2-0.2-1.9-0.3v-1.5c0.6,0.1,1.2,0.3,1.8,0.4s1.1,0.1,1.6,0.1
			c1.3,0,2-0.5,2-1.4c0-0.5-0.2-0.8-0.5-1s-0.8-0.4-1.4-0.5c-0.4-0.1-0.8-0.1-1.2-0.2s-0.8-0.2-1.1-0.4c-0.3-0.2-0.6-0.5-0.8-0.8
			c-0.2-0.4-0.3-0.8-0.3-1.4c0-0.9,0.3-1.6,1-2.1s1.6-0.8,2.8-0.8c0.2,0,0.4,0,0.6,0s0.4,0,0.7,0.1c0.2,0,0.5,0.1,0.8,0.1
			s0.6,0.1,1,0.2l-0.1,1.6c-0.6-0.1-1.2-0.2-1.6-0.3c-0.5-0.1-0.9-0.1-1.2-0.1c-0.7,0-1.2,0.1-1.5,0.3c-0.3,0.2-0.5,0.5-0.5,1
			c0,0.3,0.1,0.5,0.2,0.6s0.3,0.3,0.5,0.4s0.4,0.2,0.7,0.3c0.3,0.1,0.6,0.1,0.9,0.2c0.4,0.1,0.9,0.2,1.2,0.3s0.7,0.3,1,0.5
			s0.5,0.5,0.6,0.8c0.2,0.3,0.2,0.7,0.2,1.2c0,0.9-0.3,1.7-1,2.2C983.3,367.3,982.3,367.6,981.1,367.6z"/>
		<path class="st3" d="M989,367.5c-0.9,0-1.5-0.2-2-0.7s-0.7-1.1-0.7-2s0.3-1.7,0.9-2.2c0.6-0.5,1.5-0.8,2.8-0.9l2.3-0.2V361
			c0-0.4,0-0.7-0.1-1s-0.2-0.5-0.4-0.6c-0.2-0.2-0.4-0.3-0.7-0.3c-0.3-0.1-0.7-0.1-1.1-0.1c-0.4,0-0.9,0-1.4,0.1s-1,0.1-1.6,0.2
			l-0.1-1.5c1.2-0.2,2.4-0.3,3.5-0.3c1.3,0,2.3,0.3,3,0.8c0.6,0.5,1,1.3,1,2.4v6.6h-1.7l-0.2-1.2h-0.1c-0.6,0.4-1.1,0.7-1.7,1
			C990.1,367.4,989.6,367.5,989,367.5z M989.8,366c0.4,0,0.8-0.1,1.3-0.3c0.4-0.2,0.9-0.4,1.3-0.7v-2.3l-1.7,0.2
			c-0.8,0.1-1.4,0.2-1.8,0.5s-0.5,0.6-0.5,1.2C988.4,365.6,988.8,366,989.8,366z"/>
		<path class="st3" d="M1000.5,371.3c-0.6,0-1.2,0-1.8-0.1s-1.2-0.2-1.6-0.3l0.1-1.5c0.4,0.1,0.9,0.2,1.4,0.3s1,0.1,1.6,0.1
			c0.5,0,0.9-0.1,1.4-0.2s0.8-0.3,1.1-0.5s0.5-0.6,0.7-1s0.3-0.9,0.3-1.5v-0.7h-0.1c-0.7,0.9-1.7,1.4-3,1.4s-2.4-0.4-3-1.1
			c-0.7-0.8-1-2-1-3.6c0-0.9,0.1-1.6,0.4-2.2c0.2-0.6,0.6-1.2,1-1.6s1-0.7,1.6-0.9s1.3-0.3,2.1-0.3c0.6,0,1.2,0,1.8,0.1
			c0.7,0.1,1.4,0.2,2.3,0.5v8.3c0,1-0.1,1.8-0.4,2.4c-0.3,0.6-0.6,1.1-1.1,1.5s-1,0.7-1.6,0.8
			C1001.8,371.3,1001.1,371.3,1000.5,371.3z M1000.9,365.8c0.4,0,0.7,0,1-0.1s0.6-0.2,0.8-0.4c0.2-0.2,0.4-0.4,0.5-0.7
			c0.1-0.3,0.2-0.6,0.2-0.9v-4.5c-0.3-0.1-0.6-0.1-1-0.1s-0.7-0.1-1.1-0.1c-1,0-1.7,0.3-2.2,0.8s-0.7,1.4-0.7,2.7
			c0,1.2,0.2,2.1,0.6,2.6C999.4,365.5,1000,365.8,1000.9,365.8z"/>
		<path class="st3" d="M1012.2,367.6c-1.6,0-2.7-0.4-3.5-1.2c-0.8-0.8-1.2-2-1.2-3.7s0.4-2.9,1.2-3.8s1.9-1.3,3.4-1.3
			c2.6,0,3.9,1.4,3.9,4.3c0,0.6,0,1-0.1,1.3h-6.3c0.1,1,0.3,1.7,0.8,2.2s1.1,0.6,2.1,0.6c0.5,0,1,0,1.6-0.1s1.1-0.2,1.6-0.4l0.1,1.5
			c-0.5,0.2-1.1,0.3-1.7,0.4C1013.4,367.5,1012.8,367.6,1012.2,367.6z M1012,359c-0.8,0-1.4,0.2-1.8,0.7c-0.4,0.5-0.6,1.2-0.7,2.2
			h4.6c0-1.1-0.2-1.8-0.5-2.3C1013.3,359.2,1012.8,359,1012,359z"/>
	</g>
	<g>
		<path class="st5" d="M1091,328.9c-0.1-4-1.5-7.3-4.4-10.2c-0.9-0.9-1-1.5-0.5-2.1c0.6-0.6,1.2-0.4,2.1,0.5
			c6.7,6.7,6.6,17.3-0.3,23.8c-0.7,0.7-1.3,0.7-1.8,0.2s-0.4-1.2,0.3-1.8C1089.3,336.4,1090.9,333,1091,328.9z"/>
		<path class="st5" d="M1087.5,328.8c-0.1,2.4-0.8,4.5-2.4,6.2c-0.6,0.6-1.2,0.7-1.8,0.3c-0.5-0.5-0.5-1.1,0.1-1.8
			c2.5-2.8,2.5-6.5,0-9.4c-0.5-0.6-0.5-1.3-0.1-1.7c0.5-0.5,1.2-0.4,1.7,0.2C1086.6,324.3,1087.4,326.4,1087.5,328.8z"/>
		<path class="st5" d="M1079.5,328.9c0,3,0,6.1,0,9.1c0,1.5-0.7,2.8-1.9,3.2c-1.4,0.5-2.5,0.1-3.5-1c-1.4-1.5-2.9-2.9-4.2-4.4
			c-0.8-0.8-1.6-1.1-2.7-1.2c-1.1,0-2.1-0.1-3.2-0.2c-1.6-0.3-2.5-1.2-2.6-2.8c-0.1-1.9-0.1-3.7,0-5.6c0.1-1.7,1-2.6,2.6-2.8
			c1.1-0.2,2.2-0.2,3.3-0.2c0.9,0,1.7-0.3,2.4-1c1.5-1.6,3-3.1,4.5-4.6c1-1,2.1-1.3,3.4-0.9c1.2,0.4,1.9,1.6,1.9,3
			C1079.5,322.7,1079.5,325.8,1079.5,328.9z"/>
	</g>
</g>
</svg>
