<?xml version="1.0" encoding="utf-8"?>
<!-- Generator: Adobe Illustrator 25.0.1, SVG Export Plug-In . SVG Version: 6.00 Build 0)  -->
<svg version="1.1" id="Layer_1" xmlns="http://www.w3.org/2000/svg" xmlns:xlink="http://www.w3.org/1999/xlink" x="0px" y="0px"
	 viewBox="0 0 1219.1 396.3" style="enable-background:new 0 0 1219.1 396.3;" xml:space="preserve">
<style type="text/css">
	.st0{fill:#0C6D72;}
	.st1{fill:#063739;}
	.st2{fill:#30721E;}
	.st3{fill:#F4F4F4;}
	.st4{fill:#E52033;}
	.st5{fill:#FFFFFF;}
</style>
<rect x="187.9" y="95" class="st0" width="32.5" height="1"/>
<polygon class="st0" points="218.9,100.4 227.6,95.5 218.9,90.5 "/>
<rect x="434.6" y="95" class="st0" width="36.5" height="1"/>
<polygon class="st0" points="469.6,100.4 478.3,95.5 469.6,90.5 "/>
<rect x="896.2" y="50.5" class="st1" width="207" height="90"/>
<path class="st0" d="M1102.2,51.5v88h-205v-88H1102.2 M1103.2,50.4h-207v90h207V50.4z"/>
<circle class="st2" cx="151.9" cy="95.5" r="36"/>
<path class="st3" d="M136.4,101.5c-0.3,0-0.6,0-1,0s-0.7-0.1-1.1-0.1c-0.4,0-0.7-0.1-1.1-0.2c-0.4-0.1-0.7-0.2-1.1-0.2v-1.4
	c0.7,0.2,1.4,0.3,2.2,0.4c0.6,0.1,1.3,0.2,2,0.2c0.8,0.1,1.7-0.1,2.4-0.6c0.5-0.4,0.9-1,0.8-1.7c0-0.3-0.1-0.7-0.2-1
	c-0.2-0.3-0.4-0.5-0.6-0.7c-0.3-0.2-0.6-0.4-1-0.5s-0.8-0.3-1.2-0.4c-0.6-0.2-1.2-0.4-1.8-0.6c-0.5-0.2-0.9-0.5-1.2-0.8
	s-0.6-0.7-0.7-1.1c-0.2-0.4-0.2-0.9-0.2-1.4s0.1-1,0.3-1.5s0.5-0.9,0.9-1.2s1-0.6,1.5-0.8c0.6-0.2,1.3-0.3,1.9-0.3
	c0.5,0,1.1,0,1.6,0.1c0.6,0.1,1.2,0.2,1.9,0.3l-0.1,1.3c-0.6-0.2-1.2-0.3-1.7-0.3c-0.5-0.1-1.1-0.1-1.6-0.1c-0.8,0-1.6,0.2-2.2,0.6
	c-0.5,0.4-0.8,1-0.8,1.7c0,0.3,0,0.6,0.2,0.9c0.1,0.3,0.3,0.5,0.5,0.7c0.3,0.2,0.6,0.4,0.9,0.6c0.5,0.2,0.9,0.4,1.4,0.5
	c0.6,0.2,1.1,0.3,1.6,0.5s0.9,0.4,1.3,0.7c0.4,0.3,0.6,0.7,0.8,1.1c0.2,0.5,0.3,1,0.3,1.6c0.1,1-0.4,2.1-1.2,2.7
	C138.9,101.3,137.6,101.6,136.4,101.5z"/>
<path class="st3" d="M146.7,101.5c-0.8,0.1-1.5-0.2-2.1-0.7c-0.5-0.5-0.7-1.3-0.7-2V93h-2v-1.4h2.1l0.2-2.4l1.2-0.2v2.6h2.9V93h-2.9
	v5.4c0,0.5,0.1,1,0.4,1.3c0.3,0.3,0.8,0.5,1.3,0.4c0.2,0,0.4,0,0.6-0.1c0.2,0,0.5-0.1,0.7-0.2v1.3c-0.3,0.1-0.6,0.1-0.9,0.2
	C147.3,101.5,147,101.5,146.7,101.5z"/>
<path class="st3" d="M152,101.4c-0.7,0-1.4-0.2-1.9-0.7s-0.7-1.2-0.7-1.9c0-0.8,0.3-1.6,0.9-2.1c0.8-0.6,1.8-0.9,2.8-0.9l2.3-0.2
	v-0.7c0-0.4,0-0.7-0.1-1.1c-0.1-0.3-0.2-0.5-0.4-0.7s-0.5-0.3-0.8-0.4c-0.4-0.1-0.8-0.1-1.2-0.1s-0.9,0-1.3,0.1
	c-0.5,0-1,0.1-1.5,0.2l-0.1-1.2c0.6-0.1,1.2-0.2,1.7-0.3s1-0.1,1.6-0.1c1-0.1,2,0.2,2.8,0.8c0.6,0.6,1,1.5,0.9,2.4v6.6h-1.3
	l-0.2-1.2h-0.1c-0.5,0.4-1.1,0.7-1.7,1C153.2,101.3,152.6,101.4,152,101.4z M152.6,100.2c0.5,0,1-0.1,1.4-0.3c0.5-0.2,1-0.5,1.5-0.8
	v-2.5l-1.9,0.2c-0.7,0-1.4,0.2-2,0.6c-0.4,0.3-0.6,0.8-0.6,1.4C151.1,99.7,151.6,100.2,152.6,100.2z"/>
<path class="st3" d="M159.7,91.6h1.3l0.1,1.3h0.1c0.7-0.4,1.3-0.7,1.8-1s1-0.4,1.6-0.5h0.5v1.5h-0.6c-0.6,0.1-1.1,0.2-1.7,0.4
	c-0.6,0.2-1.1,0.5-1.6,0.7v7.2h-1.6L159.7,91.6L159.7,91.6L159.7,91.6z"/>
<path class="st3" d="M170.5,101.5c-0.8,0.1-1.5-0.2-2.1-0.7c-0.5-0.5-0.8-1.3-0.7-2V93h-2v-1.4h2.1l0.2-2.4l1.2-0.2v2.6h2.9V93h-2.9
	v5.4c0,0.5,0.1,1,0.4,1.3s0.8,0.5,1.3,0.4c0.2,0,0.4,0,0.6-0.1c0.2,0,0.5-0.1,0.7-0.2v1.3c-0.3,0.1-0.6,0.1-0.9,0.2
	C171.1,101.5,170.8,101.5,170.5,101.5z"/>
<rect x="773.4" y="68.4" class="st0" width="72" height="54"/>
<path class="st3" d="M800.2,96.9l-4.9-8.9h1.7l3.3,6.2l0.5,1.2h0.2l0.5-1.2l3.4-6.2h1.7l-4.8,8.8v4.5h-1.6L800.2,96.9z"/>
<path class="st3" d="M810.6,101.5c-1.2,0.1-2.5-0.4-3.4-1.2c-0.8-1-1.2-2.3-1.1-3.7c-0.1-1.4,0.3-2.7,1.1-3.8c0.8-0.9,2-1.4,3.3-1.3
	c2.5,0,3.7,1.4,3.7,4.3c0,0.4,0,0.8-0.1,1.3h-6.4c0,0.9,0.3,1.8,0.8,2.4c0.6,0.5,1.4,0.8,2.3,0.7c0.5,0,1,0,1.5-0.1s1-0.2,1.5-0.4
	l0.1,1.2c-0.5,0.2-1,0.3-1.6,0.4C811.7,101.4,811.2,101.5,810.6,101.5z M810.4,92.6c-1.7,0-2.7,1.1-2.8,3.3h5.1
	c0.1-0.9-0.1-1.7-0.6-2.5C811.8,92.9,811.1,92.6,810.4,92.6z"/>
<path class="st3" d="M819.1,101.5c-0.5,0-0.9,0-1.4-0.1s-1.1-0.2-1.9-0.3v-1.3c0.6,0.1,1.2,0.3,1.7,0.3c0.5,0.1,1,0.1,1.5,0.1
	c0.6,0,1.1-0.1,1.6-0.4c0.4-0.3,0.6-0.7,0.5-1.2c0-0.2,0-0.5-0.1-0.7s-0.2-0.4-0.4-0.5s-0.4-0.2-0.7-0.3s-0.5-0.2-0.8-0.2l-1.1-0.2
	c-0.4-0.1-0.7-0.2-1-0.4s-0.6-0.5-0.8-0.8c-0.2-0.4-0.3-0.9-0.3-1.4c0-0.8,0.4-1.5,1-2c0.8-0.5,1.7-0.8,2.6-0.7c0.2,0,0.4,0,0.6,0
	l0.6,0.1l0.7,0.1l0.9,0.2l-0.2,1.3c-0.6-0.1-1.1-0.2-1.5-0.3s-0.8-0.1-1.1-0.1c-1.5,0-2.2,0.5-2.2,1.5c0,0.2,0,0.5,0.2,0.7
	c0.1,0.2,0.3,0.3,0.5,0.5c0.2,0.1,0.5,0.2,0.7,0.3c0.3,0.1,0.6,0.1,0.9,0.2c0.4,0.1,0.8,0.2,1.2,0.3s0.7,0.3,1,0.5s0.5,0.5,0.6,0.8
	c0.2,0.4,0.2,0.8,0.2,1.2c0,0.8-0.3,1.6-1,2.1C821,101.3,820.1,101.6,819.1,101.5z"/>
<rect x="227.6" y="50.5" class="st1" width="207" height="90"/>
<path class="st0" d="M433.6,51.5v88h-205v-88H433.6 M434.6,50.5h-207v90h207V50.5z"/>
<g>
	<circle class="st0" cx="331.1" cy="351.3" r="36"/>
	<path class="st3" d="M316.3,343.8h8.5v1.3h-6.9v4.6h6.4v1.4h-6.4v4.8h7v1.3h-8.6V343.8z"/>
	<path class="st3" d="M327.1,347.3h1.3l0.1,1.1h0.1l1.3-0.6c0.4-0.2,0.7-0.3,1.1-0.4c0.3-0.1,0.6-0.2,0.9-0.2s0.6-0.1,0.8-0.1
		c0.7,0,1.4,0.2,1.9,0.7s0.7,1.3,0.7,2v7.2h-1.6v-6.7c0-0.5-0.1-1-0.4-1.4c-0.3-0.3-0.8-0.5-1.2-0.4c-0.5,0-1.1,0.1-1.6,0.3
		c-0.7,0.2-1.3,0.5-1.9,0.8v7.5H327L327.1,347.3L327.1,347.3z"/>
	<path class="st3" d="M341.5,357.3c-1.1,0.1-2.2-0.4-3-1.2c-0.8-1.1-1.1-2.4-1-3.8c0-0.8,0.1-1.5,0.3-2.3c0.2-0.6,0.6-1.1,1-1.6
		c0.4-0.4,0.9-0.8,1.5-1s1.3-0.3,2-0.3c0.4,0,0.8,0,1.2,0.1l1.1,0.1v-4.8h1.5V357h-1.4l-0.1-1.2h-0.1
		C343.7,356.8,342.6,357.3,341.5,357.3z M341.8,356c0.3,0,0.7-0.1,1-0.1c0.3-0.1,0.6-0.2,0.9-0.4c0.2-0.2,0.5-0.4,0.6-0.7
		c0.1-0.3,0.2-0.6,0.2-0.9v-5.2c-0.4-0.1-0.7-0.1-1.1-0.1s-0.8-0.1-1.2-0.1c-0.9-0.1-1.8,0.3-2.4,0.9c-0.6,0.9-0.9,1.9-0.8,2.9
		c-0.1,1,0.1,2,0.7,2.9C340.2,355.8,341,356.1,341.8,356L341.8,356z"/>
</g>
<rect x="537.7" y="213" class="st4" width="72" height="54"/>
<path class="st3" d="M563,232.5h1.4l6.8,9.3l1,1.6h0.1v-10.9h1.5v13.3h-1.4l-6.9-9.3l-1-1.6h-0.1v10.8h-1.5L563,232.5L563,232.5z"/>
<path class="st3" d="M580.7,246c-1.3,0.1-2.5-0.4-3.4-1.3c-1.5-2.3-1.5-5.2,0-7.5c1.9-1.7,4.8-1.7,6.7,0c1.5,2.3,1.5,5.2,0,7.5
	C583.2,245.6,581.9,246.1,580.7,246z M580.7,244.8c0.8,0.1,1.7-0.3,2.2-0.9c0.9-1.8,0.9-3.9,0-5.7c-1.2-1.2-3.2-1.2-4.4,0
	c-0.9,1.8-0.9,3.9,0,5.7C579,244.4,579.8,244.9,580.7,244.8L580.7,244.8z"/>
<rect x="669.2" y="95" class="st0" width="97" height="1"/>
<polygon class="st0" points="764.7,100.4 773.4,95.5 764.7,90.5 "/>
<rect x="845.4" y="95" class="st0" width="43.6" height="1"/>
<polygon class="st0" points="887.5,100.4 896.2,95.5 887.5,90.5 "/>
<rect x="573.2" y="190.1" class="st0" width="1" height="15.6"/>
<polygon class="st0" points="568.7,204.4 573.7,213 578.7,204.4 "/>
<rect x="506.2" y="28" transform="matrix(0.7071 -0.7071 0.7071 0.7071 100.4988 433.6428)" class="st1" width="135" height="135"/>
<path class="st0" d="M573.7,1.4l94,94.1l-94,94l-94-94L573.7,1.4 M573.7,0.1l-95.5,95.4l95.5,95.5l95.5-95.5L573.7,0.1L573.7,0.1z"
	/>
<g>
	<rect x="330.6" y="240.4" class="st0" width="1" height="70.3"/>
	<polygon class="st0" points="326.1,306.6 331.1,315.3 336.1,306.6 	"/>
	<rect x="331.1" y="239.5" class="st0" width="206.7" height="1"/>
</g>
<rect x="368.5" y="350.8" class="st0" width="528.6" height="1"/>
<polygon class="st0" points="375.7,346.3 367.1,351.3 375.7,356.3 "/>
<polygon class="st0" points="705.8,346.3 697.2,351.3 705.8,356.3 "/>
<g>
	<rect x="999.2" y="139.4" class="st0" width="1" height="159.6"/>
	<polygon class="st0" points="994.7,297.6 999.7,306.3 1004.6,297.6 	"/>
</g>
<rect x="896.2" y="306.3" class="st1" width="207" height="90"/>
<path class="st0" d="M1102.2,307.3v88h-205v-88H1102.2 M1103.2,306.3h-207v90h207V306.3z"/>
<rect x="450.2" y="306.3" class="st1" width="247" height="90"/>
<path class="st0" d="M696.2,307.3v88h-245v-88H696.2 M697.2,306.3h-247v90h247V306.3z"/>
<g>
	<g>
		<path class="st5" d="M908.4,347.1c-0.6,0-1.2,0-1.9-0.1s-1.4-0.2-2-0.4v-1.5c0.7,0.2,1.3,0.3,2,0.4c0.7,0.1,1.3,0.1,1.8,0.1
			c1.8,0,2.7-0.6,2.7-1.8c0-0.3-0.1-0.6-0.2-0.8s-0.3-0.4-0.5-0.6s-0.5-0.3-0.8-0.4s-0.7-0.2-1-0.3c-0.6-0.2-1.2-0.3-1.6-0.5
			c-0.5-0.2-0.8-0.4-1.1-0.7s-0.5-0.6-0.7-1c-0.1-0.4-0.2-0.8-0.2-1.3c0-0.5,0.1-1,0.3-1.4s0.5-0.8,0.8-1c0.4-0.3,0.8-0.5,1.3-0.7
			c0.5-0.2,1.1-0.2,1.8-0.2c0.5,0,1,0,1.5,0.1c0.5,0.1,1.1,0.2,1.8,0.3v1.5c-0.5-0.1-1-0.2-1.6-0.3c-0.6-0.1-1.1-0.1-1.5-0.1
			c-0.8,0-1.4,0.2-1.9,0.5c-0.4,0.3-0.7,0.8-0.7,1.3c0,0.5,0.2,1,0.6,1.3c0.4,0.3,1.1,0.6,2,0.8c0.6,0.1,1.1,0.3,1.5,0.5
			c0.4,0.2,0.8,0.4,1.2,0.7c0.3,0.3,0.6,0.6,0.7,1c0.2,0.4,0.3,0.8,0.3,1.4c0,1.1-0.4,1.9-1.1,2.5
			C910.9,346.8,909.8,347.1,908.4,347.1z"/>
		<path class="st5" d="M918.2,347c-1.4,0-2.4-0.4-3.1-1.1c-0.7-0.7-1-1.8-1-3.3c0-1.5,0.3-2.6,1-3.4c0.7-0.8,1.7-1.2,3-1.2
			c2.3,0,3.5,1.3,3.5,3.9c0,0.5,0,0.9-0.1,1.2h-5.6c0.1,0.9,0.3,1.5,0.7,1.9c0.4,0.4,1,0.6,1.9,0.6c0.4,0,0.9,0,1.4-0.1
			c0.5-0.1,1-0.2,1.4-0.3l0.1,1.3c-0.4,0.2-0.9,0.3-1.5,0.4S918.7,347,918.2,347z M918,339.4c-0.7,0-1.2,0.2-1.6,0.6
			c-0.4,0.4-0.6,1.1-0.6,2h4.1c0-0.9-0.2-1.6-0.5-2C919.2,339.6,918.7,339.4,918,339.4z"/>
		<path class="st5" d="M923.4,338.3h1.5l0.1,1h0.1c0.8-0.4,1.5-0.7,2.1-0.9c0.6-0.2,1.1-0.3,1.6-0.3c0.7,0,1.3,0.2,1.7,0.6
			c0.4,0.4,0.6,1,0.6,1.8v6.4h-1.8v-5.8c0-0.5-0.1-0.9-0.3-1.2s-0.5-0.4-1-0.4c-0.4,0-0.8,0.1-1.3,0.2c-0.5,0.2-1,0.4-1.6,0.6v6.5
			h-1.8V338.3z"/>
		<path class="st5" d="M936.5,347.1c-1.2,0-2.1-0.4-2.7-1.1c-0.6-0.7-0.9-1.8-0.9-3.3c0-0.8,0.1-1.4,0.3-2c0.2-0.6,0.5-1.1,0.9-1.4
			s0.9-0.7,1.4-0.9c0.5-0.2,1.2-0.3,1.8-0.3c0.3,0,0.7,0,1,0c0.3,0,0.6,0.1,0.9,0.1V334h1.8v12.9h-1.6l-0.1-1.1h-0.1
			C938.6,346.7,937.7,347.1,936.5,347.1z M937,345.7c0.3,0,0.6,0,0.9-0.1c0.3-0.1,0.5-0.2,0.7-0.4c0.2-0.2,0.4-0.4,0.5-0.6
			c0.1-0.2,0.2-0.5,0.2-0.8v-4.2c-0.3-0.1-0.6-0.1-0.9-0.1s-0.7,0-1,0c-0.9,0-1.5,0.2-2,0.7c-0.4,0.5-0.6,1.3-0.6,2.5
			c0,1.1,0.2,1.9,0.5,2.4C935.6,345.4,936.2,345.7,937,345.7z"/>
		<path class="st5" d="M948.7,347c-0.8,0-1.4-0.2-1.8-0.6c-0.4-0.4-0.6-1-0.6-1.7c0-0.8,0.3-1.5,0.8-1.9s1.4-0.7,2.5-0.8l2-0.2v-0.5
			c0-0.4,0-0.6-0.1-0.9s-0.2-0.4-0.3-0.6c-0.2-0.1-0.4-0.2-0.6-0.3s-0.6-0.1-1-0.1c-0.4,0-0.8,0-1.2,0.1c-0.4,0-0.9,0.1-1.4,0.2
			l-0.1-1.3c1.1-0.2,2.1-0.3,3.1-0.3c1.2,0,2.1,0.2,2.6,0.7c0.6,0.5,0.9,1.2,0.9,2.2v5.9H952l-0.2-1.1h-0.1c-0.5,0.4-1,0.7-1.5,0.9
			C949.7,346.9,949.2,347,948.7,347z M949.4,345.7c0.4,0,0.7-0.1,1.1-0.2c0.4-0.2,0.8-0.4,1.1-0.6v-2l-1.5,0.1
			c-0.7,0.1-1.3,0.2-1.6,0.4c-0.3,0.2-0.4,0.6-0.4,1.1C948.2,345.3,948.6,345.7,949.4,345.7z"/>
		<path class="st5" d="M955.7,338.3h1.5l0.1,1h0.1c0.8-0.4,1.5-0.7,2.1-0.9s1.1-0.3,1.6-0.3c0.7,0,1.3,0.2,1.7,0.6
			c0.4,0.4,0.6,1,0.6,1.8v6.4h-1.8v-5.8c0-0.5-0.1-0.9-0.3-1.2s-0.5-0.4-1-0.4c-0.4,0-0.8,0.1-1.3,0.2c-0.5,0.2-1,0.4-1.6,0.6v6.5
			h-1.8V338.3z"/>
		<path class="st5" d="M971.1,347c-0.8,0-1.4-0.2-1.8-0.6c-0.4-0.4-0.6-1-0.6-1.7c0-0.8,0.3-1.5,0.8-1.9s1.4-0.7,2.5-0.8l2-0.2v-0.5
			c0-0.4,0-0.6-0.1-0.9s-0.2-0.4-0.3-0.6c-0.2-0.1-0.4-0.2-0.6-0.3s-0.6-0.1-1-0.1c-0.4,0-0.8,0-1.2,0.1c-0.4,0-0.9,0.1-1.4,0.2
			l-0.1-1.3c1.1-0.2,2.1-0.3,3.1-0.3c1.2,0,2.1,0.2,2.6,0.7c0.6,0.5,0.9,1.2,0.9,2.2v5.9h-1.5l-0.2-1.1h-0.1c-0.5,0.4-1,0.7-1.5,0.9
			C972.1,346.9,971.6,347,971.1,347z M971.8,345.7c0.4,0,0.7-0.1,1.1-0.2c0.4-0.2,0.8-0.4,1.1-0.6v-2l-1.5,0.1
			c-0.7,0.1-1.3,0.2-1.6,0.4c-0.3,0.2-0.4,0.6-0.4,1.1C970.5,345.3,970.9,345.7,971.8,345.7z"/>
		<path class="st5" d="M978.1,334h1.8v12.9h-1.8V334z"/>
		<path class="st5" d="M985.9,347c-1.4,0-2.4-0.4-3.1-1.1c-0.7-0.7-1-1.8-1-3.3c0-1.5,0.3-2.6,1-3.4c0.7-0.8,1.7-1.2,3-1.2
			c2.3,0,3.5,1.3,3.5,3.9c0,0.5,0,0.9-0.1,1.2h-5.6c0.1,0.9,0.3,1.5,0.7,1.9s1,0.6,1.9,0.6c0.4,0,0.9,0,1.4-0.1
			c0.5-0.1,1-0.2,1.4-0.3l0.1,1.3c-0.4,0.2-0.9,0.3-1.5,0.4C986.9,347,986.4,347,985.9,347z M985.8,339.4c-0.7,0-1.2,0.2-1.6,0.6
			c-0.4,0.4-0.6,1.1-0.6,2h4.1c0-0.9-0.2-1.6-0.5-2C986.9,339.6,986.4,339.4,985.8,339.4z"/>
		<path class="st5" d="M991.1,338.3h1.5l0.1,1.2h0.1c0.5-0.3,1.1-0.6,1.6-0.9s1-0.4,1.4-0.5h0.6v1.6h-0.6c-0.5,0.1-1,0.2-1.4,0.4
			s-0.9,0.4-1.4,0.6v6.2h-1.8V338.3z"/>
		<path class="st5" d="M1001.1,347.1c-0.9,0-1.5-0.2-2-0.6s-0.7-1.1-0.7-1.9v-4.7h-1.7v-1.5h1.8l0.3-2.3l1.4-0.2v2.4h2.4v1.5h-2.4
			v4.3c0,0.5,0.1,0.9,0.3,1.1s0.6,0.4,1.1,0.4c0.1,0,0.3,0,0.5,0c0.2,0,0.4-0.1,0.6-0.1v1.4c-0.2,0.1-0.5,0.1-0.8,0.2
			C1001.7,347,1001.4,347.1,1001.1,347.1z"/>
		<path class="st5" d="M1011.4,347.1c-0.9,0-1.5-0.2-2-0.6c-0.4-0.4-0.7-1.1-0.7-1.9v-4.7h-1.7v-1.5h1.8l0.3-2.3l1.4-0.2v2.4h2.4
			v1.5h-2.4v4.3c0,0.5,0.1,0.9,0.3,1.1c0.2,0.2,0.6,0.4,1.1,0.4c0.1,0,0.3,0,0.5,0c0.2,0,0.4-0.1,0.6-0.1v1.4
			c-0.2,0.1-0.5,0.1-0.8,0.2C1012,347,1011.7,347.1,1011.4,347.1z"/>
		<path class="st5" d="M1018.3,347.1c-1.4,0-2.4-0.4-3.1-1.1s-1.1-1.9-1.1-3.3c0-1.5,0.4-2.6,1.1-3.3s1.8-1.1,3.1-1.1
			s2.4,0.4,3.1,1.1c0.7,0.8,1.1,1.9,1.1,3.3c0,1.5-0.4,2.6-1.1,3.3C1020.7,346.7,1019.6,347.1,1018.3,347.1z M1018.3,345.6
			c0.8,0,1.4-0.2,1.8-0.7c0.4-0.5,0.6-1.3,0.6-2.3s-0.2-1.9-0.6-2.3c-0.4-0.5-1-0.7-1.8-0.7s-1.4,0.2-1.8,0.7
			c-0.4,0.5-0.6,1.3-0.6,2.3s0.2,1.9,0.6,2.3C1016.8,345.4,1017.4,345.6,1018.3,345.6z"/>
		<path class="st5" d="M1031.4,347.1c-0.9,0-1.5-0.2-2-0.6c-0.4-0.4-0.7-1.1-0.7-1.9v-4.7h-1.7v-1.5h1.8l0.3-2.3l1.4-0.2v2.4h2.4
			v1.5h-2.4v4.3c0,0.5,0.1,0.9,0.3,1.1c0.2,0.2,0.6,0.4,1.1,0.4c0.1,0,0.3,0,0.5,0c0.2,0,0.4-0.1,0.6-0.1v1.4
			c-0.2,0.1-0.5,0.1-0.8,0.2C1032,347,1031.7,347.1,1031.4,347.1z"/>
		<path class="st5" d="M1034.5,334h1.8v5.2c0.8-0.4,1.5-0.7,2-0.8c0.6-0.2,1.1-0.3,1.6-0.3c0.7,0,1.3,0.2,1.7,0.6s0.6,1,0.6,1.8v6.4
			h-1.8v-5.8c0-0.5-0.1-0.9-0.3-1.2c-0.2-0.2-0.5-0.4-1-0.4c-0.4,0-0.8,0.1-1.3,0.2c-0.5,0.2-1,0.4-1.6,0.6v6.5h-1.8V334z"/>
		<path class="st5" d="M1048.2,347c-1.4,0-2.4-0.4-3.1-1.1c-0.7-0.7-1-1.8-1-3.3c0-1.5,0.3-2.6,1-3.4c0.7-0.8,1.7-1.2,3-1.2
			c2.3,0,3.5,1.3,3.5,3.9c0,0.5,0,0.9-0.1,1.2h-5.6c0.1,0.9,0.3,1.5,0.7,1.9s1,0.6,1.9,0.6c0.4,0,0.9,0,1.4-0.1
			c0.5-0.1,1-0.2,1.4-0.3l0.1,1.3c-0.4,0.2-0.9,0.3-1.5,0.4S1048.7,347,1048.2,347z M1048.1,339.4c-0.7,0-1.2,0.2-1.6,0.6
			c-0.4,0.4-0.6,1.1-0.6,2h4.1c0-0.9-0.2-1.6-0.5-2C1049.2,339.6,1048.7,339.4,1048.1,339.4z"/>
		<path class="st5" d="M1059.7,347.1c-0.4,0-0.9,0-1.4-0.1c-0.5-0.1-1.1-0.2-1.7-0.3v-1.4c0.6,0.1,1.1,0.2,1.6,0.3s1,0.1,1.4,0.1
			c1.2,0,1.8-0.4,1.8-1.2c0-0.4-0.2-0.7-0.5-0.9c-0.3-0.2-0.7-0.3-1.2-0.4c-0.3-0.1-0.7-0.1-1-0.2s-0.7-0.2-1-0.4
			c-0.3-0.2-0.5-0.4-0.7-0.7c-0.2-0.3-0.3-0.7-0.3-1.3c0-0.8,0.3-1.4,0.9-1.9s1.4-0.7,2.5-0.7c0.2,0,0.4,0,0.6,0s0.4,0,0.6,0.1
			c0.2,0,0.4,0.1,0.7,0.1s0.5,0.1,0.9,0.2l-0.1,1.4c-0.6-0.1-1-0.2-1.4-0.3c-0.4-0.1-0.8-0.1-1.1-0.1c-0.6,0-1,0.1-1.3,0.3
			s-0.4,0.5-0.4,0.9c0,0.2,0,0.4,0.1,0.6c0.1,0.1,0.2,0.3,0.4,0.4s0.4,0.2,0.6,0.2c0.2,0.1,0.5,0.1,0.8,0.2c0.4,0.1,0.8,0.2,1.1,0.3
			c0.3,0.1,0.6,0.3,0.9,0.5c0.2,0.2,0.4,0.4,0.6,0.7c0.1,0.3,0.2,0.7,0.2,1.1c0,0.8-0.3,1.5-0.9,1.9
			C1061.7,346.8,1060.8,347.1,1059.7,347.1z"/>
		<path class="st5" d="M1068.4,347.1c-0.9,0-1.5-0.2-2-0.6c-0.4-0.4-0.7-1.1-0.7-1.9v-4.7h-1.7v-1.5h1.8l0.3-2.3l1.4-0.2v2.4h2.4
			v1.5h-2.4v4.3c0,0.5,0.1,0.9,0.3,1.1c0.2,0.2,0.6,0.4,1.1,0.4c0.1,0,0.3,0,0.5,0c0.2,0,0.4-0.1,0.6-0.1v1.4
			c-0.2,0.1-0.5,0.1-0.8,0.2C1068.9,347,1068.7,347.1,1068.4,347.1z"/>
		<path class="st5" d="M1075.2,347.1c-1.4,0-2.4-0.4-3.1-1.1s-1.1-1.9-1.1-3.3c0-1.5,0.4-2.6,1.1-3.3s1.8-1.1,3.1-1.1
			s2.4,0.4,3.1,1.1c0.7,0.8,1.1,1.9,1.1,3.3c0,1.5-0.4,2.6-1.1,3.3C1077.6,346.7,1076.6,347.1,1075.2,347.1z M1075.2,345.6
			c0.8,0,1.4-0.2,1.8-0.7c0.4-0.5,0.6-1.3,0.6-2.3s-0.2-1.9-0.6-2.3c-0.4-0.5-1-0.7-1.8-0.7s-1.4,0.2-1.8,0.7
			c-0.4,0.5-0.6,1.3-0.6,2.3s0.2,1.9,0.6,2.3C1073.8,345.4,1074.4,345.6,1075.2,345.6z"/>
		<path class="st5" d="M1081.3,338.3h1.5l0.1,1.2h0.1c0.5-0.3,1.1-0.6,1.6-0.9s1-0.4,1.4-0.5h0.6v1.6h-0.6c-0.5,0.1-1,0.2-1.4,0.4
			s-0.9,0.4-1.4,0.6v6.2h-1.8V338.3z"/>
		<path class="st5" d="M1091.5,347c-1.4,0-2.4-0.4-3.1-1.1c-0.7-0.7-1-1.8-1-3.3c0-1.5,0.3-2.6,1-3.4c0.7-0.8,1.7-1.2,3-1.2
			c2.3,0,3.5,1.3,3.5,3.9c0,0.5,0,0.9-0.1,1.2h-5.6c0.1,0.9,0.3,1.5,0.7,1.9s1,0.6,1.9,0.6c0.4,0,0.9,0,1.4-0.1
			c0.5-0.1,1-0.2,1.4-0.3l0.1,1.3c-0.4,0.2-0.9,0.3-1.5,0.4S1092.1,347,1091.5,347z M1091.4,339.4c-0.7,0-1.2,0.2-1.6,0.6
			c-0.4,0.4-0.6,1.1-0.6,2h4.1c0-0.9-0.2-1.6-0.5-2C1092.5,339.6,1092.1,339.4,1091.4,339.4z"/>
		<path class="st5" d="M909.8,366.3c-1.4,0-2.4-0.4-3.1-1.1c-0.7-0.8-1.1-1.9-1.1-3.3c0-1.5,0.4-2.6,1.1-3.3
			c0.7-0.8,1.8-1.1,3.1-1.1s2.4,0.4,3.1,1.1s1.1,1.9,1.1,3.3c0,1.5-0.4,2.6-1.1,3.3C912.2,365.9,911.2,366.3,909.8,366.3z
			 M909.8,364.8c0.8,0,1.4-0.2,1.8-0.7s0.6-1.3,0.6-2.3s-0.2-1.9-0.6-2.3s-1-0.7-1.8-0.7s-1.4,0.2-1.8,0.7s-0.6,1.3-0.6,2.3
			s0.2,1.9,0.6,2.3S909,364.8,909.8,364.8z"/>
		<path class="st5" d="M915.8,357.5h1.6l0.1,1h0.1c0.3-0.4,0.7-0.7,1.1-0.9s1-0.3,1.6-0.3c1.2,0,2.1,0.4,2.7,1.1
			c0.6,0.7,0.9,1.8,0.9,3.3c0,1.5-0.4,2.6-1.2,3.4c-0.8,0.8-1.9,1.2-3.3,1.2c-0.3,0-0.7,0-1,0c-0.3,0-0.6-0.1-0.9-0.1v3.5h-1.8
			V357.5z M919.5,364.9c0.4,0,0.8-0.1,1.1-0.2c0.3-0.1,0.6-0.3,0.8-0.5c0.2-0.2,0.4-0.6,0.5-1c0.1-0.4,0.2-0.9,0.2-1.5
			c0-1.1-0.2-1.9-0.5-2.4c-0.4-0.5-0.9-0.7-1.7-0.7c-0.3,0-0.6,0-0.9,0.1c-0.3,0.1-0.5,0.2-0.7,0.4s-0.4,0.4-0.5,0.6
			c-0.1,0.2-0.2,0.5-0.2,0.8v4.2c0.3,0.1,0.5,0.1,0.9,0.1C918.8,364.9,919.2,364.9,919.5,364.9z"/>
		<path class="st5" d="M929.5,366.2c-1.4,0-2.4-0.4-3.1-1.1c-0.7-0.7-1-1.8-1-3.3c0-1.5,0.3-2.6,1-3.4c0.7-0.8,1.7-1.2,3-1.2
			c2.3,0,3.5,1.3,3.5,3.9c0,0.5,0,0.9-0.1,1.2h-5.6c0.1,0.9,0.3,1.5,0.7,1.9c0.4,0.4,1,0.6,1.9,0.6c0.4,0,0.9,0,1.4-0.1
			c0.5-0.1,1-0.2,1.4-0.3l0.1,1.3c-0.4,0.2-0.9,0.3-1.5,0.4C930.6,366.2,930,366.2,929.5,366.2z M929.4,358.6
			c-0.7,0-1.2,0.2-1.6,0.6c-0.4,0.4-0.6,1.1-0.6,2h4.1c0-0.9-0.2-1.6-0.5-2C930.5,358.8,930,358.6,929.4,358.6z"/>
		<path class="st5" d="M934.7,357.5h1.5l0.1,1.2h0.1c0.5-0.3,1.1-0.6,1.6-0.9s1-0.4,1.4-0.5h0.6v1.6h-0.6c-0.5,0.1-1,0.2-1.4,0.4
			s-0.9,0.4-1.4,0.6v6.2h-1.8V357.5z"/>
		<path class="st5" d="M943.1,366.2c-0.8,0-1.4-0.2-1.8-0.6c-0.4-0.4-0.6-1-0.6-1.7c0-0.8,0.3-1.5,0.8-1.9s1.4-0.7,2.5-0.8l2-0.2
			v-0.5c0-0.4,0-0.6-0.1-0.9s-0.2-0.4-0.3-0.6c-0.2-0.1-0.4-0.2-0.6-0.3s-0.6-0.1-1-0.1c-0.4,0-0.8,0-1.2,0.1
			c-0.4,0-0.9,0.1-1.4,0.2l-0.1-1.3c1.1-0.2,2.1-0.3,3.1-0.3c1.2,0,2.1,0.2,2.6,0.7c0.6,0.5,0.9,1.2,0.9,2.2v5.9h-1.5l-0.2-1.1h-0.1
			c-0.5,0.4-1,0.7-1.5,0.9C944.1,366.1,943.6,366.2,943.1,366.2z M943.8,364.9c0.4,0,0.7-0.1,1.1-0.2s0.8-0.4,1.1-0.6v-2l-1.5,0.1
			c-0.7,0.1-1.3,0.2-1.6,0.4c-0.3,0.2-0.4,0.6-0.4,1.1C942.5,364.5,943,364.9,943.8,364.9z"/>
		<path class="st5" d="M953.5,366.3c-0.9,0-1.5-0.2-2-0.6c-0.4-0.4-0.7-1.1-0.7-1.9V359h-1.7v-1.5h1.8l0.3-2.3l1.4-0.2v2.4h2.4v1.5
			h-2.4v4.3c0,0.5,0.1,0.9,0.3,1.1s0.6,0.4,1.1,0.4c0.1,0,0.3,0,0.5,0s0.4-0.1,0.6-0.1v1.4c-0.2,0.1-0.5,0.1-0.8,0.2
			C954.1,366.2,953.8,366.3,953.5,366.3z"/>
		<path class="st5" d="M960.4,366.3c-1.4,0-2.4-0.4-3.1-1.1c-0.7-0.8-1.1-1.9-1.1-3.3c0-1.5,0.4-2.6,1.1-3.3s1.8-1.1,3.1-1.1
			s2.4,0.4,3.1,1.1c0.7,0.8,1.1,1.9,1.1,3.3c0,1.5-0.4,2.6-1.1,3.3C962.8,365.9,961.8,366.3,960.4,366.3z M960.4,364.8
			c0.8,0,1.4-0.2,1.8-0.7c0.4-0.5,0.6-1.3,0.6-2.3s-0.2-1.9-0.6-2.3c-0.4-0.5-1-0.7-1.8-0.7s-1.4,0.2-1.8,0.7
			c-0.4,0.5-0.6,1.3-0.6,2.3s0.2,1.9,0.6,2.3C959,364.6,959.6,364.8,960.4,364.8z"/>
		<path class="st5" d="M966.4,357.5h1.5l0.1,1.2h0.1c0.5-0.3,1.1-0.6,1.6-0.9s1-0.4,1.4-0.5h0.6v1.6H971c-0.5,0.1-1,0.2-1.4,0.4
			s-0.9,0.4-1.4,0.6v6.2h-1.8V357.5z"/>
		<path class="st5" d="M975.6,366.3c-0.4,0-0.9,0-1.4-0.1c-0.5-0.1-1.1-0.2-1.7-0.3v-1.4c0.6,0.1,1.1,0.2,1.6,0.3s1,0.1,1.4,0.1
			c1.2,0,1.8-0.4,1.8-1.2c0-0.4-0.2-0.7-0.5-0.9c-0.3-0.2-0.7-0.3-1.2-0.4c-0.3-0.1-0.7-0.1-1-0.2c-0.4-0.1-0.7-0.2-1-0.4
			s-0.5-0.4-0.7-0.7c-0.2-0.3-0.3-0.7-0.3-1.3c0-0.8,0.3-1.4,0.9-1.9c0.6-0.5,1.4-0.7,2.5-0.7c0.2,0,0.4,0,0.6,0
			c0.2,0,0.4,0,0.6,0.1c0.2,0,0.4,0.1,0.7,0.1c0.3,0,0.5,0.1,0.9,0.2l-0.1,1.4c-0.6-0.1-1-0.2-1.4-0.3c-0.4-0.1-0.8-0.1-1.1-0.1
			c-0.6,0-1,0.1-1.3,0.3s-0.4,0.5-0.4,0.9c0,0.2,0,0.4,0.1,0.6c0.1,0.1,0.2,0.3,0.4,0.4c0.2,0.1,0.4,0.2,0.6,0.2
			c0.2,0.1,0.5,0.1,0.8,0.2c0.4,0.1,0.8,0.2,1.1,0.3s0.6,0.3,0.9,0.5c0.2,0.2,0.4,0.4,0.6,0.7s0.2,0.7,0.2,1.1
			c0,0.8-0.3,1.5-0.9,1.9C977.6,366,976.7,366.3,975.6,366.3z"/>
		<path class="st5" d="M988,366.3c-0.9,0-1.5-0.2-2-0.6c-0.4-0.4-0.7-1.1-0.7-1.9V359h-1.7v-1.5h1.8l0.3-2.3l1.4-0.2v2.4h2.4v1.5
			h-2.4v4.3c0,0.5,0.1,0.9,0.3,1.1s0.6,0.4,1.1,0.4c0.1,0,0.3,0,0.5,0s0.4-0.1,0.6-0.1v1.4c-0.2,0.1-0.5,0.1-0.8,0.2
			C988.5,366.2,988.2,366.3,988,366.3z"/>
		<path class="st5" d="M994.8,366.3c-1.4,0-2.4-0.4-3.1-1.1c-0.7-0.8-1.1-1.9-1.1-3.3c0-1.5,0.4-2.6,1.1-3.3
			c0.7-0.8,1.8-1.1,3.1-1.1s2.4,0.4,3.1,1.1s1.1,1.9,1.1,3.3c0,1.5-0.4,2.6-1.1,3.3C997.2,365.9,996.2,366.3,994.8,366.3z
			 M994.8,364.8c0.8,0,1.4-0.2,1.8-0.7s0.6-1.3,0.6-2.3s-0.2-1.9-0.6-2.3s-1-0.7-1.8-0.7s-1.4,0.2-1.8,0.7s-0.6,1.3-0.6,2.3
			s0.2,1.9,0.6,2.3S994,364.8,994.8,364.8z"/>
		<path class="st5" d="M1004.5,357.5h1.5l0.1,1h0.1c0.7-0.4,1.2-0.7,1.7-0.9s1-0.3,1.4-0.3c1,0,1.7,0.4,2.1,1.2h0.1
			c0.7-0.4,1.3-0.7,1.8-0.9s1-0.3,1.4-0.3c0.7,0,1.3,0.2,1.7,0.6c0.4,0.4,0.6,1,0.6,1.8v6.4h-1.8v-5.8c0-0.5-0.1-0.9-0.3-1.2
			s-0.5-0.3-1-0.3c-0.3,0-0.6,0.1-1,0.2c-0.4,0.1-0.8,0.3-1.2,0.6v6.5h-1.8v-5.8c0-0.5-0.1-0.9-0.3-1.2c-0.2-0.2-0.5-0.3-1-0.3
			c-0.3,0-0.7,0.1-1.1,0.2c-0.4,0.1-0.8,0.3-1.2,0.6v6.5h-1.8V357.5z"/>
		<path class="st5" d="M1021,366.2c-0.8,0-1.4-0.2-1.8-0.6c-0.4-0.4-0.6-1-0.6-1.7c0-0.8,0.3-1.5,0.8-1.9s1.4-0.7,2.5-0.8l2-0.2
			v-0.5c0-0.4,0-0.6-0.1-0.9s-0.2-0.4-0.3-0.6c-0.2-0.1-0.4-0.2-0.6-0.3s-0.6-0.1-1-0.1c-0.4,0-0.8,0-1.2,0.1
			c-0.4,0-0.9,0.1-1.4,0.2l-0.1-1.3c1.1-0.2,2.1-0.3,3.1-0.3c1.2,0,2.1,0.2,2.6,0.7c0.6,0.5,0.9,1.2,0.9,2.2v5.9h-1.5l-0.2-1.1h-0.1
			c-0.5,0.4-1,0.7-1.5,0.9S1021.5,366.2,1021,366.2z M1021.7,364.9c0.4,0,0.7-0.1,1.1-0.2s0.8-0.4,1.1-0.6v-2l-1.5,0.1
			c-0.7,0.1-1.3,0.2-1.6,0.4s-0.4,0.6-0.4,1.1C1020.5,364.5,1020.9,364.9,1021.7,364.9z"/>
		<path class="st5" d="M1028,353.2h1.8v7.9h1.3l2.7-3.6h2l-3.1,4l-0.3,0.1v0l0.3,0.1l3.4,4.3h-2l-3-3.8h-1.3v3.8h-1.8V353.2z"/>
		<path class="st5" d="M1040.8,366.2c-1.4,0-2.4-0.4-3.1-1.1c-0.7-0.7-1-1.8-1-3.3c0-1.5,0.3-2.6,1-3.4c0.7-0.8,1.7-1.2,3-1.2
			c2.3,0,3.5,1.3,3.5,3.9c0,0.5,0,0.9-0.1,1.2h-5.6c0.1,0.9,0.3,1.5,0.7,1.9s1,0.6,1.9,0.6c0.4,0,0.9,0,1.4-0.1
			c0.5-0.1,1-0.2,1.4-0.3l0.1,1.3c-0.4,0.2-0.9,0.3-1.5,0.4C1041.9,366.2,1041.4,366.2,1040.8,366.2z M1040.7,358.6
			c-0.7,0-1.2,0.2-1.6,0.6c-0.4,0.4-0.6,1.1-0.6,2h4.1c0-0.9-0.2-1.6-0.5-2C1041.8,358.8,1041.4,358.6,1040.7,358.6z"/>
		<path class="st5" d="M1053.4,366.3c-1.4,0-2.4-0.4-3.1-1.1c-0.7-0.8-1.1-1.9-1.1-3.3c0-1.5,0.4-2.6,1.1-3.3s1.8-1.1,3.1-1.1
			s2.4,0.4,3.1,1.1c0.7,0.8,1.1,1.9,1.1,3.3c0,1.5-0.4,2.6-1.1,3.3C1055.8,365.9,1054.8,366.3,1053.4,366.3z M1053.4,364.8
			c0.8,0,1.4-0.2,1.8-0.7c0.4-0.5,0.6-1.3,0.6-2.3s-0.2-1.9-0.6-2.3c-0.4-0.5-1-0.7-1.8-0.7s-1.4,0.2-1.8,0.7
			c-0.4,0.5-0.6,1.3-0.6,2.3s0.2,1.9,0.6,2.3C1052,364.6,1052.6,364.8,1053.4,364.8z"/>
		<path class="st5" d="M1060.4,359h-1.9v-1.5h1.9V357c0-0.8,0.1-1.4,0.2-1.9c0.1-0.5,0.4-0.9,0.7-1.2s0.8-0.5,1.3-0.6
			c0.6-0.1,1.3-0.2,2.1-0.2l0.1,1.3c-0.5,0-1,0.1-1.3,0.2s-0.6,0.2-0.8,0.4c-0.2,0.2-0.3,0.4-0.4,0.7s-0.1,0.7-0.1,1.1v0.7h2.3v1.5
			h-2.3v7.1h-1.8V359z M1066.8,359h-1.9v-1.5h1.9V357c0-0.8,0.1-1.4,0.2-1.9c0.1-0.5,0.4-0.9,0.7-1.2s0.8-0.5,1.3-0.6
			c0.6-0.1,1.3-0.2,2.1-0.2l0.1,1.3c-0.5,0-1,0.1-1.3,0.2s-0.6,0.2-0.8,0.4c-0.2,0.2-0.3,0.4-0.4,0.7s-0.1,0.7-0.1,1.1v0.7h2.3v1.5
			h-2.3v7.1h-1.8V359z"/>
		<path class="st5" d="M1076,366.2c-1.4,0-2.4-0.4-3.1-1.1c-0.7-0.7-1-1.8-1-3.3c0-1.5,0.3-2.6,1-3.4c0.7-0.8,1.7-1.2,3-1.2
			c2.3,0,3.5,1.3,3.5,3.9c0,0.5,0,0.9-0.1,1.2h-5.6c0.1,0.9,0.3,1.5,0.7,1.9s1,0.6,1.9,0.6c0.4,0,0.9,0,1.4-0.1
			c0.5-0.1,1-0.2,1.4-0.3l0.1,1.3c-0.4,0.2-0.9,0.3-1.5,0.4C1077,366.2,1076.5,366.2,1076,366.2z M1075.9,358.6
			c-0.7,0-1.2,0.2-1.6,0.6c-0.4,0.4-0.6,1.1-0.6,2h4.1c0-0.9-0.2-1.6-0.5-2C1077,358.8,1076.5,358.6,1075.9,358.6z"/>
		<path class="st5" d="M1081.2,357.5h1.5l0.1,1.2h0.1c0.5-0.3,1.1-0.6,1.6-0.9s1-0.4,1.4-0.5h0.6v1.6h-0.6c-0.5,0.1-1,0.2-1.4,0.4
			s-0.9,0.4-1.4,0.6v6.2h-1.8V357.5z"/>
		<path class="st5" d="M1090.4,366.3c-0.4,0-0.9,0-1.4-0.1c-0.5-0.1-1.1-0.2-1.7-0.3v-1.4c0.6,0.1,1.1,0.2,1.6,0.3s1,0.1,1.4,0.1
			c1.2,0,1.8-0.4,1.8-1.2c0-0.4-0.2-0.7-0.5-0.9c-0.3-0.2-0.7-0.3-1.2-0.4c-0.3-0.1-0.7-0.1-1-0.2c-0.4-0.1-0.7-0.2-1-0.4
			c-0.3-0.2-0.5-0.4-0.7-0.7c-0.2-0.3-0.3-0.7-0.3-1.3c0-0.8,0.3-1.4,0.9-1.9c0.6-0.5,1.4-0.7,2.5-0.7c0.2,0,0.4,0,0.6,0
			c0.2,0,0.4,0,0.6,0.1c0.2,0,0.4,0.1,0.7,0.1s0.5,0.1,0.9,0.2l-0.1,1.4c-0.6-0.1-1-0.2-1.4-0.3c-0.4-0.1-0.8-0.1-1.1-0.1
			c-0.6,0-1,0.1-1.3,0.3s-0.4,0.5-0.4,0.9c0,0.2,0,0.4,0.1,0.6c0.1,0.1,0.2,0.3,0.4,0.4c0.2,0.1,0.4,0.2,0.6,0.2
			c0.2,0.1,0.5,0.1,0.8,0.2c0.4,0.1,0.8,0.2,1.1,0.3c0.3,0.1,0.6,0.3,0.9,0.5c0.2,0.2,0.4,0.4,0.6,0.7s0.2,0.7,0.2,1.1
			c0,0.8-0.3,1.5-0.9,1.9C1092.4,366,1091.5,366.3,1090.4,366.3z"/>
	</g>
</g>
<g>
	<path class="st5" d="M951.8,91.3c-0.6,0-1.2,0-1.9-0.1s-1.4-0.2-2-0.4v-1.5c0.7,0.2,1.3,0.3,2,0.4c0.7,0.1,1.3,0.1,1.8,0.1
		c1.8,0,2.7-0.6,2.7-1.8c0-0.3-0.1-0.6-0.2-0.8c-0.1-0.2-0.3-0.4-0.5-0.6c-0.2-0.2-0.5-0.3-0.8-0.4c-0.3-0.1-0.7-0.2-1-0.3
		c-0.6-0.2-1.2-0.3-1.6-0.5c-0.5-0.2-0.8-0.4-1.1-0.7c-0.3-0.3-0.5-0.6-0.7-1c-0.1-0.4-0.2-0.8-0.2-1.3c0-0.5,0.1-1,0.3-1.4
		c0.2-0.4,0.5-0.8,0.8-1s0.8-0.5,1.3-0.7c0.5-0.2,1.1-0.2,1.8-0.2c0.5,0,1,0,1.5,0.1c0.5,0.1,1.1,0.2,1.8,0.3V81
		c-0.5-0.1-1-0.2-1.6-0.3c-0.6-0.1-1.1-0.1-1.5-0.1c-0.8,0-1.4,0.2-1.9,0.5c-0.4,0.3-0.7,0.8-0.7,1.3c0,0.5,0.2,1,0.6,1.3
		c0.4,0.3,1.1,0.6,2,0.8c0.6,0.1,1.1,0.3,1.5,0.5c0.4,0.2,0.8,0.4,1.2,0.7c0.3,0.3,0.6,0.6,0.7,1c0.2,0.4,0.3,0.8,0.3,1.4
		c0,1.1-0.4,1.9-1.1,2.5C954.3,91,953.2,91.3,951.8,91.3z"/>
	<path class="st5" d="M961.6,91.2c-1.4,0-2.4-0.4-3.1-1.1c-0.7-0.7-1-1.8-1-3.3c0-1.5,0.3-2.6,1-3.4c0.7-0.8,1.7-1.2,3-1.2
		c2.3,0,3.5,1.3,3.5,3.9c0,0.5,0,0.9-0.1,1.2h-5.6c0.1,0.9,0.3,1.5,0.7,1.9s1,0.6,1.9,0.6c0.4,0,0.9,0,1.4-0.1
		c0.5-0.1,1-0.2,1.4-0.3l0.1,1.3c-0.4,0.2-0.9,0.3-1.5,0.4C962.7,91.2,962.1,91.2,961.6,91.2z M961.5,83.6c-0.7,0-1.2,0.2-1.6,0.6
		c-0.4,0.4-0.6,1.1-0.6,2h4.1c0-0.9-0.2-1.6-0.5-2C962.6,83.8,962.1,83.6,961.5,83.6z"/>
	<path class="st5" d="M966.8,82.5h1.5l0.1,1h0.1c0.8-0.4,1.5-0.7,2.1-0.9c0.6-0.2,1.1-0.3,1.6-0.3c0.7,0,1.3,0.2,1.7,0.6
		c0.4,0.4,0.6,1,0.6,1.8v6.4h-1.8v-5.8c0-0.5-0.1-0.9-0.3-1.2c-0.2-0.2-0.5-0.4-1-0.4c-0.4,0-0.8,0.1-1.3,0.2
		c-0.5,0.2-1,0.4-1.6,0.6v6.5h-1.8V82.5z"/>
	<path class="st5" d="M979.9,91.3c-1.2,0-2.1-0.4-2.7-1.1c-0.6-0.7-0.9-1.8-0.9-3.3c0-0.8,0.1-1.4,0.3-2c0.2-0.6,0.5-1.1,0.9-1.4
		c0.4-0.4,0.9-0.7,1.4-0.9c0.5-0.2,1.2-0.3,1.8-0.3c0.3,0,0.7,0,1,0c0.3,0,0.6,0.1,0.9,0.1v-4.3h1.8v12.9h-1.6l-0.1-1.1h-0.1
		C982,90.9,981.1,91.3,979.9,91.3z M980.4,89.9c0.3,0,0.6,0,0.9-0.1c0.3-0.1,0.5-0.2,0.7-0.4c0.2-0.2,0.4-0.4,0.5-0.6
		c0.1-0.2,0.2-0.5,0.2-0.8v-4.2c-0.3-0.1-0.6-0.1-0.9-0.1c-0.3,0-0.7,0-1,0c-0.9,0-1.5,0.2-2,0.7c-0.4,0.5-0.6,1.3-0.6,2.5
		c0,1.1,0.2,1.9,0.5,2.4S979.6,89.9,980.4,89.9z"/>
	<path class="st5" d="M992.1,91.2c-0.8,0-1.4-0.2-1.8-0.6c-0.4-0.4-0.6-1-0.6-1.7c0-0.8,0.3-1.5,0.8-1.9c0.5-0.4,1.4-0.7,2.5-0.8
		l2-0.2v-0.5c0-0.4,0-0.6-0.1-0.9s-0.2-0.4-0.3-0.6c-0.2-0.1-0.4-0.2-0.6-0.3s-0.6-0.1-1-0.1c-0.4,0-0.8,0-1.2,0.1s-0.9,0.1-1.4,0.2
		l-0.1-1.3c1.1-0.2,2.1-0.3,3.1-0.3c1.2,0,2.1,0.2,2.6,0.7s0.9,1.2,0.9,2.2v5.9h-1.5l-0.2-1.1h-0.1c-0.5,0.4-1,0.7-1.5,0.9
		S992.7,91.2,992.1,91.2z M992.8,89.9c0.4,0,0.7-0.1,1.1-0.2c0.4-0.2,0.8-0.4,1.1-0.6v-2l-1.5,0.1c-0.7,0.1-1.3,0.2-1.6,0.4
		c-0.3,0.2-0.4,0.6-0.4,1.1C991.6,89.5,992,89.9,992.8,89.9z"/>
	<path class="st5" d="M999.1,82.5h1.5l0.1,1h0.1c0.8-0.4,1.5-0.7,2.1-0.9c0.6-0.2,1.1-0.3,1.6-0.3c0.7,0,1.3,0.2,1.7,0.6
		c0.4,0.4,0.6,1,0.6,1.8v6.4h-1.8v-5.8c0-0.5-0.1-0.9-0.3-1.2c-0.2-0.2-0.5-0.4-1-0.4c-0.4,0-0.8,0.1-1.3,0.2
		c-0.5,0.2-1,0.4-1.6,0.6v6.5h-1.8V82.5z"/>
	<path class="st5" d="M1016.4,91.2c-1.4,0-2.4-0.4-3.1-1.1c-0.7-0.7-1-1.8-1-3.3c0-1.5,0.3-2.6,1-3.4c0.7-0.8,1.7-1.2,3-1.2
		c2.3,0,3.5,1.3,3.5,3.9c0,0.5,0,0.9-0.1,1.2h-5.6c0.1,0.9,0.3,1.5,0.7,1.9s1,0.6,1.9,0.6c0.4,0,0.9,0,1.4-0.1
		c0.5-0.1,1-0.2,1.4-0.3l0.1,1.3c-0.4,0.2-0.9,0.3-1.5,0.4C1017.5,91.2,1016.9,91.2,1016.4,91.2z M1016.3,83.6
		c-0.7,0-1.2,0.2-1.6,0.6c-0.4,0.4-0.6,1.1-0.6,2h4.1c0-0.9-0.2-1.6-0.5-2C1017.4,83.8,1016.9,83.6,1016.3,83.6z"/>
	<path class="st5" d="M1021.6,82.5h1.5l0.1,1h0.1c0.7-0.4,1.2-0.7,1.7-0.9c0.5-0.2,1-0.3,1.4-0.3c1,0,1.7,0.4,2.1,1.2h0.1
		c0.7-0.4,1.3-0.7,1.8-0.9s1-0.3,1.4-0.3c0.7,0,1.3,0.2,1.7,0.6c0.4,0.4,0.6,1,0.6,1.8v6.4h-1.8v-5.8c0-0.5-0.1-0.9-0.3-1.2
		s-0.5-0.3-1-0.3c-0.3,0-0.6,0.1-1,0.2c-0.4,0.1-0.8,0.3-1.2,0.6v6.5h-1.8v-5.8c0-0.5-0.1-0.9-0.3-1.2c-0.2-0.2-0.5-0.3-1-0.3
		c-0.3,0-0.7,0.1-1.1,0.2c-0.4,0.1-0.8,0.3-1.2,0.6v6.5h-1.8V82.5z"/>
	<path class="st5" d="M1038.1,91.2c-0.8,0-1.4-0.2-1.8-0.6c-0.4-0.4-0.6-1-0.6-1.7c0-0.8,0.3-1.5,0.8-1.9c0.5-0.4,1.4-0.7,2.5-0.8
		l2-0.2v-0.5c0-0.4,0-0.6-0.1-0.9s-0.2-0.4-0.3-0.6c-0.2-0.1-0.4-0.2-0.6-0.3s-0.6-0.1-1-0.1c-0.4,0-0.8,0-1.2,0.1s-0.9,0.1-1.4,0.2
		l-0.1-1.3c1.1-0.2,2.1-0.3,3.1-0.3c1.2,0,2.1,0.2,2.6,0.7s0.9,1.2,0.9,2.2v5.9h-1.5l-0.2-1.1h-0.1c-0.5,0.4-1,0.7-1.5,0.9
		S1038.7,91.2,1038.1,91.2z M1038.8,89.9c0.4,0,0.7-0.1,1.1-0.2c0.4-0.2,0.8-0.4,1.1-0.6v-2l-1.5,0.1c-0.7,0.1-1.3,0.2-1.6,0.4
		c-0.3,0.2-0.4,0.6-0.4,1.1C1037.6,89.5,1038,89.9,1038.8,89.9z"/>
	<path class="st5" d="M1046,80.8c-0.4,0-0.6-0.1-0.8-0.2c-0.2-0.2-0.2-0.4-0.2-0.8c0-0.4,0.1-0.6,0.2-0.8c0.2-0.2,0.4-0.2,0.8-0.2
		c0.4,0,0.6,0.1,0.8,0.3c0.2,0.2,0.2,0.4,0.2,0.8s-0.1,0.6-0.2,0.8C1046.7,80.7,1046.4,80.8,1046,80.8z M1045.1,82.5h1.8v8.6h-1.8
		V82.5z"/>
	<path class="st5" d="M1049.2,78.2h1.8v12.9h-1.8V78.2z"/>
	<path class="st5" d="M924.4,110.5c-0.9,0-1.5-0.2-2-0.6c-0.4-0.4-0.7-1.1-0.7-1.9v-4.7H920v-1.5h1.8l0.3-2.3l1.4-0.2v2.4h2.4v1.5
		h-2.4v4.3c0,0.5,0.1,0.9,0.3,1.1s0.6,0.4,1.1,0.4c0.1,0,0.3,0,0.5,0s0.4-0.1,0.6-0.1v1.4c-0.2,0.1-0.5,0.1-0.8,0.2
		C924.9,110.4,924.7,110.5,924.4,110.5z"/>
	<path class="st5" d="M931.3,110.5c-1.4,0-2.4-0.4-3.1-1.1c-0.7-0.8-1.1-1.9-1.1-3.3c0-1.5,0.4-2.6,1.1-3.3s1.8-1.1,3.1-1.1
		s2.4,0.4,3.1,1.1c0.7,0.8,1.1,1.9,1.1,3.3c0,1.5-0.4,2.6-1.1,3.3C933.7,110.1,932.6,110.5,931.3,110.5z M931.3,109
		c0.8,0,1.4-0.2,1.8-0.7c0.4-0.5,0.6-1.3,0.6-2.3s-0.2-1.9-0.6-2.3c-0.4-0.5-1-0.7-1.8-0.7s-1.4,0.2-1.8,0.7
		c-0.4,0.5-0.6,1.3-0.6,2.3s0.2,1.9,0.6,2.3C929.8,108.8,930.4,109,931.3,109z"/>
	<path class="st5" d="M944.4,110.5c-0.9,0-1.5-0.2-2-0.6c-0.4-0.4-0.7-1.1-0.7-1.9v-4.7h-1.7v-1.5h1.8l0.3-2.3l1.4-0.2v2.4h2.4v1.5
		h-2.4v4.3c0,0.5,0.1,0.9,0.3,1.1s0.6,0.4,1.1,0.4c0.1,0,0.3,0,0.5,0s0.4-0.1,0.6-0.1v1.4c-0.2,0.1-0.5,0.1-0.8,0.2
		C945,110.4,944.7,110.5,944.4,110.5z"/>
	<path class="st5" d="M947.5,97.4h1.8v5.2c0.8-0.4,1.5-0.7,2-0.8s1.1-0.3,1.6-0.3c0.7,0,1.3,0.2,1.7,0.6c0.4,0.4,0.6,1,0.6,1.8v6.4
		h-1.8v-5.8c0-0.5-0.1-0.9-0.3-1.2c-0.2-0.2-0.5-0.4-1-0.4c-0.4,0-0.8,0.1-1.3,0.2c-0.5,0.2-1,0.4-1.6,0.6v6.5h-1.8V97.4z"/>
	<path class="st5" d="M961.2,110.4c-1.4,0-2.4-0.4-3.1-1.1c-0.7-0.7-1-1.8-1-3.3c0-1.5,0.3-2.6,1-3.4c0.7-0.8,1.7-1.2,3-1.2
		c2.3,0,3.5,1.3,3.5,3.9c0,0.5,0,0.9-0.1,1.2h-5.6c0.1,0.9,0.3,1.5,0.7,1.9s1,0.6,1.9,0.6c0.4,0,0.9,0,1.4-0.1
		c0.5-0.1,1-0.2,1.4-0.3l0.1,1.3c-0.4,0.2-0.9,0.3-1.5,0.4C962.2,110.4,961.7,110.4,961.2,110.4z M961,102.8c-0.7,0-1.2,0.2-1.6,0.6
		c-0.4,0.4-0.6,1.1-0.6,2h4.1c0-0.9-0.2-1.6-0.5-2C962.2,103,961.7,102.8,961,102.8z"/>
	<path class="st5" d="M972.7,110.5c-0.4,0-0.9,0-1.4-0.1c-0.5-0.1-1.1-0.2-1.7-0.3v-1.4c0.6,0.1,1.1,0.2,1.6,0.3
		c0.5,0.1,1,0.1,1.4,0.1c1.2,0,1.8-0.4,1.8-1.2c0-0.4-0.2-0.7-0.5-0.9c-0.3-0.2-0.7-0.3-1.2-0.4c-0.3-0.1-0.7-0.1-1-0.2
		c-0.4-0.1-0.7-0.2-1-0.4c-0.3-0.2-0.5-0.4-0.7-0.7c-0.2-0.3-0.3-0.7-0.3-1.3c0-0.8,0.3-1.4,0.9-1.9c0.6-0.5,1.4-0.7,2.5-0.7
		c0.2,0,0.4,0,0.6,0c0.2,0,0.4,0,0.6,0.1c0.2,0,0.4,0.1,0.7,0.1c0.2,0,0.5,0.1,0.9,0.2l-0.1,1.4c-0.6-0.1-1-0.2-1.4-0.3
		s-0.8-0.1-1.1-0.1c-0.6,0-1,0.1-1.3,0.3c-0.3,0.2-0.4,0.5-0.4,0.9c0,0.2,0,0.4,0.1,0.6c0.1,0.1,0.2,0.3,0.4,0.4
		c0.2,0.1,0.4,0.2,0.6,0.2c0.2,0.1,0.5,0.1,0.8,0.2c0.4,0.1,0.8,0.2,1.1,0.3s0.6,0.3,0.9,0.5c0.2,0.2,0.4,0.4,0.6,0.7
		s0.2,0.7,0.2,1.1c0,0.8-0.3,1.5-0.9,1.9C974.6,110.2,973.8,110.5,972.7,110.5z"/>
	<path class="st5" d="M981.4,110.5c-0.9,0-1.5-0.2-2-0.6c-0.4-0.4-0.7-1.1-0.7-1.9v-4.7H977v-1.5h1.8l0.3-2.3l1.4-0.2v2.4h2.4v1.5
		h-2.4v4.3c0,0.5,0.1,0.9,0.3,1.1c0.2,0.2,0.6,0.4,1.1,0.4c0.1,0,0.3,0,0.5,0s0.4-0.1,0.6-0.1v1.4c-0.2,0.1-0.5,0.1-0.8,0.2
		C981.9,110.4,981.6,110.5,981.4,110.5z"/>
	<path class="st5" d="M988.2,110.5c-1.4,0-2.4-0.4-3.1-1.1c-0.7-0.8-1.1-1.9-1.1-3.3c0-1.5,0.4-2.6,1.1-3.3c0.7-0.8,1.8-1.1,3.1-1.1
		s2.4,0.4,3.1,1.1s1.1,1.9,1.1,3.3c0,1.5-0.4,2.6-1.1,3.3C990.6,110.1,989.6,110.5,988.2,110.5z M988.2,109c0.8,0,1.4-0.2,1.8-0.7
		s0.6-1.3,0.6-2.3s-0.2-1.9-0.6-2.3s-1-0.7-1.8-0.7s-1.4,0.2-1.8,0.7s-0.6,1.3-0.6,2.3s0.2,1.9,0.6,2.3S987.4,109,988.2,109z"/>
	<path class="st5" d="M994.2,101.7h1.5l0.1,1.2h0.1c0.5-0.3,1.1-0.6,1.6-0.9s1-0.4,1.4-0.5h0.6v1.6h-0.6c-0.5,0.1-1,0.2-1.4,0.4
		s-0.9,0.4-1.4,0.6v6.2h-1.8V101.7z"/>
	<path class="st5" d="M1004.5,110.4c-1.4,0-2.4-0.4-3.1-1.1c-0.7-0.7-1-1.8-1-3.3c0-1.5,0.3-2.6,1-3.4c0.7-0.8,1.7-1.2,3-1.2
		c2.3,0,3.5,1.3,3.5,3.9c0,0.5,0,0.9-0.1,1.2h-5.6c0.1,0.9,0.3,1.5,0.7,1.9s1,0.6,1.9,0.6c0.4,0,0.9,0,1.4-0.1
		c0.5-0.1,1-0.2,1.4-0.3l0.1,1.3c-0.4,0.2-0.9,0.3-1.5,0.4C1005.6,110.4,1005,110.4,1004.5,110.4z M1004.4,102.8
		c-0.7,0-1.2,0.2-1.6,0.6c-0.4,0.4-0.6,1.1-0.6,2h4.1c0-0.9-0.2-1.6-0.5-2C1005.5,103,1005,102.8,1004.4,102.8z"/>
	<path class="st5" d="M1012.4,110.5c-0.4,0-0.9,0-1.4-0.1c-0.5-0.1-1.1-0.2-1.7-0.3v-1.4c0.6,0.1,1.1,0.2,1.6,0.3
		c0.5,0.1,1,0.1,1.4,0.1c1.2,0,1.8-0.4,1.8-1.2c0-0.4-0.2-0.7-0.5-0.9c-0.3-0.2-0.7-0.3-1.2-0.4c-0.3-0.1-0.7-0.1-1-0.2
		c-0.4-0.1-0.7-0.2-1-0.4c-0.3-0.2-0.5-0.4-0.7-0.7c-0.2-0.3-0.3-0.7-0.3-1.3c0-0.8,0.3-1.4,0.9-1.9c0.6-0.5,1.4-0.7,2.5-0.7
		c0.2,0,0.4,0,0.6,0c0.2,0,0.4,0,0.6,0.1c0.2,0,0.4,0.1,0.7,0.1c0.2,0,0.5,0.1,0.9,0.2l-0.1,1.4c-0.6-0.1-1-0.2-1.4-0.3
		s-0.8-0.1-1.1-0.1c-0.6,0-1,0.1-1.3,0.3c-0.3,0.2-0.4,0.5-0.4,0.9c0,0.2,0,0.4,0.1,0.6c0.1,0.1,0.2,0.3,0.4,0.4
		c0.2,0.1,0.4,0.2,0.6,0.2c0.2,0.1,0.5,0.1,0.8,0.2c0.4,0.1,0.8,0.2,1.1,0.3s0.6,0.3,0.9,0.5c0.2,0.2,0.4,0.4,0.6,0.7
		s0.2,0.7,0.2,1.1c0,0.8-0.3,1.5-0.9,1.9C1014.3,110.2,1013.5,110.5,1012.4,110.5z"/>
	<path class="st5" d="M1019,97.3c0.1,0.4,0.2,0.8,0.2,1.4c0,0.5-0.1,1.1-0.3,1.7c-0.2,0.6-0.4,1.2-0.8,1.6l-1-0.1
		c0.2-0.4,0.3-0.8,0.4-1.4c0.1-0.5,0.1-1,0.1-1.5c0-0.3,0-0.6-0.1-0.8c0-0.3-0.1-0.6-0.2-0.9L1019,97.3z"/>
	<path class="st5" d="M1028.5,110.5c-1.4,0-2.4-0.4-3.1-1.1c-0.7-0.8-1.1-1.9-1.1-3.3c0-1.5,0.4-2.6,1.1-3.3s1.8-1.1,3.1-1.1
		s2.4,0.4,3.1,1.1c0.7,0.8,1.1,1.9,1.1,3.3c0,1.5-0.4,2.6-1.1,3.3C1030.9,110.1,1029.8,110.5,1028.5,110.5z M1028.5,109
		c0.8,0,1.4-0.2,1.8-0.7c0.4-0.5,0.6-1.3,0.6-2.3s-0.2-1.9-0.6-2.3c-0.4-0.5-1-0.7-1.8-0.7s-1.4,0.2-1.8,0.7
		c-0.4,0.5-0.6,1.3-0.6,2.3s0.2,1.9,0.6,2.3C1027,108.8,1027.7,109,1028.5,109z"/>
	<path class="st5" d="M1033.7,101.8L1033.7,101.8l1.7-0.1l1.4,5.7l0.3,1.2h0.1l0.3-1.2l1.6-5.7h1.6l1.6,5.7l0.3,1.2h0.1l0.3-1.2
		l1.3-5.7h1.7v0.1l-2.3,8.5h-2l-1.6-5.4l-0.2-1.1h-0.1l-0.2,1.1l-1.5,5.4h-2L1033.7,101.8z"/>
	<path class="st5" d="M1047.5,101.7h1.5l0.1,1h0.1c0.8-0.4,1.5-0.7,2.1-0.9c0.6-0.2,1.1-0.3,1.6-0.3c0.7,0,1.3,0.2,1.7,0.6
		c0.4,0.4,0.6,1,0.6,1.8v6.4h-1.8v-5.8c0-0.5-0.1-0.9-0.3-1.2c-0.2-0.2-0.5-0.4-1-0.4c-0.4,0-0.8,0.1-1.3,0.2
		c-0.5,0.2-1,0.4-1.6,0.6v6.5h-1.8V101.7z"/>
	<path class="st5" d="M1061.2,110.4c-1.4,0-2.4-0.4-3.1-1.1c-0.7-0.7-1-1.8-1-3.3c0-1.5,0.3-2.6,1-3.4c0.7-0.8,1.7-1.2,3-1.2
		c2.3,0,3.5,1.3,3.5,3.9c0,0.5,0,0.9-0.1,1.2h-5.6c0.1,0.9,0.3,1.5,0.7,1.9s1,0.6,1.9,0.6c0.4,0,0.9,0,1.4-0.1
		c0.5-0.1,1-0.2,1.4-0.3l0.1,1.3c-0.4,0.2-0.9,0.3-1.5,0.4C1062.2,110.4,1061.7,110.4,1061.2,110.4z M1061,102.8
		c-0.7,0-1.2,0.2-1.6,0.6c-0.4,0.4-0.6,1.1-0.6,2h4.1c0-0.9-0.2-1.6-0.5-2C1062.2,103,1061.7,102.8,1061,102.8z"/>
	<path class="st5" d="M1066.4,101.7h1.5l0.1,1.2h0.1c0.5-0.3,1.1-0.6,1.6-0.9s1-0.4,1.4-0.5h0.6v1.6h-0.6c-0.5,0.1-1,0.2-1.4,0.4
		s-0.9,0.4-1.4,0.6v6.2h-1.8V101.7z"/>
	<path class="st5" d="M1075.6,110.5c-0.4,0-0.9,0-1.4-0.1c-0.5-0.1-1.1-0.2-1.7-0.3v-1.4c0.6,0.1,1.1,0.2,1.6,0.3s1,0.1,1.4,0.1
		c1.2,0,1.8-0.4,1.8-1.2c0-0.4-0.2-0.7-0.5-0.9c-0.3-0.2-0.7-0.3-1.2-0.4c-0.3-0.1-0.7-0.1-1-0.2c-0.4-0.1-0.7-0.2-1-0.4
		s-0.5-0.4-0.7-0.7c-0.2-0.3-0.3-0.7-0.3-1.3c0-0.8,0.3-1.4,0.9-1.9c0.6-0.5,1.4-0.7,2.5-0.7c0.2,0,0.4,0,0.6,0c0.2,0,0.4,0,0.6,0.1
		c0.2,0,0.4,0.1,0.7,0.1c0.3,0,0.5,0.1,0.9,0.2l-0.1,1.4c-0.6-0.1-1-0.2-1.4-0.3c-0.4-0.1-0.8-0.1-1.1-0.1c-0.6,0-1,0.1-1.3,0.3
		s-0.4,0.5-0.4,0.9c0,0.2,0,0.4,0.1,0.6c0.1,0.1,0.2,0.3,0.4,0.4c0.2,0.1,0.4,0.2,0.6,0.2c0.2,0.1,0.5,0.1,0.8,0.2
		c0.4,0.1,0.8,0.2,1.1,0.3s0.6,0.3,0.9,0.5c0.2,0.2,0.4,0.4,0.6,0.7s0.2,0.7,0.2,1.1c0,0.8-0.3,1.5-0.9,1.9
		C1077.5,110.2,1076.7,110.5,1075.6,110.5z"/>
</g>
<g>
	<path class="st5" d="M285.4,79.3h1.9l2.8,7.7l0.8,2.4h0.1l0.8-2.4l2.8-7.7h1.9l-4.2,11.8h-2.4L285.4,79.3z"/>
	<path class="st5" d="M299.4,91.2c-0.8,0-1.4-0.2-1.8-0.6c-0.4-0.4-0.6-1-0.6-1.7c0-0.8,0.3-1.5,0.8-1.9c0.5-0.4,1.4-0.7,2.5-0.8
		l2-0.2v-0.5c0-0.4,0-0.6-0.1-0.9s-0.2-0.4-0.3-0.6c-0.2-0.1-0.4-0.2-0.6-0.3s-0.6-0.1-1-0.1c-0.4,0-0.8,0-1.2,0.1
		c-0.4,0-0.9,0.1-1.4,0.2l-0.1-1.3c1.1-0.2,2.1-0.3,3.1-0.3c1.2,0,2.1,0.2,2.6,0.7c0.6,0.5,0.9,1.2,0.9,2.2v5.9h-1.5l-0.2-1.1h-0.1
		c-0.5,0.4-1,0.7-1.5,0.9C300.5,91.1,300,91.2,299.4,91.2z M300.1,89.9c0.4,0,0.7-0.1,1.1-0.2c0.4-0.2,0.8-0.4,1.1-0.6v-2l-1.5,0.1
		c-0.7,0.1-1.3,0.2-1.6,0.4s-0.4,0.6-0.4,1.1C298.9,89.5,299.3,89.9,300.1,89.9z"/>
	<path class="st5" d="M306.4,78.2h1.8v12.9h-1.8V78.2z"/>
	<path class="st5" d="M311.4,80.8c-0.4,0-0.6-0.1-0.8-0.2c-0.2-0.2-0.2-0.4-0.2-0.8c0-0.4,0.1-0.6,0.2-0.8c0.2-0.2,0.4-0.2,0.8-0.2
		s0.6,0.1,0.8,0.3c0.2,0.2,0.2,0.4,0.2,0.8s-0.1,0.6-0.2,0.8C312.1,80.7,311.8,80.8,311.4,80.8z M310.5,82.5h1.8v8.6h-1.8V82.5z"/>
	<path class="st5" d="M317.8,91.3c-1.2,0-2.1-0.4-2.7-1.1c-0.6-0.7-0.9-1.8-0.9-3.3c0-0.8,0.1-1.4,0.3-2c0.2-0.6,0.5-1.1,0.9-1.4
		c0.4-0.4,0.9-0.7,1.4-0.9c0.5-0.2,1.2-0.3,1.8-0.3c0.3,0,0.7,0,1,0c0.3,0,0.6,0.1,0.9,0.1v-4.3h1.8v12.9h-1.6l-0.1-1.1h-0.1
		C319.9,90.9,319,91.3,317.8,91.3z M318.3,89.9c0.3,0,0.6,0,0.9-0.1c0.3-0.1,0.5-0.2,0.7-0.4s0.4-0.4,0.5-0.6
		c0.1-0.2,0.2-0.5,0.2-0.8v-4.2c-0.3-0.1-0.6-0.1-0.9-0.1c-0.3,0-0.7,0-1,0c-0.9,0-1.5,0.2-2,0.7c-0.4,0.5-0.6,1.3-0.6,2.5
		c0,1.1,0.2,1.9,0.5,2.4S317.5,89.9,318.3,89.9z"/>
	<path class="st5" d="M326.4,91.2c-0.8,0-1.4-0.2-1.8-0.6c-0.4-0.4-0.6-1-0.6-1.7c0-0.8,0.3-1.5,0.8-1.9c0.5-0.4,1.4-0.7,2.5-0.8
		l2-0.2v-0.5c0-0.4,0-0.6-0.1-0.9s-0.2-0.4-0.3-0.6c-0.2-0.1-0.4-0.2-0.6-0.3s-0.6-0.1-1-0.1c-0.4,0-0.8,0-1.2,0.1
		c-0.4,0-0.9,0.1-1.4,0.2l-0.1-1.3c1.1-0.2,2.1-0.3,3.1-0.3c1.2,0,2.1,0.2,2.6,0.7c0.6,0.5,0.9,1.2,0.9,2.2v5.9h-1.5l-0.2-1.1h-0.1
		c-0.5,0.4-1,0.7-1.5,0.9C327.4,91.1,326.9,91.2,326.4,91.2z M327.1,89.9c0.4,0,0.7-0.1,1.1-0.2c0.4-0.2,0.8-0.4,1.1-0.6v-2
		l-1.5,0.1c-0.7,0.1-1.3,0.2-1.6,0.4s-0.4,0.6-0.4,1.1C325.8,89.5,326.2,89.9,327.1,89.9z"/>
	<path class="st5" d="M336.8,91.3c-0.9,0-1.5-0.2-2-0.6c-0.4-0.4-0.7-1.1-0.7-1.9V84h-1.7v-1.5h1.8l0.3-2.3L336,80v2.4h2.4V84H336
		v4.3c0,0.5,0.1,0.9,0.3,1.1c0.2,0.2,0.6,0.4,1.1,0.4c0.1,0,0.3,0,0.5,0s0.4-0.1,0.6-0.1v1.4c-0.2,0.1-0.5,0.1-0.8,0.2
		C337.4,91.2,337.1,91.3,336.8,91.3z"/>
	<path class="st5" d="M343.7,91.2c-1.4,0-2.4-0.4-3.1-1.1s-1-1.8-1-3.3c0-1.5,0.3-2.6,1-3.4c0.7-0.8,1.7-1.2,3-1.2
		c2.3,0,3.5,1.3,3.5,3.9c0,0.5,0,0.9-0.1,1.2h-5.6c0.1,0.9,0.3,1.5,0.7,1.9c0.4,0.4,1,0.6,1.9,0.6c0.4,0,0.9,0,1.4-0.1
		c0.5-0.1,1-0.2,1.4-0.3l0.1,1.3c-0.4,0.2-0.9,0.3-1.5,0.4C344.7,91.2,344.2,91.2,343.7,91.2z M343.5,83.6c-0.7,0-1.2,0.2-1.6,0.6
		c-0.4,0.4-0.6,1.1-0.6,2h4.1c0-0.9-0.2-1.6-0.5-2S344.2,83.6,343.5,83.6z"/>
	<path class="st5" d="M356,91.3c-0.9,0-1.5-0.2-2-0.6c-0.4-0.4-0.7-1.1-0.7-1.9V84h-1.7v-1.5h1.8l0.3-2.3l1.4-0.2v2.4h2.4V84h-2.4
		v4.3c0,0.5,0.1,0.9,0.3,1.1c0.2,0.2,0.6,0.4,1.1,0.4c0.1,0,0.3,0,0.5,0s0.4-0.1,0.6-0.1v1.4c-0.2,0.1-0.5,0.1-0.8,0.2
		C356.6,91.2,356.3,91.3,356,91.3z"/>
	<path class="st5" d="M359.1,78.2h1.8v5.2c0.8-0.4,1.5-0.7,2-0.8s1.1-0.3,1.6-0.3c0.7,0,1.3,0.2,1.7,0.6s0.6,1,0.6,1.8v6.4H365v-5.8
		c0-0.5-0.1-0.9-0.3-1.2c-0.2-0.2-0.5-0.4-1-0.4c-0.4,0-0.8,0.1-1.3,0.2c-0.5,0.2-1,0.4-1.6,0.6v6.5h-1.8V78.2z"/>
	<path class="st5" d="M372.8,91.2c-1.4,0-2.4-0.4-3.1-1.1s-1-1.8-1-3.3c0-1.5,0.3-2.6,1-3.4c0.7-0.8,1.7-1.2,3-1.2
		c2.3,0,3.5,1.3,3.5,3.9c0,0.5,0,0.9-0.1,1.2h-5.6c0.1,0.9,0.3,1.5,0.7,1.9c0.4,0.4,1,0.6,1.9,0.6c0.4,0,0.9,0,1.4-0.1
		c0.5-0.1,1-0.2,1.4-0.3l0.1,1.3c-0.4,0.2-0.9,0.3-1.5,0.4C373.8,91.2,373.3,91.2,372.8,91.2z M372.6,83.6c-0.7,0-1.2,0.2-1.6,0.6
		c-0.4,0.4-0.6,1.1-0.6,2h4.1c0-0.9-0.2-1.6-0.5-2S373.3,83.6,372.6,83.6z"/>
	<path class="st5" d="M278.6,97.4h1.8v5.2c0.8-0.4,1.5-0.7,2-0.8s1.1-0.3,1.6-0.3c0.7,0,1.3,0.2,1.7,0.6s0.6,1,0.6,1.8v6.4h-1.8
		v-5.8c0-0.5-0.1-0.9-0.3-1.2c-0.2-0.2-0.5-0.4-1-0.4c-0.4,0-0.8,0.1-1.3,0.2c-0.5,0.2-1,0.4-1.6,0.6v6.5h-1.8V97.4z"/>
	<path class="st5" d="M289.4,100c-0.4,0-0.6-0.1-0.8-0.2c-0.2-0.2-0.2-0.4-0.2-0.8c0-0.4,0.1-0.6,0.2-0.8c0.2-0.2,0.4-0.2,0.8-0.2
		s0.6,0.1,0.8,0.3c0.2,0.2,0.2,0.4,0.2,0.8s-0.1,0.6-0.2,0.8C290,99.9,289.8,100,289.4,100z M288.5,101.7h1.8v8.6h-1.8V101.7z"/>
	<path class="st5" d="M295.2,110.5c-0.4,0-0.9,0-1.4-0.1s-1.1-0.2-1.7-0.3v-1.4c0.6,0.1,1.1,0.2,1.6,0.3c0.5,0.1,1,0.1,1.4,0.1
		c1.2,0,1.8-0.4,1.8-1.2c0-0.4-0.2-0.7-0.5-0.9c-0.3-0.2-0.7-0.3-1.2-0.4c-0.3-0.1-0.7-0.1-1-0.2c-0.4-0.1-0.7-0.2-1-0.4
		c-0.3-0.2-0.5-0.4-0.7-0.7c-0.2-0.3-0.3-0.7-0.3-1.3c0-0.8,0.3-1.4,0.9-1.9c0.6-0.5,1.4-0.7,2.5-0.7c0.2,0,0.4,0,0.6,0
		c0.2,0,0.4,0,0.6,0.1s0.4,0.1,0.7,0.1s0.5,0.1,0.9,0.2l-0.1,1.4c-0.6-0.1-1-0.2-1.4-0.3c-0.4-0.1-0.8-0.1-1.1-0.1
		c-0.6,0-1,0.1-1.3,0.3c-0.3,0.2-0.4,0.5-0.4,0.9c0,0.2,0,0.4,0.1,0.6c0.1,0.1,0.2,0.3,0.4,0.4c0.2,0.1,0.4,0.2,0.6,0.2
		c0.2,0.1,0.5,0.1,0.8,0.2c0.4,0.1,0.8,0.2,1.1,0.3s0.6,0.3,0.9,0.5c0.2,0.2,0.4,0.4,0.6,0.7s0.2,0.7,0.2,1.1c0,0.8-0.3,1.5-0.9,1.9
		C297.2,110.2,296.3,110.5,295.2,110.5z"/>
	<path class="st5" d="M303.9,110.5c-0.9,0-1.5-0.2-2-0.6c-0.4-0.4-0.7-1.1-0.7-1.9v-4.7h-1.7v-1.5h1.8l0.3-2.3l1.4-0.2v2.4h2.4v1.5
		h-2.4v4.3c0,0.5,0.1,0.9,0.3,1.1c0.2,0.2,0.6,0.4,1.1,0.4c0.1,0,0.3,0,0.5,0s0.4-0.1,0.6-0.1v1.4c-0.2,0.1-0.5,0.1-0.8,0.2
		C304.5,110.4,304.2,110.5,303.9,110.5z"/>
	<path class="st5" d="M310.8,110.5c-1.4,0-2.4-0.4-3.1-1.1c-0.7-0.8-1.1-1.9-1.1-3.3c0-1.5,0.4-2.6,1.1-3.3c0.7-0.8,1.8-1.1,3.1-1.1
		s2.4,0.4,3.1,1.1c0.7,0.8,1.1,1.9,1.1,3.3c0,1.5-0.4,2.6-1.1,3.3C313.2,110.1,312.1,110.5,310.8,110.5z M310.8,109
		c0.8,0,1.4-0.2,1.8-0.7c0.4-0.5,0.6-1.3,0.6-2.3s-0.2-1.9-0.6-2.3c-0.4-0.5-1-0.7-1.8-0.7s-1.4,0.2-1.8,0.7
		c-0.4,0.5-0.6,1.3-0.6,2.3s0.2,1.9,0.6,2.3C309.3,108.8,309.9,109,310.8,109z"/>
	<path class="st5" d="M316.8,101.7h1.5l0.1,1.2h0.1c0.5-0.3,1.1-0.6,1.6-0.9s1-0.4,1.4-0.5h0.6v1.6h-0.6c-0.5,0.1-1,0.2-1.4,0.4
		s-0.9,0.4-1.4,0.6v6.2h-1.8V101.7z"/>
	<path class="st5" d="M324.3,100c-0.4,0-0.6-0.1-0.8-0.2c-0.2-0.2-0.2-0.4-0.2-0.8c0-0.4,0.1-0.6,0.2-0.8c0.2-0.2,0.4-0.2,0.8-0.2
		s0.6,0.1,0.8,0.3c0.2,0.2,0.2,0.4,0.2,0.8s-0.1,0.6-0.2,0.8C324.9,99.9,324.6,100,324.3,100z M323.4,101.7h1.8v8.6h-1.8V101.7z"/>
	<path class="st5" d="M331.2,110.4c-2.8,0-4.2-1.5-4.2-4.4c0-3,1.4-4.5,4.2-4.5c0.4,0,0.7,0,1.1,0.1c0.4,0,0.8,0.1,1.1,0.2v1.5
		c-0.3-0.1-0.7-0.1-1-0.2c-0.3,0-0.7-0.1-1-0.1c-0.9,0-1.6,0.2-2,0.7s-0.6,1.2-0.6,2.3c0,1,0.2,1.8,0.6,2.3c0.4,0.5,1.1,0.7,2,0.7
		c0.4,0,0.7,0,1.1,0c0.3,0,0.6-0.1,1-0.2v1.4c-0.3,0.1-0.6,0.1-1,0.2C332,110.4,331.6,110.4,331.2,110.4z"/>
	<path class="st5" d="M337.1,110.4c-0.8,0-1.4-0.2-1.8-0.6c-0.4-0.4-0.6-1-0.6-1.7c0-0.8,0.3-1.5,0.8-1.9c0.5-0.4,1.4-0.7,2.5-0.8
		l2-0.2v-0.5c0-0.4,0-0.6-0.1-0.9s-0.2-0.4-0.3-0.6c-0.2-0.1-0.4-0.2-0.6-0.3s-0.6-0.1-1-0.1c-0.4,0-0.8,0-1.2,0.1
		c-0.4,0-0.9,0.1-1.4,0.2l-0.1-1.3c1.1-0.2,2.1-0.3,3.1-0.3c1.2,0,2.1,0.2,2.6,0.7c0.6,0.5,0.9,1.2,0.9,2.2v5.9h-1.5l-0.2-1.1h-0.1
		c-0.5,0.4-1,0.7-1.5,0.9C338.1,110.3,337.6,110.4,337.1,110.4z M337.8,109.1c0.4,0,0.7-0.1,1.1-0.2c0.4-0.2,0.8-0.4,1.1-0.6v-2
		l-1.5,0.1c-0.7,0.1-1.3,0.2-1.6,0.4s-0.4,0.6-0.4,1.1C336.5,108.7,336.9,109.1,337.8,109.1z"/>
	<path class="st5" d="M344.1,97.4h1.8v12.9h-1.8V97.4z"/>
	<path class="st5" d="M355,110.5c-1.2,0-2.1-0.4-2.7-1.1c-0.6-0.7-0.9-1.8-0.9-3.3c0-0.8,0.1-1.4,0.3-2c0.2-0.6,0.5-1.1,0.9-1.4
		c0.4-0.4,0.9-0.7,1.4-0.9c0.5-0.2,1.2-0.3,1.8-0.3c0.3,0,0.7,0,1,0c0.3,0,0.6,0.1,0.9,0.1v-4.3h1.8v12.9h-1.6l-0.1-1.1h-0.1
		C357.1,110.1,356.2,110.5,355,110.5z M355.5,109.1c0.3,0,0.6,0,0.9-0.1c0.3-0.1,0.5-0.2,0.7-0.4s0.4-0.4,0.5-0.6
		c0.1-0.2,0.2-0.5,0.2-0.8V103c-0.3-0.1-0.6-0.1-0.9-0.1c-0.3,0-0.7,0-1,0c-0.9,0-1.5,0.2-2,0.7c-0.4,0.5-0.6,1.3-0.6,2.5
		c0,1.1,0.2,1.9,0.5,2.4S354.7,109.1,355.5,109.1z"/>
	<path class="st5" d="M363.6,110.4c-0.8,0-1.4-0.2-1.8-0.6c-0.4-0.4-0.6-1-0.6-1.7c0-0.8,0.3-1.5,0.8-1.9c0.5-0.4,1.4-0.7,2.5-0.8
		l2-0.2v-0.5c0-0.4,0-0.6-0.1-0.9s-0.2-0.4-0.3-0.6c-0.2-0.1-0.4-0.2-0.6-0.3s-0.6-0.1-1-0.1c-0.4,0-0.8,0-1.2,0.1
		c-0.4,0-0.9,0.1-1.4,0.2l-0.1-1.3c1.1-0.2,2.1-0.3,3.1-0.3c1.2,0,2.1,0.2,2.6,0.7c0.6,0.5,0.9,1.2,0.9,2.2v5.9h-1.5l-0.2-1.1h-0.1
		c-0.5,0.4-1,0.7-1.5,0.9C364.6,110.3,364.1,110.4,363.6,110.4z M364.3,109.1c0.4,0,0.7-0.1,1.1-0.2c0.4-0.2,0.8-0.4,1.1-0.6v-2
		l-1.5,0.1c-0.7,0.1-1.3,0.2-1.6,0.4s-0.4,0.6-0.4,1.1C363,108.7,363.4,109.1,364.3,109.1z"/>
	<path class="st5" d="M374,110.5c-0.9,0-1.5-0.2-2-0.6c-0.4-0.4-0.7-1.1-0.7-1.9v-4.7h-1.7v-1.5h1.8l0.3-2.3l1.4-0.2v2.4h2.4v1.5
		h-2.4v4.3c0,0.5,0.1,0.9,0.3,1.1c0.2,0.2,0.6,0.4,1.1,0.4c0.1,0,0.3,0,0.5,0s0.4-0.1,0.6-0.1v1.4c-0.2,0.1-0.5,0.1-0.8,0.2
		C374.6,110.4,374.3,110.5,374,110.5z"/>
	<path class="st5" d="M379,110.4c-0.8,0-1.4-0.2-1.8-0.6c-0.4-0.4-0.6-1-0.6-1.7c0-0.8,0.3-1.5,0.8-1.9c0.5-0.4,1.4-0.7,2.5-0.8
		l2-0.2v-0.5c0-0.4,0-0.6-0.1-0.9s-0.2-0.4-0.3-0.6c-0.2-0.1-0.4-0.2-0.6-0.3s-0.6-0.1-1-0.1c-0.4,0-0.8,0-1.2,0.1
		c-0.4,0-0.9,0.1-1.4,0.2l-0.1-1.3c1.1-0.2,2.1-0.3,3.1-0.3c1.2,0,2.1,0.2,2.6,0.7c0.6,0.5,0.9,1.2,0.9,2.2v5.9h-1.5l-0.2-1.1h-0.1
		c-0.5,0.4-1,0.7-1.5,0.9C380,110.3,379.5,110.4,379,110.4z M379.6,109.1c0.4,0,0.7-0.1,1.1-0.2c0.4-0.2,0.8-0.4,1.1-0.6v-2
		l-1.5,0.1c-0.7,0.1-1.3,0.2-1.6,0.4s-0.4,0.6-0.4,1.1C378.4,108.7,378.8,109.1,379.6,109.1z"/>
</g>
<g>
	<g>
		<path class="st5" d="M490.9,347.1c-0.6,0-1.2,0-1.9-0.1s-1.4-0.2-2-0.4v-1.5c0.7,0.2,1.3,0.3,2,0.4c0.7,0.1,1.3,0.1,1.8,0.1
			c1.8,0,2.7-0.6,2.7-1.8c0-0.3-0.1-0.6-0.2-0.8c-0.1-0.2-0.3-0.4-0.5-0.6s-0.5-0.3-0.8-0.4c-0.3-0.1-0.7-0.2-1-0.3
			c-0.6-0.2-1.2-0.3-1.6-0.5c-0.5-0.2-0.8-0.4-1.1-0.7c-0.3-0.3-0.5-0.6-0.7-1s-0.2-0.8-0.2-1.3c0-0.5,0.1-1,0.3-1.4
			c0.2-0.4,0.5-0.8,0.8-1c0.4-0.3,0.8-0.5,1.3-0.7c0.5-0.2,1.1-0.2,1.8-0.2c0.5,0,1,0,1.5,0.1c0.5,0.1,1.1,0.2,1.8,0.3v1.5
			c-0.5-0.1-1-0.2-1.6-0.3c-0.6-0.1-1.1-0.1-1.5-0.1c-0.8,0-1.4,0.2-1.9,0.5c-0.4,0.3-0.7,0.8-0.7,1.3c0,0.5,0.2,1,0.6,1.3
			c0.4,0.3,1.1,0.6,2,0.8c0.6,0.1,1.1,0.3,1.5,0.5c0.4,0.2,0.8,0.4,1.2,0.7c0.3,0.3,0.6,0.6,0.7,1c0.2,0.4,0.3,0.8,0.3,1.4
			c0,1.1-0.4,1.9-1.1,2.5C493.5,346.8,492.4,347.1,490.9,347.1z"/>
		<path class="st5" d="M500.8,347c-1.4,0-2.4-0.4-3.1-1.1s-1-1.8-1-3.3c0-1.5,0.3-2.6,1-3.4c0.7-0.8,1.7-1.2,3-1.2
			c2.3,0,3.5,1.3,3.5,3.9c0,0.5,0,0.9-0.1,1.2h-5.6c0.1,0.9,0.3,1.5,0.7,1.9c0.4,0.4,1,0.6,1.9,0.6c0.4,0,0.9,0,1.4-0.1
			s1-0.2,1.4-0.3l0.1,1.3c-0.4,0.2-0.9,0.3-1.5,0.4C501.8,347,501.3,347,500.8,347z M500.6,339.4c-0.7,0-1.2,0.2-1.6,0.6
			s-0.6,1.1-0.6,2h4.1c0-0.9-0.2-1.6-0.5-2S501.3,339.4,500.6,339.4z"/>
		<path class="st5" d="M506,338.3h1.5l0.1,1h0.1c0.8-0.4,1.5-0.7,2.1-0.9c0.6-0.2,1.1-0.3,1.6-0.3c0.7,0,1.3,0.2,1.7,0.6
			s0.6,1,0.6,1.8v6.4h-1.8v-5.8c0-0.5-0.1-0.9-0.3-1.2c-0.2-0.2-0.5-0.4-1-0.4c-0.4,0-0.8,0.1-1.3,0.2c-0.5,0.2-1,0.4-1.6,0.6v6.5
			H506V338.3z"/>
		<path class="st5" d="M519.1,347.1c-1.2,0-2.1-0.4-2.7-1.1c-0.6-0.7-0.9-1.8-0.9-3.3c0-0.8,0.1-1.4,0.3-2s0.5-1.1,0.9-1.4
			c0.4-0.4,0.9-0.7,1.4-0.9c0.5-0.2,1.2-0.3,1.8-0.3c0.3,0,0.7,0,1,0c0.3,0,0.6,0.1,0.9,0.1V334h1.8v12.9H522l-0.1-1.1h-0.1
			C521.1,346.7,520.3,347.1,519.1,347.1z M519.5,345.7c0.3,0,0.6,0,0.9-0.1c0.3-0.1,0.5-0.2,0.7-0.4s0.4-0.4,0.5-0.6
			c0.1-0.2,0.2-0.5,0.2-0.8v-4.2c-0.3-0.1-0.6-0.1-0.9-0.1c-0.3,0-0.7,0-1,0c-0.9,0-1.5,0.2-2,0.7c-0.4,0.5-0.6,1.3-0.6,2.5
			c0,1.1,0.2,1.9,0.5,2.4C518.2,345.4,518.7,345.7,519.5,345.7z"/>
		<path class="st5" d="M532.9,347.1c-0.6,0-1.2,0-1.9-0.1s-1.4-0.2-2-0.4v-1.5c0.7,0.2,1.3,0.3,2,0.4c0.7,0.1,1.3,0.1,1.8,0.1
			c1.8,0,2.7-0.6,2.7-1.8c0-0.3-0.1-0.6-0.2-0.8c-0.1-0.2-0.3-0.4-0.5-0.6s-0.5-0.3-0.8-0.4c-0.3-0.1-0.7-0.2-1-0.3
			c-0.6-0.2-1.2-0.3-1.6-0.5c-0.5-0.2-0.8-0.4-1.1-0.7c-0.3-0.3-0.5-0.6-0.7-1s-0.2-0.8-0.2-1.3c0-0.5,0.1-1,0.3-1.4
			c0.2-0.4,0.5-0.8,0.8-1c0.4-0.3,0.8-0.5,1.3-0.7c0.5-0.2,1.1-0.2,1.8-0.2c0.5,0,1,0,1.5,0.1c0.5,0.1,1.1,0.2,1.8,0.3v1.5
			c-0.5-0.1-1-0.2-1.6-0.3c-0.6-0.1-1.1-0.1-1.5-0.1c-0.8,0-1.4,0.2-1.9,0.5c-0.4,0.3-0.7,0.8-0.7,1.3c0,0.5,0.2,1,0.6,1.3
			c0.4,0.3,1.1,0.6,2,0.8c0.6,0.1,1.1,0.3,1.5,0.5c0.4,0.2,0.8,0.4,1.2,0.7c0.3,0.3,0.6,0.6,0.7,1c0.2,0.4,0.3,0.8,0.3,1.4
			c0,1.1-0.4,1.9-1.1,2.5C535.4,346.8,534.3,347.1,532.9,347.1z"/>
		<path class="st5" d="M539.2,335.1h2.5l2.8,6.8l0.9,2.5h0.1l0.9-2.5l2.8-6.8h2.5v11.8h-1.6v-9.6H550l-1.3,3.3l-2.4,5.9h-1.6
			l-2.4-5.9l-1.3-3.3h-0.1v9.6h-1.6V335.1z"/>
		<path class="st5" d="M557.6,347.1c-0.6,0-1.2,0-1.9-0.1s-1.4-0.2-2-0.4v-1.5c0.7,0.2,1.3,0.3,2,0.4c0.7,0.1,1.3,0.1,1.8,0.1
			c1.8,0,2.7-0.6,2.7-1.8c0-0.3-0.1-0.6-0.2-0.8c-0.1-0.2-0.3-0.4-0.5-0.6s-0.5-0.3-0.8-0.4c-0.3-0.1-0.7-0.2-1-0.3
			c-0.6-0.2-1.2-0.3-1.6-0.5c-0.5-0.2-0.8-0.4-1.1-0.7c-0.3-0.3-0.5-0.6-0.7-1s-0.2-0.8-0.2-1.3c0-0.5,0.1-1,0.3-1.4
			c0.2-0.4,0.5-0.8,0.8-1c0.4-0.3,0.8-0.5,1.3-0.7c0.5-0.2,1.1-0.2,1.8-0.2c0.5,0,1,0,1.5,0.1c0.5,0.1,1.1,0.2,1.8,0.3v1.5
			c-0.5-0.1-1-0.2-1.6-0.3c-0.6-0.1-1.1-0.1-1.5-0.1c-0.8,0-1.4,0.2-1.9,0.5c-0.4,0.3-0.7,0.8-0.7,1.3c0,0.5,0.2,1,0.6,1.3
			c0.4,0.3,1.1,0.6,2,0.8c0.6,0.1,1.1,0.3,1.5,0.5c0.4,0.2,0.8,0.4,1.2,0.7c0.3,0.3,0.6,0.6,0.7,1c0.2,0.4,0.3,0.8,0.3,1.4
			c0,1.1-0.4,1.9-1.1,2.5C560.2,346.8,559.1,347.1,557.6,347.1z"/>
		<path class="st5" d="M567.4,338.3h1.5l0.1,1h0.1c0.7-0.4,1.2-0.7,1.7-0.9c0.5-0.2,1-0.3,1.4-0.3c1,0,1.7,0.4,2.1,1.2h0.1
			c0.7-0.4,1.3-0.7,1.8-0.9c0.5-0.2,1-0.3,1.4-0.3c0.7,0,1.3,0.2,1.7,0.6s0.6,1,0.6,1.8v6.4h-1.8v-5.8c0-0.5-0.1-0.9-0.3-1.2
			c-0.2-0.2-0.5-0.3-1-0.3c-0.3,0-0.6,0.1-1,0.2s-0.8,0.3-1.2,0.6v6.5h-1.8v-5.8c0-0.5-0.1-0.9-0.3-1.2s-0.5-0.3-1-0.3
			c-0.3,0-0.7,0.1-1.1,0.2s-0.8,0.3-1.2,0.6v6.5h-1.8V338.3z"/>
		<path class="st5" d="M585.8,347c-1.4,0-2.4-0.4-3.1-1.1c-0.7-0.7-1-1.8-1-3.3c0-1.5,0.3-2.6,1-3.4c0.7-0.8,1.7-1.2,3-1.2
			c2.3,0,3.5,1.3,3.5,3.9c0,0.5,0,0.9-0.1,1.2h-5.6c0.1,0.9,0.3,1.5,0.7,1.9c0.4,0.4,1,0.6,1.9,0.6c0.4,0,0.9,0,1.4-0.1
			c0.5-0.1,1-0.2,1.4-0.3l0.1,1.3c-0.4,0.2-0.9,0.3-1.5,0.4S586.3,347,585.8,347z M585.7,339.4c-0.7,0-1.2,0.2-1.6,0.6
			s-0.6,1.1-0.6,2h4.1c0-0.9-0.2-1.6-0.5-2C586.8,339.6,586.3,339.4,585.7,339.4z"/>
		<path class="st5" d="M593.7,347.1c-0.4,0-0.9,0-1.4-0.1c-0.5-0.1-1.1-0.2-1.7-0.3v-1.4c0.6,0.1,1.1,0.2,1.6,0.3s1,0.1,1.4,0.1
			c1.2,0,1.8-0.4,1.8-1.2c0-0.4-0.2-0.7-0.5-0.9c-0.3-0.2-0.7-0.3-1.2-0.4c-0.3-0.1-0.7-0.1-1-0.2s-0.7-0.2-1-0.4
			c-0.3-0.2-0.5-0.4-0.7-0.7c-0.2-0.3-0.3-0.7-0.3-1.3c0-0.8,0.3-1.4,0.9-1.9c0.6-0.5,1.4-0.7,2.5-0.7c0.2,0,0.4,0,0.6,0
			c0.2,0,0.4,0,0.6,0.1c0.2,0,0.4,0.1,0.7,0.1c0.3,0,0.5,0.1,0.9,0.2l-0.1,1.4c-0.6-0.1-1-0.2-1.4-0.3c-0.4-0.1-0.8-0.1-1.1-0.1
			c-0.6,0-1,0.1-1.3,0.3s-0.4,0.5-0.4,0.9c0,0.2,0,0.4,0.1,0.6c0.1,0.1,0.2,0.3,0.4,0.4c0.2,0.1,0.4,0.2,0.6,0.2
			c0.2,0.1,0.5,0.1,0.8,0.2c0.4,0.1,0.8,0.2,1.1,0.3c0.3,0.1,0.6,0.3,0.9,0.5c0.2,0.2,0.4,0.4,0.6,0.7s0.2,0.7,0.2,1.1
			c0,0.8-0.3,1.5-0.9,1.9C595.6,346.8,594.8,347.1,593.7,347.1z"/>
		<path class="st5" d="M601.5,347.1c-0.4,0-0.9,0-1.4-0.1c-0.5-0.1-1.1-0.2-1.7-0.3v-1.4c0.6,0.1,1.1,0.2,1.6,0.3s1,0.1,1.4,0.1
			c1.2,0,1.8-0.4,1.8-1.2c0-0.4-0.2-0.7-0.5-0.9c-0.3-0.2-0.7-0.3-1.2-0.4c-0.3-0.1-0.7-0.1-1-0.2s-0.7-0.2-1-0.4
			c-0.3-0.2-0.5-0.4-0.7-0.7c-0.2-0.3-0.3-0.7-0.3-1.3c0-0.8,0.3-1.4,0.9-1.9c0.6-0.5,1.4-0.7,2.5-0.7c0.2,0,0.4,0,0.6,0
			c0.2,0,0.4,0,0.6,0.1c0.2,0,0.4,0.1,0.7,0.1c0.3,0,0.5,0.1,0.9,0.2l-0.1,1.4c-0.6-0.1-1-0.2-1.4-0.3c-0.4-0.1-0.8-0.1-1.1-0.1
			c-0.6,0-1,0.1-1.3,0.3s-0.4,0.5-0.4,0.9c0,0.2,0,0.4,0.1,0.6c0.1,0.1,0.2,0.3,0.4,0.4c0.2,0.1,0.4,0.2,0.6,0.2
			c0.2,0.1,0.5,0.1,0.8,0.2c0.4,0.1,0.8,0.2,1.1,0.3c0.3,0.1,0.6,0.3,0.9,0.5c0.2,0.2,0.4,0.4,0.6,0.7s0.2,0.7,0.2,1.1
			c0,0.8-0.3,1.5-0.9,1.9C603.5,346.8,602.6,347.1,601.5,347.1z"/>
		<path class="st5" d="M608.5,347c-0.8,0-1.4-0.2-1.8-0.6c-0.4-0.4-0.6-1-0.6-1.7c0-0.8,0.3-1.5,0.8-1.9s1.4-0.7,2.5-0.8l2-0.2v-0.5
			c0-0.4,0-0.6-0.1-0.9c-0.1-0.2-0.2-0.4-0.3-0.6c-0.2-0.1-0.4-0.2-0.6-0.3s-0.6-0.1-1-0.1c-0.4,0-0.8,0-1.2,0.1
			c-0.4,0-0.9,0.1-1.4,0.2l-0.1-1.3c1.1-0.2,2.1-0.3,3.1-0.3c1.2,0,2.1,0.2,2.6,0.7c0.6,0.5,0.9,1.2,0.9,2.2v5.9h-1.5l-0.2-1.1h-0.1
			c-0.5,0.4-1,0.7-1.5,0.9S609,347,608.5,347z M609.2,345.7c0.4,0,0.7-0.1,1.1-0.2s0.8-0.4,1.1-0.6v-2L610,343
			c-0.7,0.1-1.3,0.2-1.6,0.4c-0.3,0.2-0.4,0.6-0.4,1.1C608,345.3,608.4,345.7,609.2,345.7z"/>
		<path class="st5" d="M618.7,350.4c-0.5,0-1.1,0-1.6-0.1c-0.5-0.1-1-0.1-1.4-0.3l0.1-1.4c0.4,0.1,0.8,0.2,1.3,0.2s0.9,0.1,1.4,0.1
			c0.4,0,0.8,0,1.2-0.1s0.7-0.2,1-0.5s0.5-0.5,0.6-0.9s0.2-0.8,0.2-1.4v-0.6h-0.1c-0.6,0.8-1.5,1.2-2.7,1.2c-1.2,0-2.1-0.3-2.7-1
			c-0.6-0.7-0.9-1.7-0.9-3.2c0-0.8,0.1-1.4,0.3-2c0.2-0.6,0.5-1,0.9-1.4c0.4-0.4,0.9-0.7,1.4-0.8c0.5-0.2,1.2-0.3,1.8-0.3
			c0.5,0,1.1,0,1.6,0.1c0.6,0.1,1.3,0.2,2,0.4v7.3c0,0.9-0.1,1.6-0.4,2.1c-0.2,0.6-0.6,1-1,1.4c-0.4,0.3-0.9,0.6-1.4,0.7
			S619.3,350.4,618.7,350.4z M619.1,345.5c0.3,0,0.6,0,0.9-0.1c0.3-0.1,0.5-0.2,0.7-0.4c0.2-0.2,0.4-0.4,0.5-0.6
			c0.1-0.2,0.2-0.5,0.2-0.8v-4c-0.3-0.1-0.6-0.1-0.9-0.1c-0.3,0-0.7,0-1,0c-0.9,0-1.5,0.2-2,0.7c-0.4,0.5-0.6,1.3-0.6,2.4
			c0,1.1,0.2,1.8,0.5,2.3C617.7,345.2,618.3,345.5,619.1,345.5z"/>
		<path class="st5" d="M629.1,347c-1.4,0-2.4-0.4-3.1-1.1c-0.7-0.7-1-1.8-1-3.3c0-1.5,0.3-2.6,1-3.4c0.7-0.8,1.7-1.2,3-1.2
			c2.3,0,3.5,1.3,3.5,3.9c0,0.5,0,0.9-0.1,1.2h-5.6c0.1,0.9,0.3,1.5,0.7,1.9c0.4,0.4,1,0.6,1.9,0.6c0.4,0,0.9,0,1.4-0.1
			c0.5-0.1,1-0.2,1.4-0.3l0.1,1.3c-0.4,0.2-0.9,0.3-1.5,0.4S629.6,347,629.1,347z M629,339.4c-0.7,0-1.2,0.2-1.6,0.6s-0.6,1.1-0.6,2
			h4.1c0-0.9-0.2-1.6-0.5-2C630.1,339.6,629.6,339.4,629,339.4z"/>
		<path class="st5" d="M637,347.1c-0.4,0-0.9,0-1.4-0.1c-0.5-0.1-1.1-0.2-1.7-0.3v-1.4c0.6,0.1,1.1,0.2,1.6,0.3s1,0.1,1.4,0.1
			c1.2,0,1.8-0.4,1.8-1.2c0-0.4-0.2-0.7-0.5-0.9c-0.3-0.2-0.7-0.3-1.2-0.4c-0.3-0.1-0.7-0.1-1-0.2s-0.7-0.2-1-0.4
			c-0.3-0.2-0.5-0.4-0.7-0.7c-0.2-0.3-0.3-0.7-0.3-1.3c0-0.8,0.3-1.4,0.9-1.9c0.6-0.5,1.4-0.7,2.5-0.7c0.2,0,0.4,0,0.6,0
			c0.2,0,0.4,0,0.6,0.1c0.2,0,0.4,0.1,0.7,0.1c0.3,0,0.5,0.1,0.9,0.2l-0.1,1.4c-0.6-0.1-1-0.2-1.4-0.3c-0.4-0.1-0.8-0.1-1.1-0.1
			c-0.6,0-1,0.1-1.3,0.3s-0.4,0.5-0.4,0.9c0,0.2,0,0.4,0.1,0.6c0.1,0.1,0.2,0.3,0.4,0.4c0.2,0.1,0.4,0.2,0.6,0.2
			c0.2,0.1,0.5,0.1,0.8,0.2c0.4,0.1,0.8,0.2,1.1,0.3c0.3,0.1,0.6,0.3,0.9,0.5c0.2,0.2,0.4,0.4,0.6,0.7s0.2,0.7,0.2,1.1
			c0,0.8-0.3,1.5-0.9,1.9C638.9,346.8,638.1,347.1,637,347.1z"/>
		<path class="st5" d="M649.3,347.1c-0.9,0-1.5-0.2-2-0.6c-0.4-0.4-0.7-1.1-0.7-1.9v-4.7h-1.7v-1.5h1.8l0.3-2.3l1.4-0.2v2.4h2.4v1.5
			h-2.4v4.3c0,0.5,0.1,0.9,0.3,1.1c0.2,0.2,0.6,0.4,1.1,0.4c0.1,0,0.3,0,0.5,0c0.2,0,0.4-0.1,0.6-0.1v1.4c-0.2,0.1-0.5,0.1-0.8,0.2
			C649.9,347,649.6,347.1,649.3,347.1z"/>
		<path class="st5" d="M656.2,347.1c-1.4,0-2.4-0.4-3.1-1.1c-0.7-0.8-1.1-1.9-1.1-3.3c0-1.5,0.4-2.6,1.1-3.3
			c0.7-0.8,1.8-1.1,3.1-1.1s2.4,0.4,3.1,1.1c0.7,0.8,1.1,1.9,1.1,3.3c0,1.5-0.4,2.6-1.1,3.3C658.6,346.7,657.5,347.1,656.2,347.1z
			 M656.2,345.6c0.8,0,1.4-0.2,1.8-0.7c0.4-0.5,0.6-1.3,0.6-2.3c0-1.1-0.2-1.9-0.6-2.3c-0.4-0.5-1-0.7-1.8-0.7s-1.4,0.2-1.8,0.7
			c-0.4,0.5-0.6,1.3-0.6,2.3c0,1.1,0.2,1.9,0.6,2.3C654.7,345.4,655.3,345.6,656.2,345.6z"/>
		<path class="st5" d="M464.4,357.5h1.6l0.1,1h0.1c0.3-0.4,0.7-0.7,1.1-0.9c0.5-0.2,1-0.3,1.6-0.3c1.2,0,2.1,0.4,2.7,1.1
			c0.6,0.7,0.9,1.8,0.9,3.3c0,1.5-0.4,2.6-1.2,3.4c-0.8,0.8-1.9,1.2-3.3,1.2c-0.3,0-0.7,0-1,0c-0.3,0-0.6-0.1-0.9-0.1v3.5h-1.8
			V357.5z M468.1,364.9c0.4,0,0.8-0.1,1.1-0.2c0.3-0.1,0.6-0.3,0.8-0.5c0.2-0.2,0.4-0.6,0.5-1c0.1-0.4,0.2-0.9,0.2-1.5
			c0-1.1-0.2-1.9-0.5-2.4c-0.4-0.5-0.9-0.7-1.7-0.7c-0.3,0-0.6,0-0.9,0.1s-0.5,0.2-0.7,0.4c-0.2,0.2-0.4,0.4-0.5,0.6
			c-0.1,0.2-0.2,0.5-0.2,0.8v4.2c0.3,0.1,0.5,0.1,0.9,0.1C467.4,364.9,467.8,364.9,468.1,364.9z"/>
		<path class="st5" d="M476.2,366.2c-0.8,0-1.4-0.2-1.8-0.6c-0.4-0.4-0.6-1-0.6-1.7c0-0.8,0.3-1.5,0.8-1.9c0.5-0.4,1.4-0.7,2.5-0.8
			l2-0.2v-0.5c0-0.4,0-0.6-0.1-0.9s-0.2-0.4-0.3-0.6c-0.2-0.1-0.4-0.2-0.6-0.3s-0.6-0.1-1-0.1c-0.4,0-0.8,0-1.2,0.1
			c-0.4,0-0.9,0.1-1.4,0.2l-0.1-1.3c1.1-0.2,2.1-0.3,3.1-0.3c1.2,0,2.1,0.2,2.6,0.7c0.6,0.5,0.9,1.2,0.9,2.2v5.9h-1.5l-0.2-1.1h-0.1
			c-0.5,0.4-1,0.7-1.5,0.9C477.2,366.1,476.7,366.2,476.2,366.2z M476.9,364.9c0.4,0,0.7-0.1,1.1-0.2c0.4-0.2,0.8-0.4,1.1-0.6v-2
			l-1.5,0.1c-0.7,0.1-1.3,0.2-1.6,0.4s-0.4,0.6-0.4,1.1C475.6,364.5,476,364.9,476.9,364.9z"/>
		<path class="st5" d="M485.8,366.3c-0.4,0-0.9,0-1.4-0.1s-1.1-0.2-1.7-0.3v-1.4c0.6,0.1,1.1,0.2,1.6,0.3c0.5,0.1,1,0.1,1.4,0.1
			c1.2,0,1.8-0.4,1.8-1.2c0-0.4-0.2-0.7-0.5-0.9c-0.3-0.2-0.7-0.3-1.2-0.4c-0.3-0.1-0.7-0.1-1-0.2c-0.4-0.1-0.7-0.2-1-0.4
			c-0.3-0.2-0.5-0.4-0.7-0.7c-0.2-0.3-0.3-0.7-0.3-1.3c0-0.8,0.3-1.4,0.9-1.9c0.6-0.5,1.4-0.7,2.5-0.7c0.2,0,0.4,0,0.6,0
			c0.2,0,0.4,0,0.6,0.1s0.4,0.1,0.7,0.1s0.5,0.1,0.9,0.2l-0.1,1.4c-0.6-0.1-1-0.2-1.4-0.3c-0.4-0.1-0.8-0.1-1.1-0.1
			c-0.6,0-1,0.1-1.3,0.3c-0.3,0.2-0.4,0.5-0.4,0.9c0,0.2,0,0.4,0.1,0.6c0.1,0.1,0.2,0.3,0.4,0.4c0.2,0.1,0.4,0.2,0.6,0.2
			c0.2,0.1,0.5,0.1,0.8,0.2c0.4,0.1,0.8,0.2,1.1,0.3s0.6,0.3,0.9,0.5c0.2,0.2,0.4,0.4,0.6,0.7s0.2,0.7,0.2,1.1
			c0,0.8-0.3,1.5-0.9,1.9C487.7,366,486.9,366.3,485.8,366.3z"/>
		<path class="st5" d="M494.5,366.3c-0.9,0-1.5-0.2-2-0.6c-0.4-0.4-0.7-1.1-0.7-1.9V359h-1.7v-1.5h1.8l0.3-2.3l1.4-0.2v2.4h2.4v1.5
			h-2.4v4.3c0,0.5,0.1,0.9,0.3,1.1c0.2,0.2,0.6,0.4,1.1,0.4c0.1,0,0.3,0,0.5,0s0.4-0.1,0.6-0.1v1.4c-0.2,0.1-0.5,0.1-0.8,0.2
			C495,366.2,494.7,366.3,494.5,366.3z"/>
		<path class="st5" d="M500.4,357.7v-0.2h1.9l2,5.7l0.4,1.5h0.2l0.4-1.5l2-5.7h1.9v0.2l-3.2,8.4h-2.3L500.4,357.7z"/>
		<path class="st5" d="M511.4,355.8c-0.4,0-0.6-0.1-0.8-0.2c-0.2-0.2-0.2-0.4-0.2-0.8c0-0.4,0.1-0.6,0.2-0.8
			c0.2-0.2,0.4-0.2,0.8-0.2s0.6,0.1,0.8,0.3c0.2,0.2,0.2,0.4,0.2,0.8s-0.1,0.6-0.2,0.8C512,355.7,511.8,355.8,511.4,355.8z
			 M510.5,357.5h1.8v8.6h-1.8V357.5z"/>
		<path class="st5" d="M517.2,366.3c-0.4,0-0.9,0-1.4-0.1s-1.1-0.2-1.7-0.3v-1.4c0.6,0.1,1.1,0.2,1.6,0.3c0.5,0.1,1,0.1,1.4,0.1
			c1.2,0,1.8-0.4,1.8-1.2c0-0.4-0.2-0.7-0.5-0.9c-0.3-0.2-0.7-0.3-1.2-0.4c-0.3-0.1-0.7-0.1-1-0.2c-0.4-0.1-0.7-0.2-1-0.4
			c-0.3-0.2-0.5-0.4-0.7-0.7c-0.2-0.3-0.3-0.7-0.3-1.3c0-0.8,0.3-1.4,0.9-1.9c0.6-0.5,1.4-0.7,2.5-0.7c0.2,0,0.4,0,0.6,0
			c0.2,0,0.4,0,0.6,0.1s0.4,0.1,0.7,0.1s0.5,0.1,0.9,0.2l-0.1,1.4c-0.6-0.1-1-0.2-1.4-0.3c-0.4-0.1-0.8-0.1-1.1-0.1
			c-0.6,0-1,0.1-1.3,0.3c-0.3,0.2-0.4,0.5-0.4,0.9c0,0.2,0,0.4,0.1,0.6c0.1,0.1,0.2,0.3,0.4,0.4c0.2,0.1,0.4,0.2,0.6,0.2
			c0.2,0.1,0.5,0.1,0.8,0.2c0.4,0.1,0.8,0.2,1.1,0.3s0.6,0.3,0.9,0.5c0.2,0.2,0.4,0.4,0.6,0.7s0.2,0.7,0.2,1.1
			c0,0.8-0.3,1.5-0.9,1.9C519.2,366,518.3,366.3,517.2,366.3z"/>
		<path class="st5" d="M523.3,355.8c-0.4,0-0.6-0.1-0.8-0.2c-0.2-0.2-0.2-0.4-0.2-0.8c0-0.4,0.1-0.6,0.2-0.8
			c0.2-0.2,0.4-0.2,0.8-0.2s0.6,0.1,0.8,0.3c0.2,0.2,0.2,0.4,0.2,0.8s-0.1,0.6-0.2,0.8C524,355.7,523.7,355.8,523.3,355.8z
			 M522.4,357.5h1.8v8.6h-1.8V357.5z"/>
		<path class="st5" d="M530,366.3c-0.9,0-1.5-0.2-2-0.6c-0.4-0.4-0.7-1.1-0.7-1.9V359h-1.7v-1.5h1.8l0.3-2.3l1.4-0.2v2.4h2.4v1.5
			h-2.4v4.3c0,0.5,0.1,0.9,0.3,1.1c0.2,0.2,0.6,0.4,1.1,0.4c0.1,0,0.3,0,0.5,0s0.4-0.1,0.6-0.1v1.4c-0.2,0.1-0.5,0.1-0.8,0.2
			C530.5,366.2,530.3,366.3,530,366.3z"/>
		<path class="st5" d="M536.9,366.3c-1.4,0-2.4-0.4-3.1-1.1c-0.7-0.8-1.1-1.9-1.1-3.3c0-1.5,0.4-2.6,1.1-3.3
			c0.7-0.8,1.8-1.1,3.1-1.1s2.4,0.4,3.1,1.1c0.7,0.8,1.1,1.9,1.1,3.3c0,1.5-0.4,2.6-1.1,3.3C539.3,365.9,538.2,366.3,536.9,366.3z
			 M536.9,364.8c0.8,0,1.4-0.2,1.8-0.7c0.4-0.5,0.6-1.3,0.6-2.3s-0.2-1.9-0.6-2.3c-0.4-0.5-1-0.7-1.8-0.7s-1.4,0.2-1.8,0.7
			c-0.4,0.5-0.6,1.3-0.6,2.3s0.2,1.9,0.6,2.3C535.4,364.6,536,364.8,536.9,364.8z"/>
		<path class="st5" d="M542.9,357.5h1.5l0.1,1.2h0.1c0.5-0.3,1.1-0.6,1.6-0.9s1-0.4,1.4-0.5h0.6v1.6h-0.6c-0.5,0.1-1,0.2-1.4,0.4
			s-0.9,0.4-1.4,0.6v6.2h-1.8V357.5z"/>
		<path class="st5" d="M552.1,366.3c-0.4,0-0.9,0-1.4-0.1s-1.1-0.2-1.7-0.3v-1.4c0.6,0.1,1.1,0.2,1.6,0.3c0.5,0.1,1,0.1,1.4,0.1
			c1.2,0,1.8-0.4,1.8-1.2c0-0.4-0.2-0.7-0.5-0.9c-0.3-0.2-0.7-0.3-1.2-0.4c-0.3-0.1-0.7-0.1-1-0.2c-0.4-0.1-0.7-0.2-1-0.4
			c-0.3-0.2-0.5-0.4-0.7-0.7c-0.2-0.3-0.3-0.7-0.3-1.3c0-0.8,0.3-1.4,0.9-1.9c0.6-0.5,1.4-0.7,2.5-0.7c0.2,0,0.4,0,0.6,0
			c0.2,0,0.4,0,0.6,0.1s0.4,0.1,0.7,0.1s0.5,0.1,0.9,0.2l-0.1,1.4c-0.6-0.1-1-0.2-1.4-0.3c-0.4-0.1-0.8-0.1-1.1-0.1
			c-0.6,0-1,0.1-1.3,0.3c-0.3,0.2-0.4,0.5-0.4,0.9c0,0.2,0,0.4,0.1,0.6c0.1,0.1,0.2,0.3,0.4,0.4c0.2,0.1,0.4,0.2,0.6,0.2
			c0.2,0.1,0.5,0.1,0.8,0.2c0.4,0.1,0.8,0.2,1.1,0.3s0.6,0.3,0.9,0.5c0.2,0.2,0.4,0.4,0.6,0.7s0.2,0.7,0.2,1.1
			c0,0.8-0.3,1.5-0.9,1.9C554,366,553.2,366.3,552.1,366.3z"/>
		<path class="st5" d="M564.4,366.3c-0.9,0-1.5-0.2-2-0.6c-0.4-0.4-0.7-1.1-0.7-1.9V359h-1.7v-1.5h1.8l0.3-2.3l1.4-0.2v2.4h2.4v1.5
			h-2.4v4.3c0,0.5,0.1,0.9,0.3,1.1c0.2,0.2,0.6,0.4,1.1,0.4c0.1,0,0.3,0,0.5,0s0.4-0.1,0.6-0.1v1.4c-0.2,0.1-0.5,0.1-0.8,0.2
			C565,366.2,564.7,366.3,564.4,366.3z"/>
		<path class="st5" d="M571.3,366.3c-1.4,0-2.4-0.4-3.1-1.1c-0.7-0.8-1.1-1.9-1.1-3.3c0-1.5,0.4-2.6,1.1-3.3
			c0.7-0.8,1.8-1.1,3.1-1.1s2.4,0.4,3.1,1.1c0.7,0.8,1.1,1.9,1.1,3.3c0,1.5-0.4,2.6-1.1,3.3C573.7,365.9,572.6,366.3,571.3,366.3z
			 M571.3,364.8c0.8,0,1.4-0.2,1.8-0.7c0.4-0.5,0.6-1.3,0.6-2.3s-0.2-1.9-0.6-2.3c-0.4-0.5-1-0.7-1.8-0.7s-1.4,0.2-1.8,0.7
			c-0.4,0.5-0.6,1.3-0.6,2.3s0.2,1.9,0.6,2.3C569.8,364.6,570.4,364.8,571.3,364.8z"/>
		<path class="st5" d="M580.1,357.7v-0.2h1.9l2,5.7l0.4,1.5h0.2l0.4-1.5l2-5.7h1.9v0.2l-3.2,8.4h-2.3L580.1,357.7z"/>
		<path class="st5" d="M591.1,355.8c-0.4,0-0.6-0.1-0.8-0.2c-0.2-0.2-0.2-0.4-0.2-0.8c0-0.4,0.1-0.6,0.2-0.8
			c0.2-0.2,0.4-0.2,0.8-0.2s0.6,0.1,0.8,0.3c0.2,0.2,0.2,0.4,0.2,0.8s-0.1,0.6-0.2,0.8C591.7,355.7,591.4,355.8,591.1,355.8z
			 M590.2,357.5h1.8v8.6h-1.8V357.5z"/>
		<path class="st5" d="M596.9,366.3c-0.4,0-0.9,0-1.4-0.1c-0.5-0.1-1.1-0.2-1.7-0.3v-1.4c0.6,0.1,1.1,0.2,1.6,0.3s1,0.1,1.4,0.1
			c1.2,0,1.8-0.4,1.8-1.2c0-0.4-0.2-0.7-0.5-0.9c-0.3-0.2-0.7-0.3-1.2-0.4c-0.3-0.1-0.7-0.1-1-0.2c-0.4-0.1-0.7-0.2-1-0.4
			c-0.3-0.2-0.5-0.4-0.7-0.7c-0.2-0.3-0.3-0.7-0.3-1.3c0-0.8,0.3-1.4,0.9-1.9c0.6-0.5,1.4-0.7,2.5-0.7c0.2,0,0.4,0,0.6,0
			c0.2,0,0.4,0,0.6,0.1c0.2,0,0.4,0.1,0.7,0.1s0.5,0.1,0.9,0.2l-0.1,1.4c-0.6-0.1-1-0.2-1.4-0.3c-0.4-0.1-0.8-0.1-1.1-0.1
			c-0.6,0-1,0.1-1.3,0.3s-0.4,0.5-0.4,0.9c0,0.2,0,0.4,0.1,0.6c0.1,0.1,0.2,0.3,0.4,0.4c0.2,0.1,0.4,0.2,0.6,0.2
			c0.2,0.1,0.5,0.1,0.8,0.2c0.4,0.1,0.8,0.2,1.1,0.3c0.3,0.1,0.6,0.3,0.9,0.5c0.2,0.2,0.4,0.4,0.6,0.7s0.2,0.7,0.2,1.1
			c0,0.8-0.3,1.5-0.9,1.9C598.9,366,598,366.3,596.9,366.3z"/>
		<path class="st5" d="M603,355.8c-0.4,0-0.6-0.1-0.8-0.2c-0.2-0.2-0.2-0.4-0.2-0.8c0-0.4,0.1-0.6,0.2-0.8c0.2-0.2,0.4-0.2,0.8-0.2
			s0.6,0.1,0.8,0.3c0.2,0.2,0.2,0.4,0.2,0.8s-0.1,0.6-0.2,0.8C603.7,355.7,603.4,355.8,603,355.8z M602.1,357.5h1.8v8.6h-1.8V357.5z
			"/>
		<path class="st5" d="M609.7,366.3c-0.9,0-1.5-0.2-2-0.6c-0.4-0.4-0.7-1.1-0.7-1.9V359h-1.7v-1.5h1.8l0.3-2.3l1.4-0.2v2.4h2.4v1.5
			h-2.4v4.3c0,0.5,0.1,0.9,0.3,1.1c0.2,0.2,0.6,0.4,1.1,0.4c0.1,0,0.3,0,0.5,0c0.2,0,0.4-0.1,0.6-0.1v1.4c-0.2,0.1-0.5,0.1-0.8,0.2
			C610.2,366.2,610,366.3,609.7,366.3z"/>
		<path class="st5" d="M619.9,366.3c-0.9,0-1.5-0.2-2-0.6c-0.4-0.4-0.7-1.1-0.7-1.9V359h-1.7v-1.5h1.8l0.3-2.3l1.4-0.2v2.4h2.4v1.5
			h-2.4v4.3c0,0.5,0.1,0.9,0.3,1.1c0.2,0.2,0.6,0.4,1.1,0.4c0.1,0,0.3,0,0.5,0c0.2,0,0.4-0.1,0.6-0.1v1.4c-0.2,0.1-0.5,0.1-0.8,0.2
			C620.5,366.2,620.2,366.3,619.9,366.3z"/>
		<path class="st5" d="M623.1,353.2h1.8v5.2c0.8-0.4,1.5-0.7,2-0.8s1.1-0.3,1.6-0.3c0.7,0,1.3,0.2,1.7,0.6s0.6,1,0.6,1.8v6.4H629
			v-5.8c0-0.5-0.1-0.9-0.3-1.2c-0.2-0.2-0.5-0.4-1-0.4c-0.4,0-0.8,0.1-1.3,0.2c-0.5,0.2-1,0.4-1.6,0.6v6.5h-1.8V353.2z"/>
		<path class="st5" d="M636.7,366.2c-1.4,0-2.4-0.4-3.1-1.1c-0.7-0.7-1-1.8-1-3.3c0-1.5,0.3-2.6,1-3.4c0.7-0.8,1.7-1.2,3-1.2
			c2.3,0,3.5,1.3,3.5,3.9c0,0.5,0,0.9-0.1,1.2h-5.6c0.1,0.9,0.3,1.5,0.7,1.9s1,0.6,1.9,0.6c0.4,0,0.9,0,1.4-0.1
			c0.5-0.1,1-0.2,1.4-0.3l0.1,1.3c-0.4,0.2-0.9,0.3-1.5,0.4C637.8,366.2,637.2,366.2,636.7,366.2z M636.6,358.6
			c-0.7,0-1.2,0.2-1.6,0.6c-0.4,0.4-0.6,1.1-0.6,2h4.1c0-0.9-0.2-1.6-0.5-2C637.7,358.8,637.2,358.6,636.6,358.6z"/>
		<path class="st5" d="M648.2,366.3c-0.4,0-0.9,0-1.4-0.1c-0.5-0.1-1.1-0.2-1.7-0.3v-1.4c0.6,0.1,1.1,0.2,1.6,0.3s1,0.1,1.4,0.1
			c1.2,0,1.8-0.4,1.8-1.2c0-0.4-0.2-0.7-0.5-0.9c-0.3-0.2-0.7-0.3-1.2-0.4c-0.3-0.1-0.7-0.1-1-0.2c-0.4-0.1-0.7-0.2-1-0.4
			c-0.3-0.2-0.5-0.4-0.7-0.7c-0.2-0.3-0.3-0.7-0.3-1.3c0-0.8,0.3-1.4,0.9-1.9c0.6-0.5,1.4-0.7,2.5-0.7c0.2,0,0.4,0,0.6,0
			c0.2,0,0.4,0,0.6,0.1c0.2,0,0.4,0.1,0.7,0.1s0.5,0.1,0.9,0.2l-0.1,1.4c-0.6-0.1-1-0.2-1.4-0.3c-0.4-0.1-0.8-0.1-1.1-0.1
			c-0.6,0-1,0.1-1.3,0.3s-0.4,0.5-0.4,0.9c0,0.2,0,0.4,0.1,0.6c0.1,0.1,0.2,0.3,0.4,0.4c0.2,0.1,0.4,0.2,0.6,0.2
			c0.2,0.1,0.5,0.1,0.8,0.2c0.4,0.1,0.8,0.2,1.1,0.3c0.3,0.1,0.6,0.3,0.9,0.5c0.2,0.2,0.4,0.4,0.6,0.7s0.2,0.7,0.2,1.1
			c0,0.8-0.3,1.5-0.9,1.9C650.2,366,649.3,366.3,648.2,366.3z"/>
		<path class="st5" d="M656.9,366.3c-0.9,0-1.5-0.2-2-0.6c-0.4-0.4-0.7-1.1-0.7-1.9V359h-1.7v-1.5h1.8l0.3-2.3l1.4-0.2v2.4h2.4v1.5
			h-2.4v4.3c0,0.5,0.1,0.9,0.3,1.1c0.2,0.2,0.6,0.4,1.1,0.4c0.1,0,0.3,0,0.5,0c0.2,0,0.4-0.1,0.6-0.1v1.4c-0.2,0.1-0.5,0.1-0.8,0.2
			C657.5,366.2,657.2,366.3,656.9,366.3z"/>
		<path class="st5" d="M663.8,366.3c-1.4,0-2.4-0.4-3.1-1.1c-0.7-0.8-1.1-1.9-1.1-3.3c0-1.5,0.4-2.6,1.1-3.3s1.8-1.1,3.1-1.1
			s2.4,0.4,3.1,1.1c0.7,0.8,1.1,1.9,1.1,3.3c0,1.5-0.4,2.6-1.1,3.3C666.2,365.9,665.1,366.3,663.8,366.3z M663.8,364.8
			c0.8,0,1.4-0.2,1.8-0.7c0.4-0.5,0.6-1.3,0.6-2.3s-0.2-1.9-0.6-2.3c-0.4-0.5-1-0.7-1.8-0.7s-1.4,0.2-1.8,0.7
			c-0.4,0.5-0.6,1.3-0.6,2.3s0.2,1.9,0.6,2.3C662.3,364.6,662.9,364.8,663.8,364.8z"/>
		<path class="st5" d="M669.8,357.5h1.5l0.1,1.2h0.1c0.5-0.3,1.1-0.6,1.6-0.9s1-0.4,1.4-0.5h0.6v1.6h-0.6c-0.5,0.1-1,0.2-1.4,0.4
			s-0.9,0.4-1.4,0.6v6.2h-1.8V357.5z"/>
		<path class="st5" d="M680.1,366.2c-1.4,0-2.4-0.4-3.1-1.1c-0.7-0.7-1-1.8-1-3.3c0-1.5,0.3-2.6,1-3.4c0.7-0.8,1.7-1.2,3-1.2
			c2.3,0,3.5,1.3,3.5,3.9c0,0.5,0,0.9-0.1,1.2h-5.6c0.1,0.9,0.3,1.5,0.7,1.9s1,0.6,1.9,0.6c0.4,0,0.9,0,1.4-0.1
			c0.5-0.1,1-0.2,1.4-0.3l0.1,1.3c-0.4,0.2-0.9,0.3-1.5,0.4C681.1,366.2,680.6,366.2,680.1,366.2z M679.9,358.6
			c-0.7,0-1.2,0.2-1.6,0.6c-0.4,0.4-0.6,1.1-0.6,2h4.1c0-0.9-0.2-1.6-0.5-2C681.1,358.8,680.6,358.6,679.9,358.6z"/>
	</g>
</g>
<g>
	<path class="st3" d="M515.3,102.6l4.8-13.2h2.4l4.8,13.2v0.1h-1.6l-1.5-4h-6l-1.4,4L515.3,102.6L515.3,102.6L515.3,102.6z
		 M523.8,97.4l-1.6-4.5l-0.8-2.3h-0.1l-0.8,2.3l-1.6,4.5H523.8z"/>
	<path class="st3" d="M528.8,88.2h1.6v14.5h-1.6V88.2z"/>
	<path class="st3" d="M535.1,102.8c-0.7,0-1.4-0.2-1.9-0.7s-0.7-1.2-0.7-1.9c-0.1-0.8,0.3-1.6,0.9-2.1c0.8-0.6,1.8-0.9,2.8-0.9
		l2.3-0.2v-0.7c0-0.4,0-0.7-0.1-1.1c-0.1-0.3-0.2-0.5-0.4-0.7s-0.5-0.3-0.7-0.4c-0.4-0.1-0.8-0.1-1.2-0.1s-0.9,0-1.3,0.1
		c-0.5,0-1,0.1-1.5,0.2l-0.1-1.2c0.6-0.1,1.2-0.2,1.7-0.3s1-0.1,1.6-0.1c1-0.1,2,0.2,2.8,0.8c0.6,0.6,1,1.5,0.9,2.4v6.6h-1.3
		l-0.2-1.2h-0.1c-0.5,0.4-1.1,0.7-1.7,1C536.3,102.7,535.7,102.8,535.1,102.8z M535.7,101.6c0.5,0,1-0.1,1.4-0.3
		c0.5-0.2,1-0.5,1.5-0.8V98l-1.9,0.2c-0.7,0-1.4,0.2-2,0.6c-0.4,0.3-0.6,0.8-0.6,1.4C534.1,101.1,534.6,101.6,535.7,101.6z"/>
	<path class="st3" d="M542.8,93h1.3l0.1,1.3h0.1c0.7-0.4,1.3-0.7,1.9-1c0.5-0.2,1-0.4,1.6-0.5h0.5v1.5h-0.6
		c-0.6,0.1-1.1,0.2-1.7,0.4c-0.6,0.2-1.1,0.5-1.6,0.7v7.2h-1.6V93z"/>
	<path class="st3" d="M549.8,93h1.3l0.1,1.1h0.1c0.6-0.4,1.3-0.7,2-1c0.5-0.2,1-0.3,1.6-0.3c1-0.1,1.9,0.4,2.3,1.3h0.1
		c0.6-0.4,1.3-0.7,2-1c0.5-0.2,1-0.3,1.6-0.3c0.7,0,1.4,0.2,1.9,0.7s0.7,1.3,0.7,2v7.2h-1.6V96c0-0.5-0.1-1-0.4-1.4
		c-0.3-0.3-0.8-0.5-1.2-0.4c-0.4,0-0.9,0.1-1.3,0.3c-0.5,0.2-1,0.5-1.5,0.7v7.5h-1.6V96c0-0.5-0.1-1-0.4-1.4
		c-0.3-0.3-0.8-0.5-1.2-0.4c-0.4,0-0.9,0.1-1.3,0.3c-0.5,0.2-1,0.5-1.5,0.8v7.5h-1.6L549.8,93L549.8,93z"/>
	<path class="st3" d="M571,91c-0.5,0.1-0.9-0.2-1-0.7c0-0.1,0-0.2,0-0.3c-0.1-0.5,0.2-0.9,0.7-1c0.1,0,0.2,0,0.3,0c0.7,0,1,0.3,1,1
		S571.7,91,571,91z M570.2,93h1.6v9.7h-1.6V93z"/>
	<path class="st3" d="M577.3,102.9c-0.5,0-0.9,0-1.4-0.1s-1.1-0.2-1.9-0.3v-1.3c0.6,0.1,1.2,0.3,1.7,0.3c0.5,0.1,1,0.1,1.5,0.1
		c0.6,0,1.1-0.1,1.6-0.4c0.4-0.3,0.6-0.7,0.5-1.2c0-0.2,0-0.5-0.1-0.7s-0.2-0.4-0.4-0.5s-0.4-0.2-0.6-0.3c-0.3-0.1-0.5-0.1-0.8-0.2
		s-0.8-0.2-1.1-0.3c-0.4-0.1-0.7-0.2-1-0.4s-0.6-0.5-0.8-0.8c-0.2-0.4-0.3-0.9-0.3-1.4c0-0.8,0.3-1.6,0.9-2.1
		c0.8-0.5,1.7-0.8,2.6-0.7h0.6l0.6,0.1l0.7,0.1c0.3,0,0.6,0.1,0.9,0.2l-0.1,1.3c-0.6-0.1-1.1-0.2-1.5-0.3s-0.8-0.1-1.1-0.1
		c-1.5,0-2.2,0.5-2.2,1.5c0,0.2,0.1,0.5,0.2,0.7c0.1,0.2,0.3,0.4,0.5,0.5s0.5,0.2,0.7,0.3c0.3,0.1,0.6,0.1,0.9,0.2
		c0.4,0.1,0.8,0.2,1.2,0.3s0.7,0.3,1,0.5s0.5,0.5,0.6,0.8c0.2,0.4,0.2,0.8,0.2,1.2c0,0.8-0.3,1.6-0.9,2.1
		C579.3,102.7,578.3,103,577.3,102.9z"/>
	<path class="st3" d="M585.8,93.2V93h1.6l2.5,7l0.4,1.5h0.2l0.4-1.5l2.5-7h1.6v0.2l-3.7,9.5h-2L585.8,93.2z"/>
	<path class="st3" d="M598.7,102.8c-0.7,0-1.4-0.2-1.9-0.7s-0.7-1.2-0.7-1.9c0-0.8,0.3-1.6,0.9-2.1c0.8-0.6,1.8-0.9,2.8-0.9l2.3-0.2
		v-0.7c0-0.4,0-0.7-0.1-1.1c-0.1-0.3-0.2-0.5-0.4-0.7s-0.5-0.3-0.8-0.4c-0.4-0.1-0.8-0.1-1.2-0.1s-0.9,0-1.3,0.1
		c-0.5,0-1,0.1-1.5,0.2l-0.1-1.2c0.6-0.1,1.2-0.2,1.7-0.3s1-0.1,1.6-0.1c1-0.1,2,0.2,2.8,0.8c0.6,0.6,1,1.5,0.9,2.4v6.6h-1.3
		l-0.2-1.1h-0.1c-0.5,0.4-1.1,0.7-1.7,1S599.3,102.8,598.7,102.8z M599.2,101.6c0.5,0,1-0.1,1.4-0.3c0.5-0.2,1-0.5,1.5-0.8v-2.4
		l-1.9,0.2c-0.7,0-1.4,0.2-2,0.6c-0.4,0.3-0.6,0.8-0.6,1.4C597.7,101.1,598.2,101.6,599.2,101.6z"/>
	<path class="st3" d="M606.4,88.2h1.6v14.5h-1.6V88.2z"/>
	<path class="st3" d="M611.5,91c-0.5,0.1-0.9-0.2-1-0.7c0-0.1,0-0.2,0-0.3c-0.1-0.5,0.2-0.9,0.7-1c0.1,0,0.2,0,0.3,0
		c0.7,0,1,0.3,1,1S612.2,91,611.5,91z M610.7,93h1.6v9.7h-1.6V93z"/>
	<path class="st3" d="M618.6,102.9c-1.1,0.1-2.2-0.4-3-1.2c-0.8-1.1-1.1-2.4-1-3.8c0-0.8,0.1-1.5,0.3-2.3c0.2-0.6,0.6-1.1,1-1.6
		c0.4-0.4,0.9-0.8,1.5-1s1.3-0.3,2-0.3c0.4,0,0.8,0,1.2,0.1l1.1,0.1v-4.8h1.6v14.5h-1.4l-0.1-1.2h-0.1
		C620.9,102.5,619.8,103,618.6,102.9z M618.9,101.6c0.3,0,0.7-0.1,1-0.2s0.6-0.2,0.9-0.4c0.2-0.2,0.5-0.4,0.6-0.7s0.2-0.6,0.2-0.9
		v-5.2c-0.4-0.1-0.7-0.1-1.1-0.1c-0.4,0-0.8-0.1-1.2-0.1c-0.9-0.1-1.8,0.3-2.4,0.9c-0.6,0.8-0.9,1.9-0.8,2.9c-0.1,1,0.1,2,0.7,2.9
		C617.3,101.4,618.1,101.7,618.9,101.6L618.9,101.6z"/>
	<path class="st3" d="M627.2,99.2l-0.1-3.4c0.4-0.1,0.8-0.2,1.2-0.3s0.8-0.3,1.1-0.5s0.6-0.5,0.8-0.8c0.2-0.4,0.3-0.8,0.3-1.2
		s-0.1-0.8-0.2-1.1c-0.1-0.3-0.3-0.5-0.6-0.7c-0.2-0.2-0.5-0.3-0.8-0.4s-0.7-0.1-1-0.1c-0.4,0-0.9,0-1.3,0.1
		c-0.4,0.1-0.9,0.2-1.3,0.3l-0.1-1.2c0.5-0.1,1-0.3,1.5-0.3c0.5-0.1,1.1-0.1,1.6-0.1s1,0.1,1.5,0.2c0.4,0.1,0.9,0.3,1.2,0.6
		c0.4,0.3,0.6,0.7,0.8,1.1c0.2,0.5,0.3,1.1,0.3,1.7c0,1-0.4,2-1.1,2.7c-0.3,0.3-0.7,0.5-1.2,0.7c-0.4,0.2-0.8,0.3-1.3,0.4v2.6v0.3
		h-1.2L627.2,99.2z M627.8,102.7c-0.2,0-0.5-0.1-0.7-0.3s-0.3-0.4-0.3-0.7s0.1-0.5,0.3-0.7s0.4-0.3,0.7-0.2c0.3,0,0.5,0.1,0.7,0.2
		c0.2,0.2,0.3,0.4,0.3,0.7c0,0.2-0.1,0.5-0.3,0.7C628.3,102.7,628.1,102.8,627.8,102.7L627.8,102.7z"/>
</g>
</svg>
