<?xml version="1.0" encoding="utf-8"?>
<!-- Generator: Adobe Illustrator 25.0.1, SVG Export Plug-In . SVG Version: 6.00 Build 0)  -->
<svg version="1.1" id="Layer_1" xmlns="http://www.w3.org/2000/svg" xmlns:xlink="http://www.w3.org/1999/xlink" x="0px" y="0px"
	 viewBox="0 0 987.3 498.3" style="enable-background:new 0 0 987.3 498.3;" xml:space="preserve">
<style type="text/css">
	.st0{fill:#0C6D72;}
	.st1{fill:#063739;}
	.st2{fill:#30721E;}
	.st3{fill:#F4F4F4;}
	.st4{fill:#E52033;}
	.st5{fill:#FFFFFF;}
	.st6{fill:#13A8BC;}
</style>
<g>
	<rect x="72" y="95" class="st0" width="32.5" height="1"/>
	<polygon class="st0" points="103,100.4 111.7,95.5 103,90.5 	"/>
	<rect x="318.7" y="95" class="st0" width="36.5" height="1"/>
	<polygon class="st0" points="353.7,100.4 362.4,95.5 353.7,90.5 	"/>
	<rect x="780.3" y="50.5" class="st1" width="207" height="90"/>
	<path class="st0" d="M986.3,51.5v88h-205v-88H986.3 M987.3,50.4h-207v90h207V50.4z"/>
	<circle class="st2" cx="36" cy="95.5" r="36"/>
	<path class="st3" d="M20.5,101.5c-0.3,0-0.6,0-1,0s-0.7-0.1-1.1-0.1c-0.4,0-0.7-0.1-1.1-0.2c-0.4-0.1-0.7-0.2-1.1-0.2v-1.4
		c0.7,0.2,1.4,0.3,2.2,0.4c0.6,0.1,1.3,0.2,2,0.2c0.8,0.1,1.7-0.1,2.4-0.6c0.5-0.4,0.9-1,0.8-1.7c0-0.3-0.1-0.7-0.2-1
		c-0.2-0.3-0.4-0.5-0.6-0.7c-0.3-0.2-0.6-0.4-1-0.5s-0.8-0.3-1.2-0.4c-0.6-0.2-1.2-0.4-1.8-0.6c-0.5-0.2-0.9-0.5-1.2-0.8
		s-0.6-0.7-0.7-1.1c-0.2-0.4-0.2-0.9-0.2-1.4s0.1-1,0.3-1.5s0.5-0.9,0.9-1.2s1-0.6,1.5-0.8c0.6-0.2,1.3-0.3,1.9-0.3
		c0.5,0,1.1,0,1.6,0.1c0.6,0.1,1.2,0.2,1.9,0.3l-0.1,1.3C24.1,89.1,23.5,89,23,89c-0.5-0.1-1.1-0.1-1.6-0.1c-0.8,0-1.6,0.2-2.2,0.6
		c-0.5,0.4-0.8,1-0.8,1.7c0,0.3,0,0.6,0.2,0.9c0.1,0.3,0.3,0.5,0.5,0.7c0.3,0.2,0.6,0.4,0.9,0.6c0.5,0.2,0.9,0.4,1.4,0.5
		c0.6,0.2,1.1,0.3,1.6,0.5s0.9,0.4,1.3,0.7c0.4,0.3,0.6,0.7,0.8,1.1c0.2,0.5,0.3,1,0.3,1.6c0.1,1-0.4,2.1-1.2,2.7
		C23,101.3,21.7,101.6,20.5,101.5z"/>
	<path class="st3" d="M30.8,101.5c-0.8,0.1-1.5-0.2-2.1-0.7c-0.5-0.5-0.7-1.3-0.7-2V93h-2v-1.4h2.1l0.2-2.4l1.2-0.2v2.6h2.9V93h-2.9
		v5.4c0,0.5,0.1,1,0.4,1.3c0.3,0.3,0.8,0.5,1.3,0.4c0.2,0,0.4,0,0.6-0.1c0.2,0,0.5-0.1,0.7-0.2v1.3c-0.3,0.1-0.6,0.1-0.9,0.2
		C31.4,101.5,31.1,101.5,30.8,101.5z"/>
	<path class="st3" d="M36.1,101.4c-0.7,0-1.4-0.2-1.9-0.7s-0.7-1.2-0.7-1.9c0-0.8,0.3-1.6,0.9-2.1c0.8-0.6,1.8-0.9,2.8-0.9l2.3-0.2
		v-0.7c0-0.4,0-0.7-0.1-1.1c-0.1-0.3-0.2-0.5-0.4-0.7s-0.5-0.3-0.8-0.4c-0.4-0.1-0.8-0.1-1.2-0.1s-0.9,0-1.3,0.1
		c-0.5,0-1,0.1-1.5,0.2l-0.1-1.2c0.6-0.1,1.2-0.2,1.7-0.3s1-0.1,1.6-0.1c1-0.1,2,0.2,2.8,0.8c0.6,0.6,1,1.5,0.9,2.4v6.6h-1.3
		l-0.2-1.2h-0.1c-0.5,0.4-1.1,0.7-1.7,1C37.3,101.3,36.7,101.4,36.1,101.4z M36.7,100.2c0.5,0,1-0.1,1.4-0.3c0.5-0.2,1-0.5,1.5-0.8
		v-2.5l-1.9,0.2c-0.7,0-1.4,0.2-2,0.6c-0.4,0.3-0.6,0.8-0.6,1.4C35.2,99.7,35.7,100.2,36.7,100.2z"/>
	<path class="st3" d="M43.8,91.6h1.3l0.1,1.3h0.1c0.7-0.4,1.3-0.7,1.8-1s1-0.4,1.6-0.5h0.5v1.5h-0.6c-0.6,0.1-1.1,0.2-1.7,0.4
		c-0.6,0.2-1.1,0.5-1.6,0.7v7.2h-1.6L43.8,91.6L43.8,91.6L43.8,91.6z"/>
	<path class="st3" d="M54.6,101.5c-0.8,0.1-1.5-0.2-2.1-0.7c-0.5-0.5-0.8-1.3-0.7-2V93h-2v-1.4h2.1l0.2-2.4l1.2-0.2v2.6h2.9V93h-2.9
		v5.4c0,0.5,0.1,1,0.4,1.3s0.8,0.5,1.3,0.4c0.2,0,0.4,0,0.6-0.1c0.2,0,0.5-0.1,0.7-0.2v1.3c-0.3,0.1-0.6,0.1-0.9,0.2
		C55.2,101.5,54.9,101.5,54.6,101.5z"/>
	<rect x="657.5" y="68.4" class="st0" width="72" height="54"/>
	<path class="st3" d="M684.3,96.9l-4.9-8.9h1.7l3.3,6.2l0.5,1.2h0.2l0.5-1.2L689,88h1.7l-4.8,8.8v4.5h-1.6V96.9z"/>
	<path class="st3" d="M694.7,101.5c-1.2,0.1-2.5-0.4-3.4-1.2c-0.8-1-1.2-2.3-1.1-3.7c-0.1-1.4,0.3-2.7,1.1-3.8
		c0.8-0.9,2-1.4,3.3-1.3c2.5,0,3.7,1.4,3.7,4.3c0,0.4,0,0.8-0.1,1.3h-6.4c0,0.9,0.3,1.8,0.8,2.4c0.6,0.5,1.4,0.8,2.3,0.7
		c0.5,0,1,0,1.5-0.1s1-0.2,1.5-0.4l0.1,1.2c-0.5,0.2-1,0.3-1.6,0.4C695.8,101.4,695.3,101.5,694.7,101.5z M694.5,92.6
		c-1.7,0-2.7,1.1-2.8,3.3h5.1c0.1-0.9-0.1-1.7-0.6-2.5C695.9,92.9,695.2,92.6,694.5,92.6z"/>
	<path class="st3" d="M703.2,101.5c-0.5,0-0.9,0-1.4-0.1s-1.1-0.2-1.9-0.3v-1.3c0.6,0.1,1.2,0.3,1.7,0.3c0.5,0.1,1,0.1,1.5,0.1
		c0.6,0,1.1-0.1,1.6-0.4c0.4-0.3,0.6-0.7,0.5-1.2c0-0.2,0-0.5-0.1-0.7s-0.2-0.4-0.4-0.5c-0.2-0.1-0.4-0.2-0.7-0.3
		c-0.3-0.1-0.5-0.2-0.8-0.2l-1.1-0.2c-0.4-0.1-0.7-0.2-1-0.4c-0.3-0.2-0.6-0.5-0.8-0.8c-0.2-0.4-0.3-0.9-0.3-1.4c0-0.8,0.4-1.5,1-2
		c0.8-0.5,1.7-0.8,2.6-0.7c0.2,0,0.4,0,0.6,0l0.6,0.1l0.7,0.1l0.9,0.2l-0.2,1.3c-0.6-0.1-1.1-0.2-1.5-0.3s-0.8-0.1-1.1-0.1
		c-1.5,0-2.2,0.5-2.2,1.5c0,0.2,0,0.5,0.2,0.7c0.1,0.2,0.3,0.3,0.5,0.5c0.2,0.1,0.5,0.2,0.7,0.3c0.3,0.1,0.6,0.1,0.9,0.2
		c0.4,0.1,0.8,0.2,1.2,0.3s0.7,0.3,1,0.5c0.3,0.2,0.5,0.5,0.6,0.8c0.2,0.4,0.2,0.8,0.2,1.2c0,0.8-0.3,1.6-1,2.1
		C705.1,101.3,704.2,101.6,703.2,101.5z"/>
	<rect x="111.7" y="50.5" class="st1" width="207" height="90"/>
	<path class="st0" d="M317.7,51.5v88h-205v-88H317.7 M318.7,50.5h-207v90h207V50.5z"/>
	<g>
		<circle class="st0" cx="215.2" cy="453.3" r="36"/>
		<path class="st3" d="M200.4,445.8h8.5v1.3H202v4.6h6.4v1.4H202v4.8h7v1.3h-8.6V445.8z"/>
		<path class="st3" d="M211.2,449.3h1.3l0.1,1.1h0.1l1.3-0.6c0.4-0.2,0.7-0.3,1.1-0.4c0.3-0.1,0.6-0.2,0.9-0.2s0.6-0.1,0.8-0.1
			c0.7,0,1.4,0.2,1.9,0.7s0.7,1.3,0.7,2v7.2h-1.6v-6.7c0-0.5-0.1-1-0.4-1.4c-0.3-0.3-0.8-0.5-1.2-0.4c-0.5,0-1.1,0.1-1.6,0.3
			c-0.7,0.2-1.3,0.5-1.9,0.8v7.5h-1.6L211.2,449.3L211.2,449.3z"/>
		<path class="st3" d="M225.6,459.3c-1.1,0.1-2.2-0.4-3-1.2c-0.8-1.1-1.1-2.4-1-3.8c0-0.8,0.1-1.5,0.3-2.3c0.2-0.6,0.6-1.1,1-1.6
			c0.4-0.4,0.9-0.8,1.5-1s1.3-0.3,2-0.3c0.4,0,0.8,0,1.2,0.1l1.1,0.1v-4.8h1.5V459h-1.4l-0.1-1.2h-0.1
			C227.8,458.8,226.7,459.3,225.6,459.3z M225.9,458c0.3,0,0.7-0.1,1-0.1c0.3-0.1,0.6-0.2,0.9-0.4c0.2-0.2,0.5-0.4,0.6-0.7
			c0.1-0.3,0.2-0.6,0.2-0.9v-5.2c-0.4-0.1-0.7-0.1-1.1-0.1s-0.8-0.1-1.2-0.1c-0.9-0.1-1.8,0.3-2.4,0.9c-0.6,0.9-0.9,1.9-0.8,2.9
			c-0.1,1,0.1,2,0.7,2.9C224.3,457.8,225.1,458.1,225.9,458L225.9,458z"/>
	</g>
	<rect x="421.8" y="213" class="st4" width="72" height="54"/>
	<path class="st3" d="M447.1,232.5h1.4l6.8,9.3l1,1.6h0.1v-10.9h1.5v13.3h-1.4l-6.9-9.3l-1-1.6h-0.1v10.8H447L447.1,232.5
		L447.1,232.5z"/>
	<path class="st3" d="M464.8,246c-1.3,0.1-2.5-0.4-3.4-1.3c-1.5-2.3-1.5-5.2,0-7.5c1.9-1.7,4.8-1.7,6.7,0c1.5,2.3,1.5,5.2,0,7.5
		C467.3,245.6,466,246.1,464.8,246z M464.8,244.8c0.8,0.1,1.7-0.3,2.2-0.9c0.9-1.8,0.9-3.9,0-5.7c-1.2-1.2-3.2-1.2-4.4,0
		c-0.9,1.8-0.9,3.9,0,5.7C463.1,244.4,463.9,244.9,464.8,244.8L464.8,244.8z"/>
	<rect x="553.3" y="95" class="st0" width="97" height="1"/>
	<polygon class="st0" points="648.8,100.4 657.5,95.5 648.8,90.5 	"/>
	<rect x="729.5" y="95" class="st0" width="43.6" height="1"/>
	<polygon class="st0" points="771.6,100.4 780.3,95.5 771.6,90.5 	"/>
	<rect x="457.3" y="190.1" class="st0" width="1" height="15.6"/>
	<polygon class="st0" points="452.8,204.4 457.8,213 462.8,204.4 	"/>
	<rect x="390.3" y="28" transform="matrix(0.7071 -0.7071 0.7071 0.7071 66.5784 351.6514)" class="st1" width="135" height="135"/>
	<path class="st0" d="M457.8,1.4l94,94.1l-94,94l-94-94L457.8,1.4 M457.8,0.1l-95.5,95.4l95.5,95.5l95.5-95.5L457.8,0.1L457.8,0.1z"
		/>
	<path class="st3" d="M399.2,101.2L404,88h2.4l4.8,13.2v0.1h-1.6l-1.5-4h-6l-1.4,4L399.2,101.2L399.2,101.2L399.2,101.2z M407.7,96
		l-1.6-4.5l-0.8-2.3h-0.1l-0.8,2.3l-1.6,4.5H407.7z"/>
	<path class="st3" d="M412.7,86.8h1.6v14.5h-1.6V86.8z"/>
	<path class="st3" d="M419,101.4c-0.7,0-1.4-0.2-1.9-0.7s-0.7-1.2-0.7-1.9c-0.1-0.8,0.3-1.6,0.9-2.1c0.8-0.6,1.8-0.9,2.8-0.9
		l2.3-0.2v-0.7c0-0.4,0-0.7-0.1-1.1c-0.1-0.3-0.2-0.5-0.4-0.7s-0.5-0.3-0.7-0.4c-0.4-0.1-0.8-0.1-1.2-0.1s-0.9,0-1.3,0.1
		c-0.5,0-1,0.1-1.5,0.2l-0.1-1.2c0.6-0.1,1.2-0.2,1.7-0.3s1-0.1,1.6-0.1c1-0.1,2,0.2,2.8,0.8c0.6,0.6,1,1.5,0.9,2.4v6.6h-1.3
		l-0.2-1.2h-0.1c-0.5,0.4-1.1,0.7-1.7,1C420.2,101.3,419.6,101.4,419,101.4z M419.6,100.2c0.5,0,1-0.1,1.4-0.3
		c0.5-0.2,1-0.5,1.5-0.8v-2.5l-1.9,0.2c-0.7,0-1.4,0.2-2,0.6c-0.4,0.3-0.6,0.8-0.6,1.4C418,99.7,418.5,100.2,419.6,100.2z"/>
	<path class="st3" d="M426.7,91.6h1.3l0.1,1.3h0.1c0.7-0.4,1.3-0.7,1.9-1c0.5-0.2,1-0.4,1.6-0.5h0.5v1.5h-0.6
		c-0.6,0.1-1.1,0.2-1.7,0.4c-0.6,0.2-1.1,0.5-1.6,0.7v7.2h-1.6V91.6z"/>
	<path class="st3" d="M433.7,91.6h1.3l0.1,1.1h0.1c0.6-0.4,1.3-0.7,2-1c0.5-0.2,1-0.3,1.6-0.3c1-0.1,1.9,0.4,2.3,1.3h0.1
		c0.6-0.4,1.3-0.7,2-1c0.5-0.2,1-0.3,1.6-0.3c0.7,0,1.4,0.2,1.9,0.7s0.7,1.3,0.7,2v7.2h-1.6v-6.7c0-0.5-0.1-1-0.4-1.4
		c-0.3-0.3-0.8-0.5-1.2-0.4c-0.4,0-0.9,0.1-1.3,0.3c-0.5,0.2-1,0.5-1.5,0.7v7.5h-1.6v-6.7c0-0.5-0.1-1-0.4-1.4
		c-0.3-0.3-0.8-0.5-1.2-0.4c-0.4,0-0.9,0.1-1.3,0.3c-0.5,0.2-1,0.5-1.5,0.8v7.5h-1.6L433.7,91.6L433.7,91.6z"/>
	<path class="st3" d="M454.9,89.6c-0.5,0.1-0.9-0.2-1-0.7c0-0.1,0-0.2,0-0.3c-0.1-0.5,0.2-0.9,0.7-1c0.1,0,0.2,0,0.3,0
		c0.7,0,1,0.3,1,1S455.6,89.6,454.9,89.6z M454.1,91.6h1.6v9.7h-1.6V91.6z"/>
	<path class="st3" d="M461.2,101.5c-0.5,0-0.9,0-1.4-0.1s-1.1-0.2-1.9-0.3v-1.3c0.6,0.1,1.2,0.3,1.7,0.3c0.5,0.1,1,0.1,1.5,0.1
		c0.6,0,1.1-0.1,1.6-0.4c0.4-0.3,0.6-0.7,0.5-1.2c0-0.2,0-0.5-0.1-0.7s-0.2-0.4-0.4-0.5s-0.4-0.2-0.6-0.3c-0.3-0.1-0.5-0.1-0.8-0.2
		s-0.8-0.2-1.1-0.3c-0.4-0.1-0.7-0.2-1-0.4s-0.6-0.5-0.8-0.8c-0.2-0.4-0.3-0.9-0.3-1.4c0-0.8,0.3-1.6,0.9-2.1
		c0.8-0.5,1.7-0.8,2.6-0.7h0.6l0.6,0.1l0.7,0.1c0.3,0,0.6,0.1,0.9,0.2l-0.1,1.3c-0.6-0.1-1.1-0.2-1.5-0.3s-0.8-0.1-1.1-0.1
		c-1.5,0-2.2,0.5-2.2,1.5c0,0.2,0.1,0.5,0.2,0.7c0.1,0.2,0.3,0.4,0.5,0.5s0.5,0.2,0.7,0.3c0.3,0.1,0.6,0.1,0.9,0.2
		c0.4,0.1,0.8,0.2,1.2,0.3s0.7,0.3,1,0.5s0.5,0.5,0.6,0.8c0.2,0.4,0.2,0.8,0.2,1.2c0,0.8-0.3,1.6-0.9,2.1
		C463.2,101.3,462.2,101.6,461.2,101.5z"/>
	<path class="st3" d="M469.7,91.8v-0.2h1.6l2.5,7l0.4,1.5h0.2l0.4-1.5l2.5-7h1.6v0.2l-3.7,9.5h-2L469.7,91.8z"/>
	<path class="st3" d="M482.6,101.4c-0.7,0-1.4-0.2-1.9-0.7s-0.7-1.2-0.7-1.9c0-0.8,0.3-1.6,0.9-2.1c0.8-0.6,1.8-0.9,2.8-0.9l2.3-0.2
		v-0.7c0-0.4,0-0.7-0.1-1.1c-0.1-0.3-0.2-0.5-0.4-0.7s-0.5-0.3-0.8-0.4c-0.4-0.1-0.8-0.1-1.2-0.1s-0.9,0-1.3,0.1
		c-0.5,0-1,0.1-1.5,0.2l-0.1-1.2c0.6-0.1,1.2-0.2,1.7-0.3s1-0.1,1.6-0.1c1-0.1,2,0.2,2.8,0.8c0.6,0.6,1,1.5,0.9,2.4v6.6h-1.3
		l-0.2-1.1H486c-0.5,0.4-1.1,0.7-1.7,1S483.2,101.4,482.6,101.4z M483.1,100.2c0.5,0,1-0.1,1.4-0.3c0.5-0.2,1-0.5,1.5-0.8v-2.4
		l-1.9,0.2c-0.7,0-1.4,0.2-2,0.6c-0.4,0.3-0.6,0.8-0.6,1.4C481.6,99.7,482.1,100.2,483.1,100.2z"/>
	<path class="st3" d="M490.3,86.8h1.6v14.5h-1.6V86.8z"/>
	<path class="st3" d="M495.4,89.6c-0.5,0.1-0.9-0.2-1-0.7c0-0.1,0-0.2,0-0.3c-0.1-0.5,0.2-0.9,0.7-1c0.1,0,0.2,0,0.3,0
		c0.7,0,1,0.3,1,1S496.1,89.6,495.4,89.6z M494.6,91.6h1.6v9.7h-1.6V91.6z"/>
	<path class="st3" d="M502.5,101.5c-1.1,0.1-2.2-0.4-3-1.2c-0.8-1.1-1.1-2.4-1-3.8c0-0.8,0.1-1.5,0.3-2.3c0.2-0.6,0.6-1.1,1-1.6
		c0.4-0.4,0.9-0.8,1.5-1s1.3-0.3,2-0.3c0.4,0,0.8,0,1.2,0.1l1.1,0.1v-4.8h1.6v14.5h-1.4l-0.1-1.2h-0.1
		C504.8,101.1,503.7,101.6,502.5,101.5z M502.8,100.2c0.3,0,0.7-0.1,1-0.2s0.6-0.2,0.9-0.4c0.2-0.2,0.5-0.4,0.6-0.7s0.2-0.6,0.2-0.9
		v-5.2c-0.4-0.1-0.7-0.1-1.1-0.1c-0.4,0-0.8-0.1-1.2-0.1c-0.9-0.1-1.8,0.3-2.4,0.9c-0.6,0.8-0.9,1.9-0.8,2.9c-0.1,1,0.1,2,0.7,2.9
		C501.2,100,502,100.3,502.8,100.2L502.8,100.2z"/>
	<path class="st3" d="M511.1,97.8l-0.1-3.4c0.4-0.1,0.8-0.2,1.2-0.3c0.4-0.1,0.8-0.3,1.1-0.5c0.3-0.2,0.6-0.5,0.8-0.8
		c0.2-0.4,0.3-0.8,0.3-1.2s-0.1-0.8-0.2-1.1c-0.1-0.3-0.3-0.5-0.6-0.7c-0.2-0.2-0.5-0.3-0.8-0.4c-0.3-0.1-0.7-0.1-1-0.1
		c-0.4,0-0.9,0-1.3,0.1c-0.4,0.1-0.9,0.2-1.3,0.3l-0.1-1.2c0.5-0.1,1-0.3,1.5-0.3c0.5-0.1,1.1-0.1,1.6-0.1c0.5,0,1,0.1,1.5,0.2
		c0.4,0.1,0.9,0.3,1.2,0.6c0.4,0.3,0.6,0.7,0.8,1.1c0.2,0.5,0.3,1.1,0.3,1.7c0,1-0.4,2-1.1,2.7c-0.3,0.3-0.7,0.5-1.2,0.7
		c-0.4,0.2-0.8,0.3-1.3,0.4v2.6v0.3h-1.2L511.1,97.8z M511.7,101.3c-0.2,0-0.5-0.1-0.7-0.3s-0.3-0.4-0.3-0.7s0.1-0.5,0.3-0.7
		s0.4-0.3,0.7-0.2c0.3,0,0.5,0.1,0.7,0.2c0.2,0.2,0.3,0.4,0.3,0.7c0,0.2-0.1,0.5-0.3,0.7C512.2,101.3,512,101.4,511.7,101.3
		L511.7,101.3z"/>
	<g>
		<rect x="214.7" y="240.4" class="st0" width="1" height="172.3"/>
		<polygon class="st0" points="210.2,408.6 215.2,417.3 220.2,408.6 		"/>
		<rect x="215.2" y="239.5" class="st0" width="206.7" height="1"/>
	</g>
	<rect x="252.6" y="452.8" class="st0" width="528.6" height="1"/>
	<polygon class="st0" points="259.8,448.3 251.2,453.3 259.8,458.3 	"/>
	<polygon class="st0" points="569.9,448.3 561.3,453.3 569.9,458.3 	"/>
	<g>
		<rect x="883.3" y="139.4" class="st0" width="1" height="261.6"/>
		<polygon class="st0" points="878.8,399.6 883.8,408.3 888.7,399.6 		"/>
		<polygon class="st0" points="878.8,220.1 883.8,228.8 888.7,220.1 		"/>
	</g>
	<g>
		<g>
			<path class="st3" d="M141,76.6h1.7l3.3,9.2l0.9,2.6h0.1l0.9-2.6l3.3-9.2h1.7L148,90h-2.2L141,76.6z"/>
			<path class="st3" d="M155.5,90c-0.8,0-1.5-0.2-1.9-0.7c-0.4-0.4-0.7-1.1-0.7-1.9c0-0.9,0.3-1.6,0.9-2.1s1.5-0.8,2.8-0.9l2.3-0.2
				v-0.7c0-0.4,0-0.8-0.1-1.1s-0.2-0.5-0.4-0.7c-0.2-0.2-0.4-0.3-0.7-0.4c-0.3-0.1-0.7-0.1-1.2-0.1c-0.4,0-0.8,0-1.3,0.1
				c-0.5,0-1,0.1-1.5,0.2l-0.1-1.2c0.6-0.1,1.2-0.2,1.7-0.3s1-0.1,1.6-0.1c1.3,0,2.2,0.3,2.8,0.8s0.9,1.3,0.9,2.4V90h-1.3l-0.2-1.2
				H159c-0.6,0.4-1.2,0.7-1.7,1S156.1,90,155.5,90z M156.1,88.8c0.4,0,0.9-0.1,1.4-0.3s1-0.5,1.5-0.8v-2.4l-1.9,0.2
				c-0.9,0.1-1.6,0.3-2,0.5c-0.4,0.3-0.6,0.7-0.6,1.4C154.5,88.3,155.1,88.8,156.1,88.8z"/>
			<path class="st3" d="M163.2,75.4h1.6V90h-1.6V75.4z"/>
			<path class="st3" d="M168.4,78.2c-0.6,0-1-0.3-1-1c0-0.6,0.3-1,1-1s1,0.3,1,1S169,78.2,168.4,78.2z M167.6,80.2h1.6V90h-1.6V80.2
				z"/>
			<path class="st3" d="M175.4,90.1c-1.3,0-2.3-0.4-3-1.2s-1-2.1-1-3.8c0-0.9,0.1-1.6,0.3-2.3c0.2-0.6,0.6-1.2,1-1.6s0.9-0.7,1.5-1
				c0.6-0.2,1.3-0.3,2-0.3c0.4,0,0.8,0,1.2,0.1c0.4,0,0.7,0.1,1.1,0.1v-4.8h1.6V90h-1.4l-0.1-1.2h-0.1
				C177.8,89.7,176.8,90.1,175.4,90.1z M175.8,88.9c0.4,0,0.7-0.1,1-0.2s0.6-0.2,0.9-0.4s0.5-0.4,0.6-0.7s0.2-0.6,0.2-0.9v-5.2
				c-0.3-0.1-0.7-0.1-1.1-0.1s-0.8-0.1-1.2-0.1c-1.1,0-1.8,0.3-2.4,0.9c-0.5,0.6-0.8,1.6-0.8,2.9c0,1.4,0.2,2.3,0.7,2.9
				C174.1,88.6,174.8,88.9,175.8,88.9z"/>
			<path class="st3" d="M184.7,90c-0.8,0-1.5-0.2-1.9-0.7c-0.4-0.4-0.7-1.1-0.7-1.9c0-0.9,0.3-1.6,0.9-2.1s1.5-0.8,2.8-0.9l2.3-0.2
				v-0.7c0-0.4,0-0.8-0.1-1.1s-0.2-0.5-0.4-0.7c-0.2-0.2-0.4-0.3-0.7-0.4c-0.3-0.1-0.7-0.1-1.2-0.1c-0.4,0-0.8,0-1.3,0.1
				c-0.5,0-1,0.1-1.5,0.2l-0.1-1.2c0.6-0.1,1.2-0.2,1.7-0.3s1-0.1,1.6-0.1c1.3,0,2.2,0.3,2.8,0.8s0.9,1.3,0.9,2.4V90h-1.3l-0.2-1.2
				h-0.1c-0.6,0.4-1.2,0.7-1.7,1S185.3,90,184.7,90z M185.3,88.8c0.4,0,0.9-0.1,1.4-0.3s1-0.5,1.5-0.8v-2.4l-1.9,0.2
				c-0.9,0.1-1.6,0.3-2,0.5c-0.4,0.3-0.6,0.7-0.6,1.4C183.7,88.3,184.2,88.8,185.3,88.8z"/>
			<path class="st3" d="M196,90.1c-0.9,0-1.6-0.2-2.1-0.7s-0.7-1.2-0.7-2.1v-5.7h-2v-1.4h2.1l0.2-2.4l1.2-0.2v2.6h2.9v1.4h-2.9V87
				c0,0.6,0.1,1.1,0.4,1.4s0.7,0.4,1.3,0.4c0.2,0,0.4,0,0.6,0s0.4-0.1,0.7-0.2v1.3c-0.3,0.1-0.6,0.1-0.9,0.2
				C196.6,90.1,196.3,90.1,196,90.1z"/>
			<path class="st3" d="M203.5,90.1c-1.5,0-2.6-0.4-3.4-1.2s-1.1-2-1.1-3.7s0.4-2.9,1.1-3.8c0.8-0.9,1.8-1.3,3.3-1.3
				c2.5,0,3.7,1.4,3.7,4.3c0,0.6,0,1-0.1,1.3h-6.4c0.1,1.1,0.3,1.9,0.8,2.4s1.3,0.7,2.3,0.7c0.5,0,0.9,0,1.5-0.1
				c0.5-0.1,1-0.2,1.5-0.4l0.1,1.2c-0.5,0.2-1,0.3-1.6,0.4C204.6,90,204,90.1,203.5,90.1z M203.3,81.3c-1.7,0-2.7,1.1-2.8,3.3h5.1
				c0-1.2-0.2-2-0.6-2.5C204.7,81.5,204.1,81.3,203.3,81.3z"/>
			<path class="st3" d="M216.8,90.1c-0.9,0-1.6-0.2-2.1-0.7s-0.7-1.2-0.7-2.1v-5.7h-2v-1.4h2.1l0.2-2.4l1.2-0.2v2.6h2.9v1.4h-2.9V87
				c0,0.6,0.1,1.1,0.4,1.4s0.7,0.4,1.3,0.4c0.2,0,0.4,0,0.6,0s0.4-0.1,0.7-0.2v1.3c-0.3,0.1-0.6,0.1-0.9,0.2
				C217.3,90.3,217.1,90.1,216.8,90.1z"/>
			<path class="st3" d="M220.3,75.4h1.6v5.9c0.9-0.4,1.7-0.8,2.3-1s1.2-0.3,1.8-0.3c0.8,0,1.5,0.2,1.9,0.7c0.4,0.4,0.7,1.1,0.7,2V90
				H227v-6.7c0-0.7-0.1-1.1-0.4-1.4s-0.6-0.4-1.2-0.4c-0.5,0-1,0.1-1.6,0.3s-1.2,0.4-1.9,0.8V90h-1.6L220.3,75.4L220.3,75.4z"/>
			<path class="st3" d="M235.2,90.1c-1.5,0-2.6-0.4-3.4-1.2s-1.1-2-1.1-3.7s0.4-2.9,1.1-3.8c0.8-0.9,1.8-1.3,3.3-1.3
				c2.5,0,3.7,1.4,3.7,4.3c0,0.6,0,1-0.1,1.3h-6.4c0.1,1.1,0.3,1.9,0.8,2.4s1.3,0.7,2.3,0.7c0.5,0,0.9,0,1.5-0.1
				c0.5-0.1,1-0.2,1.5-0.4l0.1,1.2c-0.5,0.2-1,0.3-1.6,0.4C236.3,90,235.7,90.1,235.2,90.1z M235,81.3c-1.7,0-2.7,1.1-2.8,3.3h5.1
				c0-1.2-0.2-2-0.6-2.5C236.4,81.5,235.8,81.3,235,81.3z"/>
			<path class="st3" d="M247.1,90c-0.8,0-1.5-0.2-1.9-0.7c-0.4-0.4-0.7-1.1-0.7-1.9c0-0.9,0.3-1.6,0.9-2.1s1.5-0.8,2.8-0.9l2.3-0.2
				v-0.7c0-0.4,0-0.8-0.1-1.1s-0.2-0.5-0.4-0.7c-0.2-0.2-0.4-0.3-0.7-0.4c-0.3-0.1-0.7-0.1-1.2-0.1c-0.4,0-0.8,0-1.3,0.1
				c-0.5,0-1,0.1-1.5,0.2l-0.1-1.2c0.6-0.1,1.2-0.2,1.7-0.3s1-0.1,1.6-0.1c1.3,0,2.2,0.3,2.8,0.8s0.9,1.3,0.9,2.4V90h-1.3l-0.2-1.2
				h-0.1c-0.6,0.4-1.2,0.7-1.7,1S247.7,90,247.1,90z M247.7,88.8c0.4,0,0.9-0.1,1.4-0.3s1-0.5,1.5-0.8v-2.4l-1.9,0.2
				c-0.9,0.1-1.6,0.3-2,0.5c-0.4,0.3-0.6,0.7-0.6,1.4C246.1,88.3,246.6,88.8,247.7,88.8z"/>
			<path class="st3" d="M254.8,75.4h1.6V90h-1.6V75.4L254.8,75.4z"/>
			<path class="st3" d="M261.1,90c-0.8,0-1.5-0.2-1.9-0.7c-0.4-0.4-0.7-1.1-0.7-1.9c0-0.9,0.3-1.6,0.9-2.1s1.5-0.8,2.8-0.9l2.3-0.2
				v-0.7c0-0.4,0-0.8-0.1-1.1s-0.2-0.5-0.4-0.7c-0.2-0.2-0.4-0.3-0.7-0.4c-0.3-0.1-0.7-0.1-1.2-0.1c-0.4,0-0.8,0-1.3,0.1
				c-0.5,0-1,0.1-1.5,0.2l-0.1-1.2c0.6-0.1,1.2-0.2,1.7-0.3s1-0.1,1.6-0.1c1.3,0,2.2,0.3,2.8,0.8c0.6,0.5,0.9,1.3,0.9,2.4V90h-1.3
				l-0.2-1.2h-0.1c-0.6,0.4-1.2,0.7-1.7,1S261.7,90,261.1,90z M261.7,88.8c0.4,0,0.9-0.1,1.4-0.3s1-0.5,1.5-0.8v-2.4l-1.9,0.2
				c-0.9,0.1-1.6,0.3-2,0.5c-0.4,0.3-0.6,0.7-0.6,1.4C260.1,88.3,260.6,88.8,261.7,88.8z"/>
			<path class="st3" d="M268.8,80.2h1.3l0.1,1.3h0.1c0.7-0.4,1.3-0.7,1.9-1s1.1-0.4,1.6-0.5h0.5v1.5h-0.6c-0.5,0.1-1.1,0.2-1.7,0.4
				s-1.1,0.5-1.6,0.7V90h-1.6L268.8,80.2L268.8,80.2z"/>
			<path class="st3" d="M275.8,80.2h1.3l0.1,1.1h0.1c0.8-0.5,1.4-0.8,2-1s1.1-0.3,1.6-0.3c1.2,0,1.9,0.4,2.3,1.3h0.1
				c0.8-0.5,1.4-0.8,2-1s1.1-0.3,1.6-0.3c0.8,0,1.5,0.2,1.9,0.7c0.4,0.4,0.7,1.1,0.7,2V90h-1.6v-6.7c0-0.7-0.1-1.1-0.4-1.4
				s-0.7-0.4-1.2-0.4c-0.4,0-0.8,0.1-1.3,0.3s-1,0.4-1.5,0.7V90h-1.6v-6.7c0-0.7-0.1-1.1-0.4-1.4s-0.7-0.4-1.2-0.4
				c-0.4,0-0.8,0.1-1.3,0.3s-1,0.4-1.5,0.8V90h-1.6v-9.8H275.8L275.8,80.2z"/>
			<path class="st3" d="M185.2,102v-0.2h1.6l2.5,7l0.4,1.5h0.2l0.4-1.5l2.5-7h1.6v0.2l-3.7,9.5h-2.1L185.2,102z"/>
			<path class="st3" d="M197,99.8c-0.6,0-1-0.3-1-1c0-0.6,0.3-1,1-1s1,0.3,1,1S197.7,99.8,197,99.8z M196.3,101.8h1.6v9.7h-1.6
				V101.8z"/>
			<path class="st3" d="M203.3,111.8c-0.4,0-0.9,0-1.4-0.1s-1.1-0.2-1.9-0.3V110c0.6,0.1,1.2,0.3,1.7,0.4s1,0.1,1.5,0.1
				c0.7,0,1.3-0.1,1.6-0.4c0.4-0.3,0.5-0.7,0.5-1.2c0-0.3,0-0.5-0.1-0.7s-0.2-0.3-0.4-0.5c-0.2-0.1-0.4-0.2-0.6-0.3
				s-0.5-0.1-0.8-0.2c-0.4-0.1-0.8-0.2-1.1-0.2c-0.4-0.1-0.7-0.2-1-0.4s-0.6-0.5-0.8-0.8c-0.2-0.3-0.3-0.8-0.3-1.4
				c0-0.9,0.3-1.6,0.9-2.1s1.5-0.7,2.6-0.7c0.2,0,0.4,0,0.6,0s0.4,0,0.6,0.1c0.2,0,0.5,0.1,0.7,0.1s0.6,0.1,0.9,0.2l-0.1,1.3
				c-0.6-0.1-1.1-0.2-1.5-0.3s-0.8-0.1-1.1-0.1c-1.5,0-2.2,0.5-2.2,1.5c0,0.3,0.1,0.5,0.2,0.7s0.3,0.3,0.5,0.5
				c0.2,0.1,0.4,0.2,0.7,0.3c0.3,0.1,0.6,0.1,0.9,0.2c0.4,0.1,0.8,0.2,1.2,0.3c0.4,0.1,0.7,0.3,1,0.5s0.5,0.5,0.6,0.8
				s0.2,0.7,0.2,1.2c0,0.9-0.3,1.6-0.9,2.1C205.4,111.5,204.5,111.8,203.3,111.8z"/>
			<path class="st3" d="M211.4,111.7c-1.6,0-2.5-0.9-2.5-2.7v-7.2h1.6v6.7c0,0.6,0.1,1.1,0.3,1.4c0.2,0.3,0.6,0.4,1.2,0.4
				s1.2-0.1,1.8-0.4c0.6-0.2,1.2-0.5,1.8-0.8v-7.4h1.6v9.7h-1.3l-0.1-1.2h-0.1c-0.5,0.2-0.9,0.4-1.3,0.6s-0.7,0.3-1,0.4
				s-0.6,0.2-0.9,0.2C212.1,111.7,211.8,111.7,211.4,111.7z"/>
			<path class="st3" d="M221.9,111.6c-0.8,0-1.5-0.2-1.9-0.7c-0.4-0.4-0.7-1.1-0.7-1.9c0-0.9,0.3-1.7,0.9-2.1
				c0.6-0.5,1.5-0.8,2.8-0.9l2.3-0.2v-0.7c0-0.4,0-0.8-0.1-1.1s-0.2-0.5-0.4-0.7c-0.2-0.2-0.4-0.3-0.7-0.4c-0.3-0.1-0.7-0.1-1.2-0.1
				c-0.4,0-0.8,0-1.3,0.1c-0.5,0-1,0.1-1.5,0.2l-0.1-1.2c0.6-0.1,1.2-0.2,1.7-0.3s1-0.1,1.6-0.1c1.3,0,2.2,0.3,2.8,0.8
				s0.9,1.3,0.9,2.4v6.6h-1.3l-0.2-1.2h-0.1c-0.6,0.4-1.2,0.7-1.7,1C223,111.5,222.4,111.6,221.9,111.6z M222.4,110.4
				c0.4,0,0.9-0.1,1.4-0.3s1-0.5,1.5-0.8v-2.4l-1.9,0.2c-0.9,0.1-1.6,0.3-2,0.5c-0.4,0.3-0.6,0.7-0.6,1.4
				C220.9,109.9,221.4,110.4,222.4,110.4z"/>
			<path class="st3" d="M229.6,97h1.6v14.5h-1.6V97z"/>
			<path class="st3" d="M233.9,97h1.6v14.5h-1.6V97z"/>
			<path class="st3" d="M239.7,115.2V115l1.5-3.6l-4-9.5v-0.2h1.7l2.6,6.6l0.4,1.4h0.1l0.4-1.4l2.7-6.6h1.6v0.2l-5.7,13.5
				L239.7,115.2z"/>
		</g>
	</g>
	<rect x="780.3" y="408.3" class="st1" width="207" height="90"/>
	<path class="st0" d="M986.3,409.3v88h-205v-88H986.3 M987.3,408.3h-207v90h207V408.3z"/>
	<rect x="780.3" y="228.8" class="st1" width="207" height="90"/>
	<path class="st0" d="M986.3,229.8v88h-205v-88H986.3 M987.3,228.8h-207v90h207V228.8z"/>
	<rect x="354.3" y="408.3" class="st1" width="207" height="90"/>
	<path class="st0" d="M560.3,409.3v88h-205v-88H560.3 M561.3,408.3h-207v90h207V408.3z"/>
	<g>
		<g>
			<path class="st5" d="M838.7,91.3c-0.6,0-1.2,0-1.9-0.1s-1.4-0.2-2-0.4v-1.5c0.7,0.2,1.3,0.3,2,0.4c0.7,0.1,1.3,0.1,1.8,0.1
				c1.8,0,2.7-0.6,2.7-1.8c0-0.3-0.1-0.6-0.2-0.8c-0.1-0.2-0.3-0.4-0.5-0.6s-0.5-0.3-0.8-0.4s-0.7-0.2-1-0.3
				c-0.6-0.2-1.2-0.3-1.6-0.5c-0.5-0.2-0.8-0.4-1.1-0.7c-0.3-0.3-0.5-0.6-0.7-1c-0.1-0.4-0.2-0.8-0.2-1.3c0-0.5,0.1-1,0.3-1.4
				c0.2-0.4,0.5-0.8,0.8-1c0.4-0.3,0.8-0.5,1.3-0.7c0.5-0.2,1.1-0.2,1.8-0.2c0.5,0,1,0,1.5,0.1c0.5,0.1,1.1,0.2,1.8,0.3v1.5
				c-0.5-0.1-1-0.2-1.6-0.3s-1.1-0.1-1.5-0.1c-0.8,0-1.4,0.2-1.9,0.5c-0.4,0.3-0.7,0.8-0.7,1.3c0,0.5,0.2,1,0.6,1.3
				c0.4,0.3,1.1,0.6,2,0.8c0.6,0.1,1.1,0.3,1.5,0.5c0.4,0.2,0.8,0.4,1.2,0.7s0.6,0.6,0.7,1s0.3,0.8,0.3,1.4c0,1.1-0.4,1.9-1.1,2.5
				C841.2,91,840.1,91.3,838.7,91.3z"/>
			<path class="st5" d="M848.5,91.2c-1.4,0-2.4-0.4-3.1-1.1c-0.7-0.7-1-1.8-1-3.3c0-1.5,0.3-2.6,1-3.4c0.7-0.8,1.7-1.2,3-1.2
				c2.3,0,3.5,1.3,3.5,3.9c0,0.5,0,0.9-0.1,1.2h-5.6c0.1,0.9,0.3,1.5,0.7,1.9c0.4,0.4,1,0.6,1.9,0.6c0.4,0,0.9,0,1.4-0.1
				s1-0.2,1.4-0.3l0.1,1.3c-0.4,0.2-0.9,0.3-1.5,0.4C849.6,91.2,849,91.2,848.5,91.2z M848.4,83.6c-0.7,0-1.2,0.2-1.6,0.6
				s-0.6,1.1-0.6,2h4.1c0-0.9-0.2-1.6-0.5-2C849.5,83.8,849,83.6,848.4,83.6z"/>
			<path class="st5" d="M853.7,82.4h1.5l0.1,1h0.1c0.8-0.4,1.5-0.7,2.1-0.9c0.6-0.2,1.1-0.3,1.6-0.3c0.7,0,1.3,0.2,1.7,0.6
				c0.4,0.4,0.6,1,0.6,1.8v6.4h-1.8v-5.8c0-0.5-0.1-0.9-0.3-1.2c-0.2-0.2-0.5-0.4-1-0.4c-0.4,0-0.8,0.1-1.3,0.2
				c-0.5,0.2-1,0.4-1.6,0.6v6.5h-1.8V82.4z"/>
			<path class="st5" d="M866.8,91.2c-1.2,0-2.1-0.4-2.7-1.1s-0.9-1.8-0.9-3.3c0-0.8,0.1-1.4,0.3-2c0.2-0.6,0.5-1.1,0.9-1.4
				c0.4-0.4,0.9-0.7,1.4-0.9c0.5-0.2,1.2-0.3,1.8-0.3c0.3,0,0.7,0,1,0c0.3,0,0.6,0.1,0.9,0.1v-4.3h1.8v12.9h-1.6l-0.1-1.1h-0.1
				C868.9,90.8,868,91.2,866.8,91.2z M867.3,89.9c0.3,0,0.6,0,0.9-0.1c0.3-0.1,0.5-0.2,0.7-0.4c0.2-0.2,0.4-0.4,0.5-0.6
				c0.1-0.2,0.2-0.5,0.2-0.8v-4.2c-0.3-0.1-0.6-0.1-0.9-0.1c-0.3,0-0.7,0-1,0c-0.9,0-1.5,0.2-2,0.7c-0.4,0.5-0.6,1.3-0.6,2.5
				c0,1.1,0.2,1.9,0.5,2.4C865.9,89.6,866.5,89.9,867.3,89.9z"/>
			<path class="st5" d="M879.1,91.2c-0.8,0-1.4-0.2-1.8-0.6s-0.6-1-0.6-1.7c0-0.8,0.3-1.5,0.8-1.9s1.4-0.7,2.5-0.8l2-0.2v-0.5
				c0-0.4,0-0.6-0.1-0.9c-0.1-0.2-0.2-0.4-0.3-0.6c-0.2-0.1-0.4-0.2-0.6-0.3s-0.6-0.1-1-0.1c-0.4,0-0.8,0-1.2,0.1
				c-0.4,0-0.9,0.1-1.4,0.2l-0.1-1.3c1.1-0.2,2.1-0.3,3.1-0.3c1.2,0,2.1,0.2,2.6,0.7c0.6,0.5,0.9,1.2,0.9,2.2v5.9h-1.5l-0.2-1.1H882
				c-0.5,0.4-1,0.7-1.5,0.9C880.1,91.1,879.6,91.2,879.1,91.2z M879.7,89.8c0.4,0,0.7-0.1,1.1-0.2c0.4-0.2,0.8-0.4,1.1-0.6v-2
				l-1.5,0.1c-0.7,0.1-1.3,0.2-1.6,0.4c-0.3,0.2-0.4,0.6-0.4,1.1C878.5,89.4,878.9,89.8,879.7,89.8z"/>
			<path class="st5" d="M886,82.4h1.5l0.1,1h0.1c0.8-0.4,1.5-0.7,2.1-0.9c0.6-0.2,1.1-0.3,1.6-0.3c0.7,0,1.3,0.2,1.7,0.6
				s0.6,1,0.6,1.8v6.4H892v-5.8c0-0.5-0.1-0.9-0.3-1.2c-0.2-0.2-0.5-0.4-1-0.4c-0.4,0-0.8,0.1-1.3,0.2s-1,0.4-1.6,0.6v6.5H886V82.4z
				"/>
			<path class="st5" d="M901.4,91.2c-0.8,0-1.4-0.2-1.8-0.6s-0.6-1-0.6-1.7c0-0.8,0.3-1.5,0.8-1.9s1.4-0.7,2.5-0.8l2-0.2v-0.5
				c0-0.4,0-0.6-0.1-0.9c-0.1-0.2-0.2-0.4-0.3-0.6s-0.4-0.2-0.6-0.3s-0.6-0.1-1-0.1c-0.4,0-0.8,0-1.2,0.1c-0.4,0-0.9,0.1-1.4,0.2
				l-0.1-1.3c1.1-0.2,2.1-0.3,3.1-0.3c1.2,0,2.1,0.2,2.6,0.7c0.6,0.5,0.9,1.2,0.9,2.2v5.9h-1.5l-0.2-1.1h-0.1
				c-0.5,0.4-1,0.7-1.5,0.9S901.9,91.2,901.4,91.2z M902.1,89.8c0.4,0,0.7-0.1,1.1-0.2c0.4-0.2,0.8-0.4,1.1-0.6v-2l-1.5,0.1
				c-0.7,0.1-1.3,0.2-1.6,0.4c-0.3,0.2-0.4,0.6-0.4,1.1C900.9,89.4,901.3,89.8,902.1,89.8z"/>
			<path class="st5" d="M908.4,78.1h1.8v12.9h-1.8V78.1z"/>
			<path class="st5" d="M916.2,91.2c-1.4,0-2.4-0.4-3.1-1.1c-0.7-0.7-1-1.8-1-3.3c0-1.5,0.3-2.6,1-3.4c0.7-0.8,1.7-1.2,3-1.2
				c2.3,0,3.5,1.3,3.5,3.9c0,0.5,0,0.9-0.1,1.2h-5.6c0.1,0.9,0.3,1.5,0.7,1.9c0.4,0.4,1,0.6,1.9,0.6c0.4,0,0.9,0,1.4-0.1
				c0.5-0.1,1-0.2,1.4-0.3l0.1,1.3c-0.4,0.2-0.9,0.3-1.5,0.4C917.3,91.2,916.8,91.2,916.2,91.2z M916.1,83.6c-0.7,0-1.2,0.2-1.6,0.6
				s-0.6,1.1-0.6,2h4.1c0-0.9-0.2-1.6-0.5-2C917.2,83.8,916.8,83.6,916.1,83.6z"/>
			<path class="st5" d="M921.4,82.4h1.5l0.1,1.2h0.1c0.5-0.3,1.1-0.6,1.6-0.9c0.5-0.2,1-0.4,1.4-0.5h0.6v1.6H926
				c-0.5,0.1-1,0.2-1.4,0.4c-0.5,0.2-0.9,0.4-1.4,0.6v6.2h-1.8V82.4z"/>
			<path class="st5" d="M931.5,91.2c-0.9,0-1.5-0.2-2-0.6c-0.4-0.4-0.7-1.1-0.7-1.9V84h-1.7v-1.5h1.8l0.3-2.3l1.4-0.2v2.4h2.4V84
				h-2.4v4.3c0,0.5,0.1,0.9,0.3,1.1c0.2,0.2,0.6,0.4,1.1,0.4c0.1,0,0.3,0,0.5,0c0.2,0,0.4-0.1,0.6-0.1V91c-0.2,0.1-0.5,0.1-0.8,0.2
				C932,91.2,931.8,91.2,931.5,91.2z"/>
			<path class="st5" d="M825.9,110.4c-0.9,0-1.5-0.2-2-0.6c-0.4-0.4-0.7-1.1-0.7-1.9v-4.7h-1.7v-1.5h1.8l0.3-2.3l1.4-0.2v2.4h2.4
				v1.5H825v4.3c0,0.5,0.1,0.9,0.3,1.1s0.6,0.4,1.1,0.4c0.1,0,0.3,0,0.5,0s0.4-0.1,0.6-0.1v1.4c-0.2,0.1-0.5,0.1-0.8,0.2
				C826.4,110.4,826.2,110.4,825.9,110.4z"/>
			<path class="st5" d="M832.7,110.4c-1.4,0-2.4-0.4-3.1-1.1c-0.7-0.8-1.1-1.9-1.1-3.3c0-1.5,0.4-2.6,1.1-3.3s1.8-1.1,3.1-1.1
				s2.4,0.4,3.1,1.1c0.7,0.8,1.1,1.9,1.1,3.3c0,1.5-0.4,2.6-1.1,3.3C835.1,110.1,834.1,110.4,832.7,110.4z M832.7,109
				c0.8,0,1.4-0.2,1.8-0.7c0.4-0.5,0.6-1.3,0.6-2.3s-0.2-1.9-0.6-2.3c-0.4-0.5-1-0.7-1.8-0.7s-1.4,0.2-1.8,0.7
				c-0.4,0.5-0.6,1.3-0.6,2.3s0.2,1.9,0.6,2.3C831.3,108.8,831.9,109,832.7,109z"/>
			<path class="st5" d="M845,110.4c-0.4,0-0.9,0-1.4-0.1c-0.5-0.1-1.1-0.2-1.7-0.3v-1.4c0.6,0.1,1.1,0.2,1.6,0.3s1,0.1,1.4,0.1
				c1.2,0,1.8-0.4,1.8-1.2c0-0.4-0.2-0.7-0.5-0.9c-0.3-0.2-0.7-0.3-1.2-0.4c-0.3-0.1-0.7-0.1-1-0.2c-0.4-0.1-0.7-0.2-1-0.4
				s-0.5-0.4-0.7-0.7c-0.2-0.3-0.3-0.7-0.3-1.3c0-0.8,0.3-1.4,0.9-1.9c0.6-0.5,1.4-0.7,2.5-0.7c0.2,0,0.4,0,0.6,0
				c0.2,0,0.4,0,0.6,0.1c0.2,0,0.4,0.1,0.7,0.1c0.3,0,0.5,0.1,0.9,0.2l-0.1,1.4c-0.6-0.1-1-0.2-1.4-0.3c-0.4-0.1-0.8-0.1-1.1-0.1
				c-0.6,0-1,0.1-1.3,0.3s-0.4,0.5-0.4,0.9c0,0.2,0,0.4,0.1,0.6c0.1,0.1,0.2,0.3,0.4,0.4c0.2,0.1,0.4,0.2,0.6,0.2
				c0.2,0.1,0.5,0.1,0.8,0.2c0.4,0.1,0.8,0.2,1.1,0.3s0.6,0.3,0.9,0.5c0.2,0.2,0.4,0.4,0.6,0.7s0.2,0.7,0.2,1.1
				c0,0.8-0.3,1.5-0.9,1.9C847,110.2,846.2,110.4,845,110.4z"/>
			<path class="st5" d="M854,110.4c-1.4,0-2.4-0.4-3.1-1.1c-0.7-0.7-1-1.8-1-3.3c0-1.5,0.3-2.6,1-3.4c0.7-0.8,1.7-1.2,3-1.2
				c2.3,0,3.5,1.3,3.5,3.9c0,0.5,0,0.9-0.1,1.2h-5.6c0.1,0.9,0.3,1.5,0.7,1.9c0.4,0.4,1,0.6,1.9,0.6c0.4,0,0.9,0,1.4-0.1
				c0.5-0.1,1-0.2,1.4-0.3l0.1,1.3c-0.4,0.2-0.9,0.3-1.5,0.4C855,110.4,854.5,110.4,854,110.4z M853.8,102.8c-0.7,0-1.2,0.2-1.6,0.6
				c-0.4,0.4-0.6,1.1-0.6,2h4.1c0-0.9-0.2-1.6-0.5-2C855,103,854.5,102.8,853.8,102.8z"/>
			<path class="st5" d="M863,110.4c-2.8,0-4.2-1.5-4.2-4.4c0-3,1.4-4.5,4.2-4.5c0.4,0,0.7,0,1.1,0.1c0.4,0,0.8,0.1,1.1,0.2v1.5
				c-0.3-0.1-0.7-0.1-1-0.2c-0.3,0-0.7-0.1-1-0.1c-0.9,0-1.6,0.2-2,0.7c-0.4,0.5-0.6,1.2-0.6,2.3c0,1,0.2,1.8,0.6,2.3
				c0.4,0.5,1.1,0.7,2,0.7c0.4,0,0.7,0,1.1,0s0.6-0.1,1-0.2v1.4c-0.3,0.1-0.6,0.1-1,0.2C863.7,110.4,863.3,110.4,863,110.4z"/>
			<path class="st5" d="M869.2,110.4c-0.8,0-1.3-0.2-1.7-0.6c-0.4-0.4-0.6-1-0.6-1.8v-6.4h1.8v5.9c0,0.5,0.1,0.9,0.3,1.1
				s0.5,0.3,1,0.3c0.5,0,0.9-0.1,1.4-0.3c0.5-0.2,1-0.4,1.5-0.6v-6.4h1.8v8.6h-1.5l-0.1-1H873c-0.4,0.2-0.8,0.4-1.1,0.5
				c-0.3,0.1-0.6,0.3-0.9,0.4s-0.6,0.2-0.8,0.2C869.8,110.4,869.5,110.4,869.2,110.4z"/>
			<path class="st5" d="M876.9,101.6h1.5l0.1,1.2h0.1c0.5-0.3,1.1-0.6,1.6-0.9s1-0.4,1.4-0.5h0.6v1.6h-0.6c-0.5,0.1-1,0.2-1.4,0.4
				s-0.9,0.4-1.4,0.6v6.2h-1.8V101.6z"/>
			<path class="st5" d="M884.4,100c-0.4,0-0.6-0.1-0.8-0.2c-0.2-0.2-0.2-0.4-0.2-0.8c0-0.4,0.1-0.6,0.2-0.8c0.2-0.2,0.4-0.2,0.8-0.2
				s0.6,0.1,0.8,0.3c0.2,0.2,0.2,0.4,0.2,0.8s-0.1,0.6-0.2,0.8C885,99.9,884.8,100,884.4,100z M883.5,101.6h1.8v8.6h-1.8V101.6z"/>
			<path class="st5" d="M891.1,110.4c-0.9,0-1.5-0.2-2-0.6c-0.4-0.4-0.7-1.1-0.7-1.9v-4.7h-1.7v-1.5h1.8l0.3-2.3l1.4-0.2v2.4h2.4
				v1.5h-2.4v4.3c0,0.5,0.1,0.9,0.3,1.1c0.2,0.2,0.6,0.4,1.1,0.4c0.1,0,0.3,0,0.5,0c0.2,0,0.4-0.1,0.6-0.1v1.4
				c-0.2,0.1-0.5,0.1-0.8,0.2C891.6,110.4,891.3,110.4,891.1,110.4z"/>
			<path class="st5" d="M895.5,113.5l0-0.2l1.3-3.2l-3.6-8.4v-0.2h1.9l2.1,5.4l0.4,1.3h0.1l0.4-1.3l2.1-5.4h1.9v0.2l-5,12
				L895.5,113.5z"/>
			<path class="st5" d="M909.8,110.4c-0.4,0-0.9,0-1.4-0.1c-0.5-0.1-1.1-0.2-1.7-0.3v-1.4c0.6,0.1,1.1,0.2,1.6,0.3s1,0.1,1.4,0.1
				c1.2,0,1.8-0.4,1.8-1.2c0-0.4-0.2-0.7-0.5-0.9c-0.3-0.2-0.7-0.3-1.2-0.4c-0.3-0.1-0.7-0.1-1-0.2c-0.4-0.1-0.7-0.2-1-0.4
				c-0.3-0.2-0.5-0.4-0.7-0.7c-0.2-0.3-0.3-0.7-0.3-1.3c0-0.8,0.3-1.4,0.9-1.9c0.6-0.5,1.4-0.7,2.5-0.7c0.2,0,0.4,0,0.6,0
				c0.2,0,0.4,0,0.6,0.1c0.2,0,0.4,0.1,0.7,0.1s0.5,0.1,0.9,0.2l-0.1,1.4c-0.6-0.1-1-0.2-1.4-0.3c-0.4-0.1-0.8-0.1-1.1-0.1
				c-0.6,0-1,0.1-1.3,0.3s-0.4,0.5-0.4,0.9c0,0.2,0,0.4,0.1,0.6c0.1,0.1,0.2,0.3,0.4,0.4c0.2,0.1,0.4,0.2,0.6,0.2
				c0.2,0.1,0.5,0.1,0.8,0.2c0.4,0.1,0.8,0.2,1.1,0.3c0.3,0.1,0.6,0.3,0.9,0.5c0.2,0.2,0.4,0.4,0.6,0.7s0.2,0.7,0.2,1.1
				c0,0.8-0.3,1.5-0.9,1.9C911.8,110.2,910.9,110.4,909.8,110.4z"/>
			<path class="st5" d="M918.5,110.4c-0.9,0-1.5-0.2-2-0.6c-0.4-0.4-0.7-1.1-0.7-1.9v-4.7h-1.7v-1.5h1.8l0.3-2.3l1.4-0.2v2.4h2.4
				v1.5h-2.4v4.3c0,0.5,0.1,0.9,0.3,1.1c0.2,0.2,0.6,0.4,1.1,0.4c0.1,0,0.3,0,0.5,0c0.2,0,0.4-0.1,0.6-0.1v1.4
				c-0.2,0.1-0.5,0.1-0.8,0.2C919,110.4,918.8,110.4,918.5,110.4z"/>
			<path class="st5" d="M923.4,110.4c-0.8,0-1.4-0.2-1.8-0.6c-0.4-0.4-0.6-1-0.6-1.7c0-0.8,0.3-1.5,0.8-1.9s1.4-0.7,2.5-0.8l2-0.2
				v-0.5c0-0.4,0-0.6-0.1-0.9s-0.2-0.4-0.3-0.6c-0.2-0.1-0.4-0.2-0.6-0.3s-0.6-0.1-1-0.1c-0.4,0-0.8,0-1.2,0.1
				c-0.4,0-0.9,0.1-1.4,0.2l-0.1-1.3c1.1-0.2,2.1-0.3,3.1-0.3c1.2,0,2.1,0.2,2.6,0.7c0.6,0.5,0.9,1.2,0.9,2.2v5.9h-1.5l-0.2-1.1
				h-0.1c-0.5,0.4-1,0.7-1.5,0.9S923.9,110.4,923.4,110.4z M924.1,109c0.4,0,0.7-0.1,1.1-0.2s0.8-0.4,1.1-0.6v-2l-1.5,0.1
				c-0.7,0.1-1.3,0.2-1.6,0.4s-0.4,0.6-0.4,1.1C922.9,108.6,923.3,109,924.1,109z"/>
			<path class="st5" d="M931.3,103.2h-1.9v-1.5h1.9v-0.4c0-0.8,0.1-1.4,0.2-1.9c0.1-0.5,0.4-0.9,0.7-1.2s0.8-0.5,1.3-0.6
				c0.6-0.1,1.3-0.2,2.1-0.2l0.1,1.3c-0.5,0-1,0.1-1.3,0.2s-0.6,0.2-0.8,0.4c-0.2,0.2-0.3,0.4-0.4,0.7s-0.1,0.7-0.1,1.1v0.7h2.3v1.5
				h-2.3v7.1h-1.8V103.2z M937.8,103.2h-1.9v-1.5h1.9v-0.4c0-0.8,0.1-1.4,0.2-1.9c0.1-0.5,0.4-0.9,0.7-1.2s0.8-0.5,1.3-0.6
				c0.6-0.1,1.3-0.2,2.1-0.2l0.1,1.3c-0.5,0-1,0.1-1.3,0.2s-0.6,0.2-0.8,0.4c-0.2,0.2-0.3,0.4-0.4,0.7s-0.1,0.7-0.1,1.1v0.7h2.3v1.5
				h-2.3v7.1h-1.8V103.2z"/>
			<path class="st5" d="M944.2,110.3c-0.3,0-0.5-0.1-0.7-0.2c-0.2-0.2-0.3-0.4-0.3-0.7c0-0.3,0.1-0.5,0.3-0.7
				c0.2-0.2,0.4-0.2,0.7-0.2s0.6,0.1,0.7,0.3c0.2,0.2,0.3,0.4,0.3,0.7s-0.1,0.5-0.3,0.7C944.8,110.2,944.5,110.3,944.2,110.3z
				 M943.7,106.8l-0.3-8.3v-0.2h1.8v0.2l-0.3,8.3v0.2h-1.1V106.8z"/>
		</g>
	</g>
	<g>
		<g>
			<path class="st5" d="M814.9,269.6c-3.7,0-5.5-2-5.5-6c0-2.1,0.5-3.6,1.4-4.6c0.9-1,2.3-1.5,4.1-1.5c0.4,0,0.8,0,1.2,0.1
				c0.5,0,0.9,0.1,1.4,0.2v1.5c-0.5-0.1-1-0.1-1.4-0.2c-0.4,0-0.7-0.1-1.1-0.1c-0.7,0-1.2,0.1-1.7,0.3c-0.5,0.2-0.9,0.4-1.2,0.8
				s-0.5,0.8-0.7,1.4c-0.1,0.6-0.2,1.3-0.2,2.1c0,1.6,0.3,2.8,0.9,3.5c0.6,0.7,1.5,1.1,2.8,1.1c0.2,0,0.4,0,0.6,0
				c0.2,0,0.5,0,0.7-0.1c0.2,0,0.5,0,0.7-0.1c0.2,0,0.4-0.1,0.6-0.1v1.5c-0.4,0.1-0.8,0.2-1.3,0.2
				C815.8,269.6,815.3,269.6,814.9,269.6z"/>
			<path class="st5" d="M819.3,256.5h1.8v12.9h-1.8V256.5z"/>
			<path class="st5" d="M827.1,269.6c-1.4,0-2.4-0.4-3.1-1.1s-1.1-1.9-1.1-3.3c0-1.5,0.4-2.6,1.1-3.3s1.8-1.1,3.1-1.1
				s2.4,0.4,3.1,1.1c0.7,0.8,1.1,1.9,1.1,3.3c0,1.5-0.4,2.6-1.1,3.3C829.5,269.2,828.5,269.6,827.1,269.6z M827.1,268.2
				c0.8,0,1.4-0.2,1.8-0.7c0.4-0.5,0.6-1.3,0.6-2.3c0-1.1-0.2-1.9-0.6-2.3c-0.4-0.5-1-0.7-1.8-0.7s-1.4,0.2-1.8,0.7
				c-0.4,0.5-0.6,1.3-0.6,2.3c0,1.1,0.2,1.9,0.6,2.3C825.7,267.9,826.3,268.2,827.1,268.2z"/>
			<path class="st5" d="M835.8,269.6c-0.4,0-0.9,0-1.4-0.1c-0.5-0.1-1.1-0.2-1.7-0.3v-1.4c0.6,0.1,1.1,0.2,1.6,0.3
				c0.5,0.1,1,0.1,1.4,0.1c1.2,0,1.8-0.4,1.8-1.2c0-0.4-0.2-0.7-0.5-0.9c-0.3-0.2-0.7-0.3-1.2-0.4c-0.3-0.1-0.7-0.1-1-0.2
				c-0.4-0.1-0.7-0.2-1-0.4c-0.3-0.2-0.5-0.4-0.7-0.7c-0.2-0.3-0.3-0.7-0.3-1.3c0-0.8,0.3-1.4,0.9-1.9c0.6-0.5,1.4-0.7,2.5-0.7
				c0.2,0,0.4,0,0.6,0s0.4,0,0.6,0.1c0.2,0,0.4,0.1,0.7,0.1c0.2,0,0.5,0.1,0.9,0.2l-0.1,1.4c-0.6-0.1-1-0.2-1.4-0.3
				c-0.4-0.1-0.8-0.1-1.1-0.1c-0.6,0-1,0.1-1.3,0.3c-0.3,0.2-0.4,0.5-0.4,0.9c0,0.2,0,0.4,0.1,0.6c0.1,0.1,0.2,0.3,0.4,0.4
				c0.2,0.1,0.4,0.2,0.6,0.2s0.5,0.1,0.8,0.2c0.4,0.1,0.8,0.2,1.1,0.3c0.3,0.1,0.6,0.3,0.9,0.5s0.4,0.4,0.6,0.7
				c0.1,0.3,0.2,0.7,0.2,1.1c0,0.8-0.3,1.5-0.9,1.9C837.8,269.4,836.9,269.6,835.8,269.6z"/>
			<path class="st5" d="M844.7,269.6c-1.4,0-2.4-0.4-3.1-1.1c-0.7-0.7-1-1.8-1-3.3c0-1.5,0.3-2.6,1-3.4c0.7-0.8,1.7-1.2,3-1.2
				c2.3,0,3.5,1.3,3.5,3.9c0,0.5,0,0.9-0.1,1.2h-5.6c0.1,0.9,0.3,1.5,0.7,1.9c0.4,0.4,1,0.6,1.9,0.6c0.4,0,0.9,0,1.4-0.1
				c0.5-0.1,1-0.2,1.4-0.3l0.1,1.3c-0.4,0.2-0.9,0.3-1.5,0.4C845.8,269.5,845.2,269.6,844.7,269.6z M844.6,261.9
				c-0.7,0-1.2,0.2-1.6,0.6c-0.4,0.4-0.6,1.1-0.6,2h4.1c0-0.9-0.2-1.6-0.5-2C845.7,262.1,845.2,261.9,844.6,261.9z"/>
			<path class="st5" d="M857.1,269.6c-0.9,0-1.5-0.2-2-0.6c-0.4-0.4-0.7-1.1-0.7-1.9v-4.7h-1.7v-1.5h1.8l0.3-2.3l1.4-0.2v2.4h2.4
				v1.5h-2.4v4.3c0,0.5,0.1,0.9,0.3,1.1c0.2,0.2,0.6,0.4,1.1,0.4c0.1,0,0.3,0,0.5,0s0.4-0.1,0.6-0.1v1.4c-0.2,0.1-0.5,0.1-0.8,0.2
				C857.6,269.6,857.3,269.6,857.1,269.6z"/>
			<path class="st5" d="M860.2,256.5h1.8v5.2c0.8-0.4,1.5-0.7,2-0.8s1.1-0.3,1.6-0.3c0.7,0,1.3,0.2,1.7,0.6c0.4,0.4,0.6,1,0.6,1.8
				v6.4h-1.8v-5.8c0-0.5-0.1-0.9-0.3-1.2c-0.2-0.2-0.5-0.4-1-0.4c-0.4,0-0.8,0.1-1.3,0.2c-0.5,0.2-1,0.4-1.6,0.6v6.5h-1.8V256.5z"/>
			<path class="st5" d="M873.8,269.6c-1.4,0-2.4-0.4-3.1-1.1c-0.7-0.7-1-1.8-1-3.3c0-1.5,0.3-2.6,1-3.4c0.7-0.8,1.7-1.2,3-1.2
				c2.3,0,3.5,1.3,3.5,3.9c0,0.5,0,0.9-0.1,1.2h-5.6c0.1,0.9,0.3,1.5,0.7,1.9c0.4,0.4,1,0.6,1.9,0.6c0.4,0,0.9,0,1.4-0.1
				c0.5-0.1,1-0.2,1.4-0.3l0.1,1.3c-0.4,0.2-0.9,0.3-1.5,0.4C874.9,269.5,874.4,269.6,873.8,269.6z M873.7,261.9
				c-0.7,0-1.2,0.2-1.6,0.6c-0.4,0.4-0.6,1.1-0.6,2h4.1c0-0.9-0.2-1.6-0.5-2C874.8,262.1,874.4,261.9,873.7,261.9z"/>
			<path class="st5" d="M886.4,269.6c-1.4,0-2.4-0.4-3.1-1.1s-1.1-1.9-1.1-3.3c0-1.5,0.4-2.6,1.1-3.3s1.8-1.1,3.1-1.1
				s2.4,0.4,3.1,1.1c0.7,0.8,1.1,1.9,1.1,3.3c0,1.5-0.4,2.6-1.1,3.3C888.8,269.2,887.8,269.6,886.4,269.6z M886.4,268.2
				c0.8,0,1.4-0.2,1.8-0.7c0.4-0.5,0.6-1.3,0.6-2.3c0-1.1-0.2-1.9-0.6-2.3c-0.4-0.5-1-0.7-1.8-0.7s-1.4,0.2-1.8,0.7
				c-0.4,0.5-0.6,1.3-0.6,2.3c0,1.1,0.2,1.9,0.6,2.3C885,267.9,885.6,268.2,886.4,268.2z"/>
			<path class="st5" d="M892.4,260.8h1.6l0.1,1h0.1c0.3-0.4,0.7-0.7,1.1-0.9c0.5-0.2,1-0.3,1.6-0.3c1.2,0,2.1,0.4,2.7,1.1
				c0.6,0.7,0.9,1.8,0.9,3.3c0,1.5-0.4,2.6-1.2,3.4c-0.8,0.8-1.9,1.2-3.3,1.2c-0.3,0-0.7,0-1,0c-0.3,0-0.6-0.1-0.9-0.1v3.5h-1.8
				V260.8z M896.1,268.3c0.4,0,0.8-0.1,1.1-0.2c0.3-0.1,0.6-0.3,0.8-0.5c0.2-0.3,0.4-0.6,0.5-1s0.2-0.9,0.2-1.5
				c0-1.1-0.2-1.9-0.5-2.4s-0.9-0.7-1.7-0.7c-0.3,0-0.6,0-0.9,0.1c-0.3,0.1-0.5,0.2-0.7,0.4s-0.4,0.4-0.5,0.6
				c-0.1,0.2-0.2,0.5-0.2,0.8v4.2c0.3,0.1,0.5,0.1,0.9,0.1C895.5,268.3,895.8,268.3,896.1,268.3z"/>
			<path class="st5" d="M906.1,269.6c-1.4,0-2.4-0.4-3.1-1.1c-0.7-0.7-1-1.8-1-3.3c0-1.5,0.3-2.6,1-3.4c0.7-0.8,1.7-1.2,3-1.2
				c2.3,0,3.5,1.3,3.5,3.9c0,0.5,0,0.9-0.1,1.2h-5.6c0.1,0.9,0.3,1.5,0.7,1.9c0.4,0.4,1,0.6,1.9,0.6c0.4,0,0.9,0,1.4-0.1
				c0.5-0.1,1-0.2,1.4-0.3l0.1,1.3c-0.4,0.2-0.9,0.3-1.5,0.4C907.2,269.5,906.6,269.6,906.1,269.6z M906,261.9
				c-0.7,0-1.2,0.2-1.6,0.6c-0.4,0.4-0.6,1.1-0.6,2h4.1c0-0.9-0.2-1.6-0.5-2C907.1,262.1,906.6,261.9,906,261.9z"/>
			<path class="st5" d="M911.3,260.8h1.5l0.1,1h0.1c0.8-0.4,1.5-0.7,2.1-0.9c0.6-0.2,1.1-0.3,1.6-0.3c0.7,0,1.3,0.2,1.7,0.6
				s0.6,1,0.6,1.8v6.4h-1.8v-5.8c0-0.5-0.1-0.9-0.3-1.2c-0.2-0.2-0.5-0.4-1-0.4c-0.4,0-0.8,0.1-1.3,0.2c-0.5,0.2-1,0.4-1.6,0.6v6.5
				h-1.8V260.8z"/>
			<path class="st5" d="M925,269.6c-1.4,0-2.4-0.4-3.1-1.1c-0.7-0.7-1-1.8-1-3.3c0-1.5,0.3-2.6,1-3.4c0.7-0.8,1.7-1.2,3-1.2
				c2.3,0,3.5,1.3,3.5,3.9c0,0.5,0,0.9-0.1,1.2h-5.6c0.1,0.9,0.3,1.5,0.7,1.9c0.4,0.4,1,0.6,1.9,0.6c0.4,0,0.9,0,1.4-0.1
				c0.5-0.1,1-0.2,1.4-0.3l0.1,1.3c-0.4,0.2-0.9,0.3-1.5,0.4C926,269.5,925.5,269.6,925,269.6z M924.8,261.9c-0.7,0-1.2,0.2-1.6,0.6
				c-0.4,0.4-0.6,1.1-0.6,2h4.1c0-0.9-0.2-1.6-0.5-2C926,262.1,925.5,261.9,924.8,261.9z"/>
			<path class="st5" d="M933.4,269.6c-1.2,0-2.1-0.4-2.7-1.1c-0.6-0.7-0.9-1.8-0.9-3.3c0-0.8,0.1-1.4,0.3-2s0.5-1.1,0.9-1.4
				c0.4-0.4,0.9-0.7,1.4-0.9c0.5-0.2,1.2-0.3,1.8-0.3c0.3,0,0.7,0,1,0c0.3,0,0.6,0.1,0.9,0.1v-4.3h1.8v12.9h-1.6l-0.1-1.1H936
				C935.4,269.2,934.6,269.6,933.4,269.6z M933.8,268.2c0.3,0,0.6,0,0.9-0.1c0.3-0.1,0.5-0.2,0.7-0.4c0.2-0.2,0.4-0.4,0.5-0.6
				s0.2-0.5,0.2-0.8v-4.2c-0.3-0.1-0.6-0.1-0.9-0.1c-0.3,0-0.7,0-1,0c-0.9,0-1.5,0.2-2,0.7s-0.6,1.3-0.6,2.5c0,1.1,0.2,1.9,0.5,2.4
				S933,268.2,933.8,268.2z"/>
			<path class="st5" d="M835.1,288.8c-1.4,0-2.4-0.4-3.1-1.1c-0.7-0.7-1-1.8-1-3.3c0-1.5,0.3-2.6,1-3.4c0.7-0.8,1.7-1.2,3-1.2
				c2.3,0,3.5,1.3,3.5,3.9c0,0.5,0,0.9-0.1,1.2h-5.6c0.1,0.9,0.3,1.5,0.7,1.9s1,0.6,1.9,0.6c0.4,0,0.9,0,1.4-0.1
				c0.5-0.1,1-0.2,1.4-0.3l0.1,1.3c-0.4,0.2-0.9,0.3-1.5,0.4C836.2,288.7,835.6,288.8,835.1,288.8z M835,281.1
				c-0.7,0-1.2,0.2-1.6,0.6c-0.4,0.4-0.6,1.1-0.6,2h4.1c0-0.9-0.2-1.6-0.5-2C836.1,281.3,835.6,281.1,835,281.1z"/>
			<path class="st5" d="M840.3,280h1.5l0.1,1h0.1c0.8-0.4,1.5-0.7,2.1-0.9c0.6-0.2,1.1-0.3,1.6-0.3c0.7,0,1.3,0.2,1.7,0.6
				c0.4,0.4,0.6,1,0.6,1.8v6.4h-1.8v-5.8c0-0.5-0.1-0.9-0.3-1.2c-0.2-0.2-0.5-0.4-1-0.4c-0.4,0-0.8,0.1-1.3,0.2
				c-0.5,0.2-1,0.4-1.6,0.6v6.5h-1.8V280z"/>
			<path class="st5" d="M853.7,288.8c-0.9,0-1.5-0.2-2-0.6c-0.4-0.4-0.7-1.1-0.7-1.9v-4.7h-1.7V280h1.8l0.3-2.3l1.4-0.2v2.4h2.4v1.5
				h-2.4v4.3c0,0.5,0.1,0.9,0.3,1.1s0.6,0.4,1.1,0.4c0.1,0,0.3,0,0.5,0s0.4-0.1,0.6-0.1v1.4c-0.2,0.1-0.5,0.1-0.8,0.2
				C854.3,288.8,854,288.8,853.7,288.8z"/>
			<path class="st5" d="M856.9,280h1.5l0.1,1.2h0.1c0.5-0.3,1.1-0.6,1.6-0.9s1-0.4,1.4-0.5h0.6v1.6h-0.6c-0.5,0.1-1,0.2-1.4,0.4
				s-0.9,0.4-1.4,0.6v6.2h-1.8V280z"/>
			<path class="st5" d="M864.8,291.9l0-0.2l1.3-3.2l-3.6-8.4V280h1.9l2.1,5.4l0.4,1.3h0.1l0.4-1.3l2.1-5.4h1.9v0.2l-5,12
				L864.8,291.9z"/>
			<path class="st5" d="M879.6,292.1c-0.5,0-1.1,0-1.6-0.1c-0.5-0.1-1-0.1-1.4-0.3l0.1-1.4c0.4,0.1,0.8,0.2,1.3,0.2s0.9,0.1,1.4,0.1
				c0.4,0,0.8,0,1.2-0.1s0.7-0.2,1-0.5s0.5-0.5,0.6-0.9s0.2-0.8,0.2-1.4v-0.6h-0.1c-0.6,0.8-1.5,1.2-2.7,1.2c-1.2,0-2.1-0.3-2.7-1
				c-0.6-0.7-0.9-1.7-0.9-3.2c0-0.8,0.1-1.4,0.3-2c0.2-0.6,0.5-1,0.9-1.4c0.4-0.4,0.9-0.7,1.4-0.8c0.5-0.2,1.2-0.3,1.8-0.3
				c0.5,0,1.1,0,1.6,0.1c0.6,0.1,1.3,0.2,2,0.4v7.3c0,0.9-0.1,1.6-0.4,2.1c-0.2,0.6-0.6,1-1,1.4c-0.4,0.3-0.9,0.6-1.4,0.7
				S880.2,292.1,879.6,292.1z M880,287.2c0.3,0,0.6,0,0.9-0.1c0.3-0.1,0.5-0.2,0.7-0.4c0.2-0.2,0.4-0.4,0.5-0.6
				c0.1-0.2,0.2-0.5,0.2-0.8v-4c-0.3-0.1-0.6-0.1-0.9-0.1c-0.3,0-0.7,0-1,0c-0.9,0-1.5,0.2-2,0.7c-0.4,0.5-0.6,1.3-0.6,2.4
				c0,1.1,0.2,1.8,0.5,2.3C878.7,287,879.2,287.2,880,287.2z"/>
			<path class="st5" d="M888.1,288.7c-0.8,0-1.4-0.2-1.8-0.6c-0.4-0.4-0.6-1-0.6-1.7c0-0.8,0.3-1.5,0.8-1.9s1.4-0.7,2.5-0.8l2-0.2
				V283c0-0.4,0-0.6-0.1-0.9s-0.2-0.4-0.3-0.6c-0.2-0.1-0.4-0.2-0.6-0.3s-0.6-0.1-1-0.1c-0.4,0-0.8,0-1.2,0.1
				c-0.4,0-0.9,0.1-1.4,0.2l-0.1-1.3c1.1-0.2,2.1-0.3,3.1-0.3c1.2,0,2.1,0.2,2.6,0.7c0.6,0.5,0.9,1.2,0.9,2.2v5.9h-1.5l-0.2-1.1
				h-0.1c-0.5,0.4-1,0.7-1.5,0.9S888.7,288.7,888.1,288.7z M888.8,287.4c0.4,0,0.7-0.1,1.1-0.2s0.8-0.4,1.1-0.6v-2l-1.5,0.1
				c-0.7,0.1-1.3,0.2-1.6,0.4s-0.4,0.6-0.4,1.1C887.6,287,888,287.4,888.8,287.4z"/>
			<path class="st5" d="M898.6,288.8c-0.9,0-1.5-0.2-2-0.6c-0.4-0.4-0.7-1.1-0.7-1.9v-4.7h-1.7V280h1.8l0.3-2.3l1.4-0.2v2.4h2.4v1.5
				h-2.4v4.3c0,0.5,0.1,0.9,0.3,1.1c0.2,0.2,0.6,0.4,1.1,0.4c0.1,0,0.3,0,0.5,0c0.2,0,0.4-0.1,0.6-0.1v1.4c-0.2,0.1-0.5,0.1-0.8,0.2
				C899.2,288.8,898.9,288.8,898.6,288.8z"/>
			<path class="st5" d="M905.4,288.8c-1.4,0-2.4-0.4-3.1-1.1c-0.7-0.7-1-1.8-1-3.3c0-1.5,0.3-2.6,1-3.4c0.7-0.8,1.7-1.2,3-1.2
				c2.3,0,3.5,1.3,3.5,3.9c0,0.5,0,0.9-0.1,1.2h-5.6c0.1,0.9,0.3,1.5,0.7,1.9s1,0.6,1.9,0.6c0.4,0,0.9,0,1.4-0.1
				c0.5-0.1,1-0.2,1.4-0.3l0.1,1.3c-0.4,0.2-0.9,0.3-1.5,0.4C906.5,288.7,906,288.8,905.4,288.8z M905.3,281.1
				c-0.7,0-1.2,0.2-1.6,0.6c-0.4,0.4-0.6,1.1-0.6,2h4.1c0-0.9-0.2-1.6-0.5-2C906.4,281.3,906,281.1,905.3,281.1z"/>
			<path class="st5" d="M913.3,288.8c-0.4,0-0.9,0-1.4-0.1c-0.5-0.1-1.1-0.2-1.7-0.3v-1.4c0.6,0.1,1.1,0.2,1.6,0.3s1,0.1,1.4,0.1
				c1.2,0,1.8-0.4,1.8-1.2c0-0.4-0.2-0.7-0.5-0.9c-0.3-0.2-0.7-0.3-1.2-0.4c-0.3-0.1-0.7-0.1-1-0.2c-0.4-0.1-0.7-0.2-1-0.4
				c-0.3-0.2-0.5-0.4-0.7-0.7c-0.2-0.3-0.3-0.7-0.3-1.3c0-0.8,0.3-1.4,0.9-1.9c0.6-0.5,1.4-0.7,2.5-0.7c0.2,0,0.4,0,0.6,0
				c0.2,0,0.4,0,0.6,0.1c0.2,0,0.4,0.1,0.7,0.1s0.5,0.1,0.9,0.2l-0.1,1.4c-0.6-0.1-1-0.2-1.4-0.3c-0.4-0.1-0.8-0.1-1.1-0.1
				c-0.6,0-1,0.1-1.3,0.3s-0.4,0.5-0.4,0.9c0,0.2,0,0.4,0.1,0.6c0.1,0.1,0.2,0.3,0.4,0.4c0.2,0.1,0.4,0.2,0.6,0.2
				c0.2,0.1,0.5,0.1,0.8,0.2c0.4,0.1,0.8,0.2,1.1,0.3c0.3,0.1,0.6,0.3,0.9,0.5c0.2,0.2,0.4,0.4,0.6,0.7s0.2,0.7,0.2,1.1
				c0,0.8-0.3,1.5-0.9,1.9C915.2,288.6,914.4,288.8,913.3,288.8z"/>
		</g>
	</g>
	<g>
		<g>
			<path class="st5" d="M810.3,449.1c-0.6,0-1.2,0-1.9-0.1s-1.4-0.2-2-0.4V447c0.7,0.2,1.3,0.3,2,0.4s1.3,0.1,1.8,0.1
				c1.8,0,2.7-0.6,2.7-1.8c0-0.3-0.1-0.6-0.2-0.8s-0.3-0.4-0.5-0.6s-0.5-0.3-0.8-0.4c-0.3-0.1-0.7-0.2-1-0.3
				c-0.6-0.2-1.2-0.3-1.6-0.5c-0.5-0.2-0.8-0.4-1.1-0.7c-0.3-0.3-0.5-0.6-0.7-1c-0.1-0.4-0.2-0.8-0.2-1.3c0-0.5,0.1-1,0.3-1.4
				c0.2-0.4,0.5-0.8,0.8-1s0.8-0.5,1.3-0.7c0.5-0.2,1.1-0.2,1.8-0.2c0.5,0,1,0,1.5,0.1c0.5,0.1,1.1,0.2,1.8,0.3v1.5
				c-0.5-0.1-1-0.2-1.6-0.3c-0.6-0.1-1.1-0.1-1.5-0.1c-0.8,0-1.4,0.2-1.9,0.5c-0.4,0.3-0.7,0.8-0.7,1.3c0,0.5,0.2,1,0.6,1.3
				s1.1,0.6,2,0.8c0.6,0.1,1.1,0.3,1.5,0.5c0.4,0.2,0.8,0.4,1.2,0.7c0.3,0.3,0.6,0.6,0.7,1c0.2,0.4,0.3,0.8,0.3,1.4
				c0,1.1-0.4,1.9-1.1,2.5C812.8,448.8,811.7,449.1,810.3,449.1z"/>
			<path class="st5" d="M816.4,435.9h1.8v5.2c0.8-0.4,1.5-0.7,2-0.8c0.6-0.2,1.1-0.3,1.6-0.3c0.7,0,1.3,0.2,1.7,0.6
				c0.4,0.4,0.6,1,0.6,1.8v6.4h-1.8V443c0-0.5-0.1-0.9-0.3-1.2c-0.2-0.2-0.5-0.4-1-0.4c-0.4,0-0.8,0.1-1.3,0.2
				c-0.5,0.2-1,0.4-1.6,0.6v6.5h-1.8V435.9z"/>
			<path class="st5" d="M830.1,449c-1.4,0-2.4-0.4-3.1-1.1c-0.7-0.8-1.1-1.9-1.1-3.3c0-1.5,0.4-2.6,1.1-3.3c0.7-0.8,1.8-1.1,3.1-1.1
				s2.4,0.4,3.1,1.1s1.1,1.9,1.1,3.3c0,1.5-0.4,2.6-1.1,3.3S831.4,449,830.1,449z M830.1,447.6c0.8,0,1.4-0.2,1.8-0.7
				s0.6-1.3,0.6-2.3s-0.2-1.9-0.6-2.3s-1-0.7-1.8-0.7s-1.4,0.2-1.8,0.7s-0.6,1.3-0.6,2.3s0.2,1.9,0.6,2.3S829.2,447.6,830.1,447.6z"
				/>
			<path class="st5" d="M835.3,440.3L835.3,440.3l1.7-0.1l1.4,5.7l0.3,1.2h0.1l0.3-1.2l1.6-5.7h1.6l1.6,5.7l0.3,1.2h0.1l0.3-1.2
				l1.3-5.7h1.7v0.1l-2.3,8.5h-2l-1.6-5.4l-0.2-1.1h-0.1l-0.2,1.1l-1.5,5.4h-2L835.3,440.3z"/>
			<path class="st5" d="M852.7,440.2h1.5l0.1,1h0.1c0.7-0.4,1.2-0.7,1.7-0.9c0.5-0.2,1-0.3,1.4-0.3c1,0,1.7,0.4,2.1,1.2h0.1
				c0.7-0.4,1.3-0.7,1.8-0.9c0.5-0.2,1-0.3,1.4-0.3c0.7,0,1.3,0.2,1.7,0.6c0.4,0.4,0.6,1,0.6,1.8v6.4h-1.8v-5.8
				c0-0.5-0.1-0.9-0.3-1.2s-0.5-0.3-1-0.3c-0.3,0-0.6,0.1-1,0.2c-0.4,0.1-0.8,0.3-1.2,0.6v6.5h-1.8v-5.8c0-0.5-0.1-0.9-0.3-1.2
				c-0.2-0.2-0.5-0.3-1-0.3c-0.3,0-0.7,0.1-1.1,0.2c-0.4,0.1-0.8,0.3-1.2,0.6v6.5h-1.8V440.2z"/>
			<path class="st5" d="M871.2,449c-1.4,0-2.4-0.4-3.1-1.1c-0.7-0.7-1-1.8-1-3.3c0-1.5,0.3-2.6,1-3.4c0.7-0.8,1.7-1.2,3-1.2
				c2.3,0,3.5,1.3,3.5,3.9c0,0.5,0,0.9-0.1,1.2h-5.6c0.1,0.9,0.3,1.5,0.7,1.9c0.4,0.4,1,0.6,1.9,0.6c0.4,0,0.9,0,1.4-0.1
				c0.5-0.1,1-0.2,1.4-0.3l0.1,1.3c-0.4,0.2-0.9,0.3-1.5,0.4S871.7,449,871.2,449z M871,441.4c-0.7,0-1.2,0.2-1.6,0.6
				c-0.4,0.4-0.6,1.1-0.6,2h4.1c0-0.9-0.2-1.6-0.5-2C872.2,441.6,871.7,441.4,871,441.4z"/>
			<path class="st5" d="M879,449c-0.4,0-0.9,0-1.4-0.1c-0.5-0.1-1.1-0.2-1.7-0.3v-1.4c0.6,0.1,1.1,0.2,1.6,0.3s1,0.1,1.4,0.1
				c1.2,0,1.8-0.4,1.8-1.2c0-0.4-0.2-0.7-0.5-0.9c-0.3-0.2-0.7-0.3-1.2-0.4c-0.3-0.1-0.7-0.1-1-0.2s-0.7-0.2-1-0.4
				c-0.3-0.2-0.5-0.4-0.7-0.7c-0.2-0.3-0.3-0.7-0.3-1.3c0-0.8,0.3-1.4,0.9-1.9s1.4-0.7,2.5-0.7c0.2,0,0.4,0,0.6,0s0.4,0,0.6,0.1
				c0.2,0,0.4,0.1,0.7,0.1s0.5,0.1,0.9,0.2l-0.1,1.4c-0.6-0.1-1-0.2-1.4-0.3c-0.4-0.1-0.8-0.1-1.1-0.1c-0.6,0-1,0.1-1.3,0.3
				s-0.4,0.5-0.4,0.9c0,0.2,0,0.4,0.1,0.6c0.1,0.1,0.2,0.3,0.4,0.4s0.4,0.2,0.6,0.2c0.2,0.1,0.5,0.1,0.8,0.2
				c0.4,0.1,0.8,0.2,1.1,0.3c0.3,0.1,0.6,0.3,0.9,0.5c0.2,0.2,0.4,0.4,0.6,0.7c0.1,0.3,0.2,0.7,0.2,1.1c0,0.8-0.3,1.5-0.9,1.9
				C881,448.8,880.1,449,879,449z"/>
			<path class="st5" d="M886.8,449c-0.4,0-0.9,0-1.4-0.1c-0.5-0.1-1.1-0.2-1.7-0.3v-1.4c0.6,0.1,1.1,0.2,1.6,0.3s1,0.1,1.4,0.1
				c1.2,0,1.8-0.4,1.8-1.2c0-0.4-0.2-0.7-0.5-0.9c-0.3-0.2-0.7-0.3-1.2-0.4c-0.3-0.1-0.7-0.1-1-0.2s-0.7-0.2-1-0.4
				c-0.3-0.2-0.5-0.4-0.7-0.7c-0.2-0.3-0.3-0.7-0.3-1.3c0-0.8,0.3-1.4,0.9-1.9s1.4-0.7,2.5-0.7c0.2,0,0.4,0,0.6,0s0.4,0,0.6,0.1
				c0.2,0,0.4,0.1,0.7,0.1s0.5,0.1,0.9,0.2l-0.1,1.4c-0.6-0.1-1-0.2-1.4-0.3c-0.4-0.1-0.8-0.1-1.1-0.1c-0.6,0-1,0.1-1.3,0.3
				s-0.4,0.5-0.4,0.9c0,0.2,0,0.4,0.1,0.6c0.1,0.1,0.2,0.3,0.4,0.4s0.4,0.2,0.6,0.2c0.2,0.1,0.5,0.1,0.8,0.2
				c0.4,0.1,0.8,0.2,1.1,0.3c0.3,0.1,0.6,0.3,0.9,0.5c0.2,0.2,0.4,0.4,0.6,0.7c0.1,0.3,0.2,0.7,0.2,1.1c0,0.8-0.3,1.5-0.9,1.9
				C888.8,448.8,888,449,886.8,449z"/>
			<path class="st5" d="M893.9,449c-0.8,0-1.4-0.2-1.8-0.6c-0.4-0.4-0.6-1-0.6-1.7c0-0.8,0.3-1.5,0.8-1.9s1.4-0.7,2.5-0.8l2-0.2
				v-0.5c0-0.4,0-0.6-0.1-0.9s-0.2-0.4-0.3-0.6c-0.2-0.1-0.4-0.2-0.6-0.3s-0.6-0.1-1-0.1c-0.4,0-0.8,0-1.2,0.1
				c-0.4,0-0.9,0.1-1.4,0.2l-0.1-1.3c1.1-0.2,2.1-0.3,3.1-0.3c1.2,0,2.1,0.2,2.6,0.7c0.6,0.5,0.9,1.2,0.9,2.2v5.9h-1.5l-0.2-1.1
				h-0.1c-0.5,0.4-1,0.7-1.5,0.9S894.4,449,893.9,449z M894.6,447.6c0.4,0,0.7-0.1,1.1-0.2c0.4-0.2,0.8-0.4,1.1-0.6v-2l-1.5,0.1
				c-0.7,0.1-1.3,0.2-1.6,0.4s-0.4,0.6-0.4,1.1C893.3,447.2,893.7,447.6,894.6,447.6z"/>
			<path class="st5" d="M904.1,452.4c-0.5,0-1.1,0-1.6-0.1c-0.5-0.1-1-0.1-1.4-0.3l0.1-1.4c0.4,0.1,0.8,0.2,1.3,0.2s0.9,0.1,1.4,0.1
				c0.4,0,0.8,0,1.2-0.1s0.7-0.2,1-0.5s0.5-0.5,0.6-0.9s0.2-0.8,0.2-1.4v-0.6h-0.1c-0.6,0.8-1.5,1.2-2.7,1.2c-1.2,0-2.1-0.3-2.7-1
				c-0.6-0.7-0.9-1.7-0.9-3.2c0-0.8,0.1-1.4,0.3-2s0.5-1,0.9-1.4c0.4-0.4,0.9-0.7,1.4-0.8c0.5-0.2,1.2-0.3,1.8-0.3
				c0.5,0,1.1,0,1.6,0.1c0.6,0.1,1.3,0.2,2,0.4v7.3c0,0.9-0.1,1.6-0.4,2.1c-0.2,0.6-0.6,1-1,1.4c-0.4,0.3-0.9,0.6-1.4,0.7
				S904.7,452.4,904.1,452.4z M904.5,447.4c0.3,0,0.6,0,0.9-0.1c0.3-0.1,0.5-0.2,0.7-0.4c0.2-0.2,0.4-0.4,0.5-0.6
				c0.1-0.2,0.2-0.5,0.2-0.8v-4c-0.3-0.1-0.6-0.1-0.9-0.1c-0.3,0-0.7,0-1,0c-0.9,0-1.5,0.2-2,0.7c-0.4,0.5-0.6,1.3-0.6,2.4
				c0,1.1,0.2,1.8,0.5,2.3C903.1,447.2,903.7,447.4,904.5,447.4z"/>
			<path class="st5" d="M914.5,449c-1.4,0-2.4-0.4-3.1-1.1c-0.7-0.7-1-1.8-1-3.3c0-1.5,0.3-2.6,1-3.4c0.7-0.8,1.7-1.2,3-1.2
				c2.3,0,3.5,1.3,3.5,3.9c0,0.5,0,0.9-0.1,1.2h-5.6c0.1,0.9,0.3,1.5,0.7,1.9s1,0.6,1.9,0.6c0.4,0,0.9,0,1.4-0.1
				c0.5-0.1,1-0.2,1.4-0.3l0.1,1.3c-0.4,0.2-0.9,0.3-1.5,0.4S915,449,914.5,449z M914.3,441.4c-0.7,0-1.2,0.2-1.6,0.6
				c-0.4,0.4-0.6,1.1-0.6,2h4.1c0-0.9-0.2-1.6-0.5-2C915.5,441.6,915,441.4,914.3,441.4z"/>
			<path class="st5" d="M927.1,449c-1.4,0-2.4-0.4-3.1-1.1s-1.1-1.9-1.1-3.3c0-1.5,0.4-2.6,1.1-3.3s1.8-1.1,3.1-1.1s2.4,0.4,3.1,1.1
				c0.7,0.8,1.1,1.9,1.1,3.3c0,1.5-0.4,2.6-1.1,3.3C929.5,448.7,928.4,449,927.1,449z M927.1,447.6c0.8,0,1.4-0.2,1.8-0.7
				c0.4-0.5,0.6-1.3,0.6-2.3s-0.2-1.9-0.6-2.3c-0.4-0.5-1-0.7-1.8-0.7s-1.4,0.2-1.8,0.7c-0.4,0.5-0.6,1.3-0.6,2.3s0.2,1.9,0.6,2.3
				C925.6,447.4,926.2,447.6,927.1,447.6z"/>
			<path class="st5" d="M933.1,440.2h1.5l0.1,1h0.1c0.8-0.4,1.5-0.7,2.1-0.9c0.6-0.2,1.1-0.3,1.6-0.3c0.7,0,1.3,0.2,1.7,0.6
				s0.6,1,0.6,1.8v6.4H939V443c0-0.5-0.1-0.9-0.3-1.2s-0.5-0.4-1-0.4c-0.4,0-0.8,0.1-1.3,0.2c-0.5,0.2-1,0.4-1.6,0.6v6.5h-1.8V440.2
				z"/>
			<path class="st5" d="M812.2,468.2c-0.9,0-1.5-0.2-2-0.6c-0.4-0.4-0.7-1.1-0.7-1.9V461h-1.7v-1.5h1.8l0.3-2.3l1.4-0.2v2.4h2.4v1.5
				h-2.4v4.3c0,0.5,0.1,0.9,0.3,1.1s0.6,0.4,1.1,0.4c0.1,0,0.3,0,0.5,0s0.4-0.1,0.6-0.1v1.4c-0.2,0.1-0.5,0.1-0.8,0.2
				C812.8,468.2,812.5,468.2,812.2,468.2z"/>
			<path class="st5" d="M815.3,455.1h1.8v5.2c0.8-0.4,1.5-0.7,2-0.8s1.1-0.3,1.6-0.3c0.7,0,1.3,0.2,1.7,0.6c0.4,0.4,0.6,1,0.6,1.8
				v6.4h-1.8v-5.8c0-0.5-0.1-0.9-0.3-1.2c-0.2-0.2-0.5-0.4-1-0.4c-0.4,0-0.8,0.1-1.3,0.2c-0.5,0.2-1,0.4-1.6,0.6v6.5h-1.8V455.1z"/>
			<path class="st5" d="M829,468.2c-1.4,0-2.4-0.4-3.1-1.1c-0.7-0.7-1-1.8-1-3.3c0-1.5,0.3-2.6,1-3.4c0.7-0.8,1.7-1.2,3-1.2
				c2.3,0,3.5,1.3,3.5,3.9c0,0.5,0,0.9-0.1,1.2h-5.6c0.1,0.9,0.3,1.5,0.7,1.9c0.4,0.4,1,0.6,1.9,0.6c0.4,0,0.9,0,1.4-0.1
				c0.5-0.1,1-0.2,1.4-0.3l0.1,1.3c-0.4,0.2-0.9,0.3-1.5,0.4C830,468.2,829.5,468.2,829,468.2z M828.9,460.6c-0.7,0-1.2,0.2-1.6,0.6
				c-0.4,0.4-0.6,1.1-0.6,2h4.1c0-0.9-0.2-1.6-0.5-2C830,460.8,829.5,460.6,828.9,460.6z"/>
			<path class="st5" d="M841.6,468.2c-1.4,0-2.4-0.4-3.1-1.1c-0.7-0.8-1.1-1.9-1.1-3.3c0-1.5,0.4-2.6,1.1-3.3s1.8-1.1,3.1-1.1
				s2.4,0.4,3.1,1.1c0.7,0.8,1.1,1.9,1.1,3.3c0,1.5-0.4,2.6-1.1,3.3C844,467.9,843,468.2,841.6,468.2z M841.6,466.8
				c0.8,0,1.4-0.2,1.8-0.7c0.4-0.5,0.6-1.3,0.6-2.3s-0.2-1.9-0.6-2.3c-0.4-0.5-1-0.7-1.8-0.7s-1.4,0.2-1.8,0.7
				c-0.4,0.5-0.6,1.3-0.6,2.3s0.2,1.9,0.6,2.3C840.2,466.6,840.8,466.8,841.6,466.8z"/>
			<path class="st5" d="M849.8,468.2c-0.8,0-1.3-0.2-1.7-0.6c-0.4-0.4-0.6-1-0.6-1.8v-6.4h1.8v5.9c0,0.5,0.1,0.9,0.3,1.1
				s0.5,0.3,1,0.3c0.5,0,0.9-0.1,1.4-0.3c0.5-0.2,1-0.4,1.5-0.6v-6.4h1.8v8.6h-1.5l-0.1-1h-0.1c-0.4,0.2-0.8,0.4-1.1,0.5
				c-0.3,0.1-0.6,0.3-0.9,0.4s-0.6,0.2-0.8,0.2C850.5,468.2,850.2,468.2,849.8,468.2z"/>
			<path class="st5" d="M861,468.2c-0.9,0-1.5-0.2-2-0.6c-0.4-0.4-0.7-1.1-0.7-1.9V461h-1.7v-1.5h1.8l0.3-2.3l1.4-0.2v2.4h2.4v1.5
				h-2.4v4.3c0,0.5,0.1,0.9,0.3,1.1s0.6,0.4,1.1,0.4c0.1,0,0.3,0,0.5,0s0.4-0.1,0.6-0.1v1.4c-0.2,0.1-0.5,0.1-0.8,0.2
				C861.6,468.2,861.3,468.2,861,468.2z"/>
			<path class="st5" d="M867.9,468.2c-1.4,0-2.4-0.4-3.1-1.1c-0.7-0.7-1-1.8-1-3.3c0-1.5,0.3-2.6,1-3.4c0.7-0.8,1.7-1.2,3-1.2
				c2.3,0,3.5,1.3,3.5,3.9c0,0.5,0,0.9-0.1,1.2h-5.6c0.1,0.9,0.3,1.5,0.7,1.9c0.4,0.4,1,0.6,1.9,0.6c0.4,0,0.9,0,1.4-0.1
				c0.5-0.1,1-0.2,1.4-0.3l0.1,1.3c-0.4,0.2-0.9,0.3-1.5,0.4C868.9,468.2,868.4,468.2,867.9,468.2z M867.7,460.6
				c-0.7,0-1.2,0.2-1.6,0.6c-0.4,0.4-0.6,1.1-0.6,2h4.1c0-0.9-0.2-1.6-0.5-2C868.9,460.8,868.4,460.6,867.7,460.6z"/>
			<path class="st5" d="M873.1,459.4h1.5l0.1,1.2h0.1c0.5-0.3,1.1-0.6,1.6-0.9s1-0.4,1.4-0.5h0.6v1.6h-0.6c-0.5,0.1-1,0.2-1.4,0.4
				c-0.5,0.2-0.9,0.4-1.4,0.6v6.2h-1.8V459.4z"/>
			<path class="st5" d="M885.9,468.2c-0.4,0-0.9,0-1.4-0.1c-0.5-0.1-1.1-0.2-1.7-0.3v-1.4c0.6,0.1,1.1,0.2,1.6,0.3s1,0.1,1.4,0.1
				c1.2,0,1.8-0.4,1.8-1.2c0-0.4-0.2-0.7-0.5-0.9c-0.3-0.2-0.7-0.3-1.2-0.4c-0.3-0.1-0.7-0.1-1-0.2c-0.4-0.1-0.7-0.2-1-0.4
				c-0.3-0.2-0.5-0.4-0.7-0.7c-0.2-0.3-0.3-0.7-0.3-1.3c0-0.8,0.3-1.4,0.9-1.9c0.6-0.5,1.4-0.7,2.5-0.7c0.2,0,0.4,0,0.6,0
				c0.2,0,0.4,0,0.6,0.1c0.2,0,0.4,0.1,0.7,0.1s0.5,0.1,0.9,0.2L889,461c-0.6-0.1-1-0.2-1.4-0.3c-0.4-0.1-0.8-0.1-1.1-0.1
				c-0.6,0-1,0.1-1.3,0.3s-0.4,0.5-0.4,0.9c0,0.2,0,0.4,0.1,0.6c0.1,0.1,0.2,0.3,0.4,0.4c0.2,0.1,0.4,0.2,0.6,0.2
				c0.2,0.1,0.5,0.1,0.8,0.2c0.4,0.1,0.8,0.2,1.1,0.3c0.3,0.1,0.6,0.3,0.9,0.5c0.2,0.2,0.4,0.4,0.6,0.7s0.2,0.7,0.2,1.1
				c0,0.8-0.3,1.5-0.9,1.9C887.9,468,887,468.2,885.9,468.2z"/>
			<path class="st5" d="M894.9,468.2c-2.8,0-4.2-1.5-4.2-4.4c0-3,1.4-4.5,4.2-4.5c0.4,0,0.7,0,1.1,0.1c0.4,0,0.8,0.1,1.1,0.2v1.5
				c-0.3-0.1-0.7-0.1-1-0.2c-0.3,0-0.7-0.1-1-0.1c-0.9,0-1.6,0.2-2,0.7c-0.4,0.5-0.6,1.2-0.6,2.3c0,1,0.2,1.8,0.6,2.3
				c0.4,0.5,1.1,0.7,2,0.7c0.4,0,0.8,0,1.1,0s0.6-0.1,1-0.2v1.4c-0.3,0.1-0.6,0.1-1,0.2C895.7,468.2,895.3,468.2,894.9,468.2z"/>
			<path class="st5" d="M898.9,459.4h1.5l0.1,1.2h0.1c0.5-0.3,1.1-0.6,1.6-0.9s1-0.4,1.4-0.5h0.6v1.6h-0.6c-0.5,0.1-1,0.2-1.4,0.4
				s-0.9,0.4-1.4,0.6v6.2h-1.8V459.4z"/>
			<path class="st5" d="M909.2,468.2c-1.4,0-2.4-0.4-3.1-1.1c-0.7-0.7-1-1.8-1-3.3c0-1.5,0.3-2.6,1-3.4c0.7-0.8,1.7-1.2,3-1.2
				c2.3,0,3.5,1.3,3.5,3.9c0,0.5,0,0.9-0.1,1.2h-5.6c0.1,0.9,0.3,1.5,0.7,1.9s1,0.6,1.9,0.6c0.4,0,0.9,0,1.4-0.1
				c0.5-0.1,1-0.2,1.4-0.3l0.1,1.3c-0.4,0.2-0.9,0.3-1.5,0.4C910.3,468.2,909.7,468.2,909.2,468.2z M909.1,460.6
				c-0.7,0-1.2,0.2-1.6,0.6c-0.4,0.4-0.6,1.1-0.6,2h4.1c0-0.9-0.2-1.6-0.5-2C910.2,460.8,909.7,460.6,909.1,460.6z"/>
			<path class="st5" d="M918.2,468.2c-1.4,0-2.4-0.4-3.1-1.1c-0.7-0.7-1-1.8-1-3.3c0-1.5,0.3-2.6,1-3.4c0.7-0.8,1.7-1.2,3-1.2
				c2.3,0,3.5,1.3,3.5,3.9c0,0.5,0,0.9-0.1,1.2h-5.6c0.1,0.9,0.3,1.5,0.7,1.9s1,0.6,1.9,0.6c0.4,0,0.9,0,1.4-0.1
				c0.5-0.1,1-0.2,1.4-0.3l0.1,1.3c-0.4,0.2-0.9,0.3-1.5,0.4C919.2,468.2,918.7,468.2,918.2,468.2z M918,460.6
				c-0.7,0-1.2,0.2-1.6,0.6c-0.4,0.4-0.6,1.1-0.6,2h4.1c0-0.9-0.2-1.6-0.5-2C919.2,460.8,918.7,460.6,918,460.6z"/>
			<path class="st5" d="M923.4,459.4h1.5l0.1,1h0.1c0.8-0.4,1.5-0.7,2.1-0.9c0.6-0.2,1.1-0.3,1.6-0.3c0.7,0,1.3,0.2,1.7,0.6
				s0.6,1,0.6,1.8v6.4h-1.8v-5.8c0-0.5-0.1-0.9-0.3-1.2c-0.2-0.2-0.5-0.4-1-0.4c-0.4,0-0.8,0.1-1.3,0.2c-0.5,0.2-1,0.4-1.6,0.6v6.5
				h-1.8V459.4z"/>
			<path class="st5" d="M935.9,468.2c-0.4,0-0.9,0-1.4-0.1c-0.5-0.1-1.1-0.2-1.7-0.3v-1.4c0.6,0.1,1.1,0.2,1.6,0.3s1,0.1,1.4,0.1
				c1.2,0,1.8-0.4,1.8-1.2c0-0.4-0.2-0.7-0.5-0.9c-0.3-0.2-0.7-0.3-1.2-0.4c-0.3-0.1-0.7-0.1-1-0.2c-0.4-0.1-0.7-0.2-1-0.4
				c-0.3-0.2-0.5-0.4-0.7-0.7c-0.2-0.3-0.3-0.7-0.3-1.3c0-0.8,0.3-1.4,0.9-1.9c0.6-0.5,1.4-0.7,2.5-0.7c0.2,0,0.4,0,0.6,0
				c0.2,0,0.4,0,0.6,0.1c0.2,0,0.4,0.1,0.7,0.1s0.5,0.1,0.9,0.2L939,461c-0.6-0.1-1-0.2-1.4-0.3c-0.4-0.1-0.8-0.1-1.1-0.1
				c-0.6,0-1,0.1-1.3,0.3s-0.4,0.5-0.4,0.9c0,0.2,0,0.4,0.1,0.6c0.1,0.1,0.2,0.3,0.4,0.4c0.2,0.1,0.4,0.2,0.6,0.2
				c0.2,0.1,0.5,0.1,0.8,0.2c0.4,0.1,0.8,0.2,1.1,0.3c0.3,0.1,0.6,0.3,0.9,0.5c0.2,0.2,0.4,0.4,0.6,0.7s0.2,0.7,0.2,1.1
				c0,0.8-0.3,1.5-0.9,1.9C937.9,468,937,468.2,935.9,468.2z"/>
		</g>
	</g>
	<g>
		<g>
			<path class="st5" d="M404.8,437.1c1.1-0.2,2.1-0.2,3.1-0.2c2,0,3.4,0.3,4.3,1c0.9,0.7,1.3,1.7,1.3,3.2c0,1.4-0.4,2.5-1.3,3.2
				c-0.9,0.7-2.3,1-4.2,1c-0.2,0-0.4,0-0.7,0c-0.2,0-0.5,0-0.7,0v3.7h-1.8V437.1z M408.3,443.7c0.6,0,1.1,0,1.6-0.1
				c0.4-0.1,0.8-0.3,1-0.5s0.5-0.5,0.6-0.8c0.1-0.3,0.2-0.8,0.2-1.2c0-0.5-0.1-0.9-0.2-1.2c-0.1-0.3-0.3-0.6-0.6-0.8
				c-0.3-0.2-0.6-0.4-1-0.5c-0.4-0.1-0.9-0.2-1.6-0.2c-0.3,0-0.6,0-0.9,0c-0.3,0-0.6,0-0.8,0.1v5.1c0.2,0,0.4,0.1,0.8,0.1
				C407.7,443.7,408,443.7,408.3,443.7z"/>
			<path class="st5" d="M415.2,435.9h1.8v12.9h-1.8V435.9z"/>
			<path class="st5" d="M421.2,449c-0.8,0-1.4-0.2-1.8-0.6c-0.4-0.4-0.6-1-0.6-1.7c0-0.8,0.3-1.5,0.8-1.9c0.5-0.4,1.4-0.7,2.5-0.8
				l2-0.2v-0.5c0-0.4,0-0.6-0.1-0.9c-0.1-0.2-0.2-0.4-0.3-0.6c-0.2-0.1-0.4-0.2-0.6-0.3s-0.6-0.1-1-0.1c-0.4,0-0.8,0-1.2,0.1
				c-0.4,0-0.9,0.1-1.4,0.2l-0.1-1.3c1.1-0.2,2.1-0.3,3.1-0.3c1.2,0,2.1,0.2,2.6,0.7c0.6,0.5,0.9,1.2,0.9,2.2v5.9h-1.5l-0.2-1.1
				h-0.1c-0.5,0.4-1,0.7-1.5,0.9C422.2,448.9,421.7,449,421.2,449z M421.8,447.6c0.4,0,0.7-0.1,1.1-0.2c0.4-0.2,0.8-0.4,1.1-0.6v-2
				l-1.5,0.1c-0.7,0.1-1.3,0.2-1.6,0.4c-0.3,0.2-0.4,0.6-0.4,1.1C420.6,447.2,421,447.6,421.8,447.6z"/>
			<path class="st5" d="M429.4,452.1l0-0.2l1.3-3.2l-3.6-8.4v-0.2h1.9l2.1,5.4l0.4,1.3h0.1l0.4-1.3l2.1-5.4h1.9v0.2l-5,12
				L429.4,452.1z"/>
			<path class="st5" d="M442.9,449c-0.8,0-1.4-0.2-1.8-0.6c-0.4-0.4-0.6-1-0.6-1.7c0-0.8,0.3-1.5,0.8-1.9c0.5-0.4,1.4-0.7,2.5-0.8
				l2-0.2v-0.5c0-0.4,0-0.6-0.1-0.9c-0.1-0.2-0.2-0.4-0.3-0.6c-0.2-0.1-0.4-0.2-0.6-0.3s-0.6-0.1-1-0.1c-0.4,0-0.8,0-1.2,0.1
				c-0.4,0-0.9,0.1-1.4,0.2l-0.1-1.3c1.1-0.2,2.1-0.3,3.1-0.3c1.2,0,2.1,0.2,2.6,0.7c0.6,0.5,0.9,1.2,0.9,2.2v5.9h-1.5l-0.2-1.1
				h-0.1c-0.5,0.4-1,0.7-1.5,0.9C443.9,448.9,443.4,449,442.9,449z M443.6,447.6c0.4,0,0.7-0.1,1.1-0.2c0.4-0.2,0.8-0.4,1.1-0.6v-2
				l-1.5,0.1c-0.7,0.1-1.3,0.2-1.6,0.4c-0.3,0.2-0.4,0.6-0.4,1.1C442.4,447.2,442.8,447.6,443.6,447.6z"/>
			<path class="st5" d="M452.6,440.4v-0.2h1.9l2,5.7l0.4,1.5h0.2l0.4-1.5l2-5.7h1.9v0.2l-3.2,8.4h-2.3L452.6,440.4z"/>
			<path class="st5" d="M466.5,449c-1.4,0-2.4-0.4-3.1-1.1s-1.1-1.9-1.1-3.3c0-1.5,0.4-2.6,1.1-3.3s1.8-1.1,3.1-1.1s2.4,0.4,3.1,1.1
				c0.7,0.8,1.1,1.9,1.1,3.3c0,1.5-0.4,2.6-1.1,3.3C468.9,448.7,467.9,449,466.5,449z M466.5,447.6c0.8,0,1.4-0.2,1.8-0.7
				c0.4-0.5,0.6-1.3,0.6-2.3c0-1.1-0.2-1.9-0.6-2.3c-0.4-0.5-1-0.7-1.8-0.7s-1.4,0.2-1.8,0.7c-0.4,0.5-0.6,1.3-0.6,2.3
				c0,1.1,0.2,1.9,0.6,2.3C465.1,447.4,465.7,447.6,466.5,447.6z"/>
			<path class="st5" d="M473.4,438.6c-0.4,0-0.6-0.1-0.8-0.2s-0.2-0.4-0.2-0.8c0-0.4,0.1-0.6,0.2-0.8c0.2-0.2,0.4-0.2,0.8-0.2
				s0.6,0.1,0.8,0.3c0.2,0.2,0.2,0.4,0.2,0.8c0,0.3-0.1,0.6-0.2,0.8C474.1,438.5,473.8,438.6,473.4,438.6z M472.5,440.2h1.8v8.6
				h-1.8V440.2z"/>
			<path class="st5" d="M480.4,449c-2.8,0-4.2-1.5-4.2-4.4c0-3,1.4-4.5,4.2-4.5c0.4,0,0.7,0,1.1,0.1s0.8,0.1,1.1,0.2v1.5
				c-0.3-0.1-0.7-0.1-1-0.2c-0.3,0-0.7-0.1-1-0.1c-0.9,0-1.6,0.2-2,0.7c-0.4,0.5-0.6,1.2-0.6,2.3c0,1,0.2,1.8,0.6,2.3
				c0.4,0.5,1.1,0.7,2,0.7c0.4,0,0.8,0,1.1,0s0.6-0.1,1-0.2v1.4c-0.3,0.1-0.6,0.1-1,0.2C481.2,449,480.8,449,480.4,449z"/>
			<path class="st5" d="M488.1,449c-1.4,0-2.4-0.4-3.1-1.1c-0.7-0.7-1-1.8-1-3.3c0-1.5,0.3-2.6,1-3.4c0.7-0.8,1.7-1.2,3-1.2
				c2.3,0,3.5,1.3,3.5,3.9c0,0.5,0,0.9-0.1,1.2h-5.6c0.1,0.9,0.3,1.5,0.7,1.9c0.4,0.4,1,0.6,1.9,0.6c0.4,0,0.9,0,1.4-0.1
				c0.5-0.1,1-0.2,1.4-0.3l0.1,1.3c-0.4,0.2-0.9,0.3-1.5,0.4C489.2,449,488.7,449,488.1,449z M488,441.4c-0.7,0-1.2,0.2-1.6,0.6
				c-0.4,0.4-0.6,1.1-0.6,2h4.1c0-0.9-0.2-1.6-0.5-2C489.1,441.6,488.7,441.4,488,441.4z"/>
			<path class="st5" d="M393.2,468.2c-0.8,0-1.4-0.2-1.8-0.6c-0.4-0.4-0.6-1-0.6-1.7c0-0.8,0.3-1.5,0.8-1.9c0.5-0.4,1.4-0.7,2.5-0.8
				l2-0.2v-0.5c0-0.4,0-0.6-0.1-0.9s-0.2-0.4-0.3-0.6c-0.2-0.1-0.4-0.2-0.6-0.3s-0.6-0.1-1-0.1c-0.4,0-0.8,0-1.2,0.1
				c-0.4,0-0.9,0.1-1.4,0.2l-0.1-1.3c1.1-0.2,2.1-0.3,3.1-0.3c1.2,0,2.1,0.2,2.6,0.7c0.6,0.5,0.9,1.2,0.9,2.2v5.9h-1.5l-0.2-1.1
				h-0.1c-0.5,0.4-1,0.7-1.5,0.9C394.2,468.1,393.7,468.2,393.2,468.2z M393.9,466.8c0.4,0,0.7-0.1,1.1-0.2c0.4-0.2,0.8-0.4,1.1-0.6
				v-2l-1.5,0.1c-0.7,0.1-1.3,0.2-1.6,0.4s-0.4,0.6-0.4,1.1C392.6,466.4,393.1,466.8,393.9,466.8z"/>
			<path class="st5" d="M400.2,459.4h1.5l0.1,1h0.1c0.8-0.4,1.5-0.7,2.1-0.9c0.6-0.2,1.1-0.3,1.6-0.3c0.7,0,1.3,0.2,1.7,0.6
				s0.6,1,0.6,1.8v6.4h-1.8v-5.8c0-0.5-0.1-0.9-0.3-1.2c-0.2-0.2-0.5-0.4-1-0.4c-0.4,0-0.8,0.1-1.3,0.2c-0.5,0.2-1,0.4-1.6,0.6v6.5
				h-1.8V459.4z"/>
			<path class="st5" d="M410.1,459.4h1.5l0.1,1h0.1c0.8-0.4,1.5-0.7,2.1-0.9c0.6-0.2,1.1-0.3,1.6-0.3c0.7,0,1.3,0.2,1.7,0.6
				s0.6,1,0.6,1.8v6.4H416v-5.8c0-0.5-0.1-0.9-0.3-1.2c-0.2-0.2-0.5-0.4-1-0.4c-0.4,0-0.8,0.1-1.3,0.2c-0.5,0.2-1,0.4-1.6,0.6v6.5
				h-1.8V459.4z"/>
			<path class="st5" d="M423.8,468.2c-1.4,0-2.4-0.4-3.1-1.1c-0.7-0.8-1.1-1.9-1.1-3.3c0-1.5,0.4-2.6,1.1-3.3
				c0.7-0.8,1.8-1.1,3.1-1.1s2.4,0.4,3.1,1.1c0.7,0.8,1.1,1.9,1.1,3.3c0,1.5-0.4,2.6-1.1,3.3C426.2,467.9,425.1,468.2,423.8,468.2z
				 M423.8,466.8c0.8,0,1.4-0.2,1.8-0.7c0.4-0.5,0.6-1.3,0.6-2.3s-0.2-1.9-0.6-2.3c-0.4-0.5-1-0.7-1.8-0.7s-1.4,0.2-1.8,0.7
				c-0.4,0.5-0.6,1.3-0.6,2.3s0.2,1.9,0.6,2.3C422.4,466.6,423,466.8,423.8,466.8z"/>
			<path class="st5" d="M432,468.2c-0.8,0-1.3-0.2-1.7-0.6c-0.4-0.4-0.6-1-0.6-1.8v-6.4h1.8v5.9c0,0.5,0.1,0.9,0.3,1.1
				c0.2,0.2,0.5,0.3,1,0.3c0.5,0,0.9-0.1,1.4-0.3c0.5-0.2,1-0.4,1.5-0.6v-6.4h1.8v8.6H436l-0.1-1h-0.1c-0.4,0.2-0.8,0.4-1.1,0.5
				c-0.3,0.1-0.6,0.3-0.9,0.4s-0.6,0.2-0.8,0.2S432.4,468.2,432,468.2z"/>
			<path class="st5" d="M439.7,459.4h1.5l0.1,1h0.1c0.8-0.4,1.5-0.7,2.1-0.9c0.6-0.2,1.1-0.3,1.6-0.3c0.7,0,1.3,0.2,1.7,0.6
				s0.6,1,0.6,1.8v6.4h-1.8v-5.8c0-0.5-0.1-0.9-0.3-1.2c-0.2-0.2-0.5-0.4-1-0.4c-0.4,0-0.8,0.1-1.3,0.2c-0.5,0.2-1,0.4-1.6,0.6v6.5
				h-1.8V459.4z"/>
			<path class="st5" d="M453.4,468.2c-2.8,0-4.2-1.5-4.2-4.4c0-3,1.4-4.5,4.2-4.5c0.4,0,0.7,0,1.1,0.1c0.4,0,0.8,0.1,1.1,0.2v1.5
				c-0.3-0.1-0.7-0.1-1-0.2c-0.3,0-0.7-0.1-1-0.1c-0.9,0-1.6,0.2-2,0.7c-0.4,0.5-0.6,1.2-0.6,2.3c0,1,0.2,1.8,0.6,2.3
				c0.4,0.5,1.1,0.7,2,0.7c0.4,0,0.8,0,1.1,0s0.6-0.1,1-0.2v1.4c-0.3,0.1-0.6,0.1-1,0.2C454.2,468.2,453.8,468.2,453.4,468.2z"/>
			<path class="st5" d="M461.2,468.2c-1.4,0-2.4-0.4-3.1-1.1c-0.7-0.7-1-1.8-1-3.3c0-1.5,0.3-2.6,1-3.4c0.7-0.8,1.7-1.2,3-1.2
				c2.3,0,3.5,1.3,3.5,3.9c0,0.5,0,0.9-0.1,1.2h-5.6c0.1,0.9,0.3,1.5,0.7,1.9s1,0.6,1.9,0.6c0.4,0,0.9,0,1.4-0.1
				c0.5-0.1,1-0.2,1.4-0.3l0.1,1.3c-0.4,0.2-0.9,0.3-1.5,0.4C462.2,468.2,461.7,468.2,461.2,468.2z M461.1,460.6
				c-0.7,0-1.2,0.2-1.6,0.6c-0.4,0.4-0.6,1.1-0.6,2h4.1c0-0.9-0.2-1.6-0.5-2C462.2,460.8,461.7,460.6,461.1,460.6z"/>
			<path class="st5" d="M466.4,459.4h1.5l0.1,1h0.1c0.7-0.4,1.2-0.7,1.7-0.9s1-0.3,1.4-0.3c1,0,1.7,0.4,2.1,1.2h0.1
				c0.7-0.4,1.3-0.7,1.8-0.9s1-0.3,1.4-0.3c0.7,0,1.3,0.2,1.7,0.6c0.4,0.4,0.6,1,0.6,1.8v6.4h-1.8v-5.8c0-0.5-0.1-0.9-0.3-1.2
				s-0.5-0.3-1-0.3c-0.3,0-0.6,0.1-1,0.2c-0.4,0.1-0.8,0.3-1.2,0.6v6.5h-1.8v-5.8c0-0.5-0.1-0.9-0.3-1.2c-0.2-0.2-0.5-0.3-1-0.3
				c-0.3,0-0.7,0.1-1.1,0.2c-0.4,0.1-0.8,0.3-1.2,0.6v6.5h-1.8V459.4z"/>
			<path class="st5" d="M484.8,468.2c-1.4,0-2.4-0.4-3.1-1.1c-0.7-0.7-1-1.8-1-3.3c0-1.5,0.3-2.6,1-3.4c0.7-0.8,1.7-1.2,3-1.2
				c2.3,0,3.5,1.3,3.5,3.9c0,0.5,0,0.9-0.1,1.2h-5.6c0.1,0.9,0.3,1.5,0.7,1.9s1,0.6,1.9,0.6c0.4,0,0.9,0,1.4-0.1
				c0.5-0.1,1-0.2,1.4-0.3l0.1,1.3c-0.4,0.2-0.9,0.3-1.5,0.4C485.9,468.2,485.4,468.2,484.8,468.2z M484.7,460.6
				c-0.7,0-1.2,0.2-1.6,0.6c-0.4,0.4-0.6,1.1-0.6,2h4.1c0-0.9-0.2-1.6-0.5-2C485.8,460.8,485.4,460.6,484.7,460.6z"/>
			<path class="st5" d="M490,459.4h1.5l0.1,1h0.1c0.8-0.4,1.5-0.7,2.1-0.9c0.6-0.2,1.1-0.3,1.6-0.3c0.7,0,1.3,0.2,1.7,0.6
				s0.6,1,0.6,1.8v6.4H496v-5.8c0-0.5-0.1-0.9-0.3-1.2c-0.2-0.2-0.5-0.4-1-0.4c-0.4,0-0.8,0.1-1.3,0.2c-0.5,0.2-1,0.4-1.6,0.6v6.5
				H490V459.4z"/>
			<path class="st5" d="M503.5,468.2c-0.9,0-1.5-0.2-2-0.6c-0.4-0.4-0.7-1.1-0.7-1.9V461h-1.7v-1.5h1.8l0.3-2.3l1.4-0.2v2.4h2.4v1.5
				h-2.4v4.3c0,0.5,0.1,0.9,0.3,1.1c0.2,0.2,0.6,0.4,1.1,0.4c0.1,0,0.3,0,0.5,0c0.2,0,0.4-0.1,0.6-0.1v1.4c-0.2,0.1-0.5,0.1-0.8,0.2
				C504,468.2,503.7,468.2,503.5,468.2z"/>
		</g>
	</g>
	<g>
		<path class="st6" d="M549.1,430.9c-0.1-4-1.5-7.3-4.4-10.2c-0.9-0.9-1-1.5-0.5-2.1c0.6-0.6,1.2-0.4,2.1,0.5
			c6.7,6.7,6.6,17.3-0.3,23.8c-0.7,0.7-1.3,0.7-1.8,0.2s-0.4-1.2,0.3-1.8C547.4,438.4,549,435,549.1,430.9z"/>
		<path class="st6" d="M545.6,430.8c-0.1,2.4-0.8,4.5-2.4,6.2c-0.6,0.6-1.2,0.7-1.8,0.3c-0.5-0.5-0.5-1.1,0.1-1.8
			c2.5-2.8,2.5-6.5,0-9.4c-0.5-0.6-0.5-1.3-0.1-1.7c0.5-0.5,1.2-0.4,1.7,0.2C544.7,426.3,545.5,428.4,545.6,430.8z"/>
		<path class="st6" d="M537.6,430.9c0,3,0,6.1,0,9.1c0,1.5-0.7,2.8-1.9,3.2c-1.4,0.5-2.5,0.1-3.5-1c-1.4-1.5-2.9-2.9-4.2-4.4
			c-0.8-0.8-1.6-1.1-2.7-1.2c-1.1,0-2.1-0.1-3.2-0.2c-1.6-0.3-2.5-1.2-2.6-2.8c-0.1-1.9-0.1-3.7,0-5.6c0.1-1.7,1-2.6,2.6-2.8
			c1.1-0.2,2.2-0.2,3.3-0.2c0.9,0,1.7-0.3,2.4-1c1.5-1.6,3-3.1,4.5-4.6c1-1,2.1-1.3,3.4-0.9c1.2,0.4,1.9,1.6,1.9,3
			C537.6,424.7,537.6,427.8,537.6,430.9z"/>
	</g>
	<g>
		<path class="st6" d="M967.5,441.1c0.1-0.5,0.2-1,0.3-1.5c0.2-1.1-0.2-1.7-1.3-1.9c-0.6-0.1-1.2-0.2-1.7-0.2c-2.6,0-5-0.6-7.3-1.8
			c-1.9-1.1-3.5-2.5-4.4-4.5c-1.4-3-0.9-5.9,1.2-8.4c1.6-2,3.7-3.2,6.2-3.9c4-1.1,7.9-0.8,11.6,1.2c2,1,3.5,2.5,4.5,4.5
			c1.4,3,0.9,5.8-1.2,8.4c-0.6,0.7-1.2,1.3-1.9,1.8c-0.1,0.1-0.2,0.2-0.2,0.3c-0.4,2.9-2.2,4.7-4.8,5.7
			C968.1,440.9,967.8,441,967.5,441.1z M968.8,439.6c0.1,0,0.2-0.1,0.2-0.1c0.2-0.1,0.5-0.3,0.7-0.4c1.5-1.1,2.5-2.5,2.5-4.5
			c0-0.1,0.1-0.2,0.2-0.3c0.8-0.6,1.5-1.2,2.1-2c2.1-2.6,2.2-5.8,0.3-8.5c-0.9-1.3-2.1-2.3-3.6-3c-3.3-1.7-6.8-2-10.4-1.1
			c-2.2,0.6-4.2,1.6-5.8,3.3c-2.6,2.8-2.7,6.6-0.2,9.5c1.5,1.8,3.5,2.8,5.7,3.5c1.3,0.4,2.7,0.5,4.1,0.5c0.8,0,1.6,0.1,2.4,0.4
			c0.8,0.3,1.3,0.9,1.4,1.7C968.8,438.9,968.8,439.2,968.8,439.6z"/>
		<path class="st6" d="M970.5,425c-3.8,0-7.7,0-11.5,0c0-0.3,0-0.6,0-0.9c3.8,0,7.7,0,11.5,0C970.5,424.4,970.5,424.7,970.5,425z"/>
		<path class="st6" d="M970.6,427.4c0,0.3,0,0.6,0,0.9c-3.8,0-7.7,0-11.5,0c0-0.3,0-0.6,0-0.9C962.9,427.4,966.7,427.4,970.6,427.4z
			"/>
		<path class="st6" d="M970.6,430.8c0,0.3,0,0.6,0,0.9c-3.8,0-7.7,0-11.5,0c0-0.3,0-0.6,0-0.9C962.9,430.8,966.7,430.8,970.6,430.8z
			"/>
	</g>
	<g>
		<path class="st6" d="M966.7,263.8c0-0.3,0-0.6,0-0.9c0-0.3,0.1-0.4,0.4-0.4c2.5,0,4.9,0,7.4,0c0.3,0,0.4,0.1,0.4,0.4
			c0,0.3,0,0.6,0,0.9C972.1,263.8,969.4,263.8,966.7,263.8z"/>
		<path class="st6" d="M966.3,251.9c0-1.1,0-2.2,0-3.5c0-0.6,0.6-1,1.1-0.7c0.3,0.2,0.4,0.4,0.4,0.8c0,1.7,0,3.2,0,4.9
			c0,0.4,0,0.9,0,1.3s0.2,0.7,0.5,0.7c0.4,0,0.5-0.3,0.5-0.7c0-0.7,0-1.4,0-2.2c0-0.5,0.3-0.8,0.7-0.8c0.4,0,0.7,0.3,0.7,0.9
			c0,0.8,0,1.7,0,2.5c0,0.3,0.1,0.7,0.4,0.7s0.5-0.3,0.5-0.7c0-0.6,0-1.3,0-1.8c0-0.6,0.3-0.9,0.7-0.9c0.5,0,0.9,0.3,1,0.8
			c0.1,0.4,0,1,0,1.4c0,0.4,0,0.9,0,1.3c0,0.3,0.1,0.4,0.4,0.4s0.4-0.2,0.4-0.4c0-0.5,0-1.1,0-1.5c0-0.5,0.3-0.8,0.7-0.8
			s0.8,0.4,0.8,0.9c0,1.4,0,2.8,0,4.2c0,0.4-0.2,0.7-0.4,1c-0.3,0.4-0.4,1-0.3,1.4c0,0.5-0.1,0.7-0.6,0.7c-2.2,0-4.5,0-6.7,0
			c-0.5,0-0.7-0.2-0.6-0.7c0-0.4-0.1-0.8-0.4-1.2c-1-1.3-1.8-2.7-2.7-4.1c-0.3-0.5-0.3-1,0.1-1.1c0.4-0.3,0.8-0.1,1.1,0.4
			c0.2,0.3,0.3,0.6,0.5,0.8c0.1,0.2,0.3,0.4,0.6,0.3c0.3-0.1,0.4-0.3,0.4-0.6C966.3,254.3,966.3,253.1,966.3,251.9L966.3,251.9z"/>
		<path class="st6" d="M976.7,246.9c-0.4-0.2-1-0.1-1.3,0.3c-0.2,0.1-0.3,0.4-0.6,0.4c-1.3,0-2.5,0-3.8,0c-0.3,0-0.3-0.1-0.3-0.3
			c0-0.4,0-0.8,0-1.3c0-0.4,0.1-0.6,0.4-0.9c1-0.9,1.8-1.8,2.8-2.7c0.2-0.2,0.4-0.3,0.7-0.3c0.4,0.1,0.8-0.1,1.1-0.4
			c0.3-0.4,0.4-0.7,0.1-1.2c-0.3-0.6-0.8-0.8-1.4-0.6c-0.6,0.2-1,0.7-0.9,1.4c0,0.2,0,0.3-0.1,0.5c-0.9,0.9-1.8,1.8-2.7,2.7
			c-0.2,0.2-0.3,0.1-0.5,0.1c-0.2-0.1-0.1-0.3-0.1-0.4c0-0.7,0-1.3,0-2c0-0.6-0.1-1.1-0.4-1.5c-0.6-1.1-2-1.9-3.2-1.7
			c-1.5,0.4-2.5,1.7-2.5,3c0,0.7,0,1.3,0,2c0,0.2,0.1,0.4-0.2,0.6c-0.3,0.1-0.5,0-0.7-0.2c-0.7-0.7-1.5-1.5-2.4-2.4
			c-0.3-0.3-0.3-0.4-0.3-0.8c0.1-0.7-0.5-1.3-1.3-1.3c-0.7,0-1.2,0.6-1.1,1.3c0.1,0.7,0.7,1.2,1.4,1.1c0.3-0.1,0.4,0,0.6,0.2
			c0.7,0.7,1.3,1.4,2.1,2c1,0.7,1.3,1.7,1.1,2.8c-0.1,0.4-0.1,0.5-0.5,0.5c-1.1,0-2.2,0-3.3,0c-0.3,0-0.5-0.1-0.7-0.3
			c-0.4-0.4-0.9-0.5-1.4-0.3c-0.4,0-0.6,0.3-0.8,0.6c0,0.2,0,0.4,0,0.6c0.1,0.1,0.1,0.1,0.1,0.1c0.6,1,1.4,1,2.2,0.1
			c0.1-0.1,0.3-0.2,0.4-0.2c1.2,0,2.4,0,3.5,0c0.3,0,0.4,0.1,0.4,0.4c0,0.7,0,1.3,0,2c0,0.6,0.2,0.7,0.7,0.8c0.3,0,0.6,0,0.8,0
			c0.4,0,0.5-0.1,0.4-0.5c0-0.9,0-1.8,0-2.6c0-1.1,0.8-1.8,1.8-1.8c1,0,1.8,0.8,1.8,1.9c0,0.6,0,1.3,0,1.9c0,0.3,0.1,0.3,0.3,0.3
			c0.4-0.1,0.8-0.1,1.2,0.1c0.3,0.2,0.4,0.1,0.4-0.3c0-0.6,0-1.2,0-1.8c0-0.4,0.1-0.5,0.5-0.5c1.1,0,2.1,0,3.2,0
			c0.4,0,0.7,0.1,1,0.4c0.3,0.4,0.8,0.5,1.3,0.3c0.5-0.2,0.7-0.6,0.7-1.1C977.4,247.5,977.2,247.1,976.7,246.9z M969.1,244
			c0,0.3-0.1,0.4-0.4,0.4c-0.6,0-1.1,0-1.7,0l0,0c-0.6,0-1.1,0-1.7,0c-0.2,0-0.4,0-0.4-0.3c0-1-0.1-1.8,0.1-2.8
			c0.2-1.1,1.1-1.8,2.1-1.7c1.1,0.1,1.9,0.9,1.9,2C969.1,242.5,969.1,243.2,969.1,244z"/>
	</g>
</g>
</svg>
