<?xml version="1.0" encoding="utf-8"?>
<!-- Generator: Adobe Illustrator 25.0.1, SVG Export Plug-In . SVG Version: 6.00 Build 0)  -->
<svg version="1.1" id="Layer_1" xmlns="http://www.w3.org/2000/svg" xmlns:xlink="http://www.w3.org/1999/xlink" x="0px" y="0px"
	 viewBox="0 0 1219.1 396.3" style="enable-background:new 0 0 1219.1 396.3;" xml:space="preserve">
<style type="text/css">
	.st0{fill:#0C6D72;}
	.st1{fill:#063739;}
	.st2{fill:#30721E;}
	.st3{fill:#F4F4F4;}
	.st4{fill:#E52033;}
	.st5{fill:#FFFFFF;}
</style>
<g>
	<rect x="187.9" y="95" class="st0" width="32.5" height="1"/>
	<polygon class="st0" points="218.9,100.4 227.6,95.5 218.9,90.5 	"/>
	<rect x="434.6" y="95" class="st0" width="36.5" height="1"/>
	<polygon class="st0" points="469.6,100.4 478.3,95.5 469.6,90.5 	"/>
	<rect x="896.2" y="50.5" class="st1" width="207" height="90"/>
	<path class="st0" d="M1102.2,51.5v88h-205v-88H1102.2 M1103.2,50.4h-207v90h207V50.4z"/>
	<circle class="st2" cx="151.9" cy="95.5" r="36"/>
	<path class="st3" d="M136.4,101.5c-0.3,0-0.6,0-1,0s-0.7-0.1-1.1-0.1c-0.4,0-0.7-0.1-1.1-0.2c-0.4-0.1-0.7-0.2-1.1-0.2v-1.4
		c0.7,0.2,1.4,0.3,2.2,0.4c0.6,0.1,1.3,0.2,2,0.2c0.8,0.1,1.7-0.1,2.4-0.6c0.5-0.4,0.9-1,0.8-1.7c0-0.3-0.1-0.7-0.2-1
		c-0.2-0.3-0.4-0.5-0.6-0.7c-0.3-0.2-0.6-0.4-1-0.5s-0.8-0.3-1.2-0.4c-0.6-0.2-1.2-0.4-1.8-0.6c-0.5-0.2-0.9-0.5-1.2-0.8
		s-0.6-0.7-0.7-1.1c-0.2-0.4-0.2-0.9-0.2-1.4s0.1-1,0.3-1.5s0.5-0.9,0.9-1.2s1-0.6,1.5-0.8c0.6-0.2,1.3-0.3,1.9-0.3
		c0.5,0,1.1,0,1.6,0.1c0.6,0.1,1.2,0.2,1.9,0.3l-0.1,1.3c-0.6-0.2-1.2-0.3-1.7-0.3c-0.5-0.1-1.1-0.1-1.6-0.1c-0.8,0-1.6,0.2-2.2,0.6
		c-0.5,0.4-0.8,1-0.8,1.7c0,0.3,0,0.6,0.2,0.9c0.1,0.3,0.3,0.5,0.5,0.7c0.3,0.2,0.6,0.4,0.9,0.6c0.5,0.2,0.9,0.4,1.4,0.5
		c0.6,0.2,1.1,0.3,1.6,0.5s0.9,0.4,1.3,0.7c0.4,0.3,0.6,0.7,0.8,1.1c0.2,0.5,0.3,1,0.3,1.6c0.1,1-0.4,2.1-1.2,2.7
		C138.9,101.3,137.6,101.6,136.4,101.5z"/>
	<path class="st3" d="M146.7,101.5c-0.8,0.1-1.5-0.2-2.1-0.7c-0.5-0.5-0.7-1.3-0.7-2V93h-2v-1.4h2.1l0.2-2.4l1.2-0.2v2.6h2.9V93
		h-2.9v5.4c0,0.5,0.1,1,0.4,1.3c0.3,0.3,0.8,0.5,1.3,0.4c0.2,0,0.4,0,0.6-0.1c0.2,0,0.5-0.1,0.7-0.2v1.3c-0.3,0.1-0.6,0.1-0.9,0.2
		C147.3,101.5,147,101.5,146.7,101.5z"/>
	<path class="st3" d="M152,101.4c-0.7,0-1.4-0.2-1.9-0.7s-0.7-1.2-0.7-1.9c0-0.8,0.3-1.6,0.9-2.1c0.8-0.6,1.8-0.9,2.8-0.9l2.3-0.2
		v-0.7c0-0.4,0-0.7-0.1-1.1c-0.1-0.3-0.2-0.5-0.4-0.7s-0.5-0.3-0.8-0.4c-0.4-0.1-0.8-0.1-1.2-0.1s-0.9,0-1.3,0.1
		c-0.5,0-1,0.1-1.5,0.2l-0.1-1.2c0.6-0.1,1.2-0.2,1.7-0.3s1-0.1,1.6-0.1c1-0.1,2,0.2,2.8,0.8c0.6,0.6,1,1.5,0.9,2.4v6.6h-1.3
		l-0.2-1.2h-0.1c-0.5,0.4-1.1,0.7-1.7,1C153.2,101.3,152.6,101.4,152,101.4z M152.6,100.2c0.5,0,1-0.1,1.4-0.3
		c0.5-0.2,1-0.5,1.5-0.8v-2.5l-1.9,0.2c-0.7,0-1.4,0.2-2,0.6c-0.4,0.3-0.6,0.8-0.6,1.4C151.1,99.7,151.6,100.2,152.6,100.2z"/>
	<path class="st3" d="M159.7,91.6h1.3l0.1,1.3h0.1c0.7-0.4,1.3-0.7,1.8-1s1-0.4,1.6-0.5h0.5v1.5h-0.6c-0.6,0.1-1.1,0.2-1.7,0.4
		c-0.6,0.2-1.1,0.5-1.6,0.7v7.2h-1.6L159.7,91.6L159.7,91.6L159.7,91.6z"/>
	<path class="st3" d="M170.5,101.5c-0.8,0.1-1.5-0.2-2.1-0.7c-0.5-0.5-0.8-1.3-0.7-2V93h-2v-1.4h2.1l0.2-2.4l1.2-0.2v2.6h2.9V93
		h-2.9v5.4c0,0.5,0.1,1,0.4,1.3s0.8,0.5,1.3,0.4c0.2,0,0.4,0,0.6-0.1c0.2,0,0.5-0.1,0.7-0.2v1.3c-0.3,0.1-0.6,0.1-0.9,0.2
		C171.1,101.5,170.8,101.5,170.5,101.5z"/>
	<rect x="773.4" y="68.4" class="st0" width="72" height="54"/>
	<path class="st3" d="M800.2,96.9l-4.9-8.9h1.7l3.3,6.2l0.5,1.2h0.2l0.5-1.2l3.4-6.2h1.7l-4.8,8.8v4.5h-1.6L800.2,96.9z"/>
	<path class="st3" d="M810.6,101.5c-1.2,0.1-2.5-0.4-3.4-1.2c-0.8-1-1.2-2.3-1.1-3.7c-0.1-1.4,0.3-2.7,1.1-3.8
		c0.8-0.9,2-1.4,3.3-1.3c2.5,0,3.7,1.4,3.7,4.3c0,0.4,0,0.8-0.1,1.3h-6.4c0,0.9,0.3,1.8,0.8,2.4c0.6,0.5,1.4,0.8,2.3,0.7
		c0.5,0,1,0,1.5-0.1s1-0.2,1.5-0.4l0.1,1.2c-0.5,0.2-1,0.3-1.6,0.4C811.7,101.4,811.2,101.5,810.6,101.5z M810.4,92.6
		c-1.7,0-2.7,1.1-2.8,3.3h5.1c0.1-0.9-0.1-1.7-0.6-2.5C811.8,92.9,811.1,92.6,810.4,92.6z"/>
	<path class="st3" d="M819.1,101.5c-0.5,0-0.9,0-1.4-0.1s-1.1-0.2-1.9-0.3v-1.3c0.6,0.1,1.2,0.3,1.7,0.3c0.5,0.1,1,0.1,1.5,0.1
		c0.6,0,1.1-0.1,1.6-0.4c0.4-0.3,0.6-0.7,0.5-1.2c0-0.2,0-0.5-0.1-0.7s-0.2-0.4-0.4-0.5s-0.4-0.2-0.7-0.3s-0.5-0.2-0.8-0.2l-1.1-0.2
		c-0.4-0.1-0.7-0.2-1-0.4s-0.6-0.5-0.8-0.8c-0.2-0.4-0.3-0.9-0.3-1.4c0-0.8,0.4-1.5,1-2c0.8-0.5,1.7-0.8,2.6-0.7c0.2,0,0.4,0,0.6,0
		l0.6,0.1l0.7,0.1l0.9,0.2l-0.2,1.3c-0.6-0.1-1.1-0.2-1.5-0.3s-0.8-0.1-1.1-0.1c-1.5,0-2.2,0.5-2.2,1.5c0,0.2,0,0.5,0.2,0.7
		c0.1,0.2,0.3,0.3,0.5,0.5c0.2,0.1,0.5,0.2,0.7,0.3c0.3,0.1,0.6,0.1,0.9,0.2c0.4,0.1,0.8,0.2,1.2,0.3s0.7,0.3,1,0.5s0.5,0.5,0.6,0.8
		c0.2,0.4,0.2,0.8,0.2,1.2c0,0.8-0.3,1.6-1,2.1C821,101.3,820.1,101.6,819.1,101.5z"/>
	<rect x="227.6" y="50.5" class="st1" width="207" height="90"/>
	<path class="st0" d="M433.6,51.5v88h-205v-88H433.6 M434.6,50.5h-207v90h207V50.5z"/>
	<g>
		<circle class="st0" cx="331.1" cy="351.3" r="36"/>
		<path class="st3" d="M316.3,343.8h8.5v1.3h-6.9v4.6h6.4v1.4h-6.4v4.8h7v1.3h-8.6V343.8z"/>
		<path class="st3" d="M327.1,347.3h1.3l0.1,1.1h0.1l1.3-0.6c0.4-0.2,0.7-0.3,1.1-0.4c0.3-0.1,0.6-0.2,0.9-0.2s0.6-0.1,0.8-0.1
			c0.7,0,1.4,0.2,1.9,0.7s0.7,1.3,0.7,2v7.2h-1.6v-6.7c0-0.5-0.1-1-0.4-1.4c-0.3-0.3-0.8-0.5-1.2-0.4c-0.5,0-1.1,0.1-1.6,0.3
			c-0.7,0.2-1.3,0.5-1.9,0.8v7.5H327L327.1,347.3L327.1,347.3z"/>
		<path class="st3" d="M341.5,357.3c-1.1,0.1-2.2-0.4-3-1.2c-0.8-1.1-1.1-2.4-1-3.8c0-0.8,0.1-1.5,0.3-2.3c0.2-0.6,0.6-1.1,1-1.6
			c0.4-0.4,0.9-0.8,1.5-1s1.3-0.3,2-0.3c0.4,0,0.8,0,1.2,0.1l1.1,0.1v-4.8h1.5V357h-1.4l-0.1-1.2h-0.1
			C343.7,356.8,342.6,357.3,341.5,357.3z M341.8,356c0.3,0,0.7-0.1,1-0.1c0.3-0.1,0.6-0.2,0.9-0.4c0.2-0.2,0.5-0.4,0.6-0.7
			c0.1-0.3,0.2-0.6,0.2-0.9v-5.2c-0.4-0.1-0.7-0.1-1.1-0.1s-0.8-0.1-1.2-0.1c-0.9-0.1-1.8,0.3-2.4,0.9c-0.6,0.9-0.9,1.9-0.8,2.9
			c-0.1,1,0.1,2,0.7,2.9C340.2,355.8,341,356.1,341.8,356L341.8,356z"/>
	</g>
	<rect x="537.7" y="213" class="st4" width="72" height="54"/>
	<path class="st3" d="M563,232.5h1.4l6.8,9.3l1,1.6h0.1v-10.9h1.5v13.3h-1.4l-6.9-9.3l-1-1.6h-0.1v10.8h-1.5L563,232.5L563,232.5z"
		/>
	<path class="st3" d="M580.7,246c-1.3,0.1-2.5-0.4-3.4-1.3c-1.5-2.3-1.5-5.2,0-7.5c1.9-1.7,4.8-1.7,6.7,0c1.5,2.3,1.5,5.2,0,7.5
		C583.2,245.6,581.9,246.1,580.7,246z M580.7,244.8c0.8,0.1,1.7-0.3,2.2-0.9c0.9-1.8,0.9-3.9,0-5.7c-1.2-1.2-3.2-1.2-4.4,0
		c-0.9,1.8-0.9,3.9,0,5.7C579,244.4,579.8,244.9,580.7,244.8L580.7,244.8z"/>
	<rect x="669.2" y="95" class="st0" width="97" height="1"/>
	<polygon class="st0" points="764.7,100.4 773.4,95.5 764.7,90.5 	"/>
	<rect x="845.4" y="95" class="st0" width="43.6" height="1"/>
	<polygon class="st0" points="887.5,100.4 896.2,95.5 887.5,90.5 	"/>
	<rect x="573.2" y="190.1" class="st0" width="1" height="15.6"/>
	<polygon class="st0" points="568.7,204.4 573.7,213 578.7,204.4 	"/>
	<rect x="506.2" y="28" transform="matrix(0.7071 -0.7071 0.7071 0.7071 100.505 433.6132)" class="st1" width="135" height="135"/>
	<path class="st0" d="M573.7,1.4l94,94.1l-94,94l-94-94L573.7,1.4 M573.7,0.1l-95.5,95.4l95.5,95.5l95.5-95.5L573.7,0.1L573.7,0.1z"
		/>
	<path class="st3" d="M515.1,101.2l4.8-13.2h2.4l4.8,13.2v0.1h-1.6l-1.5-4h-6l-1.4,4L515.1,101.2L515.1,101.2L515.1,101.2z
		 M523.6,96l-1.6-4.5l-0.8-2.3h-0.1l-0.8,2.3l-1.6,4.5H523.6z"/>
	<path class="st3" d="M528.6,86.8h1.6v14.5h-1.6V86.8z"/>
	<path class="st3" d="M534.9,101.4c-0.7,0-1.4-0.2-1.9-0.7s-0.7-1.2-0.7-1.9c-0.1-0.8,0.3-1.6,0.9-2.1c0.8-0.6,1.8-0.9,2.8-0.9
		l2.3-0.2v-0.7c0-0.4,0-0.7-0.1-1.1c-0.1-0.3-0.2-0.5-0.4-0.7s-0.5-0.3-0.7-0.4c-0.4-0.1-0.8-0.1-1.2-0.1s-0.9,0-1.3,0.1
		c-0.5,0-1,0.1-1.5,0.2l-0.1-1.2c0.6-0.1,1.2-0.2,1.7-0.3s1-0.1,1.6-0.1c1-0.1,2,0.2,2.8,0.8c0.6,0.6,1,1.5,0.9,2.4v6.6h-1.3
		l-0.2-1.2h-0.1c-0.5,0.4-1.1,0.7-1.7,1C536.1,101.3,535.5,101.4,534.9,101.4z M535.5,100.2c0.5,0,1-0.1,1.4-0.3
		c0.5-0.2,1-0.5,1.5-0.8v-2.5l-1.9,0.2c-0.7,0-1.4,0.2-2,0.6c-0.4,0.3-0.6,0.8-0.6,1.4C533.9,99.7,534.4,100.2,535.5,100.2z"/>
	<path class="st3" d="M542.6,91.6h1.3l0.1,1.3h0.1c0.7-0.4,1.3-0.7,1.9-1c0.5-0.2,1-0.4,1.6-0.5h0.5v1.5h-0.6
		c-0.6,0.1-1.1,0.2-1.7,0.4c-0.6,0.2-1.1,0.5-1.6,0.7v7.2h-1.6V91.6z"/>
	<path class="st3" d="M549.6,91.6h1.3l0.1,1.1h0.1c0.6-0.4,1.3-0.7,2-1c0.5-0.2,1-0.3,1.6-0.3c1-0.1,1.9,0.4,2.3,1.3h0.1
		c0.6-0.4,1.3-0.7,2-1c0.5-0.2,1-0.3,1.6-0.3c0.7,0,1.4,0.2,1.9,0.7s0.7,1.3,0.7,2v7.2h-1.6v-6.7c0-0.5-0.1-1-0.4-1.4
		c-0.3-0.3-0.8-0.5-1.2-0.4c-0.4,0-0.9,0.1-1.3,0.3c-0.5,0.2-1,0.5-1.5,0.7v7.5h-1.6v-6.7c0-0.5-0.1-1-0.4-1.4
		c-0.3-0.3-0.8-0.5-1.2-0.4c-0.4,0-0.9,0.1-1.3,0.3c-0.5,0.2-1,0.5-1.5,0.8v7.5h-1.6L549.6,91.6L549.6,91.6z"/>
	<path class="st3" d="M570.8,89.6c-0.5,0.1-0.9-0.2-1-0.7c0-0.1,0-0.2,0-0.3c-0.1-0.5,0.2-0.9,0.7-1c0.1,0,0.2,0,0.3,0
		c0.7,0,1,0.3,1,1S571.5,89.6,570.8,89.6z M570,91.6h1.6v9.7H570V91.6z"/>
	<path class="st3" d="M577.1,101.5c-0.5,0-0.9,0-1.4-0.1s-1.1-0.2-1.9-0.3v-1.3c0.6,0.1,1.2,0.3,1.7,0.3c0.5,0.1,1,0.1,1.5,0.1
		c0.6,0,1.1-0.1,1.6-0.4c0.4-0.3,0.6-0.7,0.5-1.2c0-0.2,0-0.5-0.1-0.7s-0.2-0.4-0.4-0.5s-0.4-0.2-0.6-0.3c-0.3-0.1-0.5-0.1-0.8-0.2
		s-0.8-0.2-1.1-0.3c-0.4-0.1-0.7-0.2-1-0.4s-0.6-0.5-0.8-0.8c-0.2-0.4-0.3-0.9-0.3-1.4c0-0.8,0.3-1.6,0.9-2.1
		c0.8-0.5,1.7-0.8,2.6-0.7h0.6l0.6,0.1l0.7,0.1c0.3,0,0.6,0.1,0.9,0.2l-0.1,1.3c-0.6-0.1-1.1-0.2-1.5-0.3s-0.8-0.1-1.1-0.1
		c-1.5,0-2.2,0.5-2.2,1.5c0,0.2,0.1,0.5,0.2,0.7c0.1,0.2,0.3,0.4,0.5,0.5s0.5,0.2,0.7,0.3c0.3,0.1,0.6,0.1,0.9,0.2
		c0.4,0.1,0.8,0.2,1.2,0.3s0.7,0.3,1,0.5s0.5,0.5,0.6,0.8c0.2,0.4,0.2,0.8,0.2,1.2c0,0.8-0.3,1.6-0.9,2.1
		C579.1,101.3,578.1,101.6,577.1,101.5z"/>
	<path class="st3" d="M585.6,91.8v-0.2h1.6l2.5,7l0.4,1.5h0.2l0.4-1.5l2.5-7h1.6v0.2l-3.7,9.5h-2L585.6,91.8z"/>
	<path class="st3" d="M598.5,101.4c-0.7,0-1.4-0.2-1.9-0.7s-0.7-1.2-0.7-1.9c0-0.8,0.3-1.6,0.9-2.1c0.8-0.6,1.8-0.9,2.8-0.9l2.3-0.2
		v-0.7c0-0.4,0-0.7-0.1-1.1c-0.1-0.3-0.2-0.5-0.4-0.7s-0.5-0.3-0.8-0.4c-0.4-0.1-0.8-0.1-1.2-0.1s-0.9,0-1.3,0.1
		c-0.5,0-1,0.1-1.5,0.2l-0.1-1.2c0.6-0.1,1.2-0.2,1.7-0.3s1-0.1,1.6-0.1c1-0.1,2,0.2,2.8,0.8c0.6,0.6,1,1.5,0.9,2.4v6.6h-1.3
		L602,100h-0.1c-0.5,0.4-1.1,0.7-1.7,1S599.1,101.4,598.5,101.4z M599,100.2c0.5,0,1-0.1,1.4-0.3c0.5-0.2,1-0.5,1.5-0.8v-2.4
		l-1.9,0.2c-0.7,0-1.4,0.2-2,0.6c-0.4,0.3-0.6,0.8-0.6,1.4C597.5,99.7,598,100.2,599,100.2z"/>
	<path class="st3" d="M606.2,86.8h1.6v14.5h-1.6V86.8z"/>
	<path class="st3" d="M611.3,89.6c-0.5,0.1-0.9-0.2-1-0.7c0-0.1,0-0.2,0-0.3c-0.1-0.5,0.2-0.9,0.7-1c0.1,0,0.2,0,0.3,0
		c0.7,0,1,0.3,1,1S612,89.6,611.3,89.6z M610.5,91.6h1.6v9.7h-1.6V91.6z"/>
	<path class="st3" d="M618.4,101.5c-1.1,0.1-2.2-0.4-3-1.2c-0.8-1.1-1.1-2.4-1-3.8c0-0.8,0.1-1.5,0.3-2.3c0.2-0.6,0.6-1.1,1-1.6
		c0.4-0.4,0.9-0.8,1.5-1s1.3-0.3,2-0.3c0.4,0,0.8,0,1.2,0.1l1.1,0.1v-4.8h1.6v14.5h-1.4l-0.1-1.2h-0.1
		C620.7,101.1,619.6,101.6,618.4,101.5z M618.7,100.2c0.3,0,0.7-0.1,1-0.2s0.6-0.2,0.9-0.4c0.2-0.2,0.5-0.4,0.6-0.7s0.2-0.6,0.2-0.9
		v-5.2c-0.4-0.1-0.7-0.1-1.1-0.1c-0.4,0-0.8-0.1-1.2-0.1c-0.9-0.1-1.8,0.3-2.4,0.9c-0.6,0.8-0.9,1.9-0.8,2.9c-0.1,1,0.1,2,0.7,2.9
		C617.1,100,617.9,100.3,618.7,100.2L618.7,100.2z"/>
	<path class="st3" d="M627,97.8l-0.1-3.4c0.4-0.1,0.8-0.2,1.2-0.3s0.8-0.3,1.1-0.5s0.6-0.5,0.8-0.8c0.2-0.4,0.3-0.8,0.3-1.2
		s-0.1-0.8-0.2-1.1c-0.1-0.3-0.3-0.5-0.6-0.7c-0.2-0.2-0.5-0.3-0.8-0.4s-0.7-0.1-1-0.1c-0.4,0-0.9,0-1.3,0.1
		c-0.4,0.1-0.9,0.2-1.3,0.3l-0.1-1.2c0.5-0.1,1-0.3,1.5-0.3c0.5-0.1,1.1-0.1,1.6-0.1s1,0.1,1.5,0.2c0.4,0.1,0.9,0.3,1.2,0.6
		c0.4,0.3,0.6,0.7,0.8,1.1c0.2,0.5,0.3,1.1,0.3,1.7c0,1-0.4,2-1.1,2.7c-0.3,0.3-0.7,0.5-1.2,0.7c-0.4,0.2-0.8,0.3-1.3,0.4v2.6v0.3
		h-1.2L627,97.8z M627.6,101.3c-0.2,0-0.5-0.1-0.7-0.3s-0.3-0.4-0.3-0.7s0.1-0.5,0.3-0.7s0.4-0.3,0.7-0.2c0.3,0,0.5,0.1,0.7,0.2
		c0.2,0.2,0.3,0.4,0.3,0.7c0,0.2-0.1,0.5-0.3,0.7C628.1,101.3,627.9,101.4,627.6,101.3L627.6,101.3z"/>
	<g>
		<rect x="330.6" y="240.4" class="st0" width="1" height="70.3"/>
		<polygon class="st0" points="326.1,306.6 331.1,315.3 336.1,306.6 		"/>
		<rect x="331.1" y="239.5" class="st0" width="206.7" height="1"/>
	</g>
	<rect x="368.5" y="350.8" class="st0" width="528.6" height="1"/>
	<polygon class="st0" points="375.7,346.3 367.1,351.3 375.7,356.3 	"/>
	<g>
		<rect x="999.2" y="139.4" class="st0" width="1" height="159.6"/>
		<polygon class="st0" points="994.7,297.6 999.7,306.3 1004.6,297.6 		"/>
	</g>
	<g>
		<g>
			<path class="st3" d="M256.9,76.6h1.7l3.3,9.2l0.9,2.6h0.1l0.9-2.6l3.3-9.2h1.7L263.9,90h-2.2L256.9,76.6z"/>
			<path class="st3" d="M271.4,90c-0.8,0-1.5-0.2-1.9-0.7c-0.4-0.4-0.7-1.1-0.7-1.9c0-0.9,0.3-1.6,0.9-2.1s1.5-0.8,2.8-0.9l2.3-0.2
				v-0.7c0-0.4,0-0.8-0.1-1.1s-0.2-0.5-0.4-0.7c-0.2-0.2-0.4-0.3-0.7-0.4c-0.3-0.1-0.7-0.1-1.2-0.1c-0.4,0-0.8,0-1.3,0.1
				c-0.5,0-1,0.1-1.5,0.2l-0.1-1.2c0.6-0.1,1.2-0.2,1.7-0.3s1-0.1,1.6-0.1c1.3,0,2.2,0.3,2.8,0.8s0.9,1.3,0.9,2.4V90h-1.3l-0.2-1.2
				h-0.1c-0.6,0.4-1.2,0.7-1.7,1S272,90,271.4,90z M272,88.8c0.4,0,0.9-0.1,1.4-0.3s1-0.5,1.5-0.8v-2.4l-1.9,0.2
				c-0.9,0.1-1.6,0.3-2,0.5c-0.4,0.3-0.6,0.7-0.6,1.4C270.4,88.3,271,88.8,272,88.8z"/>
			<path class="st3" d="M279.1,75.4h1.6V90h-1.6V75.4z"/>
			<path class="st3" d="M284.3,78.2c-0.6,0-1-0.3-1-1c0-0.6,0.3-1,1-1s1,0.3,1,1S284.9,78.2,284.3,78.2z M283.5,80.2h1.6V90h-1.6
				V80.2z"/>
			<path class="st3" d="M291.3,90.1c-1.3,0-2.3-0.4-3-1.2s-1-2.1-1-3.8c0-0.9,0.1-1.6,0.3-2.3c0.2-0.6,0.6-1.2,1-1.6s0.9-0.7,1.5-1
				c0.6-0.2,1.3-0.3,2-0.3c0.4,0,0.8,0,1.2,0.1c0.4,0,0.7,0.1,1.1,0.1v-4.8h1.6V90h-1.4l-0.1-1.2h-0.1
				C293.7,89.7,292.7,90.1,291.3,90.1z M291.7,88.9c0.4,0,0.7-0.1,1-0.2s0.6-0.2,0.9-0.4s0.5-0.4,0.6-0.7s0.2-0.6,0.2-0.9v-5.2
				c-0.3-0.1-0.7-0.1-1.1-0.1s-0.8-0.1-1.2-0.1c-1.1,0-1.8,0.3-2.4,0.9c-0.5,0.6-0.8,1.6-0.8,2.9c0,1.4,0.2,2.3,0.7,2.9
				C290,88.6,290.7,88.9,291.7,88.9z"/>
			<path class="st3" d="M300.6,90c-0.8,0-1.5-0.2-1.9-0.7c-0.4-0.4-0.7-1.1-0.7-1.9c0-0.9,0.3-1.6,0.9-2.1s1.5-0.8,2.8-0.9l2.3-0.2
				v-0.7c0-0.4,0-0.8-0.1-1.1s-0.2-0.5-0.4-0.7c-0.2-0.2-0.4-0.3-0.7-0.4c-0.3-0.1-0.7-0.1-1.2-0.1c-0.4,0-0.8,0-1.3,0.1
				c-0.5,0-1,0.1-1.5,0.2l-0.1-1.2c0.6-0.1,1.2-0.2,1.7-0.3s1-0.1,1.6-0.1c1.3,0,2.2,0.3,2.8,0.8s0.9,1.3,0.9,2.4V90h-1.3l-0.2-1.2
				h-0.1c-0.6,0.4-1.2,0.7-1.7,1S301.2,90,300.6,90z M301.2,88.8c0.4,0,0.9-0.1,1.4-0.3s1-0.5,1.5-0.8v-2.4l-1.9,0.2
				c-0.9,0.1-1.6,0.3-2,0.5c-0.4,0.3-0.6,0.7-0.6,1.4C299.6,88.3,300.1,88.8,301.2,88.8z"/>
			<path class="st3" d="M311.9,90.1c-0.9,0-1.6-0.2-2.1-0.7s-0.7-1.2-0.7-2.1v-5.7h-2v-1.4h2.1l0.2-2.4l1.2-0.2v2.6h2.9v1.4h-2.9V87
				c0,0.6,0.1,1.1,0.4,1.4s0.7,0.4,1.3,0.4c0.2,0,0.4,0,0.6,0s0.4-0.1,0.7-0.2v1.3c-0.3,0.1-0.6,0.1-0.9,0.2
				C312.5,90.1,312.2,90.1,311.9,90.1z"/>
			<path class="st3" d="M319.4,90.1c-1.5,0-2.6-0.4-3.4-1.2s-1.1-2-1.1-3.7s0.4-2.9,1.1-3.8c0.8-0.9,1.8-1.3,3.3-1.3
				c2.5,0,3.7,1.4,3.7,4.3c0,0.6,0,1-0.1,1.3h-6.4c0.1,1.1,0.3,1.9,0.8,2.4s1.3,0.7,2.3,0.7c0.5,0,0.9,0,1.5-0.1
				c0.5-0.1,1-0.2,1.5-0.4l0.1,1.2c-0.5,0.2-1,0.3-1.6,0.4C320.5,90,319.9,90.1,319.4,90.1z M319.2,81.3c-1.7,0-2.7,1.1-2.8,3.3h5.1
				c0-1.2-0.2-2-0.6-2.5C320.6,81.5,320,81.3,319.2,81.3z"/>
			<path class="st3" d="M332.7,90.1c-0.9,0-1.6-0.2-2.1-0.7s-0.7-1.2-0.7-2.1v-5.7h-2v-1.4h2.1l0.2-2.4l1.2-0.2v2.6h2.9v1.4h-2.9V87
				c0,0.6,0.1,1.1,0.4,1.4s0.7,0.4,1.3,0.4c0.2,0,0.4,0,0.6,0s0.4-0.1,0.7-0.2v1.3c-0.3,0.1-0.6,0.1-0.9,0.2
				C333.2,90.3,333,90.1,332.7,90.1z"/>
			<path class="st3" d="M336.2,75.4h1.6v5.9c0.9-0.4,1.7-0.8,2.3-1s1.2-0.3,1.8-0.3c0.8,0,1.5,0.2,1.9,0.7c0.4,0.4,0.7,1.1,0.7,2V90
				h-1.6v-6.7c0-0.7-0.1-1.1-0.4-1.4s-0.6-0.4-1.2-0.4c-0.5,0-1,0.1-1.6,0.3s-1.2,0.4-1.9,0.8V90h-1.6L336.2,75.4L336.2,75.4z"/>
			<path class="st3" d="M351.1,90.1c-1.5,0-2.6-0.4-3.4-1.2s-1.1-2-1.1-3.7s0.4-2.9,1.1-3.8c0.8-0.9,1.8-1.3,3.3-1.3
				c2.5,0,3.7,1.4,3.7,4.3c0,0.6,0,1-0.1,1.3h-6.4c0.1,1.1,0.3,1.9,0.8,2.4s1.3,0.7,2.3,0.7c0.5,0,0.9,0,1.5-0.1
				c0.5-0.1,1-0.2,1.5-0.4l0.1,1.2c-0.5,0.2-1,0.3-1.6,0.4C352.2,90,351.6,90.1,351.1,90.1z M350.9,81.3c-1.7,0-2.7,1.1-2.8,3.3h5.1
				c0-1.2-0.2-2-0.6-2.5C352.3,81.5,351.7,81.3,350.9,81.3z"/>
			<path class="st3" d="M363,90c-0.8,0-1.5-0.2-1.9-0.7c-0.4-0.4-0.7-1.1-0.7-1.9c0-0.9,0.3-1.6,0.9-2.1s1.5-0.8,2.8-0.9l2.3-0.2
				v-0.7c0-0.4,0-0.8-0.1-1.1s-0.2-0.5-0.4-0.7c-0.2-0.2-0.4-0.3-0.7-0.4c-0.3-0.1-0.7-0.1-1.2-0.1c-0.4,0-0.8,0-1.3,0.1
				c-0.5,0-1,0.1-1.5,0.2l-0.1-1.2c0.6-0.1,1.2-0.2,1.7-0.3s1-0.1,1.6-0.1c1.3,0,2.2,0.3,2.8,0.8s0.9,1.3,0.9,2.4V90h-1.3l-0.2-1.2
				h-0.1c-0.6,0.4-1.2,0.7-1.7,1S363.6,90,363,90z M363.6,88.8c0.4,0,0.9-0.1,1.4-0.3s1-0.5,1.5-0.8v-2.4l-1.9,0.2
				c-0.9,0.1-1.6,0.3-2,0.5c-0.4,0.3-0.6,0.7-0.6,1.4C362,88.3,362.5,88.8,363.6,88.8z"/>
			<path class="st3" d="M370.7,75.4h1.6V90h-1.6V75.4L370.7,75.4z"/>
			<path class="st3" d="M377,90c-0.8,0-1.5-0.2-1.9-0.7c-0.4-0.4-0.7-1.1-0.7-1.9c0-0.9,0.3-1.6,0.9-2.1s1.5-0.8,2.8-0.9l2.3-0.2
				v-0.7c0-0.4,0-0.8-0.1-1.1s-0.2-0.5-0.4-0.7c-0.2-0.2-0.4-0.3-0.7-0.4c-0.3-0.1-0.7-0.1-1.2-0.1c-0.4,0-0.8,0-1.3,0.1
				c-0.5,0-1,0.1-1.5,0.2l-0.1-1.2c0.6-0.1,1.2-0.2,1.7-0.3s1-0.1,1.6-0.1c1.3,0,2.2,0.3,2.8,0.8c0.6,0.5,0.9,1.3,0.9,2.4V90h-1.3
				l-0.2-1.2h-0.1c-0.6,0.4-1.2,0.7-1.7,1S377.6,90,377,90z M377.6,88.8c0.4,0,0.9-0.1,1.4-0.3s1-0.5,1.5-0.8v-2.4l-1.9,0.2
				c-0.9,0.1-1.6,0.3-2,0.5c-0.4,0.3-0.6,0.7-0.6,1.4C376,88.3,376.5,88.8,377.6,88.8z"/>
			<path class="st3" d="M384.7,80.2h1.3l0.1,1.3h0.1c0.7-0.4,1.3-0.7,1.9-1s1.1-0.4,1.6-0.5h0.5v1.5h-0.6c-0.5,0.1-1.1,0.2-1.7,0.4
				s-1.1,0.5-1.6,0.7V90h-1.6L384.7,80.2L384.7,80.2z"/>
			<path class="st3" d="M391.7,80.2h1.3l0.1,1.1h0.1c0.8-0.5,1.4-0.8,2-1s1.1-0.3,1.6-0.3c1.2,0,1.9,0.4,2.3,1.3h0.1
				c0.8-0.5,1.4-0.8,2-1s1.1-0.3,1.6-0.3c0.8,0,1.5,0.2,1.9,0.7c0.4,0.4,0.7,1.1,0.7,2V90h-1.6v-6.7c0-0.7-0.1-1.1-0.4-1.4
				s-0.7-0.4-1.2-0.4c-0.4,0-0.8,0.1-1.3,0.3s-1,0.4-1.5,0.7V90h-1.6v-6.7c0-0.7-0.1-1.1-0.4-1.4s-0.7-0.4-1.2-0.4
				c-0.4,0-0.8,0.1-1.3,0.3s-1,0.4-1.5,0.8V90h-1.6v-9.8H391.7L391.7,80.2z"/>
			<path class="st3" d="M301.1,102v-0.2h1.6l2.5,7l0.4,1.5h0.2l0.4-1.5l2.5-7h1.6v0.2l-3.7,9.5h-2.1L301.1,102z"/>
			<path class="st3" d="M312.9,99.8c-0.6,0-1-0.3-1-1c0-0.6,0.3-1,1-1s1,0.3,1,1S313.6,99.8,312.9,99.8z M312.2,101.8h1.6v9.7h-1.6
				V101.8z"/>
			<path class="st3" d="M319.2,111.8c-0.4,0-0.9,0-1.4-0.1s-1.1-0.2-1.9-0.3V110c0.6,0.1,1.2,0.3,1.7,0.4s1,0.1,1.5,0.1
				c0.7,0,1.3-0.1,1.6-0.4c0.4-0.3,0.5-0.7,0.5-1.2c0-0.3,0-0.5-0.1-0.7s-0.2-0.3-0.4-0.5c-0.2-0.1-0.4-0.2-0.6-0.3
				s-0.5-0.1-0.8-0.2c-0.4-0.1-0.8-0.2-1.1-0.2c-0.4-0.1-0.7-0.2-1-0.4s-0.6-0.5-0.8-0.8c-0.2-0.3-0.3-0.8-0.3-1.4
				c0-0.9,0.3-1.6,0.9-2.1s1.5-0.7,2.6-0.7c0.2,0,0.4,0,0.6,0s0.4,0,0.6,0.1c0.2,0,0.5,0.1,0.7,0.1s0.6,0.1,0.9,0.2l-0.1,1.3
				c-0.6-0.1-1.1-0.2-1.5-0.3s-0.8-0.1-1.1-0.1c-1.5,0-2.2,0.5-2.2,1.5c0,0.3,0.1,0.5,0.2,0.7s0.3,0.3,0.5,0.5
				c0.2,0.1,0.4,0.2,0.7,0.3c0.3,0.1,0.6,0.1,0.9,0.2c0.4,0.1,0.8,0.2,1.2,0.3c0.4,0.1,0.7,0.3,1,0.5s0.5,0.5,0.6,0.8
				s0.2,0.7,0.2,1.2c0,0.9-0.3,1.6-0.9,2.1C321.3,111.5,320.4,111.8,319.2,111.8z"/>
			<path class="st3" d="M327.3,111.7c-1.6,0-2.5-0.9-2.5-2.7v-7.2h1.6v6.7c0,0.6,0.1,1.1,0.3,1.4c0.2,0.3,0.6,0.4,1.2,0.4
				s1.2-0.1,1.8-0.4c0.6-0.2,1.2-0.5,1.8-0.8v-7.4h1.6v9.7h-1.3l-0.1-1.2h-0.1c-0.5,0.2-0.9,0.4-1.3,0.6s-0.7,0.3-1,0.4
				s-0.6,0.2-0.9,0.2C328,111.7,327.7,111.7,327.3,111.7z"/>
			<path class="st3" d="M337.8,111.6c-0.8,0-1.5-0.2-1.9-0.7c-0.4-0.4-0.7-1.1-0.7-1.9c0-0.9,0.3-1.7,0.9-2.1
				c0.6-0.5,1.5-0.8,2.8-0.9l2.3-0.2v-0.7c0-0.4,0-0.8-0.1-1.1s-0.2-0.5-0.4-0.7c-0.2-0.2-0.4-0.3-0.7-0.4c-0.3-0.1-0.7-0.1-1.2-0.1
				c-0.4,0-0.8,0-1.3,0.1c-0.5,0-1,0.1-1.5,0.2l-0.1-1.2c0.6-0.1,1.2-0.2,1.7-0.3s1-0.1,1.6-0.1c1.3,0,2.2,0.3,2.8,0.8
				s0.9,1.3,0.9,2.4v6.6h-1.3l-0.2-1.2h-0.1c-0.6,0.4-1.2,0.7-1.7,1C338.9,111.5,338.3,111.6,337.8,111.6z M338.3,110.4
				c0.4,0,0.9-0.1,1.4-0.3s1-0.5,1.5-0.8v-2.4l-1.9,0.2c-0.9,0.1-1.6,0.3-2,0.5c-0.4,0.3-0.6,0.7-0.6,1.4
				C336.8,109.9,337.3,110.4,338.3,110.4z"/>
			<path class="st3" d="M345.5,97h1.6v14.5h-1.6V97z"/>
			<path class="st3" d="M349.8,97h1.6v14.5h-1.6V97z"/>
			<path class="st3" d="M355.6,115.2V115l1.5-3.6l-4-9.5v-0.2h1.7l2.6,6.6l0.4,1.4h0.1l0.4-1.4l2.7-6.6h1.6v0.2l-5.7,13.5
				L355.6,115.2z"/>
		</g>
	</g>
	<rect x="896.2" y="306.3" class="st1" width="207" height="90"/>
	<path class="st0" d="M1102.2,307.3v88h-205v-88H1102.2 M1103.2,306.3h-207v90h207V306.3z"/>
	<g>
		<g>
			<path class="st5" d="M954.6,91.3c-0.6,0-1.2,0-1.9-0.1s-1.4-0.2-2-0.4v-1.5c0.7,0.2,1.3,0.3,2,0.4c0.7,0.1,1.3,0.1,1.8,0.1
				c1.8,0,2.7-0.6,2.7-1.8c0-0.3-0.1-0.6-0.2-0.8c-0.1-0.2-0.3-0.4-0.5-0.6s-0.5-0.3-0.8-0.4c-0.3-0.1-0.7-0.2-1-0.3
				c-0.6-0.2-1.2-0.3-1.6-0.5c-0.5-0.2-0.8-0.4-1.1-0.7c-0.3-0.3-0.5-0.6-0.7-1c-0.1-0.4-0.2-0.8-0.2-1.3c0-0.5,0.1-1,0.3-1.4
				c0.2-0.4,0.5-0.8,0.8-1s0.8-0.5,1.3-0.7c0.5-0.2,1.1-0.2,1.8-0.2c0.5,0,1,0,1.5,0.1c0.5,0.1,1.1,0.2,1.8,0.3V81
				c-0.5-0.1-1-0.2-1.6-0.3c-0.6-0.1-1.1-0.1-1.5-0.1c-0.8,0-1.4,0.2-1.9,0.5c-0.4,0.3-0.7,0.8-0.7,1.3c0,0.5,0.2,1,0.6,1.3
				c0.4,0.3,1.1,0.6,2,0.8c0.6,0.1,1.1,0.3,1.5,0.5s0.8,0.4,1.2,0.7c0.3,0.3,0.6,0.6,0.7,1c0.2,0.4,0.3,0.8,0.3,1.4
				c0,1.1-0.4,1.9-1.1,2.5C957.1,91,956,91.3,954.6,91.3z"/>
			<path class="st5" d="M964.4,91.2c-1.4,0-2.4-0.4-3.1-1.1c-0.7-0.7-1-1.8-1-3.3c0-1.5,0.3-2.6,1-3.4c0.7-0.8,1.7-1.2,3-1.2
				c2.3,0,3.5,1.3,3.5,3.9c0,0.5,0,0.9-0.1,1.2h-5.6c0.1,0.9,0.3,1.5,0.7,1.9c0.4,0.4,1,0.6,1.9,0.6c0.4,0,0.9,0,1.4-0.1
				s1-0.2,1.4-0.3l0.1,1.3c-0.4,0.2-0.9,0.3-1.5,0.4C965.5,91.2,964.9,91.2,964.4,91.2z M964.3,83.6c-0.7,0-1.2,0.2-1.6,0.6
				s-0.6,1.1-0.6,2h4.1c0-0.9-0.2-1.6-0.5-2C965.4,83.8,964.9,83.6,964.3,83.6z"/>
			<path class="st5" d="M969.6,82.5h1.5l0.1,1h0.1c0.8-0.4,1.5-0.7,2.1-0.9c0.6-0.2,1.1-0.3,1.6-0.3c0.7,0,1.3,0.2,1.7,0.6
				c0.4,0.4,0.6,1,0.6,1.8v6.4h-1.8v-5.8c0-0.5-0.1-0.9-0.3-1.2c-0.2-0.2-0.5-0.4-1-0.4c-0.4,0-0.8,0.1-1.3,0.2s-1,0.4-1.6,0.6v6.5
				h-1.8V82.5z"/>
			<path class="st5" d="M982.7,91.3c-1.2,0-2.1-0.4-2.7-1.1c-0.6-0.7-0.9-1.8-0.9-3.3c0-0.8,0.1-1.4,0.3-2c0.2-0.6,0.5-1.1,0.9-1.4
				c0.4-0.4,0.9-0.7,1.4-0.9c0.5-0.2,1.2-0.3,1.8-0.3c0.3,0,0.7,0,1,0c0.3,0,0.6,0.1,0.9,0.1v-4.3h1.8v12.9h-1.6l-0.1-1.1h-0.1
				C984.8,90.9,983.9,91.3,982.7,91.3z M983.2,89.9c0.3,0,0.6,0,0.9-0.1c0.3-0.1,0.5-0.2,0.7-0.4c0.2-0.2,0.4-0.4,0.5-0.6
				c0.1-0.2,0.2-0.5,0.2-0.8v-4.2c-0.3-0.1-0.6-0.1-0.9-0.1c-0.3,0-0.7,0-1,0c-0.9,0-1.5,0.2-2,0.7s-0.6,1.3-0.6,2.5
				c0,1.1,0.2,1.9,0.5,2.4C981.8,89.6,982.4,89.9,983.2,89.9z"/>
			<path class="st5" d="M995,91.2c-0.8,0-1.4-0.2-1.8-0.6c-0.4-0.4-0.6-1-0.6-1.7c0-0.8,0.3-1.5,0.8-1.9c0.5-0.4,1.4-0.7,2.5-0.8
				l2-0.2v-0.5c0-0.4,0-0.6-0.1-0.9c-0.1-0.2-0.2-0.4-0.3-0.6s-0.4-0.2-0.6-0.3s-0.6-0.1-1-0.1c-0.4,0-0.8,0-1.2,0.1
				s-0.9,0.1-1.4,0.2l-0.1-1.3c1.1-0.2,2.1-0.3,3.1-0.3c1.2,0,2.1,0.2,2.6,0.7s0.9,1.2,0.9,2.2v5.9h-1.5l-0.2-1.1h-0.1
				c-0.5,0.4-1,0.7-1.5,0.9S995.5,91.2,995,91.2z M995.6,89.9c0.4,0,0.7-0.1,1.1-0.2c0.4-0.2,0.8-0.4,1.1-0.6v-2l-1.5,0.1
				c-0.7,0.1-1.3,0.2-1.6,0.4c-0.3,0.2-0.4,0.6-0.4,1.1C994.4,89.5,994.8,89.9,995.6,89.9z"/>
			<path class="st5" d="M1001.9,82.5h1.5l0.1,1h0.1c0.8-0.4,1.5-0.7,2.1-0.9c0.6-0.2,1.1-0.3,1.6-0.3c0.7,0,1.3,0.2,1.7,0.6
				s0.6,1,0.6,1.8v6.4h-1.8v-5.8c0-0.5-0.1-0.9-0.3-1.2c-0.2-0.2-0.5-0.4-1-0.4c-0.4,0-0.8,0.1-1.3,0.2s-1,0.4-1.6,0.6v6.5h-1.8
				V82.5z"/>
			<path class="st5" d="M1017.3,91.2c-0.8,0-1.4-0.2-1.8-0.6s-0.6-1-0.6-1.7c0-0.8,0.3-1.5,0.8-1.9s1.4-0.7,2.5-0.8l2-0.2v-0.5
				c0-0.4,0-0.6-0.1-0.9c-0.1-0.2-0.2-0.4-0.3-0.6s-0.4-0.2-0.6-0.3s-0.6-0.1-1-0.1c-0.4,0-0.8,0-1.2,0.1c-0.4,0-0.9,0.1-1.4,0.2
				l-0.1-1.3c1.1-0.2,2.1-0.3,3.1-0.3c1.2,0,2.1,0.2,2.6,0.7c0.6,0.5,0.9,1.2,0.9,2.2v5.9h-1.5l-0.2-1.1h-0.1
				c-0.5,0.4-1,0.7-1.5,0.9S1017.8,91.2,1017.3,91.2z M1018,89.9c0.4,0,0.7-0.1,1.1-0.2c0.4-0.2,0.8-0.4,1.1-0.6v-2l-1.5,0.1
				c-0.7,0.1-1.3,0.2-1.6,0.4c-0.3,0.2-0.4,0.6-0.4,1.1C1016.8,89.5,1017.2,89.9,1018,89.9z"/>
			<path class="st5" d="M1024.3,78.2h1.8v12.9h-1.8V78.2z"/>
			<path class="st5" d="M1032.1,91.2c-1.4,0-2.4-0.4-3.1-1.1c-0.7-0.7-1-1.8-1-3.3c0-1.5,0.3-2.6,1-3.4c0.7-0.8,1.7-1.2,3-1.2
				c2.3,0,3.5,1.3,3.5,3.9c0,0.5,0,0.9-0.1,1.2h-5.6c0.1,0.9,0.3,1.5,0.7,1.9c0.4,0.4,1,0.6,1.9,0.6c0.4,0,0.9,0,1.4-0.1
				c0.5-0.1,1-0.2,1.4-0.3l0.1,1.3c-0.4,0.2-0.9,0.3-1.5,0.4C1033.2,91.2,1032.7,91.2,1032.1,91.2z M1032,83.6
				c-0.7,0-1.2,0.2-1.6,0.6s-0.6,1.1-0.6,2h4.1c0-0.9-0.2-1.6-0.5-2C1033.1,83.8,1032.7,83.6,1032,83.6z"/>
			<path class="st5" d="M1037.3,82.5h1.5l0.1,1.2h0.1c0.5-0.3,1.1-0.6,1.6-0.9c0.5-0.2,1-0.4,1.4-0.5h0.6v1.6h-0.6
				c-0.5,0.1-1,0.2-1.4,0.4c-0.5,0.2-0.9,0.4-1.4,0.6v6.2h-1.8V82.5z"/>
			<path class="st5" d="M1047.4,91.3c-0.9,0-1.5-0.2-2-0.6c-0.4-0.4-0.7-1.1-0.7-1.9V84h-1.7v-1.5h1.8l0.3-2.3l1.4-0.2v2.4h2.4V84
				h-2.4v4.3c0,0.5,0.1,0.9,0.3,1.1c0.2,0.2,0.6,0.4,1.1,0.4c0.1,0,0.3,0,0.5,0c0.2,0,0.4-0.1,0.6-0.1v1.4c-0.2,0.1-0.5,0.1-0.8,0.2
				C1047.9,91.2,1047.7,91.3,1047.4,91.3z"/>
			<path class="st5" d="M941.8,110.5c-0.9,0-1.5-0.2-2-0.6c-0.4-0.4-0.7-1.1-0.7-1.9v-4.7h-1.7v-1.5h1.8l0.3-2.3l1.4-0.2v2.4h2.4
				v1.5h-2.4v4.3c0,0.5,0.1,0.9,0.3,1.1c0.2,0.2,0.6,0.4,1.1,0.4c0.1,0,0.3,0,0.5,0s0.4-0.1,0.6-0.1v1.4c-0.2,0.1-0.5,0.1-0.8,0.2
				C942.3,110.4,942.1,110.5,941.8,110.5z"/>
			<path class="st5" d="M948.6,110.5c-1.4,0-2.4-0.4-3.1-1.1c-0.7-0.8-1.1-1.9-1.1-3.3c0-1.5,0.4-2.6,1.1-3.3
				c0.7-0.8,1.8-1.1,3.1-1.1s2.4,0.4,3.1,1.1s1.1,1.9,1.1,3.3c0,1.5-0.4,2.6-1.1,3.3C951,110.1,950,110.5,948.6,110.5z M948.6,109
				c0.8,0,1.4-0.2,1.8-0.7s0.6-1.3,0.6-2.3s-0.2-1.9-0.6-2.3s-1-0.7-1.8-0.7s-1.4,0.2-1.8,0.7s-0.6,1.3-0.6,2.3s0.2,1.9,0.6,2.3
				S947.8,109,948.6,109z"/>
			<path class="st5" d="M960.9,110.5c-0.4,0-0.9,0-1.4-0.1c-0.5-0.1-1.1-0.2-1.7-0.3v-1.4c0.6,0.1,1.1,0.2,1.6,0.3
				c0.5,0.1,1,0.1,1.4,0.1c1.2,0,1.8-0.4,1.8-1.2c0-0.4-0.2-0.7-0.5-0.9c-0.3-0.2-0.7-0.3-1.2-0.4c-0.3-0.1-0.7-0.1-1-0.2
				c-0.4-0.1-0.7-0.2-1-0.4c-0.3-0.2-0.5-0.4-0.7-0.7c-0.2-0.3-0.3-0.7-0.3-1.3c0-0.8,0.3-1.4,0.9-1.9c0.6-0.5,1.4-0.7,2.5-0.7
				c0.2,0,0.4,0,0.6,0c0.2,0,0.4,0,0.6,0.1c0.2,0,0.4,0.1,0.7,0.1c0.2,0,0.5,0.1,0.9,0.2l-0.1,1.4c-0.6-0.1-1-0.2-1.4-0.3
				s-0.8-0.1-1.1-0.1c-0.6,0-1,0.1-1.3,0.3c-0.3,0.2-0.4,0.5-0.4,0.9c0,0.2,0,0.4,0.1,0.6c0.1,0.1,0.2,0.3,0.4,0.4
				c0.2,0.1,0.4,0.2,0.6,0.2c0.2,0.1,0.5,0.1,0.8,0.2c0.4,0.1,0.8,0.2,1.1,0.3s0.6,0.3,0.9,0.5c0.2,0.2,0.4,0.4,0.6,0.7
				s0.2,0.7,0.2,1.1c0,0.8-0.3,1.5-0.9,1.9C962.9,110.2,962.1,110.5,960.9,110.5z"/>
			<path class="st5" d="M969.9,110.4c-1.4,0-2.4-0.4-3.1-1.1c-0.7-0.7-1-1.8-1-3.3c0-1.5,0.3-2.6,1-3.4c0.7-0.8,1.7-1.2,3-1.2
				c2.3,0,3.5,1.3,3.5,3.9c0,0.5,0,0.9-0.1,1.2h-5.6c0.1,0.9,0.3,1.5,0.7,1.9s1,0.6,1.9,0.6c0.4,0,0.9,0,1.4-0.1
				c0.5-0.1,1-0.2,1.4-0.3l0.1,1.3c-0.4,0.2-0.9,0.3-1.5,0.4C970.9,110.4,970.4,110.4,969.9,110.4z M969.7,102.8
				c-0.7,0-1.2,0.2-1.6,0.6c-0.4,0.4-0.6,1.1-0.6,2h4.1c0-0.9-0.2-1.6-0.5-2C970.9,103,970.4,102.8,969.7,102.8z"/>
			<path class="st5" d="M978.9,110.4c-2.8,0-4.2-1.5-4.2-4.4c0-3,1.4-4.5,4.2-4.5c0.4,0,0.7,0,1.1,0.1c0.4,0,0.8,0.1,1.1,0.2v1.5
				c-0.3-0.1-0.7-0.1-1-0.2c-0.3,0-0.7-0.1-1-0.1c-0.9,0-1.6,0.2-2,0.7c-0.4,0.5-0.6,1.2-0.6,2.3c0,1,0.2,1.8,0.6,2.3s1.1,0.7,2,0.7
				c0.4,0,0.7,0,1.1,0c0.3,0,0.6-0.1,1-0.2v1.4c-0.3,0.1-0.6,0.1-1,0.2C979.6,110.4,979.2,110.4,978.9,110.4z"/>
			<path class="st5" d="M985.1,110.5c-0.8,0-1.3-0.2-1.7-0.6s-0.6-1-0.6-1.8v-6.4h1.8v5.9c0,0.5,0.1,0.9,0.3,1.1
				c0.2,0.2,0.5,0.3,1,0.3c0.5,0,0.9-0.1,1.4-0.3s1-0.4,1.5-0.6v-6.4h1.8v8.6H989l-0.1-1h-0.1c-0.4,0.2-0.8,0.4-1.1,0.5
				s-0.6,0.3-0.9,0.4s-0.6,0.2-0.8,0.2C985.7,110.4,985.4,110.5,985.1,110.5z"/>
			<path class="st5" d="M992.8,101.7h1.5l0.1,1.2h0.1c0.5-0.3,1.1-0.6,1.6-0.9s1-0.4,1.4-0.5h0.6v1.6h-0.6c-0.5,0.1-1,0.2-1.4,0.4
				s-0.9,0.4-1.4,0.6v6.2h-1.8V101.7z"/>
			<path class="st5" d="M1000.3,100c-0.4,0-0.6-0.1-0.8-0.2c-0.2-0.2-0.2-0.4-0.2-0.8c0-0.4,0.1-0.6,0.2-0.8
				c0.2-0.2,0.4-0.2,0.8-0.2s0.6,0.1,0.8,0.3c0.2,0.2,0.2,0.4,0.2,0.8s-0.1,0.6-0.2,0.8C1000.9,99.9,1000.7,100,1000.3,100z
				 M999.4,101.7h1.8v8.6h-1.8V101.7z"/>
			<path class="st5" d="M1007,110.5c-0.9,0-1.5-0.2-2-0.6c-0.4-0.4-0.7-1.1-0.7-1.9v-4.7h-1.7v-1.5h1.8l0.3-2.3l1.4-0.2v2.4h2.4v1.5
				h-2.4v4.3c0,0.5,0.1,0.9,0.3,1.1c0.2,0.2,0.6,0.4,1.1,0.4c0.1,0,0.3,0,0.5,0c0.2,0,0.4-0.1,0.6-0.1v1.4c-0.2,0.1-0.5,0.1-0.8,0.2
				C1007.5,110.4,1007.2,110.5,1007,110.5z"/>
			<path class="st5" d="M1011.4,113.5l0-0.2l1.3-3.2l-3.6-8.4v-0.2h1.9l2.1,5.4l0.4,1.3h0.1l0.4-1.3l2.1-5.4h1.9v0.2l-5,12
				L1011.4,113.5z"/>
			<path class="st5" d="M1025.7,110.5c-0.4,0-0.9,0-1.4-0.1c-0.5-0.1-1.1-0.2-1.7-0.3v-1.4c0.6,0.1,1.1,0.2,1.6,0.3s1,0.1,1.4,0.1
				c1.2,0,1.8-0.4,1.8-1.2c0-0.4-0.2-0.7-0.5-0.9c-0.3-0.2-0.7-0.3-1.2-0.4c-0.3-0.1-0.7-0.1-1-0.2c-0.4-0.1-0.7-0.2-1-0.4
				c-0.3-0.2-0.5-0.4-0.7-0.7c-0.2-0.3-0.3-0.7-0.3-1.3c0-0.8,0.3-1.4,0.9-1.9c0.6-0.5,1.4-0.7,2.5-0.7c0.2,0,0.4,0,0.6,0
				c0.2,0,0.4,0,0.6,0.1c0.2,0,0.4,0.1,0.7,0.1s0.5,0.1,0.9,0.2l-0.1,1.4c-0.6-0.1-1-0.2-1.4-0.3c-0.4-0.1-0.8-0.1-1.1-0.1
				c-0.6,0-1,0.1-1.3,0.3s-0.4,0.5-0.4,0.9c0,0.2,0,0.4,0.1,0.6c0.1,0.1,0.2,0.3,0.4,0.4c0.2,0.1,0.4,0.2,0.6,0.2
				c0.2,0.1,0.5,0.1,0.8,0.2c0.4,0.1,0.8,0.2,1.1,0.3c0.3,0.1,0.6,0.3,0.9,0.5c0.2,0.2,0.4,0.4,0.6,0.7s0.2,0.7,0.2,1.1
				c0,0.8-0.3,1.5-0.9,1.9C1027.7,110.2,1026.8,110.5,1025.7,110.5z"/>
			<path class="st5" d="M1034.4,110.5c-0.9,0-1.5-0.2-2-0.6c-0.4-0.4-0.7-1.1-0.7-1.9v-4.7h-1.7v-1.5h1.8l0.3-2.3l1.4-0.2v2.4h2.4
				v1.5h-2.4v4.3c0,0.5,0.1,0.9,0.3,1.1c0.2,0.2,0.6,0.4,1.1,0.4c0.1,0,0.3,0,0.5,0c0.2,0,0.4-0.1,0.6-0.1v1.4
				c-0.2,0.1-0.5,0.1-0.8,0.2C1034.9,110.4,1034.7,110.5,1034.4,110.5z"/>
			<path class="st5" d="M1039.3,110.4c-0.8,0-1.4-0.2-1.8-0.6c-0.4-0.4-0.6-1-0.6-1.7c0-0.8,0.3-1.5,0.8-1.9s1.4-0.7,2.5-0.8l2-0.2
				v-0.5c0-0.4,0-0.6-0.1-0.9s-0.2-0.4-0.3-0.6c-0.2-0.1-0.4-0.2-0.6-0.3s-0.6-0.1-1-0.1c-0.4,0-0.8,0-1.2,0.1
				c-0.4,0-0.9,0.1-1.4,0.2l-0.1-1.3c1.1-0.2,2.1-0.3,3.1-0.3c1.2,0,2.1,0.2,2.6,0.7c0.6,0.5,0.9,1.2,0.9,2.2v5.9h-1.5l-0.2-1.1
				h-0.1c-0.5,0.4-1,0.7-1.5,0.9S1039.8,110.4,1039.3,110.4z M1040,109.1c0.4,0,0.7-0.1,1.1-0.2s0.8-0.4,1.1-0.6v-2l-1.5,0.1
				c-0.7,0.1-1.3,0.2-1.6,0.4s-0.4,0.6-0.4,1.1C1038.8,108.7,1039.2,109.1,1040,109.1z"/>
			<path class="st5" d="M1047.3,103.2h-1.9v-1.5h1.9v-0.4c0-0.8,0.1-1.4,0.2-1.9c0.1-0.5,0.4-0.9,0.7-1.2s0.8-0.5,1.3-0.6
				c0.6-0.1,1.3-0.2,2.1-0.2l0.1,1.3c-0.5,0-1,0.1-1.3,0.2s-0.6,0.2-0.8,0.4c-0.2,0.2-0.3,0.4-0.4,0.7s-0.1,0.7-0.1,1.1v0.7h2.3v1.5
				h-2.3v7.1h-1.8V103.2z M1053.7,103.2h-1.9v-1.5h1.9v-0.4c0-0.8,0.1-1.4,0.2-1.9c0.1-0.5,0.4-0.9,0.7-1.2s0.8-0.5,1.3-0.6
				c0.6-0.1,1.3-0.2,2.1-0.2l0.1,1.3c-0.5,0-1,0.1-1.3,0.2s-0.6,0.2-0.8,0.4c-0.2,0.2-0.3,0.4-0.4,0.7s-0.1,0.7-0.1,1.1v0.7h2.3v1.5
				h-2.3v7.1h-1.8V103.2z"/>
			<path class="st5" d="M1060.1,110.3c-0.3,0-0.5-0.1-0.7-0.2c-0.2-0.2-0.3-0.4-0.3-0.7c0-0.3,0.1-0.5,0.3-0.7
				c0.2-0.2,0.4-0.2,0.7-0.2s0.6,0.1,0.7,0.3c0.2,0.2,0.3,0.4,0.3,0.7s-0.1,0.5-0.3,0.7C1060.7,110.2,1060.4,110.3,1060.1,110.3z
				 M1059.6,106.9l-0.3-8.3v-0.2h1.8v0.2l-0.3,8.3v0.2h-1.1V106.9z"/>
		</g>
	</g>
	<g>
		<g>
			<path class="st5" d="M936,347.1c-0.6,0-1.2,0-1.9-0.1s-1.4-0.2-2-0.4v-1.5c0.7,0.2,1.3,0.3,2,0.4c0.7,0.1,1.3,0.1,1.8,0.1
				c1.8,0,2.7-0.6,2.7-1.8c0-0.3-0.1-0.6-0.2-0.8c-0.1-0.2-0.3-0.4-0.5-0.6s-0.5-0.3-0.8-0.4s-0.7-0.2-1-0.3
				c-0.6-0.2-1.2-0.3-1.6-0.5c-0.5-0.2-0.8-0.4-1.1-0.7c-0.3-0.3-0.5-0.6-0.7-1c-0.1-0.4-0.2-0.8-0.2-1.3c0-0.5,0.1-1,0.3-1.4
				c0.2-0.4,0.5-0.8,0.8-1c0.4-0.3,0.8-0.5,1.3-0.7c0.5-0.2,1.1-0.2,1.8-0.2c0.5,0,1,0,1.5,0.1c0.5,0.1,1.1,0.2,1.8,0.3v1.5
				c-0.5-0.1-1-0.2-1.6-0.3c-0.6-0.1-1.1-0.1-1.5-0.1c-0.8,0-1.4,0.2-1.9,0.5c-0.4,0.3-0.7,0.8-0.7,1.3c0,0.5,0.2,1,0.6,1.3
				c0.4,0.3,1.1,0.6,2,0.8c0.6,0.1,1.1,0.3,1.5,0.5c0.4,0.2,0.8,0.4,1.2,0.7c0.3,0.3,0.6,0.6,0.7,1c0.2,0.4,0.3,0.8,0.3,1.4
				c0,1.1-0.4,1.9-1.1,2.5S937.5,347.1,936,347.1z"/>
			<path class="st5" d="M945.9,347c-1.4,0-2.4-0.4-3.1-1.1c-0.7-0.7-1-1.8-1-3.3c0-1.5,0.3-2.6,1-3.4c0.7-0.8,1.7-1.2,3-1.2
				c2.3,0,3.5,1.3,3.5,3.9c0,0.5,0,0.9-0.1,1.2h-5.6c0.1,0.9,0.3,1.5,0.7,1.9c0.4,0.4,1,0.6,1.9,0.6c0.4,0,0.9,0,1.4-0.1
				c0.5-0.1,1-0.2,1.4-0.3l0.1,1.3c-0.4,0.2-0.9,0.3-1.5,0.4C946.9,347,946.4,347,945.9,347z M945.7,339.4c-0.7,0-1.2,0.2-1.6,0.6
				c-0.4,0.4-0.6,1.1-0.6,2h4.1c0-0.9-0.2-1.6-0.5-2C946.9,339.6,946.4,339.4,945.7,339.4z"/>
			<path class="st5" d="M951.1,338.3h1.5l0.1,1h0.1c0.8-0.4,1.5-0.7,2.1-0.9c0.6-0.2,1.1-0.3,1.6-0.3c0.7,0,1.3,0.2,1.7,0.6
				c0.4,0.4,0.6,1,0.6,1.8v6.4H957v-5.8c0-0.5-0.1-0.9-0.3-1.2c-0.2-0.2-0.5-0.4-1-0.4c-0.4,0-0.8,0.1-1.3,0.2
				c-0.5,0.2-1,0.4-1.6,0.6v6.5h-1.8V338.3z"/>
			<path class="st5" d="M964.2,347.1c-1.2,0-2.1-0.4-2.7-1.1c-0.6-0.7-0.9-1.8-0.9-3.3c0-0.8,0.1-1.4,0.3-2s0.5-1.1,0.9-1.4
				c0.4-0.4,0.9-0.7,1.4-0.9s1.2-0.3,1.8-0.3c0.3,0,0.7,0,1,0c0.3,0,0.6,0.1,0.9,0.1V334h1.8v12.9h-1.6l-0.1-1.1h-0.1
				C966.3,346.7,965.4,347.1,964.2,347.1z M964.6,345.7c0.3,0,0.6,0,0.9-0.1c0.3-0.1,0.5-0.2,0.7-0.4c0.2-0.2,0.4-0.4,0.5-0.6
				c0.1-0.2,0.2-0.5,0.2-0.8v-4.2c-0.3-0.1-0.6-0.1-0.9-0.1c-0.3,0-0.7,0-1,0c-0.9,0-1.5,0.2-2,0.7s-0.6,1.3-0.6,2.5
				c0,1.1,0.2,1.9,0.5,2.4S963.8,345.7,964.6,345.7z"/>
			<path class="st5" d="M976.4,347c-0.8,0-1.4-0.2-1.8-0.6c-0.4-0.4-0.6-1-0.6-1.7c0-0.8,0.3-1.5,0.8-1.9c0.5-0.4,1.4-0.7,2.5-0.8
				l2-0.2v-0.5c0-0.4,0-0.6-0.1-0.9c-0.1-0.2-0.2-0.4-0.3-0.6c-0.2-0.1-0.4-0.2-0.6-0.3s-0.6-0.1-1-0.1c-0.4,0-0.8,0-1.2,0.1
				s-0.9,0.1-1.4,0.2l-0.1-1.3c1.1-0.2,2.1-0.3,3.1-0.3c1.2,0,2.1,0.2,2.6,0.7s0.9,1.2,0.9,2.2v5.9h-1.5l-0.2-1.1h-0.1
				c-0.5,0.4-1,0.7-1.5,0.9S976.9,347,976.4,347z M977.1,345.7c0.4,0,0.7-0.1,1.1-0.2c0.4-0.2,0.8-0.4,1.1-0.6v-2l-1.5,0.1
				c-0.7,0.1-1.3,0.2-1.6,0.4c-0.3,0.2-0.4,0.6-0.4,1.1C975.8,345.3,976.3,345.7,977.1,345.7z"/>
			<path class="st5" d="M986.2,338.4L986.2,338.4l1.7-0.1l1.4,5.7l0.3,1.2h0.1l0.3-1.2l1.6-5.7h1.6l1.6,5.7l0.3,1.2h0.1l0.3-1.2
				l1.3-5.7h1.7v0.1l-2.3,8.5h-2l-1.6-5.4l-0.2-1.1h-0.1l-0.2,1.1l-1.5,5.4h-2L986.2,338.4z"/>
			<path class="st5" d="M1001.8,347c-0.8,0-1.4-0.2-1.8-0.6c-0.4-0.4-0.6-1-0.6-1.7c0-0.8,0.3-1.5,0.8-1.9c0.5-0.4,1.4-0.7,2.5-0.8
				l2-0.2v-0.5c0-0.4,0-0.6-0.1-0.9c-0.1-0.2-0.2-0.4-0.3-0.6c-0.2-0.1-0.4-0.2-0.6-0.3s-0.6-0.1-1-0.1c-0.4,0-0.8,0-1.2,0.1
				c-0.4,0-0.9,0.1-1.4,0.2l-0.1-1.3c1.1-0.2,2.1-0.3,3.1-0.3c1.2,0,2.1,0.2,2.6,0.7c0.6,0.5,0.9,1.2,0.9,2.2v5.9h-1.5l-0.2-1.1
				h-0.1c-0.5,0.4-1,0.7-1.5,0.9S1002.3,347,1001.8,347z M1002.5,345.7c0.4,0,0.7-0.1,1.1-0.2s0.8-0.4,1.1-0.6v-2l-1.5,0.1
				c-0.7,0.1-1.3,0.2-1.6,0.4c-0.3,0.2-0.4,0.6-0.4,1.1C1001.3,345.3,1001.7,345.7,1002.5,345.7z"/>
			<path class="st5" d="M1008.8,338.3h1.5l0.1,1.2h0.1c0.5-0.3,1.1-0.6,1.6-0.9c0.5-0.2,1-0.4,1.4-0.5h0.6v1.6h-0.6
				c-0.5,0.1-1,0.2-1.4,0.4c-0.5,0.2-0.9,0.4-1.4,0.6v6.2h-1.8V338.3z"/>
			<path class="st5" d="M1015.4,338.3h1.5l0.1,1h0.1c0.8-0.4,1.5-0.7,2.1-0.9c0.6-0.2,1.1-0.3,1.6-0.3c0.7,0,1.3,0.2,1.7,0.6
				s0.6,1,0.6,1.8v6.4h-1.8v-5.8c0-0.5-0.1-0.9-0.3-1.2c-0.2-0.2-0.5-0.4-1-0.4c-0.4,0-0.8,0.1-1.3,0.2c-0.5,0.2-1,0.4-1.6,0.6v6.5
				h-1.8V338.3z"/>
			<path class="st5" d="M1026.2,336.6c-0.4,0-0.6-0.1-0.8-0.2s-0.2-0.4-0.2-0.8c0-0.4,0.1-0.6,0.2-0.8c0.2-0.2,0.4-0.2,0.8-0.2
				s0.6,0.1,0.8,0.3c0.2,0.2,0.2,0.4,0.2,0.8c0,0.3-0.1,0.6-0.2,0.8C1026.8,336.5,1026.6,336.6,1026.2,336.6z M1025.3,338.3h1.8v8.6
				h-1.8V338.3z"/>
			<path class="st5" d="M1029.4,338.3h1.5l0.1,1h0.1c0.8-0.4,1.5-0.7,2.1-0.9c0.6-0.2,1.1-0.3,1.6-0.3c0.7,0,1.3,0.2,1.7,0.6
				s0.6,1,0.6,1.8v6.4h-1.8v-5.8c0-0.5-0.1-0.9-0.3-1.2c-0.2-0.2-0.5-0.4-1-0.4c-0.4,0-0.8,0.1-1.3,0.2c-0.5,0.2-1,0.4-1.6,0.6v6.5
				h-1.8V338.3z"/>
			<path class="st5" d="M1042.6,350.4c-0.5,0-1.1,0-1.6-0.1c-0.5-0.1-1-0.1-1.4-0.3l0.1-1.4c0.4,0.1,0.8,0.2,1.3,0.2
				s0.9,0.1,1.4,0.1c0.4,0,0.8,0,1.2-0.1s0.7-0.2,1-0.5s0.5-0.5,0.6-0.9s0.2-0.8,0.2-1.4v-0.6h-0.1c-0.6,0.8-1.5,1.2-2.7,1.2
				c-1.2,0-2.1-0.3-2.7-1c-0.6-0.7-0.9-1.7-0.9-3.2c0-0.8,0.1-1.4,0.3-2s0.5-1,0.9-1.4c0.4-0.4,0.9-0.7,1.4-0.8
				c0.5-0.2,1.2-0.3,1.8-0.3c0.5,0,1.1,0,1.6,0.1c0.6,0.1,1.3,0.2,2,0.4v7.3c0,0.9-0.1,1.6-0.4,2.1c-0.2,0.6-0.6,1-1,1.4
				c-0.4,0.3-0.9,0.6-1.4,0.7S1043.2,350.4,1042.6,350.4z M1043,345.5c0.3,0,0.6,0,0.9-0.1c0.3-0.1,0.5-0.2,0.7-0.4
				c0.2-0.2,0.4-0.4,0.5-0.6s0.2-0.5,0.2-0.8v-4c-0.3-0.1-0.6-0.1-0.9-0.1c-0.3,0-0.7,0-1,0c-0.9,0-1.5,0.2-2,0.7
				c-0.4,0.5-0.6,1.3-0.6,2.4c0,1.1,0.2,1.8,0.5,2.3S1042.2,345.5,1043,345.5z"/>
			<path class="st5" d="M1056.4,347.1c-0.9,0-1.5-0.2-2-0.6c-0.4-0.4-0.7-1.1-0.7-1.9v-4.7h-1.7v-1.5h1.8l0.3-2.3l1.4-0.2v2.4h2.4
				v1.5h-2.4v4.3c0,0.5,0.1,0.9,0.3,1.1c0.2,0.2,0.6,0.4,1.1,0.4c0.1,0,0.3,0,0.5,0c0.2,0,0.4-0.1,0.6-0.1v1.4
				c-0.2,0.1-0.5,0.1-0.8,0.2C1056.9,347,1056.7,347.1,1056.4,347.1z"/>
			<path class="st5" d="M1063.2,347.1c-1.4,0-2.4-0.4-3.1-1.1s-1.1-1.9-1.1-3.3c0-1.5,0.4-2.6,1.1-3.3s1.8-1.1,3.1-1.1
				s2.4,0.4,3.1,1.1c0.7,0.8,1.1,1.9,1.1,3.3c0,1.5-0.4,2.6-1.1,3.3C1065.6,346.7,1064.6,347.1,1063.2,347.1z M1063.2,345.6
				c0.8,0,1.4-0.2,1.8-0.7c0.4-0.5,0.6-1.3,0.6-2.3c0-1.1-0.2-1.9-0.6-2.3c-0.4-0.5-1-0.7-1.8-0.7s-1.4,0.2-1.8,0.7
				c-0.4,0.5-0.6,1.3-0.6,2.3c0,1.1,0.2,1.9,0.6,2.3C1061.8,345.4,1062.4,345.6,1063.2,345.6z"/>
			<path class="st5" d="M927.6,366.3c-0.9,0-1.5-0.2-2-0.6c-0.4-0.4-0.7-1.1-0.7-1.9V359h-1.7v-1.5h1.8l0.3-2.3l1.4-0.2v2.4h2.4v1.5
				h-2.4v4.3c0,0.5,0.1,0.9,0.3,1.1s0.6,0.4,1.1,0.4c0.1,0,0.3,0,0.5,0s0.4-0.1,0.6-0.1v1.4c-0.2,0.1-0.5,0.1-0.8,0.2
				C928.2,366.2,927.9,366.3,927.6,366.3z"/>
			<path class="st5" d="M930.7,353.2h1.8v5.2c0.8-0.4,1.5-0.7,2-0.8s1.1-0.3,1.6-0.3c0.7,0,1.3,0.2,1.7,0.6c0.4,0.4,0.6,1,0.6,1.8
				v6.4h-1.8v-5.8c0-0.5-0.1-0.9-0.3-1.2c-0.2-0.2-0.5-0.4-1-0.4c-0.4,0-0.8,0.1-1.3,0.2c-0.5,0.2-1,0.4-1.6,0.6v6.5h-1.8V353.2z"/>
			<path class="st5" d="M944.4,366.2c-1.4,0-2.4-0.4-3.1-1.1c-0.7-0.7-1-1.8-1-3.3c0-1.5,0.3-2.6,1-3.4c0.7-0.8,1.7-1.2,3-1.2
				c2.3,0,3.5,1.3,3.5,3.9c0,0.5,0,0.9-0.1,1.2H942c0.1,0.9,0.3,1.5,0.7,1.9s1,0.6,1.9,0.6c0.4,0,0.9,0,1.4-0.1
				c0.5-0.1,1-0.2,1.4-0.3l0.1,1.3c-0.4,0.2-0.9,0.3-1.5,0.4C945.4,366.2,944.9,366.2,944.4,366.2z M944.2,358.6
				c-0.7,0-1.2,0.2-1.6,0.6c-0.4,0.4-0.6,1.1-0.6,2h4.1c0-0.9-0.2-1.6-0.5-2C945.4,358.8,944.9,358.6,944.2,358.6z"/>
			<path class="st5" d="M957,366.2c-2.8,0-4.2-1.5-4.2-4.4c0-3,1.4-4.5,4.2-4.5c0.4,0,0.7,0,1.1,0.1c0.4,0,0.8,0.1,1.1,0.2v1.5
				c-0.3-0.1-0.7-0.1-1-0.2c-0.3,0-0.7-0.1-1-0.1c-0.9,0-1.6,0.2-2,0.7c-0.4,0.5-0.6,1.2-0.6,2.3c0,1,0.2,1.8,0.6,2.3s1.1,0.7,2,0.7
				c0.4,0,0.7,0,1.1,0c0.3,0,0.6-0.1,1-0.2v1.4c-0.3,0.1-0.6,0.1-1,0.2C957.8,366.2,957.4,366.2,957,366.2z"/>
			<path class="st5" d="M962.9,366.2c-0.8,0-1.4-0.2-1.8-0.6c-0.4-0.4-0.6-1-0.6-1.7c0-0.8,0.3-1.5,0.8-1.9c0.5-0.4,1.4-0.7,2.5-0.8
				l2-0.2v-0.5c0-0.4,0-0.6-0.1-0.9s-0.2-0.4-0.3-0.6c-0.2-0.1-0.4-0.2-0.6-0.3s-0.6-0.1-1-0.1c-0.4,0-0.8,0-1.2,0.1
				s-0.9,0.1-1.4,0.2l-0.1-1.3c1.1-0.2,2.1-0.3,3.1-0.3c1.2,0,2.1,0.2,2.6,0.7s0.9,1.2,0.9,2.2v5.9h-1.5L966,365h-0.1
				c-0.5,0.4-1,0.7-1.5,0.9S963.4,366.2,962.9,366.2z M963.6,364.9c0.4,0,0.7-0.1,1.1-0.2c0.4-0.2,0.8-0.4,1.1-0.6v-2l-1.5,0.1
				c-0.7,0.1-1.3,0.2-1.6,0.4c-0.3,0.2-0.4,0.6-0.4,1.1C962.3,364.5,962.7,364.9,963.6,364.9z"/>
			<path class="st5" d="M972.5,366.3c-0.4,0-0.9,0-1.4-0.1c-0.5-0.1-1.1-0.2-1.7-0.3v-1.4c0.6,0.1,1.1,0.2,1.6,0.3
				c0.5,0.1,1,0.1,1.4,0.1c1.2,0,1.8-0.4,1.8-1.2c0-0.4-0.2-0.7-0.5-0.9c-0.3-0.2-0.7-0.3-1.2-0.4c-0.3-0.1-0.7-0.1-1-0.2
				c-0.4-0.1-0.7-0.2-1-0.4c-0.3-0.2-0.5-0.4-0.7-0.7c-0.2-0.3-0.3-0.7-0.3-1.3c0-0.8,0.3-1.4,0.9-1.9c0.6-0.5,1.4-0.7,2.5-0.7
				c0.2,0,0.4,0,0.6,0c0.2,0,0.4,0,0.6,0.1c0.2,0,0.4,0.1,0.7,0.1c0.2,0,0.5,0.1,0.9,0.2l-0.1,1.4c-0.6-0.1-1-0.2-1.4-0.3
				s-0.8-0.1-1.1-0.1c-0.6,0-1,0.1-1.3,0.3c-0.3,0.2-0.4,0.5-0.4,0.9c0,0.2,0,0.4,0.1,0.6c0.1,0.1,0.2,0.3,0.4,0.4
				c0.2,0.1,0.4,0.2,0.6,0.2c0.2,0.1,0.5,0.1,0.8,0.2c0.4,0.1,0.8,0.2,1.1,0.3s0.6,0.3,0.9,0.5c0.2,0.2,0.4,0.4,0.6,0.7
				s0.2,0.7,0.2,1.1c0,0.8-0.3,1.5-0.9,1.9C974.4,366,973.6,366.3,972.5,366.3z"/>
			<path class="st5" d="M977.7,353.2h1.8v5.2c0.8-0.4,1.5-0.7,2-0.8s1.1-0.3,1.6-0.3c0.7,0,1.3,0.2,1.7,0.6c0.4,0.4,0.6,1,0.6,1.8
				v6.4h-1.8v-5.8c0-0.5-0.1-0.9-0.3-1.2c-0.2-0.2-0.5-0.4-1-0.4c-0.4,0-0.8,0.1-1.3,0.2c-0.5,0.2-1,0.4-1.6,0.6v6.5h-1.8V353.2z"/>
			<path class="st5" d="M988.5,355.8c-0.4,0-0.6-0.1-0.8-0.2c-0.2-0.2-0.2-0.4-0.2-0.8c0-0.4,0.1-0.6,0.2-0.8
				c0.2-0.2,0.4-0.2,0.8-0.2c0.4,0,0.6,0.1,0.8,0.3c0.2,0.2,0.2,0.4,0.2,0.8s-0.1,0.6-0.2,0.8C989.2,355.7,988.9,355.8,988.5,355.8z
				 M987.6,357.5h1.8v8.6h-1.8V357.5z"/>
			<path class="st5" d="M995.4,366.2c-1.4,0-2.4-0.4-3.1-1.1c-0.7-0.7-1-1.8-1-3.3c0-1.5,0.3-2.6,1-3.4c0.7-0.8,1.7-1.2,3-1.2
				c2.3,0,3.5,1.3,3.5,3.9c0,0.5,0,0.9-0.1,1.2h-5.6c0.1,0.9,0.3,1.5,0.7,1.9c0.4,0.4,1,0.6,1.9,0.6c0.4,0,0.9,0,1.4-0.1
				c0.5-0.1,1-0.2,1.4-0.3l0.1,1.3c-0.4,0.2-0.9,0.3-1.5,0.4C996.5,366.2,995.9,366.2,995.4,366.2z M995.3,358.6
				c-0.7,0-1.2,0.2-1.6,0.6c-0.4,0.4-0.6,1.1-0.6,2h4.1c0-0.9-0.2-1.6-0.5-2C996.4,358.8,995.9,358.6,995.3,358.6z"/>
			<path class="st5" d="M1000.6,357.5h1.5l0.1,1.2h0.1c0.5-0.3,1.1-0.6,1.6-0.9s1-0.4,1.4-0.5h0.6v1.6h-0.6c-0.5,0.1-1,0.2-1.4,0.4
				s-0.9,0.4-1.4,0.6v6.2h-1.8V357.5z"/>
			<path class="st5" d="M1014.6,366.3c-1.4,0-2.4-0.4-3.1-1.1c-0.7-0.8-1.1-1.9-1.1-3.3c0-1.5,0.4-2.6,1.1-3.3s1.8-1.1,3.1-1.1
				s2.4,0.4,3.1,1.1c0.7,0.8,1.1,1.9,1.1,3.3c0,1.5-0.4,2.6-1.1,3.3C1017,365.9,1015.9,366.3,1014.6,366.3z M1014.6,364.8
				c0.8,0,1.4-0.2,1.8-0.7c0.4-0.5,0.6-1.3,0.6-2.3s-0.2-1.9-0.6-2.3c-0.4-0.5-1-0.7-1.8-0.7s-1.4,0.2-1.8,0.7
				c-0.4,0.5-0.6,1.3-0.6,2.3s0.2,1.9,0.6,2.3C1013.1,364.6,1013.7,364.8,1014.6,364.8z"/>
			<path class="st5" d="M1020.6,357.5h1.6l0.1,1h0.1c0.3-0.4,0.7-0.7,1.1-0.9c0.5-0.2,1-0.3,1.6-0.3c1.2,0,2.1,0.4,2.7,1.1
				c0.6,0.7,0.9,1.8,0.9,3.3c0,1.5-0.4,2.6-1.2,3.4c-0.8,0.8-1.9,1.2-3.3,1.2c-0.3,0-0.7,0-1,0c-0.3,0-0.6-0.1-0.9-0.1v3.5h-1.8
				V357.5z M1024.3,364.9c0.4,0,0.8-0.1,1.1-0.2c0.3-0.1,0.6-0.3,0.8-0.5c0.2-0.2,0.4-0.6,0.5-1s0.2-0.9,0.2-1.5
				c0-1.1-0.2-1.9-0.5-2.4c-0.4-0.5-0.9-0.7-1.7-0.7c-0.3,0-0.6,0-0.9,0.1c-0.3,0.1-0.5,0.2-0.7,0.4s-0.4,0.4-0.5,0.6
				c-0.1,0.2-0.2,0.5-0.2,0.8v4.2c0.3,0.1,0.5,0.1,0.9,0.1C1023.6,364.9,1023.9,364.9,1024.3,364.9z"/>
			<path class="st5" d="M1034.3,366.2c-1.4,0-2.4-0.4-3.1-1.1c-0.7-0.7-1-1.8-1-3.3c0-1.5,0.3-2.6,1-3.4c0.7-0.8,1.7-1.2,3-1.2
				c2.3,0,3.5,1.3,3.5,3.9c0,0.5,0,0.9-0.1,1.2h-5.6c0.1,0.9,0.3,1.5,0.7,1.9s1,0.6,1.9,0.6c0.4,0,0.9,0,1.4-0.1
				c0.5-0.1,1-0.2,1.4-0.3l0.1,1.3c-0.4,0.2-0.9,0.3-1.5,0.4C1035.3,366.2,1034.8,366.2,1034.3,366.2z M1034.1,358.6
				c-0.7,0-1.2,0.2-1.6,0.6c-0.4,0.4-0.6,1.1-0.6,2h4.1c0-0.9-0.2-1.6-0.5-2C1035.3,358.8,1034.8,358.6,1034.1,358.6z"/>
			<path class="st5" d="M1039.5,357.5h1.5l0.1,1.2h0.1c0.5-0.3,1.1-0.6,1.6-0.9s1-0.4,1.4-0.5h0.6v1.6h-0.6c-0.5,0.1-1,0.2-1.4,0.4
				s-0.9,0.4-1.4,0.6v6.2h-1.8V357.5z"/>
			<path class="st5" d="M1047.9,366.2c-0.8,0-1.4-0.2-1.8-0.6c-0.4-0.4-0.6-1-0.6-1.7c0-0.8,0.3-1.5,0.8-1.9s1.4-0.7,2.5-0.8l2-0.2
				v-0.5c0-0.4,0-0.6-0.1-0.9s-0.2-0.4-0.3-0.6c-0.2-0.1-0.4-0.2-0.6-0.3s-0.6-0.1-1-0.1c-0.4,0-0.8,0-1.2,0.1
				c-0.4,0-0.9,0.1-1.4,0.2l-0.1-1.3c1.1-0.2,2.1-0.3,3.1-0.3c1.2,0,2.1,0.2,2.6,0.7c0.6,0.5,0.9,1.2,0.9,2.2v5.9h-1.5l-0.2-1.1
				h-0.1c-0.5,0.4-1,0.7-1.5,0.9S1048.4,366.2,1047.9,366.2z M1048.5,364.9c0.4,0,0.7-0.1,1.1-0.2s0.8-0.4,1.1-0.6v-2l-1.5,0.1
				c-0.7,0.1-1.3,0.2-1.6,0.4s-0.4,0.6-0.4,1.1C1047.3,364.5,1047.7,364.9,1048.5,364.9z"/>
			<path class="st5" d="M1058.3,366.3c-0.9,0-1.5-0.2-2-0.6c-0.4-0.4-0.7-1.1-0.7-1.9V359h-1.7v-1.5h1.8l0.3-2.3l1.4-0.2v2.4h2.4
				v1.5h-2.4v4.3c0,0.5,0.1,0.9,0.3,1.1c0.2,0.2,0.6,0.4,1.1,0.4c0.1,0,0.3,0,0.5,0c0.2,0,0.4-0.1,0.6-0.1v1.4
				c-0.2,0.1-0.5,0.1-0.8,0.2C1058.9,366.2,1058.6,366.3,1058.3,366.3z"/>
			<path class="st5" d="M1065.2,366.3c-1.4,0-2.4-0.4-3.1-1.1c-0.7-0.8-1.1-1.9-1.1-3.3c0-1.5,0.4-2.6,1.1-3.3s1.8-1.1,3.1-1.1
				s2.4,0.4,3.1,1.1c0.7,0.8,1.1,1.9,1.1,3.3c0,1.5-0.4,2.6-1.1,3.3C1067.6,365.9,1066.5,366.3,1065.2,366.3z M1065.2,364.8
				c0.8,0,1.4-0.2,1.8-0.7c0.4-0.5,0.6-1.3,0.6-2.3s-0.2-1.9-0.6-2.3c-0.4-0.5-1-0.7-1.8-0.7s-1.4,0.2-1.8,0.7
				c-0.4,0.5-0.6,1.3-0.6,2.3s0.2,1.9,0.6,2.3C1063.7,364.6,1064.3,364.8,1065.2,364.8z"/>
			<path class="st5" d="M1071.2,357.5h1.5l0.1,1.2h0.1c0.5-0.3,1.1-0.6,1.6-0.9s1-0.4,1.4-0.5h0.6v1.6h-0.6c-0.5,0.1-1,0.2-1.4,0.4
				s-0.9,0.4-1.4,0.6v6.2h-1.8V357.5z"/>
		</g>
	</g>
</g>
</svg>
