<?xml version="1.0" encoding="utf-8"?>
<!-- Generator: Adobe Illustrator 25.0.1, SVG Export Plug-In . SVG Version: 6.00 Build 0)  -->
<svg version="1.1" id="Layer_1" xmlns="http://www.w3.org/2000/svg" xmlns:xlink="http://www.w3.org/1999/xlink" x="0px" y="0px"
	 viewBox="0 0 1219.1 396.3" style="enable-background:new 0 0 1219.1 396.3;" xml:space="preserve">
<style type="text/css">
	.st0{fill:#0C6D72;}
	.st1{fill:#063739;}
	.st2{fill:#30721E;}
	.st3{fill:#F4F4F4;}
	.st4{fill:#E52033;}
	.st5{fill:#FFFFFF;}
</style>
<rect x="187.9" y="95" class="st0" width="32.5" height="1"/>
<polygon class="st0" points="218.9,100.4 227.6,95.5 218.9,90.5 "/>
<rect x="434.6" y="95" class="st0" width="36.5" height="1"/>
<polygon class="st0" points="469.6,100.4 478.3,95.5 469.6,90.5 "/>
<rect x="896.2" y="50.5" class="st1" width="207" height="90"/>
<path class="st0" d="M1102.2,51.5v88h-205v-88H1102.2 M1103.2,50.4h-207v90h207V50.4z"/>
<circle class="st2" cx="151.9" cy="95.5" r="36"/>
<path class="st3" d="M136.4,101.5c-0.3,0-0.6,0-1,0s-0.7-0.1-1.1-0.1c-0.4,0-0.7-0.1-1.1-0.2c-0.4-0.1-0.7-0.2-1.1-0.2v-1.4
	c0.7,0.2,1.4,0.3,2.2,0.4c0.6,0.1,1.3,0.2,2,0.2c0.8,0.1,1.7-0.1,2.4-0.6c0.5-0.4,0.9-1,0.8-1.7c0-0.3-0.1-0.7-0.2-1
	c-0.2-0.3-0.4-0.5-0.6-0.7c-0.3-0.2-0.6-0.4-1-0.5s-0.8-0.3-1.2-0.4c-0.6-0.2-1.2-0.4-1.8-0.6c-0.5-0.2-0.9-0.5-1.2-0.8
	s-0.6-0.7-0.7-1.1c-0.2-0.4-0.2-0.9-0.2-1.4s0.1-1,0.3-1.5s0.5-0.9,0.9-1.2s1-0.6,1.5-0.8c0.6-0.2,1.3-0.3,1.9-0.3
	c0.5,0,1.1,0,1.6,0.1c0.6,0.1,1.2,0.2,1.9,0.3l-0.1,1.3c-0.6-0.2-1.2-0.3-1.7-0.3c-0.5-0.1-1.1-0.1-1.6-0.1c-0.8,0-1.6,0.2-2.2,0.6
	c-0.5,0.4-0.8,1-0.8,1.7c0,0.3,0,0.6,0.2,0.9c0.1,0.3,0.3,0.5,0.5,0.7c0.3,0.2,0.6,0.4,0.9,0.6c0.5,0.2,0.9,0.4,1.4,0.5
	c0.6,0.2,1.1,0.3,1.6,0.5s0.9,0.4,1.3,0.7c0.4,0.3,0.6,0.7,0.8,1.1c0.2,0.5,0.3,1,0.3,1.6c0.1,1-0.4,2.1-1.2,2.7
	C138.9,101.3,137.6,101.6,136.4,101.5z"/>
<path class="st3" d="M146.7,101.5c-0.8,0.1-1.5-0.2-2.1-0.7c-0.5-0.5-0.7-1.3-0.7-2V93h-2v-1.4h2.1l0.2-2.4l1.2-0.2v2.6h2.9V93h-2.9
	v5.4c0,0.5,0.1,1,0.4,1.3c0.3,0.3,0.8,0.5,1.3,0.4c0.2,0,0.4,0,0.6-0.1c0.2,0,0.5-0.1,0.7-0.2v1.3c-0.3,0.1-0.6,0.1-0.9,0.2
	C147.3,101.5,147,101.5,146.7,101.5z"/>
<path class="st3" d="M152,101.4c-0.7,0-1.4-0.2-1.9-0.7s-0.7-1.2-0.7-1.9c0-0.8,0.3-1.6,0.9-2.1c0.8-0.6,1.8-0.9,2.8-0.9l2.3-0.2
	v-0.7c0-0.4,0-0.7-0.1-1.1c-0.1-0.3-0.2-0.5-0.4-0.7s-0.5-0.3-0.8-0.4c-0.4-0.1-0.8-0.1-1.2-0.1s-0.9,0-1.3,0.1
	c-0.5,0-1,0.1-1.5,0.2l-0.1-1.2c0.6-0.1,1.2-0.2,1.7-0.3s1-0.1,1.6-0.1c1-0.1,2,0.2,2.8,0.8c0.6,0.6,1,1.5,0.9,2.4v6.6h-1.3
	l-0.2-1.2h-0.1c-0.5,0.4-1.1,0.7-1.7,1C153.2,101.3,152.6,101.4,152,101.4z M152.6,100.2c0.5,0,1-0.1,1.4-0.3c0.5-0.2,1-0.5,1.5-0.8
	v-2.5l-1.9,0.2c-0.7,0-1.4,0.2-2,0.6c-0.4,0.3-0.6,0.8-0.6,1.4C151.1,99.7,151.6,100.2,152.6,100.2z"/>
<path class="st3" d="M159.7,91.6h1.3l0.1,1.3h0.1c0.7-0.4,1.3-0.7,1.8-1s1-0.4,1.6-0.5h0.5v1.5h-0.6c-0.6,0.1-1.1,0.2-1.7,0.4
	c-0.6,0.2-1.1,0.5-1.6,0.7v7.2h-1.6L159.7,91.6L159.7,91.6L159.7,91.6z"/>
<path class="st3" d="M170.5,101.5c-0.8,0.1-1.5-0.2-2.1-0.7c-0.5-0.5-0.8-1.3-0.7-2V93h-2v-1.4h2.1l0.2-2.4l1.2-0.2v2.6h2.9V93h-2.9
	v5.4c0,0.5,0.1,1,0.4,1.3s0.8,0.5,1.3,0.4c0.2,0,0.4,0,0.6-0.1c0.2,0,0.5-0.1,0.7-0.2v1.3c-0.3,0.1-0.6,0.1-0.9,0.2
	C171.1,101.5,170.8,101.5,170.5,101.5z"/>
<rect x="773.4" y="68.4" class="st0" width="72" height="54"/>
<path class="st3" d="M800.2,96.9l-4.9-8.9h1.7l3.3,6.2l0.5,1.2h0.2l0.5-1.2l3.4-6.2h1.7l-4.8,8.8v4.5h-1.6L800.2,96.9z"/>
<path class="st3" d="M810.6,101.5c-1.2,0.1-2.5-0.4-3.4-1.2c-0.8-1-1.2-2.3-1.1-3.7c-0.1-1.4,0.3-2.7,1.1-3.8c0.8-0.9,2-1.4,3.3-1.3
	c2.5,0,3.7,1.4,3.7,4.3c0,0.4,0,0.8-0.1,1.3h-6.4c0,0.9,0.3,1.8,0.8,2.4c0.6,0.5,1.4,0.8,2.3,0.7c0.5,0,1,0,1.5-0.1s1-0.2,1.5-0.4
	l0.1,1.2c-0.5,0.2-1,0.3-1.6,0.4C811.7,101.4,811.2,101.5,810.6,101.5z M810.4,92.6c-1.7,0-2.7,1.1-2.8,3.3h5.1
	c0.1-0.9-0.1-1.7-0.6-2.5C811.8,92.9,811.1,92.6,810.4,92.6z"/>
<path class="st3" d="M819.1,101.5c-0.5,0-0.9,0-1.4-0.1s-1.1-0.2-1.9-0.3v-1.3c0.6,0.1,1.2,0.3,1.7,0.3c0.5,0.1,1,0.1,1.5,0.1
	c0.6,0,1.1-0.1,1.6-0.4c0.4-0.3,0.6-0.7,0.5-1.2c0-0.2,0-0.5-0.1-0.7s-0.2-0.4-0.4-0.5s-0.4-0.2-0.7-0.3s-0.5-0.2-0.8-0.2l-1.1-0.2
	c-0.4-0.1-0.7-0.2-1-0.4s-0.6-0.5-0.8-0.8c-0.2-0.4-0.3-0.9-0.3-1.4c0-0.8,0.4-1.5,1-2c0.8-0.5,1.7-0.8,2.6-0.7c0.2,0,0.4,0,0.6,0
	l0.6,0.1l0.7,0.1l0.9,0.2l-0.2,1.3c-0.6-0.1-1.1-0.2-1.5-0.3s-0.8-0.1-1.1-0.1c-1.5,0-2.2,0.5-2.2,1.5c0,0.2,0,0.5,0.2,0.7
	c0.1,0.2,0.3,0.3,0.5,0.5c0.2,0.1,0.5,0.2,0.7,0.3c0.3,0.1,0.6,0.1,0.9,0.2c0.4,0.1,0.8,0.2,1.2,0.3s0.7,0.3,1,0.5s0.5,0.5,0.6,0.8
	c0.2,0.4,0.2,0.8,0.2,1.2c0,0.8-0.3,1.6-1,2.1C821,101.3,820.1,101.6,819.1,101.5z"/>
<rect x="227.6" y="50.5" class="st1" width="207" height="90"/>
<path class="st0" d="M433.6,51.5v88h-205v-88H433.6 M434.6,50.5h-207v90h207V50.5z"/>
<g>
	<circle class="st0" cx="331.1" cy="351.3" r="36"/>
	<path class="st3" d="M316.3,343.8h8.5v1.3h-6.9v4.6h6.4v1.4h-6.4v4.8h7v1.3h-8.6V343.8z"/>
	<path class="st3" d="M327.1,347.3h1.3l0.1,1.1h0.1l1.3-0.6c0.4-0.2,0.7-0.3,1.1-0.4c0.3-0.1,0.6-0.2,0.9-0.2s0.6-0.1,0.8-0.1
		c0.7,0,1.4,0.2,1.9,0.7s0.7,1.3,0.7,2v7.2h-1.6v-6.7c0-0.5-0.1-1-0.4-1.4c-0.3-0.3-0.8-0.5-1.2-0.4c-0.5,0-1.1,0.1-1.6,0.3
		c-0.7,0.2-1.3,0.5-1.9,0.8v7.5H327L327.1,347.3L327.1,347.3z"/>
	<path class="st3" d="M341.5,357.3c-1.1,0.1-2.2-0.4-3-1.2c-0.8-1.1-1.1-2.4-1-3.8c0-0.8,0.1-1.5,0.3-2.3c0.2-0.6,0.6-1.1,1-1.6
		c0.4-0.4,0.9-0.8,1.5-1s1.3-0.3,2-0.3c0.4,0,0.8,0,1.2,0.1l1.1,0.1v-4.8h1.5V357h-1.4l-0.1-1.2h-0.1
		C343.7,356.8,342.6,357.3,341.5,357.3z M341.8,356c0.3,0,0.7-0.1,1-0.1c0.3-0.1,0.6-0.2,0.9-0.4c0.2-0.2,0.5-0.4,0.6-0.7
		c0.1-0.3,0.2-0.6,0.2-0.9v-5.2c-0.4-0.1-0.7-0.1-1.1-0.1s-0.8-0.1-1.2-0.1c-0.9-0.1-1.8,0.3-2.4,0.9c-0.6,0.9-0.9,1.9-0.8,2.9
		c-0.1,1,0.1,2,0.7,2.9C340.2,355.8,341,356.1,341.8,356L341.8,356z"/>
</g>
<rect x="537.7" y="213" class="st4" width="72" height="54"/>
<path class="st3" d="M563,232.5h1.4l6.8,9.3l1,1.6h0.1v-10.9h1.5v13.3h-1.4l-6.9-9.3l-1-1.6h-0.1v10.8h-1.5L563,232.5L563,232.5z"/>
<path class="st3" d="M580.7,246c-1.3,0.1-2.5-0.4-3.4-1.3c-1.5-2.3-1.5-5.2,0-7.5c1.9-1.7,4.8-1.7,6.7,0c1.5,2.3,1.5,5.2,0,7.5
	C583.2,245.6,581.9,246.1,580.7,246z M580.7,244.8c0.8,0.1,1.7-0.3,2.2-0.9c0.9-1.8,0.9-3.9,0-5.7c-1.2-1.2-3.2-1.2-4.4,0
	c-0.9,1.8-0.9,3.9,0,5.7C579,244.4,579.8,244.9,580.7,244.8L580.7,244.8z"/>
<rect x="669.2" y="95" class="st0" width="97" height="1"/>
<polygon class="st0" points="764.7,100.4 773.4,95.5 764.7,90.5 "/>
<rect x="845.4" y="95" class="st0" width="43.6" height="1"/>
<polygon class="st0" points="887.5,100.4 896.2,95.5 887.5,90.5 "/>
<rect x="573.2" y="190.1" class="st0" width="1" height="15.6"/>
<polygon class="st0" points="568.7,204.4 573.7,213 578.7,204.4 "/>
<rect x="506.2" y="28" transform="matrix(0.7071 -0.7071 0.7071 0.7071 100.5112 433.6438)" class="st1" width="135" height="135"/>
<path class="st0" d="M573.7,1.4l94,94.1l-94,94l-94-94L573.7,1.4 M573.7,0.1l-95.5,95.4l95.5,95.5l95.5-95.5L573.7,0.1L573.7,0.1z"
	/>
<path class="st3" d="M515.1,101.2l4.8-13.2h2.4l4.8,13.2v0.1h-1.6l-1.5-4h-6l-1.4,4L515.1,101.2L515.1,101.2L515.1,101.2z M523.6,96
	l-1.6-4.5l-0.8-2.3h-0.1l-0.8,2.3l-1.6,4.5H523.6z"/>
<path class="st3" d="M528.6,86.8h1.6v14.5h-1.6V86.8z"/>
<path class="st3" d="M534.9,101.4c-0.7,0-1.4-0.2-1.9-0.7s-0.7-1.2-0.7-1.9c-0.1-0.8,0.3-1.6,0.9-2.1c0.8-0.6,1.8-0.9,2.8-0.9
	l2.3-0.2v-0.7c0-0.4,0-0.7-0.1-1.1c-0.1-0.3-0.2-0.5-0.4-0.7s-0.5-0.3-0.7-0.4c-0.4-0.1-0.8-0.1-1.2-0.1s-0.9,0-1.3,0.1
	c-0.5,0-1,0.1-1.5,0.2l-0.1-1.2c0.6-0.1,1.2-0.2,1.7-0.3s1-0.1,1.6-0.1c1-0.1,2,0.2,2.8,0.8c0.6,0.6,1,1.5,0.9,2.4v6.6h-1.3
	l-0.2-1.2h-0.1c-0.5,0.4-1.1,0.7-1.7,1C536.1,101.3,535.5,101.4,534.9,101.4z M535.5,100.2c0.5,0,1-0.1,1.4-0.3
	c0.5-0.2,1-0.5,1.5-0.8v-2.5l-1.9,0.2c-0.7,0-1.4,0.2-2,0.6c-0.4,0.3-0.6,0.8-0.6,1.4C533.9,99.7,534.4,100.2,535.5,100.2z"/>
<path class="st3" d="M542.6,91.6h1.3l0.1,1.3h0.1c0.7-0.4,1.3-0.7,1.9-1c0.5-0.2,1-0.4,1.6-0.5h0.5v1.5h-0.6
	c-0.6,0.1-1.1,0.2-1.7,0.4c-0.6,0.2-1.1,0.5-1.6,0.7v7.2h-1.6V91.6z"/>
<path class="st3" d="M549.6,91.6h1.3l0.1,1.1h0.1c0.6-0.4,1.3-0.7,2-1c0.5-0.2,1-0.3,1.6-0.3c1-0.1,1.9,0.4,2.3,1.3h0.1
	c0.6-0.4,1.3-0.7,2-1c0.5-0.2,1-0.3,1.6-0.3c0.7,0,1.4,0.2,1.9,0.7s0.7,1.3,0.7,2v7.2h-1.6v-6.7c0-0.5-0.1-1-0.4-1.4
	c-0.3-0.3-0.8-0.5-1.2-0.4c-0.4,0-0.9,0.1-1.3,0.3c-0.5,0.2-1,0.5-1.5,0.7v7.5h-1.6v-6.7c0-0.5-0.1-1-0.4-1.4
	c-0.3-0.3-0.8-0.5-1.2-0.4c-0.4,0-0.9,0.1-1.3,0.3c-0.5,0.2-1,0.5-1.5,0.8v7.5h-1.6L549.6,91.6L549.6,91.6z"/>
<path class="st3" d="M570.8,89.6c-0.5,0.1-0.9-0.2-1-0.7c0-0.1,0-0.2,0-0.3c-0.1-0.5,0.2-0.9,0.7-1c0.1,0,0.2,0,0.3,0
	c0.7,0,1,0.3,1,1S571.5,89.6,570.8,89.6z M570,91.6h1.6v9.7H570V91.6z"/>
<path class="st3" d="M577.1,101.5c-0.5,0-0.9,0-1.4-0.1s-1.1-0.2-1.9-0.3v-1.3c0.6,0.1,1.2,0.3,1.7,0.3c0.5,0.1,1,0.1,1.5,0.1
	c0.6,0,1.1-0.1,1.6-0.4c0.4-0.3,0.6-0.7,0.5-1.2c0-0.2,0-0.5-0.1-0.7s-0.2-0.4-0.4-0.5s-0.4-0.2-0.6-0.3c-0.3-0.1-0.5-0.1-0.8-0.2
	s-0.8-0.2-1.1-0.3c-0.4-0.1-0.7-0.2-1-0.4s-0.6-0.5-0.8-0.8c-0.2-0.4-0.3-0.9-0.3-1.4c0-0.8,0.3-1.6,0.9-2.1
	c0.8-0.5,1.7-0.8,2.6-0.7h0.6l0.6,0.1l0.7,0.1c0.3,0,0.6,0.1,0.9,0.2l-0.1,1.3c-0.6-0.1-1.1-0.2-1.5-0.3s-0.8-0.1-1.1-0.1
	c-1.5,0-2.2,0.5-2.2,1.5c0,0.2,0.1,0.5,0.2,0.7c0.1,0.2,0.3,0.4,0.5,0.5s0.5,0.2,0.7,0.3c0.3,0.1,0.6,0.1,0.9,0.2
	c0.4,0.1,0.8,0.2,1.2,0.3s0.7,0.3,1,0.5s0.5,0.5,0.6,0.8c0.2,0.4,0.2,0.8,0.2,1.2c0,0.8-0.3,1.6-0.9,2.1
	C579.1,101.3,578.1,101.6,577.1,101.5z"/>
<path class="st3" d="M585.6,91.8v-0.2h1.6l2.5,7l0.4,1.5h0.2l0.4-1.5l2.5-7h1.6v0.2l-3.7,9.5h-2L585.6,91.8z"/>
<path class="st3" d="M598.5,101.4c-0.7,0-1.4-0.2-1.9-0.7s-0.7-1.2-0.7-1.9c0-0.8,0.3-1.6,0.9-2.1c0.8-0.6,1.8-0.9,2.8-0.9l2.3-0.2
	v-0.7c0-0.4,0-0.7-0.1-1.1c-0.1-0.3-0.2-0.5-0.4-0.7s-0.5-0.3-0.8-0.4c-0.4-0.1-0.8-0.1-1.2-0.1s-0.9,0-1.3,0.1
	c-0.5,0-1,0.1-1.5,0.2l-0.1-1.2c0.6-0.1,1.2-0.2,1.7-0.3s1-0.1,1.6-0.1c1-0.1,2,0.2,2.8,0.8c0.6,0.6,1,1.5,0.9,2.4v6.6h-1.3L602,100
	h-0.1c-0.5,0.4-1.1,0.7-1.7,1S599.1,101.4,598.5,101.4z M599,100.2c0.5,0,1-0.1,1.4-0.3c0.5-0.2,1-0.5,1.5-0.8v-2.4l-1.9,0.2
	c-0.7,0-1.4,0.2-2,0.6c-0.4,0.3-0.6,0.8-0.6,1.4C597.5,99.7,598,100.2,599,100.2z"/>
<path class="st3" d="M606.2,86.8h1.6v14.5h-1.6V86.8z"/>
<path class="st3" d="M611.3,89.6c-0.5,0.1-0.9-0.2-1-0.7c0-0.1,0-0.2,0-0.3c-0.1-0.5,0.2-0.9,0.7-1c0.1,0,0.2,0,0.3,0
	c0.7,0,1,0.3,1,1S612,89.6,611.3,89.6z M610.5,91.6h1.6v9.7h-1.6V91.6z"/>
<path class="st3" d="M618.4,101.5c-1.1,0.1-2.2-0.4-3-1.2c-0.8-1.1-1.1-2.4-1-3.8c0-0.8,0.1-1.5,0.3-2.3c0.2-0.6,0.6-1.1,1-1.6
	c0.4-0.4,0.9-0.8,1.5-1s1.3-0.3,2-0.3c0.4,0,0.8,0,1.2,0.1l1.1,0.1v-4.8h1.6v14.5h-1.4l-0.1-1.2h-0.1
	C620.7,101.1,619.6,101.6,618.4,101.5z M618.7,100.2c0.3,0,0.7-0.1,1-0.2s0.6-0.2,0.9-0.4c0.2-0.2,0.5-0.4,0.6-0.7s0.2-0.6,0.2-0.9
	v-5.2c-0.4-0.1-0.7-0.1-1.1-0.1c-0.4,0-0.8-0.1-1.2-0.1c-0.9-0.1-1.8,0.3-2.4,0.9c-0.6,0.8-0.9,1.9-0.8,2.9c-0.1,1,0.1,2,0.7,2.9
	C617.1,100,617.9,100.3,618.7,100.2L618.7,100.2z"/>
<path class="st3" d="M627,97.8l-0.1-3.4c0.4-0.1,0.8-0.2,1.2-0.3s0.8-0.3,1.1-0.5s0.6-0.5,0.8-0.8c0.2-0.4,0.3-0.8,0.3-1.2
	s-0.1-0.8-0.2-1.1c-0.1-0.3-0.3-0.5-0.6-0.7c-0.2-0.2-0.5-0.3-0.8-0.4s-0.7-0.1-1-0.1c-0.4,0-0.9,0-1.3,0.1
	c-0.4,0.1-0.9,0.2-1.3,0.3l-0.1-1.2c0.5-0.1,1-0.3,1.5-0.3c0.5-0.1,1.1-0.1,1.6-0.1s1,0.1,1.5,0.2c0.4,0.1,0.9,0.3,1.2,0.6
	c0.4,0.3,0.6,0.7,0.8,1.1c0.2,0.5,0.3,1.1,0.3,1.7c0,1-0.4,2-1.1,2.7c-0.3,0.3-0.7,0.5-1.2,0.7c-0.4,0.2-0.8,0.3-1.3,0.4v2.6v0.3
	h-1.2L627,97.8z M627.6,101.3c-0.2,0-0.5-0.1-0.7-0.3s-0.3-0.4-0.3-0.7s0.1-0.5,0.3-0.7s0.4-0.3,0.7-0.2c0.3,0,0.5,0.1,0.7,0.2
	c0.2,0.2,0.3,0.4,0.3,0.7c0,0.2-0.1,0.5-0.3,0.7C628.1,101.3,627.9,101.4,627.6,101.3L627.6,101.3z"/>
<g>
	<rect x="330.6" y="240.4" class="st0" width="1" height="70.3"/>
	<polygon class="st0" points="326.1,306.6 331.1,315.3 336.1,306.6 	"/>
	<rect x="331.1" y="239.5" class="st0" width="206.7" height="1"/>
</g>
<rect x="368.5" y="350.8" class="st0" width="528.6" height="1"/>
<polygon class="st0" points="375.7,346.3 367.1,351.3 375.7,356.3 "/>
<g>
	<rect x="999.2" y="139.4" class="st0" width="1" height="159.6"/>
	<polygon class="st0" points="994.7,297.6 999.7,306.3 1004.6,297.6 	"/>
</g>
<rect x="896.2" y="306.3" class="st1" width="207" height="90"/>
<path class="st0" d="M1102.2,307.3v88h-205v-88H1102.2 M1103.2,306.3h-207v90h207V306.3z"/>
<g>
	<g>
		<path class="st5" d="M257.1,96.4c-0.4,0-0.9,0-1.3,0c-0.2,0-0.4,0-0.7,0s-0.5,0-0.7-0.1v4.3h-1.8V88.9c1.1-0.2,2.1-0.2,3.1-0.2
			c1,0,1.8,0.1,2.5,0.2c0.7,0.1,1.3,0.4,1.7,0.7c0.5,0.3,0.8,0.7,1,1.2c0.2,0.5,0.3,1.1,0.3,1.8c0,1.8-0.8,3-2.5,3.5l2.9,4.6h-2
			L257.1,96.4z M256.1,95c0.6,0,1.1,0,1.6-0.1c0.4-0.1,0.8-0.2,1-0.4s0.5-0.4,0.6-0.8c0.1-0.3,0.2-0.7,0.2-1.1
			c0-0.4-0.1-0.8-0.2-1.1c-0.1-0.3-0.3-0.6-0.6-0.8c-0.3-0.2-0.6-0.3-1.1-0.4c-0.4-0.1-1-0.1-1.6-0.1c-0.3,0-0.5,0-0.9,0
			c-0.3,0-0.6,0-0.8,0.1v4.6c0.1,0,0.4,0.1,0.7,0.1C255.4,95,255.7,95,256.1,95z"/>
		<path class="st5" d="M267,100.8c-1.4,0-2.4-0.4-3.1-1.1c-0.7-0.7-1-1.8-1-3.3c0-1.5,0.3-2.6,1-3.4c0.7-0.8,1.7-1.2,3-1.2
			c2.3,0,3.5,1.3,3.5,3.9c0,0.5,0,0.9-0.1,1.2h-5.6c0.1,0.9,0.3,1.5,0.7,1.9c0.4,0.4,1,0.6,1.9,0.6c0.4,0,0.9,0,1.4-0.1
			s1-0.2,1.4-0.3l0.1,1.3c-0.4,0.2-0.9,0.3-1.5,0.4C268,100.8,267.5,100.8,267,100.8z M266.8,93.2c-0.7,0-1.2,0.2-1.6,0.6
			s-0.6,1.1-0.6,2h4.1c0-0.9-0.2-1.6-0.5-2S267.5,93.2,266.8,93.2z"/>
		<path class="st5" d="M271.3,92.3v-0.2h1.9l2,5.7l0.4,1.5h0.2l0.4-1.5l2-5.7h1.9v0.2l-3.2,8.4h-2.3L271.3,92.3z"/>
		<path class="st5" d="M282.3,90.4c-0.4,0-0.6-0.1-0.8-0.2c-0.2-0.2-0.2-0.4-0.2-0.8s0.1-0.6,0.2-0.8c0.2-0.2,0.4-0.2,0.8-0.2
			s0.6,0.1,0.8,0.3c0.2,0.2,0.2,0.4,0.2,0.8s-0.1,0.6-0.2,0.8C283,90.3,282.7,90.4,282.3,90.4z M281.4,92.1h1.8v8.6h-1.8V92.1z"/>
		<path class="st5" d="M289.2,100.8c-1.4,0-2.4-0.4-3.1-1.1c-0.7-0.7-1-1.8-1-3.3c0-1.5,0.3-2.6,1-3.4c0.7-0.8,1.7-1.2,3-1.2
			c2.3,0,3.5,1.3,3.5,3.9c0,0.5,0,0.9-0.1,1.2h-5.6c0.1,0.9,0.3,1.5,0.7,1.9c0.4,0.4,1,0.6,1.9,0.6c0.4,0,0.9,0,1.4-0.1
			s1-0.2,1.4-0.3l0.1,1.3c-0.4,0.2-0.9,0.3-1.5,0.4C290.3,100.8,289.7,100.8,289.2,100.8z M289.1,93.2c-0.7,0-1.2,0.2-1.6,0.6
			s-0.6,1.1-0.6,2h4.1c0-0.9-0.2-1.6-0.5-2S289.7,93.2,289.1,93.2z"/>
		<path class="st5" d="M293.6,92.2L293.6,92.2l1.7-0.1l1.4,5.7L297,99h0.1l0.3-1.2l1.6-5.7h1.6l1.6,5.7l0.3,1.2h0.1l0.3-1.2l1.3-5.7
			h1.7v0.1l-2.3,8.5h-2l-1.6-5.4l-0.2-1.1h-0.1l-0.2,1.1l-1.5,5.4h-2L293.6,92.2z"/>
		<path class="st5" d="M314.6,100.9c-0.9,0-1.5-0.2-2-0.6c-0.4-0.4-0.7-1.1-0.7-1.9v-4.7h-1.7v-1.5h1.8l0.3-2.3l1.4-0.2v2.4h2.4v1.5
			h-2.4v4.3c0,0.5,0.1,0.9,0.3,1.1c0.2,0.2,0.6,0.4,1.1,0.4c0.1,0,0.3,0,0.5,0c0.2,0,0.4-0.1,0.6-0.1v1.4c-0.2,0.1-0.5,0.1-0.8,0.2
			C315.1,100.8,314.9,100.9,314.6,100.9z"/>
		<path class="st5" d="M317.7,87.8h1.8V93c0.8-0.4,1.5-0.7,2-0.8c0.6-0.2,1.1-0.3,1.6-0.3c0.7,0,1.3,0.2,1.7,0.6s0.6,1,0.6,1.8v6.4
			h-1.8v-5.8c0-0.5-0.1-0.9-0.3-1.2c-0.2-0.2-0.5-0.4-1-0.4c-0.4,0-0.8,0.1-1.3,0.2c-0.5,0.2-1,0.4-1.6,0.6v6.5h-1.8V87.8z"/>
		<path class="st5" d="M331.4,100.8c-1.4,0-2.4-0.4-3.1-1.1c-0.7-0.7-1-1.8-1-3.3c0-1.5,0.3-2.6,1-3.4c0.7-0.8,1.7-1.2,3-1.2
			c2.3,0,3.5,1.3,3.5,3.9c0,0.5,0,0.9-0.1,1.2H329c0.1,0.9,0.3,1.5,0.7,1.9c0.4,0.4,1,0.6,1.9,0.6c0.4,0,0.9,0,1.4-0.1
			s1-0.2,1.4-0.3l0.1,1.3c-0.4,0.2-0.9,0.3-1.5,0.4C332.4,100.8,331.9,100.8,331.4,100.8z M331.2,93.2c-0.7,0-1.2,0.2-1.6,0.6
			s-0.6,1.1-0.6,2h4.1c0-0.9-0.2-1.6-0.5-2C332.4,93.4,331.9,93.2,331.2,93.2z"/>
		<path class="st5" d="M340.2,92.1h1.6l0.1,1h0.1c0.3-0.4,0.7-0.7,1.1-0.9c0.5-0.2,1-0.3,1.6-0.3c1.2,0,2.1,0.4,2.7,1.1
			c0.6,0.7,0.9,1.8,0.9,3.3c0,1.5-0.4,2.6-1.2,3.4s-1.9,1.2-3.3,1.2c-0.3,0-0.7,0-1,0c-0.3,0-0.6-0.1-0.9-0.1v3.5h-1.8V92.1z
			 M343.9,99.5c0.4,0,0.8-0.1,1.1-0.2c0.3-0.1,0.6-0.3,0.8-0.5c0.2-0.3,0.4-0.6,0.5-1c0.1-0.4,0.2-0.9,0.2-1.5
			c0-1.1-0.2-1.9-0.5-2.4c-0.4-0.5-0.9-0.7-1.7-0.7c-0.3,0-0.6,0-0.9,0.1c-0.3,0.1-0.5,0.2-0.7,0.4c-0.2,0.2-0.4,0.4-0.5,0.6
			c-0.1,0.2-0.2,0.5-0.2,0.8v4.2c0.3,0.1,0.5,0.1,0.9,0.1C343.2,99.5,343.5,99.5,343.9,99.5z"/>
		<path class="st5" d="M353.9,100.9c-1.4,0-2.4-0.4-3.1-1.1s-1.1-1.9-1.1-3.3s0.4-2.6,1.1-3.3s1.8-1.1,3.1-1.1s2.4,0.4,3.1,1.1
			c0.7,0.8,1.1,1.9,1.1,3.3s-0.4,2.6-1.1,3.3C356.3,100.5,355.3,100.9,353.9,100.9z M353.9,99.4c0.8,0,1.4-0.2,1.8-0.7
			c0.4-0.5,0.6-1.3,0.6-2.3c0-1.1-0.2-1.9-0.6-2.3c-0.4-0.5-1-0.7-1.8-0.7s-1.4,0.2-1.8,0.7c-0.4,0.5-0.6,1.3-0.6,2.3
			c0,1.1,0.2,1.9,0.6,2.3C352.5,99.2,353.1,99.4,353.9,99.4z"/>
		<path class="st5" d="M362.6,100.9c-0.4,0-0.9,0-1.4-0.1c-0.5-0.1-1.1-0.2-1.7-0.3v-1.4c0.6,0.1,1.1,0.2,1.6,0.3s1,0.1,1.4,0.1
			c1.2,0,1.8-0.4,1.8-1.2c0-0.4-0.2-0.7-0.5-0.9c-0.3-0.2-0.7-0.3-1.2-0.4c-0.3-0.1-0.7-0.1-1-0.2c-0.4-0.1-0.7-0.2-1-0.4
			c-0.3-0.2-0.5-0.4-0.7-0.7c-0.2-0.3-0.3-0.7-0.3-1.3c0-0.8,0.3-1.4,0.9-1.9c0.6-0.5,1.4-0.7,2.5-0.7c0.2,0,0.4,0,0.6,0
			s0.4,0,0.6,0.1c0.2,0,0.4,0.1,0.7,0.1c0.3,0,0.5,0.1,0.9,0.2l-0.1,1.4c-0.6-0.1-1-0.2-1.4-0.3c-0.4-0.1-0.8-0.1-1.1-0.1
			c-0.6,0-1,0.1-1.3,0.3s-0.4,0.5-0.4,0.9c0,0.2,0,0.4,0.1,0.6c0.1,0.1,0.2,0.3,0.4,0.4c0.2,0.1,0.4,0.2,0.6,0.2
			c0.2,0.1,0.5,0.1,0.8,0.2c0.4,0.1,0.8,0.2,1.1,0.3c0.3,0.1,0.6,0.3,0.9,0.5c0.2,0.2,0.4,0.4,0.6,0.7s0.2,0.7,0.2,1.1
			c0,0.8-0.3,1.5-0.9,1.9C364.5,100.6,363.7,100.9,362.6,100.9z"/>
		<path class="st5" d="M371.2,100.9c-0.9,0-1.5-0.2-2-0.6c-0.4-0.4-0.7-1.1-0.7-1.9v-4.7h-1.7v-1.5h1.8l0.3-2.3l1.4-0.2v2.4h2.4v1.5
			h-2.4v4.3c0,0.5,0.1,0.9,0.3,1.1c0.2,0.2,0.6,0.4,1.1,0.4c0.1,0,0.3,0,0.5,0c0.2,0,0.4-0.1,0.6-0.1v1.4c-0.2,0.1-0.5,0.1-0.8,0.2
			C371.8,100.8,371.5,100.9,371.2,100.9z"/>
		<path class="st5" d="M381.2,100.9c-1.2,0-2.1-0.4-2.7-1.1c-0.6-0.7-0.9-1.8-0.9-3.3c0-0.8,0.1-1.4,0.3-2c0.2-0.6,0.5-1.1,0.9-1.4
			c0.4-0.4,0.9-0.7,1.4-0.9c0.5-0.2,1.2-0.3,1.8-0.3c0.3,0,0.7,0,1,0c0.3,0,0.6,0.1,0.9,0.1v-4.3h1.8v12.9h-1.6l-0.1-1.1h-0.1
			C383.3,100.5,382.4,100.9,381.2,100.9z M381.6,99.5c0.3,0,0.6,0,0.9-0.1c0.3-0.1,0.5-0.2,0.7-0.4c0.2-0.2,0.4-0.4,0.5-0.6
			c0.1-0.2,0.2-0.5,0.2-0.8v-4.2c-0.3-0.1-0.6-0.1-0.9-0.1c-0.3,0-0.7,0-1,0c-0.9,0-1.5,0.2-2,0.7s-0.6,1.3-0.6,2.5
			c0,1.1,0.2,1.9,0.5,2.4C380.3,99.2,380.9,99.5,381.6,99.5z"/>
		<path class="st5" d="M389.8,100.8c-0.8,0-1.4-0.2-1.8-0.6s-0.6-1-0.6-1.7c0-0.8,0.3-1.5,0.8-1.9s1.4-0.7,2.5-0.8l2-0.2v-0.5
			c0-0.4,0-0.6-0.1-0.9c-0.1-0.2-0.2-0.4-0.3-0.6s-0.4-0.2-0.6-0.3s-0.6-0.1-1-0.1c-0.4,0-0.8,0-1.2,0.1c-0.4,0-0.9,0.1-1.4,0.2
			l-0.1-1.3c1.1-0.2,2.1-0.3,3.1-0.3c1.2,0,2.1,0.2,2.6,0.7c0.6,0.5,0.9,1.2,0.9,2.2v5.9H393l-0.2-1.1h-0.1c-0.5,0.4-1,0.7-1.5,0.9
			S390.3,100.8,389.8,100.8z M390.4,99.5c0.4,0,0.7-0.1,1.1-0.2c0.4-0.2,0.8-0.4,1.1-0.6v-2l-1.5,0.1c-0.7,0.1-1.3,0.2-1.6,0.4
			c-0.3,0.2-0.4,0.6-0.4,1.1C389.2,99.1,389.6,99.5,390.4,99.5z"/>
		<path class="st5" d="M400.2,100.9c-0.9,0-1.5-0.2-2-0.6c-0.4-0.4-0.7-1.1-0.7-1.9v-4.7h-1.7v-1.5h1.8l0.3-2.3l1.4-0.2v2.4h2.4v1.5
			h-2.4v4.3c0,0.5,0.1,0.9,0.3,1.1c0.2,0.2,0.6,0.4,1.1,0.4c0.1,0,0.3,0,0.5,0c0.2,0,0.4-0.1,0.6-0.1v1.4c-0.2,0.1-0.5,0.1-0.8,0.2
			C400.8,100.8,400.5,100.9,400.2,100.9z"/>
		<path class="st5" d="M405.1,100.8c-0.8,0-1.4-0.2-1.8-0.6s-0.6-1-0.6-1.7c0-0.8,0.3-1.5,0.8-1.9s1.4-0.7,2.5-0.8l2-0.2v-0.5
			c0-0.4,0-0.6-0.1-0.9c-0.1-0.2-0.2-0.4-0.3-0.6s-0.4-0.2-0.6-0.3s-0.6-0.1-1-0.1c-0.4,0-0.8,0-1.2,0.1c-0.4,0-0.9,0.1-1.4,0.2
			l-0.1-1.3c1.1-0.2,2.1-0.3,3.1-0.3c1.2,0,2.1,0.2,2.6,0.7c0.6,0.5,0.9,1.2,0.9,2.2v5.9h-1.5l-0.2-1.1h-0.1c-0.5,0.4-1,0.7-1.5,0.9
			S405.7,100.8,405.1,100.8z M405.8,99.5c0.4,0,0.7-0.1,1.1-0.2c0.4-0.2,0.8-0.4,1.1-0.6v-2l-1.5,0.1c-0.7,0.1-1.3,0.2-1.6,0.4
			c-0.3,0.2-0.4,0.6-0.4,1.1C404.6,99.1,405,99.5,405.8,99.5z"/>
	</g>
</g>
<g>
	<path class="st5" d="M941.8,91.3c-0.6,0-1.2,0-1.9-0.1c-0.7-0.1-1.4-0.2-2-0.4v-1.5c0.7,0.2,1.3,0.3,2,0.4c0.7,0.1,1.3,0.1,1.8,0.1
		c1.8,0,2.7-0.6,2.7-1.8c0-0.3-0.1-0.6-0.2-0.8c-0.1-0.2-0.3-0.4-0.5-0.6c-0.2-0.2-0.5-0.3-0.8-0.4c-0.3-0.1-0.7-0.2-1-0.3
		c-0.6-0.2-1.2-0.3-1.6-0.5c-0.5-0.2-0.8-0.4-1.1-0.7c-0.3-0.3-0.5-0.6-0.7-1c-0.1-0.4-0.2-0.8-0.2-1.3c0-0.5,0.1-1,0.3-1.4
		c0.2-0.4,0.5-0.8,0.8-1c0.4-0.3,0.8-0.5,1.3-0.7c0.5-0.2,1.1-0.2,1.8-0.2c0.5,0,1,0,1.5,0.1c0.5,0.1,1.1,0.2,1.8,0.3V81
		c-0.5-0.1-1-0.2-1.6-0.3c-0.6-0.1-1.1-0.1-1.5-0.1c-0.8,0-1.4,0.2-1.9,0.5c-0.4,0.3-0.7,0.8-0.7,1.3c0,0.5,0.2,1,0.6,1.3
		c0.4,0.3,1.1,0.6,2,0.8c0.6,0.1,1.1,0.3,1.5,0.5c0.4,0.2,0.8,0.4,1.2,0.7c0.3,0.3,0.6,0.6,0.7,1c0.2,0.4,0.3,0.8,0.3,1.4
		c0,1.1-0.4,1.9-1.1,2.5S943.2,91.3,941.8,91.3z"/>
	<path class="st5" d="M951.6,91.2c-1.4,0-2.4-0.4-3.1-1.1c-0.7-0.7-1-1.8-1-3.3c0-1.5,0.3-2.6,1-3.4c0.7-0.8,1.7-1.2,3-1.2
		c2.3,0,3.5,1.3,3.5,3.9c0,0.5,0,0.9-0.1,1.2h-5.6c0.1,0.9,0.3,1.5,0.7,1.9c0.4,0.4,1,0.6,1.9,0.6c0.4,0,0.9,0,1.4-0.1
		c0.5-0.1,1-0.2,1.4-0.3l0.1,1.3c-0.4,0.2-0.9,0.3-1.5,0.4C952.6,91.2,952.1,91.2,951.6,91.2z M951.5,83.6c-0.7,0-1.2,0.2-1.6,0.6
		c-0.4,0.4-0.6,1.1-0.6,2h4.1c0-0.9-0.2-1.6-0.5-2C952.6,83.8,952.1,83.6,951.5,83.6z"/>
	<path class="st5" d="M956.8,82.5h1.5l0.1,1h0.1c0.8-0.4,1.5-0.7,2.1-0.9c0.6-0.2,1.1-0.3,1.6-0.3c0.7,0,1.3,0.2,1.7,0.6
		c0.4,0.4,0.6,1,0.6,1.8v6.4h-1.8v-5.8c0-0.5-0.1-0.9-0.3-1.2c-0.2-0.2-0.5-0.4-1-0.4c-0.4,0-0.8,0.1-1.3,0.2
		c-0.5,0.2-1,0.4-1.6,0.6v6.5h-1.8V82.5z"/>
	<path class="st5" d="M969.9,91.3c-1.2,0-2.1-0.4-2.7-1.1c-0.6-0.7-0.9-1.8-0.9-3.3c0-0.8,0.1-1.4,0.3-2s0.5-1.1,0.9-1.4
		c0.4-0.4,0.9-0.7,1.4-0.9s1.2-0.3,1.8-0.3c0.3,0,0.7,0,1,0s0.6,0.1,0.9,0.1v-4.3h1.8v12.9h-1.6l-0.1-1.1h-0.1
		C972,90.9,971.1,91.3,969.9,91.3z M970.4,89.9c0.3,0,0.6,0,0.9-0.1c0.3-0.1,0.5-0.2,0.7-0.4s0.4-0.4,0.5-0.6s0.2-0.5,0.2-0.8v-4.2
		c-0.3-0.1-0.6-0.1-0.9-0.1c-0.3,0-0.7,0-1,0c-0.9,0-1.5,0.2-2,0.7s-0.6,1.3-0.6,2.5c0,1.1,0.2,1.9,0.5,2.4S969.6,89.9,970.4,89.9z"
		/>
	<path class="st5" d="M982.1,91.2c-0.8,0-1.4-0.2-1.8-0.6c-0.4-0.4-0.6-1-0.6-1.7c0-0.8,0.3-1.5,0.8-1.9c0.5-0.4,1.4-0.7,2.5-0.8
		l2-0.2v-0.5c0-0.4,0-0.6-0.1-0.9c-0.1-0.2-0.2-0.4-0.3-0.6c-0.2-0.1-0.4-0.2-0.6-0.3c-0.3-0.1-0.6-0.1-1-0.1c-0.4,0-0.8,0-1.2,0.1
		c-0.4,0-0.9,0.1-1.4,0.2l-0.1-1.3c1.1-0.2,2.1-0.3,3.1-0.3c1.2,0,2.1,0.2,2.6,0.7c0.6,0.5,0.9,1.2,0.9,2.2v5.9h-1.5l-0.2-1.1h-0.1
		c-0.5,0.4-1,0.7-1.5,0.9S982.6,91.2,982.1,91.2z M982.8,89.9c0.4,0,0.7-0.1,1.1-0.2c0.4-0.2,0.8-0.4,1.1-0.6v-2l-1.5,0.1
		c-0.7,0.1-1.3,0.2-1.6,0.4c-0.3,0.2-0.4,0.6-0.4,1.1C981.6,89.5,982,89.9,982.8,89.9z"/>
	<path class="st5" d="M989.1,82.5h1.5l0.1,1h0.1c0.8-0.4,1.5-0.7,2.1-0.9c0.6-0.2,1.1-0.3,1.6-0.3c0.7,0,1.3,0.2,1.7,0.6
		s0.6,1,0.6,1.8v6.4H995v-5.8c0-0.5-0.1-0.9-0.3-1.2c-0.2-0.2-0.5-0.4-1-0.4c-0.4,0-0.8,0.1-1.3,0.2c-0.5,0.2-1,0.4-1.6,0.6v6.5
		h-1.8V82.5z"/>
	<path class="st5" d="M1006.4,91.2c-1.4,0-2.4-0.4-3.1-1.1c-0.7-0.7-1-1.8-1-3.3c0-1.5,0.3-2.6,1-3.4c0.7-0.8,1.7-1.2,3-1.2
		c2.3,0,3.5,1.3,3.5,3.9c0,0.5,0,0.9-0.1,1.2h-5.6c0.1,0.9,0.3,1.5,0.7,1.9c0.4,0.4,1,0.6,1.9,0.6c0.4,0,0.9,0,1.4-0.1
		c0.5-0.1,1-0.2,1.4-0.3l0.1,1.3c-0.4,0.2-0.9,0.3-1.5,0.4C1007.4,91.2,1006.9,91.2,1006.4,91.2z M1006.3,83.6
		c-0.7,0-1.2,0.2-1.6,0.6c-0.4,0.4-0.6,1.1-0.6,2h4.1c0-0.9-0.2-1.6-0.5-2C1007.4,83.8,1006.9,83.6,1006.3,83.6z"/>
	<path class="st5" d="M1011.6,82.5h1.5l0.1,1h0.1c0.7-0.4,1.2-0.7,1.7-0.9s1-0.3,1.4-0.3c1,0,1.7,0.4,2.1,1.2h0.1
		c0.7-0.4,1.3-0.7,1.8-0.9s1-0.3,1.4-0.3c0.7,0,1.3,0.2,1.7,0.6c0.4,0.4,0.6,1,0.6,1.8v6.4h-1.8v-5.8c0-0.5-0.1-0.9-0.3-1.2
		c-0.2-0.2-0.5-0.3-1-0.3c-0.3,0-0.6,0.1-1,0.2c-0.4,0.1-0.8,0.3-1.2,0.6v6.5h-1.8v-5.8c0-0.5-0.1-0.9-0.3-1.2
		c-0.2-0.2-0.5-0.3-1-0.3c-0.3,0-0.7,0.1-1.1,0.2c-0.4,0.1-0.8,0.3-1.2,0.6v6.5h-1.8V82.5z"/>
	<path class="st5" d="M1028.1,91.2c-0.8,0-1.4-0.2-1.8-0.6c-0.4-0.4-0.6-1-0.6-1.7c0-0.8,0.3-1.5,0.8-1.9c0.5-0.4,1.4-0.7,2.5-0.8
		l2-0.2v-0.5c0-0.4,0-0.6-0.1-0.9c-0.1-0.2-0.2-0.4-0.3-0.6c-0.2-0.1-0.4-0.2-0.6-0.3c-0.3-0.1-0.6-0.1-1-0.1c-0.4,0-0.8,0-1.2,0.1
		s-0.9,0.1-1.4,0.2l-0.1-1.3c1.1-0.2,2.1-0.3,3.1-0.3c1.2,0,2.1,0.2,2.6,0.7s0.9,1.2,0.9,2.2v5.9h-1.5l-0.2-1.1h-0.1
		c-0.5,0.4-1,0.7-1.5,0.9C1029.1,91.1,1028.6,91.2,1028.1,91.2z M1028.8,89.9c0.4,0,0.7-0.1,1.1-0.2s0.8-0.4,1.1-0.6v-2l-1.5,0.1
		c-0.7,0.1-1.3,0.2-1.6,0.4c-0.3,0.2-0.4,0.6-0.4,1.1C1027.6,89.5,1028,89.9,1028.8,89.9z"/>
	<path class="st5" d="M1036,80.8c-0.4,0-0.6-0.1-0.8-0.2s-0.2-0.4-0.2-0.8c0-0.4,0.1-0.6,0.2-0.8c0.2-0.2,0.4-0.2,0.8-0.2
		c0.4,0,0.6,0.1,0.8,0.3s0.2,0.4,0.2,0.8c0,0.3-0.1,0.6-0.2,0.8C1036.6,80.7,1036.4,80.8,1036,80.8z M1035.1,82.5h1.8v8.6h-1.8V82.5
		z"/>
	<path class="st5" d="M1039.2,78.2h1.8v12.9h-1.8V78.2z"/>
	<path class="st5" d="M1050.5,91.3c-0.9,0-1.5-0.2-2-0.6c-0.4-0.4-0.7-1.1-0.7-1.9V84h-1.7v-1.5h1.8l0.3-2.3l1.4-0.2v2.4h2.4V84
		h-2.4v4.3c0,0.5,0.1,0.9,0.3,1.1c0.2,0.2,0.6,0.4,1.1,0.4c0.1,0,0.3,0,0.5,0s0.4-0.1,0.6-0.1v1.4c-0.2,0.1-0.5,0.1-0.8,0.2
		C1051,91.2,1050.7,91.3,1050.5,91.3z"/>
	<path class="st5" d="M1057.3,91.3c-1.4,0-2.4-0.4-3.1-1.1s-1.1-1.9-1.1-3.3c0-1.5,0.4-2.6,1.1-3.3s1.8-1.1,3.1-1.1s2.4,0.4,3.1,1.1
		c0.7,0.8,1.1,1.9,1.1,3.3c0,1.5-0.4,2.6-1.1,3.3C1059.7,90.9,1058.7,91.3,1057.3,91.3z M1057.3,89.8c0.8,0,1.4-0.2,1.8-0.7
		s0.6-1.3,0.6-2.3c0-1.1-0.2-1.9-0.6-2.3s-1-0.7-1.8-0.7s-1.4,0.2-1.8,0.7c-0.4,0.5-0.6,1.3-0.6,2.3c0,1.1,0.2,1.9,0.6,2.3
		C1055.9,89.6,1056.5,89.8,1057.3,89.8z"/>
	<path class="st5" d="M934.4,110.5c-0.9,0-1.5-0.2-2-0.6c-0.4-0.4-0.7-1.1-0.7-1.9v-4.7H930v-1.5h1.8l0.3-2.3l1.4-0.2v2.4h2.4v1.5
		h-2.4v4.3c0,0.5,0.1,0.9,0.3,1.1c0.2,0.2,0.6,0.4,1.1,0.4c0.1,0,0.3,0,0.5,0s0.4-0.1,0.6-0.1v1.4c-0.2,0.1-0.5,0.1-0.8,0.2
		C935,110.4,934.7,110.5,934.4,110.5z"/>
	<path class="st5" d="M937.5,97.4h1.8v5.2c0.8-0.4,1.5-0.7,2-0.8s1.1-0.3,1.6-0.3c0.7,0,1.3,0.2,1.7,0.6s0.6,1,0.6,1.8v6.4h-1.8
		v-5.8c0-0.5-0.1-0.9-0.3-1.2c-0.2-0.2-0.5-0.4-1-0.4c-0.4,0-0.8,0.1-1.3,0.2c-0.5,0.2-1,0.4-1.6,0.6v6.5h-1.8V97.4z"/>
	<path class="st5" d="M951.2,110.4c-1.4,0-2.4-0.4-3.1-1.1c-0.7-0.7-1-1.8-1-3.3c0-1.5,0.3-2.6,1-3.4c0.7-0.8,1.7-1.2,3-1.2
		c2.3,0,3.5,1.3,3.5,3.9c0,0.5,0,0.9-0.1,1.2h-5.6c0.1,0.9,0.3,1.5,0.7,1.9c0.4,0.4,1,0.6,1.9,0.6c0.4,0,0.9,0,1.4-0.1
		c0.5-0.1,1-0.2,1.4-0.3l0.1,1.3c-0.4,0.2-0.9,0.3-1.5,0.4C952.2,110.4,951.7,110.4,951.2,110.4z M951,102.8c-0.7,0-1.2,0.2-1.6,0.6
		c-0.4,0.4-0.6,1.1-0.6,2h4.1c0-0.9-0.2-1.6-0.5-2C952.2,103,951.7,102.8,951,102.8z"/>
	<path class="st5" d="M962.7,110.5c-0.4,0-0.9,0-1.4-0.1s-1.1-0.2-1.7-0.3v-1.4c0.6,0.1,1.1,0.2,1.6,0.3c0.5,0.1,1,0.1,1.4,0.1
		c1.2,0,1.8-0.4,1.8-1.2c0-0.4-0.2-0.7-0.5-0.9s-0.7-0.3-1.2-0.4c-0.3-0.1-0.7-0.1-1-0.2c-0.4-0.1-0.7-0.2-1-0.4
		c-0.3-0.2-0.5-0.4-0.7-0.7c-0.2-0.3-0.3-0.7-0.3-1.3c0-0.8,0.3-1.4,0.9-1.9c0.6-0.5,1.4-0.7,2.5-0.7c0.2,0,0.4,0,0.6,0
		s0.4,0,0.6,0.1c0.2,0,0.4,0.1,0.7,0.1c0.2,0,0.5,0.1,0.9,0.2l-0.1,1.4c-0.6-0.1-1-0.2-1.4-0.3c-0.4-0.1-0.8-0.1-1.1-0.1
		c-0.6,0-1,0.1-1.3,0.3c-0.3,0.2-0.4,0.5-0.4,0.9c0,0.2,0,0.4,0.1,0.6c0.1,0.1,0.2,0.3,0.4,0.4c0.2,0.1,0.4,0.2,0.6,0.2
		s0.5,0.1,0.8,0.2c0.4,0.1,0.8,0.2,1.1,0.3c0.3,0.1,0.6,0.3,0.9,0.5c0.2,0.2,0.4,0.4,0.6,0.7c0.1,0.3,0.2,0.7,0.2,1.1
		c0,0.8-0.3,1.5-0.9,1.9S963.8,110.5,962.7,110.5z"/>
	<path class="st5" d="M971.4,110.5c-0.9,0-1.5-0.2-2-0.6c-0.4-0.4-0.7-1.1-0.7-1.9v-4.7H967v-1.5h1.8l0.3-2.3l1.4-0.2v2.4h2.4v1.5
		h-2.4v4.3c0,0.5,0.1,0.9,0.3,1.1c0.2,0.2,0.6,0.4,1.1,0.4c0.1,0,0.3,0,0.5,0c0.2,0,0.4-0.1,0.6-0.1v1.4c-0.2,0.1-0.5,0.1-0.8,0.2
		C971.9,110.4,971.6,110.5,971.4,110.5z"/>
	<path class="st5" d="M978.2,110.5c-1.4,0-2.4-0.4-3.1-1.1c-0.7-0.8-1.1-1.9-1.1-3.3c0-1.5,0.4-2.6,1.1-3.3c0.7-0.8,1.8-1.1,3.1-1.1
		s2.4,0.4,3.1,1.1s1.1,1.9,1.1,3.3c0,1.5-0.4,2.6-1.1,3.3S979.6,110.5,978.2,110.5z M978.2,109c0.8,0,1.4-0.2,1.8-0.7
		c0.4-0.5,0.6-1.3,0.6-2.3c0-1.1-0.2-1.9-0.6-2.3c-0.4-0.5-1-0.7-1.8-0.7s-1.4,0.2-1.8,0.7s-0.6,1.3-0.6,2.3c0,1.1,0.2,1.9,0.6,2.3
		S977.4,109,978.2,109z"/>
	<path class="st5" d="M984.2,101.7h1.5l0.1,1.2h0.1c0.5-0.3,1.1-0.6,1.6-0.9c0.5-0.2,1-0.4,1.4-0.5h0.6v1.6h-0.6
		c-0.5,0.1-1,0.2-1.4,0.4c-0.5,0.2-0.9,0.4-1.4,0.6v6.2h-1.8V101.7z"/>
	<path class="st5" d="M994.5,110.4c-1.4,0-2.4-0.4-3.1-1.1c-0.7-0.7-1-1.8-1-3.3c0-1.5,0.3-2.6,1-3.4c0.7-0.8,1.7-1.2,3-1.2
		c2.3,0,3.5,1.3,3.5,3.9c0,0.5,0,0.9-0.1,1.2h-5.6c0.1,0.9,0.3,1.5,0.7,1.9c0.4,0.4,1,0.6,1.9,0.6c0.4,0,0.9,0,1.4-0.1
		c0.5-0.1,1-0.2,1.4-0.3l0.1,1.3c-0.4,0.2-0.9,0.3-1.5,0.4C995.6,110.4,995,110.4,994.5,110.4z M994.4,102.8c-0.7,0-1.2,0.2-1.6,0.6
		c-0.4,0.4-0.6,1.1-0.6,2h4.1c0-0.9-0.2-1.6-0.5-2C995.5,103,995,102.8,994.4,102.8z"/>
	<path class="st5" d="M1002.4,110.5c-0.4,0-0.9,0-1.4-0.1s-1.1-0.2-1.7-0.3v-1.4c0.6,0.1,1.1,0.2,1.6,0.3c0.5,0.1,1,0.1,1.4,0.1
		c1.2,0,1.8-0.4,1.8-1.2c0-0.4-0.2-0.7-0.5-0.9s-0.7-0.3-1.2-0.4c-0.3-0.1-0.7-0.1-1-0.2c-0.4-0.1-0.7-0.2-1-0.4
		c-0.3-0.2-0.5-0.4-0.7-0.7c-0.2-0.3-0.3-0.7-0.3-1.3c0-0.8,0.3-1.4,0.9-1.9c0.6-0.5,1.4-0.7,2.5-0.7c0.2,0,0.4,0,0.6,0
		s0.4,0,0.6,0.1c0.2,0,0.4,0.1,0.7,0.1c0.2,0,0.5,0.1,0.9,0.2l-0.1,1.4c-0.6-0.1-1-0.2-1.4-0.3c-0.4-0.1-0.8-0.1-1.1-0.1
		c-0.6,0-1,0.1-1.3,0.3c-0.3,0.2-0.4,0.5-0.4,0.9c0,0.2,0,0.4,0.1,0.6c0.1,0.1,0.2,0.3,0.4,0.4c0.2,0.1,0.4,0.2,0.6,0.2
		s0.5,0.1,0.8,0.2c0.4,0.1,0.8,0.2,1.1,0.3c0.3,0.1,0.6,0.3,0.9,0.5c0.2,0.2,0.4,0.4,0.6,0.7c0.1,0.3,0.2,0.7,0.2,1.1
		c0,0.8-0.3,1.5-0.9,1.9S1003.5,110.5,1002.4,110.5z"/>
	<path class="st5" d="M1009,97.3c0.1,0.4,0.2,0.8,0.2,1.4c0,0.5-0.1,1.1-0.3,1.7c-0.2,0.6-0.4,1.2-0.8,1.6l-1-0.1
		c0.2-0.4,0.3-0.8,0.4-1.4s0.1-1,0.1-1.5c0-0.3,0-0.6-0.1-0.8c0-0.3-0.1-0.6-0.2-0.9L1009,97.3z"/>
	<path class="st5" d="M1018.5,110.5c-1.4,0-2.4-0.4-3.1-1.1s-1.1-1.9-1.1-3.3c0-1.5,0.4-2.6,1.1-3.3s1.8-1.1,3.1-1.1
		s2.4,0.4,3.1,1.1c0.7,0.8,1.1,1.9,1.1,3.3c0,1.5-0.4,2.6-1.1,3.3C1020.9,110.1,1019.8,110.5,1018.5,110.5z M1018.5,109
		c0.8,0,1.4-0.2,1.8-0.7s0.6-1.3,0.6-2.3c0-1.1-0.2-1.9-0.6-2.3s-1-0.7-1.8-0.7s-1.4,0.2-1.8,0.7c-0.4,0.5-0.6,1.3-0.6,2.3
		c0,1.1,0.2,1.9,0.6,2.3C1017,108.8,1017.6,109,1018.5,109z"/>
	<path class="st5" d="M1023.7,101.8L1023.7,101.8l1.7-0.1l1.4,5.7l0.3,1.2h0.1l0.3-1.2l1.6-5.7h1.6l1.6,5.7l0.3,1.2h0.1l0.3-1.2
		l1.3-5.7h1.7v0.1l-2.3,8.5h-2l-1.6-5.4l-0.2-1.1h-0.1l-0.2,1.1l-1.5,5.4h-2L1023.7,101.8z"/>
	<path class="st5" d="M1037.5,101.7h1.5l0.1,1h0.1c0.8-0.4,1.5-0.7,2.1-0.9c0.6-0.2,1.1-0.3,1.6-0.3c0.7,0,1.3,0.2,1.7,0.6
		c0.4,0.4,0.6,1,0.6,1.8v6.4h-1.8v-5.8c0-0.5-0.1-0.9-0.3-1.2c-0.2-0.2-0.5-0.4-1-0.4c-0.4,0-0.8,0.1-1.3,0.2
		c-0.5,0.2-1,0.4-1.6,0.6v6.5h-1.8V101.7z"/>
	<path class="st5" d="M1051.2,110.4c-1.4,0-2.4-0.4-3.1-1.1c-0.7-0.7-1-1.8-1-3.3c0-1.5,0.3-2.6,1-3.4c0.7-0.8,1.7-1.2,3-1.2
		c2.3,0,3.5,1.3,3.5,3.9c0,0.5,0,0.9-0.1,1.2h-5.6c0.1,0.9,0.3,1.5,0.7,1.9c0.4,0.4,1,0.6,1.9,0.6c0.4,0,0.9,0,1.4-0.1
		c0.5-0.1,1-0.2,1.4-0.3l0.1,1.3c-0.4,0.2-0.9,0.3-1.5,0.4C1052.2,110.4,1051.7,110.4,1051.2,110.4z M1051,102.8
		c-0.7,0-1.2,0.2-1.6,0.6c-0.4,0.4-0.6,1.1-0.6,2h4.1c0-0.9-0.2-1.6-0.5-2C1052.2,103,1051.7,102.8,1051,102.8z"/>
	<path class="st5" d="M1056.4,101.7h1.5l0.1,1.2h0.1c0.5-0.3,1.1-0.6,1.6-0.9c0.5-0.2,1-0.4,1.4-0.5h0.6v1.6h-0.6
		c-0.5,0.1-1,0.2-1.4,0.4c-0.5,0.2-0.9,0.4-1.4,0.6v6.2h-1.8V101.7z"/>
	<path class="st5" d="M1065.6,110.5c-0.4,0-0.9,0-1.4-0.1c-0.5-0.1-1.1-0.2-1.7-0.3v-1.4c0.6,0.1,1.1,0.2,1.6,0.3s1,0.1,1.4,0.1
		c1.2,0,1.8-0.4,1.8-1.2c0-0.4-0.2-0.7-0.5-0.9c-0.3-0.2-0.7-0.3-1.2-0.4c-0.3-0.1-0.7-0.1-1-0.2c-0.4-0.1-0.7-0.2-1-0.4
		c-0.3-0.2-0.5-0.4-0.7-0.7c-0.2-0.3-0.3-0.7-0.3-1.3c0-0.8,0.3-1.4,0.9-1.9c0.6-0.5,1.4-0.7,2.5-0.7c0.2,0,0.4,0,0.6,0
		c0.2,0,0.4,0,0.6,0.1s0.4,0.1,0.7,0.1c0.2,0,0.5,0.1,0.9,0.2l-0.1,1.4c-0.6-0.1-1-0.2-1.4-0.3c-0.4-0.1-0.8-0.1-1.1-0.1
		c-0.6,0-1,0.1-1.3,0.3s-0.4,0.5-0.4,0.9c0,0.2,0,0.4,0.1,0.6c0.1,0.1,0.2,0.3,0.4,0.4c0.2,0.1,0.4,0.2,0.6,0.2s0.5,0.1,0.8,0.2
		c0.4,0.1,0.8,0.2,1.1,0.3c0.3,0.1,0.6,0.3,0.9,0.5c0.2,0.2,0.4,0.4,0.6,0.7c0.1,0.3,0.2,0.7,0.2,1.1c0,0.8-0.3,1.5-0.9,1.9
		C1067.5,110.2,1066.7,110.5,1065.6,110.5z"/>
</g>
<g>
	<path class="st5" d="M930,347.1c-0.6,0-1.2,0-1.9-0.1s-1.4-0.2-2-0.4v-1.5c0.7,0.2,1.3,0.3,2,0.4c0.7,0.1,1.3,0.1,1.8,0.1
		c1.8,0,2.7-0.6,2.7-1.8c0-0.3-0.1-0.6-0.2-0.8s-0.3-0.4-0.5-0.6s-0.5-0.3-0.8-0.4s-0.7-0.2-1-0.3c-0.6-0.2-1.2-0.3-1.6-0.5
		c-0.5-0.2-0.8-0.4-1.1-0.7s-0.5-0.6-0.7-1c-0.1-0.4-0.2-0.8-0.2-1.3c0-0.5,0.1-1,0.3-1.4s0.5-0.8,0.8-1c0.4-0.3,0.8-0.5,1.3-0.7
		c0.5-0.2,1.1-0.2,1.8-0.2c0.5,0,1,0,1.5,0.1c0.5,0.1,1.1,0.2,1.8,0.3v1.5c-0.5-0.1-1-0.2-1.6-0.3c-0.6-0.1-1.1-0.1-1.5-0.1
		c-0.8,0-1.4,0.2-1.9,0.5c-0.4,0.3-0.7,0.8-0.7,1.3c0,0.5,0.2,1,0.6,1.3c0.4,0.3,1.1,0.6,2,0.8c0.6,0.1,1.1,0.3,1.5,0.5
		c0.4,0.2,0.8,0.4,1.2,0.7c0.3,0.3,0.6,0.6,0.7,1c0.2,0.4,0.3,0.8,0.3,1.4c0,1.1-0.4,1.9-1.1,2.5C932.6,346.8,931.5,347.1,930,347.1
		z"/>
	<path class="st5" d="M939.9,347c-1.4,0-2.4-0.4-3.1-1.1c-0.7-0.7-1-1.8-1-3.3c0-1.5,0.3-2.6,1-3.4c0.7-0.8,1.7-1.2,3-1.2
		c2.3,0,3.5,1.3,3.5,3.9c0,0.5,0,0.9-0.1,1.2h-5.6c0.1,0.9,0.3,1.5,0.7,1.9s1,0.6,1.9,0.6c0.4,0,0.9,0,1.4-0.1
		c0.5-0.1,1-0.2,1.4-0.3l0.1,1.3c-0.4,0.2-0.9,0.3-1.5,0.4C940.9,347,940.4,347,939.9,347z M939.7,339.4c-0.7,0-1.2,0.2-1.6,0.6
		c-0.4,0.4-0.6,1.1-0.6,2h4.1c0-0.9-0.2-1.6-0.5-2C940.9,339.6,940.4,339.4,939.7,339.4z"/>
	<path class="st5" d="M945.1,338.3h1.5l0.1,1h0.1c0.8-0.4,1.5-0.7,2.1-0.9c0.6-0.2,1.1-0.3,1.6-0.3c0.7,0,1.3,0.2,1.7,0.6
		c0.4,0.4,0.6,1,0.6,1.8v6.4H951v-5.8c0-0.5-0.1-0.9-0.3-1.2s-0.5-0.4-1-0.4c-0.4,0-0.8,0.1-1.3,0.2c-0.5,0.2-1,0.4-1.6,0.6v6.5
		h-1.8V338.3z"/>
	<path class="st5" d="M958.2,347.1c-1.2,0-2.1-0.4-2.7-1.1c-0.6-0.7-0.9-1.8-0.9-3.3c0-0.8,0.1-1.4,0.3-2c0.2-0.6,0.5-1.1,0.9-1.4
		c0.4-0.4,0.9-0.7,1.4-0.9c0.5-0.2,1.2-0.3,1.8-0.3c0.3,0,0.7,0,1,0c0.3,0,0.6,0.1,0.9,0.1V334h1.8v12.9h-1.6l-0.1-1.1h-0.1
		C960.2,346.7,959.4,347.1,958.2,347.1z M958.6,345.7c0.3,0,0.6,0,0.9-0.1c0.3-0.1,0.5-0.2,0.7-0.4c0.2-0.2,0.4-0.4,0.5-0.6
		c0.1-0.2,0.2-0.5,0.2-0.8v-4.2c-0.3-0.1-0.6-0.1-0.9-0.1c-0.3,0-0.7,0-1,0c-0.9,0-1.5,0.2-2,0.7s-0.6,1.3-0.6,2.5
		c0,1.1,0.2,1.9,0.5,2.4C957.3,345.4,957.8,345.7,958.6,345.7z"/>
	<path class="st5" d="M970.4,347c-0.8,0-1.4-0.2-1.8-0.6c-0.4-0.4-0.6-1-0.6-1.7c0-0.8,0.3-1.5,0.8-1.9c0.5-0.4,1.4-0.7,2.5-0.8
		l2-0.2v-0.5c0-0.4,0-0.6-0.1-0.9s-0.2-0.4-0.3-0.6c-0.2-0.1-0.4-0.2-0.6-0.3s-0.6-0.1-1-0.1c-0.4,0-0.8,0-1.2,0.1s-0.9,0.1-1.4,0.2
		l-0.1-1.3c1.1-0.2,2.1-0.3,3.1-0.3c1.2,0,2.1,0.2,2.6,0.7s0.9,1.2,0.9,2.2v5.9h-1.5l-0.2-1.1h-0.1c-0.5,0.4-1,0.7-1.5,0.9
		S970.9,347,970.4,347z M971.1,345.7c0.4,0,0.7-0.1,1.1-0.2c0.4-0.2,0.8-0.4,1.1-0.6v-2l-1.5,0.1c-0.7,0.1-1.3,0.2-1.6,0.4
		c-0.3,0.2-0.4,0.6-0.4,1.1C969.8,345.3,970.2,345.7,971.1,345.7z"/>
	<path class="st5" d="M977.3,338.3h1.5l0.1,1h0.1c0.8-0.4,1.5-0.7,2.1-0.9s1.1-0.3,1.6-0.3c0.7,0,1.3,0.2,1.7,0.6
		c0.4,0.4,0.6,1,0.6,1.8v6.4h-1.8v-5.8c0-0.5-0.1-0.9-0.3-1.2s-0.5-0.4-1-0.4c-0.4,0-0.8,0.1-1.3,0.2c-0.5,0.2-1,0.4-1.6,0.6v6.5
		h-1.8V338.3z"/>
	<path class="st5" d="M992.8,347c-0.8,0-1.4-0.2-1.8-0.6c-0.4-0.4-0.6-1-0.6-1.7c0-0.8,0.3-1.5,0.8-1.9c0.5-0.4,1.4-0.7,2.5-0.8
		l2-0.2v-0.5c0-0.4,0-0.6-0.1-0.9s-0.2-0.4-0.3-0.6c-0.2-0.1-0.4-0.2-0.6-0.3s-0.6-0.1-1-0.1c-0.4,0-0.8,0-1.2,0.1s-0.9,0.1-1.4,0.2
		l-0.1-1.3c1.1-0.2,2.1-0.3,3.1-0.3c1.2,0,2.1,0.2,2.6,0.7s0.9,1.2,0.9,2.2v5.9H996l-0.2-1.1h-0.1c-0.5,0.4-1,0.7-1.5,0.9
		S993.3,347,992.8,347z M993.4,345.7c0.4,0,0.7-0.1,1.1-0.2c0.4-0.2,0.8-0.4,1.1-0.6v-2l-1.5,0.1c-0.7,0.1-1.3,0.2-1.6,0.4
		c-0.3,0.2-0.4,0.6-0.4,1.1C992.2,345.3,992.6,345.7,993.4,345.7z"/>
	<path class="st5" d="M999.7,334h1.8v12.9h-1.8V334z"/>
	<path class="st5" d="M1007.6,347c-1.4,0-2.4-0.4-3.1-1.1c-0.7-0.7-1-1.8-1-3.3c0-1.5,0.3-2.6,1-3.4c0.7-0.8,1.7-1.2,3-1.2
		c2.3,0,3.5,1.3,3.5,3.9c0,0.5,0,0.9-0.1,1.2h-5.6c0.1,0.9,0.3,1.5,0.7,1.9s1,0.6,1.9,0.6c0.4,0,0.9,0,1.4-0.1
		c0.5-0.1,1-0.2,1.4-0.3l0.1,1.3c-0.4,0.2-0.9,0.3-1.5,0.4C1008.6,347,1008.1,347,1007.6,347z M1007.4,339.4c-0.7,0-1.2,0.2-1.6,0.6
		c-0.4,0.4-0.6,1.1-0.6,2h4.1c0-0.9-0.2-1.6-0.5-2C1008.6,339.6,1008.1,339.4,1007.4,339.4z"/>
	<path class="st5" d="M1012.8,338.3h1.5l0.1,1.2h0.1c0.5-0.3,1.1-0.6,1.6-0.9s1-0.4,1.4-0.5h0.6v1.6h-0.6c-0.5,0.1-1,0.2-1.4,0.4
		s-0.9,0.4-1.4,0.6v6.2h-1.8V338.3z"/>
	<path class="st5" d="M1022.8,347.1c-0.9,0-1.5-0.2-2-0.6s-0.7-1.1-0.7-1.9v-4.7h-1.7v-1.5h1.8l0.3-2.3l1.4-0.2v2.4h2.4v1.5h-2.4
		v4.3c0,0.5,0.1,0.9,0.3,1.1s0.6,0.4,1.1,0.4c0.1,0,0.3,0,0.5,0c0.2,0,0.4-0.1,0.6-0.1v1.4c-0.2,0.1-0.5,0.1-0.8,0.2
		C1023.4,347,1023.1,347.1,1022.8,347.1z"/>
	<path class="st5" d="M1033.1,347.1c-0.9,0-1.5-0.2-2-0.6s-0.7-1.1-0.7-1.9v-4.7h-1.7v-1.5h1.8l0.3-2.3l1.4-0.2v2.4h2.4v1.5h-2.4
		v4.3c0,0.5,0.1,0.9,0.3,1.1s0.6,0.4,1.1,0.4c0.1,0,0.3,0,0.5,0c0.2,0,0.4-0.1,0.6-0.1v1.4c-0.2,0.1-0.5,0.1-0.8,0.2
		C1033.6,347,1033.4,347.1,1033.1,347.1z"/>
	<path class="st5" d="M1039.9,347.1c-1.4,0-2.4-0.4-3.1-1.1s-1.1-1.9-1.1-3.3c0-1.5,0.4-2.6,1.1-3.3s1.8-1.1,3.1-1.1
		s2.4,0.4,3.1,1.1c0.7,0.8,1.1,1.9,1.1,3.3c0,1.5-0.4,2.6-1.1,3.3C1042.3,346.7,1041.3,347.1,1039.9,347.1z M1039.9,345.6
		c0.8,0,1.4-0.2,1.8-0.7c0.4-0.5,0.6-1.3,0.6-2.3s-0.2-1.9-0.6-2.3c-0.4-0.5-1-0.7-1.8-0.7s-1.4,0.2-1.8,0.7
		c-0.4,0.5-0.6,1.3-0.6,2.3s0.2,1.9,0.6,2.3C1038.5,345.4,1039.1,345.6,1039.9,345.6z"/>
	<path class="st5" d="M1053.1,347.1c-0.9,0-1.5-0.2-2-0.6s-0.7-1.1-0.7-1.9v-4.7h-1.7v-1.5h1.8l0.3-2.3l1.4-0.2v2.4h2.4v1.5h-2.4
		v4.3c0,0.5,0.1,0.9,0.3,1.1s0.6,0.4,1.1,0.4c0.1,0,0.3,0,0.5,0c0.2,0,0.4-0.1,0.6-0.1v1.4c-0.2,0.1-0.5,0.1-0.8,0.2
		C1053.7,347,1053.4,347.1,1053.1,347.1z"/>
	<path class="st5" d="M1056.2,334h1.8v5.2c0.8-0.4,1.5-0.7,2-0.8c0.6-0.2,1.1-0.3,1.6-0.3c0.7,0,1.3,0.2,1.7,0.6
		c0.4,0.4,0.6,1,0.6,1.8v6.4h-1.8v-5.8c0-0.5-0.1-0.9-0.3-1.2c-0.2-0.2-0.5-0.4-1-0.4c-0.4,0-0.8,0.1-1.3,0.2
		c-0.5,0.2-1,0.4-1.6,0.6v6.5h-1.8V334z"/>
	<path class="st5" d="M1069.9,347c-1.4,0-2.4-0.4-3.1-1.1c-0.7-0.7-1-1.8-1-3.3c0-1.5,0.3-2.6,1-3.4c0.7-0.8,1.7-1.2,3-1.2
		c2.3,0,3.5,1.3,3.5,3.9c0,0.5,0,0.9-0.1,1.2h-5.6c0.1,0.9,0.3,1.5,0.7,1.9s1,0.6,1.9,0.6c0.4,0,0.9,0,1.4-0.1
		c0.5-0.1,1-0.2,1.4-0.3l0.1,1.3c-0.4,0.2-0.9,0.3-1.5,0.4C1070.9,347,1070.4,347,1069.9,347z M1069.7,339.4c-0.7,0-1.2,0.2-1.6,0.6
		c-0.4,0.4-0.6,1.1-0.6,2h4.1c0-0.9-0.2-1.6-0.5-2C1070.9,339.6,1070.4,339.4,1069.7,339.4z"/>
	<path class="st5" d="M910.7,366.3c-0.4,0-0.9,0-1.4-0.1c-0.5-0.1-1.1-0.2-1.7-0.3v-1.4c0.6,0.1,1.1,0.2,1.6,0.3s1,0.1,1.4,0.1
		c1.2,0,1.8-0.4,1.8-1.2c0-0.4-0.2-0.7-0.5-0.9s-0.7-0.3-1.2-0.4c-0.3-0.1-0.7-0.1-1-0.2c-0.4-0.1-0.7-0.2-1-0.4s-0.5-0.4-0.7-0.7
		s-0.3-0.7-0.3-1.3c0-0.8,0.3-1.4,0.9-1.9c0.6-0.5,1.4-0.7,2.5-0.7c0.2,0,0.4,0,0.6,0s0.4,0,0.6,0.1c0.2,0,0.4,0.1,0.7,0.1
		c0.3,0,0.5,0.1,0.9,0.2l-0.1,1.4c-0.6-0.1-1-0.2-1.4-0.3c-0.4-0.1-0.8-0.1-1.1-0.1c-0.6,0-1,0.1-1.3,0.3s-0.4,0.5-0.4,0.9
		c0,0.2,0,0.4,0.1,0.6c0.1,0.1,0.2,0.3,0.4,0.4c0.2,0.1,0.4,0.2,0.6,0.2c0.2,0.1,0.5,0.1,0.8,0.2c0.4,0.1,0.8,0.2,1.1,0.3
		s0.6,0.3,0.9,0.5c0.2,0.2,0.4,0.4,0.6,0.7c0.1,0.3,0.2,0.7,0.2,1.1c0,0.8-0.3,1.5-0.9,1.9C912.7,366,911.8,366.3,910.7,366.3z"/>
	<path class="st5" d="M919.6,366.3c-1.4,0-2.4-0.4-3.1-1.1c-0.7-0.8-1.1-1.9-1.1-3.3c0-1.5,0.4-2.6,1.1-3.3c0.7-0.8,1.8-1.1,3.1-1.1
		s2.4,0.4,3.1,1.1s1.1,1.9,1.1,3.3c0,1.5-0.4,2.6-1.1,3.3S921,366.3,919.6,366.3z M919.6,364.8c0.8,0,1.4-0.2,1.8-0.7
		s0.6-1.3,0.6-2.3s-0.2-1.9-0.6-2.3s-1-0.7-1.8-0.7s-1.4,0.2-1.8,0.7s-0.6,1.3-0.6,2.3s0.2,1.9,0.6,2.3S918.8,364.8,919.6,364.8z"/>
	<path class="st5" d="M929.4,366.2c-2.8,0-4.2-1.5-4.2-4.4c0-3,1.4-4.5,4.2-4.5c0.4,0,0.7,0,1.1,0.1c0.4,0,0.8,0.1,1.1,0.2v1.5
		c-0.3-0.1-0.7-0.1-1-0.2s-0.7-0.1-1-0.1c-0.9,0-1.6,0.2-2,0.7c-0.4,0.5-0.6,1.2-0.6,2.3c0,1,0.2,1.8,0.6,2.3c0.4,0.5,1.1,0.7,2,0.7
		c0.4,0,0.7,0,1.1,0c0.3,0,0.6-0.1,1-0.2v1.4c-0.3,0.1-0.6,0.1-1,0.2C930.2,366.2,929.8,366.2,929.4,366.2z"/>
	<path class="st5" d="M934.4,355.8c-0.4,0-0.6-0.1-0.8-0.2c-0.2-0.2-0.2-0.4-0.2-0.8c0-0.4,0.1-0.6,0.2-0.8s0.4-0.2,0.8-0.2
		c0.4,0,0.6,0.1,0.8,0.3c0.2,0.2,0.2,0.4,0.2,0.8c0,0.3-0.1,0.6-0.2,0.8C935,355.7,934.7,355.8,934.4,355.8z M933.5,357.5h1.8v8.6
		h-1.8V357.5z"/>
	<path class="st5" d="M939.4,366.2c-0.8,0-1.4-0.2-1.8-0.6c-0.4-0.4-0.6-1-0.6-1.7c0-0.8,0.3-1.5,0.8-1.9c0.5-0.4,1.4-0.7,2.5-0.8
		l2-0.2v-0.5c0-0.4,0-0.6-0.1-0.9s-0.2-0.4-0.3-0.6c-0.2-0.1-0.4-0.2-0.6-0.3s-0.6-0.1-1-0.1c-0.4,0-0.8,0-1.2,0.1s-0.9,0.1-1.4,0.2
		l-0.1-1.3c1.1-0.2,2.1-0.3,3.1-0.3c1.2,0,2.1,0.2,2.6,0.7s0.9,1.2,0.9,2.2v5.9h-1.5l-0.2-1.1h-0.1c-0.5,0.4-1,0.7-1.5,0.9
		S939.9,366.2,939.4,366.2z M940.1,364.9c0.4,0,0.7-0.1,1.1-0.2c0.4-0.2,0.8-0.4,1.1-0.6v-2l-1.5,0.1c-0.7,0.1-1.3,0.2-1.6,0.4
		c-0.3,0.2-0.4,0.6-0.4,1.1C938.8,364.5,939.2,364.9,940.1,364.9z"/>
	<path class="st5" d="M946.4,353.2h1.8v12.9h-1.8V353.2z"/>
	<path class="st5" d="M954.1,357.5h1.5l0.1,1h0.1c0.7-0.4,1.2-0.7,1.7-0.9c0.5-0.2,1-0.3,1.4-0.3c1,0,1.7,0.4,2.1,1.2h0.1
		c0.7-0.4,1.3-0.7,1.8-0.9c0.5-0.2,1-0.3,1.4-0.3c0.7,0,1.3,0.2,1.7,0.6c0.4,0.4,0.6,1,0.6,1.8v6.4h-1.8v-5.8c0-0.5-0.1-0.9-0.3-1.2
		s-0.5-0.3-1-0.3c-0.3,0-0.6,0.1-1,0.2c-0.4,0.1-0.8,0.3-1.2,0.6v6.5h-1.8v-5.8c0-0.5-0.1-0.9-0.3-1.2c-0.2-0.2-0.5-0.3-1-0.3
		c-0.3,0-0.7,0.1-1.1,0.2c-0.4,0.1-0.8,0.3-1.2,0.6v6.5h-1.8V357.5z"/>
	<path class="st5" d="M972.5,366.2c-1.4,0-2.4-0.4-3.1-1.1c-0.7-0.7-1-1.8-1-3.3c0-1.5,0.3-2.6,1-3.4c0.7-0.8,1.7-1.2,3-1.2
		c2.3,0,3.5,1.3,3.5,3.9c0,0.5,0,0.9-0.1,1.2h-5.6c0.1,0.9,0.3,1.5,0.7,1.9s1,0.6,1.9,0.6c0.4,0,0.9,0,1.4-0.1
		c0.5-0.1,1-0.2,1.4-0.3l0.1,1.3c-0.4,0.2-0.9,0.3-1.5,0.4C973.6,366.2,973.1,366.2,972.5,366.2z M972.4,358.6
		c-0.7,0-1.2,0.2-1.6,0.6c-0.4,0.4-0.6,1.1-0.6,2h4.1c0-0.9-0.2-1.6-0.5-2C973.5,358.8,973.1,358.6,972.4,358.6z"/>
	<path class="st5" d="M980.9,366.3c-1.2,0-2.1-0.4-2.7-1.1c-0.6-0.7-0.9-1.8-0.9-3.3c0-0.8,0.1-1.4,0.3-2c0.2-0.6,0.5-1.1,0.9-1.4
		c0.4-0.4,0.9-0.7,1.4-0.9c0.5-0.2,1.2-0.3,1.8-0.3c0.3,0,0.7,0,1,0c0.3,0,0.6,0.1,0.9,0.1v-4.3h1.8v12.9h-1.6l-0.1-1.1h-0.1
		C983,365.9,982.1,366.3,980.9,366.3z M981.4,364.9c0.3,0,0.6,0,0.9-0.1c0.3-0.1,0.5-0.2,0.7-0.4c0.2-0.2,0.4-0.4,0.5-0.6
		c0.1-0.2,0.2-0.5,0.2-0.8v-4.2c-0.3-0.1-0.6-0.1-0.9-0.1c-0.3,0-0.7,0-1,0c-0.9,0-1.5,0.2-2,0.7s-0.6,1.3-0.6,2.5
		c0,1.1,0.2,1.9,0.5,2.4C980,364.6,980.6,364.9,981.4,364.9z"/>
	<path class="st5" d="M988.6,355.8c-0.4,0-0.6-0.1-0.8-0.2c-0.2-0.2-0.2-0.4-0.2-0.8c0-0.4,0.1-0.6,0.2-0.8s0.4-0.2,0.8-0.2
		c0.4,0,0.6,0.1,0.8,0.3c0.2,0.2,0.2,0.4,0.2,0.8c0,0.3-0.1,0.6-0.2,0.8C989.2,355.7,989,355.8,988.6,355.8z M987.7,357.5h1.8v8.6
		h-1.8V357.5z"/>
	<path class="st5" d="M993.6,366.2c-0.8,0-1.4-0.2-1.8-0.6c-0.4-0.4-0.6-1-0.6-1.7c0-0.8,0.3-1.5,0.8-1.9s1.4-0.7,2.5-0.8l2-0.2
		v-0.5c0-0.4,0-0.6-0.1-0.9s-0.2-0.4-0.3-0.6c-0.2-0.1-0.4-0.2-0.6-0.3s-0.6-0.1-1-0.1c-0.4,0-0.8,0-1.2,0.1c-0.4,0-0.9,0.1-1.4,0.2
		l-0.1-1.3c1.1-0.2,2.1-0.3,3.1-0.3c1.2,0,2.1,0.2,2.6,0.7c0.6,0.5,0.9,1.2,0.9,2.2v5.9h-1.5l-0.2-1.1h-0.1c-0.5,0.4-1,0.7-1.5,0.9
		C994.6,366.1,994.1,366.2,993.6,366.2z M994.3,364.9c0.4,0,0.7-0.1,1.1-0.2c0.4-0.2,0.8-0.4,1.1-0.6v-2l-1.5,0.1
		c-0.7,0.1-1.3,0.2-1.6,0.4c-0.3,0.2-0.4,0.6-0.4,1.1C993,364.5,993.4,364.9,994.3,364.9z"/>
	<path class="st5" d="M1004.2,357.5h1.5l0.1,1h0.1c0.7-0.4,1.2-0.7,1.7-0.9c0.5-0.2,1-0.3,1.4-0.3c1,0,1.7,0.4,2.1,1.2h0.1
		c0.7-0.4,1.3-0.7,1.8-0.9c0.5-0.2,1-0.3,1.4-0.3c0.7,0,1.3,0.2,1.7,0.6c0.4,0.4,0.6,1,0.6,1.8v6.4h-1.8v-5.8c0-0.5-0.1-0.9-0.3-1.2
		s-0.5-0.3-1-0.3c-0.3,0-0.6,0.1-1,0.2c-0.4,0.1-0.8,0.3-1.2,0.6v6.5h-1.8v-5.8c0-0.5-0.1-0.9-0.3-1.2c-0.2-0.2-0.5-0.3-1-0.3
		c-0.3,0-0.7,0.1-1.1,0.2c-0.4,0.1-0.8,0.3-1.2,0.6v6.5h-1.8V357.5z"/>
	<path class="st5" d="M1022.6,366.3c-1.4,0-2.4-0.4-3.1-1.1c-0.7-0.8-1.1-1.9-1.1-3.3c0-1.5,0.4-2.6,1.1-3.3
		c0.7-0.8,1.8-1.1,3.1-1.1s2.4,0.4,3.1,1.1s1.1,1.9,1.1,3.3c0,1.5-0.4,2.6-1.1,3.3S1024,366.3,1022.6,366.3z M1022.6,364.8
		c0.8,0,1.4-0.2,1.8-0.7s0.6-1.3,0.6-2.3s-0.2-1.9-0.6-2.3s-1-0.7-1.8-0.7s-1.4,0.2-1.8,0.7s-0.6,1.3-0.6,2.3s0.2,1.9,0.6,2.3
		S1021.8,364.8,1022.6,364.8z"/>
	<path class="st5" d="M1031.8,366.3c-1.2,0-2.1-0.4-2.7-1.1c-0.6-0.7-0.9-1.8-0.9-3.3c0-0.8,0.1-1.4,0.3-2c0.2-0.6,0.5-1.1,0.9-1.4
		s0.9-0.7,1.4-0.9c0.5-0.2,1.2-0.3,1.8-0.3c0.3,0,0.7,0,1,0c0.3,0,0.6,0.1,0.9,0.1v-4.3h1.8v12.9h-1.6l-0.1-1.1h-0.1
		C1033.9,365.9,1033,366.3,1031.8,366.3z M1032.3,364.9c0.3,0,0.6,0,0.9-0.1c0.3-0.1,0.5-0.2,0.7-0.4c0.2-0.2,0.4-0.4,0.5-0.6
		c0.1-0.2,0.2-0.5,0.2-0.8v-4.2c-0.3-0.1-0.6-0.1-0.9-0.1s-0.7,0-1,0c-0.9,0-1.5,0.2-2,0.7c-0.4,0.5-0.6,1.3-0.6,2.5
		c0,1.1,0.2,1.9,0.5,2.4C1030.9,364.6,1031.5,364.9,1032.3,364.9z"/>
	<path class="st5" d="M1042.3,366.2c-1.4,0-2.4-0.4-3.1-1.1c-0.7-0.7-1-1.8-1-3.3c0-1.5,0.3-2.6,1-3.4c0.7-0.8,1.7-1.2,3-1.2
		c2.3,0,3.5,1.3,3.5,3.9c0,0.5,0,0.9-0.1,1.2h-5.6c0.1,0.9,0.3,1.5,0.7,1.9c0.4,0.4,1,0.6,1.9,0.6c0.4,0,0.9,0,1.4-0.1
		c0.5-0.1,1-0.2,1.4-0.3l0.1,1.3c-0.4,0.2-0.9,0.3-1.5,0.4S1042.8,366.2,1042.3,366.2z M1042.2,358.6c-0.7,0-1.2,0.2-1.6,0.6
		c-0.4,0.4-0.6,1.1-0.6,2h4.1c0-0.9-0.2-1.6-0.5-2C1043.3,358.8,1042.8,358.6,1042.2,358.6z"/>
	<path class="st5" d="M1047.5,357.5h1.5l0.1,1.2h0.1c0.5-0.3,1.1-0.6,1.6-0.9s1-0.4,1.4-0.5h0.6v1.6h-0.6c-0.5,0.1-1,0.2-1.4,0.4
		s-0.9,0.4-1.4,0.6v6.2h-1.8V357.5z"/>
	<path class="st5" d="M1055.9,366.2c-0.8,0-1.4-0.2-1.8-0.6c-0.4-0.4-0.6-1-0.6-1.7c0-0.8,0.3-1.5,0.8-1.9c0.5-0.4,1.4-0.7,2.5-0.8
		l2-0.2v-0.5c0-0.4,0-0.6-0.1-0.9s-0.2-0.4-0.3-0.6c-0.2-0.1-0.4-0.2-0.6-0.3s-0.6-0.1-1-0.1c-0.4,0-0.8,0-1.2,0.1s-0.9,0.1-1.4,0.2
		l-0.1-1.3c1.1-0.2,2.1-0.3,3.1-0.3c1.2,0,2.1,0.2,2.6,0.7s0.9,1.2,0.9,2.2v5.9h-1.5l-0.2-1.1h-0.1c-0.5,0.4-1,0.7-1.5,0.9
		S1056.4,366.2,1055.9,366.2z M1056.6,364.9c0.4,0,0.7-0.1,1.1-0.2c0.4-0.2,0.8-0.4,1.1-0.6v-2l-1.5,0.1c-0.7,0.1-1.3,0.2-1.6,0.4
		c-0.3,0.2-0.4,0.6-0.4,1.1C1055.3,364.5,1055.7,364.9,1056.6,364.9z"/>
	<path class="st5" d="M1066.3,366.3c-0.9,0-1.5-0.2-2-0.6c-0.4-0.4-0.7-1.1-0.7-1.9V359h-1.7v-1.5h1.8l0.3-2.3l1.4-0.2v2.4h2.4v1.5
		h-2.4v4.3c0,0.5,0.1,0.9,0.3,1.1c0.2,0.2,0.6,0.4,1.1,0.4c0.1,0,0.3,0,0.5,0c0.2,0,0.4-0.1,0.6-0.1v1.4c-0.2,0.1-0.5,0.1-0.8,0.2
		S1066.6,366.3,1066.3,366.3z"/>
	<path class="st5" d="M1073.2,366.3c-1.4,0-2.4-0.4-3.1-1.1s-1.1-1.9-1.1-3.3c0-1.5,0.4-2.6,1.1-3.3s1.8-1.1,3.1-1.1
		s2.4,0.4,3.1,1.1c0.7,0.8,1.1,1.9,1.1,3.3c0,1.5-0.4,2.6-1.1,3.3C1075.6,365.9,1074.6,366.3,1073.2,366.3z M1073.2,364.8
		c0.8,0,1.4-0.2,1.8-0.7c0.4-0.5,0.6-1.3,0.6-2.3s-0.2-1.9-0.6-2.3c-0.4-0.5-1-0.7-1.8-0.7s-1.4,0.2-1.8,0.7
		c-0.4,0.5-0.6,1.3-0.6,2.3s0.2,1.9,0.6,2.3C1071.8,364.6,1072.4,364.8,1073.2,364.8z"/>
	<path class="st5" d="M1079.2,357.5h1.5l0.1,1.2h0.1c0.5-0.3,1.1-0.6,1.6-0.9s1-0.4,1.4-0.5h0.6v1.6h-0.6c-0.5,0.1-1,0.2-1.4,0.4
		s-0.9,0.4-1.4,0.6v6.2h-1.8V357.5z"/>
	<path class="st5" d="M1088.4,366.3c-0.4,0-0.9,0-1.4-0.1c-0.5-0.1-1.1-0.2-1.7-0.3v-1.4c0.6,0.1,1.1,0.2,1.6,0.3s1,0.1,1.4,0.1
		c1.2,0,1.8-0.4,1.8-1.2c0-0.4-0.2-0.7-0.5-0.9s-0.7-0.3-1.2-0.4c-0.3-0.1-0.7-0.1-1-0.2c-0.4-0.1-0.7-0.2-1-0.4s-0.5-0.4-0.7-0.7
		s-0.3-0.7-0.3-1.3c0-0.8,0.3-1.4,0.9-1.9c0.6-0.5,1.4-0.7,2.5-0.7c0.2,0,0.4,0,0.6,0s0.4,0,0.6,0.1c0.2,0,0.4,0.1,0.7,0.1
		c0.3,0,0.5,0.1,0.9,0.2l-0.1,1.4c-0.6-0.1-1-0.2-1.4-0.3c-0.4-0.1-0.8-0.1-1.1-0.1c-0.6,0-1,0.1-1.3,0.3s-0.4,0.5-0.4,0.9
		c0,0.2,0,0.4,0.1,0.6c0.1,0.1,0.2,0.3,0.4,0.4c0.2,0.1,0.4,0.2,0.6,0.2c0.2,0.1,0.5,0.1,0.8,0.2c0.4,0.1,0.8,0.2,1.1,0.3
		s0.6,0.3,0.9,0.5c0.2,0.2,0.4,0.4,0.6,0.7c0.1,0.3,0.2,0.7,0.2,1.1c0,0.8-0.3,1.5-0.9,1.9C1090.4,366,1089.5,366.3,1088.4,366.3z"
		/>
</g>
</svg>
