<?xml version="1.0" encoding="utf-8"?>
<!-- Generator: Adobe Illustrator 24.2.2, SVG Export Plug-In . SVG Version: 6.00 Build 0)  -->
<svg version="1.1" id="Layer_1" xmlns="http://www.w3.org/2000/svg" xmlns:xlink="http://www.w3.org/1999/xlink" x="0px" y="0px"
	 viewBox="0 0 1219.1 396.3" style="enable-background:new 0 0 1219.1 396.3;" xml:space="preserve">
<style type="text/css">
	.st0{fill:#0C6D72;}
	.st1{fill:#063739;}
	.st2{fill:#30721E;}
	.st3{fill:#F4F4F4;}
	.st4{fill:#E52033;}
	.st5{fill:#FFFFFF;}
</style>
<rect x="187.9" y="95" class="st0" width="32.5" height="1"/>
<polygon class="st0" points="218.9,100.4 227.6,95.5 218.9,90.5 "/>
<rect x="434.6" y="95" class="st0" width="36.5" height="1"/>
<polygon class="st0" points="469.6,100.4 478.3,95.5 469.6,90.5 "/>
<rect x="896.2" y="50.5" class="st1" width="207" height="90"/>
<path class="st0" d="M1102.2,51.5v88h-205v-88H1102.2 M1103.2,50.4h-207v90h207V50.4z"/>
<circle class="st2" cx="151.9" cy="95.5" r="36"/>
<path class="st3" d="M136.4,101.5c-0.3,0-0.6,0-1,0s-0.7-0.1-1.1-0.1c-0.4,0-0.7-0.1-1.1-0.2c-0.4-0.1-0.7-0.2-1.1-0.2v-1.4
	c0.7,0.2,1.4,0.3,2.2,0.4c0.6,0.1,1.3,0.2,2,0.2c0.8,0.1,1.7-0.1,2.4-0.6c0.5-0.4,0.9-1,0.8-1.7c0-0.3-0.1-0.7-0.2-1
	c-0.2-0.3-0.4-0.5-0.6-0.7c-0.3-0.2-0.6-0.4-1-0.5s-0.8-0.3-1.2-0.4c-0.6-0.2-1.2-0.4-1.8-0.6c-0.5-0.2-0.9-0.5-1.2-0.8
	s-0.6-0.7-0.7-1.1c-0.2-0.4-0.2-0.9-0.2-1.4s0.1-1,0.3-1.5s0.5-0.9,0.9-1.2s1-0.6,1.5-0.8c0.6-0.2,1.3-0.3,1.9-0.3
	c0.5,0,1.1,0,1.6,0.1c0.6,0.1,1.2,0.2,1.9,0.3l-0.1,1.3c-0.6-0.2-1.2-0.3-1.7-0.3c-0.5-0.1-1.1-0.1-1.6-0.1c-0.8,0-1.6,0.2-2.2,0.6
	c-0.5,0.4-0.8,1-0.8,1.7c0,0.3,0,0.6,0.2,0.9c0.1,0.3,0.3,0.5,0.5,0.7c0.3,0.2,0.6,0.4,0.9,0.6c0.5,0.2,0.9,0.4,1.4,0.5
	c0.6,0.2,1.1,0.3,1.6,0.5s0.9,0.4,1.3,0.7c0.4,0.3,0.6,0.7,0.8,1.1c0.2,0.5,0.3,1,0.3,1.6c0.1,1-0.4,2.1-1.2,2.7
	C138.9,101.3,137.6,101.6,136.4,101.5z"/>
<path class="st3" d="M146.7,101.5c-0.8,0.1-1.5-0.2-2.1-0.7c-0.5-0.5-0.7-1.3-0.7-2V93h-2v-1.4h2.1l0.2-2.4l1.2-0.2v2.6h2.9V93h-2.9
	v5.4c0,0.5,0.1,1,0.4,1.3c0.3,0.3,0.8,0.5,1.3,0.4c0.2,0,0.4,0,0.6-0.1c0.2,0,0.5-0.1,0.7-0.2v1.3c-0.3,0.1-0.6,0.1-0.9,0.2
	C147.3,101.5,147,101.5,146.7,101.5z"/>
<path class="st3" d="M152,101.4c-0.7,0-1.4-0.2-1.9-0.7s-0.7-1.2-0.7-1.9c0-0.8,0.3-1.6,0.9-2.1c0.8-0.6,1.8-0.9,2.8-0.9l2.3-0.2
	v-0.7c0-0.4,0-0.7-0.1-1.1c-0.1-0.3-0.2-0.5-0.4-0.7s-0.5-0.3-0.8-0.4c-0.4-0.1-0.8-0.1-1.2-0.1s-0.9,0-1.3,0.1
	c-0.5,0-1,0.1-1.5,0.2l-0.1-1.2c0.6-0.1,1.2-0.2,1.7-0.3s1-0.1,1.6-0.1c1-0.1,2,0.2,2.8,0.8c0.6,0.6,1,1.5,0.9,2.4v6.6h-1.3
	l-0.2-1.2h-0.1c-0.5,0.4-1.1,0.7-1.7,1C153.2,101.3,152.6,101.4,152,101.4z M152.6,100.2c0.5,0,1-0.1,1.4-0.3c0.5-0.2,1-0.5,1.5-0.8
	v-2.5l-1.9,0.2c-0.7,0-1.4,0.2-2,0.6c-0.4,0.3-0.6,0.8-0.6,1.4C151.1,99.7,151.6,100.2,152.6,100.2z"/>
<path class="st3" d="M159.7,91.6h1.3l0.1,1.3h0.1c0.7-0.4,1.3-0.7,1.8-1s1-0.4,1.6-0.5h0.5v1.5h-0.6c-0.6,0.1-1.1,0.2-1.7,0.4
	c-0.6,0.2-1.1,0.5-1.6,0.7v7.2h-1.6L159.7,91.6L159.7,91.6L159.7,91.6z"/>
<path class="st3" d="M170.5,101.5c-0.8,0.1-1.5-0.2-2.1-0.7c-0.5-0.5-0.8-1.3-0.7-2V93h-2v-1.4h2.1l0.2-2.4l1.2-0.2v2.6h2.9V93h-2.9
	v5.4c0,0.5,0.1,1,0.4,1.3s0.8,0.5,1.3,0.4c0.2,0,0.4,0,0.6-0.1c0.2,0,0.5-0.1,0.7-0.2v1.3c-0.3,0.1-0.6,0.1-0.9,0.2
	C171.1,101.5,170.8,101.5,170.5,101.5z"/>
<rect x="773.4" y="68.4" class="st0" width="72" height="54"/>
<path class="st3" d="M800.2,96.9l-4.9-8.9h1.7l3.3,6.2l0.5,1.2h0.2l0.5-1.2l3.4-6.2h1.7l-4.8,8.8v4.5h-1.6L800.2,96.9z"/>
<path class="st3" d="M810.6,101.5c-1.2,0.1-2.5-0.4-3.4-1.2c-0.8-1-1.2-2.3-1.1-3.7c-0.1-1.4,0.3-2.7,1.1-3.8c0.8-0.9,2-1.4,3.3-1.3
	c2.5,0,3.7,1.4,3.7,4.3c0,0.4,0,0.8-0.1,1.3h-6.4c0,0.9,0.3,1.8,0.8,2.4c0.6,0.5,1.4,0.8,2.3,0.7c0.5,0,1,0,1.5-0.1s1-0.2,1.5-0.4
	l0.1,1.2c-0.5,0.2-1,0.3-1.6,0.4C811.7,101.4,811.2,101.5,810.6,101.5z M810.4,92.6c-1.7,0-2.7,1.1-2.8,3.3h5.1
	c0.1-0.9-0.1-1.7-0.6-2.5C811.8,92.9,811.1,92.6,810.4,92.6z"/>
<path class="st3" d="M819.1,101.5c-0.5,0-0.9,0-1.4-0.1s-1.1-0.2-1.9-0.3v-1.3c0.6,0.1,1.2,0.3,1.7,0.3c0.5,0.1,1,0.1,1.5,0.1
	c0.6,0,1.1-0.1,1.6-0.4c0.4-0.3,0.6-0.7,0.5-1.2c0-0.2,0-0.5-0.1-0.7s-0.2-0.4-0.4-0.5s-0.4-0.2-0.7-0.3s-0.5-0.2-0.8-0.2l-1.1-0.2
	c-0.4-0.1-0.7-0.2-1-0.4s-0.6-0.5-0.8-0.8c-0.2-0.4-0.3-0.9-0.3-1.4c0-0.8,0.4-1.5,1-2c0.8-0.5,1.7-0.8,2.6-0.7c0.2,0,0.4,0,0.6,0
	l0.6,0.1l0.7,0.1l0.9,0.2l-0.2,1.3c-0.6-0.1-1.1-0.2-1.5-0.3s-0.8-0.1-1.1-0.1c-1.5,0-2.2,0.5-2.2,1.5c0,0.2,0,0.5,0.2,0.7
	c0.1,0.2,0.3,0.3,0.5,0.5c0.2,0.1,0.5,0.2,0.7,0.3c0.3,0.1,0.6,0.1,0.9,0.2c0.4,0.1,0.8,0.2,1.2,0.3s0.7,0.3,1,0.5s0.5,0.5,0.6,0.8
	c0.2,0.4,0.2,0.8,0.2,1.2c0,0.8-0.3,1.6-1,2.1C821,101.3,820.1,101.6,819.1,101.5z"/>
<rect x="227.6" y="50.5" class="st1" width="207" height="90"/>
<path class="st0" d="M433.6,51.5v88h-205v-88H433.6 M434.6,50.5h-207v90h207V50.5z"/>
<g>
	<circle class="st0" cx="331.1" cy="351.3" r="36"/>
	<path class="st3" d="M316.3,343.8h8.5v1.3h-6.9v4.6h6.4v1.4h-6.4v4.8h7v1.3h-8.6V343.8z"/>
	<path class="st3" d="M327.1,347.3h1.3l0.1,1.1h0.1l1.3-0.6c0.4-0.2,0.7-0.3,1.1-0.4c0.3-0.1,0.6-0.2,0.9-0.2s0.6-0.1,0.8-0.1
		c0.7,0,1.4,0.2,1.9,0.7s0.7,1.3,0.7,2v7.2h-1.6v-6.7c0-0.5-0.1-1-0.4-1.4c-0.3-0.3-0.8-0.5-1.2-0.4c-0.5,0-1.1,0.1-1.6,0.3
		c-0.7,0.2-1.3,0.5-1.9,0.8v7.5H327L327.1,347.3L327.1,347.3z"/>
	<path class="st3" d="M341.5,357.3c-1.1,0.1-2.2-0.4-3-1.2c-0.8-1.1-1.1-2.4-1-3.8c0-0.8,0.1-1.5,0.3-2.3c0.2-0.6,0.6-1.1,1-1.6
		c0.4-0.4,0.9-0.8,1.5-1s1.3-0.3,2-0.3c0.4,0,0.8,0,1.2,0.1l1.1,0.1v-4.8h1.5V357h-1.4l-0.1-1.2h-0.1
		C343.7,356.8,342.6,357.3,341.5,357.3z M341.8,356c0.3,0,0.7-0.1,1-0.1c0.3-0.1,0.6-0.2,0.9-0.4c0.2-0.2,0.5-0.4,0.6-0.7
		c0.1-0.3,0.2-0.6,0.2-0.9v-5.2c-0.4-0.1-0.7-0.1-1.1-0.1s-0.8-0.1-1.2-0.1c-0.9-0.1-1.8,0.3-2.4,0.9c-0.6,0.9-0.9,1.9-0.8,2.9
		c-0.1,1,0.1,2,0.7,2.9C340.2,355.8,341,356.1,341.8,356L341.8,356z"/>
</g>
<rect x="537.7" y="213" class="st4" width="72" height="54"/>
<path class="st3" d="M563,232.5h1.4l6.8,9.3l1,1.6h0.1v-10.9h1.5v13.3h-1.4l-6.9-9.3l-1-1.6h-0.1v10.8h-1.5L563,232.5L563,232.5z"/>
<path class="st3" d="M580.7,246c-1.3,0.1-2.5-0.4-3.4-1.3c-1.5-2.3-1.5-5.2,0-7.5c1.9-1.7,4.8-1.7,6.7,0c1.5,2.3,1.5,5.2,0,7.5
	C583.2,245.6,581.9,246.1,580.7,246z M580.7,244.8c0.8,0.1,1.7-0.3,2.2-0.9c0.9-1.8,0.9-3.9,0-5.7c-1.2-1.2-3.2-1.2-4.4,0
	c-0.9,1.8-0.9,3.9,0,5.7C579,244.4,579.8,244.9,580.7,244.8L580.7,244.8z"/>
<rect x="669.2" y="95" class="st0" width="97" height="1"/>
<polygon class="st0" points="764.7,100.4 773.4,95.5 764.7,90.5 "/>
<rect x="845.4" y="95" class="st0" width="43.6" height="1"/>
<polygon class="st0" points="887.5,100.4 896.2,95.5 887.5,90.5 "/>
<rect x="573.2" y="190.1" class="st0" width="1" height="15.6"/>
<polygon class="st0" points="568.7,204.4 573.7,213 578.7,204.4 "/>
<rect x="506.2" y="28" transform="matrix(0.7071 -0.7071 0.7071 0.7071 100.4925 433.6364)" class="st1" width="135" height="135"/>
<path class="st0" d="M573.7,1.4l94,94.1l-94,94l-94-94L573.7,1.4 M573.7,0.1l-95.5,95.4l95.5,95.5l95.5-95.5L573.7,0.1L573.7,0.1z"
	/>
<path class="st3" d="M515.1,101.2l4.8-13.2h2.4l4.8,13.2v0.1h-1.6l-1.5-4h-6l-1.4,4L515.1,101.2L515.1,101.2L515.1,101.2z M523.6,96
	l-1.6-4.5l-0.8-2.3h-0.1l-0.8,2.3l-1.6,4.5H523.6z"/>
<path class="st3" d="M528.6,86.8h1.6v14.5h-1.6V86.8z"/>
<path class="st3" d="M534.9,101.4c-0.7,0-1.4-0.2-1.9-0.7s-0.7-1.2-0.7-1.9c-0.1-0.8,0.3-1.6,0.9-2.1c0.8-0.6,1.8-0.9,2.8-0.9
	l2.3-0.2v-0.7c0-0.4,0-0.7-0.1-1.1c-0.1-0.3-0.2-0.5-0.4-0.7s-0.5-0.3-0.7-0.4c-0.4-0.1-0.8-0.1-1.2-0.1s-0.9,0-1.3,0.1
	c-0.5,0-1,0.1-1.5,0.2l-0.1-1.2c0.6-0.1,1.2-0.2,1.7-0.3s1-0.1,1.6-0.1c1-0.1,2,0.2,2.8,0.8c0.6,0.6,1,1.5,0.9,2.4v6.6h-1.3
	l-0.2-1.2h-0.1c-0.5,0.4-1.1,0.7-1.7,1C536.1,101.3,535.5,101.4,534.9,101.4z M535.5,100.2c0.5,0,1-0.1,1.4-0.3
	c0.5-0.2,1-0.5,1.5-0.8v-2.5l-1.9,0.2c-0.7,0-1.4,0.2-2,0.6c-0.4,0.3-0.6,0.8-0.6,1.4C533.9,99.7,534.4,100.2,535.5,100.2z"/>
<path class="st3" d="M542.6,91.6h1.3l0.1,1.3h0.1c0.7-0.4,1.3-0.7,1.9-1c0.5-0.2,1-0.4,1.6-0.5h0.5v1.5h-0.6
	c-0.6,0.1-1.1,0.2-1.7,0.4c-0.6,0.2-1.1,0.5-1.6,0.7v7.2h-1.6V91.6z"/>
<path class="st3" d="M549.6,91.6h1.3l0.1,1.1h0.1c0.6-0.4,1.3-0.7,2-1c0.5-0.2,1-0.3,1.6-0.3c1-0.1,1.9,0.4,2.3,1.3h0.1
	c0.6-0.4,1.3-0.7,2-1c0.5-0.2,1-0.3,1.6-0.3c0.7,0,1.4,0.2,1.9,0.7s0.7,1.3,0.7,2v7.2h-1.6v-6.7c0-0.5-0.1-1-0.4-1.4
	c-0.3-0.3-0.8-0.5-1.2-0.4c-0.4,0-0.9,0.1-1.3,0.3c-0.5,0.2-1,0.5-1.5,0.7v7.5h-1.6v-6.7c0-0.5-0.1-1-0.4-1.4
	c-0.3-0.3-0.8-0.5-1.2-0.4c-0.4,0-0.9,0.1-1.3,0.3c-0.5,0.2-1,0.5-1.5,0.8v7.5h-1.6L549.6,91.6L549.6,91.6z"/>
<path class="st3" d="M570.8,89.6c-0.5,0.1-0.9-0.2-1-0.7c0-0.1,0-0.2,0-0.3c-0.1-0.5,0.2-0.9,0.7-1c0.1,0,0.2,0,0.3,0
	c0.7,0,1,0.3,1,1S571.5,89.6,570.8,89.6z M570,91.6h1.6v9.7H570V91.6z"/>
<path class="st3" d="M577.1,101.5c-0.5,0-0.9,0-1.4-0.1s-1.1-0.2-1.9-0.3v-1.3c0.6,0.1,1.2,0.3,1.7,0.3c0.5,0.1,1,0.1,1.5,0.1
	c0.6,0,1.1-0.1,1.6-0.4c0.4-0.3,0.6-0.7,0.5-1.2c0-0.2,0-0.5-0.1-0.7s-0.2-0.4-0.4-0.5s-0.4-0.2-0.6-0.3c-0.3-0.1-0.5-0.1-0.8-0.2
	s-0.8-0.2-1.1-0.3c-0.4-0.1-0.7-0.2-1-0.4s-0.6-0.5-0.8-0.8c-0.2-0.4-0.3-0.9-0.3-1.4c0-0.8,0.3-1.6,0.9-2.1
	c0.8-0.5,1.7-0.8,2.6-0.7h0.6l0.6,0.1l0.7,0.1c0.3,0,0.6,0.1,0.9,0.2l-0.1,1.3c-0.6-0.1-1.1-0.2-1.5-0.3s-0.8-0.1-1.1-0.1
	c-1.5,0-2.2,0.5-2.2,1.5c0,0.2,0.1,0.5,0.2,0.7c0.1,0.2,0.3,0.4,0.5,0.5s0.5,0.2,0.7,0.3c0.3,0.1,0.6,0.1,0.9,0.2
	c0.4,0.1,0.8,0.2,1.2,0.3s0.7,0.3,1,0.5s0.5,0.5,0.6,0.8c0.2,0.4,0.2,0.8,0.2,1.2c0,0.8-0.3,1.6-0.9,2.1
	C579.1,101.3,578.1,101.6,577.1,101.5z"/>
<path class="st3" d="M585.6,91.8v-0.2h1.6l2.5,7l0.4,1.5h0.2l0.4-1.5l2.5-7h1.6v0.2l-3.7,9.5h-2L585.6,91.8z"/>
<path class="st3" d="M598.5,101.4c-0.7,0-1.4-0.2-1.9-0.7s-0.7-1.2-0.7-1.9c0-0.8,0.3-1.6,0.9-2.1c0.8-0.6,1.8-0.9,2.8-0.9l2.3-0.2
	v-0.7c0-0.4,0-0.7-0.1-1.1c-0.1-0.3-0.2-0.5-0.4-0.7s-0.5-0.3-0.8-0.4c-0.4-0.1-0.8-0.1-1.2-0.1s-0.9,0-1.3,0.1
	c-0.5,0-1,0.1-1.5,0.2l-0.1-1.2c0.6-0.1,1.2-0.2,1.7-0.3s1-0.1,1.6-0.1c1-0.1,2,0.2,2.8,0.8c0.6,0.6,1,1.5,0.9,2.4v6.6h-1.3L602,100
	h-0.1c-0.5,0.4-1.1,0.7-1.7,1S599.1,101.4,598.5,101.4z M599,100.2c0.5,0,1-0.1,1.4-0.3c0.5-0.2,1-0.5,1.5-0.8v-2.4l-1.9,0.2
	c-0.7,0-1.4,0.2-2,0.6c-0.4,0.3-0.6,0.8-0.6,1.4C597.5,99.7,598,100.2,599,100.2z"/>
<path class="st3" d="M606.2,86.8h1.6v14.5h-1.6V86.8z"/>
<path class="st3" d="M611.3,89.6c-0.5,0.1-0.9-0.2-1-0.7c0-0.1,0-0.2,0-0.3c-0.1-0.5,0.2-0.9,0.7-1c0.1,0,0.2,0,0.3,0
	c0.7,0,1,0.3,1,1S612,89.6,611.3,89.6z M610.5,91.6h1.6v9.7h-1.6V91.6z"/>
<path class="st3" d="M618.4,101.5c-1.1,0.1-2.2-0.4-3-1.2c-0.8-1.1-1.1-2.4-1-3.8c0-0.8,0.1-1.5,0.3-2.3c0.2-0.6,0.6-1.1,1-1.6
	c0.4-0.4,0.9-0.8,1.5-1s1.3-0.3,2-0.3c0.4,0,0.8,0,1.2,0.1l1.1,0.1v-4.8h1.6v14.5h-1.4l-0.1-1.2h-0.1
	C620.7,101.1,619.6,101.6,618.4,101.5z M618.7,100.2c0.3,0,0.7-0.1,1-0.2s0.6-0.2,0.9-0.4c0.2-0.2,0.5-0.4,0.6-0.7s0.2-0.6,0.2-0.9
	v-5.2c-0.4-0.1-0.7-0.1-1.1-0.1c-0.4,0-0.8-0.1-1.2-0.1c-0.9-0.1-1.8,0.3-2.4,0.9c-0.6,0.8-0.9,1.9-0.8,2.9c-0.1,1,0.1,2,0.7,2.9
	C617.1,100,617.9,100.3,618.7,100.2L618.7,100.2z"/>
<path class="st3" d="M627,97.8l-0.1-3.4c0.4-0.1,0.8-0.2,1.2-0.3s0.8-0.3,1.1-0.5s0.6-0.5,0.8-0.8c0.2-0.4,0.3-0.8,0.3-1.2
	s-0.1-0.8-0.2-1.1c-0.1-0.3-0.3-0.5-0.6-0.7c-0.2-0.2-0.5-0.3-0.8-0.4s-0.7-0.1-1-0.1c-0.4,0-0.9,0-1.3,0.1
	c-0.4,0.1-0.9,0.2-1.3,0.3l-0.1-1.2c0.5-0.1,1-0.3,1.5-0.3c0.5-0.1,1.1-0.1,1.6-0.1s1,0.1,1.5,0.2c0.4,0.1,0.9,0.3,1.2,0.6
	c0.4,0.3,0.6,0.7,0.8,1.1c0.2,0.5,0.3,1.1,0.3,1.7c0,1-0.4,2-1.1,2.7c-0.3,0.3-0.7,0.5-1.2,0.7c-0.4,0.2-0.8,0.3-1.3,0.4v2.6v0.3
	h-1.2L627,97.8z M627.6,101.3c-0.2,0-0.5-0.1-0.7-0.3s-0.3-0.4-0.3-0.7s0.1-0.5,0.3-0.7s0.4-0.3,0.7-0.2c0.3,0,0.5,0.1,0.7,0.2
	c0.2,0.2,0.3,0.4,0.3,0.7c0,0.2-0.1,0.5-0.3,0.7C628.1,101.3,627.9,101.4,627.6,101.3L627.6,101.3z"/>
<g>
	<rect x="330.6" y="240.4" class="st0" width="1" height="70.3"/>
	<polygon class="st0" points="326.1,306.6 331.1,315.3 336.1,306.6 	"/>
	<rect x="331.1" y="239.5" class="st0" width="206.7" height="1"/>
</g>
<rect x="368.5" y="350.8" class="st0" width="528.6" height="1"/>
<polygon class="st0" points="375.7,346.3 367.1,351.3 375.7,356.3 "/>
<g>
	<rect x="999.2" y="139.4" class="st0" width="1" height="159.6"/>
	<polygon class="st0" points="994.7,297.6 999.7,306.3 1004.6,297.6 	"/>
</g>
<rect x="896.2" y="306.3" class="st1" width="207" height="90"/>
<path class="st0" d="M1102.2,307.3v88h-205v-88H1102.2 M1103.2,306.3h-207v90h207V306.3z"/>
<g>
	<g>
		<path class="st3" d="M256.4,77.2h1.7l3.3,9.2l0.9,2.6h0.1l0.9-2.6l3.3-9.2h1.7l-4.9,13.3h-2.2L256.4,77.2z"/>
		<path class="st3" d="M270.9,90.6c-0.8,0-1.5-0.2-1.9-0.7c-0.4-0.4-0.7-1.1-0.7-1.9c0-0.9,0.3-1.7,0.9-2.1c0.6-0.5,1.5-0.8,2.8-0.9
			l2.3-0.2v-0.7c0-0.4,0-0.8-0.1-1.1s-0.2-0.5-0.4-0.7c-0.2-0.2-0.4-0.3-0.7-0.4c-0.3-0.1-0.7-0.1-1.2-0.1c-0.4,0-0.8,0-1.3,0.1
			s-1,0.1-1.5,0.2l-0.1-1.2c0.6-0.1,1.2-0.2,1.7-0.3s1-0.1,1.6-0.1c1.3,0,2.2,0.3,2.8,0.8c0.6,0.5,0.9,1.3,0.9,2.4v6.6h-1.3
			l-0.2-1.2h-0.1c-0.6,0.4-1.2,0.7-1.7,1C272,90.5,271.5,90.6,270.9,90.6z M271.5,89.4c0.4,0,0.9-0.1,1.4-0.3s1-0.5,1.5-0.8v-2.4
			l-1.9,0.2c-0.9,0.1-1.6,0.3-2,0.5c-0.4,0.3-0.6,0.7-0.6,1.4C269.9,88.9,270.4,89.4,271.5,89.4z"/>
		<path class="st3" d="M278.6,76h1.6v14.5h-1.6V76z"/>
		<path class="st3" d="M283.7,78.8c-0.6,0-1-0.3-1-1c0-0.6,0.3-1,1-1s1,0.3,1,1S284.4,78.8,283.7,78.8z M283,80.8h1.6v9.7H283V80.8z
			"/>
		<path class="st3" d="M290.8,90.7c-1.3,0-2.3-0.4-3-1.2s-1-2.1-1-3.8c0-0.9,0.1-1.6,0.3-2.3c0.2-0.6,0.6-1.2,1-1.6s0.9-0.7,1.5-1
			c0.6-0.2,1.3-0.3,2-0.3c0.4,0,0.8,0,1.2,0.1s0.7,0.1,1.1,0.1V76h1.6v14.5H294l-0.1-1.2h-0.1C293.1,90.2,292.1,90.7,290.8,90.7z
			 M291.2,89.4c0.4,0,0.7-0.1,1-0.2s0.6-0.2,0.9-0.4s0.5-0.4,0.6-0.7s0.2-0.6,0.2-0.9V82c-0.3-0.1-0.7-0.1-1.1-0.1s-0.8-0.1-1.2-0.1
			c-1.1,0-1.8,0.3-2.4,0.9s-0.8,1.6-0.8,2.9c0,1.4,0.2,2.3,0.7,2.9C289.5,89.1,290.2,89.4,291.2,89.4z"/>
		<path class="st3" d="M300.1,90.6c-0.8,0-1.5-0.2-1.9-0.7c-0.4-0.4-0.7-1.1-0.7-1.9c0-0.9,0.3-1.7,0.9-2.1c0.6-0.5,1.5-0.8,2.8-0.9
			l2.3-0.2v-0.7c0-0.4,0-0.8-0.1-1.1s-0.2-0.5-0.4-0.7c-0.2-0.2-0.4-0.3-0.7-0.4c-0.3-0.1-0.7-0.1-1.2-0.1c-0.4,0-0.8,0-1.3,0.1
			c-0.5,0-1,0.1-1.5,0.2l-0.1-1.2c0.6-0.1,1.2-0.2,1.7-0.3s1-0.1,1.6-0.1c1.3,0,2.2,0.3,2.8,0.8s0.9,1.3,0.9,2.4v6.6h-1.3l-0.2-1.2
			h-0.1c-0.6,0.4-1.2,0.7-1.7,1C301.2,90.5,300.7,90.6,300.1,90.6z M300.7,89.4c0.4,0,0.9-0.1,1.4-0.3s1-0.5,1.5-0.8v-2.4l-1.9,0.2
			c-0.9,0.1-1.6,0.3-2,0.5c-0.4,0.3-0.6,0.7-0.6,1.4C299.1,88.9,299.6,89.4,300.7,89.4z"/>
		<path class="st3" d="M311.4,90.7c-0.9,0-1.6-0.2-2.1-0.7s-0.7-1.2-0.7-2.1v-5.7h-2v-1.4h2.1l0.2-2.4l1.2-0.2v2.6h2.9v1.4h-2.9v5.4
			c0,0.6,0.1,1.1,0.4,1.3c0.3,0.3,0.7,0.4,1.3,0.4c0.2,0,0.4,0,0.6,0s0.4-0.1,0.7-0.2v1.3c-0.3,0.1-0.6,0.1-0.9,0.2
			C311.9,90.7,311.7,90.7,311.4,90.7z"/>
		<path class="st3" d="M318.8,90.7c-1.5,0-2.6-0.4-3.4-1.2s-1.1-2-1.1-3.7s0.4-2.9,1.1-3.8c0.8-0.9,1.8-1.3,3.3-1.3
			c2.5,0,3.7,1.4,3.7,4.3c0,0.6,0,1-0.1,1.3h-6.4c0.1,1.1,0.3,1.9,0.8,2.4s1.3,0.7,2.3,0.7c0.5,0,0.9,0,1.5-0.1
			c0.5-0.1,1-0.2,1.5-0.4l0.1,1.2c-0.5,0.2-1,0.3-1.6,0.4C319.9,90.6,319.4,90.7,318.8,90.7z M318.7,81.9c-1.7,0-2.7,1.1-2.8,3.3
			h5.1c0-1.2-0.2-2-0.6-2.5C320,82.1,319.5,81.9,318.7,81.9z"/>
		<path class="st3" d="M332.2,90.7c-0.9,0-1.6-0.2-2.1-0.7s-0.7-1.2-0.7-2.1v-5.7h-2v-1.4h2.1l0.2-2.4l1.2-0.2v2.6h2.9v1.4H331v5.4
			c0,0.6,0.1,1.1,0.4,1.3c0.3,0.3,0.7,0.4,1.3,0.4c0.2,0,0.4,0,0.6,0s0.4-0.1,0.7-0.2v1.3c-0.3,0.1-0.6,0.1-0.9,0.2
			C332.8,90.7,332.5,90.7,332.2,90.7z"/>
		<path class="st3" d="M335.6,76h1.6v5.9c0.9-0.4,1.7-0.8,2.3-1c0.6-0.2,1.2-0.3,1.8-0.3c0.8,0,1.5,0.2,1.9,0.7
			c0.4,0.4,0.7,1.1,0.7,2v7.2h-1.6v-6.7c0-0.7-0.1-1.1-0.4-1.4s-0.6-0.4-1.2-0.4c-0.5,0-1,0.1-1.6,0.3s-1.2,0.5-1.9,0.8v7.5h-1.6
			L335.6,76L335.6,76z"/>
		<path class="st3" d="M350.5,90.7c-1.5,0-2.6-0.4-3.4-1.2s-1.1-2-1.1-3.7s0.4-2.9,1.1-3.8c0.8-0.9,1.8-1.3,3.3-1.3
			c2.5,0,3.7,1.4,3.7,4.3c0,0.6,0,1-0.1,1.3h-6.4c0.1,1.1,0.3,1.9,0.8,2.4s1.3,0.7,2.3,0.7c0.5,0,0.9,0,1.5-0.1
			c0.5-0.1,1-0.2,1.5-0.4l0.1,1.2c-0.5,0.2-1,0.3-1.6,0.4S351.1,90.7,350.5,90.7z M350.4,81.9c-1.7,0-2.7,1.1-2.8,3.3h5.1
			c0-1.2-0.2-2-0.6-2.5S351.2,81.9,350.4,81.9z"/>
		<path class="st3" d="M362.5,90.6c-0.8,0-1.5-0.2-1.9-0.7c-0.4-0.4-0.7-1.1-0.7-1.9c0-0.9,0.3-1.7,0.9-2.1c0.6-0.5,1.5-0.8,2.8-0.9
			l2.3-0.2v-0.7c0-0.4,0-0.8-0.1-1.1s-0.2-0.5-0.4-0.7c-0.2-0.2-0.4-0.3-0.7-0.4c-0.3-0.1-0.7-0.1-1.2-0.1c-0.4,0-0.8,0-1.3,0.1
			s-1,0.1-1.5,0.2l-0.1-1.2c0.6-0.1,1.2-0.2,1.7-0.3s1-0.1,1.6-0.1c1.3,0,2.2,0.3,2.8,0.8s0.9,1.3,0.9,2.4v6.6h-1.3l-0.2-1.2H366
			c-0.6,0.4-1.2,0.7-1.7,1C363.6,90.5,363.1,90.6,362.5,90.6z M363.1,89.4c0.4,0,0.9-0.1,1.4-0.3s1-0.5,1.5-0.8v-2.4l-2,0.1
			c-0.9,0.1-1.6,0.3-2,0.5c-0.4,0.3-0.6,0.7-0.6,1.4C361.5,88.9,362,89.4,363.1,89.4z"/>
		<path class="st3" d="M370.2,76h1.6v14.5h-1.6V76z"/>
		<path class="st3" d="M376.5,90.6c-0.8,0-1.5-0.2-1.9-0.7c-0.4-0.4-0.7-1.1-0.7-1.9c0-0.9,0.3-1.7,0.9-2.1c0.6-0.5,1.5-0.8,2.8-0.9
			l2.3-0.2v-0.7c0-0.4,0-0.8-0.1-1.1s-0.2-0.5-0.4-0.7c-0.2-0.2-0.4-0.3-0.7-0.4c-0.3-0.1-0.7-0.1-1.2-0.1c-0.4,0-0.8,0-1.3,0.1
			s-1,0.1-1.5,0.2l-0.1-1.2c0.6-0.1,1.2-0.2,1.7-0.3s1-0.1,1.6-0.1c1.3,0,2.2,0.3,2.8,0.8s0.9,1.3,0.9,2.4v6.6h-1.3l-0.2-1.2H380
			c-0.6,0.4-1.2,0.7-1.7,1C377.6,90.5,377,90.6,376.5,90.6z M377,89.4c0.4,0,0.9-0.1,1.4-0.3s1-0.5,1.5-0.8v-2.4L378,86
			c-0.9,0.1-1.6,0.3-2,0.5c-0.4,0.3-0.6,0.7-0.6,1.4C375.5,88.9,376,89.4,377,89.4z"/>
		<path class="st3" d="M384.1,80.8h1.3l0.1,1.3h0.1c0.7-0.4,1.3-0.7,1.9-1s1.1-0.4,1.6-0.5h0.5v1.5H389c-0.5,0.1-1.1,0.2-1.7,0.4
			s-1.1,0.5-1.6,0.7v7.2h-1.6L384.1,80.8L384.1,80.8z"/>
		<path class="st3" d="M391.2,80.8h1.3l0.1,1.1h0.1c0.8-0.5,1.4-0.8,2-1c0.5-0.2,1.1-0.3,1.6-0.3c1.2,0,1.9,0.4,2.3,1.3h0.1
			c0.8-0.5,1.4-0.8,2-1s1.1-0.3,1.6-0.3c0.8,0,1.5,0.2,1.9,0.7c0.4,0.4,0.7,1.1,0.7,2v7.2h-1.6v-6.7c0-0.7-0.1-1.1-0.4-1.4
			s-0.7-0.4-1.2-0.4c-0.4,0-0.8,0.1-1.3,0.3s-1,0.4-1.5,0.7v7.5h-1.6v-6.7c0-0.7-0.1-1.1-0.4-1.4s-0.7-0.4-1.2-0.4
			c-0.4,0-0.8,0.1-1.3,0.3s-1,0.4-1.5,0.8v7.5h-1.6v-9.8C391.3,80.8,391.2,80.8,391.2,80.8z"/>
		<path class="st3" d="M275.9,112.3c-1.3,0-2.3-0.4-3-1.2s-1-2.1-1-3.8c0-0.9,0.1-1.6,0.3-2.3c0.2-0.6,0.6-1.2,1-1.6s0.9-0.7,1.5-1
			s1.3-0.3,2-0.3c0.4,0,0.8,0,1.2,0.1c0.4,0,0.7,0.1,1.1,0.1v-4.8h1.6V112h-1.4l-0.1-1.2H279C278.2,111.8,277.2,112.3,275.9,112.3z
			 M276.3,111c0.4,0,0.7-0.1,1-0.2s0.6-0.2,0.9-0.4s0.4-0.4,0.6-0.7c0.1-0.3,0.2-0.6,0.2-0.9v-5.2c-0.3-0.1-0.7-0.1-1.1-0.1
			s-0.8-0.1-1.2-0.1c-1.1,0-1.8,0.3-2.4,0.9c-0.5,0.6-0.8,1.6-0.8,2.9c0,1.4,0.2,2.3,0.7,2.9C274.6,110.7,275.3,111,276.3,111z"/>
		<path class="st3" d="M287.3,112.3c-1.5,0-2.6-0.4-3.4-1.2s-1.1-2-1.1-3.7s0.4-2.9,1.1-3.8c0.8-0.9,1.8-1.3,3.3-1.3
			c2.5,0,3.7,1.4,3.7,4.3c0,0.6,0,1-0.1,1.3h-6.4c0.1,1.1,0.3,1.9,0.8,2.4s1.3,0.7,2.3,0.7c0.5,0,0.9,0,1.5-0.1
			c0.5-0.1,1-0.2,1.5-0.4l0.1,1.2c-0.5,0.2-1,0.3-1.6,0.4C288.4,112.2,287.8,112.3,287.3,112.3z M287.1,103.5
			c-1.7,0-2.7,1.1-2.8,3.3h5.1c0-1.2-0.2-2-0.6-2.5C288.5,103.7,287.9,103.5,287.1,103.5z"/>
		<path class="st3" d="M296.7,112.3c-0.9,0-1.6-0.2-2.1-0.7s-0.7-1.2-0.7-2.1v-5.7h-2v-1.4h2.1l0.2-2.4l1.2-0.2v2.6h2.9v1.4h-2.9
			v5.4c0,0.6,0.1,1.1,0.4,1.3c0.3,0.3,0.7,0.4,1.3,0.4c0.2,0,0.4,0,0.6,0s0.4-0.1,0.7-0.2v1.3c-0.3,0.1-0.6,0.1-0.9,0.2
			S297,112.3,296.7,112.3z"/>
		<path class="st3" d="M302.1,112.2c-0.8,0-1.5-0.2-1.9-0.7c-0.4-0.4-0.7-1.1-0.7-1.9c0-0.9,0.3-1.7,0.9-2.1
			c0.6-0.5,1.5-0.8,2.8-0.9l2.3-0.2v-0.7c0-0.4,0-0.8-0.1-1.1s-0.2-0.5-0.4-0.7c-0.2-0.2-0.4-0.3-0.7-0.4c-0.3-0.1-0.7-0.1-1.2-0.1
			c-0.4,0-0.8,0-1.3,0.1c-0.5,0-1,0.1-1.5,0.2l-0.1-1.2c0.6-0.1,1.2-0.2,1.7-0.3s1-0.1,1.6-0.1c1.3,0,2.2,0.3,2.8,0.8
			c0.6,0.5,0.9,1.3,0.9,2.4v6.6h-1.3l-0.2-1.2h-0.1c-0.6,0.4-1.2,0.7-1.7,1C303.2,112.1,302.7,112.2,302.1,112.2z M302.7,111
			c0.4,0,0.9-0.1,1.4-0.3s1-0.5,1.5-0.8v-2.4l-1.9,0.2c-0.9,0.1-1.6,0.3-2,0.5c-0.4,0.3-0.6,0.7-0.6,1.4
			C301.1,110.5,301.6,111,302.7,111z"/>
		<path class="st3" d="M310.6,100.4c-0.6,0-1-0.3-1-1c0-0.6,0.3-1,1-1s1,0.3,1,1S311.2,100.4,310.6,100.4z M309.8,102.4h1.6v9.7
			h-1.6V102.4z"/>
		<path class="st3" d="M314.1,97.6h1.6v14.5h-1.6V97.6z"/>
		<path class="st3" d="M321.2,112.3c-0.4,0-0.9,0-1.4-0.1s-1.1-0.2-1.9-0.3v-1.3c0.6,0.1,1.2,0.3,1.7,0.4s1,0.1,1.5,0.1
			c0.7,0,1.3-0.1,1.6-0.4c0.4-0.3,0.5-0.7,0.5-1.2c0-0.3,0-0.5-0.1-0.7s-0.2-0.3-0.4-0.5c-0.2-0.1-0.4-0.2-0.6-0.3
			c-0.3-0.1-0.5-0.1-0.8-0.2c-0.4-0.1-0.8-0.2-1.1-0.2c-0.4-0.1-0.7-0.2-1-0.4s-0.6-0.5-0.8-0.8c-0.2-0.3-0.3-0.8-0.3-1.4
			c0-0.9,0.3-1.6,0.9-2.1s1.5-0.7,2.6-0.7c0.2,0,0.4,0,0.6,0s0.4,0,0.6,0.1c0.2,0,0.5,0.1,0.7,0.1c0.3,0,0.6,0.1,0.9,0.2l-0.1,1.3
			c-0.6-0.1-1.1-0.2-1.5-0.3s-0.8-0.1-1.1-0.1c-1.5,0-2.2,0.5-2.2,1.5c0,0.3,0.1,0.5,0.2,0.7s0.3,0.3,0.5,0.5
			c0.2,0.1,0.4,0.2,0.7,0.3c0.3,0.1,0.6,0.1,0.9,0.2c0.4,0.1,0.8,0.2,1.2,0.3c0.4,0.1,0.7,0.3,1,0.5s0.5,0.5,0.6,0.8
			s0.2,0.7,0.2,1.2c0,0.9-0.3,1.6-0.9,2.1C323.3,112.1,322.4,112.3,321.2,112.3z"/>
		<path class="st3" d="M329.7,102.6v-0.2h1.6l2.5,7l0.4,1.5h0.2l0.4-1.5l2.5-7h1.6v0.2l-3.7,9.5h-2.1L329.7,102.6z"/>
		<path class="st3" d="M341.6,100.4c-0.6,0-1-0.3-1-1c0-0.6,0.3-1,1-1s1,0.3,1,1S342.2,100.4,341.6,100.4z M340.8,102.4h1.6v9.7
			h-1.6V102.4z"/>
		<path class="st3" d="M347.8,112.3c-0.4,0-0.9,0-1.4-0.1s-1.1-0.2-1.9-0.3v-1.3c0.6,0.1,1.2,0.3,1.7,0.4s1,0.1,1.5,0.1
			c0.7,0,1.3-0.1,1.6-0.4c0.4-0.3,0.5-0.7,0.5-1.2c0-0.3,0-0.5-0.1-0.7s-0.2-0.3-0.4-0.5c-0.2-0.1-0.4-0.2-0.6-0.3s-0.5-0.1-0.8-0.2
			c-0.4-0.1-0.8-0.2-1.1-0.2c-0.4-0.1-0.7-0.2-1-0.4s-0.6-0.5-0.8-0.8c-0.2-0.3-0.3-0.8-0.3-1.4c0-0.9,0.3-1.6,0.9-2.1
			s1.5-0.7,2.6-0.7c0.2,0,0.4,0,0.6,0s0.4,0,0.6,0.1c0.2,0,0.5,0.1,0.7,0.1s0.6,0.1,0.9,0.2l-0.1,1.3c-0.6-0.1-1.1-0.2-1.5-0.3
			s-0.8-0.1-1.1-0.1c-1.5,0-2.2,0.5-2.2,1.5c0,0.3,0.1,0.5,0.2,0.7s0.3,0.3,0.5,0.5c0.2,0.1,0.4,0.2,0.7,0.3
			c0.3,0.1,0.6,0.1,0.9,0.2c0.4,0.1,0.8,0.2,1.2,0.3c0.4,0.1,0.7,0.3,1,0.5s0.5,0.5,0.6,0.8s0.2,0.7,0.2,1.2c0,0.9-0.3,1.6-0.9,2.1
			C349.9,112.1,349,112.3,347.8,112.3z"/>
		<path class="st3" d="M356,112.3c-1.6,0-2.5-0.9-2.5-2.7v-7.2h1.6v6.7c0,0.6,0.1,1.1,0.3,1.4c0.2,0.3,0.6,0.4,1.2,0.4
			s1.2-0.1,1.8-0.4c0.6-0.2,1.2-0.5,1.8-0.8v-7.4h1.6v9.7h-1.3l-0.1-1.2h-0.1c-0.5,0.2-0.9,0.4-1.3,0.6s-0.7,0.3-1,0.4
			s-0.6,0.2-0.9,0.2C356.7,112.3,356.3,112.3,356,112.3z"/>
		<path class="st3" d="M366.4,112.2c-0.8,0-1.5-0.2-1.9-0.7c-0.4-0.4-0.7-1.1-0.7-1.9c0-0.9,0.3-1.7,0.9-2.1
			c0.6-0.5,1.5-0.8,2.8-0.9l2.3-0.2v-0.7c0-0.4,0-0.8-0.1-1.1s-0.2-0.5-0.4-0.7c-0.2-0.2-0.4-0.3-0.7-0.4c-0.3-0.1-0.7-0.1-1.2-0.1
			c-0.4,0-0.8,0-1.3,0.1s-1,0.1-1.5,0.2l-0.1-1.2c0.6-0.1,1.2-0.2,1.7-0.3s1-0.1,1.6-0.1c1.3,0,2.2,0.3,2.8,0.8s0.9,1.3,0.9,2.4v6.6
			h-1.3l-0.2-1.2h-0.1c-0.6,0.4-1.2,0.7-1.7,1C367.6,112.1,367,112.2,366.4,112.2z M367,111c0.4,0,0.9-0.1,1.4-0.3s1-0.5,1.5-0.8
			v-2.4l-1.9,0.2c-0.9,0.1-1.6,0.3-2,0.5c-0.4,0.3-0.6,0.7-0.6,1.4C365.4,110.5,365.9,111,367,111z"/>
		<path class="st3" d="M374.1,97.6h1.6v14.5h-1.6V97.6z"/>
		<path class="st3" d="M378.5,97.6h1.6v14.5h-1.6V97.6z"/>
		<path class="st3" d="M384.2,115.8v-0.2l1.5-3.6l-4-9.5v-0.2h1.7l2.6,6.6l0.4,1.4h0.1l0.4-1.4l2.7-6.6h1.6v0.2l-5.7,13.5
			L384.2,115.8z"/>
	</g>
</g>
<g>
	<path class="st5" d="M946.2,92.5c-0.3,0-0.6,0-0.9,0c-0.3,0-0.6-0.1-1-0.1s-0.7-0.1-1-0.2s-0.6-0.1-0.9-0.2v-1.2
		c0.6,0.2,1.3,0.3,1.9,0.4c0.7,0.1,1.2,0.1,1.7,0.1c0.9,0,1.6-0.2,2.1-0.5s0.7-0.8,0.7-1.5c0-0.4-0.1-0.7-0.2-0.9
		c-0.1-0.3-0.3-0.5-0.6-0.6c-0.2-0.2-0.5-0.3-0.9-0.4c-0.3-0.1-0.7-0.2-1.1-0.3c-0.6-0.2-1.2-0.4-1.6-0.6s-0.8-0.4-1.1-0.7
		s-0.5-0.6-0.6-0.9c-0.1-0.4-0.2-0.8-0.2-1.2c0-0.5,0.1-0.9,0.3-1.3s0.5-0.7,0.8-1s0.8-0.5,1.3-0.7s1.1-0.2,1.7-0.2
		c0.4,0,0.9,0,1.4,0.1s1.1,0.2,1.7,0.3v1.2c-0.5-0.1-1-0.2-1.6-0.3c-0.5-0.1-1-0.1-1.4-0.1c-0.8,0-1.5,0.2-2,0.5
		c-0.5,0.4-0.7,0.9-0.7,1.5c0,0.3,0,0.6,0.1,0.8c0.1,0.2,0.3,0.4,0.5,0.6s0.5,0.3,0.8,0.5c0.3,0.1,0.8,0.3,1.3,0.4s1,0.3,1.4,0.5
		s0.8,0.4,1.1,0.6c0.3,0.3,0.6,0.6,0.7,1s0.3,0.8,0.3,1.4c0,1.1-0.4,1.9-1.1,2.4S947.5,92.5,946.2,92.5z"/>
	<path class="st5" d="M955.8,92.4c-1.3,0-2.3-0.4-3-1.1s-1-1.8-1-3.3s0.3-2.6,1-3.4s1.6-1.2,2.9-1.2c2.2,0,3.3,1.3,3.3,3.9
		c0,0.5,0,0.9-0.1,1.1h-5.7c0.1,1,0.3,1.7,0.7,2.2c0.4,0.4,1.1,0.7,2,0.7c0.4,0,0.8,0,1.3-0.1s0.9-0.2,1.4-0.3l0.1,1.1
		c-0.4,0.2-0.9,0.3-1.4,0.4C956.8,92.4,956.3,92.4,955.8,92.4z M955.6,84.6c-1.5,0-2.4,1-2.5,2.9h4.5c0-1-0.2-1.8-0.5-2.2
		C956.9,84.8,956.3,84.6,955.6,84.6z"/>
	<path class="st5" d="M960.9,83.6h1.2l0.1,1h0.1c0.4-0.2,0.8-0.4,1.2-0.5c0.3-0.1,0.7-0.3,1-0.4s0.6-0.2,0.8-0.2s0.5-0.1,0.8-0.1
		c0.7,0,1.3,0.2,1.7,0.6s0.6,1,0.6,1.8v6.4H967v-6c0-0.6-0.1-1-0.3-1.3s-0.6-0.4-1.1-0.4c-0.4,0-0.9,0.1-1.4,0.3
		c-0.5,0.2-1.1,0.4-1.7,0.7v6.7h-1.4v-8.6H960.9z"/>
	<path class="st5" d="M973.7,92.4c-1.2,0-2.1-0.4-2.7-1.1c-0.6-0.7-0.9-1.8-0.9-3.3c0-0.8,0.1-1.4,0.3-2s0.5-1,0.9-1.4
		s0.8-0.7,1.4-0.8c0.5-0.2,1.1-0.3,1.8-0.3c0.4,0,0.7,0,1.1,0.1c0.3,0,0.7,0.1,1,0.1v-4.3h1.4v12.9h-1.2l-0.1-1.1h-0.1
		C975.8,92,974.9,92.4,973.7,92.4z M974,91.3c0.3,0,0.6,0,0.9-0.1c0.3-0.1,0.5-0.2,0.8-0.4c0.2-0.2,0.4-0.4,0.5-0.6s0.2-0.5,0.2-0.8
		v-4.6c-0.3-0.1-0.6-0.1-1-0.1c-0.3,0-0.7,0-1.1,0c-0.9,0-1.6,0.3-2.1,0.8s-0.7,1.4-0.7,2.6s0.2,2.1,0.6,2.6
		C972.6,91.1,973.2,91.3,974,91.3z"/>
	<path class="st5" d="M985.7,92.4c-0.7,0-1.3-0.2-1.7-0.6s-0.6-1-0.6-1.7c0-0.8,0.3-1.5,0.8-1.9s1.4-0.7,2.5-0.8l2.1-0.2v-0.6
		c0-0.4,0-0.7-0.1-0.9c-0.1-0.3-0.2-0.5-0.4-0.6c-0.2-0.2-0.4-0.3-0.7-0.3s-0.6-0.1-1-0.1s-0.8,0-1.2,0.1c-0.4,0-0.9,0.1-1.4,0.2
		l-0.1-1.1c0.6-0.1,1.1-0.2,1.5-0.2s0.9-0.1,1.4-0.1c1.1,0,1.9,0.2,2.5,0.7c0.5,0.5,0.8,1.2,0.8,2.1v5.9H989l-0.1-1.1h-0.1
		c-0.5,0.4-1,0.7-1.5,0.9C986.8,92.3,986.3,92.4,985.7,92.4z M986.3,91.3c0.4,0,0.8-0.1,1.2-0.3c0.4-0.2,0.9-0.4,1.3-0.7v-2.2
		l-1.7,0.1c-0.8,0.1-1.4,0.2-1.8,0.5c-0.3,0.3-0.5,0.7-0.5,1.2C984.9,90.8,985.3,91.3,986.3,91.3z"/>
	<path class="st5" d="M992.6,83.6h1.2l0.1,1h0.1c0.4-0.2,0.8-0.4,1.2-0.5c0.3-0.1,0.7-0.3,1-0.4s0.6-0.2,0.8-0.2s0.5-0.1,0.8-0.1
		c0.7,0,1.3,0.2,1.7,0.6s0.6,1,0.6,1.8v6.4h-1.4v-6c0-0.6-0.1-1-0.3-1.3s-0.6-0.4-1.1-0.4c-0.4,0-0.9,0.1-1.4,0.3
		c-0.5,0.2-1.1,0.4-1.7,0.7v6.7h-1.4v-8.6H992.6z"/>
	<path class="st5" d="M1007.7,92.4c-0.7,0-1.3-0.2-1.7-0.6s-0.6-1-0.6-1.7c0-0.8,0.3-1.5,0.8-1.9s1.4-0.7,2.5-0.8l2.1-0.2v-0.6
		c0-0.4,0-0.7-0.1-0.9c-0.1-0.3-0.2-0.5-0.4-0.6c-0.2-0.2-0.4-0.3-0.7-0.3s-0.6-0.1-1-0.1s-0.8,0-1.2,0.1c-0.4,0-0.9,0.1-1.4,0.2
		l-0.1-1.1c0.6-0.1,1.1-0.2,1.5-0.2s0.9-0.1,1.4-0.1c1.1,0,1.9,0.2,2.5,0.7c0.5,0.5,0.8,1.2,0.8,2.1v5.9h-1.2l-0.1-1.1h-0.1
		c-0.5,0.4-1,0.7-1.5,0.9C1008.7,92.3,1008.2,92.4,1007.7,92.4z M1008.2,91.3c0.4,0,0.8-0.1,1.2-0.3c0.4-0.2,0.9-0.4,1.3-0.7v-2.2
		l-1.7,0.1c-0.8,0.1-1.4,0.2-1.8,0.5c-0.3,0.3-0.5,0.7-0.5,1.2C1006.8,90.8,1007.3,91.3,1008.2,91.3z"/>
	<path class="st5" d="M1014.6,79.4h1.4v12.9h-1.4V79.4z"/>
	<path class="st5" d="M1022,92.4c-1.3,0-2.3-0.4-3-1.1s-1-1.8-1-3.3s0.3-2.6,1-3.4s1.6-1.2,2.9-1.2c2.2,0,3.3,1.3,3.3,3.9
		c0,0.5,0,0.9-0.1,1.1h-5.7c0.1,1,0.3,1.7,0.7,2.2s1.1,0.7,2,0.7c0.4,0,0.8,0,1.3-0.1s0.9-0.2,1.4-0.3l0.1,1.1
		c-0.4,0.2-0.9,0.3-1.4,0.4C1022.9,92.4,1022.4,92.4,1022,92.4z M1021.8,84.6c-1.5,0-2.4,1-2.5,2.9h4.5c0-1-0.2-1.8-0.5-2.2
		C1023.1,84.8,1022.5,84.6,1021.8,84.6z"/>
	<path class="st5" d="M1027.1,83.6h1.2l0.1,1.2h0.1c0.6-0.3,1.1-0.6,1.6-0.8c0.5-0.2,1-0.4,1.4-0.5h0.4v1.3h-0.5
		c-0.5,0.1-1,0.2-1.5,0.4c-0.5,0.2-1,0.4-1.5,0.6v6.4h-1.4v-8.6H1027.1z"/>
	<path class="st5" d="M1036.7,92.4c-0.8,0-1.4-0.2-1.9-0.6c-0.4-0.4-0.6-1-0.6-1.8v-5.1h-1.8v-1.2h1.9l0.2-2.2l1.1-0.1v2.3h2.6v1.2
		h-2.5v4.8c0,0.5,0.1,0.9,0.4,1.2c0.2,0.3,0.6,0.4,1.1,0.4c0.2,0,0.3,0,0.5,0s0.4-0.1,0.6-0.1v1.1c-0.2,0.1-0.5,0.1-0.8,0.2
		S1036.9,92.4,1036.7,92.4z"/>
	<path class="st5" d="M1046.4,92.4c-0.8,0-1.4-0.2-1.9-0.6c-0.4-0.4-0.6-1-0.6-1.8v-5.1h-1.8v-1.2h1.9l0.2-2.2l1.1-0.1v2.3h2.6v1.2
		h-2.5v4.8c0,0.5,0.1,0.9,0.4,1.2s0.6,0.4,1.1,0.4c0.2,0,0.3,0,0.5,0s0.4-0.1,0.6-0.1v1.1c-0.2,0.1-0.5,0.1-0.8,0.2
		S1046.6,92.4,1046.4,92.4z"/>
	<path class="st5" d="M1053,92.4c-1.3,0-2.3-0.4-3-1.2c-0.7-0.8-1-1.9-1-3.3c0-1.5,0.3-2.6,1-3.3s1.7-1.1,3-1.1s2.3,0.4,3,1.1
		s1,1.9,1,3.3s-0.3,2.6-1,3.3S1054.3,92.4,1053,92.4z M1053,91.3c0.9,0,1.5-0.3,2-0.8c0.4-0.5,0.6-1.4,0.6-2.5s-0.2-2-0.6-2.5
		s-1.1-0.8-2-0.8s-1.5,0.3-2,0.8s-0.6,1.4-0.6,2.5s0.2,2,0.6,2.5C1051.5,91,1052.1,91.3,1053,91.3z"/>
	<path class="st5" d="M961.8,111.6c-0.8,0-1.4-0.2-1.9-0.6c-0.4-0.4-0.6-1-0.6-1.8v-5.1h-1.8v-1.2h1.9l0.2-2.2l1.1-0.1v2.3h2.6v1.2
		h-2.5v4.8c0,0.5,0.1,0.9,0.4,1.2c0.2,0.3,0.6,0.4,1.1,0.4c0.2,0,0.3,0,0.5,0s0.4-0.1,0.6-0.1v1.1c-0.2,0.1-0.5,0.1-0.8,0.2
		S962,111.6,961.8,111.6z"/>
	<path class="st5" d="M968.4,111.6c-1.3,0-2.3-0.4-3-1.1s-1-1.8-1-3.3s0.3-2.6,1-3.4s1.6-1.2,2.9-1.2c2.2,0,3.3,1.3,3.3,3.9
		c0,0.5,0,0.9-0.1,1.1h-5.7c0.1,1,0.3,1.7,0.7,2.2c0.4,0.4,1.1,0.7,2,0.7c0.4,0,0.8,0,1.3-0.1s0.9-0.2,1.4-0.3l0.1,1.1
		c-0.4,0.2-0.9,0.3-1.4,0.4C969.4,111.6,968.9,111.6,968.4,111.6z M968.2,103.8c-1.5,0-2.4,1-2.5,2.9h4.5c0-1-0.2-1.8-0.5-2.2
		C969.5,104,968.9,103.8,968.2,103.8z"/>
	<path class="st5" d="M975.2,111.6c-0.7,0-1.3-0.2-1.7-0.6s-0.6-1-0.6-1.7c0-0.8,0.3-1.5,0.8-1.9s1.4-0.7,2.5-0.8l2.1-0.2v-0.6
		c0-0.4,0-0.7-0.1-0.9c-0.1-0.3-0.2-0.5-0.4-0.6c-0.2-0.2-0.4-0.3-0.7-0.3s-0.6-0.1-1-0.1s-0.8,0-1.2,0.1c-0.4,0-0.9,0.1-1.4,0.2
		l-0.1-1.1c0.6-0.1,1.1-0.2,1.5-0.2s0.9-0.1,1.4-0.1c1.1,0,1.9,0.2,2.5,0.7c0.5,0.5,0.8,1.2,0.8,2.1v5.9h-1.2l-0.1-1.1h-0.1
		c-0.5,0.4-1,0.7-1.5,0.9C976.3,111.5,975.7,111.6,975.2,111.6z M975.7,110.5c0.4,0,0.8-0.1,1.2-0.3c0.4-0.2,0.9-0.4,1.3-0.7v-2.2
		l-1.7,0.1c-0.8,0.1-1.4,0.2-1.8,0.5c-0.3,0.3-0.5,0.7-0.5,1.2C974.4,110,974.8,110.5,975.7,110.5z"/>
	<path class="st5" d="M982.1,102.8h1.2l0.1,1h0.1c0.7-0.4,1.3-0.7,1.7-0.9c0.5-0.2,0.9-0.3,1.4-0.3c1,0,1.7,0.4,2.1,1.2h0.1
		c0.7-0.4,1.3-0.7,1.8-0.9c0.5-0.2,1-0.3,1.4-0.3c0.7,0,1.3,0.2,1.7,0.6s0.6,1,0.6,1.8v6.4h-1.4v-6c0-0.6-0.1-1-0.3-1.3
		s-0.6-0.4-1.1-0.4c-0.3,0-0.7,0.1-1.1,0.2c-0.4,0.2-0.9,0.4-1.4,0.7v6.7h-1.4v-6c0-0.6-0.1-1-0.3-1.3s-0.6-0.4-1.1-0.4
		c-0.3,0-0.7,0.1-1.2,0.3c-0.4,0.2-0.9,0.4-1.4,0.7v6.7h-1.4L982.1,102.8L982.1,102.8z"/>
	<path class="st5" d="M1002.3,111.6c-1.5,0-2.2-0.8-2.2-2.4v-6.4h1.4v6c0,0.6,0.1,1,0.3,1.2c0.2,0.3,0.5,0.4,1,0.4s1-0.1,1.6-0.3
		c0.5-0.2,1.1-0.5,1.6-0.7v-6.6h1.4v8.6h-1.2l-0.1-1.1h-0.1c-0.4,0.2-0.8,0.4-1.2,0.6c-0.3,0.2-0.6,0.3-0.9,0.4
		c-0.3,0.1-0.6,0.2-0.8,0.2C1003,111.6,1002.7,111.6,1002.3,111.6z"/>
	<path class="st5" d="M1009.9,102.8h1.2l0.1,1h0.1c0.4-0.2,0.8-0.4,1.2-0.5c0.3-0.1,0.7-0.3,1-0.4s0.6-0.2,0.8-0.2s0.5-0.1,0.8-0.1
		c0.7,0,1.3,0.2,1.7,0.6s0.6,1,0.6,1.8v6.4h-1.4v-6c0-0.6-0.1-1-0.3-1.3s-0.6-0.4-1.1-0.4c-0.4,0-0.9,0.1-1.4,0.3
		c-0.5,0.2-1.1,0.4-1.7,0.7v6.7h-1.4v-8.6H1009.9z"/>
	<path class="st5" d="M1020.3,101.1c-0.6,0-0.9-0.3-0.9-0.8c0-0.6,0.3-0.9,0.9-0.9c0.6,0,0.9,0.3,0.9,0.9
		C1021.2,100.8,1020.9,101.1,1020.3,101.1z M1019.6,102.8h1.4v8.6h-1.4V102.8z"/>
	<path class="st5" d="M1026.8,111.6c-0.8,0-1.4-0.2-1.9-0.6c-0.4-0.4-0.6-1-0.6-1.8v-5.1h-1.8v-1.2h1.9l0.2-2.2l1.1-0.1v2.3h2.6v1.2
		h-2.5v4.8c0,0.5,0.1,0.9,0.4,1.2s0.6,0.4,1.1,0.4c0.2,0,0.3,0,0.5,0s0.4-0.1,0.6-0.1v1.1c-0.2,0.1-0.5,0.1-0.8,0.2
		S1027,111.6,1026.8,111.6z"/>
	<path class="st5" d="M1031.9,111.4l4.3-11.7h2.2l4.3,11.7v0.1h-1.4l-1.3-3.5h-5.3l-1.3,3.5L1031.9,111.4L1031.9,111.4L1031.9,111.4
		z M1039.5,106.8l-1.5-4l-0.7-2.1h-0.1l-0.7,2.1l-1.5,4H1039.5z"/>
</g>
<g>
	<g>
		<path class="st3" d="M936.3,346c-0.3,0-0.6,0-1,0c-0.3,0-0.7-0.1-1.1-0.1s-0.7-0.1-1.1-0.2s-0.7-0.1-1.1-0.2v-1.4
			c0.7,0.2,1.4,0.3,2.2,0.4c0.7,0.1,1.4,0.2,1.9,0.2c1,0,1.8-0.2,2.4-0.6s0.8-0.9,0.8-1.7c0-0.4-0.1-0.8-0.2-1
			c-0.2-0.3-0.4-0.5-0.6-0.7c-0.3-0.2-0.6-0.4-1-0.5s-0.8-0.3-1.2-0.4c-0.7-0.2-1.3-0.4-1.8-0.6s-0.9-0.5-1.2-0.8s-0.6-0.7-0.7-1.1
			c-0.2-0.4-0.2-0.9-0.2-1.4c0-0.6,0.1-1.1,0.3-1.5s0.5-0.8,0.9-1.2c0.4-0.3,0.9-0.6,1.4-0.7c0.6-0.2,1.2-0.3,1.9-0.3
			c0.5,0,1,0,1.6,0.1s1.2,0.2,1.9,0.4l-0.1,1.4c-0.6-0.2-1.2-0.3-1.7-0.4c-0.6-0.1-1.1-0.1-1.6-0.1c-0.9,0-1.7,0.2-2.2,0.6
			s-0.8,1-0.8,1.7c0,0.3,0.1,0.6,0.2,0.9c0.1,0.3,0.3,0.5,0.5,0.7s0.6,0.4,0.9,0.5s0.9,0.3,1.4,0.5c0.6,0.2,1.1,0.3,1.6,0.5
			s0.9,0.4,1.3,0.7c0.4,0.3,0.6,0.7,0.8,1.1s0.3,0.9,0.3,1.5c0,1.2-0.4,2.1-1.2,2.7S937.8,346,936.3,346z"/>
		<path class="st3" d="M947.1,345.9c-1.5,0-2.6-0.4-3.4-1.2c-0.8-0.8-1.1-2-1.1-3.7s0.4-2.9,1.1-3.8s1.8-1.3,3.3-1.3
			c2.5,0,3.7,1.4,3.7,4.3c0,0.6,0,1-0.1,1.3h-6.4c0.1,1.1,0.3,1.9,0.8,2.4s1.3,0.7,2.3,0.7c0.5,0,0.9,0,1.5-0.1
			c0.5-0.1,1-0.2,1.5-0.4l0.1,1.2c-0.5,0.2-1,0.3-1.6,0.4S947.6,345.9,947.1,345.9z M947,337.1c-1.7,0-2.7,1.1-2.8,3.3h5.1
			c0-1.2-0.2-2-0.6-2.5C948.3,337.4,947.8,337.1,947,337.1z"/>
		<path class="st3" d="M952.9,336.1h1.3l0.1,1.1h0.1c0.5-0.2,0.9-0.4,1.3-0.6c0.4-0.2,0.7-0.3,1.1-0.4c0.3-0.1,0.6-0.2,0.9-0.2
			c0.3,0,0.6-0.1,0.8-0.1c0.8,0,1.5,0.2,1.9,0.7c0.4,0.4,0.7,1.1,0.7,2v7.2h-1.6v-6.7c0-0.7-0.1-1.1-0.4-1.4s-0.6-0.4-1.2-0.4
			c-0.5,0-1,0.1-1.6,0.3c-0.6,0.2-1.2,0.4-1.9,0.8v7.5h-1.6v-9.8H952.9z"/>
		<path class="st3" d="M967.3,346c-1.3,0-2.3-0.4-3-1.2c-0.7-0.8-1-2.1-1-3.8c0-0.9,0.1-1.6,0.3-2.3c0.2-0.6,0.6-1.2,1-1.6
			s0.9-0.7,1.5-1s1.3-0.3,2-0.3c0.4,0,0.8,0,1.2,0.1s0.7,0.1,1.1,0.1v-4.8h1.6v14.5h-1.4l-0.1-1.2h-0.1
			C969.6,345.5,968.6,346,967.3,346z M967.7,344.8c0.4,0,0.7-0.1,1-0.2s0.6-0.2,0.9-0.4c0.3-0.2,0.5-0.4,0.6-0.7
			c0.1-0.3,0.2-0.6,0.2-0.9v-5.2c-0.3-0.1-0.7-0.1-1.1-0.1c-0.4,0-0.8-0.1-1.2-0.1c-1.1,0-1.8,0.3-2.4,0.9s-0.8,1.6-0.8,2.9
			c0,1.4,0.2,2.3,0.7,2.9C966,344.4,966.7,344.8,967.7,344.8z"/>
		<path class="st3" d="M980.8,345.9c-0.8,0-1.5-0.2-1.9-0.7c-0.4-0.4-0.7-1.1-0.7-1.9c0-0.9,0.3-1.6,0.9-2.1s1.5-0.8,2.8-0.9
			l2.3-0.2v-0.7c0-0.4,0-0.8-0.1-1.1c-0.1-0.3-0.2-0.5-0.4-0.7s-0.4-0.3-0.7-0.4s-0.7-0.1-1.2-0.1c-0.4,0-0.8,0-1.3,0.1
			c-0.5,0-1,0.1-1.5,0.2l-0.1-1.2c0.6-0.1,1.2-0.2,1.7-0.3c0.5-0.1,1-0.1,1.6-0.1c1.3,0,2.2,0.3,2.8,0.8s0.9,1.3,0.9,2.4v6.6h-1.3
			l-0.2-1.2h-0.1c-0.6,0.4-1.2,0.7-1.7,1C982,345.8,981.4,345.9,980.8,345.9z M981.4,344.6c0.4,0,0.9-0.1,1.4-0.3s1-0.5,1.5-0.8
			v-2.4l-1.9,0.2c-0.9,0.1-1.6,0.3-2,0.5c-0.4,0.3-0.6,0.7-0.6,1.4C979.8,344.3,980.4,344.6,981.4,344.6z"/>
		<path class="st3" d="M988.5,336.1h1.3l0.1,1.1h0.1c0.5-0.2,0.9-0.4,1.3-0.6s0.8-0.3,1.1-0.4s0.6-0.2,0.9-0.2
			c0.3,0,0.6-0.1,0.8-0.1c0.8,0,1.5,0.2,1.9,0.7c0.4,0.4,0.7,1.1,0.7,2v7.2h-1.6v-6.7c0-0.7-0.1-1.1-0.4-1.4s-0.6-0.4-1.2-0.4
			c-0.5,0-1,0.1-1.6,0.3c-0.6,0.2-1.2,0.4-1.9,0.8v7.5h-1.6v-9.8H988.5z"/>
		<path class="st3" d="M1007.6,345.9c-1.5,0-2.6-0.4-3.4-1.2c-0.8-0.8-1.1-2-1.1-3.7s0.4-2.9,1.1-3.8s1.8-1.3,3.3-1.3
			c2.5,0,3.7,1.4,3.7,4.3c0,0.6,0,1-0.1,1.3h-6.4c0.1,1.1,0.3,1.9,0.8,2.4s1.3,0.7,2.3,0.7c0.5,0,0.9,0,1.5-0.1
			c0.5-0.1,1-0.2,1.5-0.4l0.1,1.2c-0.5,0.2-1,0.3-1.6,0.4S1008.1,345.9,1007.6,345.9z M1007.5,337.1c-1.7,0-2.7,1.1-2.8,3.3h5.1
			c0-1.2-0.2-2-0.6-2.5C1008.8,337.4,1008.3,337.1,1007.5,337.1z"/>
		<path class="st3" d="M1013.4,336.1h1.3l0.1,1.1h0.1c0.8-0.5,1.4-0.8,2-1s1.1-0.3,1.6-0.3c1.2,0,1.9,0.4,2.3,1.3h0.1
			c0.8-0.5,1.4-0.8,2-1s1.1-0.3,1.6-0.3c0.8,0,1.5,0.2,1.9,0.7c0.4,0.4,0.7,1.1,0.7,2v7.2h-1.6v-6.7c0-0.7-0.1-1.1-0.4-1.4
			s-0.7-0.4-1.2-0.4c-0.4,0-0.8,0.1-1.3,0.3c-0.5,0.2-1,0.4-1.5,0.7v7.5h-1.6v-6.7c0-0.7-0.1-1.1-0.4-1.4c-0.3-0.3-0.7-0.4-1.2-0.4
			c-0.4,0-0.8,0.1-1.3,0.3c-0.5,0.2-1,0.4-1.5,0.8v7.5h-1.6L1013.4,336.1L1013.4,336.1z"/>
		<path class="st3" d="M1031.5,345.9c-0.8,0-1.5-0.2-1.9-0.7c-0.4-0.4-0.7-1.1-0.7-1.9c0-0.9,0.3-1.6,0.9-2.1
			c0.6-0.5,1.5-0.8,2.8-0.9l2.3-0.2v-0.7c0-0.4,0-0.8-0.1-1.1c-0.1-0.3-0.2-0.5-0.4-0.7s-0.4-0.3-0.7-0.4c-0.3-0.1-0.7-0.1-1.2-0.1
			c-0.4,0-0.8,0-1.3,0.1c-0.5,0-1,0.1-1.5,0.2l-0.1-1.2c0.6-0.1,1.2-0.2,1.7-0.3c0.5-0.1,1-0.1,1.6-0.1c1.3,0,2.2,0.3,2.8,0.8
			s0.9,1.3,0.9,2.4v6.6h-1.3l-0.2-1.2h-0.1c-0.6,0.4-1.2,0.7-1.7,1C1032.7,345.8,1032.1,345.9,1031.5,345.9z M1032.1,344.6
			c0.4,0,0.9-0.1,1.4-0.3s1-0.5,1.5-0.8v-2.4l-1.9,0.2c-0.9,0.1-1.6,0.3-2,0.5c-0.4,0.3-0.6,0.7-0.6,1.4
			C1030.5,344.3,1031.1,344.6,1032.1,344.6z"/>
		<path class="st3" d="M1040,334c-0.6,0-1-0.3-1-1c0-0.6,0.3-1,1-1s1,0.3,1,1S1040.7,334,1040,334z M1039.2,336.1h1.6v9.7h-1.6
			V336.1z"/>
		<path class="st3" d="M1043.6,331.3h1.6v14.5h-1.6V331.3z"/>
		<path class="st3" d="M1055.5,345.9c-0.9,0-1.6-0.2-2.1-0.7s-0.7-1.2-0.7-2.1v-5.7h-2v-1.3h2.1l0.2-2.4l1.2-0.2v2.6h2.9v1.4h-2.9
			v5.4c0,0.6,0.1,1.1,0.4,1.4s0.7,0.4,1.3,0.4c0.2,0,0.4,0,0.6,0s0.4-0.1,0.7-0.2v1.3c-0.3,0.1-0.6,0.1-0.9,0.2
			S1055.8,345.9,1055.5,345.9z"/>
		<path class="st3" d="M1062.9,346c-1.5,0-2.6-0.4-3.3-1.3c-0.8-0.9-1.2-2.1-1.2-3.7s0.4-2.9,1.2-3.8c0.8-0.9,1.9-1.3,3.3-1.3
			c1.4,0,2.6,0.4,3.3,1.3c0.8,0.9,1.2,2.1,1.2,3.8c0,1.6-0.4,2.9-1.2,3.8C1065.5,345.5,1064.4,346,1062.9,346z M1062.9,344.8
			c1,0,1.7-0.3,2.2-0.9s0.7-1.5,0.7-2.9c0-1.3-0.2-2.3-0.7-2.9s-1.2-0.9-2.2-0.9s-1.7,0.3-2.2,0.9s-0.7,1.5-0.7,2.9
			c0,1.3,0.2,2.3,0.7,2.9C1061.2,344.4,1061.9,344.8,1062.9,344.8z"/>
		<path class="st3" d="M937.6,367.6c-0.4,0-0.9,0-1.4-0.1s-1.1-0.2-1.9-0.3V366c0.6,0.1,1.2,0.3,1.7,0.4s1,0.1,1.5,0.1
			c0.7,0,1.3-0.1,1.6-0.4c0.4-0.3,0.5-0.7,0.5-1.2c0-0.3,0-0.5-0.1-0.7s-0.2-0.3-0.4-0.5c-0.2-0.1-0.4-0.2-0.6-0.3s-0.5-0.1-0.8-0.2
			c-0.4-0.1-0.8-0.2-1.1-0.2s-0.7-0.2-1-0.4c-0.3-0.2-0.6-0.5-0.8-0.8s-0.3-0.8-0.3-1.4c0-0.9,0.3-1.6,0.9-2.1
			c0.6-0.5,1.5-0.7,2.6-0.7c0.2,0,0.4,0,0.6,0c0.2,0,0.4,0,0.6,0.1c0.2,0,0.5,0.1,0.7,0.1c0.3,0,0.6,0.1,0.9,0.2l-0.1,1.3
			c-0.6-0.1-1.1-0.2-1.5-0.3c-0.4-0.1-0.8-0.1-1.1-0.1c-1.5,0-2.2,0.5-2.2,1.5c0,0.3,0.1,0.5,0.2,0.7c0.1,0.2,0.3,0.3,0.5,0.5
			c0.2,0.1,0.4,0.2,0.7,0.3s0.6,0.1,0.9,0.2c0.4,0.1,0.8,0.2,1.2,0.3c0.4,0.1,0.7,0.3,1,0.5s0.5,0.5,0.6,0.8s0.2,0.7,0.2,1.2
			c0,0.9-0.3,1.6-0.9,2.1C939.7,367.4,938.8,367.6,937.6,367.6z"/>
		<path class="st3" d="M947.4,367.5c-1.5,0-2.6-0.4-3.4-1.2c-0.8-0.8-1.1-2-1.1-3.7s0.4-2.9,1.1-3.8c0.8-0.9,1.8-1.3,3.3-1.3
			c2.5,0,3.7,1.4,3.7,4.3c0,0.6,0,1-0.1,1.3h-6.4c0.1,1.1,0.3,1.9,0.8,2.4s1.3,0.7,2.3,0.7c0.5,0,0.9,0,1.5-0.1s1-0.2,1.5-0.4
			l0.1,1.2c-0.5,0.2-1,0.3-1.6,0.4S947.9,367.5,947.4,367.5z M947.2,358.8c-1.7,0-2.7,1.1-2.8,3.3h5.1c0-1.2-0.2-2-0.6-2.5
			S948,358.8,947.2,358.8z"/>
		<path class="st3" d="M957.3,367.5c-3.1,0-4.6-1.7-4.6-5c0-3.4,1.5-5,4.6-5c0.4,0,0.8,0,1.2,0.1c0.4,0,0.8,0.1,1.1,0.2v1.3
			c-0.4-0.1-0.7-0.1-1.1-0.2c-0.4,0-0.7-0.1-1.1-0.1c-1.1,0-1.9,0.3-2.4,0.9s-0.8,1.5-0.8,2.8s0.2,2.2,0.7,2.8s1.3,0.9,2.4,0.9
			c0.4,0,0.8,0,1.1,0s0.7-0.1,1.1-0.2v1.3c-0.3,0.1-0.6,0.1-1.1,0.2S957.7,367.5,957.3,367.5z"/>
		<path class="st3" d="M964.1,367.6c-1.6,0-2.5-0.9-2.5-2.7v-7.2h1.6v6.7c0,0.6,0.1,1.1,0.3,1.4s0.6,0.4,1.2,0.4
			c0.6,0,1.2-0.1,1.8-0.4s1.2-0.5,1.8-0.8v-7.4h1.6v9.7h-1.3l-0.1-1.2h-0.1c-0.5,0.2-0.9,0.4-1.3,0.6c-0.4,0.2-0.7,0.3-1,0.4
			s-0.6,0.2-0.9,0.2C964.8,367.5,964.5,367.6,964.1,367.6z"/>
		<path class="st3" d="M972.6,357.8h1.3l0.1,1.3h0.1c0.7-0.4,1.3-0.7,1.9-1c0.6-0.3,1.1-0.4,1.6-0.5h0.5v1.5h-0.6
			c-0.5,0.1-1.1,0.2-1.7,0.4s-1.1,0.5-1.6,0.7v7.2h-1.6V357.8z"/>
		<path class="st3" d="M980.4,355.6c-0.6,0-1-0.3-1-1c0-0.6,0.3-1,1-1s1,0.3,1,1S981.1,355.6,980.4,355.6z M979.6,357.8h1.6v9.7
			h-1.6V357.8z"/>
		<path class="st3" d="M987.7,367.5c-0.9,0-1.6-0.2-2.1-0.7s-0.7-1.2-0.7-2.1V359h-2v-1.4h2.1l0.2-2.4l1.2-0.2v2.6h2.9v1.4h-2.9v5.4
			c0,0.6,0.1,1.1,0.4,1.3c0.3,0.3,0.7,0.4,1.3,0.4c0.2,0,0.4,0,0.6,0c0.2,0,0.4-0.1,0.7-0.2v1.3c-0.3,0.1-0.6,0.1-0.9,0.2
			S988,367.5,987.7,367.5z"/>
		<path class="st3" d="M992.6,371.1v-0.2l1.5-3.6l-4-9.5v-0.2h1.7l2.6,6.6l0.4,1.4h0.1l0.4-1.4l2.7-6.6h1.6v0.2l-5.7,13.5
			L992.6,371.1z"/>
		<path class="st3" d="M1009.1,367.6c-1.5,0-2.6-0.4-3.3-1.3c-0.8-0.9-1.2-2.1-1.2-3.7s0.4-2.9,1.2-3.8s1.9-1.3,3.3-1.3
			s2.6,0.4,3.3,1.3c0.8,0.9,1.2,2.1,1.2,3.8c0,1.6-0.4,2.9-1.2,3.8C1011.7,367.1,1010.5,367.6,1009.1,367.6z M1009.1,366.4
			c1,0,1.7-0.3,2.2-0.9s0.7-1.5,0.7-2.9c0-1.3-0.2-2.3-0.7-2.9s-1.2-0.9-2.2-0.9s-1.7,0.3-2.2,0.9s-0.7,1.5-0.7,2.9
			c0,1.3,0.2,2.3,0.7,2.9C1007.3,366,1008.1,366.4,1009.1,366.4z"/>
		<path class="st3" d="M1016.6,359h-2.1v-1.4h2.1v-0.5c0-0.9,0.1-1.6,0.2-2.1c0.1-0.6,0.4-1,0.7-1.3s0.8-0.6,1.4-0.7
			c0.6-0.1,1.3-0.2,2.2-0.3l0.1,1.2c-0.6,0-1.1,0.1-1.5,0.2s-0.7,0.2-0.9,0.5s-0.4,0.5-0.5,0.8c-0.1,0.4-0.1,0.8-0.1,1.4v0.9h2.6
			v1.4h-2.6v8.4h-1.6L1016.6,359L1016.6,359z M1023.5,359h-2.1v-1.4h2.1v-0.5c0-0.9,0.1-1.6,0.2-2.1c0.1-0.6,0.4-1,0.7-1.3
			s0.8-0.6,1.4-0.7c0.6-0.1,1.3-0.2,2.2-0.3l0.1,1.2c-0.6,0-1.1,0.1-1.5,0.2c-0.4,0.1-0.7,0.2-0.9,0.5s-0.4,0.5-0.5,0.8
			c-0.1,0.4-0.1,0.8-0.1,1.4v0.9h2.6v1.4h-2.6v8.4h-1.6V359L1023.5,359z M1030.3,355.6c-0.6,0-1-0.3-1-1c0-0.6,0.3-1,1-1s1,0.3,1,1
			S1031,355.6,1030.3,355.6z M1029.5,357.8h1.6v9.7h-1.6V357.8z"/>
		<path class="st3" d="M1037.9,367.5c-3.1,0-4.6-1.7-4.6-5c0-3.4,1.5-5,4.6-5c0.4,0,0.8,0,1.2,0.1c0.4,0,0.8,0.1,1.1,0.2v1.3
			c-0.4-0.1-0.7-0.1-1.1-0.2c-0.4,0-0.7-0.1-1.1-0.1c-1.1,0-1.9,0.3-2.4,0.9s-0.8,1.5-0.8,2.8s0.2,2.2,0.7,2.8
			c0.5,0.6,1.3,0.9,2.4,0.9c0.4,0,0.8,0,1.1,0c0.3,0,0.7-0.1,1.1-0.2v1.3c-0.3,0.1-0.6,0.1-1.1,0.2S1038.4,367.5,1037.9,367.5z"/>
		<path class="st3" d="M1046.2,367.5c-1.5,0-2.6-0.4-3.4-1.2c-0.8-0.8-1.1-2-1.1-3.7s0.4-2.9,1.1-3.8c0.8-0.9,1.8-1.3,3.3-1.3
			c2.5,0,3.7,1.4,3.7,4.3c0,0.6,0,1-0.1,1.3h-6.4c0.1,1.1,0.3,1.9,0.8,2.4s1.3,0.7,2.3,0.7c0.5,0,0.9,0,1.5-0.1
			c0.5-0.1,1-0.2,1.5-0.4l0.1,1.2c-0.5,0.2-1,0.3-1.6,0.4C1047.3,367.4,1046.7,367.5,1046.2,367.5z M1046,358.8
			c-1.7,0-2.7,1.1-2.8,3.3h5.1c0-1.2-0.2-2-0.6-2.5C1047.3,359,1046.8,358.8,1046,358.8z"/>
		<path class="st3" d="M1051.9,357.8h1.3l0.1,1.3h0.1c0.7-0.4,1.3-0.7,1.9-1c0.6-0.3,1.1-0.4,1.6-0.5h0.5v1.5h-0.6
			c-0.5,0.1-1.1,0.2-1.7,0.4c-0.6,0.2-1.1,0.5-1.6,0.7v7.2h-1.6L1051.9,357.8L1051.9,357.8z"/>
		<path class="st3" d="M1061.7,367.6c-0.4,0-0.9,0-1.4-0.1s-1.1-0.2-1.9-0.3V366c0.6,0.1,1.2,0.3,1.7,0.4s1,0.1,1.5,0.1
			c0.7,0,1.3-0.1,1.6-0.4c0.4-0.3,0.5-0.7,0.5-1.2c0-0.3,0-0.5-0.1-0.7c-0.1-0.2-0.2-0.3-0.4-0.5c-0.2-0.1-0.4-0.2-0.6-0.3
			s-0.5-0.1-0.8-0.2c-0.4-0.1-0.8-0.2-1.1-0.2s-0.7-0.2-1-0.4c-0.3-0.2-0.6-0.5-0.8-0.8c-0.2-0.3-0.3-0.8-0.3-1.4
			c0-0.9,0.3-1.6,0.9-2.1c0.6-0.5,1.5-0.7,2.6-0.7c0.2,0,0.4,0,0.6,0s0.4,0,0.6,0.1c0.2,0,0.5,0.1,0.7,0.1c0.3,0,0.6,0.1,0.9,0.2
			l-0.1,1.3c-0.6-0.1-1.1-0.2-1.5-0.3c-0.4-0.1-0.8-0.1-1.1-0.1c-1.5,0-2.2,0.5-2.2,1.5c0,0.3,0.1,0.5,0.2,0.7
			c0.1,0.2,0.3,0.3,0.5,0.5c0.2,0.1,0.4,0.2,0.7,0.3c0.3,0.1,0.6,0.1,0.9,0.2c0.4,0.1,0.8,0.2,1.2,0.3c0.4,0.1,0.7,0.3,1,0.5
			s0.5,0.5,0.6,0.8c0.2,0.3,0.2,0.7,0.2,1.2c0,0.9-0.3,1.6-0.9,2.1C1063.7,367.4,1062.9,367.6,1061.7,367.6z"/>
	</g>
</g>
</svg>
