<?xml version="1.0" encoding="utf-8"?>
<!-- Generator: Adobe Illustrator 24.2.3, SVG Export Plug-In . SVG Version: 6.00 Build 0)  -->
<svg version="1.1" id="Layer_1" xmlns="http://www.w3.org/2000/svg" xmlns:xlink="http://www.w3.org/1999/xlink" x="0px" y="0px"
	 viewBox="0 0 353.1 62.5" style="enable-background:new 0 0 353.1 62.5;" xml:space="preserve">
<style type="text/css">
	.st0{fill:#FFFFFF;}
	.st1{fill:#E52033;}
</style>
<g>
	<g>
		<g>
			<rect y="33" class="st0" width="94.9" height="1"/>
			<g>
				<path class="st0" d="M101,33.5c-2.8,1.1-6.4,2.9-8.5,4.8l1.7-4.8l-1.7-4.8C94.6,30.7,98.1,32.5,101,33.5z"/>
			</g>
		</g>
	</g>
	<g>
		<g>
			<rect x="163.5" y="30.8" class="st0" width="183.6" height="1"/>
			<g>
				<path class="st0" d="M353.1,31.2c-2.8,1.1-6.4,2.9-8.5,4.8l1.7-4.8l-1.7-4.8C346.8,28.4,350.3,30.2,353.1,31.2z"/>
			</g>
		</g>
	</g>
	<g>
		<circle class="st1" cx="132.2" cy="31.2" r="31.3"/>
		<g>
			<path class="st0" d="M119.8,29c0-5.5,0-11,0-16.5c0-0.3,0-0.6,0.2-0.8c0.2-0.3,0.5-0.5,0.9-0.5c4,0,8.1,0,12.1,0
				c2.7,0,5.4,0,8.1,0c0.8,0,1.5,0,2.3,0c0.7,0,1.2,0.5,1.2,1.2c0,3.2,0,6.3,0,9.5c0,2,0,3.9,0,5.9c0,1.2,0,2.3,0,3.5
				c0,4.3,0,8.7,0,13c0,0.5,0,1,0,1.5c0,0.3-0.1,0.3-0.4,0.4c0,0,0,0,0,0c-0.4,0.1-0.7-0.1-0.9-0.5c-0.2-0.4-0.4-0.8-0.7-1.3
				c-0.1-0.1-0.1-0.3-0.1-0.4c0-6.5,0-13,0-19.5c0-2,0-4,0-6c0-0.4-0.1-0.5-0.4-0.5c-2.6,0-5.2,0-7.7,0c-4,0-8.1,0-12.1,0
				c-0.4,0-0.5,0.1-0.5,0.5c0,3.9,0,7.8,0,11.7c0,4.6,0,9.2,0,13.8c0,0.2,0,0.3-0.1,0.5c-0.3,0.5-0.5,1-0.8,1.5
				c-0.1,0.2-0.2,0.2-0.3,0.2c-0.8,0-0.7,0-0.7-0.7C119.8,40,119.8,34.5,119.8,29z M128.5,14.8c0-0.7-0.5-1-1-1c-0.5,0-1,0.4-1,1
				c0,0.5,0.5,1,1,1C128.1,15.7,128.5,15.4,128.5,14.8z M132.2,13.8c-0.5,0-1,0.4-1,1c0,0.6,0.5,1,1,1c0.5,0,1-0.4,1-1
				C133.2,14.3,132.7,13.8,132.2,13.8z M135.9,14.8c0,0.5,0.4,1,1,1c0.5,0,1-0.5,1-1c0-0.5-0.5-1-1-1
				C136.4,13.8,135.9,14.3,135.9,14.8z"/>
			<path class="st0" d="M132.2,46.8c3.1,0,6.1,0,9.2,0c0.6,0,1.2,0,1.8,0c0.2,0,0.3,0.1,0.3,0.3c0,1.3,0,2.6,0,3.8
				c0,0.3-0.1,0.4-0.4,0.4c-4.1,0-8.1,0-12.2,0c-3.1,0-6.1,0-9.2,0c-0.7,0-0.7,0-0.7-0.7c0-1.1,0-2.3,0-3.4c0-0.3,0-0.3,0.3-0.3
				C124.9,46.8,128.6,46.8,132.2,46.8z"/>
			<path class="st0" d="M132.2,38.2c2.1,0,4.1,0,6.2,0c0.5,0,0.8,0.1,1,0.6c1.2,2.3,2.4,4.6,3.7,6.9c0.2,0.3,0.2,0.3-0.2,0.4
				c-0.2,0-0.5,0-0.7,0c-3.8,0-7.6,0-11.4,0c-0.5,0-1,0-1.6,0c-2.5,0-4.9,0-7.4,0c-0.1,0-0.1,0-0.2,0c-0.2,0-0.3-0.1-0.2-0.3
				c0.3-0.5,0.6-1,0.8-1.6c1-1.9,2-3.8,3-5.7c0.1-0.3,0.3-0.4,0.6-0.4c1.7,0,3.4,0,5.1,0C131.3,38.2,131.8,38.2,132.2,38.2
				C132.2,38.2,132.2,38.2,132.2,38.2z M141,44.8c0-0.1-0.1-0.2-0.1-0.2c-0.8-1.6-1.7-3.1-2.5-4.7c-0.1-0.3-0.3-0.3-0.6-0.3
				c-2,0-4.1,0-6.1,0c-1.8,0-3.6,0-5.4,0c-0.1,0-0.2,0-0.3,0.2c-0.9,1.6-1.7,3.3-2.6,4.9c0,0,0,0.1,0,0.1
				C129.3,44.8,135.1,44.8,141,44.8z"/>
			<path class="st0" d="M132.2,43.4c-1,0-2.1,0-3.1,0c-1.3,0-2.6,0-3.9,0c-0.2,0-0.4,0-0.4-0.3c0-0.2,0.1-0.4,0.3-0.4
				c0.2,0,0.3,0,0.5,0c4.4,0,8.9,0,13.3,0c0.1,0,0.3,0,0.4,0c0.2,0,0.4,0.1,0.4,0.3c0,0.2-0.1,0.3-0.4,0.3c-0.4,0-0.8,0-1.2,0
				C136.1,43.4,134.2,43.4,132.2,43.4C132.2,43.4,132.2,43.4,132.2,43.4z"/>
			<path class="st0" d="M132.2,41.4c-1.9,0-3.7,0-5.6,0c-0.1,0-0.1,0-0.2,0c-0.2,0-0.3-0.1-0.3-0.3c0-0.2,0.1-0.3,0.3-0.3
				c0.1,0,0.1,0,0.2,0c3.7,0,7.4,0,11.2,0c0.1,0,0.2,0,0.2,0c0.2,0,0.3,0.2,0.3,0.3c0,0.2-0.1,0.3-0.3,0.3c-0.1,0-0.1,0-0.2,0
				C135.9,41.4,134.1,41.4,132.2,41.4z"/>
		</g>
	</g>
	<g>
		<path class="st0" d="M1.4,12.3h7.7v1.2H2.8v4.1h5.8v1.2H2.8v4.3h6.4v1.2H1.4V12.3z"/>
		<path class="st0" d="M10.1,15.7v-0.2h1.5l2.3,6.3l0.4,1.3h0.2l0.4-1.3l2.3-6.3h1.5v0.2l-3.3,8.6h-1.9L10.1,15.7z"/>
		<path class="st0" d="M23.5,24.5c-1.3,0-2.4-0.4-3-1.1c-0.7-0.7-1-1.8-1-3.3s0.3-2.7,1-3.5c0.7-0.8,1.7-1.2,3-1.2
			c2.2,0,3.4,1.3,3.4,3.9c0,0.5,0,0.9-0.1,1.1H21c0.1,1,0.3,1.8,0.8,2.2c0.5,0.4,1.1,0.7,2.1,0.7c0.4,0,0.9,0,1.3-0.1
			c0.5-0.1,0.9-0.2,1.4-0.3l0.1,1.1c-0.4,0.2-0.9,0.3-1.4,0.4C24.5,24.4,24,24.5,23.5,24.5z M23.4,16.5c-1.6,0-2.4,1-2.5,2.9h4.6
			c0-1.1-0.2-1.8-0.5-2.3C24.6,16.7,24.1,16.5,23.4,16.5z"/>
		<path class="st0" d="M28.8,15.5H30l0.1,1h0.1c0.4-0.2,0.8-0.4,1.2-0.5c0.4-0.2,0.7-0.3,1-0.4c0.3-0.1,0.6-0.2,0.8-0.2
			c0.3,0,0.5-0.1,0.8-0.1c0.7,0,1.3,0.2,1.7,0.6s0.6,1,0.6,1.8v6.5h-1.4v-6.1c0-0.6-0.1-1-0.3-1.3s-0.6-0.4-1.1-0.4
			c-0.4,0-0.9,0.1-1.4,0.3c-0.5,0.2-1.1,0.4-1.7,0.7v6.8H29v-8.7C29,15.5,28.8,15.5,28.8,15.5z"/>
		<path class="st0" d="M42,24.5c-0.8,0-1.5-0.2-1.9-0.6s-0.6-1-0.6-1.9v-5.2h-1.8v-1.3h1.9l0.2-2.2l1.1-0.1v2.3h2.6v1.3h-2.6v4.9
			c0,0.6,0.1,1,0.4,1.2c0.2,0.3,0.6,0.4,1.1,0.4c0.2,0,0.3,0,0.5,0s0.4-0.1,0.6-0.1v1.1c-0.2,0.1-0.5,0.1-0.8,0.2
			C42.5,24.5,42.3,24.5,42,24.5z"/>
		<path class="st0" d="M47.4,14L47.4,14l-2.9,1.4h-0.1l-0.2-0.9v-0.1l3.6-2.1h1.1v12.1h-1.4L47.4,14L47.4,14z"/>
	</g>
	<g>
		<path class="st0" d="M195.4,18.2l-4.1-5.7h1.6l3.1,4.4l0.2,0.4h0.1l0.2-0.4l3.2-4.4h1.6l-4.2,5.8l4.4,6H200l-3.4-4.8l-0.2-0.4
			h-0.1l-0.2,0.4l-3.4,4.8H191L195.4,18.2z"/>
		<path class="st0" d="M207.6,19.9c-0.2,0-0.4,0-0.7,0c-0.2,0-0.5,0-0.7,0c-0.2,0-0.5,0-0.8,0s-0.6,0-0.9-0.1v4.4h-1.4V12.5
			c1-0.2,2-0.2,3-0.2c1.9,0,3.2,0.3,4.1,0.9c0.9,0.6,1.3,1.6,1.3,2.9c0,0.9-0.2,1.7-0.6,2.3c-0.4,0.6-1.1,1-2,1.2l3,4.7h-1.6
			L207.6,19.9z M206.4,18.8c0.7,0,1.2,0,1.7-0.1c0.5-0.1,0.8-0.3,1.1-0.5c0.3-0.2,0.5-0.5,0.6-0.8c0.1-0.3,0.2-0.7,0.2-1.2
			c0-0.9-0.3-1.6-0.9-2c-0.6-0.4-1.5-0.6-2.8-0.6c-0.3,0-0.6,0-0.9,0s-0.6,0.1-0.9,0.1v5c0.2,0,0.4,0.1,0.8,0.1
			C205.6,18.7,206,18.8,206.4,18.8z"/>
		<path class="st0" d="M212.4,24.2l4.3-11.7h2.2l4.3,11.7v0.1h-1.4l-1.3-3.5h-5.3l-1.3,3.5h-1.4V24.2z M220,19.6l-1.5-4l-0.7-2.1
			h-0.1l-0.7,2.1l-1.5,4H220z"/>
		<path class="st0" d="M226.5,20.3l-4.3-7.9h1.5l2.9,5.5l0.5,1.1h0.1l0.5-1.1l2.9-5.5h1.5l-4.3,7.8v4h-1.4V20.3z"/>
		<path class="st0" d="M233,24.3c-0.3,0-0.5-0.1-0.7-0.2c-0.2-0.1-0.2-0.4-0.2-0.7c0-0.3,0.1-0.5,0.2-0.7c0.2-0.1,0.4-0.2,0.7-0.2
			s0.5,0.1,0.7,0.2s0.2,0.4,0.2,0.6s-0.1,0.5-0.2,0.7C233.5,24.3,233.2,24.3,233,24.3z"/>
		<path class="st0" d="M236.3,12.4h1.4v10.7h5.4v1.2h-6.8V12.4z"/>
		<path class="st0" d="M244.7,12.4h7.5v1.2h-6.1v4.1h5.7v1.2h-5.7v4.2h6.2v1.2h-7.7V12.4z"/>
		<path class="st0" d="M253.3,12.4h1.5l3,8.1l0.8,2.3h0.1l0.8-2.3l3-8.1h1.5l-4.3,11.8h-1.9L253.3,12.4z"/>
		<path class="st0" d="M269.3,24.5c-1.5,0-2.6-0.5-3.3-1.5c-0.8-1-1.1-2.5-1.1-4.6c0-2,0.4-3.5,1.1-4.6s1.9-1.5,3.3-1.5
			c1.4,0,2.5,0.5,3.3,1.5s1.1,2.5,1.1,4.6c0,2-0.4,3.5-1.1,4.6C271.9,23.9,270.8,24.5,269.3,24.5z M269.3,23.3c1,0,1.8-0.4,2.2-1.2
			c0.5-0.8,0.7-2,0.7-3.7c0-1.7-0.2-2.9-0.7-3.7c-0.5-0.8-1.2-1.2-2.2-1.2c-1,0-1.8,0.4-2.3,1.2c-0.5,0.8-0.8,2-0.8,3.7
			c0,1.7,0.2,2.9,0.7,3.7C267.6,22.9,268.3,23.3,269.3,23.3z"/>
		<path class="st0" d="M276.5,24.3c-0.3,0-0.5-0.1-0.7-0.2c-0.2-0.1-0.2-0.4-0.2-0.7c0-0.3,0.1-0.5,0.2-0.7c0.2-0.1,0.4-0.2,0.7-0.2
			s0.5,0.1,0.7,0.2s0.2,0.4,0.2,0.6s-0.1,0.5-0.2,0.7C277,24.3,276.8,24.3,276.5,24.3z"/>
		<path class="st0" d="M282.8,24.5c-0.3,0-0.6,0-0.9,0c-0.3,0-0.6-0.1-1-0.1c-0.3,0-0.7-0.1-1-0.2s-0.6-0.1-0.9-0.2v-1.2
			c0.6,0.2,1.3,0.3,1.9,0.4c0.7,0.1,1.2,0.1,1.7,0.1c0.9,0,1.6-0.2,2.1-0.5c0.5-0.3,0.7-0.8,0.7-1.5c0-0.4-0.1-0.7-0.2-0.9
			c-0.1-0.3-0.3-0.5-0.6-0.6c-0.2-0.2-0.5-0.3-0.9-0.4c-0.3-0.1-0.7-0.2-1.1-0.3c-0.6-0.2-1.2-0.4-1.6-0.6s-0.8-0.4-1.1-0.7
			c-0.3-0.3-0.5-0.6-0.6-0.9c-0.1-0.4-0.2-0.8-0.2-1.2c0-0.5,0.1-0.9,0.3-1.3c0.2-0.4,0.5-0.7,0.8-1s0.8-0.5,1.3-0.7
			c0.5-0.2,1.1-0.2,1.7-0.2c0.4,0,0.9,0,1.4,0.1c0.5,0.1,1.1,0.2,1.7,0.3l0,1.2c-0.5-0.1-1-0.2-1.6-0.3s-1-0.1-1.4-0.1
			c-0.8,0-1.5,0.2-2,0.5s-0.7,0.9-0.7,1.5c0,0.3,0,0.6,0.1,0.8c0.1,0.2,0.3,0.4,0.5,0.6c0.2,0.2,0.5,0.3,0.8,0.5
			c0.3,0.1,0.8,0.3,1.3,0.4c0.5,0.1,1,0.3,1.4,0.5c0.4,0.2,0.8,0.4,1.1,0.6c0.3,0.3,0.6,0.6,0.7,1s0.3,0.8,0.3,1.4
			c0,1.1-0.4,1.9-1.1,2.4S284.2,24.5,282.8,24.5z"/>
		<path class="st0" d="M289.1,12.4h7.5v1.2h-6.1v4.1h5.7v1.2h-5.7v4.2h6.2v1.2h-7.7V12.4z"/>
		<path class="st0" d="M299,12.4h1.2l6.1,8.3l0.9,1.4h0.1v-9.7h1.3v11.8h-1.2l-6.1-8.3l-0.9-1.4l-0.1,0v9.6H299V12.4z"/>
		<path class="st0" d="M315.3,24.5c-1.5,0-2.6-0.5-3.3-1.5c-0.8-1-1.1-2.5-1.1-4.6c0-2,0.4-3.5,1.1-4.6s1.9-1.5,3.3-1.5
			c1.4,0,2.5,0.5,3.3,1.5s1.1,2.5,1.1,4.6c0,2-0.4,3.5-1.1,4.6C317.9,23.9,316.8,24.5,315.3,24.5z M315.3,23.3c1,0,1.8-0.4,2.2-1.2
			c0.5-0.8,0.7-2,0.7-3.7c0-1.7-0.2-2.9-0.7-3.7c-0.5-0.8-1.2-1.2-2.2-1.2c-1,0-1.8,0.4-2.3,1.2c-0.5,0.8-0.8,2-0.8,3.7
			c0,1.7,0.2,2.9,0.7,3.7C313.6,22.9,314.3,23.3,315.3,23.3z"/>
		<path class="st0" d="M324.1,14.1L324.1,14.1l-2.8,1.4h-0.1l-0.2-0.8v-0.1l3.5-2.1h1.1v11.8h-1.4V14.1z"/>
	</g>
</g>
</svg>
