<svg xmlns="http://www.w3.org/2000/svg" viewBox="0 0 16.69 28.57"><defs><style>.cls-1{fill:#fff;}</style></defs><title>access-control</title><g id="Layer_2" data-name="Layer 2"><g id="layer"><path class="cls-1" d="M6.83,24.27H1.31C.31,24.29,0,24,0,23V7.56c0-1,.28-1.31,1.28-1.31h9.17c1.11,0,1.32.24,1.33,1.37,0,2.7,0,5.41,0,8.11,0,.3-.11.35-.38.35-1,0-1.95,0-2.93,0H8.11c-.88,0-1.25.4-1.26,1.28,0,1.62,0,3.23,0,4.85ZM3.18,15.41c0-.32,0-.65,0-1a.5.5,0,0,0-.54-.55,7.48,7.48,0,0,0-.82,0,.49.49,0,0,0-.53.55c0,.63,0,1.25,0,1.88a.5.5,0,0,0,.51.54,8.42,8.42,0,0,0,.87,0,.51.51,0,0,0,.53-.55Zm0-4.89c0-.33,0-.65,0-1A.5.5,0,0,0,2.64,9H1.81a.5.5,0,0,0-.53.54c0,.63,0,1.25,0,1.88a.51.51,0,0,0,.55.56h.83a.49.49,0,0,0,.51-.53Q3.19,11,3.17,10.52Z"/><path class="cls-1" d="M16.69,22.89v4.58c0,.76-.34,1.1-1.1,1.1H8.87c-.78,0-1.12-.34-1.12-1.12v-9c0-1,.3-1.25,1.26-1.25h6.5c.88,0,1.18.3,1.18,1.2Zm-1.16,4.54V18.37H12.26v9.06Zm-5.23,0v-9H8.91v9.05Z"/><path class="cls-1" d="M6.09,0A7.3,7.3,0,0,1,11.2,2.2a2.42,2.42,0,0,1,.27.36.65.65,0,0,1,0,.86.73.73,0,0,1-.91-.17A6.09,6.09,0,0,0,6.34,1.18,5.45,5.45,0,0,0,2.15,2.55c-.36.31-.68.67-1,1-.19.18-.42.4-.69.19a.62.62,0,0,1-.15-.82A4.25,4.25,0,0,1,.92,2,7.26,7.26,0,0,1,6.09,0Z"/><path class="cls-1" d="M5.73,2.5A4.68,4.68,0,0,1,9.12,4.08c.33.38.34.73.06,1s-.68.19-1-.21A2.74,2.74,0,0,0,4.09,4.5c-.13.13-.23.29-.36.43s-.19.24-.3.25a1.41,1.41,0,0,1-.77-.06c-.21-.12-.15-.64.07-.93A4.12,4.12,0,0,1,4.59,2.78,11.59,11.59,0,0,1,5.73,2.5Z"/></g></g></svg>