<?xml version="1.0" encoding="utf-8"?>
<!-- Generator: Adobe Illustrator 24.2.3, SVG Export Plug-In . SVG Version: 6.00 Build 0)  -->
<svg version="1.1" id="Layer_1" xmlns="http://www.w3.org/2000/svg" xmlns:xlink="http://www.w3.org/1999/xlink" x="0px" y="0px"
	 viewBox="0 0 246.2 246.1" style="enable-background:new 0 0 246.2 246.1;" xml:space="preserve">
<style type="text/css">
	.st0{fill:#FFFFFF;}
</style>
<g>
	<path class="st0" d="M246.2,104.6c-8.3-0.7-16.9-0.3-24.9-2.3c-15.1-3.6-29.9-8.3-44.6-13c-13.3-4.2-26-2-38.7,2.3
		c-12.9,4.4-25.6,9.6-38.8,12.5c-8.4,1.9-17.6,0.3-26.5,0c-5.5-0.2-7.4-3.4-7.4-8.9c0.1-14.7-0.1-14.7,14.3-11.9
		c12.9,2.4,24.7-1.8,36.2-6.6c16.4-6.8,32.8-13.2,51.1-11.3c6.7,0.7,13.3,2,20.3,3.1c0-13.2,0.1-25.6,0-38c-0.1-7.2-4.7-9-10.9-9
		c-17,0-33.9,0-50.9,0c-18.1,0-36.3-0.1-54.4,0c-9.4,0-11.4,2-11.4,11.1c0,60.3,0,120.6,0,180.9c0,9.3,1.9,10.9,11.4,11
		c34.9,0,69.8,0,104.6,0c9.4,0,11.6-2.1,11.6-11.7c0.1-9.4-0.1-18.8,0-28.3c0.1-5.8,2.1-7.1,7.5-4.9c3,1.2,6.3,2.2,9,4
		c2.2,1.4,5.1,3.9,5.2,6c0.1,11.5,0.5,23.2-1.2,34.4c-2,13.2-14,21.8-27.4,21.8c-37.5,0.1-75-0.6-112.4,0.3
		c-14.1,0.3-30.6-11.7-30.5-30.2c0.1-13.2-0.3-26.4,0.2-39.6c0.2-4.8-1.6-7.2-5.7-8.1c-8-1.9-16-4-24.1-5.2c-5.3-0.8-8-2.1-7.8-8.2
		c0.4-16.3-1.9-16.3,15.8-13.5c7,1.1,14,3,21,4.6c1.8-13,1.8-13.2-9-16.1c-7.7-2.1-15.6-3.4-23.3-5.6c-1.8-0.5-3.2-3-4.3-4.8
		c-0.5-0.8-0.1-2.3-0.1-3.5c0-14.2,1.2-15.1,15.5-12.1c3.7,0.8,7.4,1.4,11.1,2.4c3.3,0.8,6.5,2,9.9,3c2.4-12.7,2.3-13.3-8.7-16.7
		c-7.1-2.2-14.5-3.8-21.9-5c-4.3-0.7-5.9-2.2-6-6.7c-0.2-16.5,0.3-17.2,16.7-14.2c6.6,1.2,13.2,3.1,20.7,4.9c0-7.9,0-15.3,0-22.8
		c0-6.4,0-12.7,0-19.1C37.5,15,46.3,6.4,58.1,0c43.4,0,86.7,0,130.1,0c16.3,7.6,22.4,20.7,21.2,38.2c-0.7,10.3,0.3,20.6-0.3,30.9
		c-0.4,6.2,2.2,8.4,7.6,9.5c9.9,1.9,19.7,4.1,29.5,6.2C246.2,91.4,246.2,98,246.2,104.6z"/>
	<path class="st0" d="M246.2,179.5c-11.1,2.7-21.4-1.4-31.7-4.3c-13.3-3.7-26.4-8.4-39.9-11.5c-20.6-4.8-39.4,2.4-57.8,10.7
		c-13,5.9-26.7,7.2-40.7,5.6c-9.3-1.1-15.2-13.8-9.9-21.7c0.8-1.1,3.5-2,4.8-1.6c17.5,5.8,33.2-0.5,49.1-6.7
		c8.9-3.5,18.1-6.5,27.4-8.7c16.6-4,32.6,0.6,48.5,5.1c16.7,4.7,33.5,8.9,50.3,13.3C246.2,166.3,246.2,172.9,246.2,179.5z"/>
	<path class="st0" d="M246.2,142.8c-12.8-2.4-25.8-4.2-38.5-7.2c-13.7-3.2-27-8.2-40.8-10.8c-13.1-2.5-25.4,2.7-37.7,7
		c-11.7,4.1-23.4,8.5-35.5,10.9c-7.1,1.4-14.9-0.5-22.3-1.3c-4.4-0.5-6.5-3.4-6-8c0.1-0.5,0-0.9,0-1.4c-0.1-13.3-0.1-13.2,12.7-11.2
		c13.6,2.2,26.2-1.6,38.4-6.9c16.4-7.1,32.9-13.4,51.1-10.9c10.9,1.5,21.4,4.9,32.2,7.5c15.5,3.7,31,7.4,46.5,11
		C246.2,128.6,246.2,135.7,246.2,142.8z"/>
</g>
</svg>
