<?xml version="1.0" encoding="utf-8"?>
<!-- Generator: Adobe Illustrator 24.2.3, SVG Export Plug-In . SVG Version: 6.00 Build 0)  -->
<svg version="1.1" id="Layer_1" xmlns="http://www.w3.org/2000/svg" xmlns:xlink="http://www.w3.org/1999/xlink" x="0px" y="0px"
	 viewBox="0 0 210.9 224.8" style="enable-background:new 0 0 210.9 224.8;" xml:space="preserve">
<style type="text/css">
	.st0{fill:#FEA210;}
</style>
<g>
	<path class="st0" d="M63.5,61.2c-2.9,2.7-5.3,5.6-7.5,8.8c-6.3,9.5-9.4,19.9-9.5,31.3c0,5.8,0.7,11.6,2.4,17.1
		c2.4,8,6.4,15.1,12.1,21.3c5.2,5.7,11.3,10.1,18.3,13.4c2.1,1,3.5,2.3,3.5,4.8c-0.1,3.3-3.5,5.6-6.5,4.2c-9-4.1-16.8-10-23.2-17.6
		c-4.9-5.7-8.8-12-11.4-19.1c-1.4-3.9-2.4-8-3.4-12c-0.5-2-0.7-4.1-0.9-6.2c-0.1-0.7-0.4-0.9-1.1-0.9c-1.7,0-3.5,0-5.2,0
		c-2.3-0.1-4.1-1.6-4.6-3.7c-0.5-1.9,0.5-4.2,2.4-5.1c0.8-0.4,1.7-0.6,2.5-0.6c1.6-0.1,3.2-0.1,4.8,0c0.7,0,1.1-0.2,1.2-1
		c1.5-16,8.1-29.7,19.3-41.2c0.7-0.7,0.7-1.2,0.1-1.9c-3.1-3.7-6.2-7.4-9.2-11.1c-0.6-0.7-1-0.9-1.7-0.2c-9.6,9.2-16.7,20-21.1,32.5
		c-3.1,8.8-4.6,17.8-4.6,27.2c0,5.6,0.4,11.2,1.5,16.7c1.5,8,4.2,15.6,8,22.8c5.5,10.4,12.9,19.2,22.2,26.5
		c5.2,4.1,10.9,7.4,16.9,10.2c2.7,1.3,3.7,3.3,3.1,5.8c-0.7,2.6-3.7,4.2-6.2,3.1c-6.7-2.9-12.9-6.7-18.6-11.2
		c-11-8.6-19.6-19.1-26.1-31.4c-3.7-7.1-6.4-14.5-8.1-22.2c-0.9-4.5-1.4-9.2-2-13.8c-0.1-1-0.4-1.3-1.4-1.3c-1.5,0.1-3.1,0-4.6,0
		c-2.9-0.1-4.9-2.1-4.9-4.8C0,99,2.1,97,5,96.9c1.5,0,2.9,0,4.4,0c1.4,0,1.5-0.1,1.6-1.5c0.3-4.9,1.1-9.8,2.2-14.5
		c1.8-7.7,4.6-15.1,8.2-22.2c4.6-8.8,10.4-16.6,17.5-23.5c0.3-0.3,0.5-0.5,0.8-0.8c1.1-1.1,1.1-1.1,0.1-2.3c-2.9-3.5-5.8-7-8.7-10.5
		c-1.3-1.6-1.7-3.4-0.8-5.2c1.5-3.2,5.6-3.7,7.9-1c3.3,3.9,6.5,7.8,9.8,11.8C54.4,35.1,61,43,67.6,50.9c4.8,5.8,9.6,11.6,14.3,17.4
		c5.5,6.7,11,13.3,16.6,20c0.3,0.3,1,0.6,1.3,0.5c3.8-1.3,7.3-0.5,10.5,1.6c3.4,2.3,5.8,5.4,6.5,9.5c0.5,3-0.2,5.7-1.8,8.2
		c-2.3,3.6-5.4,6.1-9.7,6.9c-3,0.6-5.8-0.2-8.3-1.8c-3.6-2.3-6.1-5.4-6.9-9.7c-0.5-2.6,0.1-5,1.3-7.3c0.4-0.8,0.3-1.3-0.2-2
		c-3.2-3.9-6.5-7.8-9.7-11.7c-0.8-1-1-1-1.8,0c-2.7,3.2-4.7,6.9-5.7,10.9c-2.2,9.2-1.2,17.9,4.3,25.8c3.2,4.6,7.4,7.8,12.5,10.2
		c1.8,0.8,2.9,2.3,2.9,4.3c0.1,1.9-0.8,3.3-2.5,4.2c-1.4,0.8-2.9,0.8-4.3,0.1c-8.2-3.9-14.3-9.9-18.7-17.8c-2.2-4-3.6-8.3-4.3-12.7
		c-0.1-0.9-0.5-1-1.3-1c-1.7,0-3.5,0.1-5.2,0c-2.3-0.1-4.1-1.6-4.6-3.8c-0.4-2,0.5-4.2,2.4-5.1c0.8-0.4,1.7-0.6,2.5-0.6
		c1.6-0.1,3.2-0.1,4.8,0c0.7,0,1.1-0.2,1.2-1c1.1-6.9,3.8-13,7.9-18.6c0.7-0.9,1.5-1.7,2.1-2.5c0.2-0.3,0.3-0.9,0.1-1.1
		c-3.4-4.1-6.8-8.2-10.2-12.3C63.9,61.3,63.7,61.3,63.5,61.2z M99.5,101.7c0,3,1.1,4,4,4c3,0,4.1-1.1,4-4.2c0-2.8-1.1-3.9-4-3.9
		C100.9,97.6,99.4,99.1,99.5,101.7z"/>
	<path class="st0" d="M163.7,210.2c0.3-0.4,0.7-0.7,1-1.1c2.6-3.3,5.3-6.7,7.9-10c1.3-1.6,2.9-2.4,4.9-2c0.9,0.2,1.2-0.1,1.2-1
		c0.1-1.9,1-3.2,2.7-3.9c4-1.7,8-3.4,12-5.2c0.4-0.2,0.9-0.4,1.3-0.8c-0.4,0-0.9-0.1-1.3-0.1c-3.4,0.4-6.9,0.7-10.3,1.1
		c-2.2,0.2-4.4,0.5-6.7,0.7c-2,0.2-3.5-0.7-4.5-2.3c-4.6-7-9.2-14.1-13.8-21.1c-1.7-2.6-1-5.5,1.8-7c11.2-6.1,22.4-12.2,33.6-18.3
		c1.5-0.8,3-1.6,4.4-2.4c0.4-0.2,1.1-0.4,0.7-1.1c-0.3-0.6-0.8-1.1-1.6-0.9c-1.4,0.3-2.8,0.7-4.3,1.1c-4.4,1.1-8.9,2.2-13.3,3.3
		c-4.5,1.1-9,2.2-13.5,3.4c-4.4,1.1-8.7,2.2-13.1,3.2c-1.3,0.3-2.6,0.6-4,0.9c-2.1,0.5-3.8-0.1-5.1-1.7c-1.9-2.3-3.6-4.7-5.4-7.1
		c-3.2-4.2-6.5-8.4-9.8-12.6c-1.7-2.2-3.8-4-6.4-5.2c-1-0.4-2-0.9-2.9-0.1c-1,0.8-0.8,2-0.6,3.1c0.6,3,2,5.7,3.8,8.1
		c4.9,6.4,9.8,12.8,14.8,19.1c2.2,2.8,4.5,5.6,6.7,8.5c1.7,2.2,1.5,5.1-0.6,6.8c-2.1,1.7-5,1.3-6.8-0.9c-0.8-0.9-1.5-1.9-2.4-2.9
		c-0.3,0.4-0.5,0.6-0.7,0.9c-6.7,12-13.3,23.9-19.9,35.9c-0.3,0.5-0.3,1.2-0.1,1.7c0.2,0.7,0.8,0.8,1.4,0.2c1.4-1.4,2.7-2.9,4.1-4.3
		c5.3-5.5,10.5-11,15.8-16.5c1.8-1.9,4.1-2.2,6.1-1c2.7,1.7,3.1,5,0.8,7.5c-2.8,2.9-5.6,5.8-8.4,8.7c-5.3,5.5-10.5,11-15.8,16.4
		c-2.6,2.7-5.6,2.5-7.9-0.5c-1.9-2.5-3.9-5.1-5.8-7.6c-1.5-1.9-1.5-3.8-0.4-5.9c7.9-14.2,15.7-28.4,23.6-42.5c0.5-1,0.5-1.6-0.2-2.4
		c-3.7-4.7-7.3-9.4-10.9-14.1c-3.6-4.7-5.7-9.9-6-15.8c-0.1-2.1,0.2-4.4,0.9-6.4c1.4-4,5.2-6,9.5-5.4c4.5,0.6,8.4,2.7,12,5.4
		c3.7,2.8,6.3,6.6,9.1,10.3c2.4,3.2,4.9,6.3,7.3,9.5c0.5,0.7,1,0.9,1.9,0.7c3.9-1,7.8-1.9,11.7-2.9c4.4-1.1,8.9-2.2,13.3-3.3
		c4.4-1.1,8.9-2.2,13.3-3.3c3.2-0.8,6.3-1.6,9.5-2.3c2.4-0.5,4.2,0.4,5.7,2.4c1.8,2.5,3.7,4.8,5.5,7.3c2.2,2.9,1.6,5.9-1.6,7.6
		c-12.5,6.8-24.9,13.6-37.4,20.5c-0.3,0.1-0.5,0.3-0.8,0.4c-0.7,0.3-0.8,0.7-0.3,1.4c2.2,3.3,4.4,6.7,6.5,10c0.7,1,1.3,2.1,2,3.2
		c0.4,0.6,0.8,0.9,1.6,0.8c4.6-0.5,9.3-1,13.9-1.5c1.8-0.2,3.6-0.4,5.5-0.6c2.3-0.3,4,0.7,5.3,2.6c1.3,1.9,2.8,3.7,4.2,5.5
		c2.2,2.9,1.2,6.2-2.1,7.6c-5.3,2.2-10.6,4.5-15.9,6.7c-0.9,0.4-1,0.8-0.9,1.8c0.2,1.7,0.4,3.5,0.1,5.1c-0.9,4.1-4.2,5.2-8.1,4.3
		c-1-0.2-2-0.6-2.9-1.1c-0.9-0.5-1.4-0.2-1.9,0.5c-2.4,3.1-4.9,6.2-7.3,9.2c-1.2,1.5-2.3,3-3.5,4.5c-2,2.5-5.4,2.6-7.5,0.1
		c-1.8-2.2-3.5-4.4-5.2-6.7c-1-1.3-1.2-2.8-0.6-4.4c2.3-6,4.6-12,7-18c0.4-1.1,0.3-1.8-0.5-2.7c-4.8-5.3-9.5-10.7-14.2-16.1
		c-1.4-1.6-1.6-3.6-0.6-5.3c1-1.8,2.6-2.6,4.7-2.5c1.4,0.1,2.4,0.9,3.3,1.9c2.6,3.1,5.2,6.2,7.9,9.2c3.7,4.1,7.6,8.1,11.4,12
		c1.5,1.6,2.3,3.3,1.4,5.5c-0.8,2-2.4,2.9-4.6,3c-0.4,0-0.9,0.4-1,0.7c-1.4,3.5-2.7,6.9-4,10.4C163.6,210.1,163.6,210.2,163.7,210.2
		z"/>
	<path class="st0" d="M196.7,106.5c-1.6,0-3.2-0.1-4.7,0c-2.9,0.2-5.3-2.4-5.3-5.2c0.2-9.4-1.4-18.5-4.5-27.4
		c-3.9-11.2-10-21.1-18.2-29.6c-7.2-7.5-15.5-13.4-24.9-17.8c-0.6-0.3-1.1-0.6-1.7-0.8c-2.3-1.3-3.2-3.9-2.1-6.2
		c1.1-2.3,3.8-3.3,6.3-2.2c6.7,3,12.9,6.8,18.6,11.3c10.8,8.5,19.4,18.9,25.7,31.1c3.7,7,6.5,14.4,8.1,22.2
		c0.9,4.5,1.4,9.1,1.9,13.7c0.1,1.1,0.4,1.5,1.5,1.4c1.9,0,3.9-0.1,5.8,0.2c2.5,0.5,3.9,2.7,3.6,5.1c-0.3,2.3-2.3,4-4.7,4.1
		c-0.9,0-1.8,0-2.8,0C198.6,106.4,197.6,106.4,196.7,106.5C196.7,106.4,196.7,106.5,196.7,106.5z"/>
	<path class="st0" d="M170.3,106.5c-1.7,0-3.3,0-5,0c-2.9,0-5-2.1-5-5c0.1-11.2-2.9-21.5-8.9-30.9c-4.8-7.5-11.1-13.4-18.8-17.8
		c-1.9-1.1-3.8-2-5.7-3c-2.5-1.3-3.4-4-2.2-6.4c1.1-2.3,3.9-3.2,6.3-2c14,6.5,24.4,16.8,31.5,30.4c3.7,7,5.8,14.5,7,22.3
		c0.1,0.6,0.1,1.2,0.1,1.9c0,0.7,0.3,1,1.1,1c1.7,0,3.4,0,5.1,0c2.8,0.1,4.9,2.2,4.8,4.9c-0.1,2.5-2.1,4.5-4.7,4.6
		c-0.9,0-1.8,0-2.8,0C172.1,106.4,171.2,106.4,170.3,106.5C170.3,106.4,170.3,106.5,170.3,106.5z"/>
	<path class="st0" d="M143.8,106.5c-1.7,0-3.4,0-5.1,0c-2.7,0-4.8-2.1-4.9-4.8c-0.1-13-6.2-22.1-17.7-27.7c-1.8-0.9-2.9-2.2-3-4.3
		c-0.1-1.9,0.8-3.4,2.5-4.3c1.4-0.7,2.9-0.7,4.3,0c8.5,4,14.7,10.4,19,18.7c1.9,3.8,3.2,7.8,3.9,11.9c0.1,0.8,0.4,1,1.1,1
		c1.7,0,3.4,0,5.2,0c2.3,0.1,4.2,1.6,4.7,3.8c0.4,1.9-0.5,4.2-2.4,5.1c-0.8,0.4-1.7,0.6-2.5,0.6
		C147.4,106.5,145.6,106.4,143.8,106.5C143.8,106.4,143.8,106.5,143.8,106.5z"/>
	<path class="st0" d="M108.2,10.1c0,1.7,0,3.4,0,5.1c-0.1,2.9-2.1,5-4.8,5c-2.6,0-4.7-2.2-4.7-5.1c0-3.4,0-6.8,0-10.2
		c0-1.9,0.9-3.5,2.7-4.3c1.7-0.8,3.4-0.6,4.9,0.4c1.3,1,1.9,2.4,2,4C108.3,6.7,108.2,8.4,108.2,10.1
		C108.2,10.1,108.2,10.1,108.2,10.1z"/>
	<path class="st0" d="M108.2,36.5c0,1.8,0.1,3.6,0,5.4c-0.1,2.4-1.6,4.1-4,4.6c-1.8,0.4-3.9-0.6-4.9-2.4c-0.4-0.7-0.6-1.5-0.6-2.3
		c-0.1-3.5-0.1-7,0-10.5c0-2.6,2-4.7,4.5-4.8c2.7-0.1,4.9,2,5,4.7C108.3,32.9,108.2,34.7,108.2,36.5
		C108.2,36.5,108.2,36.5,108.2,36.5z"/>
	<path class="st0" d="M108.2,62.9c0,1.8,0.1,3.6,0,5.4c-0.1,2.4-1.6,4.1-4,4.6c-1.8,0.4-4-0.6-4.9-2.4c-0.4-0.7-0.6-1.6-0.6-2.4
		c-0.1-3.5-0.1-7,0-10.4c0-2.3,1.6-4.2,3.8-4.7c1.9-0.5,4.1,0.5,5.1,2.4c0.4,0.8,0.6,1.7,0.6,2.5C108.3,59.5,108.2,61.2,108.2,62.9
		C108.2,62.9,108.2,62.9,108.2,62.9z"/>
</g>
</svg>
