<svg xmlns="http://www.w3.org/2000/svg" viewBox="0 0 25.51 28.57"><defs><style>.cls-1{fill:#fff;}</style></defs><title>alarm</title><g id="Layer_2" data-name="Layer 2"><g id="layer"><path class="cls-1" d="M12.15,28.57A4.59,4.59,0,0,1,8.81,26c-.16-.34-.27-.7-.43-1.13H5.78c-1.65,0-3.3,0-4.95,0A1,1,0,0,1,0,24.34a1,1,0,0,1,.31-.9A5.89,5.89,0,0,0,3.1,19.16a26.08,26.08,0,0,0,.44-3.76c.11-1.75,0-3.53.25-5.24A8.55,8.55,0,0,1,8.53,3.87a1.2,1.2,0,0,0,.73-1A3.39,3.39,0,0,1,11.81.13L12.15,0h1.14A13.59,13.59,0,0,1,15.1,1,3.18,3.18,0,0,1,16.24,3.1a1,1,0,0,0,.46.63,9.2,9.2,0,0,1,5.2,8.51c0,1.85,0,3.72.2,5.57a14.7,14.7,0,0,0,1,3.5,3.74,3.74,0,0,0,1.85,2,.81.81,0,0,1,.52,1c-.12.47-.48.6-.93.6H17a4.6,4.6,0,0,1-2.33,3.16,11.45,11.45,0,0,1-1.42.52Zm8.29-9.68c-.05-2.26-.12-4.49-.15-6.73a7.57,7.57,0,0,0-15.13-.54L5,18.89ZM3.12,23.25h19.2c-.38-.79-.73-1.56-1.13-2.3a.83.83,0,0,0-.57-.41q-7.91,0-15.8,0a.75.75,0,0,0-.54.36C3.87,21.66,3.51,22.44,3.12,23.25Zm12.19,1.69H10.12a2.75,2.75,0,0,0,2.65,2A2.71,2.71,0,0,0,15.31,24.94Zm-.79-22a1.85,1.85,0,0,0-1.85-1.3,1.77,1.77,0,0,0-1.73,1.3Z"/><path class="cls-1" d="M6.44,11.56a6.32,6.32,0,0,1,6-6c.66,0,1,.24,1.07.73s-.29.78-.95.85a4.7,4.7,0,0,0-4.39,3.57,5.8,5.8,0,0,0-.14.93c-.07.69-.32,1-.82,1S6.43,12.23,6.44,11.56Z"/></g></g></svg>