<?xml version="1.0" encoding="utf-8"?>
<!-- Generator: Adobe Illustrator 22.0.0, SVG Export Plug-In . SVG Version: 6.00 Build 0)  -->
<svg version="1.1" id="Layer_1" xmlns="http://www.w3.org/2000/svg" xmlns:xlink="http://www.w3.org/1999/xlink" x="0px" y="0px"
	 viewBox="0 0 23.8 22.3" style="enable-background:new 0 0 23.8 22.3;" xml:space="preserve">
<style type="text/css">
	.st0{fill:#FFFFFF;}
</style>
<title>filter-icon</title>
<g id="Layer_2_1_">
	<g id="layer">
		<path class="st0" d="M23.1,0.1C22.9,0,22.6,0,22.4,0H1.5C1.2,0,1,0,0.8,0.1C0.4,0.1,0,0.4,0,0.9c0,0.5,0.4,0.8,0.9,0.9
			c0.3,0.1,0.5,0.3,0.7,0.5c2.3,2.6,4.5,5.2,6.7,7.8c0.2,0.2,0.4,0.4,0.7,0.5c-0.1,0.3-0.2,0.6-0.2,0.9c0,3.9,0,6.3,0,10.1
			c0,0.2,0,0.6,0,0.6l6-4.1c0,0,0-4.1,0-6.8c0-0.3-0.1-0.5-0.2-0.8c0.3-0.1,0.5-0.2,0.7-0.4C17.5,7.6,19.8,5,22,2.5
			c0.3-0.4,0.7-0.7,1.1-0.8c0.3-0.1,0.6-0.4,0.6-0.8C23.8,0.6,23.4,0.3,23.1,0.1z"/>
	</g>
</g>
</svg>
