<svg xmlns="http://www.w3.org/2000/svg" viewBox="0 0 28.99 23.23"><defs><style>.cls-1{fill:#fff;}.cls-2{fill:#ff0;}</style></defs><title>camera-view</title><g id="Layer_2" data-name="Layer 2"><g id="layer"><path class="cls-1" d="M29,2.68l-6.37,2.4L19.23,6.37c-.3-.61-.6-1.21-.89-1.82s-.55-1.14-.82-1.72A1.37,1.37,0,0,0,16.38,2c-1.53-.17-3.06-.34-4.59-.56L14,1.17c3-.37,6-.76,9-1.11.73-.08,1.49,0,2.23,0s1.25,0,1.88,0A1.7,1.7,0,0,1,29,1.24Z"/><path class="cls-1" d="M29,14.51a1.3,1.3,0,0,1-.34,0l-3-.79a2.58,2.58,0,0,1-.44-.2c.16-.09.24-.15.33-.19l2.37-1.14a.39.39,0,0,0,.27-.44c0-.46,0-.93,0-1.42-1-.17-1.95-.6-2.95.17,0-.67,0-1.22,0-1.76,0,0,.18-.15.26-.13,1.06.21,2.11.45,3.16.69a1.47,1.47,0,0,1,.36.21Z"/><path class="cls-1" d="M10.52,2.1c.18-.39.45-.45.87-.39,1.64.23,3.29.39,4.93.61a3.5,3.5,0,0,1,.79.31l0,.15-.65,0-2.33-.22a.94.94,0,0,0-1.11,1c0,.63,0,1.27,0,1.91,0,.26-.1.34-.32.41s-.29,0-.38-.21c-.58-1-1.17-2.06-1.76-3.09Z"/><path class="cls-1" d="M27.81,10.79a1.32,1.32,0,0,1,0,.13c0,.94,0,.95-.81,1.35l-3.7,1.79a2.7,2.7,0,0,1-1.89.24,1,1,0,0,1-.84-1.09c0-1.34,0-2.69,0-4a.51.51,0,0,1,.33-.52c.69-.33,1.37-.69,2.06-1a3,3,0,0,1,.34-.15v5.28Z"/><path class="cls-1" d="M28.7,3.11a1.35,1.35,0,0,1-.82,1.67L20,8.79l-.28.12c0-.78,0-1.52,0-2.26,0-.08.18-.19.3-.24l7.34-2.79Z"/><path class="cls-1" d="M17.78,4.09l-3.13-.34c-.42,0-.45,0-.45.41,0,1.07,0,2.14,0,3.21,0,.31.1.41.4.44l3.55.41c.51.06.54,0,.54-.46a12.86,12.86,0,0,1,.07-1.63l.3.6.33-.05c0,.76,0,1.49,0,2.22,0,.36-.3.34-.53.32-.91-.09-1.81-.2-2.72-.3l-1.75-.19a1.07,1.07,0,0,1-1.1-1.24c0-1.28,0-2.57,0-3.85,0-.66.23-.87.89-.82C15.1,2.9,16,3,17,3.08a.49.49,0,0,1,.5.36A7.14,7.14,0,0,0,17.78,4.09Z"/><path class="cls-1" d="M15.35,5.82a1.15,1.15,0,0,1,0-.24,1,1,0,0,1,.74-.84,1,1,0,0,1,1,.54,1.47,1.47,0,0,1,0,1.55A.8.8,0,0,1,15.84,7,1.48,1.48,0,0,1,15.35,5.82Z"/><path class="cls-1" d="M23.69,12.23l0-.08c0-.69,0-.69.59-1a15.78,15.78,0,0,0,1.52-.65,2.31,2.31,0,0,1,1.75,0Z"/><polygon class="cls-2" points="13.82 8.11 0 10.38 11.44 23.23 13.82 8.11"/></g></g></svg>