<svg xmlns="http://www.w3.org/2000/svg" viewBox="0 0 53.08 42.08"><defs><style>.cls-1{isolation:isolate;}.cls-2{opacity:0.75;mix-blend-mode:multiply;}.cls-3,.cls-4{stroke:#000;stroke-miterlimit:10;stroke-width:0.25px;}.cls-4{fill:#e52033;}</style></defs><title>IPCamAlarm</title><g class="cls-1"><g id="Layer_2" data-name="Layer 2"><g id="layer"><g class="cls-2"><path class="cls-3" d="M1.14,4.64A4.83,4.83,0,0,1,6.59,1.19c1.74.1,3.44,0,5.26,0a62.24,62.24,0,0,1,6.26.19c8.42,1,16.82,2.06,25.14,3.12l6.08.78c-4.23.61-8.51,1.07-12.81,1.54a3.84,3.84,0,0,0-3.19,2.25c-.76,1.61-1.51,3-2.32,4.82s-1.64,3.47-2.49,5.19L19,15.45,1.13,8.72Z"/><path class="cls-3" d="M1.13,27.92a3.51,3.51,0,0,1,1-.62q4.44-1,8.89-1.94c.22,0,.73.24.73.38v5c-2.83-2.17-5.5-1-8.27-.47v4a1.14,1.14,0,0,0,.78,1.23c2.23,1,4.42,2.12,6.64,3.19.25.13.49.29.94.55a12.59,12.59,0,0,1-1.25.56c-2.83.74-5.66,1.49-8.51,2.2a3.7,3.7,0,0,1-.94,0Z"/><path class="cls-3" d="M53,8.31,48,17c-.23.52-.43.89-1.05.69a1.06,1.06,0,0,1-.9-1.18V11.06a2.49,2.49,0,0,0,0-.72A2.64,2.64,0,0,0,43,8.23l-6.56.62A7.34,7.34,0,0,1,34.58,9l-.11-.44a9.79,9.79,0,0,1,2.22-.85c4.6-.62,9.23-1.09,13.84-1.71,1.16-.16,1.94,0,2.43,1.09Z"/><path class="cls-3" d="M17.11,37V22.17a8.8,8.8,0,0,1,.94.4c1.94,1,3.85,2,5.79,2.92a1.39,1.39,0,0,1,.93,1.45V38.28a2.85,2.85,0,0,1-2.38,3.06,7.68,7.68,0,0,1-5.3-.68l-10.39-5c-2.38-1.16-2.38-1.16-2.25-3.81a1,1,0,0,1,0-.35Z"/><path class="cls-3" d="M5.79,11.35c6.8,2.54,13.68,5.21,20.57,7.84.33.13.85.44.85.66V26.2l-.76-.33L4.26,14.62A3.78,3.78,0,0,1,2,9.92Z"/><path class="cls-3" d="M33.42,10.77a1.37,1.37,0,0,1,1.41-1c2.64-.22,5.25-.51,7.86-.73,1.85-.16,2.49.47,2.49,2.29V22.22a3.26,3.26,0,0,1,0,.62,3,3,0,0,1-3.14,2.85l-4.91.61c-2.56.28-5.1.58-7.64.84-.65.07-1.47.13-1.47-.89V20l.92.12.86-1.68A36.61,36.61,0,0,1,30,23c0,1.41.07,1.47,1.52,1.3,3.3-.39,6.62-.79,9.94-1.14.86-.09,1.15-.38,1.15-1.25V12.88c0-1.16-.09-1.29-1.27-1.16l-8.77.94A7.52,7.52,0,0,0,33.42,10.77Z"/><path class="cls-3" d="M38.25,20.88a2.3,2.3,0,0,1-.65.47,2.22,2.22,0,0,1-3-1,4.14,4.14,0,0,1,0-4.34,2.67,2.67,0,0,1,2.74-1.52,2.75,2.75,0,0,1,2.06,2.35,4,4,0,0,1,0,.69A4.18,4.18,0,0,1,38.25,20.88Z"/><path class="cls-3" d="M5.3,30.8a6.59,6.59,0,0,1,4.9,0,39,39,0,0,0,4.26,1.82c1.81.72,1.81.72,1.67,2.67,0,0,0,.07-.13.23Z"/></g><g id="layer-2" data-name="layer"><path class="cls-4" d="M.14,3.64A4.83,4.83,0,0,1,5.59.19c1.74.1,3.44,0,5.26,0a62.24,62.24,0,0,1,6.26.19c8.42,1,16.82,2.06,25.14,3.12l6.08.78c-4.23.61-8.51,1.07-12.81,1.54a3.84,3.84,0,0,0-3.19,2.25c-.76,1.61-1.51,3-2.32,4.82s-1.64,3.47-2.49,5.19L18,14.45.13,7.72Z"/><path class="cls-4" d="M.13,26.92a3.51,3.51,0,0,1,1-.62q4.44-1,8.89-1.94c.22,0,.73.24.73.38v5c-2.83-2.17-5.5-1-8.27-.47v4a1.14,1.14,0,0,0,.78,1.23c2.23,1,4.42,2.12,6.64,3.19.25.13.49.29.94.55a12.59,12.59,0,0,1-1.25.56c-2.83.74-5.66,1.49-8.51,2.2a3.7,3.7,0,0,1-.94,0Z"/><path class="cls-4" d="M52,7.31,47,16c-.23.52-.43.89-1.05.69a1.06,1.06,0,0,1-.9-1.18V10.06a2.49,2.49,0,0,0,0-.72A2.64,2.64,0,0,0,42,7.23l-6.56.62A7.34,7.34,0,0,1,33.58,8l-.11-.44a9.79,9.79,0,0,1,2.22-.85c4.6-.62,9.23-1.09,13.84-1.71,1.16-.16,1.94,0,2.43,1.09Z"/><path class="cls-4" d="M16.11,36V21.17a8.8,8.8,0,0,1,.94.4c1.94,1,3.85,2,5.79,2.92a1.39,1.39,0,0,1,.93,1.45V37.28a2.85,2.85,0,0,1-2.38,3.06,7.68,7.68,0,0,1-5.3-.68l-10.39-5c-2.38-1.16-2.38-1.16-2.25-3.81a1,1,0,0,1,0-.35Z"/><path class="cls-4" d="M4.79,10.35c6.8,2.54,13.68,5.21,20.57,7.84.33.13.85.44.85.66V25.2l-.76-.33L3.26,13.62A3.78,3.78,0,0,1,1,8.92Z"/><path class="cls-4" d="M32.42,9.77a1.37,1.37,0,0,1,1.41-1c2.64-.22,5.25-.51,7.86-.73,1.85-.16,2.49.47,2.49,2.29V21.22a3.26,3.26,0,0,1,0,.62,3,3,0,0,1-3.14,2.85l-4.91.61c-2.56.28-5.1.58-7.64.84-.65.07-1.47.13-1.47-.89V19l.92.12.86-1.68A36.61,36.61,0,0,1,29,22c0,1.41.07,1.47,1.52,1.3,3.3-.39,6.62-.79,9.94-1.14.86-.09,1.15-.38,1.15-1.25V11.88c0-1.16-.09-1.29-1.27-1.16l-8.77.94A7.52,7.52,0,0,0,32.42,9.77Z"/><path class="cls-4" d="M37.25,19.88a2.3,2.3,0,0,1-.65.47,2.22,2.22,0,0,1-3-1,4.14,4.14,0,0,1,0-4.34,2.67,2.67,0,0,1,2.74-1.52,2.75,2.75,0,0,1,2.06,2.35,4,4,0,0,1,0,.69A4.18,4.18,0,0,1,37.25,19.88Z"/><path class="cls-4" d="M4.3,29.8a6.59,6.59,0,0,1,4.9,0,39,39,0,0,0,4.26,1.82c1.81.72,1.81.72,1.67,2.67,0,0,0,.07-.13.23Z"/></g></g></g></g></svg>