<svg xmlns="http://www.w3.org/2000/svg" viewBox="0 0 25.4 33.69"><defs><style>.cls-1{fill:#fff;}</style></defs><title>light-sensor</title><g id="Layer_2" data-name="Layer 2"><g id="layer"><path class="cls-1" d="M12.43,33.69a1.35,1.35,0,0,1-.85-1.43c0-1.35,0-2.7,0-4a1.11,1.11,0,0,1,1-1.18,1.09,1.09,0,0,1,1.25,1.15c0,.95,0,1.91,0,2.86,0,.4,0,.81,0,1.22A1.31,1.31,0,0,1,13,33.69Z"/><path class="cls-1" d="M13.8,6a13,13,0,0,1,4.25,1.14A12.67,12.67,0,0,1,23.48,12a12.55,12.55,0,0,1,1.92,6.5,1.13,1.13,0,0,1-1.28,1.3H18.41a5.91,5.91,0,0,1-5.73,4.7A5.89,5.89,0,0,1,7,19.8H1.31C.39,19.8,0,19.37,0,18.44A12.52,12.52,0,0,1,4.16,9.31a12.26,12.26,0,0,1,6.93-3.2l.5-.08V5.69c0-1.46,0-2.92,0-4.37A2.15,2.15,0,0,1,11.68.7a1.09,1.09,0,0,1,2.08.16,2.63,2.63,0,0,1,0,.49V6Zm9.32,11.53a10.47,10.47,0,0,0-20.83,0ZM9.31,19.81a3.6,3.6,0,0,0,3.52,2.48,3.47,3.47,0,0,0,3.23-2.48Z"/><path class="cls-1" d="M7.89,26.34a2.35,2.35,0,0,1-.36.64c-1,1.07-2.08,2.11-3.14,3.15a1.1,1.1,0,0,1-1.56-1.54Q4.42,27,6,25.41a1,1,0,0,1,1.22-.21A1.18,1.18,0,0,1,7.89,26.34Z"/><path class="cls-1" d="M18.66,25a3.22,3.22,0,0,1,.75.42c1.06,1,2.09,2.06,3.12,3.11A1.09,1.09,0,1,1,21,30.11Q19.42,28.57,17.87,27a1.07,1.07,0,0,1-.26-1.24A1.27,1.27,0,0,1,18.66,25Z"/></g></g></svg>