<svg xmlns="http://www.w3.org/2000/svg" viewBox="0 0 25.63 29.34"><defs><style>.cls-1{fill:#fff;}</style></defs><title>moving-tp</title><g id="Layer_2" data-name="Layer 2"><g id="layer"><path class="cls-1" d="M25.54,16.9A11,11,0,0,0,15.29,7.34,11.32,11.32,0,0,0,9.76,8.49a4.73,4.73,0,0,0,.18-1.26,5,5,0,1,0-5,5,5.23,5.23,0,0,0,.57-.06A11,11,0,0,0,10.3,28.45a8.33,8.33,0,0,0,1.82.56c.22,0,.68-.24.7-.41a1.21,1.21,0,0,0-.37-.84c-.15-.16-.47-.16-.71-.24A9.63,9.63,0,1,1,24.14,20c-.7,4.27-4.7,7.89-8.75,7.87V22.69c.31-.11.62-.19.91-.31a4.36,4.36,0,0,0-.57-8.26,4.36,4.36,0,0,0-4.49,7c.35.42.74.95,1.34.47s.11-.88-.21-1.28a3,3,0,0,1,3.42-4.67,3.06,3.06,0,0,1,1.83,3.07A3,3,0,0,1,15,21.28c-.79.07-1,.42-1,1.16,0,1.88,0,3.76,0,5.64,0,1.2.11,1.29,1.34,1.25A11,11,0,0,0,25.54,16.9Z"/><circle class="cls-1" cx="13.86" cy="2.87" r="2.87"/></g></g></svg>