<?xml version="1.0" encoding="utf-8"?>
<!-- Generator: Adobe Illustrator 24.2.3, SVG Export Plug-In . SVG Version: 6.00 Build 0)  -->
<svg version="1.1" id="Layer_1" xmlns="http://www.w3.org/2000/svg" xmlns:xlink="http://www.w3.org/1999/xlink" x="0px" y="0px"
	 viewBox="0 0 94.6 94.4" style="enable-background:new 0 0 94.6 94.4;" xml:space="preserve">
<style type="text/css">
	.st0{fill:#FFFFFF;}
</style>
<g>
	<path class="st0" d="M54.4,30c-1.5-1.2-3.4-1.7-5.3-1.7c-4.2,0-8.3,0-12.5,0c-0.7,0-0.8,0.2-0.8,0.8c0,2.9,0,5.7,0,8.6
		s0,5.8-0.1,8.6c0,0.5,0.2,0.8,0.8,0.8c4.3-0.1,8.5,0,12.8-0.1c3-0.1,5.5-1.1,7.3-3.7C59.8,38.6,58.5,33.5,54.4,30z"/>
	<path class="st0" d="M93.3,5.5c-1.2-2.4-3.1-3.9-5.5-4.9C86.5,0,85,0,83.6,0C63.8,0,44,0,24.2,0c-4.6,0-9.1,0-13.6,0
		C8.9,0,7.2,0.3,5.7,1.1C1.9,3.2,0,6.5,0,10.8c0,23.8,0,47.5,0,71.3c0,1.3,0,2.7,0.2,4.1c0.4,1.9,1.2,3.5,2.5,4.9
		c2.1,2.2,4.7,3.3,7.9,3.3c12.2,0,24.4,0,36.6,0s24.4,0,36.6,0c1.6,0,3.1-0.2,4.6-0.8c3.8-1.7,6.2-5.3,6.2-9.3c0-24.4,0-48.9,0-73.3
		C94.6,9,94.2,7.2,93.3,5.5z M68.3,40.2c-0.2,2.5-0.9,4.9-2.2,7c-1.6,2.6-4,4.3-6.7,5.4c-3.4,1.3-6.9,1.6-10.5,1.6
		c-4,0-8.1,0-12.2,0c-0.8-0.1-1,0.1-1,0.9c0,5.7,0,11.5,0,17.3c0,1.2,0,1.2-1.2,1.2c-2.4,0-4.7,0-7.1,0c-1.2,0-1.2-0.1-1.2-1.2
		c0-8.4,0-16.9,0-25.3c0-8.4,0-16.8,0-24.9c0-1.1,0-1.1,1.1-1.1c7.6,0,15.1,0,22.7,0c2.8,0,5.6,0.2,8.2,1.2c1.1,0.4,2.2,0.9,3.2,1.6
		c2.8,2,5.2,4.4,6.2,7.8C68.4,34.5,68.6,37.3,68.3,40.2z"/>
</g>
</svg>
