<?xml version="1.0" encoding="utf-8"?>
<!-- Generator: Adobe Illustrator 24.2.3, SVG Export Plug-In . SVG Version: 6.00 Build 0)  -->
<svg version="1.1" id="Layer_1" xmlns="http://www.w3.org/2000/svg" xmlns:xlink="http://www.w3.org/1999/xlink" x="0px" y="0px"
	 viewBox="0 0 94.6 94.4" style="enable-background:new 0 0 94.6 94.4;" xml:space="preserve">
<style type="text/css">
	.st0{fill:#BF0000;}
	.st1{fill:#FFFFFF;}
</style>
<g>
	<path class="st0" d="M47.2,94.4c-12.2,0-24.4,0-36.6,0c-3.2,0-5.8-1.1-7.9-3.3c-1.3-1.4-2.1-3-2.5-4.9C0,84.8,0,83.4,0,82.1
		c0-23.8,0-47.5,0-71.3c0-4.3,1.9-7.6,5.7-9.7C7.2,0.3,8.9,0,10.6,0c4.5,0,9,0,13.6,0C44,0,63.8,0,83.6,0c1.4,0,2.9,0,4.2,0.6
		c2.4,1,4.3,2.5,5.5,4.9c0.9,1.7,1.3,3.5,1.3,5.5c0,24.4,0,48.9,0,73.3c0,4-2.4,7.6-6.2,9.3c-1.5,0.6-3,0.8-4.6,0.8
		C71.6,94.4,59.4,94.4,47.2,94.4z"/>
	<path class="st1" d="M26.2,47.1c0,8.4,0,16.9,0,25.3c0,1.1,0,1.2,1.2,1.2c2.4,0,4.7,0,7.1,0c1.2,0,1.2,0,1.2-1.2
		c0-5.8,0-11.6,0-17.3c0-0.8,0.2-1,1-0.9c4.1,0,8.2,0,12.2,0c3.6,0,7.1-0.3,10.5-1.6c2.7-1.1,5.1-2.8,6.7-5.4c1.3-2.1,2-4.5,2.2-7
		c0.3-2.9,0.1-5.7-0.7-8.5c-1-3.4-3.4-5.8-6.2-7.8c-1-0.7-2.1-1.2-3.2-1.6c-2.6-1-5.4-1.2-8.2-1.2c-7.6,0-15.1,0-22.7,0
		c-1.1,0-1.1,0-1.1,1.1C26.2,30.3,26.2,38.7,26.2,47.1z"/>
	<path class="st0" d="M35.8,37.7c0-2.9,0-5.7,0-8.6c0-0.6,0.1-0.8,0.8-0.8c4.2,0,8.3,0,12.5,0c1.9,0,3.8,0.5,5.3,1.7
		c4.1,3.5,5.4,8.6,2.2,13.3c-1.8,2.6-4.3,3.6-7.3,3.7c-4.3,0.1-8.5,0-12.8,0.1c-0.6,0-0.8-0.3-0.8-0.8
		C35.8,43.5,35.8,40.6,35.8,37.7z"/>
</g>
</svg>
