<?xml version="1.0" encoding="utf-8"?>
<!-- Generator: Adobe Illustrator 24.2.3, SVG Export Plug-In . SVG Version: 6.00 Build 0)  -->
<svg version="1.1" id="Layer_1" xmlns="http://www.w3.org/2000/svg" xmlns:xlink="http://www.w3.org/1999/xlink" x="0px" y="0px"
	 viewBox="0 0 59.1 63.4" style="enable-background:new 0 0 59.1 63.4;" xml:space="preserve">
<style type="text/css">
	.st0{fill:#FFFFFF;}
</style>
<g>
	<path class="st0" d="M19.3,40c0,6.8,0,13.5,0,20.3c0,0.9-0.2,1.7-0.7,2.5c-0.4,0.6-0.8,0.7-1.4,0.7c-0.6,0-1.3,0-2,0
		c-0.5,0-0.9,0-1.3-0.6c-0.5-0.8-0.8-1.5-0.8-2.4c0-1.1,0-2.3,0-3.4c0-5.9,0-11.8,0-17.7c0-0.5,0.1-1.1,0.1-1.6c0-0.2,0-0.5-0.1-0.7
		c-0.2-0.2-0.5-0.5-0.7-0.5c-0.2,0-0.5,0.3-0.6,0.6c-0.1,0.2-0.1,0.4-0.1,0.7c0,7.6,0,15.1,0,22.7c0,0.9-0.2,1.6-0.7,2.4
		c-0.3,0.5-0.7,0.6-1.1,0.6c-0.9,0-1.8,0-2.7,0c-0.3,0-0.5,0-0.6-0.4c0-0.1-0.1-0.2-0.1-0.2C5.9,62,5.8,61,5.8,59.9
		c0-6.5,0-13,0-19.4c0-7,0.1-13.9,0.1-20.9c0-0.4,0-0.8,0-1.2c0-0.2-0.3-0.4-0.5-0.5c-0.2,0.2-0.4,0.3-0.5,0.5c-0.1,0.1,0,0.3,0,0.5
		c0,5.7,0,11.5,0,17.2c0,1.5-0.7,2.5-2,3.2c-0.5,0.2-1,0.1-1.5-0.1C1,39,0.6,38.8,0.2,38.5C0.1,38.5,0,38.3,0,38.2
		c0-0.2,0-0.4,0-0.6c0-7,0-13.9,0-20.9c0-0.6-0.1-1.2,0.6-1.7c0.6-0.4,1-1.1,1.5-1.6c1.2-1,2.6-1.5,4.2-1.5c1.9,0,3.8,0.1,5.8,0.1
		c2.2,0,4.5,0,6.7-0.1c1.3,0,2.5,0.2,3.5,0.9c1.7,1.1,3,2.5,3.1,4.6c0.1,3.9,0.1,7.7,0.1,11.6c0,2.4,0,4.8,0.1,7.2
		c0,1.5-0.6,2.5-2,3c-0.5,0.2-0.9,0.1-1.4-0.1c-1.2-0.6-1.7-1.6-1.7-2.9c0-5.8,0-11.5,0-17.3c0-0.3,0-0.5-0.1-0.8
		c-0.1-0.1-0.3-0.3-0.4-0.3c-0.2,0-0.4,0.2-0.5,0.3c-0.1,0.2-0.1,0.5-0.1,0.8c0,5.7,0,11.4,0,17.1C19.3,37.4,19.3,38.7,19.3,40
		C19.3,40,19.3,40,19.3,40z"/>
	<path class="st0" d="M33,46.7c0-3.1,0-6.3,0-9.4c0-0.5,0.1-0.9,0-1.4c0-0.7-0.2-1-0.7-1c-0.5,0-0.7,0.3-0.7,1.1c0,3,0,5.9,0,8.9
		c0,3.6,0,7.3,0,10.9c0,0.6,0.1,1.2,0,1.7c-0.3,1.9-1.5,2.8-2.9,2.8c-1.5,0-2.8-1.2-2.8-3.1c0-0.9,0-1.8,0-2.7c0-4.1,0-8.2,0-12.2
		c0-0.7,0.2-1.2,0.7-1.7c1.1-1,1.5-2.3,1.5-3.8c0-3.8-0.1-7.5-0.1-11.3c0-2.7,0-5.4,0-8c0-1.5-0.5-2.7-1.4-3.9
		c-0.1-0.1-0.2-0.2-0.3-0.4c-0.3-0.6,0-1,0.6-1c0.9,0,1.8,0,2.6,0c2.9,0,5.8,0,8.7,0c2.9,0,5.9,2.5,5.9,5.9c0,3.3,0,6.6,0,9.9
		c0,2.3,0.1,4.5,0.1,6.8c0,1.4-0.7,2.5-1.9,2.7c-1.1,0.3-2.2-0.3-2.6-1.3c-0.1-0.4-0.2-0.9-0.2-1.3c0-4.8,0-9.6,0-14.4
		c0-0.5,0-1.1,0-1.6c0-0.2,0-0.5-0.1-0.6c-0.1-0.2-0.4-0.4-0.6-0.4c-0.2,0-0.4,0.3-0.5,0.5c-0.1,0.1,0,0.3,0,0.4
		c0,3.6,0.1,7.2,0.1,10.8c0,7.3,0.1,14.6,0.1,22c0,1.9,0,3.9,0,5.8c0,1.4-1,2.7-2.4,3.1c-1.5,0.3-3-0.8-3.2-2.3
		c0-0.4-0.1-0.8-0.1-1.2C33,53.4,33,50,33,46.7C33,46.7,33,46.7,33,46.7z"/>
	<path class="st0" d="M48,43.9c0,3.3,0,6.5,0,9.8c0,1-0.5,1.7-1.4,2.1c-1.6,0.8-3.5-0.3-3.7-2.1c0-0.2,0-0.5,0-0.7
		c0-3.9,0-7.7,0-11.6c0-1.1,0.1-1.3,1.2-1.8c1.8-0.8,2.7-2.3,2.7-4.2C47,31.1,47,26.9,47,22.6c0-1.5,0-3-0.1-4.5c-0.1-1-0.3-2-0.4-3
		c0-0.2-0.2-0.5-0.3-0.7c-0.1-0.2-0.3-0.4-0.4-0.6c-0.2-0.4-0.5-0.8-0.2-1.2c0.3-0.5,0.8-0.3,1.2-0.2c0.9,0,1.7,0.1,2.6,0.1
		c1.7,0,3.3-0.1,5,0c1.6,0,3,0.6,4,1.9c0.1,0.1,0.2,0.3,0.3,0.3c0.6,0.2,0.5,0.7,0.5,1.2c0,6.1,0,12.1,0,18.2c0,0.3,0,0.8-0.2,0.9
		c-0.7,0.4-1.4,1-2.2,0.4c-1-0.7-1.4-1.6-1.4-2.7c0-3.3,0-6.5,0-9.8c0-1.5,0-2.9,0-4.4c0-0.4,0.1-1-0.5-1c-0.6,0-0.5,0.6-0.5,0.9
		c0,4.8,0,9.6,0,14.5c0,1.1,0.2,2.3,0.2,3.4c0,3.4-0.1,6.9-0.1,10.3c0,2.2,0.1,4.4,0.1,6.5c0,1.2-0.8,2.4-1.8,2.8
		c-1.6,0.7-3.2-0.5-3.5-2c-0.1-0.4-0.1-0.8-0.1-1.2c0-6.2,0-12.5,0-18.7c0-0.7-0.2-1-0.6-1c-0.4,0-0.6,0.4-0.6,1
		C48.1,37.3,48.1,40.6,48,43.9C48.1,43.9,48.1,43.9,48,43.9z"/>
	<path class="st0" d="M12.7,0c0.1,0,0.1,0,0.2,0c0.7,0.1,1.4-0.3,2.1,0.2c2.3,1.8,3.8,3.9,2.5,6.9c-0.9,2.2-2.6,3.3-4.9,3.3
		c-2.2,0-3.8-1-4.8-3.1c-1.1-2.1-0.4-4.3,1-5.7c0.3-0.3,0.8-0.5,1.1-0.9C10.5-0.2,11.4,0,12.3,0C12.4,0,12.5,0,12.7,0z"/>
	<path class="st0" d="M27.3,5.8c0.1-2.4,2.3-4.9,4.9-5c2.8-0.1,5.1,2.8,5,4.9c-0.1,2.8-2.4,5-5,5C29.8,10.7,27.4,8.6,27.3,5.8z"/>
	<path class="st0" d="M48.8,10.9c-2.6,0.2-4.6-2.3-4.6-4.4c0.1-2.5,2-4.4,4.4-4.5c2.2-0.1,4.6,2.1,4.6,4.4
		C53.3,8.8,51.2,10.8,48.8,10.9z"/>
</g>
</svg>
