<?xml version="1.0" encoding="utf-8"?>
<!-- Generator: Adobe Illustrator 23.0.1, SVG Export Plug-In . SVG Version: 6.00 Build 0)  -->
<svg version="1.1" id="Layer_1" xmlns="http://www.w3.org/2000/svg" xmlns:xlink="http://www.w3.org/1999/xlink" x="0px" y="0px"
	 viewBox="0 0 30.2 28.9" style="enable-background:new 0 0 30.2 28.9;" xml:space="preserve">
<style type="text/css">
	.st0{fill:#FFFFFF;}
	.st1{fill:#E52033;stroke:#FFFFFF;stroke-miterlimit:10;}
</style>
<title>nitification-maps</title>
<g>
	<g id="layer">
		<path class="st0" d="M10.3,24.1C9,23.9,8,23.1,7.4,22c-0.1-0.3-0.2-0.6-0.4-1H4.9c-1.4,0-2.8,0-4.2,0c-0.3,0-0.6-0.2-0.7-0.5
			c0-0.3,0.1-0.6,0.3-0.8c1.3-0.8,2.1-2.1,2.3-3.6C2.8,15.1,3,14,3,12.9c0-1.5,0.1-3,0.2-4.4c0.4-2.3,1.9-4.3,4-5.3
			c0.3-0.1,0.6-0.5,0.6-0.8C8,1.3,8.9,0.4,10,0.1L10.3,0h1c0.5,0.2,1,0.5,1.5,0.8c0.6,0.4,0.9,1.1,1,1.8c0,0.2,0.2,0.4,0.4,0.5
			c2.7,1.3,4.5,4.1,4.4,7.2c0,1.6,0,3.1,0.2,4.7c0.2,1,0.4,2,0.9,3c0.3,0.7,0.8,1.4,1.6,1.7c0.3,0.1,0.5,0.5,0.4,0.8
			c-0.1,0.4-0.4,0.5-0.8,0.5c-1.9,0-3.8,0-5.7,0h-0.6c-0.2,1.1-1,2.1-2,2.7c-0.4,0.2-0.8,0.3-1.2,0.4H10.3z M17.3,15.9
			c0-1.9-0.1-3.8-0.1-5.7c0.1-3.5-2.6-6.5-6.2-6.6C7.5,3.5,4.5,6.3,4.4,9.8c-0.1,2-0.1,4.1-0.1,6.1H17.3z M2.6,19.6h16.2
			c-0.3-0.7-0.6-1.3-1-1.9c-0.1-0.2-0.3-0.3-0.5-0.4c-4.4,0-8.9,0-13.3,0c-0.2,0-0.4,0.1-0.5,0.3C3.3,18.3,3,18.9,2.6,19.6z
			 M12.9,21.1H8.5c0.3,1.2,1.5,1.9,2.7,1.6C12.1,22.5,12.7,21.9,12.9,21.1z M12.3,2.5c-0.2-0.7-0.9-1.1-1.6-1.1
			c-0.7,0-1.3,0.4-1.5,1.1H12.3z"/>
		<path class="st0" d="M5.4,9.8c0.2-2.7,2.4-4.9,5.1-5c0.6,0,0.9,0.2,0.9,0.6S11.2,6,10.6,6.1c-1.8,0.1-3.3,1.3-3.7,3
			C6.8,9.4,6.8,9.6,6.8,9.9c-0.1,0.6-0.3,0.9-0.7,0.8S5.4,10.3,5.4,9.8z"/>
		<circle class="st1" cx="20.5" cy="19.1" r="9.3"/>
		<g>
			<path class="st0" d="M19.6,24.9c-0.2,0-0.5,0-0.7,0c-0.3,0-0.5,0-0.7,0c-0.2,0-0.5,0-0.7-0.1c-0.2,0-0.4-0.1-0.5-0.1V23H17
				c0.1,0,0.3,0.1,0.5,0.1c0.2,0,0.4,0.1,0.6,0.1c0.2,0,0.4,0,0.6,0.1c0.2,0,0.4,0,0.6,0c0.9,0,1.6-0.1,2-0.4
				c0.4-0.3,0.6-0.7,0.6-1.4c0-0.6-0.2-1.1-0.6-1.3c-0.4-0.3-1.1-0.4-2.1-0.4h-1v-1.5h1c0.9,0,1.5-0.1,1.8-0.4
				c0.4-0.3,0.5-0.7,0.5-1.3c0-0.6-0.2-1-0.5-1.2c-0.3-0.3-0.9-0.4-1.7-0.4c-0.3,0-0.6,0-1,0.1c-0.4,0-0.8,0.1-1.3,0.2h-0.1v-1.6
				c0.2,0,0.4-0.1,0.6-0.1c0.2,0,0.5-0.1,0.7-0.1c0.2,0,0.5,0,0.7-0.1c0.2,0,0.4,0,0.6,0c1.4,0,2.4,0.3,3.1,0.8c0.7,0.5,1,1.3,1,2.3
				c0,0.6-0.2,1.2-0.5,1.6s-0.8,0.8-1.4,0.9V19c0.7,0.1,1.2,0.4,1.6,0.9c0.4,0.5,0.6,1,0.6,1.7c0,1.1-0.4,1.9-1.1,2.4
				C22.2,24.6,21.1,24.9,19.6,24.9z"/>
		</g>
	</g>
</g>
</svg>
