<svg xmlns="http://www.w3.org/2000/svg" viewBox="0 0 27.8 27.8"><defs><style>.cls-1{fill:#fff;}</style></defs><title>tp</title><g id="Layer_2" data-name="Layer 2"><g id="layer"><path class="cls-1" d="M14.85,19.41v6.51C20,26,25,21.38,25.91,16a12.16,12.16,0,1,0-15.66,9.53c.3.09.7.1.89.3a1.57,1.57,0,0,1,.48,1.06c0,.22-.62.57-.9.52a10.85,10.85,0,0,1-2.29-.71A13.9,13.9,0,1,1,27.68,12.1c1.06,8-5.05,15.4-12.92,15.69-1.56.06-1.69-.06-1.69-1.58,0-2.37,0-4.75,0-7.12,0-.94.29-1.37,1.29-1.47a3.7,3.7,0,0,0,3.33-3.3,3.83,3.83,0,0,0-2.31-3.88A3.76,3.76,0,0,0,11,16.33c.41.51,1,1,.27,1.62s-1.25-.06-1.69-.59A5.51,5.51,0,1,1,16,19C15.64,19.16,15.25,19.27,14.85,19.41Z"/></g></g></svg>