<svg xmlns="http://www.w3.org/2000/svg" viewBox="0 0 22.91 28.57"><defs><style>.cls-1{fill:#fff;}</style></defs><title>tp-traffic</title><g id="Layer_2" data-name="Layer 2"><g id="layer"><path class="cls-1" d="M17.54,0a4.08,4.08,0,0,1,.38,1,12.48,12.48,0,0,1,0,1.63c1.1,0,2.13,0,3.16,0a1.66,1.66,0,0,1,1.77,1.34,1.61,1.61,0,0,1-.71,1.69L18.22,8.38a.67.67,0,0,0-.27.4c0,.5,0,1,0,1.6h3.19a1.66,1.66,0,0,1,1.7,1.2,1.63,1.63,0,0,1-.75,1.89c-1.29.91-2.6,1.8-3.9,2.7-.1.07-.22.2-.22.3,0,.55,0,1.09,0,1.7h3.23a1.61,1.61,0,0,1,1.54.9,1.53,1.53,0,0,1-.1,1.67,2.74,2.74,0,0,1-.66.61c-1.26.88-2.54,1.74-3.79,2.63a.68.68,0,0,0-.21.5c0,1.06,0,2.11,0,3.17,0,.71-.2.9-.9.91H6.17c-1.11,0-1.2-.1-1.2-1.22,0-.91,0-1.82,0-2.73a.76.76,0,0,0-.41-.77C3.25,23,2,22.09.71,21.18a1.59,1.59,0,0,1-.63-1.82,1.63,1.63,0,0,1,1.6-1.18c.85,0,1.7,0,2.55,0H5c0-.6,0-1.14,0-1.68,0-.11-.13-.24-.23-.31-1.29-.9-2.6-1.79-3.89-2.7a1.66,1.66,0,0,1,1-3.09H5c0-.6,0-1.16,0-1.72,0-.09-.12-.2-.2-.26L.9,5.74a1.68,1.68,0,0,1-.82-2A1.7,1.7,0,0,1,1.87,2.59H5A14.63,14.63,0,0,1,5,1a3.73,3.73,0,0,1,.39-1ZM6.28,27.23H16.6V1.35H6.28ZM4.93,3.9c-1.08,0-2.09,0-3.1,0-.17,0-.33.16-.49.25a1.71,1.71,0,0,0,.27.48c.33.27.69.5,1,.74L4.93,7ZM18,3.9V7c1.17-.81,2.26-1.57,3.35-2.35a.63.63,0,0,0,.21-.44.44.44,0,0,0-.34-.26C20.14,3.89,19.07,3.9,18,3.9ZM4.91,14.75V11.69c-1.06,0-2.07,0-3.08,0a.64.64,0,0,0-.47.26c-.05.08.08.35.2.44C2.64,13.18,3.74,13.94,4.91,14.75Zm13.07,0c1.19-.84,2.32-1.62,3.43-2.42a.51.51,0,0,0,.13-.42c0-.09-.19-.22-.3-.23H18Zm-13,4.71c-.89,0-1.72,0-2.55,0a5.58,5.58,0,0,0-1,.24,4.61,4.61,0,0,0,.72.8c.91.68,1.86,1.32,2.87,2Zm13.05,0v3c.18-.11.32-.18.45-.27,1-.69,2-1.38,3-2.1a.45.45,0,0,0,.14-.41.57.57,0,0,0-.42-.24C20.09,19.47,19.06,19.48,18,19.48Z"/><path class="cls-1" d="M11.45,9.74a3.24,3.24,0,1,1,0-6.48,3.24,3.24,0,0,1,0,6.48Zm0-1.32a1.93,1.93,0,0,0,2-1.88,1.95,1.95,0,1,0-3.89-.06A1.92,1.92,0,0,0,11.42,8.42Z"/><path class="cls-1" d="M11.47,11.05a3.23,3.23,0,0,1,3.23,3.26,3.25,3.25,0,1,1-3.23-3.26Zm0,5.16a1.93,1.93,0,0,0,2-1.9,1.95,1.95,0,1,0-3.89,0A1.92,1.92,0,0,0,11.44,16.21Z"/><path class="cls-1" d="M11.45,18.84a3.24,3.24,0,1,1,0,6.48,3.24,3.24,0,1,1,0-6.48Zm0,5.16a1.93,1.93,0,0,0,2-1.89,1.95,1.95,0,1,0-3.89-.05A1.92,1.92,0,0,0,11.43,24Z"/></g></g></svg>