<?xml version="1.0" encoding="utf-8"?>
<!-- Generator: Adobe Illustrator 24.2.3, SVG Export Plug-In . SVG Version: 6.00 Build 0)  -->
<svg version="1.1" id="Layer_1" xmlns="http://www.w3.org/2000/svg" xmlns:xlink="http://www.w3.org/1999/xlink" x="0px" y="0px"
	 viewBox="0 0 321.1 222.8" style="enable-background:new 0 0 321.1 222.8;" xml:space="preserve">
<style type="text/css">
	.st0{fill:#FFFFFF;}
</style>
<g>
	<path class="st0" d="M143.4,133.5c3.8,7.7,6.7,6.8,11,3.2c11-9.1,23.6-16,38.1-15.3c22.6,1.1,49.2,19.6,49.2,47.9
		c0,23.9-9,40.3-29.8,50.6c-4,2-8.9,2.8-13.4,2.8c-54.9,0.2-109.9,0.2-164.8,0.1C16.5,222.8,0,206,0,188.9c0-6.1,0-12.2,0-18.3
		c0-10.8,5.4-17.9,14.1-24c7.5-5.2,14.5-9.9,24.2-10c2.2,0,5.4-4.7,6.4-7.8c3.9-13.3,10-25.3,20-34.7c17.5-16.6,39.3-22.3,62.1-17.7
		c18.9,3.8,35.2,14,45,32.3c2.5,4.7,1.2,6.4-2.7,8.8C160.4,122.6,152,128.1,143.4,133.5z"/>
	<path class="st0" d="M268.7,114.8c-2.7,10.3-4.9,20.8-8.5,30.8c-1.2,3.2-6,6.3-9.5,6.9c-2.2,0.4-6.1-3.4-7.8-6.2
		c-12.3-19.6-28.1-33-52.8-31.6c-6.1,0.3-9.2-2.4-12.4-7.3c-4.6-7.1-10.3-13.7-16.2-19.8c-4.9-5.1-4.8-8.1,1.1-11.9
		c6.4-4.2,12-9.7,18.5-13.6c17-10.4,34.2-9.3,52.2-1.3c16.7,7.4,26.4,20.1,32.2,36.3c1.9,5.2,1,11.4,1.4,17.2
		C267.5,114.4,268.1,114.6,268.7,114.8z"/>
	<path class="st0" d="M218.6,21.2c0,3.5,0.1,7,0,10.4c-0.2,8.2-3.5,11.4-11.5,11.8c-7.8,0.4-11.2-3.6-11.3-11
		c-0.1-6.7-0.2-13.3,0.1-20c0.3-8.8,6.7-14.2,15.3-12c2.9,0.7,6.1,4.7,7.1,7.8C219.5,12.2,218.6,16.9,218.6,21.2z"/>
	<path class="st0" d="M292.3,38.3c-0.1,11.6-18.4,31-27.2,30.3c-3.4-0.3-7.8-3.5-9.3-6.5c-1.5-3-1.2-8.6,0.8-11.1
		c5.4-6.6,11.6-13,18.6-17.8c3.6-2.5,9.8-2,14.6-1.3C291.4,32,292.1,37.5,292.3,38.3z"/>
	<path class="st0" d="M293.1,191.8c-1.6,2.2-3.3,7-6.5,8.2s-8.6-0.1-11.5-2.4c-6.3-5-11.7-11.2-17.4-17c-4.2-4.3-5.4-10.3-0.7-13.7
		c3.7-2.7,11.5-4.5,14.5-2.5c7.5,5.1,13.5,12.5,19.8,19.3C292.5,185,292.2,187.6,293.1,191.8z"/>
	<path class="st0" d="M161.5,59.3c-2.7,2.6-5.1,6.3-8.3,7.4c-3.1,1-8,0.6-10.5-1.4c-6.1-4.8-11.2-10.9-16.8-16.3
		c-4.4-4.2-6-9.9-1.9-13.7c3.2-3,11.1-5.5,13.6-3.7c8.1,5.8,14.7,13.6,21.7,20.9c1,1,0.5,3.3,0.7,5.1
		C160.5,58.1,161,58.7,161.5,59.3z"/>
	<path class="st0" d="M320.7,105.3c0,5.6,1.1,10.1-0.3,13.5c-1.3,3.3-5,7.3-8.1,7.9c-7,1.2-14.4,0.9-21.6,0.2
		c-6.6-0.6-11.3-4-10.4-11.9c0.8-7.2,4.8-9.8,11.7-9.7C301.2,105.5,310.3,105.3,320.7,105.3z"/>
</g>
</svg>
