<?xml version="1.0" encoding="utf-8"?>
<!-- Generator: Adobe Illustrator 24.2.3, SVG Export Plug-In . SVG Version: 6.00 Build 0)  -->
<svg version="1.1" id="Layer_1" xmlns="http://www.w3.org/2000/svg" xmlns:xlink="http://www.w3.org/1999/xlink" x="0px" y="0px"
	 viewBox="0 0 24.8 40.1" style="enable-background:new 0 0 24.8 40.1;" xml:space="preserve">
<style type="text/css">
	.st0{fill:#FFFFFF;}
</style>
<g>
	<path class="st0" d="M0,17.8c0-5.5,0-11,0-16.5C0,1,0,0.7,0.2,0.5C0.4,0.2,0.7,0,1.1,0c4,0,8.1,0,12.1,0c2.7,0,5.4,0,8.1,0
		c0.8,0,1.5,0,2.3,0c0.7,0,1.2,0.5,1.2,1.2c0,3.2,0,6.3,0,9.5c0,2,0,3.9,0,5.9c0,1.2,0,2.3,0,3.5c0,4.3,0,8.7,0,13c0,0.5,0,1,0,1.5
		c0,0.3-0.1,0.3-0.4,0.4l0,0c-0.4,0.1-0.7-0.1-0.9-0.5s-0.4-0.8-0.7-1.3c-0.1-0.1-0.1-0.3-0.1-0.4c0-6.5,0-13,0-19.5c0-2,0-4,0-6
		c0-0.4-0.1-0.5-0.4-0.5c-2.6,0-5.2,0-7.7,0c-4,0-8.1,0-12.1,0C2.1,6.8,2,6.9,2,7.3c0,3.9,0,7.8,0,11.7c0,4.6,0,9.2,0,13.8
		c0,0.2,0,0.3-0.1,0.5c-0.3,0.5-0.5,1-0.8,1.5C1,35,0.9,35,0.8,35c-0.8,0-0.7,0-0.7-0.7C0,28.8,0,23.3,0,17.8z M8.7,3.6
		c0-0.7-0.5-1-1-1s-1,0.4-1,1c0,0.5,0.5,1,1,1C8.3,4.5,8.7,4.2,8.7,3.6z M12.4,2.6c-0.5,0-1,0.4-1,1s0.5,1,1,1s1-0.4,1-1
		C13.4,3.1,12.9,2.6,12.4,2.6z M16.1,3.6c0,0.5,0.4,1,1,1c0.5,0,1-0.5,1-1s-0.5-1-1-1S16.1,3.1,16.1,3.6z"/>
	<path class="st0" d="M12.4,35.6c3.1,0,6.1,0,9.2,0c0.6,0,1.2,0,1.8,0c0.2,0,0.3,0.1,0.3,0.3c0,1.3,0,2.6,0,3.8
		c0,0.3-0.1,0.4-0.4,0.4c-4.1,0-8.1,0-12.2,0c-3.1,0-6.1,0-9.2,0c-0.7,0-0.7,0-0.7-0.7c0-1.1,0-2.3,0-3.4c0-0.3,0-0.3,0.3-0.3
		C5.1,35.6,8.8,35.6,12.4,35.6z"/>
	<path class="st0" d="M12.4,27c2.1,0,4.1,0,6.2,0c0.5,0,0.8,0.1,1,0.6c1.2,2.3,2.4,4.6,3.7,6.9c0.2,0.3,0.2,0.3-0.2,0.4
		c-0.2,0-0.5,0-0.7,0c-3.8,0-7.6,0-11.4,0c-0.5,0-1,0-1.6,0c-2.5,0-4.9,0-7.4,0c-0.1,0-0.1,0-0.2,0c-0.2,0-0.3-0.1-0.2-0.3
		c0.3-0.5,0.6-1,0.8-1.6c1-1.9,2-3.8,3-5.7C5.5,27,5.7,26.9,6,26.9c1.7,0,3.4,0,5.1,0C11.5,27,12,27,12.4,27L12.4,27z M21.2,33.6
		c0-0.1-0.1-0.2-0.1-0.2c-0.8-1.6-1.7-3.1-2.5-4.7c-0.1-0.3-0.3-0.3-0.6-0.3c-2,0-4.1,0-6.1,0c-1.8,0-3.6,0-5.4,0
		c-0.1,0-0.2,0-0.3,0.2c-0.9,1.6-1.7,3.3-2.6,4.9v0.1C9.5,33.6,15.3,33.6,21.2,33.6z"/>
	<path class="st0" d="M12.4,32.2c-1,0-2.1,0-3.1,0c-1.3,0-2.6,0-3.9,0c-0.2,0-0.4,0-0.4-0.3c0-0.2,0.1-0.4,0.3-0.4
		c0.2,0,0.3,0,0.5,0c4.4,0,8.9,0,13.3,0c0.1,0,0.3,0,0.4,0c0.2,0,0.4,0.1,0.4,0.3s-0.1,0.3-0.4,0.3c-0.4,0-0.8,0-1.2,0
		C16.3,32.2,14.4,32.2,12.4,32.2L12.4,32.2z"/>
	<path class="st0" d="M12.4,30.2c-1.9,0-3.7,0-5.6,0c-0.1,0-0.1,0-0.2,0c-0.2,0-0.3-0.1-0.3-0.3s0.1-0.3,0.3-0.3c0.1,0,0.1,0,0.2,0
		c3.7,0,7.4,0,11.2,0c0.1,0,0.2,0,0.2,0c0.2,0,0.3,0.2,0.3,0.3c0,0.2-0.1,0.3-0.3,0.3c-0.1,0-0.1,0-0.2,0
		C16.1,30.2,14.3,30.2,12.4,30.2z"/>
</g>
</svg>
