<?xml version="1.0" encoding="utf-8"?>
<!-- Generator: Adobe Illustrator 24.2.3, SVG Export Plug-In . SVG Version: 6.00 Build 0)  -->
<svg version="1.1" id="Layer_1" xmlns="http://www.w3.org/2000/svg" xmlns:xlink="http://www.w3.org/1999/xlink" x="0px" y="0px"
	 viewBox="0 0 25.1 40.3" style="enable-background:new 0 0 25.1 40.3;" xml:space="preserve">
<style type="text/css">
	.st0{fill:#E52033;stroke:#000000;stroke-width:0.25;stroke-miterlimit:10;}
</style>
<g>
	<g>
		<g>
			<path class="st0" d="M0.1,17.9c0-5.5,0-11,0-16.5c0-0.3,0-0.6,0.2-0.8c0.2-0.3,0.5-0.5,0.9-0.5c4,0,8.1,0,12.1,0
				c2.7,0,5.4,0,8.1,0c0.8,0,1.5,0,2.3,0c0.7,0,1.2,0.5,1.2,1.2c0,3.2,0,6.3,0,9.5c0,2,0,3.9,0,5.9c0,1.2,0,2.3,0,3.5
				c0,4.3,0,8.7,0,13c0,0.5,0,1,0,1.5c0,0.3-0.1,0.3-0.4,0.4l0,0c-0.4,0.1-0.7-0.1-0.9-0.5s-0.4-0.8-0.7-1.3
				c-0.1-0.1-0.1-0.3-0.1-0.4c0-6.5,0-13,0-19.5c0-2,0-4,0-6c0-0.4-0.1-0.5-0.4-0.5c-2.6,0-5.2,0-7.7,0c-4,0-8.1,0-12.1,0
				C2.2,6.9,2.1,7,2.1,7.4c0,3.9,0,7.8,0,11.7c0,4.6,0,9.2,0,13.8c0,0.2,0,0.3-0.1,0.5c-0.3,0.5-0.5,1-0.8,1.5
				c-0.1,0.2-0.2,0.2-0.3,0.2c-0.8,0-0.7,0-0.7-0.7C0.1,28.9,0.1,23.4,0.1,17.9z M8.8,3.7c0-0.7-0.5-1-1-1s-1,0.4-1,1
				c0,0.5,0.5,1,1,1C8.4,4.6,8.8,4.3,8.8,3.7z M12.5,2.7c-0.5,0-1,0.4-1,1s0.5,1,1,1s1-0.4,1-1C13.5,3.2,13,2.7,12.5,2.7z M16.2,3.7
				c0,0.5,0.4,1,1,1c0.5,0,1-0.5,1-1s-0.5-1-1-1S16.2,3.2,16.2,3.7z"/>
			<path class="st0" d="M12.5,35.7c3.1,0,6.1,0,9.2,0c0.6,0,1.2,0,1.8,0c0.2,0,0.3,0.1,0.3,0.3c0,1.3,0,2.6,0,3.8
				c0,0.3-0.1,0.4-0.4,0.4c-4.1,0-8.1,0-12.2,0c-3.1,0-6.1,0-9.2,0c-0.7,0-0.7,0-0.7-0.7c0-1.1,0-2.3,0-3.4c0-0.3,0-0.3,0.3-0.3
				C5.2,35.7,8.9,35.7,12.5,35.7z"/>
			<path class="st0" d="M12.5,27.1c2.1,0,4.1,0,6.2,0c0.5,0,0.8,0.1,1,0.6c1.2,2.3,2.4,4.6,3.7,6.9c0.2,0.3,0.2,0.3-0.2,0.4
				c-0.2,0-0.5,0-0.7,0c-3.8,0-7.6,0-11.4,0c-0.5,0-1,0-1.6,0c-2.5,0-4.9,0-7.4,0C2,35,2,35,1.9,35c-0.2,0-0.3-0.1-0.2-0.3
				c0.3-0.5,0.6-1,0.8-1.6c1-1.9,2-3.8,3-5.7C5.6,27.1,5.8,27,6.1,27c1.7,0,3.4,0,5.1,0C11.6,27.1,12.1,27.1,12.5,27.1L12.5,27.1z
				 M21.3,33.7c0-0.1-0.1-0.2-0.1-0.2c-0.8-1.6-1.7-3.1-2.5-4.7c-0.1-0.3-0.3-0.3-0.6-0.3c-2,0-4.1,0-6.1,0c-1.8,0-3.6,0-5.4,0
				c-0.1,0-0.2,0-0.3,0.2c-0.9,1.6-1.7,3.3-2.6,4.9v0.1C9.6,33.7,15.4,33.7,21.3,33.7z"/>
			<path class="st0" d="M12.5,32.3c-1,0-2.1,0-3.1,0c-1.3,0-2.6,0-3.9,0c-0.2,0-0.4,0-0.4-0.3c0-0.2,0.1-0.4,0.3-0.4
				c0.2,0,0.3,0,0.5,0c4.4,0,8.9,0,13.3,0c0.1,0,0.3,0,0.4,0c0.2,0,0.4,0.1,0.4,0.3s-0.1,0.3-0.4,0.3c-0.4,0-0.8,0-1.2,0
				C16.4,32.3,14.5,32.3,12.5,32.3L12.5,32.3z"/>
			<path class="st0" d="M12.5,30.3c-1.9,0-3.7,0-5.6,0c-0.1,0-0.1,0-0.2,0c-0.2,0-0.3-0.1-0.3-0.3s0.1-0.3,0.3-0.3
				c0.1,0,0.1,0,0.2,0c3.7,0,7.4,0,11.2,0c0.1,0,0.2,0,0.2,0c0.2,0,0.3,0.2,0.3,0.3c0,0.2-0.1,0.3-0.3,0.3c-0.1,0-0.1,0-0.2,0
				C16.2,30.3,14.4,30.3,12.5,30.3z"/>
		</g>
	</g>
</g>
</svg>
