<?xml version="1.0" encoding="utf-8"?>
<!-- Generator: Adobe Illustrator 23.0.1, SVG Export Plug-In . SVG Version: 6.00 Build 0)  -->
<svg version="1.1" id="Layer_1" xmlns="http://www.w3.org/2000/svg" xmlns:xlink="http://www.w3.org/1999/xlink" x="0px" y="0px"
	 viewBox="0 0 353.1 62.6" style="enable-background:new 0 0 353.1 62.6;" xml:space="preserve">
<style type="text/css">
	.st0{fill:#E52033;}
	.st1{fill:#FFFFFF;}
	.st2{fill:none;}
</style>
<g>
	<g>
		<circle class="st0" cx="132.2" cy="31.3" r="31.3"/>
		<g>
			<g id="Layer_1-2">
				<path class="st1" d="M118.2,31.7v2.7h0.5c1.5,0,3,0,4.5,0c0.5,0,0.6,0.2,0.6,0.6c0,0.5,0.1,1.1,0.2,1.6s0.4,1,0.6,1.5
					c0.1,0.2,0.2,0.5,0.3,0.7h-3.3v1.4c0,0.5,0,1,0,1.5c0,0.4-0.2,0.6-0.4,0.9c-0.2,0.3-0.5,0.4-0.9,0.4c-1.2,0-2.3,0-3.5,0
					c-0.5,0-1.2-0.6-1.2-1.1c0-3.6,0-7.1,0-10.7c0-0.1,0-0.2,0.1-0.3c0.5-0.6,1-1.1,1.4-1.7c0.4-0.5,0.7-1.1,1-1.6
					c0.2-0.3,0.6-0.6,0.8-1c0.4-0.5,0.8-1.1,1.1-1.6c0.1-0.2,0.2-0.4,0.3-0.7c0.1-0.3,0.1-0.6,0.4-0.9c0.1-0.1,0.1-0.4,0.2-0.6
					c0.3-0.9,0.5-1.8,0.8-2.7c0.1-0.5,0.4-0.9,0.5-1.4c0.1-0.4,0.2-0.9,0.4-1.3c0.1-0.3,0.2-0.6,0.4-0.9c0.2-0.3,0.5-0.6,0.9-0.8
					c0.1-0.1,0.2-0.1,0.4-0.1c5.3,0,10.6,0,15.8,0c0.5,0,0.9,0.3,1.2,0.7c0.5,0.7,0.6,1.4,0.8,2.2c0.2,0.6,0.5,1.2,0.7,1.8
					c0.2,0.6,0.3,1.2,0.5,1.8c0.2,0.4,0.2,0.9,0.5,1.3c0.2,0.3,0.3,0.7,0.3,1c0,0.5,0.3,0.8,0.6,1.1c0.4,0.6,0.8,1.1,1.2,1.6
					c0.4,0.6,0.9,1.2,1.3,1.8c0.4,0.6,0.9,1.1,1.3,1.6c0.1,0.2,0.2,0.3,0.2,0.5c0,3.5,0,6.9,0,10.4c0,0.4-0.2,0.7-0.5,1
					c-0.3,0.4-0.7,0.3-1.1,0.3c-1.1,0-2.1,0-3.2,0c-0.2,0-0.3-0.1-0.5-0.2c-0.7-0.5-0.8-1.2-0.7-1.9c0-0.6,0-1.3,0-2h-3.3
					c0.1-0.3,0.2-0.5,0.3-0.7c0.1-0.4,0.2-0.8,0.4-1.2c0.1-0.3,0.2-0.6,0.2-0.9c0-0.4,0.1-0.8,0.1-1.2c0-0.5,0.1-0.5,0.5-0.5
					c1.5,0,3,0,4.5,0h0.5v-2.7h-0.5c-1.6,0-3.3,0-4.9,0c-0.6,0-0.9-0.1-1-0.7c-0.3-0.9-0.9-1.6-1.5-2.3c-0.3-0.4-0.7-0.6-1.1-0.9
					c-0.5-0.4-1-0.7-1.6-0.9c-0.1,0-0.3-0.1-0.4-0.2c-0.4-0.3-0.8-0.3-1.2-0.4c-0.9-0.3-1.8-0.1-2.8-0.1c-0.7,0-1.4,0.2-2,0.6
					c-0.3,0.2-0.7,0.3-1,0.4c-0.3,0.2-0.6,0.4-0.9,0.6c-0.2,0.1-0.4,0.3-0.5,0.4c-0.5,0.5-1,1-1.5,1.6c-0.3,0.4-0.5,0.9-0.7,1.4
					c-0.1,0.3-0.2,0.4-0.5,0.4c-1.8,0-3.5,0-5.3,0L118.2,31.7z M122.3,24.9h19.8c0-0.1,0-0.1,0-0.2c-0.1-0.6-0.3-1.2-0.4-1.8
					c-0.1-0.3-0.2-0.6-0.3-0.9c-0.1-0.3-0.1-0.7-0.2-1c-0.1-0.3-0.1-0.5-0.2-0.8c-0.1-0.6-0.3-1.2-0.4-1.8c0-0.3-0.1-0.4-0.4-0.4
					c-5.3,0-10.7,0-16,0c-0.3,0-0.4,0.1-0.4,0.4c0,0.4-0.1,0.7-0.2,1.1c-0.1,0.3-0.2,0.6-0.3,0.9c-0.1,0.4-0.2,0.7-0.3,1.1
					c-0.1,0.4-0.2,0.7-0.3,1.1c-0.1,0.3-0.2,0.7-0.3,1C122.4,24.1,122.3,24.5,122.3,24.9z"/>
				<path class="st1" d="M132.2,27.3c0.4,0,0.9-0.1,1.3,0c0.5,0.1,0.9,0.2,1.4,0.5c0.4,0.3,0.9,0.3,1.2,0.6c0.5,0.3,0.9,0.8,1.3,1.1
					c0.7,0.6,1.1,1.4,1.5,2.3c0.6,1.3,0.6,2.6,0.6,4c0,0.5-0.1,0.9-0.3,1.3c-0.3,0.7-0.7,1.5-1.2,2.1c-0.3,0.5-0.8,0.8-1.3,1.2
					c-0.3,0.3-0.6,0.6-1,0.7c-0.4,0.1-0.8,0.2-1.1,0.4c-0.5,0.4-1.1,0.4-1.6,0.5c-0.6,0.1-1.2,0-1.8-0.1c-0.4,0-0.7,0-1-0.2
					c-0.8-0.4-1.8-0.5-2.5-1.3c-0.4-0.4-0.8-0.8-1.2-1.2c-0.4-0.4-0.7-1-0.9-1.5c-0.1-0.2-0.2-0.4-0.3-0.6c-0.1-0.2-0.2-0.4-0.2-0.7
					c-0.1-0.6-0.1-1.1-0.2-1.7c0-0.1,0-0.3,0-0.4c-0.1-0.7,0.1-1.4,0.4-2c0.3-0.8,0.7-1.5,1.2-2.2c0.2-0.3,0.6-0.6,0.9-0.9
					c0.6-0.7,1.4-1,2.1-1.3c0.4-0.2,0.8-0.4,1.3-0.5c0.1,0,0.2,0,0.2,0C131.3,27.3,131.8,27.3,132.2,27.3z M138.3,34.6
					c-0.1-0.3-0.1-0.6-0.2-1s-0.1-0.8-0.3-1.2c-0.4-0.8-0.7-1.6-1.4-2.1c-0.2-0.1-0.3-0.4-0.5-0.5c-0.5-0.3-0.9-0.5-1.4-0.7
					c-0.4-0.2-0.8-0.4-1.2-0.4c-0.8,0-1.6-0.2-2.4,0.1c-0.3,0.1-0.6,0.2-0.8,0.3c-0.2,0.1-0.4,0.1-0.5,0.2c-0.5,0.4-1.1,0.6-1.5,1.2
					c-0.2,0.3-0.5,0.6-0.7,0.9c-0.3,0.5-0.5,1-0.7,1.5c-0.2,0.4-0.2,0.9-0.3,1.3c-0.1,0.8,0,1.6,0.3,2.5c0.3,0.8,0.7,1.6,1.4,2.2
					c0.4,0.3,0.7,0.8,1.2,1c0.6,0.2,1.1,0.5,1.6,0.7c0.4,0.1,0.8,0.2,1.2,0.2c0.6,0,1.1-0.1,1.7-0.1h0.1c0.2-0.1,0.5-0.2,0.7-0.4
					c0.4-0.2,1-0.3,1.3-0.7c0.5-0.6,1.2-1,1.5-1.7c0.2-0.5,0.6-1,0.8-1.6C138.2,35.8,138.2,35.2,138.3,34.6L138.3,34.6z"/>
				<path class="st1" d="M144.6,45.2c-0.1,0.2-0.2,0.3-0.3,0.4c-0.4,0.4-0.7,0.7-1.1,1.1c-0.4,0.4-0.4,0.4-0.8,0
					c-0.6-0.7-1.2-1.3-1.9-2c-0.1-0.1-0.4-0.2-0.5-0.4c-0.4-0.4-0.7-0.8-1.1-1.2s-0.8-0.6-1.1-1c-0.2-0.2-0.3-0.5-0.5-0.7
					c0-0.1,0-0.2,0.1-0.3c0.4-0.5,0.9-0.9,1.4-1.4c0.2-0.2,0.3-0.2,0.5,0c0.1,0.1,0.3,0.2,0.4,0.4c0.5,0.5,1,1.1,1.5,1.6
					c0.3,0.3,0.6,0.5,0.9,0.8c0.5,0.5,1,1.1,1.5,1.6c0.3,0.3,0.5,0.5,0.8,0.7C144.4,45,144.5,45.1,144.6,45.2z"/>
			</g>
		</g>
	</g>
	<g>
		<path class="st1" d="M219.5,23.8c-3.7,0-5.5-2-5.5-6.1c0-2.1,0.5-3.6,1.4-4.6s2.3-1.5,4.1-1.5c0.4,0,0.8,0,1.2,0.1
			c0.5,0,0.9,0.1,1.4,0.2v1.5c-0.5-0.1-1-0.2-1.4-0.2s-0.7-0.1-1.1-0.1c-0.7,0-1.3,0.1-1.7,0.3c-0.5,0.2-0.9,0.4-1.2,0.8
			c-0.3,0.4-0.5,0.8-0.7,1.4c-0.1,0.6-0.2,1.3-0.2,2.1c0,1.6,0.3,2.8,0.9,3.5c0.6,0.7,1.5,1.1,2.8,1.1c0.2,0,0.4,0,0.6,0
			c0.2,0,0.5,0,0.7-0.1c0.2,0,0.5-0.1,0.7-0.1s0.4-0.1,0.6-0.1v1.5c-0.4,0.1-0.8,0.2-1.3,0.2C220.3,23.8,219.9,23.8,219.5,23.8z"/>
		<path class="st1" d="M222.8,23.5l4.2-11.8h2.7l4.2,11.8v0.1H232l-1.2-3.3h-5.1l-1.2,3.3h-1.8v-0.1H222.8z M230.4,18.8l-1.3-3.6
			l-0.7-2.1h-0.2l-0.7,2.1l-1.3,3.6H230.4z"/>
		<path class="st1" d="M235.3,11.8h2.5l2.8,6.8l0.9,2.5h0.1l0.9-2.5l2.8-6.8h2.5v11.9h-1.7V14H246l-1.3,3.3l-2.5,5.9h-1.6l-2.5-5.9
			l-1.3-3.3h-0.1v9.7H235V11.8H235.3z"/>
		<path class="st1" d="M251.1,23.7c-0.3,0-0.6-0.1-0.8-0.3c-0.2-0.2-0.3-0.4-0.3-0.8c0-0.4,0.1-0.6,0.3-0.8c0.2-0.2,0.5-0.3,0.8-0.3
			s0.6,0.1,0.8,0.3s0.3,0.4,0.3,0.8c0,0.3-0.1,0.6-0.3,0.8C251.8,23.6,251.5,23.7,251.1,23.7z"/>
		<path class="st1" d="M254.5,11.8h1.8v10.4h5.3v1.5h-7.1V11.8z"/>
		<path class="st1" d="M263.2,11.9c1.1-0.2,2.1-0.2,3.1-0.2c2,0,3.4,0.3,4.3,1c0.9,0.7,1.3,1.7,1.3,3.2c0,1.4-0.4,2.5-1.3,3.2
			c-0.9,0.7-2.3,1-4.2,1c-0.2,0-0.4,0-0.7,0c-0.3,0-0.5,0-0.7,0v3.7h-1.8V11.9L263.2,11.9z M266.7,18.5c0.6,0,1.1,0,1.6-0.1
			c0.4-0.1,0.8-0.3,1.1-0.5s0.5-0.5,0.6-0.8s0.2-0.8,0.2-1.2c0-0.5-0.1-0.9-0.2-1.2s-0.3-0.6-0.6-0.8s-0.6-0.4-1.1-0.5
			s-1-0.2-1.6-0.2c-0.3,0-0.6,0-0.9,0c-0.3,0-0.6,0-0.8,0.1v5.1c0.2,0,0.4,0.1,0.8,0.1C266.1,18.5,266.4,18.5,266.7,18.5z"/>
		<path class="st1" d="M278.4,19.4c-0.4,0-0.9,0-1.3,0c-0.2,0-0.4,0-0.7,0c-0.3,0-0.5,0-0.7-0.1v4.3h-1.8V11.9
			c1.1-0.2,2.1-0.2,3.1-0.2s1.8,0.1,2.5,0.2c0.7,0.2,1.3,0.4,1.7,0.7c0.5,0.3,0.8,0.7,1,1.2s0.3,1.1,0.3,1.8c0,1.8-0.8,3-2.5,3.5
			l2.9,4.6h-2L278.4,19.4z M277.3,18c0.6,0,1.1,0,1.6-0.1c0.4-0.1,0.8-0.2,1.1-0.4s0.5-0.4,0.6-0.8c0.1-0.3,0.2-0.7,0.2-1.1
			s-0.1-0.8-0.2-1.1c-0.1-0.3-0.3-0.6-0.6-0.8s-0.6-0.3-1.1-0.4c-0.4-0.1-1-0.1-1.6-0.1c-0.3,0-0.5,0-0.9,0c-0.3,0-0.6,0-0.8,0.1
			v4.6c0.2,0,0.4,0.1,0.7,0.1S276.9,18,277.3,18z"/>
		<path class="st1" d="M285.3,23.7c-0.3,0-0.6-0.1-0.8-0.3c-0.2-0.2-0.3-0.4-0.3-0.8c0-0.4,0.1-0.6,0.3-0.8c0.2-0.2,0.5-0.3,0.8-0.3
			s0.6,0.1,0.8,0.3c0.2,0.2,0.3,0.4,0.3,0.8c0,0.3-0.1,0.6-0.3,0.8C285.9,23.6,285.7,23.7,285.3,23.7z"/>
		<path class="st1" d="M289.9,13.8L289.9,13.8l-2.8,1.2H287l-0.2-1.1v-0.1l3.6-2.1h1.4v11.9H290L289.9,13.8L289.9,13.8z"/>
		<path class="st1" d="M298.3,23.7c-1.4,0-2.5-0.3-3.2-0.8s-1.1-1.3-1.1-2.3c0-0.4,0.1-0.8,0.2-1.1c0.1-0.3,0.3-0.6,0.5-0.9
			c0.2-0.2,0.4-0.5,0.7-0.6c0.3-0.2,0.5-0.3,0.7-0.4c-0.2-0.1-0.5-0.3-0.7-0.4c-0.2-0.2-0.4-0.4-0.5-0.6c-0.2-0.2-0.3-0.5-0.4-0.8
			c-0.1-0.3-0.1-0.6-0.1-1c0-0.5,0.1-0.9,0.3-1.3c0.2-0.4,0.5-0.7,0.8-1c0.4-0.3,0.8-0.5,1.3-0.6s1-0.2,1.6-0.2
			c1.2,0,2.1,0.3,2.8,0.8s1,1.3,1,2.3c0,0.4,0,0.7-0.1,1c-0.1,0.3-0.2,0.6-0.4,0.8c-0.2,0.2-0.3,0.4-0.6,0.6
			c-0.2,0.2-0.4,0.3-0.7,0.5c0.3,0.1,0.6,0.3,0.8,0.4c0.3,0.2,0.5,0.4,0.7,0.6s0.3,0.5,0.5,0.8c0.1,0.3,0.2,0.7,0.2,1.1
			c0,1-0.4,1.8-1.1,2.4C300.8,23.5,299.8,23.7,298.3,23.7z M297.5,18c-0.2,0.1-0.4,0.2-0.6,0.3c-0.2,0.1-0.4,0.3-0.6,0.5
			s-0.3,0.4-0.4,0.7c-0.1,0.3-0.2,0.6-0.2,0.9c0,0.7,0.2,1.2,0.7,1.5s1.1,0.5,1.9,0.5s1.4-0.2,1.9-0.5s0.7-0.8,0.7-1.4
			c0-0.4-0.1-0.7-0.2-0.9c-0.1-0.3-0.3-0.5-0.6-0.6c-0.3-0.2-0.5-0.3-0.9-0.4c-0.3-0.1-0.7-0.2-1.1-0.3L297.5,18z M296.1,14.8
			c0,0.4,0.1,0.7,0.2,0.9c0.2,0.2,0.4,0.5,0.6,0.6c0.3,0.2,0.6,0.3,0.9,0.4c0.3,0.1,0.7,0.2,1.1,0.3h0.2c0.2-0.1,0.3-0.2,0.5-0.3
			c0.2-0.1,0.3-0.3,0.5-0.5c0.2-0.2,0.3-0.4,0.4-0.6c0.1-0.2,0.1-0.5,0.1-0.8c0-0.6-0.2-1.1-0.6-1.4c-0.4-0.3-1-0.5-1.6-0.5
			c-0.7,0-1.2,0.2-1.6,0.5C296.3,13.7,296.1,14.2,296.1,14.8z"/>
	</g>
	<g>
		<line class="st2" x1="163.5" y1="31.3" x2="353.1" y2="31.3"/>
		<g>
			<rect x="163.5" y="30.8" class="st1" width="183.6" height="1"/>
			<g>
				<path class="st1" d="M353.1,31.3c-2.8,1.1-6.4,2.9-8.5,4.8l1.7-4.8l-1.7-4.8C346.8,28.4,350.3,30.2,353.1,31.3z"/>
			</g>
		</g>
	</g>
	<g>
		<g>
			<line class="st2" x1="0" y1="31.3" x2="101" y2="31.3"/>
			<g>
				<rect y="30.8" class="st1" width="94.9" height="1"/>
				<g>
					<path class="st1" d="M101,31.3c-2.8,1.1-6.4,2.9-8.5,4.8l1.7-4.8l-1.7-4.8C94.6,28.4,98.1,30.2,101,31.3z"/>
				</g>
			</g>
		</g>
		<g>
			<g>
				<path class="st1" d="M1.4,11.8h7.5V13H2.8v4h5.7v1.2H2.8v4.2H9v1.2H1.4V11.8z"/>
				<path class="st1" d="M10,15.1V15h1.5l2.2,6.2l0.4,1.3h0.2l0.4-1.3L17,15h1.4v0.2L15,23.6h-1.8L10,15.1z"/>
				<path class="st1" d="M23.1,23.7c-1.3,0-2.3-0.4-3-1.1s-1-1.8-1-3.3s0.3-2.6,1-3.4c0.7-0.8,1.6-1.2,2.9-1.2
					c2.2,0,3.3,1.3,3.3,3.9c0,0.5,0,0.9-0.1,1.1h-5.7c0.1,1,0.3,1.7,0.7,2.2c0.4,0.4,1.1,0.7,2,0.7c0.4,0,0.8,0,1.3-0.1
					s0.9-0.2,1.4-0.3l0.1,1.1c-0.4,0.2-0.9,0.3-1.4,0.4C24.1,23.7,23.6,23.7,23.1,23.7z M23,15.9c-1.5,0-2.4,1-2.5,2.9H25
					c0-1-0.2-1.8-0.5-2.2C24.2,16.1,23.7,15.9,23,15.9z"/>
				<path class="st1" d="M28.3,15h1.2l0.1,1h0.1c0.4-0.2,0.8-0.4,1.2-0.5c0.3-0.1,0.7-0.3,1-0.4c0.3-0.1,0.6-0.2,0.8-0.2
					c0.3,0,0.5-0.1,0.8-0.1c0.7,0,1.3,0.2,1.7,0.6s0.6,1,0.6,1.8v6.4h-1.4v-6c0-0.6-0.1-1-0.3-1.3s-0.6-0.4-1.1-0.4
					c-0.4,0-0.9,0.1-1.4,0.3c-0.5,0.2-1.1,0.4-1.7,0.7v6.7h-1.4V15H28.3z"/>
				<path class="st1" d="M41.3,23.7c-0.8,0-1.4-0.2-1.9-0.6c-0.4-0.4-0.6-1-0.6-1.8v-5.1H37V15h1.9l0.2-2.2l1.1-0.1V15h2.6v1.2h-2.5
					V21c0,0.5,0.1,0.9,0.4,1.2c0.2,0.3,0.6,0.4,1.1,0.4c0.2,0,0.3,0,0.5,0s0.4-0.1,0.6-0.1v1.1c-0.2,0.1-0.5,0.1-0.8,0.2
					S41.6,23.7,41.3,23.7z"/>
				<path class="st1" d="M46.7,13.4L46.7,13.4l-2.8,1.4h-0.1L43.6,14v-0.1l3.5-2.1h1.1v11.8h-1.4L46.7,13.4L46.7,13.4z"/>
			</g>
		</g>
	</g>
</g>
</svg>
