<svg xmlns="http://www.w3.org/2000/svg" viewBox="0 0 498.6 498.71"><defs><style>.cls-1{fill:#fff;}</style></defs><title>retail</title><g id="Layer_2" data-name="Layer 2"><g id="Layer_1-2" data-name="Layer 1"><path class="cls-1" d="M268.21,96h95.84V249.38H498.23c.14,2.32.35,4.08.35,5.84q0,118.23,0,236.46c0,7,0,7-7.1,7q-242.46,0-484.91,0c-6.55,0-6.58,0-6.58-6.53Q0,297.46,0,102.74c0-6.59,0-6.64,6.46-6.64,27.83,0,55.66-.14,83.49.07,4.77,0,6.23-1.23,6.12-6.09-.7-29.19,9.9-53.59,33-71.56C179.23-20.51,251.26,5.18,266,67.15c1.45,6.09,1.62,12.5,2.17,18.78C268.43,89.05,268.21,92.2,268.21,96Zm.43,19.09a18,18,0,0,0-.36,2.2c0,11.33,0,22.67-.12,34a8.36,8.36,0,0,0,3.13,7.25,18.48,18.48,0,0,1,1,27.47,18.92,18.92,0,0,1-27.28-.49c-7.23-7.68-6.41-19.84,1.51-27.31a9.65,9.65,0,0,0,2.83-6.19q.3-32.49.1-65c-.15-37-27.06-65.51-64.1-68-35.77-2.37-68.74,26.26-70.17,62-1,23.95-.46,48-.42,72a7.79,7.79,0,0,0,2.51,4.91c8.58,8,9.36,20,1.62,28a19.15,19.15,0,0,1-27.33-.2C84,177.71,84.8,165.9,93.13,158a9.21,9.21,0,0,0,2.71-5.8c.27-10.83,0-21.67.24-32.49.09-4-1.22-5.11-5.12-5.08-21.66.15-43.33,0-65,0-7.38,0-7.37,0-7.37,7.19q0,64.49,0,129,0,112-.06,223.94c0,3.53.47,5.41,4.81,5.39,35.49-.18,71-.1,106.48-.13a44.71,44.71,0,0,0,4.72-.52V249.34h210.7V115.05ZM375.38,339l.37,0c-.48,6-.57,12-1.5,17.87-4.63,29.39-29.47,52.32-59.56,55.26-29.07,2.84-57.62-14.85-68.38-41.92-5.48-13.77-4.94-28.06-4.72-42.35a9.56,9.56,0,0,1,2.79-6.16c8.37-7.79,9.1-20,1.37-28.11a19.45,19.45,0,0,0-27.77-.35,18.9,18.9,0,0,0,.83,28c2.64,2.28,3.09,4.55,3.23,7.68.56,12.11-.11,24.53,2.47,36.23,8.43,38.26,40.59,64.23,80.82,66.81,35.82,2.29,71-21.42,84.3-56.42,5.59-14.71,5.94-29.92,5.54-45.26-.1-4,.71-7,3.93-10,7.55-7,7.42-19.07.35-26.55a19.26,19.26,0,0,0-27-1.23c-7.88,7-9.18,19.44-1.76,26.79,4.08,4,5.16,8,4.72,13.19C375.23,334.63,375.38,336.81,375.38,339Z"/><path class="cls-1" d="M134.68,114.24V96.4c2-.11,3.79-.29,5.57-.29,28,0,56,.08,84-.11,4.54,0,6.3,1.16,5.82,5.86-.41,3.92-.09,7.93-.09,12.38Z"/></g></g></svg>