<svg xmlns="http://www.w3.org/2000/svg" viewBox="0 0 573.99 644.39"><defs><style>.cls-1{fill:#fff;}</style></defs><title>security</title><g id="Layer_2" data-name="Layer 2"><g id="Layer_1-2" data-name="Layer 1"><path class="cls-1" d="M0,254.51v-70.4c1.8-21,4-42,5.25-63C6.08,107.51,11.06,98.76,24.89,94c37.4-12.8,74.45-26.66,111.56-40.3Q209.07,27,281.58,0h10.83a28.84,28.84,0,0,0,4.52,2.6c83.6,30.41,167.13,61,250.94,90.87,14.7,5.24,20.35,14,21,28.91.93,20.61,3.34,41.16,5.11,61.73v70.4c-.75,5.28-2,10.54-2.19,15.84-2.06,45.12-9.16,89.44-22.29,132.61-26.86,88.33-74.91,160.79-157.13,207.35-30.42,17.22-63.29,27.15-97.26,34.08H278.87c-1.65-.67-3.24-1.68-5-2C204.05,630.89,146.7,597,100.34,544.23,45.94,482.38,20,408,8.14,328,4.54,303.61,2.67,279,0,254.51Zm534.39-36c-1.3-26.11-2.91-52.21-3.74-78.34-.26-8-3.08-11.82-10.67-14.54-74.88-26.87-149.58-54.26-224.5-81-5.28-1.89-12.46-1.53-17.83.39C203.16,71.66,128.87,98.84,54.42,125.59c-7.34,2.63-10.9,6.06-11,14.31-.58,37-3.12,73.94-2.37,110.86,1.2,59.32,10.57,117.51,32.74,172.92,32.32,80.79,85.82,141.09,169.78,170.42,18.53,6.47,37.38,12.61,58,7.87,91.23-21,152.78-77.35,191.1-160.69C525.11,370.69,534.08,295.43,534.39,218.54Z"/><path class="cls-1" d="M368.87,271c32.82,4.79,38.5,11.44,38.51,42.61,0,34.25.08,68.49,0,102.74-.08,26-10.14,36.21-35.68,36.23q-85.17.09-170.34,0c-24,0-34.45-10.45-34.56-34.55-.17-33.34-.05-66.69-.05-100,0-36.39,2.61-39.74,38.33-47.68,0-18-.08-36.28,0-54.62.2-40.52,24.1-64.15,64.89-64.22,13.52,0,27-.18,40.55.05,32.3.55,57.25,24.71,58.25,57.08C369.39,229.17,368.87,249.81,368.87,271Zm-39.09.62c0-21,.4-40.41-.15-59.75-.34-11.87-7-19.77-19.22-20.33-15.73-.73-31.54-.55-47.29,0-10.33.37-17.67,7-18.19,16.79-1.1,20.89-.34,41.88-.34,63.28Zm-68,67.61c.79,2.44.85,8.21,3.73,10.6,10.37,8.61,8.38,19.84,8.39,30.84,0,6.74.32,13.5-.06,20.23-.55,9.53,4.17,12.69,13,12.65,8.59,0,14-2.5,13.32-12.33-.35-5.37-.1-10.79-.05-16.18.12-12.7-1.43-25,8.7-36.26,6.82-7.61,4.79-19-2.44-27.32s-16.45-12.21-27.7-7.85C267.86,317.8,262.39,325.73,261.76,339.21Z"/></g></g></svg>