<svg xmlns="http://www.w3.org/2000/svg" viewBox="0 0 25 25"><defs><style>.cls-1{fill:#fff;}</style></defs><title>tooltip</title><g id="Layer_2" data-name="Layer 2"><g id="bg"><path class="cls-1" d="M12.49,20.53a1.6,1.6,0,0,1-1.16-.39,1.48,1.48,0,0,1-.4-1.1,1.52,1.52,0,0,1,.4-1.11,1.56,1.56,0,0,1,1.16-.4,1.61,1.61,0,0,1,1.17.4A1.49,1.49,0,0,1,14.07,19a1.45,1.45,0,0,1-.41,1.1A1.65,1.65,0,0,1,12.49,20.53Zm-1-5.08L11,4.68V4.47h3v.21l-.58,10.77v.26H11.54Z"/><path class="cls-1" d="M12.5,25A12.5,12.5,0,1,1,25,12.5,12.52,12.52,0,0,1,12.5,25Zm0-23.73A11.23,11.23,0,1,0,23.73,12.5,11.25,11.25,0,0,0,12.5,1.27Z"/></g></g></svg>