<svg xmlns="http://www.w3.org/2000/svg" viewBox="0 0 50.4 50"><defs><style>.cls-1{fill:#fff;}</style></defs><title>Asset 1</title><g id="Layer_2" data-name="Layer 2"><g id="layer"><path class="cls-1" d="M0,33.52c0-1.42,0-2.83,0-4.24a1.63,1.63,0,0,1,1-1.73,2.12,2.12,0,0,1,.21-.11c2.68-.84,3.59-2.61,3.19-5.36-.24-1.63,0-3.31-.07-5a2.09,2.09,0,0,1,1.27-2.2c3-1.57,5.85-3.25,8.79-4.84.65-.35,1-.75.87-1.5-.53-2.59.61-4.08,3-5.08A48.74,48.74,0,0,0,23.88.4a2.12,2.12,0,0,1,2.44,0C28.5,1.67,30.74,2.87,33,4.09a8.14,8.14,0,0,0,1.31.6c.76.25,1,.7.78,1.47a4,4,0,0,0-.12.58c-.26,1.86.11,3.19,2.11,4.08C39.73,12,42.21,13.64,44.8,15a1.81,1.81,0,0,1,1.07,1.83c0,2.62,0,5.25,0,7.88a1.28,1.28,0,0,0,.81,1.41,25.51,25.51,0,0,1,3,1.49,1.55,1.55,0,0,1,.74,1.09c0,3-.15,5.95-.16,8.93A2.06,2.06,0,0,1,49,39.77q-3.75,2-7.41,4.1a1.94,1.94,0,0,1-2.44,0,2.06,2.06,0,0,0-2.62,0c-3.45,2-7,3.88-10.44,5.86a1.78,1.78,0,0,1-2,0c-3.58-2-7.2-4-10.77-6a1.55,1.55,0,0,0-2,0,2.43,2.43,0,0,1-3.1,0C5.92,42.3,3.51,41,1.09,39.7A1.8,1.8,0,0,1,0,37.88C.06,36.43,0,35,0,33.52Zm14.58,8.4c3.45,1.91,6.72,3.74,10,5.52a1.51,1.51,0,0,0,1.19-.09c2-1.06,4-2.18,5.93-3.28l3.89-2.17c-1.5-.83-2.85-1.48-4.07-2.31a2.33,2.33,0,0,1-.94-1.6c-.1-2.91,0-5.82-.06-8.73a1.74,1.74,0,0,1,1-1.73A70.15,70.15,0,0,0,37.81,24c1.81-1.21,3.41-1.4,5.12,0a3.31,3.31,0,0,0,.74.33,20.45,20.45,0,0,1,0-3.6c.57-3-.66-4.76-3.45-5.85a45.59,45.59,0,0,1-5.31-2.87c0,1.09,0,2,0,2.85a1.74,1.74,0,0,1-1,1.85c-2.66,1.43-5.27,2.95-7.95,4.36a2.06,2.06,0,0,1-1.65,0c-2.75-1.44-5.47-2.95-8.13-4.53a2.28,2.28,0,0,1-.85-1.53,23.14,23.14,0,0,1,0-3c-2.91,1.61-5.62,3.1-8.32,4.62a.88.88,0,0,0-.39.66c0,2.31,0,4.63,0,7.1a12.52,12.52,0,0,0,1.64-.89,2.69,2.69,0,0,1,3.32,0c2.49,1.46,5.11,2.7,7.64,4.11a1.86,1.86,0,0,1,.65,1.25,13.83,13.83,0,0,1-.15,1.66c0,2.42,0,4.85,0,7.27a1.78,1.78,0,0,1-1.07,1.83C17.3,40.36,16,41.12,14.6,41.92Zm2.88-11.34c-2.17,1.17-4.18,2.24-6.18,3.33a.66.66,0,0,0-.34.45c0,2.31,0,4.61,0,7.08,2.15-1.18,4.09-2.23,6-3.34a1.11,1.11,0,0,0,.5-.82C17.5,35.12,17.48,33,17.48,30.58ZM39.3,41.45a31.89,31.89,0,0,1,0-4.39c.31-2.24-.44-3.6-2.59-4.38a32.55,32.55,0,0,1-4-2.08c0,2.33,0,4.43,0,6.53a1.39,1.39,0,0,0,.58,1C35.24,39.24,37.16,40.27,39.3,41.45ZM17.48,7.65c0,2.41,0,4.61,0,6.81a.8.8,0,0,0,.3.6c2,1.14,4.05,2.25,6.23,3.45,0-2.41,0-4.62,0-6.83a.9.9,0,0,0-.36-.66C21.66,9.9,19.65,8.83,17.48,7.65Zm15.27,0c-2.15,1.16-4.1,2.2-6,3.27-.21.11-.48.38-.48.58,0,2.28,0,4.55,0,7,2.16-1.2,4.14-2.26,6.08-3.39a1.17,1.17,0,0,0,.44-.86C32.77,12.13,32.75,10,32.75,7.66ZM2.2,30.58a30.92,30.92,0,0,1,0,4.11c-.35,2.35.42,3.84,2.72,4.67a29.63,29.63,0,0,1,3.86,2c0-2.37,0-4.5,0-6.64a1.21,1.21,0,0,0-.43-.88C6.35,32.79,4.37,31.74,2.2,30.58ZM41.49,41.44c2.18-1.21,4.18-2.3,6.17-3.43a.77.77,0,0,0,.35-.55c0-2.23,0-4.47,0-6.88-2.17,1.17-4.16,2.21-6.11,3.32a1.18,1.18,0,0,0-.42.88C41.47,36.92,41.49,39.06,41.49,41.44ZM31.62,5.82c-2.11-1.16-4.07-2.25-6-3.32a1,1,0,0,0-.77-.08c-2,1.09-4,2.22-6.19,3.41,2.1,1.14,4,2.2,6,3.23a1.09,1.09,0,0,0,.86.08C27.49,8.08,29.48,7,31.62,5.82ZM16.34,28.74c-1.63-.9-3.13-1.58-4.47-2.51a3.15,3.15,0,0,0-4.07,0c-1.36.93-2.87,1.63-4.46,2.52,2.13,1.15,4,2.2,5.95,3.2a1.38,1.38,0,0,0,1.09,0C12.31,31,14.2,29.9,16.34,28.74Zm30.55,0c-2.17-1.2-4.13-2.3-6.11-3.37a.83.83,0,0,0-.65-.06c-2,1.1-4.05,2.22-6.24,3.43C36.05,29.91,38,31,40,32a1.2,1.2,0,0,0,1-.05C42.86,31,44.76,29.9,46.89,28.74Z"/></g></g></svg>