<svg xmlns="http://www.w3.org/2000/svg" viewBox="0 0 196.59 197.01"><defs><style>.cls-1{fill:#fff;}</style></defs><title>locate</title><g id="Layer_2" data-name="Layer 2"><g id="Layer_1-2" data-name="Layer 1"><path class="cls-1" d="M98.46,159A314.15,314.15,0,0,0,134.07,118c7.59-10.59,14.52-21.54,18.53-34,7.34-22.91-6-52.17-29.21-63.85C89.34,3,48,24.73,42.84,62.62c-.38,2.79-.77,5.6-.92,8.42-.28,4.89-2.92,8-7,8s-7.45-3.26-6.79-8.14c1.18-8.67,2.18-17.61,5.14-25.75C43.21,17.71,70.88-.55,100.09,0c34.17.66,64.31,29.07,68,62.94,2,18.39-4.3,34-13.3,49-13.69,22.9-31.35,42.58-50.61,60.88-4.1,3.89-7.08,4.23-11,.71C70.48,153,49.79,130.77,36.4,102.75a11.7,11.7,0,0,1-.4-8.33c.64-1.68,4.12-3.49,6-3.17a9.78,9.78,0,0,1,6.29,4.59C60,120.08,77.74,139.63,96.87,158.08A9.06,9.06,0,0,0,98.46,159Z"/><path class="cls-1" d="M19,182.84H177.53c-5-8.81-9.72-17.13-14.46-25.44-2.38-4.2-4.91-8.31-7.17-12.57s-1.26-8.13,2.1-10.06c3.7-2.13,7.68-.93,10.08,3.25Q181.61,161.6,195,185.27c3.65,6.47.67,11.7-6.75,11.7q-90,.08-179.9,0c-7.5,0-10.48-5.15-6.81-11.66q13.23-23.48,26.7-46.82c2.67-4.65,6.63-6,10.33-3.72,3.54,2.15,4.32,6,1.82,10.48C33.48,157.54,26.46,169.78,19,182.84Z"/><path class="cls-1" d="M98.12,98.26c-15.64,0-27.69-12.1-27.76-27.84a27.93,27.93,0,1,1,55.85-.13C126.18,86.32,114.18,98.27,98.12,98.26Zm-.07-13.59c7.46.17,14.53-6.81,14.5-14.29s-6.45-13.92-14-14.21c-7.21-.28-14.15,6.29-14.5,13.71S90.6,84.51,98.05,84.67Z"/></g></g></svg>