<svg xmlns="http://www.w3.org/2000/svg" viewBox="0 0 20 15.99"><defs><style>.cls-1{fill:#fff;}</style></defs><title>tree-open-site</title><g id="Layer_2" data-name="Layer 2"><g id="layer"><path class="cls-1" d="M10,16H1.88A1.67,1.67,0,0,1,0,14.13V1.86A1.66,1.66,0,0,1,1.85,0H18.14A1.65,1.65,0,0,1,20,1.84V14.15A1.66,1.66,0,0,1,18.14,16Zm0-1.31H18.1c.54,0,.62-.08.62-.62V1.94c0-.56-.08-.65-.63-.65H1.9c-.53,0-.62.09-.62.63V14.08c0,.52.09.6.6.6Z"/><path class="cls-1" d="M13,4.3l2.18,2.2,2,2a.64.64,0,0,1,.2.4c0,1.41,0,2.83,0,4.24a2,2,0,0,1,0,.2H2.69c0-.65,0-1.3,0-1.94,0-.06.07-.12.12-.17L6,8,7.6,9.73Z"/><path class="cls-1" d="M6.63,4.64a2,2,0,0,1-2,2,1.94,1.94,0,0,1-2-2,1.94,1.94,0,0,1,2-2A1.94,1.94,0,0,1,6.63,4.64Z"/></g></g></svg>